<svg width="459" height="196" viewBox="0 0 459 196" fill="none" xmlns="http://www.w3.org/2000/svg">
<path d="M359.061 50.0615H101.149C74.6522 50.0615 53.1719 71.5328 53.1719 98.0189C53.1719 124.505 74.6522 145.976 101.149 145.976H359.061C385.559 145.976 407.039 124.505 407.039 98.0189C407.039 71.5328 385.559 50.0615 359.061 50.0615Z" fill="url(#paint0_linear_18_17784)"/>
<path opacity="0.72" d="M359.563 160.112H100.632C84.1596 160.112 68.3621 153.571 56.7146 141.927C45.067 130.283 38.5234 114.49 38.5234 98.0236C38.5234 81.5567 45.067 65.7642 56.7146 54.1204C68.3621 42.4765 84.1596 35.9351 100.632 35.9351H359.563C376.035 35.9351 391.832 42.4765 403.48 54.1204C415.127 65.7642 421.671 81.5567 421.671 98.0236C421.671 114.49 415.127 130.283 403.48 141.927C391.832 153.571 376.035 160.112 359.563 160.112ZM100.632 42.5369C86.0389 42.7289 72.1088 48.6588 61.8573 59.0428C51.6058 69.4268 45.8579 83.4293 45.8579 98.0188C45.8579 112.608 51.6058 126.611 61.8573 136.995C72.1088 147.379 86.0389 153.309 100.632 153.501H359.563C374.155 153.309 388.086 147.379 398.337 136.995C408.589 126.611 414.336 112.608 414.336 98.0188C414.336 83.4293 408.589 69.4268 398.337 59.0428C388.086 48.6588 374.155 42.7289 359.563 42.5369H100.632Z" fill="url(#paint1_linear_18_17784)"/>
<g opacity="0.7">
<path opacity="0.54" d="M357.85 173.979H101.88C81.9165 173.754 62.8468 165.669 48.8091 151.477C34.7715 137.284 26.8984 118.131 26.8984 98.1725C26.8984 78.214 34.7715 59.0606 48.8091 44.8685C62.8468 30.6765 81.9165 22.5908 101.88 22.3661H357.85C367.88 22.2532 377.833 24.1307 387.132 27.8897C396.432 31.6487 404.892 37.2145 412.025 44.265C419.158 51.3155 424.82 59.7105 428.685 68.9638C432.549 78.2172 434.539 88.145 434.539 98.1725C434.539 108.2 432.549 118.128 428.685 127.381C424.82 136.635 419.158 145.03 412.025 152.08C404.892 159.131 396.432 164.696 387.132 168.455C377.833 172.214 367.88 174.092 357.85 173.979ZM101.88 26.114C82.759 26.114 64.4211 33.7073 50.9005 47.2236C37.3798 60.7399 29.784 79.072 29.784 98.187C29.784 117.302 37.3798 135.634 50.9005 149.15C64.4211 162.667 82.759 170.26 101.88 170.26H357.85C376.971 170.26 395.309 162.667 408.83 149.15C422.35 135.634 429.946 117.302 429.946 98.187C429.946 79.072 422.35 60.7399 408.83 47.2236C395.309 33.7073 376.971 26.114 357.85 26.114H101.88Z" fill="url(#paint2_linear_18_17784)"/>
</g>
<g opacity="0.3">
<path opacity="0.82" d="M358.254 185.895H101.438C78.3247 185.653 56.2397 176.305 39.9806 159.88C23.7216 143.455 14.6016 121.28 14.6016 98.1726C14.6016 75.065 23.7216 52.8905 39.9806 36.4656C56.2397 20.0407 78.3247 10.692 101.438 10.4502H358.254C381.368 10.692 403.453 20.0407 419.712 36.4656C435.971 52.8905 445.091 75.065 445.091 98.1726C445.091 121.28 435.971 143.455 419.712 159.88C403.453 176.305 381.368 185.653 358.254 185.895ZM101.438 12.3721C78.8328 12.6113 57.2343 21.7563 41.3336 37.821C25.4329 53.8857 16.514 75.5729 16.514 98.1726C16.514 120.772 25.4329 142.46 41.3336 158.524C57.2343 174.589 78.8328 183.734 101.438 183.973H358.254C380.86 183.734 402.459 174.589 418.359 158.524C434.26 142.46 443.179 120.772 443.179 98.1726C443.179 75.5729 434.26 53.8857 418.359 37.821C402.459 21.7563 380.86 12.6113 358.254 12.3721H101.438Z" fill="url(#paint3_linear_18_17784)"/>
</g>
<g opacity="0.1">
<path opacity="0.89" d="M362.303 195.841H97.4317C71.6981 195.586 47.1052 185.188 28.9984 166.906C10.8916 148.625 0.734375 123.938 0.734375 98.2112C0.734375 72.4846 10.8916 47.7977 28.9984 29.5162C47.1052 11.2347 71.6981 0.836284 97.4317 0.581055H362.303C388.037 0.836284 412.63 11.2347 430.736 29.5162C448.843 47.7977 459 72.4846 459 98.2112C459 123.938 448.843 148.625 430.736 166.906C412.63 185.188 388.037 195.586 362.303 195.841ZM97.4317 1.50361C71.9522 1.75757 47.6026 12.0542 29.6751 30.1556C11.7475 48.257 1.6909 72.7001 1.6909 98.1727C1.6909 123.645 11.7475 148.089 29.6751 166.19C47.6026 184.291 71.9522 194.588 97.4317 194.842H362.303C387.783 194.588 412.132 184.291 430.06 166.19C447.987 148.089 458.044 123.645 458.044 98.1727C458.044 72.7001 447.987 48.257 430.06 30.1556C412.132 12.0542 387.783 1.75757 362.303 1.50361H97.4317Z" fill="url(#paint4_linear_18_17784)"/>
</g>
<g filter="url(#filter0_d_18_17784)">
<path d="M99.0176 102.626C98.8085 102.628 98.6012 102.588 98.4077 102.509C98.2141 102.429 98.0381 102.313 97.8898 102.165C97.7415 102.018 97.6238 101.843 97.5435 101.65C97.4632 101.457 97.4219 101.25 97.4219 101.041V72.6633C97.4219 72.4543 97.4632 72.2474 97.5435 72.0543C97.6238 71.8613 97.7415 71.6861 97.8898 71.5387C98.0381 71.3914 98.2141 71.2748 98.4077 71.1957C98.6012 71.1165 98.8085 71.0764 99.0176 71.0777H110.188C112.835 71.0194 115.404 71.9752 117.368 73.7492C118.345 74.6081 119.121 75.6696 119.644 76.8597C120.167 78.0499 120.424 79.3398 120.396 80.6394C120.432 82.6128 119.791 84.5388 118.58 86.0977C119.523 86.9401 120.27 87.979 120.768 89.1412C121.267 90.3034 121.504 91.5607 121.464 92.8245C121.496 94.1576 121.238 95.4817 120.707 96.7049C120.176 97.928 119.384 99.0207 118.387 99.9069C116.378 101.72 113.749 102.693 111.043 102.626H99.0176ZM111.034 94.2276C111.498 94.2276 111.943 94.0433 112.271 93.7153C112.599 93.3873 112.783 92.9425 112.783 92.4786C112.783 92.0148 112.599 91.5699 112.271 91.2419C111.943 90.9139 111.498 90.7296 111.034 90.7296H106.227V94.2276H111.034ZM110.188 82.5806C110.387 82.5868 110.586 82.5506 110.771 82.4743C110.956 82.3981 111.122 82.2835 111.259 82.1382C111.397 81.9929 111.501 81.8201 111.567 81.6314C111.632 81.4426 111.657 81.242 111.639 81.043C111.657 80.8444 111.632 80.6443 111.567 80.456C111.501 80.2677 111.396 80.0955 111.259 79.9509C111.122 79.8063 110.955 79.6926 110.77 79.6175C110.586 79.5423 110.387 79.5075 110.188 79.5151H106.189V82.5806H110.188Z" fill="url(#paint5_linear_18_17784)"/>
<path d="M141.718 102.626C141.385 102.628 141.06 102.523 140.79 102.328C140.521 102.133 140.32 101.857 140.218 101.54L138.873 97.5233H129.875L128.529 101.54C128.427 101.857 128.227 102.133 127.957 102.328C127.687 102.523 127.362 102.628 127.029 102.626H120.993C120.739 102.627 120.488 102.566 120.262 102.45C120.036 102.334 119.842 102.165 119.695 101.958C119.548 101.75 119.453 101.511 119.418 101.259C119.382 101.008 119.408 100.751 119.493 100.512L129.413 72.1824C129.424 72.1448 129.44 72.1091 129.462 72.0767H127.799C127.505 72.077 127.217 71.9952 126.967 71.8407C126.718 71.6862 126.516 71.465 126.385 71.2022C126.248 70.9429 126.187 70.6502 126.21 70.3578C126.232 70.0653 126.336 69.7851 126.51 69.5493L130.48 64.091C130.626 63.8881 130.818 63.7229 131.04 63.6092C131.263 63.4956 131.509 63.4367 131.759 63.4375H136.7C136.949 63.4371 137.194 63.4952 137.416 63.6071C137.638 63.7189 137.831 63.8814 137.978 64.0814L138.325 64.5427L140.718 60.4874C140.859 60.2509 141.059 60.055 141.298 59.9186C141.537 59.7822 141.808 59.71 142.083 59.709H147.918C148.218 59.7092 148.511 59.7942 148.765 59.9542C149.018 60.1143 149.221 60.3428 149.349 60.6133C149.478 60.8838 149.528 61.1852 149.492 61.4827C149.457 61.7801 149.337 62.0614 149.149 62.294L144.977 67.4352C144.829 67.6192 144.642 67.7675 144.429 67.869C144.215 67.9706 143.982 68.0226 143.746 68.0214H140.862L141.977 69.5493C142.153 69.7842 142.259 70.0639 142.283 70.3564C142.307 70.6488 142.248 70.942 142.112 71.2022C141.98 71.4637 141.778 71.6836 141.528 71.8379C141.279 71.9921 140.992 72.0748 140.699 72.0767H139.276C139.281 72.1117 139.281 72.1474 139.276 72.1824L149.235 100.512C149.32 100.751 149.346 101.008 149.311 101.259C149.276 101.511 149.181 101.75 149.034 101.958C148.887 102.165 148.692 102.334 148.466 102.45C148.24 102.566 147.99 102.627 147.735 102.626H141.718ZM136.075 89.1724L134.393 84.1753L132.72 89.1724H136.075ZM134.412 71.1638L134.258 70.9235L134.095 71.1638H134.412Z" fill="url(#paint6_linear_18_17784)"/>
<path d="M172.731 102.626C172.31 102.626 171.907 102.459 171.609 102.162C171.312 101.864 171.145 101.461 171.145 101.04V88.2979L166.117 96.591C165.976 96.8263 165.776 97.0209 165.536 97.1557C165.297 97.2904 165.027 97.3608 164.752 97.3599H164.079C163.806 97.3601 163.538 97.2893 163.3 97.1546C163.062 97.0198 162.864 96.8256 162.724 96.591L157.697 88.3267V100.992C157.697 101.201 157.655 101.408 157.575 101.601C157.495 101.794 157.377 101.97 157.229 102.117C157.08 102.264 156.904 102.381 156.711 102.46C156.517 102.539 156.31 102.579 156.101 102.578H150.516C150.095 102.578 149.692 102.411 149.394 102.114C149.097 101.816 148.93 101.413 148.93 100.992V72.6628C148.93 72.2423 149.097 71.839 149.394 71.5416C149.692 71.2443 150.095 71.0772 150.516 71.0772H156.284C156.556 71.0769 156.823 71.1466 157.061 71.2796C157.298 71.4125 157.497 71.6043 157.639 71.8364L164.416 82.9933L171.145 71.846C171.283 71.6101 171.482 71.4149 171.72 71.2799C171.957 71.1449 172.227 71.075 172.5 71.0772H178.268C178.689 71.0772 179.092 71.2443 179.39 71.5416C179.687 71.839 179.854 72.2423 179.854 72.6628V100.992C179.854 101.413 179.687 101.816 179.39 102.114C179.092 102.411 178.689 102.578 178.268 102.578L172.731 102.626Z" fill="url(#paint7_linear_18_17784)"/>
<path d="M200.652 102.626C200.319 102.628 199.994 102.524 199.724 102.328C199.455 102.133 199.254 101.857 199.152 101.54L189.636 73.2109C189.556 72.9723 189.535 72.7182 189.573 72.4698C189.611 72.2213 189.708 71.9855 189.856 71.7818C190.003 71.5781 190.197 71.4123 190.421 71.2982C190.645 71.1841 190.893 71.1249 191.145 71.1255H197.21C197.548 71.124 197.878 71.2304 198.151 71.4292C198.424 71.628 198.627 71.9088 198.729 72.2307L204.132 89.1727L209.505 72.173C209.606 71.8519 209.807 71.5713 210.078 71.3725C210.35 71.1736 210.678 71.0669 211.014 71.0679H217.128C217.381 71.0667 217.63 71.126 217.855 71.2406C218.08 71.3552 218.275 71.5219 218.422 71.7269C218.57 71.9318 218.667 72.169 218.704 72.4188C218.741 72.6686 218.719 72.9237 218.637 73.1629L209.082 101.492C208.974 101.807 208.771 102.079 208.5 102.272C208.229 102.465 207.905 102.569 207.573 102.569L200.652 102.626Z" fill="url(#paint8_linear_18_17784)"/>
<path d="M235.02 102.626C234.687 102.628 234.362 102.524 234.093 102.328C233.823 102.133 233.623 101.857 233.521 101.54L232.175 97.5236H223.177L221.831 101.54C221.729 101.857 221.529 102.133 221.259 102.328C220.99 102.524 220.665 102.628 220.332 102.626H214.295C214.042 102.625 213.792 102.565 213.567 102.449C213.342 102.334 213.146 102.168 212.997 101.963C212.854 101.753 212.762 101.513 212.727 101.261C212.692 101.01 212.715 100.753 212.795 100.512L222.716 72.1347C222.825 71.8249 223.029 71.5567 223.297 71.3673C223.566 71.1779 223.887 71.0767 224.215 71.0776H224.734L220.265 65.5712C220.076 65.337 219.958 65.0544 219.923 64.7559C219.888 64.4574 219.939 64.1552 220.068 63.8841C220.198 63.613 220.402 63.3839 220.656 63.2234C220.91 63.0628 221.204 62.9773 221.505 62.9766H227.782C228.058 62.9785 228.329 63.0522 228.568 63.1903C228.808 63.3284 229.007 63.5263 229.147 63.7646L232.386 69.3094C232.525 69.5522 232.599 69.8271 232.599 70.107C232.599 70.3868 232.525 70.6618 232.386 70.9046C232.288 71.0728 232.161 71.2224 232.011 71.3467C232.297 71.5356 232.512 71.8122 232.627 72.1347L242.585 100.464C242.67 100.704 242.696 100.96 242.661 101.212C242.626 101.463 242.531 101.703 242.384 101.91C242.237 102.117 242.042 102.286 241.816 102.402C241.591 102.519 241.34 102.579 241.086 102.578L235.02 102.626ZM229.377 89.1727L227.695 84.1756L226.023 89.1727H229.377Z" fill="url(#paint9_linear_18_17784)"/>
<path d="M256.235 103.145C254.085 103.17 251.952 102.764 249.961 101.951C247.97 101.138 246.163 99.9343 244.645 98.4116C243.127 96.8889 241.93 95.0777 241.124 93.0849C240.318 91.0921 239.919 88.958 239.951 86.8086C239.951 83.5751 240.911 80.4144 242.709 77.7266C244.507 75.0388 247.063 72.9449 250.052 71.7102C253.042 70.4754 256.331 70.1553 259.502 70.7903C262.674 71.4254 265.585 72.987 267.869 75.2775C270.152 77.568 271.704 80.4842 272.328 83.657C272.952 86.8298 272.62 90.1163 271.374 93.1004C270.128 96.0845 268.025 98.632 265.33 100.42C262.635 102.208 259.47 103.157 256.235 103.145ZM256.235 79.1208C255.235 79.0905 254.239 79.2679 253.311 79.6417C252.383 80.0155 251.542 80.5777 250.842 81.2926C249.445 82.8052 248.669 84.7884 248.669 86.8471C248.669 88.9058 249.445 90.889 250.842 92.4015C252.307 93.7653 254.234 94.5236 256.235 94.5236C258.237 94.5236 260.164 93.7653 261.628 92.4015C263.025 90.889 263.801 88.9058 263.801 86.8471C263.801 84.7884 263.025 82.8052 261.628 81.2926C260.93 80.5742 260.09 80.0085 259.162 79.6313C258.233 79.2542 257.237 79.0738 256.235 79.1017V79.1208Z" fill="url(#paint10_linear_18_17784)"/>
<path d="M286.429 102.627C286.008 102.627 285.605 102.459 285.307 102.162C285.01 101.865 284.843 101.461 284.843 101.041V91.0949H284.045C283.836 91.0961 283.629 91.056 283.435 90.9769C283.241 90.8978 283.065 90.7812 282.917 90.6339C282.769 90.4865 282.651 90.3113 282.571 90.1183C282.491 89.9253 282.449 89.7183 282.449 89.5092V84.8582C282.449 84.4351 282.617 84.0293 282.917 83.7301C283.216 83.431 283.622 83.2629 284.045 83.2629H284.843V72.6634C284.843 72.2429 285.01 71.8395 285.307 71.5422C285.605 71.2448 286.008 71.0778 286.429 71.0778H297.695C299.725 71.036 301.742 71.4217 303.613 72.2097C305.485 72.9978 307.169 74.1706 308.558 75.652C311.366 78.6987 312.925 82.69 312.925 86.833C312.925 90.9759 311.366 94.9672 308.558 98.0139C307.175 99.5052 305.492 100.687 303.62 101.482C301.748 102.277 299.729 102.667 297.695 102.627H286.429ZM297.695 94.0643C298.586 94.0997 299.475 93.9468 300.303 93.6157C301.132 93.2845 301.881 92.7825 302.502 92.1424C303.791 90.6846 304.46 88.7813 304.366 86.8378C304.417 85.882 304.279 84.9256 303.959 84.0235C303.639 83.1214 303.143 82.2914 302.502 81.5812C301.89 80.9247 301.144 80.4079 300.315 80.0663C299.485 79.7246 298.592 79.5661 297.695 79.6016H293.619V83.3014H297.772C298.195 83.3014 298.601 83.4695 298.9 83.7686C299.2 84.0678 299.368 84.4735 299.368 84.8966V89.5477C299.368 89.7567 299.326 89.9637 299.246 90.1567C299.166 90.3497 299.048 90.525 298.9 90.6723C298.751 90.8197 298.575 90.9363 298.382 91.0154C298.188 91.0945 297.981 91.1346 297.772 91.1333H293.619V94.0739L297.695 94.0643Z" fill="url(#paint11_linear_18_17784)"/>
<path d="M332.495 102.626C332.162 102.628 331.837 102.524 331.568 102.328C331.298 102.133 331.098 101.857 330.996 101.54L329.65 97.5234H320.652L319.306 101.54C319.204 101.857 319.004 102.133 318.734 102.328C318.465 102.524 318.14 102.628 317.807 102.626H311.77C311.517 102.625 311.268 102.564 311.042 102.449C310.817 102.334 310.621 102.168 310.472 101.963C310.325 101.755 310.23 101.515 310.195 101.262C310.16 101.01 310.186 100.752 310.27 100.512L320.191 72.1825C320.201 72.1449 320.217 72.1092 320.239 72.0768H318.086C317.793 72.0738 317.507 71.9906 317.259 71.8362C317.011 71.6819 316.81 71.4623 316.678 71.2015C316.546 70.9408 316.488 70.6488 316.511 70.3574C316.534 70.0661 316.636 69.7866 316.807 69.5495L321.095 63.6779C321.244 63.4765 321.438 63.3126 321.661 63.1991C321.885 63.0857 322.132 63.0259 322.383 63.0244H327.679C327.93 63.0266 328.177 63.0868 328.4 63.2002C328.623 63.3136 328.818 63.477 328.967 63.6779L333.255 69.5495C333.426 69.7866 333.528 70.0661 333.551 70.3574C333.573 70.6488 333.516 70.9408 333.384 71.2015C333.252 71.4623 333.051 71.6819 332.803 71.8362C332.554 71.9906 332.268 72.0738 331.976 72.0768H330.054C330.075 72.1092 330.092 72.1449 330.102 72.1825L340.061 100.512C340.145 100.751 340.171 101.008 340.136 101.259C340.101 101.511 340.006 101.751 339.859 101.958C339.712 102.165 339.517 102.334 339.291 102.45C339.066 102.566 338.815 102.627 338.561 102.626H332.495ZM326.853 89.1725L325.17 84.1754L323.488 89.1725H326.853ZM325.305 71.1639L325.036 70.7507L324.757 71.1639H325.305Z" fill="url(#paint12_linear_18_17784)"/>
<path d="M348.491 102.626C348.282 102.627 348.075 102.587 347.881 102.508C347.688 102.429 347.512 102.312 347.364 102.165C347.215 102.018 347.097 101.842 347.017 101.649C346.937 101.456 346.896 101.249 346.896 101.04V90.3543L337.427 73.4412C337.291 73.1997 337.22 72.9268 337.223 72.6497C337.225 72.3726 337.3 72.1009 337.44 71.8618C337.58 71.6226 337.78 71.4243 338.021 71.2866C338.261 71.1489 338.534 71.0767 338.811 71.0772H345.127C345.418 71.0762 345.704 71.1555 345.954 71.3064C346.203 71.4572 346.406 71.6739 346.54 71.9324L351.279 81.0424L356.028 71.9324C356.16 71.6746 356.362 71.4584 356.609 71.3075C356.857 71.1566 357.141 71.0769 357.431 71.0772H363.747C364.025 71.0765 364.298 71.1489 364.54 71.2873C364.781 71.4256 364.982 71.6249 365.121 71.8652C365.261 72.1044 365.334 72.3763 365.334 72.6532C365.334 72.93 365.261 73.2019 365.121 73.4412L355.614 90.3543V100.992C355.614 101.413 355.447 101.816 355.15 102.113C354.852 102.411 354.449 102.578 354.028 102.578L348.491 102.626Z" fill="url(#paint13_linear_18_17784)"/>
<path d="M119.858 92.7761C119.885 93.8875 119.67 94.9913 119.228 96.0116C118.787 97.0319 118.129 97.9444 117.301 98.6861C115.581 100.229 113.334 101.055 111.024 100.992H99.0078V72.663H110.178C112.432 72.6059 114.621 73.418 116.292 74.9309C117.102 75.6408 117.747 76.52 118.181 77.5063C118.614 78.4926 118.826 79.562 118.801 80.639C118.834 81.7264 118.609 82.8062 118.144 83.7899C117.68 84.7737 116.989 85.6336 116.128 86.2992C117.296 86.9194 118.265 87.856 118.925 89.0015C119.584 90.1471 119.908 91.4553 119.858 92.7761ZM104.593 77.881V84.1178H110.178C110.975 84.0735 111.725 83.7256 112.274 83.1457C112.823 82.5658 113.129 81.7977 113.129 80.9994C113.129 80.2011 112.823 79.4331 112.274 78.8531C111.725 78.2732 110.975 77.9253 110.178 77.881H104.593ZM111.024 95.7744C111.916 95.7744 112.772 95.42 113.403 94.7892C114.034 94.1585 114.388 93.303 114.388 92.411C114.388 91.5189 114.034 90.6635 113.403 90.0327C112.772 89.4019 111.916 89.0476 111.024 89.0476H104.593V95.7744H111.024Z" fill="#FFCC00"/>
<path d="M141.717 100.992L140.045 95.8993H128.731L127.029 101.002H120.992L130.913 72.6726H137.834L147.793 101.002L141.717 100.992ZM134.277 67.9638L132.614 70.4335H127.808L131.768 64.9752H136.709L140.718 70.4335H135.911L134.277 67.9638ZM130.509 90.6716H138.276L134.431 79.1399L130.509 90.6716ZM142.044 61.2466H147.879L143.707 66.3878H139.084L142.044 61.2466Z" fill="#FFCC00"/>
<path d="M178.274 72.6631V100.993H172.727V82.6188L164.748 95.7745H164.075L156.097 82.6572V100.993H150.512V72.6631H156.279L164.421 86.0591L172.515 72.6631H178.274Z" fill="#FFCC00"/>
<path d="M200.656 100.993L191.148 72.6631H197.214L204.135 94.4387L211.018 72.6631H217.132L207.577 100.993H200.656Z" fill="#FFCC00"/>
<path d="M235.022 100.993L233.292 95.8995H222.035L220.334 101.002H214.297L224.217 72.6728H231.139L241.097 101.002L235.022 100.993ZM231.023 70.1166H225.996L221.506 64.5718H227.784L231.023 70.1166ZM223.814 90.6718H231.59L227.697 79.1401L223.814 90.6718Z" fill="#FFCC00"/>
<path d="M256.235 101.56C253.327 101.539 250.488 100.663 248.075 99.0396C245.662 97.4163 243.78 95.1182 242.665 92.4323C241.551 89.7464 241.252 86.7918 241.807 83.9373C242.362 81.0829 243.746 78.4551 245.786 76.3823C248.582 73.7067 252.315 72.2329 256.185 72.2768C260.055 72.3208 263.753 73.8789 266.487 76.6172C269.222 79.3554 270.773 83.0557 270.81 86.9245C270.847 90.7933 269.366 94.5225 266.684 97.3122C265.318 98.6859 263.688 99.7701 261.893 100.5C260.097 101.23 258.173 101.59 256.235 101.56ZM256.235 96.0918C257.441 96.1279 258.64 95.9172 259.761 95.4726C260.882 95.0281 261.9 94.3591 262.753 93.5068C264.446 91.6949 265.388 89.3077 265.388 86.828C265.388 84.3483 264.446 81.9612 262.753 80.1493C261.004 78.4606 258.667 77.5168 256.235 77.5168C253.804 77.5168 251.467 78.4606 249.718 80.1493C248.024 81.9612 247.082 84.3483 247.082 86.828C247.082 89.3077 248.024 91.6949 249.718 93.5068C250.571 94.3591 251.589 95.0281 252.709 95.4726C253.83 95.9172 255.03 96.1279 256.235 96.0918Z" fill="#FFCC00"/>
<path d="M297.693 72.6634C299.509 72.6229 301.314 72.9657 302.988 73.6694C304.663 74.3731 306.17 75.422 307.412 76.7475C309.939 79.5006 311.341 83.1012 311.341 86.8377C311.341 90.5743 309.939 94.1749 307.412 96.9279C306.168 98.25 304.66 99.2952 302.986 99.9956C301.311 100.696 299.508 101.036 297.693 100.993H286.427V89.5381H284.043V84.8869H286.427V72.6634H297.693ZM297.693 95.6498C298.807 95.6932 299.917 95.4988 300.95 95.0796C301.982 94.6603 302.914 94.0259 303.682 93.2186C305.26 91.4735 306.088 89.1783 305.989 86.8281C306.041 85.6697 305.865 84.5123 305.469 83.4222C305.073 82.3322 304.466 81.331 303.682 80.4761C302.922 79.6563 301.992 79.0109 300.959 78.5846C299.925 78.1582 298.811 77.961 297.693 78.0064H292.022V84.8869H297.789V89.5381H292.022V95.6498H297.693Z" fill="#FFCC00"/>
<path d="M332.495 100.993L330.803 95.8995H319.508L317.806 101.002H311.77L321.728 72.6632H328.65L338.608 100.993H332.495ZM325.045 67.8006L323.266 70.4337H318.085L322.382 64.5718H327.679L331.976 70.4337H326.794L325.045 67.8006ZM321.286 90.6718H329.053L325.208 79.1401L321.286 90.6718Z" fill="#FFCC00"/>
<path d="M363.744 72.6628L354.035 89.9603V101.012H348.489V89.9411L338.809 72.6436H345.124L351.276 84.4635L357.429 72.6436L363.744 72.6628Z" fill="#FFCC00"/>
</g>
<path d="M137.442 116.628V117.695H136.327V127.199H134.875V125.758C134.542 126.289 134.074 126.723 133.518 127.013C132.962 127.304 132.339 127.441 131.712 127.411C131.153 127.42 130.598 127.312 130.083 127.093C129.568 126.875 129.105 126.551 128.723 126.142C127.932 125.298 127.492 124.185 127.492 123.028C127.492 121.872 127.932 120.759 128.723 119.915C129.106 119.507 129.569 119.183 130.084 118.963C130.598 118.743 131.153 118.632 131.712 118.637C132.339 118.606 132.962 118.744 133.518 119.034C134.074 119.325 134.542 119.758 134.875 120.29V117.695H131.991V116.628H134.875V115.514H136.327V116.628H137.442ZM134.02 125.162C134.299 124.88 134.519 124.546 134.666 124.177C134.813 123.809 134.884 123.415 134.875 123.019C134.884 122.627 134.812 122.237 134.665 121.874C134.518 121.51 134.298 121.18 134.02 120.905C133.457 120.351 132.699 120.041 131.909 120.041C131.12 120.041 130.362 120.351 129.8 120.905C129.521 121.18 129.301 121.51 129.154 121.874C129.007 122.237 128.935 122.627 128.944 123.019C128.935 123.415 129.006 123.809 129.153 124.177C129.3 124.546 129.52 124.88 129.8 125.162C130.368 125.704 131.124 126.007 131.909 126.007C132.695 126.007 133.451 125.704 134.02 125.162Z" fill="white"/>
<path d="M139.699 123.691C139.827 124.385 140.205 125.007 140.761 125.441C141.317 125.875 142.013 126.09 142.717 126.046C143.191 126.082 143.666 125.987 144.09 125.772C144.514 125.556 144.87 125.229 145.121 124.825L146.361 125.527C145.973 126.145 145.427 126.648 144.78 126.986C144.133 127.324 143.408 127.484 142.679 127.449C142.086 127.471 141.494 127.374 140.939 127.163C140.384 126.952 139.877 126.63 139.449 126.219C138.658 125.361 138.219 124.238 138.219 123.071C138.219 121.905 138.658 120.781 139.449 119.924C139.859 119.509 140.351 119.183 140.894 118.968C141.437 118.753 142.019 118.653 142.602 118.675C143.165 118.659 143.725 118.767 144.241 118.991C144.758 119.215 145.219 119.55 145.592 119.972C146.373 120.814 146.794 121.928 146.764 123.076C146.764 123.295 146.745 123.514 146.707 123.73L139.699 123.691ZM139.699 122.423H145.274C145.218 121.752 144.909 121.129 144.409 120.679C143.908 120.229 143.256 119.987 142.583 120.001C141.886 119.969 141.202 120.2 140.668 120.649C140.133 121.098 139.788 121.731 139.699 122.423ZM142.631 116.484L141.67 117.752H140.218L141.872 115.648H143.362L145.015 117.752H143.563L142.631 116.484ZM144.352 116.215C144.352 115.533 144.352 115.36 144.669 115.129C144.75 115.084 144.827 115.033 144.9 114.975C144.985 114.951 145.06 114.901 145.115 114.832C145.17 114.763 145.202 114.679 145.207 114.591C145.207 114.447 145.092 114.322 144.823 114.322C144.665 114.314 144.51 114.357 144.38 114.445C144.249 114.534 144.152 114.663 144.102 114.812L143.237 114.447C143.355 114.127 143.573 113.854 143.859 113.667C144.144 113.48 144.482 113.39 144.823 113.409C145.553 113.409 146.159 113.774 146.159 114.581C146.175 114.798 146.128 115.015 146.024 115.205C145.92 115.396 145.763 115.553 145.572 115.657C145.371 115.763 145.255 115.85 145.303 116.215H144.352Z" fill="white"/>
<path d="M157.126 120.251H154.906V124.777C154.906 126.065 155.636 125.959 157.126 125.892V127.199C154.589 127.526 153.454 126.843 153.454 124.777V120.251H151.801V118.848H153.502V116.926L154.954 116.494V118.829H157.174L157.126 120.251Z" fill="white"/>
<path d="M160.35 120.251C160.571 119.755 160.94 119.34 161.407 119.063C161.873 118.786 162.414 118.661 162.955 118.704V120.222C162.293 120.165 161.634 120.368 161.119 120.789C160.845 121.036 160.633 121.344 160.5 121.687C160.366 122.031 160.315 122.401 160.35 122.769V127.199H158.898V118.848H160.35V120.251Z" fill="white"/>
<path d="M168.299 127.41C167.719 127.423 167.143 127.317 166.605 127.099C166.068 126.881 165.581 126.555 165.175 126.142C164.361 125.307 163.906 124.189 163.906 123.024C163.906 121.859 164.361 120.74 165.175 119.905C165.581 119.492 166.068 119.166 166.605 118.948C167.143 118.73 167.719 118.624 168.299 118.637C168.784 118.633 169.267 118.704 169.731 118.848H170.298C171.038 118.848 171.154 118.55 171.154 117.82V117.618H172.442V117.82C172.442 118.896 172.154 119.569 171.356 119.838C171.361 119.853 171.37 119.867 171.382 119.879C171.394 119.89 171.408 119.899 171.423 119.905C172.041 120.52 172.462 121.305 172.633 122.16C172.804 123.015 172.716 123.901 172.381 124.706C172.046 125.511 171.479 126.198 170.752 126.68C170.025 127.161 169.171 127.416 168.299 127.41ZM170.404 125.142C170.898 124.658 171.209 124.017 171.283 123.328C171.357 122.64 171.189 121.948 170.809 121.369C170.429 120.79 169.86 120.362 169.199 120.156C168.538 119.95 167.826 119.98 167.185 120.24C166.543 120.501 166.012 120.976 165.682 121.585C165.352 122.193 165.244 122.897 165.375 123.577C165.507 124.256 165.87 124.869 166.403 125.311C166.936 125.752 167.606 125.995 168.299 125.998C168.689 126.005 169.077 125.933 169.439 125.786C169.801 125.639 170.129 125.42 170.404 125.142ZM168.193 117.762C168.193 117.032 168.193 116.868 168.529 116.609L168.799 116.446C168.886 116.416 168.963 116.36 169.02 116.287C169.076 116.213 169.11 116.125 169.116 116.032C169.116 115.859 168.981 115.744 168.693 115.744C168.526 115.731 168.359 115.775 168.221 115.869C168.083 115.964 167.981 116.103 167.933 116.263L166.972 115.859C167.104 115.521 167.339 115.232 167.645 115.035C167.95 114.838 168.311 114.743 168.674 114.764C169.462 114.764 170.116 115.158 170.116 116.013C170.135 116.246 170.087 116.479 169.978 116.685C169.869 116.891 169.703 117.061 169.5 117.176C169.279 117.282 169.145 117.378 169.193 117.762H168.193Z" fill="white"/>
<path d="M183.142 120.251H180.921V124.777C180.921 126.065 181.652 125.959 183.142 125.892V127.199C180.604 127.526 179.47 126.843 179.47 124.777V120.251H177.816V118.848H179.46V116.926L180.912 116.494V118.829H183.132L183.142 120.251Z" fill="white"/>
<path d="M192.302 122.068V127.199H190.851V122.154C190.883 121.872 190.852 121.586 190.761 121.317C190.669 121.048 190.519 120.803 190.322 120.599C190.124 120.395 189.884 120.237 189.618 120.137C189.352 120.037 189.067 119.998 188.784 120.021C187.333 120.021 186.362 120.905 186.362 122.769V127.199H184.91V115.514H186.362V120.049C186.64 119.59 187.039 119.215 187.515 118.966C187.991 118.717 188.527 118.603 189.063 118.637C189.51 118.616 189.957 118.693 190.372 118.861C190.788 119.029 191.162 119.284 191.469 119.61C191.777 119.936 192.01 120.324 192.154 120.748C192.298 121.172 192.349 121.622 192.302 122.068Z" fill="white"/>
<path d="M201.238 118.848H202.69V127.199H201.238V125.758C200.905 126.289 200.437 126.722 199.881 127.012C199.325 127.302 198.702 127.44 198.076 127.411C197.516 127.421 196.961 127.314 196.446 127.095C195.93 126.876 195.467 126.552 195.086 126.142C194.295 125.298 193.855 124.185 193.855 123.028C193.855 121.872 194.295 120.759 195.086 119.915C195.468 119.506 195.931 119.181 196.446 118.961C196.961 118.741 197.516 118.63 198.076 118.637C198.702 118.607 199.325 118.745 199.881 119.035C200.437 119.326 200.905 119.759 201.238 120.29V118.848ZM200.383 125.162C200.662 124.88 200.882 124.546 201.029 124.177C201.176 123.809 201.247 123.415 201.238 123.019C201.247 122.627 201.176 122.237 201.029 121.874C200.881 121.51 200.662 121.18 200.383 120.905C199.967 120.487 199.436 120.202 198.857 120.087C198.279 119.972 197.679 120.032 197.135 120.259C196.591 120.485 196.126 120.869 195.801 121.36C195.475 121.852 195.303 122.429 195.307 123.019C195.294 123.416 195.364 123.811 195.511 124.18C195.658 124.548 195.88 124.883 196.163 125.162C196.731 125.704 197.487 126.007 198.273 126.007C199.059 126.007 199.814 125.704 200.383 125.162ZM200.181 117.714H198.777L197.095 115.514H198.845L200.181 117.714Z" fill="white"/>
<path d="M212.285 122.067V127.199H210.834V122.153C210.866 121.871 210.835 121.585 210.744 121.317C210.652 121.048 210.502 120.803 210.305 120.599C210.107 120.395 209.867 120.237 209.601 120.137C209.335 120.037 209.05 119.997 208.767 120.02C207.335 120.02 206.373 120.885 206.373 122.807V127.237H204.922V118.886H206.373V120.087C206.652 119.628 207.05 119.253 207.527 119.004C208.003 118.755 208.538 118.641 209.075 118.675C209.516 118.659 209.956 118.738 210.365 118.905C210.774 119.073 211.142 119.326 211.446 119.646C211.749 119.967 211.981 120.349 212.126 120.766C212.271 121.184 212.325 121.627 212.285 122.067Z" fill="white"/>
<path d="M221.753 122.068V127.199H220.302V122.154C220.334 121.871 220.303 121.584 220.211 121.315C220.119 121.045 219.969 120.799 219.77 120.595C219.571 120.391 219.329 120.233 219.062 120.134C218.795 120.035 218.509 119.996 218.226 120.021C216.774 120.021 215.813 120.905 215.813 122.769V127.199H214.352V115.514H215.813V120.049C216.086 119.585 216.484 119.207 216.961 118.957C217.439 118.708 217.977 118.597 218.514 118.637C218.961 118.618 219.407 118.696 219.821 118.864C220.236 119.033 220.609 119.288 220.917 119.613C221.224 119.939 221.457 120.326 221.602 120.75C221.746 121.173 221.798 121.622 221.753 122.068Z" fill="white"/>
<path d="M229.158 125.69C228.298 124.838 227.713 123.747 227.478 122.559C227.243 121.37 227.37 120.139 227.842 119.024C228.313 117.908 229.108 116.959 230.124 116.299C231.14 115.639 232.331 115.299 233.542 115.321C234.563 115.312 235.568 115.574 236.455 116.081C237.342 116.587 238.078 117.32 238.589 118.204L237.233 118.992C236.871 118.336 236.335 117.791 235.684 117.418C235.033 117.046 234.292 116.859 233.542 116.878C232.336 116.878 231.18 117.357 230.327 118.209C229.474 119.062 228.995 120.218 228.995 121.424C228.995 122.629 229.474 123.785 230.327 124.638C231.18 125.49 232.336 125.969 233.542 125.969C234.3 125.977 235.046 125.776 235.697 125.387C236.348 124.999 236.88 124.439 237.233 123.768L238.589 124.537C238.096 125.409 237.375 126.13 236.503 126.622C235.602 127.137 234.58 127.402 233.542 127.391C232.734 127.423 231.928 127.289 231.173 126.996C230.419 126.703 229.734 126.259 229.158 125.69Z" fill="white"/>
<path d="M244.164 118.637C245.164 118.65 246.129 119.009 246.895 119.653C247.661 120.297 248.18 121.186 248.365 122.169C248.551 123.151 248.39 124.168 247.911 125.046C247.432 125.924 246.663 126.609 245.736 126.986C244.809 127.362 243.781 127.406 242.825 127.111C241.869 126.816 241.045 126.199 240.492 125.365C239.939 124.532 239.691 123.533 239.791 122.538C239.891 121.542 240.332 120.612 241.04 119.905C241.446 119.492 241.933 119.166 242.471 118.948C243.008 118.73 243.584 118.624 244.164 118.637ZM246.269 125.143C246.763 124.658 247.074 124.017 247.148 123.328C247.222 122.64 247.055 121.948 246.675 121.369C246.295 120.79 245.726 120.362 245.065 120.156C244.403 119.95 243.691 119.98 243.05 120.24C242.409 120.501 241.877 120.976 241.547 121.585C241.217 122.193 241.109 122.897 241.24 123.577C241.372 124.256 241.735 124.869 242.268 125.311C242.802 125.752 243.472 125.995 244.164 125.998C244.555 126.005 244.943 125.933 245.304 125.786C245.666 125.639 245.995 125.42 246.269 125.143ZM244.145 116.494L243.184 117.762H241.732L243.385 115.658H244.875L246.529 117.762H245.068L244.145 116.494ZM243.184 129.649C243.184 129.395 243.285 129.15 243.465 128.97C243.645 128.79 243.89 128.689 244.145 128.689C244.4 128.689 244.644 128.79 244.825 128.97C245.005 129.15 245.106 129.395 245.106 129.649C245.106 129.904 245.005 130.149 244.825 130.329C244.644 130.509 244.4 130.61 244.145 130.61C244.014 130.612 243.883 130.587 243.762 130.536C243.641 130.485 243.532 130.41 243.441 130.316C243.35 130.221 243.28 130.109 243.234 129.986C243.188 129.863 243.167 129.732 243.174 129.601L243.184 129.649Z" fill="white"/>
<path d="M257.687 122.067V127.199H256.235V122.154C256.268 121.871 256.237 121.584 256.145 121.314C256.053 121.045 255.902 120.799 255.703 120.595C255.505 120.391 255.263 120.233 254.996 120.134C254.729 120.034 254.443 119.996 254.159 120.02C252.708 120.02 251.737 120.904 251.737 122.769V127.199H250.285V118.848H251.737V120.049C252.016 119.589 252.417 119.214 252.895 118.965C253.373 118.715 253.91 118.602 254.448 118.636C254.895 118.618 255.34 118.695 255.755 118.864C256.169 119.032 256.543 119.288 256.85 119.613C257.157 119.938 257.391 120.326 257.535 120.749C257.68 121.173 257.731 121.622 257.687 122.067Z" fill="white"/>
<path d="M266.637 118.848H268.069V126.843C268.101 127.388 268.005 127.932 267.788 128.433C267.571 128.934 267.239 129.377 266.82 129.726C265.972 130.418 264.905 130.786 263.811 130.764C263.027 130.833 262.239 130.679 261.54 130.318C260.84 129.958 260.258 129.405 259.86 128.727L261.129 128.006C261.389 128.486 261.788 128.876 262.273 129.126C262.758 129.376 263.307 129.475 263.849 129.409C264.207 129.454 264.569 129.42 264.912 129.311C265.255 129.202 265.57 129.019 265.835 128.776C266.101 128.533 266.31 128.235 266.448 127.903C266.587 127.57 266.651 127.212 266.637 126.853V125.69C266.306 126.22 265.842 126.654 265.29 126.947C264.738 127.241 264.118 127.384 263.494 127.362C262.93 127.372 262.37 127.265 261.85 127.047C261.331 126.828 260.862 126.503 260.475 126.093C260.074 125.686 259.757 125.202 259.544 124.671C259.331 124.14 259.226 123.571 259.235 122.999C259.224 122.431 259.328 121.866 259.541 121.339C259.754 120.812 260.072 120.334 260.475 119.934C260.861 119.522 261.329 119.197 261.849 118.978C262.369 118.76 262.93 118.653 263.494 118.665C264.117 118.637 264.737 118.776 265.289 119.066C265.842 119.356 266.307 119.789 266.637 120.318V118.848ZM265.782 120.866C265.291 120.359 264.639 120.039 263.939 119.961C263.238 119.882 262.531 120.049 261.941 120.434C261.35 120.819 260.911 121.398 260.701 122.071C260.49 122.743 260.52 123.468 260.785 124.122C261.051 124.775 261.535 125.315 262.156 125.65C262.776 125.985 263.494 126.094 264.186 125.958C264.878 125.822 265.501 125.449 265.948 124.904C266.395 124.359 266.639 123.675 266.637 122.97C266.642 122.583 266.569 122.199 266.422 121.841C266.275 121.482 266.057 121.157 265.782 120.885V120.866Z" fill="white"/>
<path d="M278.99 120.251H276.769V124.777C276.769 126.065 277.5 125.959 278.99 125.892V127.199C276.452 127.526 275.317 126.843 275.317 124.777V120.251H273.664V118.848H275.317V116.926L276.769 116.494V118.829H278.99V120.251Z" fill="white"/>
<path d="M287.673 118.848H289.125V127.199H287.673V125.757C287.341 126.288 286.875 126.72 286.32 127.01C285.766 127.301 285.145 127.439 284.52 127.41C283.96 127.421 283.405 127.314 282.89 127.096C282.374 126.877 281.911 126.552 281.531 126.142C280.733 125.301 280.289 124.187 280.289 123.028C280.289 121.87 280.733 120.755 281.531 119.915C281.912 119.505 282.375 119.179 282.89 118.959C283.405 118.739 283.96 118.629 284.52 118.636C285.145 118.608 285.766 118.746 286.32 119.036C286.875 119.327 287.341 119.759 287.673 120.289V118.848ZM286.827 125.161C287.105 124.88 287.323 124.544 287.469 124.176C287.614 123.808 287.684 123.414 287.673 123.018C287.683 122.627 287.613 122.238 287.468 121.874C287.322 121.511 287.104 121.181 286.827 120.904C286.263 120.35 285.503 120.04 284.712 120.04C283.921 120.04 283.162 120.35 282.598 120.904C282.32 121.181 282.102 121.511 281.957 121.874C281.811 122.238 281.742 122.627 281.752 123.018C281.741 123.414 281.811 123.808 281.956 124.176C282.101 124.544 282.319 124.88 282.598 125.161C283.168 125.704 283.925 126.007 284.712 126.007C285.5 126.007 286.257 125.704 286.827 125.161ZM287.51 115.552L285.818 117.752H284.424L285.751 115.552H287.51Z" fill="white"/>
<path d="M292.111 126.161C291.7 125.749 291.377 125.258 291.163 124.718C290.948 124.178 290.845 123.599 290.861 123.018C290.85 122.439 290.957 121.864 291.174 121.327C291.391 120.79 291.715 120.302 292.125 119.893C292.535 119.484 293.024 119.162 293.561 118.946C294.099 118.73 294.675 118.625 295.254 118.636C296.013 118.612 296.763 118.804 297.417 119.191C298.071 119.577 298.601 120.141 298.945 120.818L297.725 121.519C297.495 121.065 297.14 120.686 296.703 120.425C296.265 120.165 295.763 120.034 295.254 120.049C294.863 120.042 294.475 120.114 294.114 120.261C293.752 120.408 293.423 120.627 293.149 120.904C292.611 121.475 292.311 122.229 292.311 123.014C292.311 123.798 292.611 124.552 293.149 125.123C293.423 125.401 293.752 125.62 294.114 125.767C294.475 125.914 294.863 125.986 295.254 125.978C295.767 125.991 296.273 125.863 296.717 125.607C297.162 125.351 297.527 124.977 297.773 124.527L299.013 125.238C298.675 125.818 298.21 126.313 297.652 126.687C297.095 127.06 296.46 127.303 295.795 127.395C295.131 127.488 294.453 127.428 293.815 127.221C293.177 127.014 292.594 126.664 292.111 126.199V126.161Z" fill="white"/>
<path d="M310.483 118.848H312.05L308.715 127.199H307.004L303.668 118.848H305.235L307.859 125.642L310.483 118.848Z" fill="white"/>
<path d="M313.078 116.849C313.078 116.594 313.179 116.35 313.36 116.17C313.54 115.989 313.784 115.888 314.039 115.888C314.294 115.888 314.539 115.989 314.719 116.17C314.899 116.35 315.001 116.594 315.001 116.849C315.001 117.104 314.899 117.348 314.719 117.529C314.539 117.709 314.294 117.81 314.039 117.81C313.784 117.81 313.54 117.709 313.36 117.529C313.179 117.348 313.078 117.104 313.078 116.849ZM313.328 127.199V118.848H314.789V127.199H313.328Z" fill="white"/>
<path d="M317.971 123.691C318.099 124.387 318.478 125.011 319.036 125.445C319.594 125.879 320.293 126.093 320.999 126.046C321.473 126.082 321.947 125.987 322.371 125.772C322.795 125.556 323.151 125.229 323.402 124.825L324.642 125.527C324.254 126.145 323.708 126.648 323.061 126.986C322.414 127.324 321.689 127.484 320.96 127.449C320.365 127.471 319.772 127.373 319.216 127.162C318.659 126.95 318.151 126.63 317.721 126.219C317.314 125.801 316.996 125.306 316.785 124.763C316.573 124.219 316.473 123.639 316.49 123.057C316.473 122.48 316.572 121.905 316.782 121.367C316.992 120.828 317.308 120.338 317.711 119.924C318.121 119.509 318.613 119.183 319.156 118.968C319.699 118.753 320.281 118.653 320.864 118.675C321.427 118.659 321.987 118.767 322.503 118.991C323.02 119.215 323.481 119.55 323.854 119.972C324.635 120.814 325.055 121.928 325.026 123.076C325.026 123.295 325.007 123.514 324.969 123.73L317.971 123.691ZM317.971 122.423H323.556C323.5 121.752 323.19 121.129 322.69 120.679C322.19 120.229 321.537 119.987 320.864 120.001C320.166 119.969 319.481 120.2 318.945 120.648C318.409 121.097 318.061 121.73 317.971 122.423ZM320.912 116.397L319.893 117.752H318.345L320.114 115.494H321.729L323.498 117.752H321.941L320.912 116.397Z" fill="white"/>
<path d="M334.089 122.067V127.199H332.628V122.154C332.66 121.871 332.63 121.586 332.538 121.317C332.447 121.048 332.297 120.803 332.099 120.599C331.901 120.395 331.661 120.237 331.395 120.137C331.129 120.037 330.845 119.997 330.561 120.02C329.11 120.02 328.139 120.904 328.139 122.769V127.199H326.688V118.848H328.139V120.049C328.419 119.589 328.819 119.214 329.297 118.965C329.775 118.715 330.312 118.602 330.85 118.636C331.297 118.618 331.743 118.695 332.157 118.864C332.572 119.032 332.945 119.288 333.253 119.613C333.56 119.938 333.793 120.326 333.938 120.749C334.082 121.173 334.134 121.622 334.089 122.067Z" fill="white"/>
<defs>
<filter id="filter0_d_18_17784" x="93.9219" y="58.209" width="274.914" height="50.437" filterUnits="userSpaceOnUse" color-interpolation-filters="sRGB">
<feFlood flood-opacity="0" result="BackgroundImageFix"/>
<feColorMatrix in="SourceAlpha" type="matrix" values="0 0 0 0 0 0 0 0 0 0 0 0 0 0 0 0 0 0 127 0" result="hardAlpha"/>
<feOffset dy="2"/>
<feGaussianBlur stdDeviation="1.75"/>
<feComposite in2="hardAlpha" operator="out"/>
<feColorMatrix type="matrix" values="0 0 0 0 0 0 0 0 0 0 0 0 0 0 0 0 0 0 0.25 0"/>
<feBlend mode="normal" in2="BackgroundImageFix" result="effect1_dropShadow_18_17784"/>
<feBlend mode="normal" in="SourceGraphic" in2="effect1_dropShadow_18_17784" result="shape"/>
</filter>
<linearGradient id="paint0_linear_18_17784" x1="53.1719" y1="98.0141" x2="407.029" y2="98.0141" gradientUnits="userSpaceOnUse">
<stop stop-color="#149CBE"/>
<stop offset="0.5" stop-color="#1E405A"/>
<stop offset="1" stop-color="#207A91"/>
</linearGradient>
<linearGradient id="paint1_linear_18_17784" x1="38.5427" y1="98.0236" x2="421.661" y2="98.0236" gradientUnits="userSpaceOnUse">
<stop stop-color="#00CBFF"/>
<stop offset="0.26" stop-color="#207A91"/>
<stop offset="0.5" stop-color="#15C9F8"/>
<stop offset="0.76" stop-color="#149CBE"/>
<stop offset="1" stop-color="#00CBFF"/>
</linearGradient>
<linearGradient id="paint2_linear_18_17784" x1="-4.92785" y1="98.1773" x2="474.454" y2="98.1773" gradientUnits="userSpaceOnUse">
<stop stop-color="#00CBFF"/>
<stop offset="0.26" stop-color="#207A91"/>
<stop offset="0.5" stop-color="#149CBE"/>
<stop offset="0.76" stop-color="#149CBE"/>
<stop offset="1" stop-color="#00CBFF"/>
</linearGradient>
<linearGradient id="paint3_linear_18_17784" x1="-4.92729" y1="98.1775" x2="474.454" y2="98.1775" gradientUnits="userSpaceOnUse">
<stop stop-color="#00CBFF" stop-opacity="0.44"/>
<stop offset="0.26" stop-color="#00CBFF"/>
<stop offset="0.5" stop-color="#149CBE"/>
<stop offset="0.76" stop-color="#00CBFF"/>
<stop offset="1" stop-color="#00CBFF" stop-opacity="0.4"/>
</linearGradient>
<linearGradient id="paint4_linear_18_17784" x1="-4.92561" y1="98.1775" x2="474.456" y2="98.1775" gradientUnits="userSpaceOnUse">
<stop stop-color="#00CBFF" stop-opacity="0.26"/>
<stop offset="0.26" stop-color="#00CBFF"/>
<stop offset="0.5" stop-color="#00CBFF"/>
<stop offset="0.76" stop-color="#00CBFF"/>
<stop offset="1" stop-color="#00CBFF" stop-opacity="0.27"/>
</linearGradient>
<linearGradient id="paint5_linear_18_17784" x1="109.445" y1="71.0752" x2="109.445" y2="102.63" gradientUnits="userSpaceOnUse">
<stop stop-color="#207A91"/>
<stop offset="0.18" stop-color="#149CBE"/>
<stop offset="0.47" stop-color="#1E405A"/>
<stop offset="0.8" stop-color="#149CBE"/>
<stop offset="0.95" stop-color="#207A91"/>
</linearGradient>
<linearGradient id="paint6_linear_18_17784" x1="134.453" y1="59.709" x2="134.453" y2="102.626" gradientUnits="userSpaceOnUse">
<stop stop-color="#207A91"/>
<stop offset="0.18" stop-color="#149CBE"/>
<stop offset="0.47" stop-color="#1E405A"/>
<stop offset="0.8" stop-color="#149CBE"/>
<stop offset="0.95" stop-color="#207A91"/>
</linearGradient>
<linearGradient id="paint7_linear_18_17784" x1="164.392" y1="71.0771" x2="164.392" y2="102.626" gradientUnits="userSpaceOnUse">
<stop stop-color="#207A91"/>
<stop offset="0.18" stop-color="#149CBE"/>
<stop offset="0.47" stop-color="#1E405A"/>
<stop offset="0.8" stop-color="#149CBE"/>
<stop offset="0.95" stop-color="#207A91"/>
</linearGradient>
<linearGradient id="paint8_linear_18_17784" x1="204.138" y1="71.0679" x2="204.138" y2="102.626" gradientUnits="userSpaceOnUse">
<stop stop-color="#207A91"/>
<stop offset="0.18" stop-color="#149CBE"/>
<stop offset="0.47" stop-color="#1E405A"/>
<stop offset="0.8" stop-color="#149CBE"/>
<stop offset="0.95" stop-color="#207A91"/>
</linearGradient>
<linearGradient id="paint9_linear_18_17784" x1="227.694" y1="62.9766" x2="227.694" y2="102.626" gradientUnits="userSpaceOnUse">
<stop stop-color="#207A91"/>
<stop offset="0.18" stop-color="#149CBE"/>
<stop offset="0.47" stop-color="#1E405A"/>
<stop offset="0.8" stop-color="#149CBE"/>
<stop offset="0.95" stop-color="#207A91"/>
</linearGradient>
<linearGradient id="paint10_linear_18_17784" x1="256.292" y1="70.4722" x2="256.292" y2="103.146" gradientUnits="userSpaceOnUse">
<stop stop-color="#207A91"/>
<stop offset="0.18" stop-color="#149CBE"/>
<stop offset="0.47" stop-color="#1E405A"/>
<stop offset="0.8" stop-color="#149CBE"/>
<stop offset="0.95" stop-color="#207A91"/>
</linearGradient>
<linearGradient id="paint11_linear_18_17784" x1="297.687" y1="71.0747" x2="297.687" y2="102.629" gradientUnits="userSpaceOnUse">
<stop stop-color="#207A91"/>
<stop offset="0.18" stop-color="#149CBE"/>
<stop offset="0.47" stop-color="#1E405A"/>
<stop offset="0.8" stop-color="#149CBE"/>
<stop offset="0.95" stop-color="#207A91"/>
</linearGradient>
<linearGradient id="paint12_linear_18_17784" x1="325.165" y1="63.0244" x2="325.165" y2="102.626" gradientUnits="userSpaceOnUse">
<stop stop-color="#207A91"/>
<stop offset="0.18" stop-color="#149CBE"/>
<stop offset="0.47" stop-color="#1E405A"/>
<stop offset="0.8" stop-color="#149CBE"/>
<stop offset="0.95" stop-color="#207A91"/>
</linearGradient>
<linearGradient id="paint13_linear_18_17784" x1="351.278" y1="71.0771" x2="351.278" y2="102.626" gradientUnits="userSpaceOnUse">
<stop stop-color="#207A91"/>
<stop offset="0.18" stop-color="#149CBE"/>
<stop offset="0.47" stop-color="#1E405A"/>
<stop offset="0.8" stop-color="#149CBE"/>
<stop offset="0.95" stop-color="#207A91"/>
</linearGradient>
</defs>
</svg>
