<svg width="25" height="21" viewBox="0 0 25 21" fill="none" xmlns="http://www.w3.org/2000/svg">
<g clip-path="url(#clip0_73_24053)">
<path d="M6.71902 5.90712V14.9967H17.9574V5.90712H6.71902ZM6.71902 5.90712V14.9967H17.9574V5.90712H6.71902ZM6.71902 5.90712V14.9967H17.9574V5.90712H6.71902ZM6.71902 5.90712V14.9967H17.9574V5.90712H6.71902ZM6.71902 5.90712V14.9967H17.9574V5.90712H6.71902ZM6.71902 5.90712V14.9967H17.9574V5.90712H6.71902ZM23.5166 0.115234H1.48341C1.08998 0.115234 0.712662 0.271524 0.434467 0.549719C0.156272 0.827915 4.47904e-06 1.20522 4.47904e-06 1.59865V19.3161C-0.000475081 19.511 0.0375588 19.7041 0.111938 19.8843C0.186317 20.0645 0.295558 20.2282 0.433402 20.3661C0.571246 20.5039 0.734983 20.6132 0.915177 20.6876C1.09537 20.7619 1.28847 20.8 1.48341 20.7995H23.5166C23.91 20.7995 24.2873 20.6432 24.5655 20.365C24.8437 20.0868 25 19.7095 25 19.3161V1.59865C25 1.20522 24.8437 0.827915 24.5655 0.549719C24.2873 0.271524 23.91 0.115234 23.5166 0.115234ZM13.4053 1.67501C13.4053 1.60117 13.4199 1.52806 13.4483 1.45989C13.4767 1.39172 13.5182 1.32984 13.5706 1.2778C13.623 1.22575 13.6852 1.18459 13.7535 1.15666C13.8219 1.12874 13.8951 1.11461 13.9689 1.11509H17.212C17.3609 1.11509 17.5037 1.17396 17.6093 1.27886C17.7148 1.38376 17.7746 1.52618 17.7756 1.67501V3.40566C17.7747 3.55483 17.715 3.69763 17.6095 3.80311C17.504 3.90859 17.3612 3.96827 17.212 3.96922H13.9689C13.8194 3.96922 13.6761 3.90985 13.5704 3.80416C13.4647 3.69847 13.4053 3.55512 13.4053 3.40566V1.67501ZM7.25712 1.67501C7.25808 1.52618 7.31788 1.38376 7.42346 1.27886C7.52905 1.17396 7.67185 1.11509 7.82069 1.11509H11.0639C11.1377 1.11461 11.2109 1.12874 11.2792 1.15666C11.3476 1.18459 11.4097 1.22575 11.4621 1.2778C11.5145 1.32984 11.5561 1.39172 11.5844 1.45989C11.6128 1.52806 11.6274 1.60117 11.6274 1.67501V3.40566C11.6274 3.55512 11.568 3.69847 11.4623 3.80416C11.3566 3.90985 11.2133 3.96922 11.0639 3.96922H7.82069C7.67152 3.96827 7.52872 3.90859 7.42324 3.80311C7.31776 3.69763 7.25807 3.55483 7.25712 3.40566V1.67501ZM1.11255 1.67501C1.11255 1.60117 1.12719 1.52806 1.15555 1.45989C1.18392 1.39172 1.22545 1.32984 1.27783 1.2778C1.33021 1.22575 1.39238 1.18459 1.46073 1.15666C1.52908 1.12874 1.60228 1.11461 1.67612 1.11509H4.9193C5.06814 1.11509 5.2109 1.17396 5.31648 1.27886C5.42206 1.38376 5.48187 1.52618 5.48283 1.67501V3.40566C5.48187 3.55483 5.42223 3.69763 5.31675 3.80311C5.21127 3.90859 5.06847 3.96827 4.9193 3.96922H1.67612C1.52665 3.96922 1.38334 3.90985 1.27765 3.80416C1.17196 3.69847 1.11255 3.55512 1.11255 3.40566V1.67501ZM5.47555 19.2761C5.47555 19.4256 5.41618 19.5689 5.31049 19.6746C5.2048 19.7803 5.06148 19.8396 4.91202 19.8396H1.66884C1.5947 19.8401 1.5212 19.8259 1.45261 19.7977C1.38402 19.7696 1.32169 19.7281 1.26926 19.6757C1.21683 19.6232 1.17536 19.5609 1.14721 19.4923C1.11906 19.4237 1.10483 19.3502 1.10531 19.2761V17.5491C1.10483 17.4749 1.11906 17.4014 1.14721 17.3328C1.17536 17.2642 1.21683 17.2019 1.26926 17.1495C1.32169 17.0971 1.38402 17.0556 1.45261 17.0274C1.5212 16.9993 1.5947 16.985 1.66884 16.9855H4.91202C5.06148 16.9855 5.2048 17.0449 5.31049 17.1506C5.41618 17.2563 5.47555 17.3996 5.47555 17.5491V19.2761ZM11.6201 19.2761C11.6206 19.3502 11.6064 19.4237 11.5782 19.4923C11.5501 19.5609 11.5086 19.6232 11.4562 19.6757C11.4037 19.7281 11.3414 19.7696 11.2728 19.7977C11.2042 19.8259 11.1307 19.8401 11.0566 19.8396H7.81341C7.66394 19.8396 7.52058 19.7803 7.4149 19.6746C7.30921 19.5689 7.24984 19.4256 7.24984 19.2761V17.5491C7.24984 17.3996 7.30921 17.2563 7.4149 17.1506C7.52058 17.0449 7.66394 16.9855 7.81341 16.9855H11.0566C11.1307 16.985 11.2042 16.9993 11.2728 17.0274C11.3414 17.0556 11.4037 17.0971 11.4562 17.1495C11.5086 17.2019 11.5501 17.2642 11.5782 17.3328C11.6064 17.4014 11.6206 17.4749 11.6201 17.5491V19.2761ZM17.7683 19.2761C17.7683 19.4256 17.709 19.5689 17.6033 19.6746C17.4976 19.7803 17.3542 19.8396 17.2048 19.8396H13.9616C13.8875 19.8401 13.814 19.8259 13.7454 19.7977C13.6768 19.7696 13.6145 19.7281 13.562 19.6757C13.5096 19.6232 13.4681 19.5609 13.44 19.4923C13.4118 19.4237 13.3976 19.3502 13.398 19.2761V17.5491C13.3976 17.4749 13.4118 17.4014 13.44 17.3328C13.4681 17.2642 13.5096 17.2019 13.562 17.1495C13.6145 17.0971 13.6768 17.0556 13.7454 17.0274C13.814 16.9993 13.8875 16.985 13.9616 16.9855H17.2048C17.3542 16.9855 17.4976 17.0449 17.6033 17.1506C17.709 17.2563 17.7683 17.3996 17.7683 17.5491V19.2761ZM23.9129 19.2761C23.9134 19.3502 23.8991 19.4237 23.871 19.4923C23.8428 19.5609 23.8013 19.6232 23.7489 19.6757C23.6965 19.7281 23.6341 19.7696 23.5656 19.7977C23.497 19.8259 23.4235 19.8401 23.3493 19.8396H20.1062C19.9567 19.8396 19.8134 19.7803 19.7077 19.6746C19.602 19.5689 19.5426 19.4256 19.5426 19.2761V17.5491C19.5426 17.3996 19.602 17.2563 19.7077 17.1506C19.8134 17.0449 19.9567 16.9855 20.1062 16.9855H23.3493C23.4235 16.985 23.497 16.9993 23.5656 17.0274C23.6341 17.0556 23.6965 17.0971 23.7489 17.1495C23.8013 17.2019 23.8428 17.2642 23.871 17.3328C23.8991 17.4014 23.9134 17.4749 23.9129 17.5491V19.2761ZM23.9129 5.90712H19.0591V14.9967H23.9129V16.0875H1.10531V14.9967H5.63919V5.90712H1.10531V4.81637H23.9129V5.90712ZM23.9129 3.40566C23.9129 3.55512 23.8535 3.69847 23.7478 3.80416C23.6421 3.90985 23.4988 3.96922 23.3493 3.96922H20.1062C19.957 3.96827 19.8142 3.90859 19.7087 3.80311C19.6033 3.69763 19.5436 3.55483 19.5426 3.40566V1.67501C19.5436 1.52618 19.6034 1.38376 19.709 1.27886C19.8145 1.17396 19.9573 1.11509 20.1062 1.11509H23.3493C23.4232 1.11461 23.4964 1.12874 23.5647 1.15666C23.6331 1.18459 23.6952 1.22575 23.7476 1.2778C23.8 1.32984 23.8416 1.39172 23.8699 1.45989C23.8983 1.52806 23.9129 1.60117 23.9129 1.67501V3.40566ZM17.9683 5.90712H6.72994V14.9967H17.9683V5.90712ZM6.72994 5.90712V14.9967H17.9683V5.90712H6.72994ZM6.72994 5.90712V14.9967H17.9683V5.90712H6.72994ZM6.72994 5.90712V14.9967H17.9683V5.90712H6.72994ZM6.72994 5.90712V14.9967H17.9683V5.90712H6.72994ZM6.72994 5.90712V14.9967H17.9683V5.90712H6.72994ZM6.72994 5.90712V14.9967H17.9683V5.90712H6.72994Z" fill="white"/>
</g>
<defs>
<clipPath id="clip0_73_24053">
<rect width="25" height="20.6988" fill="white" transform="translate(0 0.115234)"/>
</clipPath>
</defs>
</svg>
