<svg width="50" height="46" viewBox="0 0 50 46" fill="none" xmlns="http://www.w3.org/2000/svg">
<path opacity="0.48" d="M46.9346 22.02C46.9346 16.18 44.6146 10.5791 40.4851 6.44952C36.3555 2.31996 30.7546 0 24.9146 0C19.0745 0 13.4736 2.31996 9.34405 6.44952C5.21449 10.5791 2.89453 16.18 2.89453 22.02C2.89453 22.2427 2.89453 22.4605 2.89453 22.6831H4.87386C4.87386 22.4654 4.87386 22.2427 4.87386 22.02C4.87348 18.1559 5.99022 14.3741 8.0896 11.13C10.189 7.88589 13.1814 5.31789 16.7066 3.73528C20.2318 2.15268 24.1393 1.62295 27.9586 2.20989C31.7779 2.79683 35.3461 4.47542 38.2334 7.04348C41.1207 9.61154 43.204 12.9595 44.2325 16.6843C45.2609 20.4091 45.1905 24.3517 44.0299 28.0374C42.8693 31.7231 40.6679 34.9947 37.6908 37.4582C34.7137 39.9216 31.088 41.4719 27.2502 41.9222C27.0093 41.3813 26.5884 40.9404 26.0593 40.6746C25.5301 40.4088 24.9252 40.3344 24.3474 40.464C23.7696 40.5937 23.2545 40.9194 22.8897 41.3858C22.5249 41.8523 22.3328 42.4307 22.3461 43.0227C22.3594 43.6147 22.5773 44.1839 22.9628 44.6335C23.3482 45.083 23.8774 45.3852 24.4605 45.4888C25.0435 45.5923 25.6445 45.4908 26.1611 45.2014C26.6778 44.9121 27.0784 44.4528 27.2947 43.9015C32.6867 43.3087 37.6709 40.7491 41.2943 36.7122C44.9176 32.6753 46.9257 27.4445 46.9346 22.02Z" fill="#FFBF86"/>
<path d="M3.67166 15.7188H3.1026C1.38908 15.7188 0 17.1078 0 18.8213V26.5556C0 28.2691 1.38908 29.6582 3.1026 29.6582H3.67166C5.38517 29.6582 6.77425 28.2691 6.77425 26.5556V18.8213C6.77425 17.1078 5.38517 15.7188 3.67166 15.7188Z" fill="url(#paint0_linear_1195_870)"/>
<path d="M46.6287 15.7188H46.0596C44.3461 15.7188 42.957 17.1078 42.957 18.8213V26.5556C42.957 28.2691 44.3461 29.6582 46.0596 29.6582H46.6287C48.3422 29.6582 49.7313 28.2691 49.7313 26.5556V18.8213C49.7313 17.1078 48.3422 15.7188 46.6287 15.7188Z" fill="url(#paint1_linear_1195_870)"/>
<path fill-rule="evenodd" clip-rule="evenodd" d="M24.9139 4.40234C34.6457 4.40234 42.5349 12.2915 42.5349 22.0233C42.5349 31.7551 34.6457 39.6443 24.9139 39.6443C22.2783 39.6443 19.7777 39.0656 17.5325 38.0284L9.12544 40.6691C8.73488 40.7896 8.31748 40.7926 7.92522 40.6777C7.53296 40.5628 7.18318 40.335 6.91944 40.0227C6.65569 39.7104 6.48964 39.3275 6.44196 38.9215C6.39428 38.5156 6.46707 38.1045 6.65128 37.7397L9.92675 31.2952C8.25699 28.6019 7.29297 25.4252 7.29297 22.0233C7.29297 12.2915 15.1821 4.40234 24.9139 4.40234Z" fill="url(#paint2_linear_1195_870)"/>
<path d="M16.4326 23.1229C18.2636 23.1229 19.7479 21.6386 19.7479 19.8076C19.7479 17.9765 18.2636 16.4922 16.4326 16.4922C14.6015 16.4922 13.1172 17.9765 13.1172 19.8076C13.1172 21.6386 14.6015 23.1229 16.4326 23.1229Z" fill="white"/>
<path d="M33.2958 23.1229C35.1269 23.1229 36.6112 21.6386 36.6112 19.8076C36.6112 17.9765 35.1269 16.4922 33.2958 16.4922C31.4648 16.4922 29.9805 17.9765 29.9805 19.8076C29.9805 21.6386 31.4648 23.1229 33.2958 23.1229Z" fill="white"/>
<path d="M29.4125 27.082C29.3461 28.2438 28.8378 29.3362 27.9918 30.1352C27.1458 30.9343 26.0262 31.3794 24.8625 31.3794C23.6988 31.3794 22.5792 30.9343 21.7332 30.1352C20.8872 29.3362 20.3789 28.2438 20.3125 27.082H29.4125Z" fill="white"/>
<defs>
<linearGradient id="paint0_linear_1195_870" x1="3.38465" y1="13.9027" x2="3.38465" y2="26.4121" gradientUnits="userSpaceOnUse">
<stop stop-color="#FF6E11"/>
<stop offset="1" stop-color="#FFA411"/>
</linearGradient>
<linearGradient id="paint1_linear_1195_870" x1="46.3417" y1="13.9027" x2="46.3417" y2="26.4121" gradientUnits="userSpaceOnUse">
<stop stop-color="#FF6E11"/>
<stop offset="1" stop-color="#FFA411"/>
</linearGradient>
<linearGradient id="paint2_linear_1195_870" x1="13.178" y1="-3.1237" x2="13.178" y2="39.9817" gradientUnits="userSpaceOnUse">
<stop stop-color="#FFA211"/>
<stop offset="1" stop-color="#FF6F11"/>
</linearGradient>
</defs>
</svg>
