<svg width="25" height="25" viewBox="0 0 25 25" fill="none" xmlns="http://www.w3.org/2000/svg">
<g clip-path="url(#clip0_558_5374)">
<path d="M12.4743 24.0815C18.8686 24.0815 24.0522 18.9019 24.0522 12.5124C24.0522 6.12301 18.8686 0.943359 12.4743 0.943359C6.08006 0.943359 0.896484 6.12301 0.896484 12.5124C0.896484 18.9019 6.08006 24.0815 12.4743 24.0815Z" fill="white"/>
<path d="M16.774 1.73839C16.2999 1.80946 15.9206 1.84736 15.5318 1.93263C14.495 2.16643 13.5363 2.6642 12.7488 3.37758C12.5686 3.53866 12.4643 3.56709 12.2747 3.37758C11.2227 2.42112 9.87335 1.85568 8.45333 1.77629C8.38221 1.77629 8.28737 1.80945 8.26367 1.70049C8.23996 1.59153 8.33005 1.60574 8.37747 1.56311C9.52112 0.549159 10.9986 -0.00802126 12.5275 -0.00190327C14.0565 0.00421471 15.5295 0.573198 16.665 1.59626L16.774 1.73839Z" fill="#207A91"/>
<path d="M7.87947 1.90352C7.19314 2.66874 6.69192 3.58128 6.41446 4.57075C6.28895 5.00892 6.21732 5.46074 6.20112 5.91621C6.20112 6.04887 6.20111 6.18625 6.01621 6.19573C4.48049 6.25067 3.01674 6.85996 1.89616 7.91071C1.68281 5.05398 4.4943 1.78508 7.87947 1.90352Z" fill="#207A91"/>
<path d="M17.1055 1.85742C18.6384 1.88982 20.1049 2.48896 21.2214 3.53901C22.3379 4.58907 23.0252 6.01547 23.1504 7.54247C23.1504 7.62775 23.212 7.74145 23.1125 7.79356C23.0129 7.84567 22.9513 7.74144 22.8849 7.68459C21.8304 6.79684 20.5161 6.27486 19.1394 6.19701C18.9261 6.19701 18.817 6.15437 18.8028 5.89854C18.7339 4.45325 18.1679 3.07602 17.2003 1.99955C17.1653 1.95452 17.1336 1.90702 17.1055 1.85742Z" fill="#207A91"/>
<path d="M23.1599 17.127C23.2405 20.2727 20.2773 23.2384 17.2051 23.1105C17.2051 22.9589 17.3236 22.8878 17.3995 22.7978C18.2501 21.7623 18.7484 20.4828 18.8218 19.1451C18.8218 18.9462 18.8455 18.804 19.111 18.7946C20.5443 18.7412 21.9142 18.19 22.9845 17.2359C23.0402 17.1953 23.0988 17.1589 23.1599 17.127Z" fill="#207A91"/>
<path d="M7.88898 23.105C4.86414 23.2424 1.82032 20.4093 1.86773 17.1736C1.99574 17.1357 2.0479 17.2494 2.12376 17.311C3.17204 18.2115 4.49287 18.7338 5.874 18.7938C6.0352 18.7938 6.19166 18.7938 6.20114 19.026C6.25945 20.5431 6.858 21.9897 7.88898 23.105Z" fill="#207A91"/>
<path d="M8.25391 23.3001C8.72802 23.2148 9.17368 23.1627 9.60039 23.0632C10.6052 22.8152 11.5314 22.3182 12.2933 21.6183C12.4261 21.4998 12.5114 21.4335 12.6821 21.5898C13.7445 22.5741 15.1145 23.1615 16.5604 23.2527C16.5983 23.2548 16.6353 23.2645 16.6694 23.2811C16.6694 23.2811 16.6694 23.2811 16.6931 23.3143C14.8773 25.3467 10.7335 25.7684 8.25391 23.3001Z" fill="#207A91"/>
<path d="M12.4925 13.4785C12.5997 13.6656 12.6629 13.8746 12.6774 14.0897C12.9258 15.0389 13.3934 15.9167 14.0428 16.6527C14.124 16.735 14.1864 16.834 14.2257 16.9428C14.265 17.0516 14.2802 17.1675 14.2704 17.2828C14.2033 18.702 13.6472 20.0543 12.6963 21.1107C12.5399 21.286 12.4593 21.2765 12.3075 21.1107C11.3944 20.0936 10.8457 18.802 10.7477 17.4391C10.7326 17.293 10.7485 17.1454 10.7942 17.0058C10.84 16.8663 10.9146 16.7379 11.0132 16.629C11.76 15.7828 12.2529 14.7434 12.4356 13.6301C12.4486 13.5776 12.4677 13.5267 12.4925 13.4785Z" fill="#F49A23"/>
<path d="M1.71602 8.26172C1.77619 9.13755 1.99634 9.99496 2.36557 10.7916C2.63611 11.3412 2.98066 11.8513 3.38964 12.3076C3.4892 12.4213 3.58403 12.5018 3.43705 12.6582C2.404 13.7677 1.80054 15.2089 1.73499 16.723C-0.298959 15.0032 -0.834712 10.7916 1.71602 8.26172Z" fill="#207A91"/>
<path d="M23.2696 16.7662C23.209 15.2361 22.6037 13.7779 21.5628 12.654C21.4111 12.4929 21.5296 12.4076 21.6245 12.3034C22.4058 11.4378 22.934 10.3741 23.1511 9.22876C23.208 8.92556 23.2412 8.62235 23.2839 8.30493C25.3036 10.0389 25.8251 14.279 23.2696 16.7662Z" fill="#207A91"/>
<path d="M13.123 11.8638C13.8739 10.8366 14.3029 9.60993 14.3557 8.33904C14.3688 8.24277 14.4027 8.15051 14.4551 8.06869C14.5075 7.98687 14.5772 7.91745 14.6592 7.86528C15.7098 6.93061 17.0474 6.38096 18.4521 6.30664C18.6749 6.30664 18.7318 6.36348 18.7176 6.56246C18.6417 8.02206 18.0523 9.40798 17.0535 10.4757C17.013 10.5259 16.9627 10.5674 16.9056 10.5975C16.8485 10.6277 16.7859 10.6459 16.7216 10.651C15.4374 10.7048 14.1988 11.1421 13.1657 11.9064C13.1493 11.8946 13.1348 11.8802 13.123 11.8638Z" fill="#F49A23"/>
<path d="M11.844 13.2183C11.1297 14.2217 10.7183 15.4088 10.6587 16.6388C10.6579 16.7234 10.6384 16.8068 10.6015 16.883C10.5646 16.9592 10.5113 17.0262 10.4454 17.0794C9.38652 18.0628 8.01546 18.643 6.57187 18.7186C6.32059 18.7186 6.26368 18.6617 6.28265 18.4154C6.37349 17.0084 6.93639 15.6732 7.88041 14.6253C7.94529 14.5451 8.02677 14.4799 8.11925 14.4341C8.21172 14.3883 8.313 14.3631 8.41616 14.36C9.52889 14.304 10.6048 13.9435 11.5263 13.3178C11.6173 13.2445 11.7321 13.2074 11.8488 13.2135L11.844 13.2183Z" fill="#F49A23"/>
<path d="M13.2041 13.2031C13.341 13.2608 13.474 13.3273 13.6024 13.4021C14.5056 13.9828 15.5451 14.3176 16.6177 14.3733C16.7198 14.3761 16.82 14.4008 16.9116 14.4458C17.0033 14.4908 17.0841 14.5549 17.1487 14.6339C18.0942 15.6803 18.6559 17.0167 18.7417 18.4239C18.7417 18.6702 18.6848 18.7413 18.443 18.7271C16.9846 18.6477 15.6018 18.0534 14.5411 17.05C14.487 17.0029 14.4437 16.9446 14.4143 16.8792C14.3848 16.8138 14.3698 16.7427 14.3704 16.671C14.3488 15.4729 13.9489 14.3122 13.2278 13.3547C13.2278 13.3547 13.2041 13.2931 13.2041 13.2031Z" fill="#F49A23"/>
<path d="M12.4883 11.6062C12.3779 11.1251 12.2401 10.6505 12.0759 10.185C11.8082 9.51878 11.4282 8.90344 10.9522 8.36575C10.8765 8.28712 10.8187 8.19309 10.7827 8.09007C10.7466 7.98705 10.7333 7.87747 10.7436 7.76883C10.8093 6.34967 11.3618 4.99634 12.3082 3.93615C12.4599 3.76087 12.5452 3.76087 12.6969 3.93615C13.6163 4.96749 14.1695 6.273 14.271 7.65039C14.2878 7.78013 14.2775 7.91192 14.2408 8.03749C14.204 8.16305 14.1417 8.27966 14.0576 8.37996C13.2879 9.23997 12.7753 10.2988 12.5784 11.4357C12.5526 11.4947 12.5225 11.5517 12.4883 11.6062Z" fill="#F49A23"/>
<path d="M11.7151 11.7819C10.9506 11.2817 10.0978 10.9312 9.20232 10.7491C9.06492 10.7104 8.92309 10.6897 8.78037 10.6875C8.5275 10.7001 8.27621 10.641 8.05557 10.5169C7.83492 10.3928 7.65391 10.2089 7.53345 9.98637C6.81098 9.00385 6.37895 7.83844 6.28653 6.62271C6.26282 6.38584 6.33393 6.29582 6.58047 6.31003C8.05436 6.38293 9.45138 6.98913 10.5109 8.01555C10.5515 8.04772 10.585 8.08786 10.6095 8.13348C10.6339 8.17911 10.6488 8.22927 10.6531 8.28085C10.693 9.51072 11.0828 10.7038 11.7768 11.7203L11.7151 11.7819Z" fill="#F49A23"/>
<path d="M11.4503 12.579C10.25 12.7841 9.13405 13.3301 8.23585 14.1519C8.18852 14.1964 8.13254 14.2308 8.07137 14.2528C8.01019 14.2748 7.94514 14.284 7.88026 14.2798C6.43348 14.2412 5.04535 13.7001 3.9546 12.7495C3.74125 12.5695 3.73177 12.4606 3.9546 12.2758C5.03558 11.3337 6.40878 10.7932 7.84234 10.7456C7.92009 10.74 7.99814 10.7506 8.07158 10.7767C8.14502 10.8028 8.21225 10.8438 8.26904 10.8972C9.13293 11.6806 10.1958 12.2116 11.3413 12.4321C11.3887 12.4416 11.4361 12.4606 11.4503 12.579Z" fill="#F49A23"/>
<path d="M13.3987 12.4552C14.5338 12.3302 15.6038 11.8625 16.4662 11.1145C16.6164 10.9746 16.7965 10.8708 16.9928 10.8108C17.1892 10.7509 17.3966 10.7365 17.5993 10.7686C18.8643 10.9072 20.0585 11.4221 21.0272 12.2468C21.2642 12.4457 21.2785 12.5736 21.0272 12.7821C19.944 13.6969 18.5852 14.2224 17.1679 14.2744C17.097 14.2816 17.0254 14.274 16.9576 14.252C16.8899 14.2299 16.8275 14.194 16.7744 14.1465C15.8278 13.298 14.6582 12.7374 13.4034 12.531C13.3994 12.506 13.3978 12.4806 13.3987 12.4552Z" fill="#F49A23"/>
<path d="M13.3988 12.4549C13.3963 12.4801 13.3963 12.5055 13.3988 12.5307C13.1428 13.3455 12.7919 13.5161 11.9765 13.2224C11.9262 13.2152 11.8751 13.2152 11.8248 13.2224C11.6304 12.7818 11.4692 12.3412 11.8248 11.9006L11.8722 11.8722C12.0446 11.7228 12.2651 11.6406 12.4933 11.6406C12.7214 11.6406 12.9419 11.7228 13.1143 11.8722C13.1279 11.8873 13.144 11.9001 13.1618 11.9101L13.3988 12.4549Z" fill="#207A91"/>
<path d="M11.8818 11.8723L11.8343 11.9007L11.7158 11.7776L11.7775 11.7207L11.8818 11.8723Z" fill="#F49A23"/>
</g>
<defs>
<clipPath id="clip0_558_5374">
<rect width="25" height="25" fill="white"/>
</clipPath>
</defs>
</svg>
