<svg width="134" height="36" viewBox="0 0 134 36" fill="none" xmlns="http://www.w3.org/2000/svg">
<path d="M11.5531 35.0944C11.1062 35.1037 10.662 35.0222 10.2476 34.8546C9.83319 34.687 9.4571 34.437 9.14228 34.1196C8.82376 33.8052 8.57237 33.4295 8.40332 33.0151C8.23427 32.6007 8.15109 32.1563 8.15881 31.7088C8.15024 31.2625 8.23307 30.8192 8.4022 30.4061C8.57134 29.993 8.82319 29.6188 9.14228 29.3067C9.45501 28.9854 9.83031 28.7316 10.245 28.5609C10.6596 28.3903 11.1048 28.3064 11.5531 28.3145C11.8796 28.3133 12.2047 28.3572 12.5192 28.4451H13.1893C13.5375 28.4451 13.5897 28.2971 13.5897 27.9403V27.7836H14.5645V27.9403C14.5645 28.6714 14.373 29.063 13.8508 29.211L13.9552 29.3067C14.274 29.6187 14.5251 29.9929 14.6928 30.4062C14.8605 30.8195 14.9412 31.2629 14.93 31.7088C14.9393 32.1586 14.856 32.6054 14.6854 33.0217C14.5147 33.4379 14.2602 33.8146 13.9378 34.1283C13.6256 34.4413 13.2536 34.6882 12.8438 34.8541C12.4341 35.0201 11.9951 35.1018 11.5531 35.0944ZM11.5531 33.8411C11.8304 33.8482 12.1062 33.7986 12.3636 33.6954C12.621 33.5921 12.8546 33.4373 13.0501 33.2406C13.2513 33.0389 13.4092 32.7982 13.5139 32.5333C13.6187 32.2684 13.6681 31.9848 13.6593 31.7001C13.6681 31.4154 13.6187 31.1318 13.5139 30.8669C13.4092 30.602 13.2513 30.3613 13.0501 30.1596C12.8546 29.9629 12.621 29.8081 12.3636 29.7048C12.1062 29.6016 11.8304 29.552 11.5531 29.5591C11.2745 29.5513 10.9972 29.6006 10.7382 29.7038C10.4793 29.8071 10.2443 29.9622 10.0475 30.1596C9.84622 30.3613 9.68838 30.602 9.58361 30.8669C9.47884 31.1318 9.42934 31.4154 9.43821 31.7001C9.42934 31.9848 9.47884 32.2684 9.58361 32.5333C9.68838 32.7982 9.84622 33.0389 10.0475 33.2406C10.2443 33.438 10.4793 33.5931 10.7382 33.6964C10.9972 33.7996 11.2745 33.8489 11.5531 33.8411Z" fill="white"/>
<path d="M20.0572 28.4363H21.3453V34.9638H20.3618L17.542 30.9777V34.9638H16.2539V28.4363H17.2287L20.0311 32.4224L20.0572 28.4363Z" fill="white"/>
<path d="M32.1553 31.4564V31.9612C32.1757 32.3795 32.1088 32.7974 31.959 33.1885C31.8092 33.5795 31.5796 33.9351 31.285 34.2327C30.9777 34.5238 30.6155 34.7506 30.2195 34.9C29.8235 35.0495 29.4016 35.1185 28.9787 35.1031C28.5156 35.1161 28.0547 35.0366 27.6228 34.8692C27.1909 34.7018 26.7967 34.4499 26.4634 34.1283C26.1374 33.8164 25.8795 33.4404 25.7057 33.0241C25.532 32.6077 25.4463 32.1599 25.4538 31.7088C25.4445 31.2619 25.5261 30.8177 25.6936 30.4033C25.8612 29.9888 26.1113 29.6128 26.4286 29.298C26.7449 28.9766 27.1232 28.7229 27.5407 28.5523C27.9581 28.3817 28.4059 28.2979 28.8568 28.3058C29.4221 28.2937 29.9809 28.4275 30.4794 28.6943C30.9779 28.9611 31.3993 29.3518 31.7028 29.8289L30.5975 30.4642C30.4053 30.1831 30.1446 29.9556 29.84 29.8033C29.5354 29.651 29.197 29.5789 28.8568 29.5939C28.5719 29.5835 28.2878 29.6322 28.0227 29.7371C27.7576 29.8419 27.517 30.0006 27.3163 30.2031C27.1171 30.4058 26.9611 30.6469 26.8579 30.9117C26.7546 31.1765 26.7063 31.4595 26.7158 31.7436C26.7081 32.0269 26.7582 32.3088 26.8629 32.5721C26.9677 32.8355 27.1249 33.0747 27.325 33.2754C27.5421 33.4796 27.7981 33.6381 28.0777 33.7412C28.3573 33.8444 28.6548 33.8902 28.9525 33.8759C29.3717 33.9166 29.7919 33.8092 30.1401 33.5723C30.4883 33.3354 30.7425 32.984 30.8585 32.5791H28.8568V31.439L32.1553 31.4564Z" fill="white"/>
<path d="M33.5039 28.4363H34.792V34.9638H33.5039V28.4363Z" fill="white"/>
<path d="M40.6313 34.9639L40.2309 33.7889H37.6199L37.2283 34.9639H35.8184L38.0986 28.4364H39.7L41.989 34.9639H40.6313ZM38.5338 27.9229C38.5338 27.392 38.6208 27.2963 38.8645 27.1745L38.9515 27.1222C38.9843 27.1003 39.0111 27.0705 39.0294 27.0355C39.0476 27.0005 39.0567 26.9615 39.056 26.9221C39.056 26.8698 39.056 26.8176 38.908 26.8176C38.8245 26.8095 38.7409 26.8325 38.6734 26.8823C38.6059 26.9322 38.5593 27.0052 38.5425 27.0874L37.8462 26.8263C37.9275 26.6091 38.0761 26.4236 38.2702 26.2968C38.4643 26.17 38.6939 26.1085 38.9254 26.1214C39.465 26.1214 39.8654 26.3999 39.8654 26.896C39.8732 27.0352 39.8424 27.1739 39.7763 27.2968C39.7103 27.4197 39.6116 27.5219 39.4911 27.5922C39.3693 27.6444 39.2996 27.6967 39.3345 27.9229H38.5338ZM38.0464 32.5792H39.8306L38.9602 29.9073L38.0464 32.5792Z" fill="white"/>
<path d="M46.8738 28.4363H48.1619V34.9638H47.1784L44.376 30.9777V34.9638H43.0879V28.4363H44.0714L46.8738 32.4224V28.4363Z" fill="white"/>
<path d="M56.8827 28.4363V29.6722H55.1421V34.9638H53.8539V29.6722H52.1133V28.4363H56.8827Z" fill="white"/>
<path d="M61.7369 28.4363H63.0163V34.9638H61.7369V32.2658H59.3174V34.9638H58.0293V28.4363H59.3174V31.0473H61.7456L61.7369 28.4363Z" fill="white"/>
<path d="M67.7417 28.3058C68.19 28.2977 68.6353 28.3815 69.0499 28.5522C69.4645 28.7228 69.8398 28.9766 70.1525 29.298C70.4755 29.6094 70.7305 29.9845 70.9013 30.3994C71.072 30.8143 71.1549 31.2602 71.1447 31.7088C71.154 32.1585 71.0707 32.6054 70.9 33.0217C70.7294 33.4379 70.4749 33.8146 70.1525 34.1283C69.8377 34.4456 69.4617 34.6957 69.0472 34.8633C68.6328 35.0308 68.1886 35.1124 67.7417 35.1031C67.2962 35.1117 66.8535 35.0298 66.4406 34.8622C66.0277 34.6947 65.6531 34.445 65.3396 34.1283C65.02 33.8129 64.768 33.4357 64.5989 33.0197C64.4299 32.6038 64.3472 32.1577 64.3561 31.7088C64.3475 31.2625 64.4304 30.8191 64.5995 30.4061C64.7686 29.993 65.0205 29.6188 65.3396 29.3067C65.6502 28.9844 66.0237 28.7294 66.4369 28.5572C66.8501 28.385 67.2941 28.2995 67.7417 28.3058ZM67.7417 33.8411C68.0204 33.8489 68.2977 33.7996 68.5566 33.6964C68.8155 33.5931 69.0506 33.438 69.2474 33.2406C69.4486 33.0389 69.6065 32.7982 69.7113 32.5333C69.816 32.2684 69.8655 31.9848 69.8566 31.7001C69.8655 31.4153 69.816 31.1318 69.7113 30.8669C69.6065 30.6019 69.4486 30.3613 69.2474 30.1596C69.0506 29.9622 68.8155 29.8071 68.5566 29.7038C68.2977 29.6005 68.0204 29.5513 67.7417 29.5591C67.4644 29.552 67.1887 29.6016 66.9312 29.7048C66.6738 29.8081 66.4402 29.9628 66.2448 30.1596C66.0435 30.3613 65.8856 30.6019 65.7809 30.8669C65.6761 31.1318 65.6267 31.4153 65.6355 31.7001C65.6267 31.9848 65.6761 32.2684 65.7809 32.5333C65.8856 32.7982 66.0435 33.0389 66.2448 33.2406C66.4402 33.4373 66.6738 33.5921 66.9312 33.6953C67.1887 33.7986 67.4644 33.8482 67.7417 33.8411ZM67.7417 27.244L67.3327 27.8532H66.1403L67.0977 26.4868H68.3248L69.3083 27.8445H68.1159L67.7417 27.244Z" fill="white"/>
<path d="M72.4785 28.4363H73.7666V34.9638H72.4785V28.4363Z" fill="white"/>
<path d="M84.5562 28.4363V34.9638H83.2768V30.734L81.4404 33.7627H81.2925L79.4561 30.7427V34.9638H78.168V28.4363H79.4909L81.3621 31.526L83.2333 28.4363H84.5562Z" fill="white"/>
<path d="M90.3981 34.9639L90.0065 33.789H87.3955L87.0038 34.9639H85.6113L87.9003 28.4365H89.493L91.7906 34.9639H90.3981ZM89.4756 27.8534H88.318L87.2823 26.574H88.7271L89.4756 27.8534ZM87.8132 32.5792H89.6061L88.7358 29.9073L87.8132 32.5792Z" fill="white"/>
<path d="M133.408 1.63043H127.873V34.9727H133.408V1.63043Z" fill="white"/>
<path d="M124.774 13.7105V34.9639H119.178V13.432C119.179 12.5688 119.01 11.7139 118.68 10.9164C118.35 10.1188 117.865 9.39431 117.254 8.78447C116.645 8.17582 115.922 7.69339 115.126 7.36482C114.33 7.03626 113.477 6.86802 112.615 6.86975C111.753 6.8686 110.9 7.03756 110.103 7.36694C109.306 7.69632 108.582 8.17965 107.973 8.78924C107.363 9.39883 106.88 10.1227 106.55 10.9194C106.221 11.7161 106.052 12.5699 106.053 13.432V34.9726H100.457V13.7105C100.457 10.479 101.741 7.37977 104.026 5.09472C106.311 2.80967 109.41 1.52594 112.642 1.52594C115.866 1.52801 118.958 2.80803 121.24 5.08558C123.515 7.37864 124.786 10.4809 124.774 13.7105Z" fill="white"/>
<path d="M120.571 13.0142H103.922V18.506H120.571V13.0142Z" fill="white"/>
<path d="M47.5081 0.0899658V5.70357H45.9764V1.63044H41.8945V0.0899658H47.5081Z" fill="white"/>
<path d="M45.9769 5.70356V7.24404H40.3633V1.63043H41.8951V5.70356H45.9769Z" fill="white"/>
<path d="M45.9769 9.4024H40.3633V24.4068H45.9769V9.4024Z" fill="white"/>
<path d="M33.8345 1.63044C31.8556 1.61129 29.9407 2.33131 28.4646 3.6496C27.6917 4.3036 27.0727 5.12003 26.6515 6.04069C26.2302 6.96136 26.0172 7.9636 26.0277 8.976V24.3982H31.563V9.88114C31.5576 9.36429 31.6583 8.85183 31.8589 8.37547C32.1722 7.6531 32.6509 7.16572 33.9825 7.16572H38.2036V1.63044H33.8345Z" fill="white"/>
<path d="M59.5186 1.63044C58.0233 1.62929 56.5425 1.92296 55.1609 2.49465C53.7792 3.06633 52.5238 3.90482 51.4664 4.96214C50.4091 6.01946 49.5707 7.27487 48.999 8.65654C48.4273 10.0382 48.1336 11.519 48.1348 13.0143C48.1336 14.5096 48.4273 15.9904 48.999 17.3721C49.5707 18.7538 50.4091 20.0092 51.4664 21.0665C52.5238 22.1238 53.7792 22.9623 55.1609 23.534C56.5425 24.1057 58.0233 24.3993 59.5186 24.3982C62.5378 24.3982 65.4333 23.1988 67.5682 21.0639C69.7031 18.929 70.9025 16.0335 70.9025 13.0143C70.9025 9.99512 69.7031 7.09958 67.5682 4.96469C65.4333 2.8298 62.5378 1.63044 59.5186 1.63044ZM59.5186 18.7933C57.9859 18.7933 56.516 18.1844 55.4323 17.1007C54.3485 16.0169 53.7397 14.547 53.7397 13.0143C53.7397 11.4816 54.3485 10.0117 55.4323 8.92796C56.516 7.8442 57.9859 7.23534 59.5186 7.23534C61.0498 7.23764 62.5174 7.84752 63.5993 8.93104C64.6812 10.0146 65.2889 11.4831 65.2889 13.0143C65.29 13.7728 65.1416 14.5241 64.8522 15.2252C64.5627 15.9263 64.1378 16.5634 63.6019 17.1001C63.0659 17.6369 62.4295 18.0627 61.7288 18.3532C61.0282 18.6437 60.2771 18.7933 59.5186 18.7933Z" fill="white"/>
<path d="M12.2159 1.6303C9.19673 1.6303 6.30119 2.82967 4.1663 4.96456C2.03141 7.09945 0.832031 9.99498 0.832031 13.0142C0.832031 16.0334 2.03141 18.9289 4.1663 21.0638C6.30119 23.1987 9.19673 24.3981 12.2159 24.3981C13.7138 24.4026 15.1978 24.1116 16.583 23.5415C17.9682 22.9715 19.2273 22.1337 20.2881 21.0761C21.3489 20.0186 22.1905 18.7621 22.7648 17.3787C23.339 15.9952 23.6346 14.5121 23.6346 13.0142C23.6346 11.5163 23.339 10.0331 22.7648 8.6497C22.1905 7.26627 21.3489 6.00978 20.2881 4.95223C19.2273 3.89468 17.9682 3.05687 16.583 2.48683C15.1978 1.91679 13.7138 1.62572 12.2159 1.6303ZM12.2159 18.7932C11.4574 18.7932 10.7064 18.6436 10.0057 18.3531C9.30509 18.0626 8.66859 17.6367 8.13265 17.1C7.59672 16.5633 7.17188 15.9261 6.88241 15.225C6.59294 14.524 6.44451 13.7727 6.44565 13.0142C6.44565 11.483 7.05332 10.0144 8.1352 8.93091C9.21709 7.84739 10.6848 7.23751 12.2159 7.2352C13.7479 7.23751 15.2165 7.84711 16.2997 8.93037C17.383 10.0136 17.9926 11.4822 17.9949 13.0142C17.9949 14.5469 17.386 16.0168 16.3023 17.1005C15.2185 18.1843 13.7486 18.7932 12.2159 18.7932Z" fill="white"/>
<path d="M92.7821 11.6218V24.3982H87.1685V11.6218C87.1706 11.0464 87.0587 10.4763 86.8391 9.94449C86.6194 9.41266 86.2966 8.92966 85.8891 8.52344C85.4867 8.11748 85.0082 7.79478 84.4811 7.57377C83.9539 7.35276 83.3884 7.23776 82.8168 7.23535C81.6627 7.23535 80.5558 7.69383 79.7398 8.50992C78.9237 9.32601 78.4652 10.4329 78.4652 11.587V24.3982H72.8516V11.6218C72.8516 8.97645 73.9006 6.43906 75.7687 4.56606C77.6368 2.69307 80.1715 1.63736 82.8168 1.63045C84.1294 1.628 85.4295 1.88509 86.6423 2.38696C87.8552 2.88882 88.9568 3.62555 89.8839 4.55475C90.8084 5.48396 91.5402 6.58656 92.0376 7.7993C92.5349 9.01204 92.788 10.3111 92.7821 11.6218Z" fill="white"/>
</svg>
