<svg width="25" height="25" viewBox="0 0 25 25" fill="none" xmlns="http://www.w3.org/2000/svg">
<path d="M19.5857 17.8312L18.8424 16.7134C19.1047 16.3612 19.3365 15.9872 19.5354 15.5956C19.7324 15.1959 19.8969 14.781 20.0273 14.3548L21.3686 14.271C21.7058 14.2495 22.0207 14.0949 22.2439 13.8412C22.4672 13.5876 22.5805 13.2557 22.559 12.9184L22.369 9.93391C22.346 9.59827 22.1918 9.28518 21.9398 9.06239C21.6877 8.8396 21.358 8.72502 21.0221 8.74343L19.6807 8.82725C19.3204 8.00443 18.8234 7.24855 18.2108 6.59163L18.8088 5.39C18.9609 5.08899 18.9875 4.73996 18.8828 4.41938C18.778 4.09881 18.5504 3.83283 18.2499 3.67975L15.5727 2.34955C15.2725 2.19767 14.9243 2.17123 14.6047 2.27604C14.285 2.38085 14.0201 2.60833 13.8681 2.90846L13.27 4.11008C12.3823 4.01503 11.4848 4.06984 10.6152 4.27219L9.87192 3.15438C9.68513 2.87276 9.3941 2.67684 9.06289 2.60976C8.73169 2.54268 8.3874 2.60992 8.10575 2.79667L5.61306 4.47339C5.47348 4.56581 5.35359 4.68495 5.26026 4.82393C5.16694 4.96291 5.10203 5.11898 5.0693 5.28316C5.03657 5.44733 5.03668 5.61635 5.06957 5.78049C5.10246 5.94463 5.16748 6.10063 5.26094 6.23951L6.00426 7.35732C5.73823 7.70815 5.5044 8.08227 5.30563 8.47514C5.10856 8.87415 4.94589 9.28926 4.81939 9.71592L3.47807 9.79977C3.31135 9.80974 3.14818 9.8525 2.99803 9.92565C2.84788 9.9988 2.71368 10.1009 2.60307 10.226C2.49247 10.3512 2.40765 10.4969 2.3535 10.6549C2.29936 10.8129 2.277 10.98 2.2876 11.1467L2.47201 14.1313C2.49359 14.469 2.64796 14.7843 2.90142 15.0084C3.15488 15.2326 3.48683 15.3472 3.82459 15.3273L5.16031 15.2379C5.52184 16.0601 6.01871 16.8158 6.63024 17.4735L6.03783 18.6752C5.88747 18.9756 5.8618 19.3233 5.96647 19.6425C6.07114 19.9618 6.29768 20.2268 6.59674 20.3799L9.27944 21.7101C9.5765 21.8547 9.91844 21.8772 10.2319 21.7727C10.5453 21.6682 10.8053 21.4451 10.9562 21.1511L11.5542 19.9495C12.4423 20.0426 13.3397 19.9859 14.209 19.7818L14.9468 20.8996C15.1345 21.1801 15.4255 21.375 15.7563 21.442C16.087 21.509 16.4308 21.4426 16.7129 21.2573L19.2056 19.5806C19.4874 19.3985 19.6856 19.1122 19.7568 18.7844C19.828 18.4566 19.7665 18.1138 19.5857 17.8312ZM10.5929 15.6962C9.86926 15.3369 9.26833 14.7711 8.8662 14.0703C8.46407 13.3695 8.27878 12.5652 8.3337 11.7592C8.38862 10.9531 8.68132 10.1813 9.17478 9.54157C9.66825 8.90181 10.3403 8.42272 11.1061 8.16488C11.8718 7.90704 12.6967 7.88204 13.4766 8.093C14.2566 8.30397 14.9565 8.74145 15.4878 9.35013C16.0191 9.95882 16.358 10.7114 16.4617 11.5127C16.5654 12.3139 16.4291 13.128 16.0702 13.8518C15.5875 14.8219 14.7398 15.5609 13.713 15.9066C12.6861 16.2524 11.564 16.1767 10.5929 15.6962Z" fill="white"/>
<path d="M14.9914 2.21887C15.1855 2.22024 15.3767 2.26613 15.5503 2.35301L18.2274 3.6832C18.5279 3.83629 18.7555 4.10226 18.8602 4.42284C18.965 4.74342 18.9384 5.09245 18.7863 5.39345L18.1883 6.59508C18.8009 7.252 19.2979 8.00789 19.6582 8.8307L20.9996 8.74689H21.0779C21.4008 8.74761 21.7115 8.87091 21.947 9.09191C22.1825 9.3129 22.3253 9.61509 22.3465 9.93736L22.5366 12.9219C22.558 13.2591 22.4446 13.591 22.2214 13.8447C21.9981 14.0983 21.6833 14.2529 21.3461 14.2745L20.0047 14.3583C19.8744 14.7844 19.7099 15.1994 19.5129 15.5991C19.314 15.9907 19.0822 16.3646 18.8199 16.7169L19.5632 17.8347C19.6564 17.9739 19.7211 18.1302 19.7536 18.2946C19.7861 18.4589 19.7856 18.6281 19.7524 18.7923C19.7191 18.9565 19.6537 19.1125 19.5598 19.2513C19.466 19.39 19.3455 19.5088 19.2055 19.6008L16.7128 21.2775C16.5046 21.4173 16.2593 21.4912 16.0085 21.4899C15.7993 21.4911 15.5929 21.4408 15.4077 21.3433C15.2225 21.2458 15.0641 21.1042 14.9466 20.931L14.2089 19.8132C13.6118 19.954 13.0003 20.0253 12.3868 20.0256C12.113 20.0256 11.8279 20.0256 11.5541 19.9809L10.956 21.1825C10.8523 21.3913 10.6932 21.5674 10.496 21.6916C10.2989 21.8158 10.0712 21.8834 9.8382 21.8868C9.64377 21.8882 9.45193 21.8421 9.2793 21.7526L6.59659 20.4224C6.29753 20.2694 6.07099 20.0043 5.96632 19.6851C5.86165 19.3658 5.88732 19.0182 6.03768 18.7177L6.63009 17.5161C6.01856 16.8583 5.52169 16.1027 5.16016 15.2805L3.82444 15.3699H3.72381C3.39936 15.3692 3.08729 15.2453 2.85072 15.0233C2.61415 14.8012 2.47074 14.4976 2.44949 14.1738L2.26507 11.1893C2.25447 11.0226 2.2769 10.8555 2.33105 10.6975C2.38519 10.5395 2.47001 10.3937 2.58062 10.2686C2.69122 10.1435 2.82543 10.0414 2.97557 9.96823C3.12572 9.89508 3.28882 9.85229 3.45554 9.84232L4.79693 9.75851C4.92343 9.33184 5.0861 8.91673 5.28318 8.51772C5.48194 8.12485 5.71577 7.75073 5.98181 7.39991L5.23842 6.2821C5.05114 6.00113 4.98307 5.65733 5.04909 5.32618C5.11511 4.99504 5.30982 4.70363 5.59053 4.51597L8.0833 2.83925C8.36495 2.65251 8.70923 2.58527 9.04044 2.65235C9.37165 2.71943 9.6626 2.91534 9.84939 3.19696L10.5928 4.31477C11.1887 4.17857 11.7979 4.10921 12.4092 4.10798C12.6893 4.10614 12.9693 4.12105 13.2476 4.15267L13.8456 2.95104C13.9485 2.74127 14.1073 2.56398 14.3045 2.43873C14.5018 2.31348 14.7298 2.24513 14.9634 2.24122M12.3813 16.1468C13.382 16.1459 14.3476 15.7771 15.0942 15.1107C15.8409 14.4443 16.3166 13.5267 16.4308 12.5325C16.545 11.5383 16.2899 10.5367 15.7138 9.71832C15.1377 8.89995 14.281 8.32182 13.3065 8.09393C12.332 7.86605 11.3077 8.00431 10.4285 8.48238C9.54927 8.96044 8.87646 9.74498 8.53796 10.6868C8.19945 11.6286 8.21889 12.6619 8.5926 13.5903C8.96632 14.5187 9.66821 15.2774 10.5648 15.722C11.1303 15.9994 11.7514 16.1446 12.3813 16.1468ZM14.9634 0.00559452C14.3231 0.00372066 13.6945 0.177909 13.1465 0.509101C12.5984 0.840292 12.152 1.31573 11.8559 1.88351H11.6435C11.119 1.13231 10.3219 0.61558 9.42202 0.443331C8.52216 0.271082 7.59063 0.456942 6.82576 0.961336L4.33299 2.63805C3.57 3.1468 3.036 3.93356 2.84492 4.83049C2.65384 5.72742 2.82083 6.66348 3.31022 7.43903L3.25994 7.53404C3.25994 7.56198 3.2599 7.59554 3.21518 7.62908C2.31538 7.69848 1.47869 8.11783 0.88459 8.79717C0.577247 9.14185 0.341365 9.54414 0.190734 9.98068C0.0401022 10.4172 -0.0223173 10.8794 0.00706992 11.3402L0.197079 14.3248C0.253865 15.2159 0.647675 16.0521 1.29852 16.6635C1.94936 17.2749 2.80846 17.6157 3.70143 17.6167H3.84116L3.95298 17.79C3.56653 18.6206 3.51903 19.5692 3.82062 20.4343C4.1222 21.2994 4.74912 22.0129 5.56822 22.4233L8.25093 23.7535C9.07276 24.1592 10.0205 24.2279 10.8923 23.945C11.764 23.662 12.4908 23.0499 12.9178 22.2389H13.1246C13.6481 22.9915 14.4458 23.509 15.3464 23.6804C16.2471 23.8517 17.179 23.6633 17.9423 23.1555L20.4351 21.4787C21.1986 20.9719 21.7336 20.1865 21.9258 19.2905C22.1179 18.3944 21.952 17.4587 21.4635 16.6834C21.4761 16.6507 21.491 16.6189 21.5082 16.5883C21.5253 16.5578 21.5403 16.526 21.5529 16.4933C22.4669 16.4148 23.3139 15.9822 23.9133 15.2878C24.5126 14.5934 24.8169 13.6922 24.761 12.7766L24.5766 9.79764C24.5198 8.90647 24.126 8.07032 23.4752 7.45892C22.8243 6.84753 21.9652 6.5067 21.0723 6.50567H20.9325L20.8151 6.33241C21.206 5.50239 21.2558 4.55218 20.9538 3.68586C20.6517 2.81955 20.022 2.10624 19.1999 1.6991L16.5228 0.368897C16.0383 0.127538 15.5046 0.00128113 14.9634 0V0.00559452ZM12.3813 13.9112C12.096 13.9102 11.8148 13.8433 11.5597 13.7156C11.3419 13.6082 11.1477 13.4585 10.9884 13.2752C10.8291 13.0919 10.7078 12.8787 10.6319 12.648C10.5375 12.3698 10.511 12.0731 10.5544 11.7826C10.5979 11.4921 10.7102 11.2161 10.8819 10.9777C11.0535 10.7393 11.2797 10.5454 11.5415 10.4121C11.8032 10.2788 12.0931 10.2099 12.3868 10.2112C12.6718 10.2097 12.9531 10.2747 13.2084 10.4012C13.647 10.6208 13.9809 11.0051 14.1369 11.4702C14.293 11.9352 14.2585 12.4431 14.0412 12.8828C13.8883 13.1958 13.6494 13.4588 13.3524 13.6409C13.0555 13.823 12.7128 13.9168 12.3645 13.9112H12.3813Z" fill="url(#paint0_linear_90_6778)"/>
<path opacity="0.51" d="M15.31 6.21419C14.1578 5.641 12.8616 5.42239 11.5851 5.586C10.3087 5.74961 9.10953 6.28811 8.13918 7.13336C7.16884 7.97861 6.47095 9.09263 6.13382 10.3346C5.7967 11.5765 5.83548 12.8905 6.24523 14.1104C6.65499 15.3303 7.41727 16.4012 8.43576 17.1878C9.45425 17.9744 10.6831 18.4412 11.967 18.5293C13.2508 18.6174 14.532 18.3227 15.6484 17.6826C16.7647 17.0425 17.6661 16.0856 18.2386 14.9331C18.6193 14.1684 18.8456 13.3362 18.9044 12.484C18.9632 11.6318 18.8535 10.7764 18.5815 9.96664C18.3095 9.15689 17.8806 8.40866 17.3192 7.76479C16.7579 7.12092 16.0751 6.59402 15.31 6.21419ZM9.97248 16.9508C9.00013 16.4678 8.19281 15.7073 7.65273 14.7655C7.11266 13.8237 6.86404 12.7428 6.93834 11.6597C7.01264 10.5766 7.40652 9.53978 8.07014 8.68052C8.73375 7.82126 9.63728 7.17809 10.6665 6.83242C11.6957 6.48675 12.8042 6.45411 13.852 6.73858C14.8998 7.02304 15.8397 7.61188 16.5527 8.43057C17.2658 9.24927 17.72 10.261 17.8579 11.3379C17.9959 12.4148 17.8113 13.5084 17.3276 14.4804C17.0072 15.1259 16.5628 15.7019 16.0196 16.1755C15.4764 16.649 14.8453 17.0109 14.1622 17.2403C13.479 17.4697 12.7574 17.5623 12.0385 17.5126C11.3196 17.4629 10.6175 17.272 9.97248 16.9508Z" fill="url(#paint1_linear_90_6778)"/>
<defs>
<linearGradient id="paint0_linear_90_6778" x1="0.0294252" y1="12.0388" x2="24.7946" y2="12.0388" gradientUnits="userSpaceOnUse">
<stop stop-color="#FF6E11"/>
<stop offset="0.24" stop-color="#FF7311"/>
<stop offset="0.54" stop-color="#FF8211"/>
<stop offset="0.85" stop-color="#FF9A11"/>
<stop offset="1" stop-color="#FFA811"/>
</linearGradient>
<linearGradient id="paint1_linear_90_6778" x1="5.90922" y1="12.038" x2="18.9149" y2="12.038" gradientUnits="userSpaceOnUse">
<stop stop-color="#FF6E11"/>
<stop offset="0.24" stop-color="#FF7311"/>
<stop offset="0.54" stop-color="#FF8211"/>
<stop offset="0.85" stop-color="#FF9A11"/>
<stop offset="1" stop-color="#FFA811"/>
</linearGradient>
</defs>
</svg>
