<svg width="23" height="25" viewBox="0 0 23 25" fill="none" xmlns="http://www.w3.org/2000/svg">
<path d="M7.20428 12.0047C7.20427 12.7745 7.50965 13.5129 8.05348 14.0578C8.59731 14.6027 9.33513 14.9095 10.105 14.911H14.3582V17.3758C14.3577 17.924 14.1769 18.4569 13.8436 18.8922C13.5103 19.3275 13.043 19.6411 12.5139 19.7847L5.36545 21.6961C4.99695 21.7947 4.6107 21.8072 4.23659 21.7326C3.86248 21.6581 3.51058 21.4985 3.20802 21.2661C2.90546 21.0338 2.66033 20.735 2.49172 20.3929C2.3231 20.0507 2.2355 19.6743 2.2356 19.2928V4.72214C2.2355 4.34067 2.3231 3.96431 2.49172 3.62213C2.66033 3.27996 2.90546 2.98117 3.20802 2.74884C3.51058 2.51652 3.86248 2.35691 4.23659 2.28235C4.6107 2.20779 4.99695 2.22027 5.36545 2.31885L12.5083 4.23589C13.037 4.37636 13.5045 4.68761 13.8381 5.12123C14.1716 5.55485 14.3525 6.08655 14.3526 6.63362V9.09838H10.0994C9.33096 9.1028 8.59545 9.41079 8.05314 9.95519C7.51083 10.4996 7.20574 11.2363 7.20428 12.0047Z" fill="white"/>
<path d="M4.72273 2.23562C4.94149 2.23635 5.15932 2.26449 5.37108 2.31944L12.5139 4.23648C13.0426 4.37694 13.5101 4.68819 13.8437 5.12181C14.1772 5.55543 14.3581 6.08714 14.3583 6.63421V9.09897H10.105C9.33419 9.09897 8.595 9.40518 8.04996 9.95022C7.50492 10.4953 7.19871 11.2345 7.19871 12.0053C7.19871 12.7761 7.50492 13.5153 8.04996 14.0603C8.595 14.6054 9.33419 14.9116 10.105 14.9116H14.3583V17.3764C14.3577 17.9246 14.1769 18.4575 13.8436 18.8928C13.5103 19.3281 13.0431 19.6417 12.5139 19.7852L5.36548 21.6967C5.1545 21.7561 4.93632 21.7862 4.71713 21.7861C4.39052 21.7854 4.06726 21.7203 3.76579 21.5947C3.46432 21.469 3.19055 21.2852 2.96011 21.0537C2.72968 20.8223 2.54708 20.5477 2.42277 20.2456C2.29845 19.9436 2.23489 19.62 2.23562 19.2934V4.72273C2.23562 4.06407 2.49687 3.43232 2.96209 2.96605C3.42731 2.49978 4.05847 2.2371 4.71713 2.23562M4.71713 0C3.466 0.00295689 2.2671 0.501652 1.38294 1.38686C0.498777 2.27207 0.00147539 3.47159 0 4.72273V19.2934C0.0014699 20.5451 0.498526 21.7452 1.38253 22.6313C2.26653 23.5174 3.46549 24.0173 4.71713 24.0218C5.13042 24.0209 5.5419 23.9664 5.94117 23.8597L13.084 21.9426C14.0892 21.6732 14.9774 21.0797 15.611 20.2542C16.2446 19.4286 16.5881 18.417 16.5883 17.3764V12.676H10.0994C9.92152 12.676 9.75094 12.6053 9.62516 12.4795C9.49938 12.3537 9.42874 12.1832 9.42874 12.0053C9.42874 11.8274 9.49938 11.6568 9.62516 11.531C9.75094 11.4053 9.92152 11.3346 10.0994 11.3346H16.5883V6.63421C16.5869 5.59449 16.2428 4.58423 15.6093 3.75979C14.9758 2.93534 14.0883 2.34266 13.084 2.07352L5.94676 0.16207C5.54551 0.0557194 5.13224 0.00126019 4.71713 0Z" fill="url(#paint0_linear_90_6774)"/>
<path d="M16.4262 7.05755C16.0942 7.36709 15.8985 7.79554 15.8817 8.24912C15.8649 8.70269 16.0286 9.14443 16.3368 9.47762L17.0969 10.2936H10.01C9.55639 10.2936 9.12134 10.4738 8.80061 10.7946C8.47987 11.1153 8.29969 11.5503 8.29969 12.0039C8.29896 12.229 8.34268 12.4519 8.4283 12.6601C8.51392 12.8682 8.63974 13.0574 8.79863 13.2168C8.95751 13.3762 9.14633 13.5027 9.35419 13.589C9.56205 13.6753 9.78491 13.7197 10.01 13.7197H17.1025L16.3424 14.5357C16.0333 14.8685 15.8691 15.3104 15.8859 15.7643C15.9026 16.2181 16.099 16.6467 16.4318 16.9558C16.7646 17.2648 17.2065 17.4291 17.6603 17.4123C18.1142 17.3955 18.5428 17.1992 18.8518 16.8664L22.2891 13.172C22.3097 13.1409 22.3321 13.111 22.3562 13.0826L22.44 12.982L22.4735 12.9261C22.4992 12.885 22.5216 12.842 22.5406 12.7975L22.6021 12.6913C22.6044 12.6709 22.6044 12.6503 22.6021 12.6299C22.6021 12.5851 22.6301 12.5404 22.6468 12.4901C22.6606 12.4518 22.6717 12.4126 22.6803 12.3728C22.683 12.3523 22.683 12.3317 22.6803 12.3113C22.6834 12.2629 22.6834 12.2143 22.6803 12.166C22.6833 12.1232 22.6833 12.0802 22.6803 12.0374C22.6803 12.0374 22.6803 12.0374 22.6803 12.0039C22.6831 11.9592 22.6831 11.9144 22.6803 11.8698C22.6831 11.8232 22.6831 11.7766 22.6803 11.73C22.6835 11.7097 22.6835 11.6889 22.6803 11.6685C22.6717 11.6287 22.6606 11.5895 22.6468 11.5512L22.6021 11.4059C22.6043 11.3873 22.6043 11.3685 22.6021 11.35C22.5837 11.3116 22.5632 11.2743 22.5406 11.2382C22.5406 11.1991 22.5015 11.1543 22.4735 11.1096L22.44 11.0593L22.3562 10.9531C22.3321 10.9266 22.3098 10.8986 22.2891 10.8693L18.8518 7.17494C18.7004 7.0078 18.5175 6.87218 18.3135 6.77581C18.1096 6.67945 17.8886 6.62424 17.6633 6.61333C17.438 6.60243 17.2128 6.63603 17.0005 6.71226C16.7882 6.78849 16.5931 6.90582 16.4262 7.05755Z" fill="#FFC978"/>
<defs>
<linearGradient id="paint0_linear_90_6774" x1="0.00558904" y1="12.0109" x2="16.5939" y2="12.0109" gradientUnits="userSpaceOnUse">
<stop stop-color="#FF6E11"/>
<stop offset="0.24" stop-color="#FF7311"/>
<stop offset="0.54" stop-color="#FF8211"/>
<stop offset="0.85" stop-color="#FF9A11"/>
<stop offset="1" stop-color="#FFA811"/>
</linearGradient>
</defs>
</svg>
