<svg width="34" height="23" viewBox="0 0 34 23" fill="none" xmlns="http://www.w3.org/2000/svg">
<path opacity="0.51" d="M29.184 13.766C29.1337 13.8443 28.0997 15.6048 24.2768 18.0584C24.2639 18.061 24.2506 18.061 24.2377 18.0584C24.1892 18.1006 24.1368 18.1381 24.0812 18.1702L23.7123 18.3882H23.6788L23.2876 18.6285L16.5024 22.6806C16.3022 22.8025 16.0797 22.8835 15.848 22.9186C15.6162 22.9537 15.3797 22.9423 15.1524 22.885C14.9251 22.8278 14.7114 22.7259 14.5238 22.5852C14.3363 22.4446 14.1786 22.268 14.06 22.0658C13.9145 21.8293 13.83 21.5605 13.8141 21.2833C13.6108 21.3622 13.395 21.4039 13.1769 21.4063C12.868 21.4061 12.5644 21.3256 12.296 21.1727C12.0275 21.0199 11.8034 20.7999 11.6455 20.5344C11.4217 20.1641 11.3439 19.7237 11.4275 19.2992H11.3661C11.0418 19.2513 10.7387 19.1095 10.4942 18.8912C10.2492 18.673 10.0679 18.3926 9.96949 18.0796C9.87108 17.7667 9.8593 17.433 9.9353 17.1139C10.0214 16.7836 10.1974 16.4837 10.4439 16.2476C10.1855 16.0853 9.97305 15.8595 9.82689 15.5917C9.68074 15.3239 9.60575 15.023 9.60912 14.718C9.61248 14.4129 9.69411 14.1138 9.84613 13.8492C9.99816 13.5847 10.2155 13.3636 10.4774 13.2071L11.1984 12.7768C11.2557 12.7422 11.3191 12.7193 11.3852 12.7093C11.4513 12.6993 11.5188 12.7025 11.5836 12.7186C11.6485 12.7347 11.7096 12.7634 11.7634 12.8031C11.8172 12.8428 11.8626 12.8927 11.8971 12.95C11.9666 13.0672 11.9868 13.2071 11.9533 13.3391C11.9198 13.4711 11.8352 13.5845 11.7182 13.6542L10.9972 14.0846C10.9101 14.1346 10.8344 14.2022 10.7748 14.283C10.7151 14.3638 10.6728 14.4561 10.6507 14.5541C10.6045 14.7442 10.6346 14.9448 10.7345 15.113C10.84 15.2851 11.0084 15.4094 11.204 15.4595C11.394 15.5062 11.5949 15.4761 11.7629 15.3757L12.9254 14.6826L16.0162 12.8326C16.074 12.7975 16.1382 12.7742 16.2051 12.7641C16.272 12.7541 16.3403 12.7574 16.4058 12.7741C16.4714 12.7908 16.533 12.8204 16.587 12.8611C16.6411 12.9019 16.6864 12.953 16.7204 13.0115C16.755 13.0687 16.7778 13.1322 16.7878 13.1983C16.7978 13.2644 16.7947 13.3318 16.7786 13.3967C16.7625 13.4616 16.7338 13.5227 16.6941 13.5765C16.6544 13.6302 16.6044 13.6757 16.5471 13.7101L11.2599 16.8736C11.1726 16.9241 11.0964 16.9917 11.0359 17.0724C10.9754 17.153 10.9319 17.2451 10.9078 17.343C10.8619 17.54 10.8945 17.7471 10.9989 17.9204C11.1032 18.0936 11.2711 18.2194 11.4667 18.2708C11.657 18.3114 11.8556 18.2816 12.0256 18.187L17.3128 15.0236C17.3704 14.9893 17.4342 14.9667 17.5005 14.9571C17.5669 14.9475 17.6344 14.9511 17.6993 14.9678C17.7643 14.9844 17.8253 15.0137 17.8788 15.0539C17.9324 15.0942 17.9775 15.1446 18.0115 15.2024C18.046 15.2596 18.069 15.3231 18.0789 15.3892C18.0889 15.4553 18.0858 15.5227 18.0697 15.5876C18.0536 15.6525 18.0248 15.7136 17.9851 15.7674C17.9454 15.8211 17.8955 15.8666 17.8382 15.901L12.7354 18.9527C12.5624 19.0582 12.4377 19.2275 12.3886 19.4242C12.3394 19.6208 12.3696 19.8289 12.4727 20.0034C12.5782 20.1755 12.7466 20.2998 12.9422 20.3499C13.0366 20.3735 13.1348 20.3777 13.2308 20.3623C13.3269 20.347 13.4188 20.3124 13.5011 20.2605L18.6095 17.2145C18.667 17.1802 18.7308 17.1576 18.7972 17.148C18.8635 17.1384 18.931 17.142 18.996 17.1587C19.0609 17.1753 19.1219 17.2046 19.1755 17.2448C19.229 17.2851 19.2741 17.3356 19.3081 17.3933C19.3426 17.4506 19.3656 17.514 19.3756 17.5801C19.3856 17.6462 19.3825 17.7137 19.3664 17.7786C19.3503 17.8435 19.3215 17.9045 19.2818 17.9583C19.2421 18.0121 19.1922 18.0575 19.1349 18.092L15.1331 20.4897C14.9597 20.5934 14.8345 20.7618 14.7853 20.9578C14.736 21.1538 14.7667 21.3614 14.8704 21.5348C14.9742 21.7082 15.1426 21.8334 15.3386 21.8826C15.5346 21.9319 15.7421 21.9013 15.9156 21.7975L20.3868 19.1427L22.7287 17.7398C23.0472 17.5554 23.349 17.3654 23.6341 17.1809C23.8409 17.0524 24.0421 16.9183 24.2265 16.7897C24.4109 16.6612 24.6736 16.4879 24.8804 16.337C27.4849 14.4758 28.2339 13.2183 28.2339 13.2071L29.184 13.766Z" fill="url(#paint0_linear_90_6788)"/>
<path d="M27.0231 4.46563L25.0421 5.65033C24.7692 5.81351 24.6803 6.16702 24.8434 6.43988L28.7246 12.9299C28.8877 13.2028 29.2412 13.2917 29.5141 13.1285L31.4952 11.9438C31.7681 11.7806 31.8569 11.4272 31.6937 11.1543L27.8126 4.66427C27.6494 4.39141 27.296 4.30245 27.0231 4.46563Z" fill="white"/>
<path d="M27.3174 4.39236C27.4168 4.39098 27.5148 4.41614 27.6013 4.46526C27.6877 4.51438 27.7595 4.58569 27.8092 4.67181L31.6936 11.1663C31.7346 11.2303 31.7621 11.302 31.7744 11.377C31.7868 11.452 31.7838 11.5287 31.7654 11.6024C31.7471 11.6762 31.714 11.7454 31.668 11.8059C31.622 11.8665 31.5642 11.9169 31.498 11.9543L29.5139 13.1393C29.4499 13.1802 29.3782 13.2077 29.3032 13.2201C29.2283 13.2324 29.1515 13.2294 29.0778 13.2111C29.004 13.1927 28.9347 13.1596 28.8742 13.1136C28.8137 13.0676 28.7632 13.0098 28.7258 12.9436L24.8135 6.44913C24.7727 6.3848 24.7455 6.31282 24.7335 6.2376C24.7216 6.16237 24.7252 6.0855 24.7441 6.0117C24.7629 5.9379 24.7966 5.86871 24.8431 5.80842C24.8897 5.74813 24.9481 5.698 25.0147 5.66109L26.9932 4.47621C27.0821 4.42109 27.1848 4.39203 27.2894 4.39236M27.2894 2.15674C26.7819 2.15777 26.284 2.29481 25.8475 2.55357L23.8633 3.73845C23.5449 3.92659 23.2671 4.17603 23.0458 4.47236C22.8246 4.76868 22.6643 5.10599 22.5744 5.4647C22.4845 5.82342 22.4666 6.19642 22.5219 6.56208C22.5772 6.92774 22.7045 7.27879 22.8964 7.59488L26.7809 14.0894C26.969 14.407 27.2182 14.6842 27.5141 14.905C27.81 15.1258 28.1466 15.2857 28.5047 15.3756C28.8627 15.4655 29.2351 15.4836 29.6002 15.4288C29.9652 15.374 30.3158 15.2474 30.6317 15.0563L32.6158 13.8714C32.9339 13.6837 33.2116 13.4349 33.4329 13.1392C33.6543 12.8435 33.8148 12.5069 33.9052 12.1488C33.9956 11.7907 34.0143 11.4182 33.9599 11.0529C33.9055 10.6876 33.7791 10.3368 33.5883 10.0205L29.676 3.52606C29.4248 3.10989 29.0707 2.76531 28.6479 2.5255C28.225 2.28569 27.7476 2.15871 27.2615 2.15674H27.2894Z" fill="url(#paint1_linear_90_6788)"/>
<path d="M13.5179 12.5908C12.7547 12.5804 12.0031 12.403 11.3158 12.071C11.255 12.0439 11.2001 12.0049 11.1544 11.9563C11.1088 11.9078 11.0732 11.8507 11.0498 11.7883C11.0264 11.7259 11.0156 11.6595 11.0181 11.5929C11.0206 11.5263 11.0363 11.4608 11.0643 11.4003C11.092 11.3393 11.1316 11.2843 11.1806 11.2386C11.2297 11.1928 11.2873 11.1573 11.3502 11.1339C11.413 11.1105 11.4798 11.0998 11.5469 11.1024C11.6139 11.105 11.6797 11.1207 11.7406 11.1488C14.8425 12.5628 16.5304 10.1037 17.1117 8.9803C17.2043 8.80087 17.36 8.66213 17.5489 8.5909C17.7379 8.51967 17.9465 8.52101 18.1345 8.59465L22.2424 10.1931C22.5438 10.3065 22.8775 10.2989 23.1734 10.1718C23.4693 10.0447 23.7045 9.80794 23.8297 9.51123C23.8623 9.4412 23.8801 9.36518 23.8818 9.28796C23.8835 9.21074 23.8693 9.134 23.8398 9.06258C23.8104 8.99115 23.7665 8.92662 23.7109 8.87301C23.6553 8.8194 23.5892 8.7779 23.5167 8.75112L15.4294 5.36416C14.783 5.09863 14.0581 5.09863 13.4117 5.36416L12.6572 5.66039C12.4458 5.74365 12.2195 5.78217 11.9924 5.77351C11.7654 5.76485 11.5427 5.70919 11.3382 5.61008L10.8352 5.36416C10.7136 5.30486 10.6206 5.19972 10.5766 5.07184C10.5326 4.94397 10.5411 4.80386 10.6004 4.68231C10.6597 4.56076 10.7649 4.46772 10.8928 4.4237C11.0206 4.37968 11.1607 4.38825 11.2823 4.44754L11.7853 4.69346C11.8636 4.72812 11.9484 4.74603 12.0341 4.74603C12.1197 4.74603 12.2044 4.72812 12.2827 4.69346L13.0372 4.39726C13.9361 4.03849 14.9402 4.04852 15.8318 4.4252L23.9136 7.81217C24.3026 7.97643 24.611 8.28744 24.7722 8.67771C24.9333 9.06799 24.9341 9.50605 24.7743 9.89687C24.5531 10.4439 24.1247 10.8813 23.5824 11.1137C23.04 11.3461 22.4278 11.3547 21.8792 11.1377L17.9333 9.60627C17.0502 11.2159 15.53 12.5908 13.5179 12.5908Z" fill="url(#paint2_linear_90_6788)"/>
<path d="M2.11428 12.7231L3.64129 13.7068C4.809 14.459 6.36543 14.1222 7.11768 12.9545L11.7124 5.82217C12.4647 4.65446 12.1279 3.09802 10.9602 2.34577L9.43314 1.36206C8.26543 0.609809 6.70899 0.946606 5.95674 2.11432L1.36202 9.24667C0.609768 10.4144 0.946565 11.9708 2.11428 12.7231Z" fill="url(#paint3_linear_90_6788)"/>
<defs>
<linearGradient id="paint0_linear_90_6788" x1="9.61668" y1="17.8628" x2="29.184" y2="17.8628" gradientUnits="userSpaceOnUse">
<stop stop-color="#FF6E11"/>
<stop offset="0.24" stop-color="#FF7311"/>
<stop offset="0.54" stop-color="#FF8211"/>
<stop offset="0.85" stop-color="#FF9A11"/>
<stop offset="1" stop-color="#FFA811"/>
</linearGradient>
<linearGradient id="paint1_linear_90_6788" x1="22.4046" y1="8.51708" x2="34.136" y2="9.09835" gradientUnits="userSpaceOnUse">
<stop stop-color="#FF6E11"/>
<stop offset="0.24" stop-color="#FF7311"/>
<stop offset="0.54" stop-color="#FF8211"/>
<stop offset="0.85" stop-color="#FF9A11"/>
<stop offset="1" stop-color="#FFA811"/>
</linearGradient>
<linearGradient id="paint2_linear_90_6788" x1="10.2531" y1="7.95869" x2="24.8986" y2="9.39727" gradientUnits="userSpaceOnUse">
<stop stop-color="#FF6E11"/>
<stop offset="0.24" stop-color="#FF7311"/>
<stop offset="0.54" stop-color="#FF8211"/>
<stop offset="0.85" stop-color="#FF9A11"/>
<stop offset="1" stop-color="#FFA811"/>
</linearGradient>
<linearGradient id="paint3_linear_90_6788" x1="1.63773" y1="4.78333" x2="10.9211" y2="10.0091" gradientUnits="userSpaceOnUse">
<stop stop-color="#FF6E11"/>
<stop offset="0.24" stop-color="#FF7311"/>
<stop offset="0.54" stop-color="#FF8211"/>
<stop offset="0.85" stop-color="#FF9A11"/>
<stop offset="1" stop-color="#FFA811"/>
</linearGradient>
</defs>
</svg>
