<svg width="24" height="25" viewBox="0 0 24 25" fill="none" xmlns="http://www.w3.org/2000/svg">
<g clip-path="url(#clip0_90_6782)">
<path d="M21.8267 10.084V20.9869C21.8267 21.2399 21.7769 21.4903 21.6801 21.7239C21.5833 21.9576 21.4414 22.1699 21.2626 22.3487C21.0838 22.5276 20.8715 22.6695 20.6378 22.7662C20.4041 22.863 20.1537 22.9128 19.9008 22.9128H16.0021C15.8207 22.9128 15.6468 22.8408 15.5186 22.7126C15.3904 22.5843 15.3183 22.4105 15.3183 22.2291V18.0015C15.3169 17.4917 15.1135 17.0031 14.7524 16.6431C14.3914 16.2831 13.9023 16.0809 13.3925 16.0809H10.4802C10.2272 16.0809 9.97681 16.1307 9.74315 16.2275C9.50949 16.3243 9.29717 16.4661 9.11833 16.6449C8.9395 16.8238 8.79762 17.0361 8.70083 17.2698C8.60405 17.5034 8.55424 17.7539 8.55424 18.0068V22.2343C8.55424 22.4156 8.48221 22.5896 8.35399 22.7178C8.22577 22.846 8.05189 22.918 7.87055 22.918H3.99788C3.4871 22.918 2.99723 22.7151 2.63606 22.354C2.27488 21.9928 2.07202 21.5029 2.07202 20.9921V10.084C2.07253 9.44533 2.22863 8.8164 2.52692 8.25166C2.82521 7.68691 3.25664 7.20335 3.78387 6.84288L9.79641 2.75104C10.4296 2.31977 11.178 2.08911 11.9441 2.08911C12.7102 2.08911 13.4586 2.31977 14.0918 2.75104L20.0991 6.84288C20.6292 7.20159 21.0637 7.68438 21.3648 8.24923C21.6659 8.81409 21.8245 9.44393 21.8267 10.084Z" fill="white"/>
<path d="M11.9572 2.08853C12.7243 2.08795 13.4738 2.31898 14.1075 2.75138L20.1148 6.84322C20.642 7.20369 21.0735 7.68725 21.3718 8.252C21.6701 8.81674 21.8262 9.44567 21.8267 10.0844V20.9873C21.8267 21.2402 21.7769 21.4906 21.6801 21.7243C21.5833 21.9579 21.4415 22.1702 21.2626 22.3491C21.0838 22.5279 20.8715 22.6698 20.6378 22.7666C20.4042 22.8634 20.1537 22.9132 19.9008 22.9132H16.0021C15.8207 22.9132 15.6469 22.8411 15.5186 22.7129C15.3904 22.5847 15.3183 22.4108 15.3183 22.2295V18.0019C15.3169 17.492 15.1135 17.0035 14.7524 16.6434C14.3914 16.2834 13.9023 16.0812 13.3925 16.0812H10.4802C10.2273 16.0812 9.97683 16.131 9.74317 16.2278C9.50951 16.3246 9.29719 16.4664 9.11835 16.6453C8.93952 16.8241 8.79764 17.0364 8.70086 17.2701C8.60407 17.5038 8.55426 17.7542 8.55426 18.0071V22.2347C8.55426 22.416 8.48224 22.5899 8.35401 22.7181C8.22579 22.8463 8.05191 22.9184 7.87057 22.9184H3.9979C3.48712 22.9184 2.99725 22.7155 2.63608 22.3543C2.2749 21.9931 2.07204 21.5033 2.07204 20.9925V10.0844C2.07255 9.44567 2.22865 8.81674 2.52694 8.252C2.82523 7.68725 3.25667 7.20369 3.7839 6.84322L9.79643 2.75138C10.4278 2.31821 11.1758 2.08704 11.9415 2.08853M11.9415 0.000845825C10.7536 0.00663309 9.59495 0.370406 8.61689 1.04469L2.62525 5.12089C1.81873 5.67293 1.15937 6.41374 0.704551 7.27881C0.249728 8.14388 0.0132263 9.10701 0.0156433 10.0844V20.9873C0.0170243 22.0513 0.440313 23.0714 1.1927 23.8238C1.9451 24.5762 2.96521 24.9995 4.02925 25.0009H7.90708C8.6421 25.0009 9.34703 24.7089 9.86677 24.1891C10.3865 23.6694 10.6785 22.9645 10.6785 22.2295V18.1689H13.2881V22.2347C13.2881 22.9697 13.5801 23.6746 14.0998 24.1943C14.6195 24.7141 15.3245 25.006 16.0595 25.006H19.9374C21.0014 25.0047 22.0215 24.5814 22.7739 23.829C23.5262 23.0766 23.9495 22.0565 23.9509 20.9925V10.0844C23.9533 9.10701 23.7168 8.14388 23.262 7.27881C22.8072 6.41374 22.1478 5.67293 21.3413 5.12089L15.334 1.02382C14.3559 0.349541 13.1973 -0.0142323 12.0094 -0.0200195L11.9415 0.000845825Z" fill="url(#paint0_linear_90_6782)"/>
<path opacity="0.51" d="M10.219 3.50651L4.03423 7.87502C3.8793 7.98407 3.76338 8.13985 3.70337 8.31956C3.64337 8.49927 3.64249 8.69346 3.70083 8.87372C3.75916 9.05398 3.87368 9.21083 4.0276 9.32132C4.18152 9.4318 4.3667 9.49012 4.55615 9.48773H19.3787C19.5682 9.49012 19.7534 9.4318 19.9073 9.32132C20.0612 9.21083 20.1758 9.05398 20.2341 8.87372C20.2924 8.69346 20.2915 8.49927 20.2315 8.31956C20.1715 8.13985 20.0556 7.98407 19.9006 7.87502L13.7211 3.50651C13.2096 3.14287 12.5976 2.94751 11.9701 2.94751C11.3425 2.94751 10.7305 3.14287 10.219 3.50651Z" fill="url(#paint1_linear_90_6782)"/>
<path opacity="0.51" d="M14.2692 13.0789H9.35791C8.73241 13.0789 8.22534 13.5848 8.22534 14.2088C8.22534 14.8329 8.73241 15.3388 9.35791 15.3388H14.2692C14.8947 15.3388 15.4018 14.8329 15.4018 14.2088C15.4018 13.5848 14.8947 13.0789 14.2692 13.0789Z" fill="url(#paint2_linear_90_6782)"/>
</g>
<defs>
<linearGradient id="paint0_linear_90_6782" x1="-1.42729e-05" y1="12.5008" x2="23.9144" y2="12.5008" gradientUnits="userSpaceOnUse">
<stop stop-color="#FF6E11"/>
<stop offset="0.24" stop-color="#FF7311"/>
<stop offset="0.54" stop-color="#FF8211"/>
<stop offset="0.85" stop-color="#FF9A11"/>
<stop offset="1" stop-color="#FFA811"/>
</linearGradient>
<linearGradient id="paint1_linear_90_6782" x1="3.65848" y1="6.22052" x2="20.2556" y2="6.22052" gradientUnits="userSpaceOnUse">
<stop stop-color="#FF6E11"/>
<stop offset="0.24" stop-color="#FF7311"/>
<stop offset="0.54" stop-color="#FF8211"/>
<stop offset="0.85" stop-color="#FF9A11"/>
<stop offset="1" stop-color="#FFA811"/>
</linearGradient>
<linearGradient id="paint2_linear_90_6782" x1="8.22534" y1="14.2114" x2="15.407" y2="14.2114" gradientUnits="userSpaceOnUse">
<stop stop-color="#FF6E11"/>
<stop offset="0.24" stop-color="#FF7311"/>
<stop offset="0.54" stop-color="#FF8211"/>
<stop offset="0.85" stop-color="#FF9A11"/>
<stop offset="1" stop-color="#FFA811"/>
</linearGradient>
<clipPath id="clip0_90_6782">
<rect width="23.9144" height="25" fill="white"/>
</clipPath>
</defs>
</svg>
