<svg width="35" height="37" viewBox="0 0 35 37" fill="none" xmlns="http://www.w3.org/2000/svg">
<g clip-path="url(#clip0_1383_18610)">
<path d="M29.4202 6.11952C29.1435 6.07972 28.8642 6.06033 28.5846 6.06149H13.3482C11.6478 6.06201 10.0171 6.73774 8.81471 7.94014C7.61231 9.14254 6.93658 10.7732 6.93607 12.4737V28.6714C6.03026 28.0906 5.28489 27.2915 4.76846 26.3475C4.25202 25.4036 3.98107 24.3449 3.98047 23.2689V9.86817C3.98047 9.02519 4.14653 8.19046 4.46919 7.41167C4.79184 6.63288 5.26477 5.92529 5.86093 5.3293C6.4571 4.73331 7.16484 4.26061 7.94373 3.93819C8.72262 3.61577 9.55739 3.44995 10.4004 3.4502H24.2112C25.2292 3.44853 26.2329 3.68985 27.1389 4.15412C28.0449 4.61839 28.827 5.29219 29.4202 6.11952Z" fill="white"/>
<path d="M24.2109 0.10791H10.4001C7.81208 0.109959 5.33067 1.13895 3.50068 2.96894C1.67069 4.79893 0.641698 7.28034 0.639648 9.86833V23.2691C0.643248 25.3744 1.32601 27.4224 2.58646 29.1087C3.84692 30.795 5.61782 32.0296 7.63598 32.6291C7.17307 31.7273 6.93296 30.7278 6.93577 29.7141V28.6716C6.02996 28.0908 5.28459 27.2917 4.76816 26.3477C4.25172 25.4037 3.98077 24.3451 3.98017 23.2691V9.86833C3.98017 9.02535 4.14623 8.19062 4.46889 7.41183C4.79154 6.63304 5.26447 5.92545 5.86063 5.32946C6.4568 4.73347 7.16454 4.26077 7.94343 3.93835C8.72232 3.61593 9.55709 3.45011 10.4001 3.45037H24.2109C25.2291 3.44891 26.2329 3.69054 27.1389 4.15515C28.0449 4.61976 28.8269 5.29393 29.4199 6.12162C30.3275 6.23869 31.1992 6.54999 31.9756 7.03433C32.752 7.51866 33.4149 8.16464 33.9191 8.92827C33.6847 6.51518 32.561 4.27558 30.7665 2.64526C28.9721 1.01493 26.6353 0.110483 24.2109 0.10791Z" fill="url(#paint0_linear_1383_18610)"/>
<path opacity="0.51" d="M28.5802 6.05957H13.3496C9.80506 6.05957 6.93164 8.93299 6.93164 12.4775V29.714C6.93164 33.2585 9.80506 36.132 13.3496 36.132H28.5802C32.1247 36.132 34.9982 33.2585 34.9982 29.714V12.4775C34.9982 8.93299 32.1247 6.05957 28.5802 6.05957Z" fill="url(#paint1_linear_1383_18610)"/>
<path d="M15.1636 11.71H11.7264C11.0534 11.71 10.5078 12.2555 10.5078 12.9286V14.9847C10.5078 15.6577 11.0534 16.2033 11.7264 16.2033H15.1636C15.8367 16.2033 16.3822 15.6577 16.3822 14.9847V12.9286C16.3822 12.2555 15.8367 11.71 15.1636 11.71Z" fill="white"/>
<path d="M22.6851 11.71H19.2479C18.5749 11.71 18.0293 12.2555 18.0293 12.9286V14.9847C18.0293 15.6577 18.5749 16.2033 19.2479 16.2033H22.6851C23.3581 16.2033 23.9037 15.6577 23.9037 14.9847V12.9286C23.9037 12.2555 23.3581 11.71 22.6851 11.71Z" fill="white"/>
<path d="M30.2047 11.71H26.7674C26.0944 11.71 25.5488 12.2555 25.5488 12.9286V14.9847C25.5488 15.6577 26.0944 16.2033 26.7674 16.2033H30.2047C30.8777 16.2033 31.4233 15.6577 31.4233 14.9847V12.9286C31.4233 12.2555 30.8777 11.71 30.2047 11.71Z" fill="white"/>
<path d="M15.1636 18.8496H11.7264C11.0534 18.8496 10.5078 19.3952 10.5078 20.0682V22.1244C10.5078 22.7974 11.0534 23.343 11.7264 23.343H15.1636C15.8367 23.343 16.3822 22.7974 16.3822 22.1244V20.0682C16.3822 19.3952 15.8367 18.8496 15.1636 18.8496Z" fill="white"/>
<path d="M22.6851 18.8496H19.2479C18.5749 18.8496 18.0293 19.3952 18.0293 20.0682V22.1244C18.0293 22.7974 18.5749 23.343 19.2479 23.343H22.6851C23.3581 23.343 23.9037 22.7974 23.9037 22.1244V20.0682C23.9037 19.3952 23.3581 18.8496 22.6851 18.8496Z" fill="white"/>
<path d="M30.2047 18.8496H26.7674C26.0944 18.8496 25.5488 19.3952 25.5488 20.0682V22.1244C25.5488 22.7974 26.0944 23.343 26.7674 23.343H30.2047C30.8777 23.343 31.4233 22.7974 31.4233 22.1244V20.0682C31.4233 19.3952 30.8777 18.8496 30.2047 18.8496Z" fill="white"/>
<path d="M15.1636 25.9868H11.7264C11.0534 25.9868 10.5078 26.5324 10.5078 27.2054V29.2616C10.5078 29.9346 11.0534 30.4802 11.7264 30.4802H15.1636C15.8367 30.4802 16.3822 29.9346 16.3822 29.2616V27.2054C16.3822 26.5324 15.8367 25.9868 15.1636 25.9868Z" fill="white"/>
<path d="M22.6851 25.9868H19.2479C18.5749 25.9868 18.0293 26.5324 18.0293 27.2054V29.2616C18.0293 29.9346 18.5749 30.4802 19.2479 30.4802H22.6851C23.3581 30.4802 23.9037 29.9346 23.9037 29.2616V27.2054C23.9037 26.5324 23.3581 25.9868 22.6851 25.9868Z" fill="white"/>
<path d="M30.2047 25.9868H26.7674C26.0944 25.9868 25.5488 26.5324 25.5488 27.2054V29.2616C25.5488 29.9346 26.0944 30.4802 26.7674 30.4802H30.2047C30.8777 30.4802 31.4233 29.9346 31.4233 29.2616V27.2054C31.4233 26.5324 30.8777 25.9868 30.2047 25.9868Z" fill="white"/>
</g>
<defs>
<linearGradient id="paint0_linear_1383_18610" x1="0.639648" y1="16.3695" x2="33.9191" y2="16.3695" gradientUnits="userSpaceOnUse">
<stop stop-color="#FF6E11"/>
<stop offset="0.24" stop-color="#FF7311"/>
<stop offset="0.54" stop-color="#FF8211"/>
<stop offset="0.85" stop-color="#FF9A11"/>
<stop offset="1" stop-color="#FFA811"/>
</linearGradient>
<linearGradient id="paint1_linear_1383_18610" x1="6.93164" y1="21.0948" x2="35.0001" y2="21.0948" gradientUnits="userSpaceOnUse">
<stop stop-color="#FF6E11"/>
<stop offset="0.24" stop-color="#FF7311"/>
<stop offset="0.54" stop-color="#FF8211"/>
<stop offset="0.85" stop-color="#FF9A11"/>
<stop offset="1" stop-color="#FFA811"/>
</linearGradient>
<clipPath id="clip0_1383_18610">
<rect width="34.3607" height="36.0242" fill="white" transform="translate(0.639648 0.10791)"/>
</clipPath>
</defs>
</svg>
