<svg width="28" height="26" viewBox="0 0 28 26" fill="none" xmlns="http://www.w3.org/2000/svg">
<path opacity="0.48" d="M25.6093 12.9336C25.6093 9.74684 24.3434 6.69062 22.09 4.43726C19.8367 2.1839 16.7805 0.917969 13.5937 0.917969C10.407 0.917969 7.35078 2.1839 5.09742 4.43726C2.84405 6.69062 1.57812 9.74684 1.57812 12.9336C1.57812 13.0551 1.57812 13.1739 1.57812 13.2954H2.65818C2.65818 13.1766 2.65818 13.0551 2.65818 12.9336C2.65797 10.825 3.26734 8.76143 4.4129 6.99123C5.55846 5.22104 7.19136 3.81977 9.11493 2.95619C11.0385 2.09261 13.1707 1.80356 15.2548 2.12383C17.3388 2.44411 19.2859 3.36006 20.8614 4.76136C22.4369 6.16267 23.5737 7.98957 24.1349 10.022C24.696 12.0545 24.6577 14.2059 24.0244 16.2171C23.391 18.2282 22.1898 20.0134 20.5653 21.3577C18.9408 22.7019 16.9624 23.5478 14.8682 23.7935C14.7367 23.4984 14.5071 23.2578 14.2184 23.1127C13.9296 22.9677 13.5996 22.9271 13.2843 22.9978C12.969 23.0686 12.6879 23.2463 12.4888 23.5009C12.2897 23.7554 12.1849 24.071 12.1922 24.394C12.1995 24.7171 12.3184 25.0277 12.5287 25.273C12.739 25.5183 13.0278 25.6832 13.346 25.7397C13.6641 25.7962 13.992 25.7408 14.2739 25.5829C14.5559 25.425 14.7744 25.1744 14.8925 24.8736C17.8347 24.5501 20.5545 23.1534 22.5316 20.9506C24.5087 18.7478 25.6045 15.8935 25.6093 12.9336Z" fill="#FFBF86"/>
<path d="M2.0035 9.49435H1.69299C0.757975 9.49435 0 10.2523 0 11.1873V15.4077C0 16.3427 0.757975 17.1006 1.69299 17.1006H2.0035C2.93851 17.1006 3.69649 16.3427 3.69649 15.4077V11.1873C3.69649 10.2523 2.93851 9.49435 2.0035 9.49435Z" fill="url(#paint0_linear_127_5490)"/>
<path d="M25.4449 9.49435H25.1344C24.1994 9.49435 23.4414 10.2523 23.4414 11.1873V15.4077C23.4414 16.3427 24.1994 17.1006 25.1344 17.1006H25.4449C26.3799 17.1006 27.1379 16.3427 27.1379 15.4077V11.1873C27.1379 10.2523 26.3799 9.49435 25.4449 9.49435Z" fill="url(#paint1_linear_127_5490)"/>
<path d="M13.5917 3.31934C18.902 3.31934 23.207 7.62425 23.207 12.9346C23.2069 18.2449 18.902 22.5498 13.5917 22.5498C12.1543 22.5498 10.7919 22.2314 9.56731 21.666L4.97551 23.1084C4.76253 23.1741 4.53512 23.1759 4.32122 23.1133C4.10718 23.0506 3.9163 22.9263 3.77239 22.7559C3.62849 22.5855 3.53768 22.3768 3.51165 22.1553C3.48564 21.9339 3.52552 21.7098 3.6259 21.5107L5.41399 17.9902C4.50385 16.5212 3.9765 14.7898 3.97649 12.9346C3.97649 7.62429 8.28146 3.3194 13.5917 3.31934Z" fill="url(#paint2_linear_127_5490)"/>
<path d="M8.96534 13.5362C9.96447 13.5362 10.7744 12.7262 10.7744 11.7271C10.7744 10.7279 9.96447 9.91797 8.96534 9.91797C7.96621 9.91797 7.15625 10.7279 7.15625 11.7271C7.15625 12.7262 7.96621 13.5362 8.96534 13.5362Z" fill="white"/>
<path d="M18.1685 13.5362C19.1676 13.5362 19.9776 12.7262 19.9776 11.7271C19.9776 10.7279 19.1676 9.91797 18.1685 9.91797C17.1693 9.91797 16.3594 10.7279 16.3594 11.7271C16.3594 12.7262 17.1693 13.5362 18.1685 13.5362Z" fill="white"/>
<path d="M16.0476 15.6958C16.0114 16.3298 15.734 16.9258 15.2724 17.3618C14.8107 17.7978 14.1998 18.0408 13.5648 18.0408C12.9298 18.0408 12.3189 17.7978 11.8573 17.3618C11.3956 16.9258 11.1183 16.3298 11.082 15.6958H16.0476Z" fill="white"/>
<defs>
<linearGradient id="paint0_linear_127_5490" x1="1.84689" y1="8.5034" x2="1.84689" y2="15.3293" gradientUnits="userSpaceOnUse">
<stop stop-color="#FF6E11"/>
<stop offset="1" stop-color="#FFA411"/>
</linearGradient>
<linearGradient id="paint1_linear_127_5490" x1="25.2883" y1="8.5034" x2="25.2883" y2="15.3293" gradientUnits="userSpaceOnUse">
<stop stop-color="#FF6E11"/>
<stop offset="1" stop-color="#FFA411"/>
</linearGradient>
<linearGradient id="paint2_linear_127_5490" x1="7.18742" y1="-0.787282" x2="7.18742" y2="22.7334" gradientUnits="userSpaceOnUse">
<stop stop-color="#FFA211"/>
<stop offset="1" stop-color="#FF6F11"/>
</linearGradient>
</defs>
</svg>
