<svg width="24" height="22" viewBox="0 0 24 22" fill="none" xmlns="http://www.w3.org/2000/svg">
<g clip-path="url(#clip0_122_510)">
<path d="M19.0632 1.85028H4.95834C4.13386 1.85028 3.34314 2.17781 2.76014 2.76081C2.17715 3.34381 1.84961 4.13453 1.84961 4.95901V13.841C1.849 14.2497 1.92897 14.6544 2.08493 15.0321C2.24088 15.4098 2.46977 15.753 2.7585 16.0422C3.04724 16.3314 3.39014 16.5608 3.7676 16.7173C4.14507 16.8738 4.54971 16.9544 4.95834 16.9544H9.1773V18.0831H5.57822C5.42363 18.0831 5.27538 18.1445 5.16607 18.2538C5.05675 18.3632 4.99536 18.5114 4.99536 18.666C4.99536 18.8206 5.05675 18.9689 5.16607 19.0782C5.27538 19.1875 5.42363 19.2489 5.57822 19.2489H18.4202C18.5748 19.2489 18.723 19.1875 18.8323 19.0782C18.9417 18.9689 19.003 18.8206 19.003 18.666C19.003 18.5114 18.9417 18.3632 18.8323 18.2538C18.723 18.1445 18.5748 18.0831 18.4202 18.0831H14.8211V16.9729H19.0632C19.4718 16.9729 19.8765 16.8923 20.2539 16.7358C20.6314 16.5793 20.9743 16.3499 21.263 16.0607C21.5518 15.7715 21.7807 15.4283 21.9366 15.0506C22.0926 14.6729 22.1725 14.2682 22.1719 13.8595V4.94512C22.1682 4.12304 21.8391 3.3359 21.2565 2.7559C20.6739 2.1759 19.8853 1.85027 19.0632 1.85028Z" fill="white"/>
<path d="M19.064 1.85031C19.8885 1.85031 20.6792 2.17784 21.2622 2.76084C21.8452 3.34384 22.1727 4.13456 22.1727 4.95904V13.8411C22.1758 14.2512 22.0976 14.658 21.9428 15.0378C21.7879 15.4177 21.5594 15.7631 21.2704 16.0542C20.9814 16.3453 20.6377 16.5764 20.259 16.7341C19.8804 16.8917 19.4742 16.9729 19.064 16.9729H14.845V18.1017H18.4441C18.5987 18.1017 18.747 18.1631 18.8563 18.2724C18.9656 18.3817 19.027 18.53 19.027 18.6845C19.027 18.8391 18.9656 18.9874 18.8563 19.0967C18.747 19.206 18.5987 19.2674 18.4441 19.2674H5.57903C5.42444 19.2674 5.27619 19.206 5.16688 19.0967C5.05757 18.9874 4.99617 18.8391 4.99617 18.6845C4.99617 18.53 5.05757 18.3817 5.16688 18.2724C5.27619 18.1631 5.42444 18.1017 5.57903 18.1017H9.17812V16.9729H4.95915C4.55052 16.9729 4.14588 16.8923 3.76842 16.7358C3.39095 16.5793 3.04805 16.3499 2.75932 16.0607C2.47059 15.7716 2.24169 15.4283 2.08574 15.0506C1.92978 14.6729 1.84982 14.2682 1.85043 13.8596V4.94515C1.85043 4.12066 2.17796 3.32995 2.76096 2.74695C3.34395 2.16395 4.13467 1.83645 4.95915 1.83645H19.064M19.064 -0.0139771H4.95915C3.64428 -0.0127522 2.38361 0.510102 1.45386 1.43985C0.524108 2.36961 0.00122614 3.63028 1.29932e-06 4.94515V13.8272C-0.000721379 14.8262 0.300037 15.8022 0.862926 16.6276C1.42582 17.4529 2.22464 18.0892 3.15498 18.4532C3.15037 18.521 3.15037 18.589 3.15498 18.6568C3.1562 19.3018 3.41298 19.92 3.86905 20.376C4.32512 20.8321 4.94331 21.0889 5.58829 21.0901H18.4302C19.0752 21.0889 19.6934 20.8321 20.1495 20.376C20.6056 19.92 20.8623 19.3018 20.8636 18.6568C20.8636 18.5874 20.8636 18.5226 20.8636 18.4532C21.7939 18.0892 22.5927 17.4529 23.1556 16.6276C23.7185 15.8022 24.0192 14.8262 24.0185 13.8272V4.94515C24.0136 3.63348 23.4898 2.37707 22.5614 1.45044C21.6331 0.523819 20.3757 0.00232221 19.064 -0.000113552V-0.0139771Z" fill="url(#paint0_linear_122_510)"/>
<path opacity="0.22" d="M18.8334 2.74774H5.16336C3.83481 2.74774 2.75781 3.82474 2.75781 5.15329V13.6467C2.75781 14.9753 3.83481 16.0523 5.16336 16.0523H18.8334C20.1619 16.0523 21.2389 14.9753 21.2389 13.6467V5.15329C21.2389 3.82474 20.1619 2.74774 18.8334 2.74774Z" fill="url(#paint1_linear_122_510)"/>
<path d="M12.0007 13.3091C14.18 13.3091 15.9467 11.5424 15.9467 9.36302C15.9467 7.18369 14.18 5.41699 12.0007 5.41699C9.82139 5.41699 8.05469 7.18369 8.05469 9.36302C8.05469 11.5424 9.82139 13.3091 12.0007 13.3091Z" fill="url(#paint2_linear_122_510)"/>
<path d="M17.6013 8.1371C17.5894 7.94763 17.5029 7.77062 17.3607 7.64487C17.2184 7.51913 17.0322 7.45492 16.8427 7.46631L16.0886 7.51719C15.8875 7.05579 15.6072 6.63308 15.2606 6.26815L15.5983 5.58813C15.6402 5.50405 15.6651 5.41251 15.6715 5.31877C15.6779 5.22503 15.6657 5.13095 15.6356 5.04195C15.6055 4.95295 15.5581 4.87078 15.4961 4.80017C15.4341 4.72956 15.3588 4.67191 15.2744 4.63053L13.7663 3.88112C13.6822 3.83918 13.5907 3.81428 13.497 3.80787C13.4032 3.80146 13.3091 3.81366 13.2201 3.84376C13.1311 3.87386 13.049 3.92126 12.9784 3.98324C12.9078 4.04523 12.8501 4.12059 12.8087 4.20495L12.471 4.88033C11.9713 4.82512 11.4659 4.85642 10.9768 4.97286L10.5605 4.34372C10.5082 4.26533 10.4411 4.19799 10.3628 4.14557C10.2846 4.09314 10.1967 4.05666 10.1044 4.03819C10.012 4.01972 9.91691 4.01961 9.82451 4.03791C9.73211 4.0562 9.64421 4.09254 9.56585 4.1448L8.17803 5.07002C8.09965 5.12225 8.03233 5.18941 7.97991 5.26766C7.92748 5.34592 7.891 5.43374 7.87253 5.5261C7.85405 5.61846 7.85395 5.71357 7.87224 5.80597C7.89054 5.89837 7.92685 5.98624 7.97911 6.0646L8.39547 6.69377C8.24755 6.89481 8.11751 7.1084 8.00687 7.33214C7.89491 7.55838 7.80208 7.7936 7.72932 8.03531L6.97527 8.08159C6.78543 8.09351 6.60797 8.17988 6.48149 8.32195C6.35501 8.46403 6.28972 8.65029 6.29985 8.84024L6.40627 10.5195C6.41936 10.7097 6.50673 10.8872 6.64955 11.0136C6.79236 11.14 6.97913 11.2051 7.16955 11.1949L7.91897 11.144C8.12473 11.6026 8.40625 12.0233 8.75169 12.3884L8.41397 13.0685C8.37203 13.1525 8.34716 13.2441 8.34075 13.3378C8.33434 13.4316 8.34654 13.5256 8.37664 13.6146C8.40674 13.7037 8.45413 13.7858 8.51612 13.8564C8.57811 13.927 8.65344 13.9847 8.7378 14.0261L10.2413 14.7755C10.4112 14.8607 10.608 14.875 10.7885 14.8151C10.9689 14.7552 11.1182 14.6262 11.2035 14.4563L11.5412 13.7763C12.0409 13.8291 12.546 13.7979 13.0354 13.6837L13.4518 14.3175C13.5588 14.4739 13.7227 14.5822 13.9086 14.6193C14.0944 14.6565 14.2874 14.6196 14.4464 14.5164L15.8342 13.5912C15.9126 13.539 15.9799 13.4718 16.0323 13.3936C16.0847 13.3153 16.1212 13.2275 16.1397 13.1351C16.1582 13.0428 16.1583 12.9477 16.14 12.8553C16.1217 12.7629 16.0854 12.675 16.0331 12.5966L15.6214 11.9721C15.767 11.7679 15.8969 11.5529 16.01 11.3291C16.1197 11.104 16.211 10.8704 16.2829 10.6305L17.0369 10.5843C17.1312 10.5784 17.2233 10.5539 17.3081 10.5124C17.3929 10.4708 17.4686 10.4129 17.5309 10.342C17.5932 10.271 17.6409 10.1885 17.6713 10.0991C17.7016 10.0097 17.714 9.91517 17.7077 9.82096L17.6013 8.1371ZM15.2235 10.9127C14.9065 11.5501 14.4076 12.0792 13.7899 12.433C13.1722 12.7868 12.4635 12.9495 11.7533 12.9005C11.0431 12.8515 10.3635 12.593 9.8002 12.1577C9.23695 11.7224 8.81543 11.1298 8.58897 10.4549C8.3625 9.78005 8.34124 9.05318 8.52789 8.36623C8.71455 7.67927 9.10074 7.06312 9.6376 6.59565C10.1745 6.12818 10.8379 5.83042 11.544 5.74001C12.25 5.6496 12.9671 5.7706 13.6044 6.08773C14.029 6.29916 14.4078 6.59223 14.719 6.95017C15.0302 7.30812 15.2678 7.72392 15.4182 8.17377C15.5686 8.62363 15.6288 9.09875 15.5954 9.5719C15.562 10.045 15.4356 10.507 15.2235 10.9312V10.9127Z" fill="white"/>
<path d="M11.3299 6.19879C10.9925 6.56877 10.7566 7.01977 10.6452 7.50795C10.2964 7.4419 9.9575 7.33154 9.63672 7.17951C10.0865 6.68584 10.6779 6.34329 11.3299 6.19879Z" fill="white"/>
<path d="M12.8653 7.57737C12.5585 7.61648 12.2494 7.63502 11.9401 7.63288C11.6619 7.63182 11.384 7.61639 11.1074 7.58663C11.3248 6.83721 11.6626 6.37921 11.9771 6.37921C12.2917 6.37921 12.6479 6.83258 12.8653 7.57737Z" fill="white"/>
<path d="M14.336 7.15639C14.0232 7.31408 13.69 7.42771 13.3461 7.49408C13.2372 7.01004 13.0026 6.56327 12.666 6.19879C13.3085 6.33709 13.8921 6.67174 14.336 7.15639Z" fill="white"/>
<path d="M10.427 9.10857H8.8125C8.85067 8.56498 9.02918 8.04058 9.33062 7.58661C9.71139 7.78456 10.1201 7.92337 10.5426 7.99831C10.4718 8.36431 10.4331 8.73582 10.427 9.10857Z" fill="white"/>
<path d="M10.5426 10.6814C10.1201 10.7564 9.71139 10.8952 9.33062 11.0931C9.02918 10.6392 8.85067 10.1148 8.8125 9.57117H10.427C10.4328 9.94393 10.4715 10.3155 10.5426 10.6814Z" fill="white"/>
<path d="M11.3252 12.4532C10.6747 12.3139 10.0842 11.9741 9.63672 11.4818C9.9583 11.3318 10.297 11.2215 10.6452 11.1533C10.7571 11.6376 10.9913 12.0851 11.3252 12.4532Z" fill="white"/>
<path d="M11.9639 11.0285C12.2733 11.0279 12.5824 11.0479 12.8891 11.0886C12.6716 11.8241 12.3339 12.2867 12.024 12.2867C11.7141 12.2867 11.3717 11.8241 11.1543 11.0793C11.4231 11.0488 11.6933 11.0318 11.9639 11.0285Z" fill="white"/>
<path d="M13.0908 9.57117C13.0805 9.92068 13.0419 10.2688 12.9752 10.612C12.639 10.5708 12.3007 10.5492 11.962 10.5473C11.6526 10.5463 11.3435 10.5664 11.0368 10.6074C10.9717 10.2656 10.9346 9.91902 10.9258 9.57117H13.0908Z" fill="white"/>
<path d="M13.3453 11.1718C13.6891 11.2368 14.0222 11.3489 14.3353 11.5049C13.8933 11.9877 13.3107 12.3195 12.6699 12.4532C13.0022 12.0917 13.2349 11.6502 13.3453 11.1718Z" fill="white"/>
<path d="M15.1825 9.57117C15.141 10.1248 14.9578 10.6585 14.6506 11.1209C14.277 10.9185 13.8744 10.7749 13.457 10.6953C13.5258 10.3243 13.5645 9.94838 13.5727 9.57117H15.1825Z" fill="white"/>
<path d="M12.9761 8.04926C13.0428 8.3925 13.0815 8.7406 13.0917 9.09012H10.9082C10.9167 8.74378 10.9539 8.39872 11.0192 8.05849C11.3262 8.09563 11.6352 8.11416 11.9444 8.114C12.2894 8.11516 12.634 8.09355 12.9761 8.04926Z" fill="white"/>
<path d="M15.1825 9.10862H13.5727C13.5643 8.73295 13.5256 8.35857 13.457 7.98912C13.8747 7.90802 14.2772 7.76291 14.6506 7.5589C14.9593 8.02058 15.1427 8.55464 15.1825 9.10862Z" fill="white"/>
</g>
<defs>
<linearGradient id="paint0_linear_122_510" x1="1.29937e-06" y1="10.5519" x2="24" y2="10.5519" gradientUnits="userSpaceOnUse">
<stop stop-color="#FF6E11"/>
<stop offset="0.24" stop-color="#FF7311"/>
<stop offset="0.54" stop-color="#FF8211"/>
<stop offset="0.85" stop-color="#FF9A11"/>
<stop offset="1" stop-color="#FFA811"/>
</linearGradient>
<linearGradient id="paint1_linear_122_510" x1="2.75781" y1="9.40002" x2="21.2435" y2="9.40002" gradientUnits="userSpaceOnUse">
<stop stop-color="#FF6E11"/>
<stop offset="0.24" stop-color="#FF7311"/>
<stop offset="0.54" stop-color="#FF8211"/>
<stop offset="0.85" stop-color="#FF9A11"/>
<stop offset="1" stop-color="#FFA811"/>
</linearGradient>
<linearGradient id="paint2_linear_122_510" x1="12.0007" y1="14.2158" x2="12.0007" y2="6.97597" gradientUnits="userSpaceOnUse">
<stop stop-color="#FF6E11"/>
<stop offset="0.24" stop-color="#FF7311"/>
<stop offset="0.54" stop-color="#FF8211"/>
<stop offset="0.85" stop-color="#FF9A11"/>
<stop offset="1" stop-color="#FFA811"/>
</linearGradient>
<clipPath id="clip0_122_510">
<rect width="24" height="21.0995" fill="white"/>
</clipPath>
</defs>
</svg>
