<svg width="31" height="26" viewBox="0 0 31 26" fill="none" xmlns="http://www.w3.org/2000/svg">
<path opacity="0.51" d="M14.4227 2.24867L15.7139 4.86435C15.93 5.30849 16.2511 5.69328 16.6494 5.98543C17.0477 6.27758 17.5112 6.46829 17.9998 6.54106L20.8837 6.96024C21.4402 7.03908 21.9634 7.27229 22.394 7.63343C22.8247 7.99456 23.1455 8.46918 23.3201 9.0034C23.4947 9.53762 23.516 10.1101 23.3818 10.6558C23.2475 11.2016 22.963 11.6988 22.5604 12.091L20.4757 14.1198C20.1228 14.4633 19.859 14.8876 19.707 15.3561C19.5551 15.8245 19.5197 16.3229 19.6038 16.8082L20.0957 19.6809C20.1906 20.2342 20.1288 20.8029 19.9172 21.3229C19.7057 21.8428 19.3529 22.2931 18.8986 22.6229C18.4444 22.9526 17.9069 23.1487 17.347 23.1888C16.7872 23.2289 16.2272 23.1116 15.7306 22.8499L13.154 21.4974C12.7178 21.2687 12.2326 21.1493 11.74 21.1493C11.2475 21.1493 10.7623 21.2687 10.326 21.4974L7.74945 22.8499C7.25283 23.1116 6.69285 23.2289 6.13297 23.1888C5.57309 23.1487 5.03562 22.9526 4.58138 22.6229C4.12715 22.2931 3.77432 21.8428 3.56277 21.3229C3.35122 20.8029 3.28941 20.2342 3.38436 19.6809L3.8762 16.8082C3.95936 16.3229 3.92348 15.8248 3.77161 15.3565C3.61974 14.8882 3.35645 14.4639 3.00434 14.1198L0.908447 12.0966C0.50592 11.7044 0.221352 11.2072 0.0870765 10.6614C-0.0471993 10.1157 -0.0258301 9.54322 0.148753 9.00899C0.323335 8.47477 0.644137 8.00016 1.07478 7.63902C1.50543 7.27788 2.02869 7.04467 2.58516 6.96584L5.46907 6.54666C5.95763 6.47389 6.42116 6.28318 6.81946 5.99103C7.21776 5.69888 7.53888 5.31409 7.75504 4.86994L9.04048 2.25426C9.28936 1.75366 9.67285 1.33236 10.1479 1.03766C10.623 0.742961 11.1708 0.58652 11.7299 0.585939C12.2889 0.585359 12.8371 0.74064 13.3128 1.03435C13.7885 1.32807 14.1728 1.74859 14.4227 2.24867Z" fill="url(#paint0_linear_90_6769)"/>
<path d="M19.4194 3.56781L20.962 6.69211C21.1319 7.03653 21.3829 7.3345 21.6935 7.56038C22.004 7.78626 22.3649 7.93328 22.7449 7.98877L26.1934 8.48617C26.6261 8.54895 27.0325 8.73161 27.3668 9.01346C27.701 9.29531 27.9496 9.66511 28.0846 10.081C28.2195 10.4969 28.2354 10.9422 28.1303 11.3666C28.0252 11.791 27.8034 12.1775 27.49 12.4824L24.9973 14.8912C24.7216 15.1587 24.5153 15.4894 24.3965 15.8547C24.2777 16.2199 24.2498 16.6087 24.3154 16.9871L24.8744 20.4244C24.9474 20.8548 24.8986 21.2971 24.7336 21.7013C24.5686 22.1055 24.2939 22.4555 23.9405 22.7118C23.5871 22.9682 23.1691 23.1206 22.7336 23.1519C22.2982 23.1833 21.8626 23.0923 21.4762 22.8892L18.3966 21.2683C18.0527 21.0844 17.6688 20.9882 17.2788 20.9882C16.8888 20.9882 16.5048 21.0844 16.161 21.2683L13.0758 22.8892C12.6893 23.0923 12.2538 23.1833 11.8184 23.1519C11.3829 23.1206 10.9649 22.9682 10.6115 22.7118C10.2581 22.4555 9.98343 22.1055 9.81842 21.7013C9.65341 21.2971 9.60464 20.8548 9.67767 20.4244L10.2701 16.9871C10.3343 16.6087 10.3057 16.2203 10.187 15.8553C10.0682 15.4903 9.86277 15.1595 9.58823 14.8912L7.09553 12.46C6.78213 12.1552 6.56032 11.7686 6.45523 11.3442C6.35015 10.9198 6.366 10.4745 6.50094 10.0586C6.63588 9.64273 6.88457 9.27296 7.21881 8.99111C7.55306 8.70926 7.95947 8.5266 8.39216 8.46383L11.8406 7.96639C12.2206 7.9109 12.5815 7.76388 12.8921 7.538C13.2026 7.31213 13.4537 7.01415 13.6236 6.66973L15.1662 3.54547C15.3557 3.14007 15.6573 2.79744 16.0355 2.55817C16.4137 2.3189 16.8524 2.19299 17.2999 2.19534C17.7474 2.1977 18.1848 2.32821 18.5605 2.57144C18.9361 2.81467 19.2342 3.16044 19.4194 3.56781Z" fill="white"/>
<path d="M17.3179 2.25803C17.7561 2.25468 18.1861 2.37579 18.5582 2.60732C18.9302 2.83884 19.2289 3.17125 19.4194 3.56585L20.962 6.69015C21.1318 7.03457 21.3828 7.33255 21.6934 7.55843C22.004 7.78431 22.3648 7.93133 22.7448 7.98682L26.1933 8.48422C26.626 8.54699 27.0325 8.72965 27.3667 9.0115C27.701 9.29335 27.9496 9.66316 28.0845 10.079C28.2195 10.4949 28.2353 10.9402 28.1302 11.3646C28.0251 11.789 27.8033 12.1755 27.4899 12.4804L24.9972 14.8893C24.7215 15.1567 24.5153 15.4874 24.3964 15.8527C24.2776 16.218 24.2498 16.6067 24.3154 16.9852L24.8743 20.4225C24.9321 20.7587 24.9157 21.1035 24.8263 21.4327C24.737 21.7619 24.5768 22.0677 24.3569 22.3285C24.1371 22.5894 23.8629 22.799 23.5535 22.9428C23.2442 23.0866 22.9072 23.1611 22.566 23.1611C22.1857 23.1607 21.8114 23.0667 21.4761 22.8872L18.3965 21.2664C18.0518 21.0853 17.6682 20.9906 17.2787 20.9906C16.8893 20.9906 16.5057 21.0853 16.1609 21.2664L13.0757 22.8872C12.7323 23.0717 12.3477 23.1659 11.9579 23.1611C11.6171 23.1602 11.2805 23.085 10.9716 22.9409C10.6628 22.7968 10.389 22.5872 10.1694 22.3265C9.94972 22.0659 9.78939 21.7606 9.69965 21.4318C9.6099 21.1029 9.59283 20.7585 9.64964 20.4225L10.2421 16.9852C10.3063 16.6067 10.2778 16.2184 10.159 15.8534C10.0403 15.4883 9.8348 15.1576 9.56026 14.8893L7.0675 12.4581C6.7541 12.1532 6.53235 11.7667 6.42727 11.3423C6.32218 10.9179 6.33797 10.4725 6.47291 10.0567C6.60785 9.64078 6.85653 9.27101 7.19078 8.98916C7.52503 8.70731 7.93151 8.52465 8.3642 8.46187L11.8127 7.96444C12.1927 7.90895 12.5534 7.76193 12.864 7.53605C13.1746 7.31017 13.4257 7.0122 13.5955 6.66777L15.1381 3.54351C15.3277 3.14934 15.6253 2.81713 15.9964 2.58559C16.3675 2.35404 16.7967 2.23269 17.234 2.23566M17.234 3.27193e-05C16.3792 -0.00321069 15.5408 0.234742 14.8151 0.686555C14.0895 1.13837 13.506 1.78572 13.1317 2.55424L11.5891 5.67853C11.5798 5.69815 11.5657 5.71509 11.5481 5.72779C11.5305 5.7405 11.51 5.74856 11.4885 5.75119L8.04006 6.25419C7.19128 6.37452 6.39331 6.7308 5.73709 7.28242C5.08088 7.83404 4.59274 8.55886 4.3283 9.37433C4.06386 10.1898 4.03377 11.0631 4.24138 11.8949C4.44899 12.7266 4.88597 13.4833 5.5026 14.0789L8.00089 16.5101C8.01565 16.5256 8.02681 16.5441 8.03357 16.5644C8.04034 16.5847 8.04257 16.6062 8.04006 16.6275L7.44758 20.0592C7.33541 20.7162 7.36788 21.3897 7.54276 22.0329C7.71763 22.6761 8.03071 23.2733 8.46012 23.7831C8.88953 24.2929 9.42493 24.7028 10.029 24.9844C10.6332 25.266 11.2914 25.4124 11.9579 25.4135C12.7043 25.4021 13.4368 25.2103 14.093 24.8546L17.1726 23.2337H17.234H17.2955L20.3807 24.8546C21.0338 25.2128 21.7651 25.4048 22.5101 25.4135C23.1769 25.4134 23.8356 25.2676 24.4402 24.9863C25.0448 24.7051 25.5807 24.2951 26.0103 23.7851C26.4399 23.2751 26.7529 22.6774 26.9273 22.0338C27.1018 21.3902 27.1336 20.7163 27.0205 20.0592L26.4336 16.6275C26.4302 16.6054 26.432 16.5828 26.4388 16.5614C26.4456 16.5401 26.4572 16.5206 26.4728 16.5045L28.9655 14.0789C29.5821 13.4833 30.0191 12.7266 30.2267 11.8949C30.4343 11.0631 30.4042 10.1898 30.1398 9.37433C29.8753 8.55886 29.3872 7.83404 28.731 7.28242C28.0747 6.7308 27.2768 6.37452 26.428 6.25419L22.9852 5.75119C22.9636 5.74856 22.9431 5.7405 22.9255 5.72779C22.9079 5.71509 22.8938 5.69815 22.8846 5.67853L21.4202 2.59336C21.0444 1.82482 20.4599 1.17764 19.7333 0.725921C19.0068 0.274198 18.1678 0.0361836 17.3123 0.0391602L17.234 3.27193e-05Z" fill="url(#paint1_linear_90_6769)"/>
<path opacity="0.51" d="M18.4802 7.65812L19.3354 9.38516C19.428 9.5765 19.5661 9.74224 19.7376 9.86792C19.909 9.9936 20.1087 10.0754 20.3191 10.1061L22.2249 10.38C22.4703 10.4096 22.7021 10.5091 22.8927 10.6665C23.0832 10.824 23.2246 11.0329 23.2999 11.2683C23.3753 11.5037 23.3814 11.7558 23.3177 11.9947C23.2539 12.2335 23.1229 12.449 22.9403 12.6156L21.5654 13.9626C21.4134 14.1104 21.2994 14.2929 21.2332 14.4943C21.167 14.6958 21.1506 14.9103 21.1853 15.1195L21.5151 17.0198C21.5556 17.2583 21.5285 17.5034 21.437 17.7273C21.3455 17.9513 21.1931 18.1451 20.9972 18.287C20.8012 18.4289 20.5695 18.5131 20.3281 18.5301C20.0868 18.5472 19.8456 18.4964 19.6316 18.3835L17.9549 17.4893C17.7671 17.3904 17.5579 17.3387 17.3456 17.3387C17.1334 17.3387 16.9243 17.3904 16.7365 17.4893L15.0597 18.3835C14.8461 18.4972 14.6049 18.5485 14.3636 18.5317C14.1222 18.5149 13.8904 18.4306 13.6947 18.2884C13.4989 18.1463 13.3471 17.9519 13.2564 17.7276C13.1657 17.5033 13.1399 17.2581 13.1818 17.0198L13.506 15.1195C13.5419 14.9107 13.5266 14.6964 13.4614 14.4949C13.3962 14.2934 13.283 14.1107 13.1315 13.9626L11.751 12.6156C11.5705 12.4476 11.4417 12.2317 11.3796 11.9931C11.3175 11.7545 11.3247 11.5031 11.4004 11.2685C11.4761 11.0338 11.6171 10.8256 11.8069 10.6682C11.9967 10.5108 12.2274 10.4109 12.472 10.38L14.3779 10.1061C14.5882 10.0754 14.7878 9.9936 14.9593 9.86792C15.1308 9.74224 15.2689 9.5765 15.3616 9.38516L16.2166 7.65812C16.328 7.45531 16.4918 7.28613 16.6909 7.1683C16.89 7.05046 17.1171 6.98828 17.3484 6.98828C17.5798 6.98828 17.8069 7.05046 18.006 7.1683C18.2051 7.28613 18.3689 7.45531 18.4802 7.65812Z" fill="url(#paint2_linear_90_6769)"/>
<defs>
<linearGradient id="paint0_linear_90_6769" x1="-0.00818317" y1="11.8786" x2="23.4602" y2="11.8786" gradientUnits="userSpaceOnUse">
<stop stop-color="#FF6E11"/>
<stop offset="0.24" stop-color="#FF7311"/>
<stop offset="0.54" stop-color="#FF8211"/>
<stop offset="0.85" stop-color="#FF9A11"/>
<stop offset="1" stop-color="#FFA811"/>
</linearGradient>
<linearGradient id="paint1_linear_90_6769" x1="4.20035" y1="12.7207" x2="30.4354" y2="12.7207" gradientUnits="userSpaceOnUse">
<stop stop-color="#FF6E11"/>
<stop offset="0.24" stop-color="#FF7311"/>
<stop offset="0.54" stop-color="#FF8211"/>
<stop offset="0.85" stop-color="#FF9A11"/>
<stop offset="1" stop-color="#FFA811"/>
</linearGradient>
<linearGradient id="paint2_linear_90_6769" x1="11.3039" y1="12.7218" x2="23.3372" y2="12.7218" gradientUnits="userSpaceOnUse">
<stop stop-color="#FF6E11"/>
<stop offset="0.24" stop-color="#FF7311"/>
<stop offset="0.54" stop-color="#FF8211"/>
<stop offset="0.85" stop-color="#FF9A11"/>
<stop offset="1" stop-color="#FFA811"/>
</linearGradient>
</defs>
</svg>
