<svg width="526" height="224" viewBox="0 0 526 224" fill="none" xmlns="http://www.w3.org/2000/svg">
<path d="M411.392 56.713H115.877C85.5164 56.713 60.9043 81.3226 60.9043 111.68C60.9043 142.038 85.5164 166.647 115.877 166.647H411.392C441.753 166.647 466.365 142.038 466.365 111.68C466.365 81.3226 441.753 56.713 411.392 56.713Z" fill="url(#paint0_linear_344_2405)"/>
<path opacity="0.72" d="M411.966 182.849H115.283C96.4091 182.849 78.3083 175.352 64.9625 162.006C51.6167 148.66 44.1191 130.559 44.1191 111.686C44.1191 92.8118 51.6167 74.711 64.9625 61.3652C78.3083 48.0194 96.4091 40.5218 115.283 40.5218H411.966C430.84 40.5218 448.94 48.0194 462.286 61.3652C475.632 74.711 483.13 92.8118 483.13 111.686C483.13 130.559 475.632 148.66 462.286 162.006C448.94 175.352 430.84 182.849 411.966 182.849ZM115.283 48.0887C98.5624 48.3087 82.6013 55.1054 70.8551 67.0072C59.1089 78.9089 52.5229 94.9581 52.5229 111.68C52.5229 128.402 59.1089 144.451 70.8551 156.353C82.6013 168.255 98.5624 175.051 115.283 175.272H411.966C428.686 175.051 444.647 168.255 456.394 156.353C468.14 144.451 474.726 128.402 474.726 111.68C474.726 94.9581 468.14 78.9089 456.394 67.0072C444.647 55.1054 428.686 48.3087 411.966 48.0887H115.283Z" fill="url(#paint1_linear_344_2405)"/>
<g opacity="0.7">
<path opacity="0.54" d="M410.005 198.743H116.715C93.8404 198.486 71.9904 189.218 55.9061 172.952C39.8217 156.685 30.8008 134.732 30.8008 111.856C30.8008 88.9805 39.8217 67.0275 55.9061 50.7611C71.9904 34.4946 93.8404 25.2271 116.715 24.9696H410.005C421.498 24.8402 432.902 26.992 443.557 31.3005C454.212 35.6089 463.906 41.9883 472.079 50.0693C480.251 58.1503 486.74 67.7724 491.168 78.3783C495.596 88.9842 497.876 100.363 497.876 111.856C497.876 123.35 495.596 134.729 491.168 145.334C486.74 155.94 480.251 165.562 472.079 173.643C463.906 181.724 454.212 188.104 443.557 192.412C432.902 196.721 421.498 198.873 410.005 198.743ZM116.715 29.2652C94.8059 29.2652 73.7943 37.9685 58.3023 53.4604C42.8104 68.9524 34.1071 89.964 34.1071 111.873C34.1071 133.782 42.8104 154.793 58.3023 170.285C73.7943 185.777 94.8059 194.481 116.715 194.481H410.005C431.914 194.481 452.926 185.777 468.418 170.285C483.91 154.793 492.613 133.782 492.613 111.873C492.613 89.964 483.91 68.9524 468.418 53.4604C452.926 37.9685 431.914 29.2652 410.005 29.2652H116.715Z" fill="url(#paint2_linear_344_2405)"/>
</g>
<g opacity="0.3">
<path opacity="0.82" d="M410.468 212.401H116.209C89.7249 212.124 64.4199 201.409 45.7903 182.583C27.1606 163.757 16.7109 138.342 16.7109 111.856C16.7109 85.3711 27.1606 59.9554 45.7903 41.1297C64.4199 22.3041 89.7249 11.589 116.209 11.3118H410.468C436.952 11.589 462.257 22.3041 480.887 41.1297C499.516 59.9554 509.966 85.3711 509.966 111.856C509.966 138.342 499.516 163.757 480.887 182.583C462.257 201.409 436.952 212.124 410.468 212.401ZM116.209 13.5146C90.3071 13.7888 65.5595 24.2704 47.3405 42.6833C29.1214 61.0961 18.9022 85.9533 18.9022 111.856C18.9022 137.759 29.1214 162.617 47.3405 181.029C65.5595 199.442 90.3071 209.924 116.209 210.198H410.468C436.37 209.924 461.118 199.442 479.337 181.029C497.556 162.617 507.775 137.759 507.775 111.856C507.775 85.9533 497.556 61.0961 479.337 42.6833C461.118 24.2704 436.37 13.7888 410.468 13.5146H116.209Z" fill="url(#paint3_linear_344_2405)"/>
</g>
<g opacity="0.1">
<path opacity="0.89" d="M415.106 223.801H111.616C82.1305 223.508 53.952 211.59 33.2053 190.636C12.4585 169.683 0.820312 141.387 0.820312 111.9C0.820312 82.4135 12.4585 54.1181 33.2053 33.1645C53.952 12.2109 82.1305 0.292535 111.616 0H415.106C444.591 0.292535 472.77 12.2109 493.517 33.1645C514.263 54.1181 525.902 82.4135 525.902 111.9C525.902 141.387 514.263 169.683 493.517 190.636C472.77 211.59 444.591 223.508 415.106 223.801ZM111.616 1.0574C82.4217 1.34849 54.522 13.1501 33.9806 33.8973C13.4392 54.6446 1.9163 82.6605 1.9163 111.856C1.9163 141.052 13.4392 169.068 33.9806 189.815C54.522 210.563 82.4217 222.364 111.616 222.655H415.106C444.3 222.364 472.2 210.563 492.741 189.815C513.283 169.068 524.806 141.052 524.806 111.856C524.806 82.6605 513.283 54.6446 492.741 33.8973C472.2 13.1501 444.3 1.34849 415.106 1.0574H111.616Z" fill="url(#paint4_linear_344_2405)"/>
</g>
<g filter="url(#filter0_d_344_2405)">
<path d="M113.432 116.962C113.192 116.963 112.955 116.917 112.733 116.826C112.511 116.736 112.31 116.602 112.14 116.433C111.97 116.264 111.835 116.064 111.743 115.842C111.651 115.621 111.604 115.384 111.604 115.144V82.6189C111.604 82.3793 111.651 82.1421 111.743 81.9209C111.835 81.6996 111.97 81.4988 112.14 81.3299C112.31 81.161 112.511 81.0273 112.733 80.9367C112.955 80.846 113.192 80.8 113.432 80.8015H126.231C129.263 80.7346 132.207 81.8301 134.458 83.8635C135.577 84.8479 136.467 86.0646 137.066 87.4286C137.665 88.7927 137.959 90.2712 137.928 91.7608C137.968 94.0226 137.234 96.2302 135.846 98.0169C136.927 98.9824 137.783 100.173 138.354 101.505C138.925 102.837 139.197 104.278 139.15 105.727C139.188 107.255 138.892 108.773 138.283 110.174C137.675 111.576 136.768 112.829 135.626 113.845C133.323 115.922 130.311 117.038 127.211 116.962H113.432ZM127.2 107.335C127.732 107.335 128.241 107.124 128.617 106.748C128.993 106.372 129.204 105.862 129.204 105.33C129.204 104.799 128.993 104.289 128.617 103.913C128.241 103.537 127.732 103.326 127.2 103.326H121.693V107.335H127.2ZM126.231 93.9857C126.459 93.9928 126.687 93.9513 126.899 93.8639C127.111 93.7765 127.301 93.6452 127.459 93.4787C127.616 93.3121 127.736 93.1141 127.811 92.8977C127.886 92.6813 127.914 92.4515 127.894 92.2234C127.914 91.9957 127.886 91.7664 127.811 91.5506C127.736 91.3347 127.616 91.1373 127.458 90.9716C127.301 90.8059 127.11 90.6756 126.898 90.5895C126.687 90.5034 126.459 90.4634 126.231 90.4721H121.649V93.9857H126.231Z" fill="url(#paint5_linear_344_2405)"/>
<path d="M162.358 116.961C161.977 116.963 161.604 116.844 161.296 116.62C160.987 116.396 160.757 116.08 160.64 115.717L159.098 111.113H148.788L147.246 115.717C147.129 116.08 146.9 116.396 146.591 116.62C146.282 116.844 145.91 116.963 145.528 116.961H138.611C138.32 116.962 138.033 116.893 137.774 116.76C137.515 116.626 137.292 116.433 137.124 116.195C136.956 115.958 136.847 115.683 136.806 115.395C136.766 115.106 136.796 114.813 136.893 114.538L148.26 82.0678C148.271 82.0247 148.29 81.9838 148.315 81.9467H146.409C146.073 81.9469 145.743 81.8532 145.457 81.6761C145.171 81.499 144.94 81.2456 144.79 80.9443C144.633 80.6471 144.563 80.3116 144.589 79.9765C144.614 79.6413 144.734 79.3201 144.933 79.0499L149.482 72.7937C149.649 72.5612 149.869 72.3718 150.124 72.2415C150.379 72.1112 150.661 72.0437 150.947 72.0447H156.609C156.894 72.0442 157.175 72.1108 157.429 72.239C157.684 72.3672 157.904 72.5535 158.074 72.7827L158.47 73.3114L161.213 68.6633C161.374 68.3923 161.603 68.1677 161.877 68.0114C162.151 67.855 162.461 67.7723 162.777 67.7712H169.462C169.806 67.7714 170.142 67.8688 170.432 68.0523C170.723 68.2357 170.955 68.4976 171.102 68.8077C171.25 69.1177 171.307 69.4632 171.266 69.8041C171.225 70.145 171.089 70.4675 170.872 70.734L166.092 76.6267C165.923 76.8376 165.708 77.0076 165.464 77.124C165.22 77.2403 164.953 77.3 164.682 77.2986H161.378L162.656 79.0499C162.857 79.319 162.979 79.6397 163.006 79.9748C163.033 80.31 162.965 80.6461 162.81 80.9443C162.658 81.244 162.427 81.4961 162.141 81.6729C161.855 81.8497 161.527 81.9444 161.191 81.9467H159.561C159.567 81.9868 159.567 82.0276 159.561 82.0678L170.971 114.538C171.068 114.813 171.098 115.106 171.058 115.395C171.018 115.683 170.909 115.958 170.741 116.195C170.572 116.433 170.349 116.626 170.09 116.76C169.831 116.893 169.544 116.962 169.253 116.961H162.358ZM155.893 101.541L153.965 95.8137L152.049 101.541H155.893ZM153.987 80.9003L153.811 80.6249L153.624 80.9003H153.987Z" fill="url(#paint6_linear_344_2405)"/>
<path d="M197.891 116.961C197.409 116.961 196.946 116.77 196.606 116.429C196.265 116.088 196.073 115.626 196.073 115.144V100.539L190.313 110.044C190.151 110.314 189.921 110.537 189.647 110.692C189.373 110.846 189.063 110.927 188.749 110.926H187.978C187.665 110.926 187.357 110.845 187.085 110.69C186.812 110.536 186.585 110.313 186.425 110.044L180.664 100.572V115.089C180.664 115.329 180.617 115.566 180.525 115.787C180.433 116.008 180.298 116.209 180.128 116.378C179.958 116.547 179.756 116.681 179.535 116.771C179.313 116.862 179.075 116.908 178.836 116.906H172.437C171.955 116.906 171.492 116.715 171.151 116.374C170.811 116.033 170.619 115.571 170.619 115.089V82.6187C170.619 82.1367 170.811 81.6744 171.151 81.3336C171.492 80.9928 171.955 80.8013 172.437 80.8013H179.045C179.357 80.801 179.664 80.8809 179.935 81.0333C180.207 81.1856 180.436 81.4054 180.598 81.6715L188.363 94.4592L196.073 81.6825C196.232 81.4121 196.459 81.1883 196.732 81.0337C197.004 80.879 197.313 80.7988 197.626 80.8013H204.235C204.717 80.8013 205.179 80.9928 205.52 81.3336C205.861 81.6744 206.052 82.1367 206.052 82.6187V115.089C206.052 115.571 205.861 116.033 205.52 116.374C205.179 116.715 204.717 116.906 204.235 116.906L197.891 116.961Z" fill="url(#paint7_linear_344_2405)"/>
<path d="M229.887 116.962C229.505 116.964 229.133 116.844 228.824 116.62C228.515 116.397 228.286 116.08 228.169 115.717L217.265 83.2468C217.174 82.9733 217.149 82.6821 217.193 82.3973C217.237 82.1125 217.348 81.8422 217.517 81.6088C217.686 81.3753 217.908 81.1853 218.165 81.0545C218.421 80.9238 218.706 80.8559 218.994 80.8566H225.944C226.331 80.8549 226.709 80.9768 227.022 81.2047C227.335 81.4325 227.567 81.7543 227.684 82.1233L233.874 101.542L240.031 82.0572C240.146 81.6891 240.376 81.3676 240.688 81.1397C240.999 80.9117 241.375 80.7894 241.76 80.7905H248.766C249.055 80.7892 249.341 80.8572 249.599 80.9885C249.857 81.1199 250.079 81.3109 250.249 81.5458C250.418 81.7807 250.528 82.0526 250.571 82.3389C250.614 82.6252 250.588 82.9176 250.495 83.1917L239.547 115.662C239.423 116.022 239.189 116.335 238.879 116.556C238.569 116.777 238.198 116.896 237.817 116.896L229.887 116.962Z" fill="url(#paint8_linear_344_2405)"/>
<path d="M269.263 116.962C268.882 116.964 268.509 116.844 268.2 116.62C267.891 116.397 267.662 116.08 267.545 115.717L266.003 111.113H255.693L254.151 115.717C254.034 116.08 253.805 116.397 253.496 116.62C253.187 116.844 252.815 116.964 252.433 116.962H245.516C245.226 116.96 244.94 116.891 244.682 116.759C244.424 116.627 244.2 116.436 244.029 116.202C243.865 115.961 243.759 115.686 243.719 115.397C243.679 115.109 243.706 114.815 243.798 114.539L255.165 82.0132C255.29 81.6581 255.523 81.3507 255.831 81.1337C256.139 80.9166 256.506 80.8006 256.883 80.8016H257.478L252.356 74.4904C252.14 74.2219 252.005 73.898 251.965 73.5559C251.925 73.2138 251.983 72.8674 252.131 72.5567C252.28 72.2459 252.513 71.9834 252.804 71.7994C253.095 71.6153 253.432 71.5173 253.777 71.5165H260.969C261.286 71.5187 261.596 71.6031 261.871 71.7615C262.145 71.9198 262.373 72.1466 262.533 72.4197L266.245 78.775C266.405 79.0533 266.488 79.3684 266.488 79.6891C266.488 80.0098 266.405 80.325 266.245 80.6033C266.133 80.7961 265.987 80.9676 265.816 81.11C266.142 81.3266 266.39 81.6436 266.521 82.0132L277.931 114.484C278.028 114.758 278.058 115.052 278.018 115.34C277.978 115.629 277.869 115.903 277.7 116.141C277.532 116.378 277.309 116.572 277.05 116.705C276.791 116.838 276.504 116.907 276.213 116.907L269.263 116.962ZM262.798 101.542L260.87 95.8142L258.954 101.542H262.798Z" fill="url(#paint9_linear_344_2405)"/>
<path d="M293.573 117.556C291.109 117.584 288.664 117.119 286.384 116.187C284.103 115.255 282.032 113.876 280.293 112.131C278.554 110.386 277.182 108.31 276.258 106.025C275.334 103.741 274.877 101.295 274.914 98.8318C274.914 95.1256 276.014 91.5029 278.074 88.4223C280.135 85.3416 283.063 82.9417 286.488 81.5265C289.914 80.1112 293.682 79.7443 297.316 80.4721C300.95 81.2 304.286 82.99 306.902 85.6152C309.518 88.2405 311.296 91.583 312.011 95.2195C312.726 98.856 312.346 102.623 310.919 106.043C309.491 109.463 307.081 112.383 303.993 114.433C300.905 116.482 297.279 117.569 293.573 117.556ZM293.573 90.0203C292.426 89.9856 291.286 90.1889 290.222 90.6173C289.159 91.0458 288.195 91.6901 287.393 92.5096C285.793 94.2432 284.904 96.5162 284.904 98.8759C284.904 101.236 285.793 103.509 287.393 105.242C289.071 106.805 291.279 107.674 293.573 107.674C295.866 107.674 298.074 106.805 299.752 105.242C301.352 103.509 302.241 101.236 302.241 98.8759C302.241 96.5162 301.352 94.2432 299.752 92.5096C298.952 91.6861 297.989 91.0377 296.926 90.6054C295.862 90.1732 294.72 89.9664 293.573 89.9983V90.0203Z" fill="url(#paint10_linear_344_2405)"/>
<path d="M328.167 116.962C327.685 116.962 327.223 116.77 326.882 116.429C326.541 116.089 326.35 115.626 326.35 115.144V103.744H325.436C325.196 103.746 324.959 103.7 324.737 103.609C324.515 103.519 324.314 103.385 324.144 103.216C323.974 103.047 323.839 102.846 323.747 102.625C323.655 102.404 323.607 102.167 323.607 101.927V96.5962C323.607 96.1113 323.8 95.6462 324.143 95.3033C324.486 94.9604 324.951 94.7678 325.436 94.7678H326.35V82.6189C326.35 82.137 326.541 81.6747 326.882 81.3338C327.223 80.993 327.685 80.8016 328.167 80.8016H341.076C343.402 80.7537 345.713 81.1957 347.857 82.099C350.001 83.0022 351.932 84.3465 353.522 86.0444C356.74 89.5364 358.526 94.1111 358.526 98.8596C358.526 103.608 356.74 108.183 353.522 111.675C351.938 113.384 350.01 114.739 347.865 115.65C345.72 116.561 343.406 117.008 341.076 116.962H328.167ZM341.076 107.148C342.097 107.189 343.116 107.013 344.065 106.634C345.014 106.254 345.872 105.679 346.583 104.945C348.061 103.274 348.827 101.093 348.72 98.8651C348.778 97.7696 348.62 96.6734 348.253 95.6395C347.886 94.6055 347.319 93.6542 346.583 92.8402C345.883 92.0877 345.028 91.4955 344.078 91.1039C343.127 90.7122 342.103 90.5306 341.076 90.5713H336.406V94.8119H341.164C341.649 94.8119 342.114 95.0045 342.457 95.3474C342.8 95.6903 342.993 96.1553 342.993 96.6402V101.971C342.993 102.211 342.945 102.448 342.853 102.669C342.761 102.89 342.626 103.091 342.456 103.26C342.287 103.429 342.085 103.563 341.863 103.653C341.641 103.744 341.404 103.79 341.164 103.789H336.406V107.159L341.076 107.148Z" fill="url(#paint11_linear_344_2405)"/>
<path d="M380.948 116.962C380.567 116.964 380.194 116.844 379.885 116.62C379.577 116.396 379.347 116.08 379.23 115.717L377.688 111.113H367.378L365.836 115.717C365.719 116.08 365.49 116.396 365.181 116.62C364.872 116.844 364.5 116.964 364.118 116.962H357.201C356.911 116.96 356.625 116.891 356.367 116.759C356.109 116.627 355.885 116.436 355.714 116.202C355.546 115.963 355.437 115.687 355.396 115.398C355.356 115.109 355.386 114.814 355.483 114.538L366.85 82.0681C366.861 82.0249 366.88 81.984 366.905 81.9469H364.438C364.103 81.9435 363.775 81.8481 363.491 81.6712C363.206 81.4943 362.976 81.2426 362.825 80.9437C362.674 80.6448 362.607 80.3101 362.634 79.9762C362.66 79.6423 362.777 79.3219 362.973 79.0501L367.885 72.3203C368.056 72.0895 368.278 71.9016 368.535 71.7716C368.791 71.6416 369.074 71.5731 369.361 71.5714H375.43C375.717 71.5739 376 71.6429 376.256 71.7728C376.512 71.9028 376.734 72.0901 376.906 72.3203L381.818 79.0501C382.014 79.3219 382.131 79.6423 382.157 79.9762C382.183 80.3101 382.117 80.6448 381.966 80.9437C381.815 81.2426 381.585 81.4943 381.3 81.6712C381.016 81.8481 380.688 81.9435 380.353 81.9469H378.15C378.175 81.984 378.194 82.0249 378.206 82.0681L389.616 114.538C389.713 114.813 389.743 115.107 389.703 115.395C389.663 115.683 389.554 115.958 389.385 116.195C389.217 116.433 388.994 116.626 388.735 116.76C388.476 116.893 388.189 116.962 387.898 116.962H380.948ZM374.483 101.541L372.555 95.814L370.628 101.541H374.483ZM372.709 80.9005L372.401 80.4269L372.082 80.9005H372.709Z" fill="url(#paint12_linear_344_2405)"/>
<path d="M399.277 116.961C399.037 116.963 398.8 116.917 398.578 116.826C398.356 116.736 398.155 116.602 397.985 116.433C397.815 116.264 397.68 116.063 397.588 115.842C397.496 115.621 397.448 115.384 397.448 115.144V102.896L386.599 83.5108C386.443 83.2341 386.363 82.9213 386.365 82.6037C386.368 82.2861 386.454 81.9747 386.614 81.7006C386.775 81.4264 387.004 81.1991 387.28 81.0413C387.556 80.8836 387.868 80.8008 388.185 80.8013H395.422C395.756 80.8002 396.083 80.8911 396.369 81.064C396.655 81.2369 396.887 81.4852 397.041 81.7816L402.471 92.2232L407.912 81.7816C408.064 81.4861 408.295 81.2382 408.578 81.0653C408.862 80.8923 409.188 80.801 409.52 80.8013H416.757C417.075 80.8005 417.389 80.8836 417.665 81.0421C417.941 81.2006 418.171 81.429 418.332 81.7045C418.491 81.9787 418.575 82.2903 418.575 82.6077C418.575 82.925 418.491 83.2366 418.332 83.5108L407.438 102.896V115.089C407.438 115.571 407.247 116.033 406.906 116.374C406.565 116.715 406.103 116.906 405.621 116.906L399.277 116.961Z" fill="url(#paint13_linear_344_2405)"/>
<path d="M137.31 105.672C137.341 106.945 137.094 108.211 136.589 109.38C136.083 110.549 135.329 111.595 134.38 112.445C132.409 114.214 129.835 115.16 127.188 115.089H113.42V82.6185H126.219C128.801 82.5531 131.309 83.4839 133.224 85.2179C134.153 86.0316 134.891 87.0393 135.388 88.1698C135.885 89.3003 136.127 90.526 136.098 91.7604C136.136 93.0067 135.879 94.2443 135.347 95.3719C134.814 96.4995 134.023 97.4851 133.036 98.2479C134.374 98.9588 135.485 100.032 136.241 101.345C136.997 102.658 137.367 104.158 137.31 105.672ZM119.819 88.5993V95.7476H126.219C127.132 95.6969 127.992 95.2982 128.621 94.6335C129.249 93.9688 129.6 93.0885 129.6 92.1735C129.6 91.2584 129.249 90.3782 128.621 89.7135C127.992 89.0487 127.132 88.65 126.219 88.5993H119.819ZM127.188 109.108C128.21 109.108 129.191 108.702 129.914 107.979C130.637 107.256 131.043 106.275 131.043 105.253C131.043 104.231 130.637 103.25 129.914 102.527C129.191 101.804 128.21 101.398 127.188 101.398H119.819V109.108H127.188Z" fill="#FFF200"/>
<path d="M162.358 115.089L160.442 109.251H147.478L145.528 115.1H138.611L149.978 82.6297H157.909L169.319 115.1L162.358 115.089ZM153.833 77.2326L151.928 80.0633H146.421L150.958 73.8071H156.62L161.213 80.0633H155.706L153.833 77.2326ZM149.516 103.26H158.415L154.009 90.0423L149.516 103.26ZM162.733 69.5336H169.419L164.638 75.4262H159.34L162.733 69.5336Z" fill="#FFF200"/>
<path d="M204.245 82.6185V115.089H197.89V94.0294L188.748 109.108H187.977L178.835 94.0734V115.089H172.436V82.6185H179.044L188.373 97.9726L197.647 82.6185H204.245Z" fill="#FFF200"/>
<path d="M229.887 115.089L218.994 82.6185H225.944L233.875 107.577L241.761 82.6185H248.766L237.818 115.089H229.887Z" fill="#FFF200"/>
<path d="M269.263 115.089L267.28 109.251H254.382L252.433 115.1H245.516L256.882 82.6296H264.813L276.224 115.1L269.263 115.089ZM264.681 79.6997H258.92L253.776 73.3445H260.969L264.681 79.6997ZM256.42 103.259H265.33L260.87 90.0422L256.42 103.259Z" fill="#FFF200"/>
<path d="M293.572 115.739C290.239 115.716 286.987 114.711 284.222 112.85C281.457 110.99 279.301 108.356 278.023 105.277C276.746 102.199 276.404 98.8124 277.04 95.5408C277.676 92.2691 279.262 89.2573 281.599 86.8814C284.803 83.8148 289.08 82.1256 293.514 82.1759C297.948 82.2262 302.186 84.0121 305.319 87.1506C308.452 90.2892 310.23 94.5303 310.272 98.9646C310.314 103.399 308.617 107.673 305.545 110.871C303.979 112.445 302.111 113.688 300.054 114.524C297.997 115.361 295.792 115.774 293.572 115.739ZM293.572 109.472C294.953 109.513 296.328 109.272 297.612 108.762C298.896 108.253 300.063 107.486 301.04 106.509C302.98 104.432 304.059 101.696 304.059 98.854C304.059 96.0119 302.98 93.2757 301.04 91.199C299.036 89.2635 296.358 88.1818 293.572 88.1818C290.786 88.1818 288.108 89.2635 286.104 91.199C284.164 93.2757 283.084 96.0119 283.084 98.854C283.084 101.696 284.164 104.432 286.104 106.509C287.081 107.486 288.248 108.253 289.532 108.762C290.816 109.272 292.191 109.513 293.572 109.472Z" fill="#FFF200"/>
<path d="M341.076 82.619C343.157 82.5725 345.224 82.9654 347.143 83.772C349.062 84.5786 350.789 85.7808 352.211 87.3001C355.107 90.4556 356.714 94.5825 356.714 98.8652C356.714 103.148 355.107 107.275 352.211 110.43C350.787 111.946 349.059 113.144 347.14 113.946C345.222 114.749 343.155 115.139 341.076 115.089H328.167V101.96H325.436V96.6292H328.167V82.619H341.076ZM341.076 108.965C342.352 109.015 343.624 108.792 344.807 108.312C345.991 107.831 347.058 107.104 347.938 106.179C349.746 104.179 350.695 101.548 350.581 98.8541C350.641 97.5264 350.439 96.1998 349.985 94.9504C349.532 93.7011 348.836 92.5536 347.938 91.5737C347.067 90.634 346.002 89.8944 344.817 89.4057C343.633 88.917 342.356 88.6909 341.076 88.743H334.577V96.6292H341.186V101.96H334.577V108.965H341.076Z" fill="#FFF200"/>
<path d="M380.948 115.089L379.01 109.251H366.068L364.118 115.1H357.201L368.612 82.6186H376.542L387.953 115.089H380.948ZM372.412 77.0453L370.374 80.0632H364.438L369.361 73.3445H375.43L380.353 80.0632H374.417L372.412 77.0453ZM368.105 103.259H377.005L372.599 90.0422L368.105 103.259Z" fill="#FFF200"/>
<path d="M416.757 82.6185L405.632 102.444V115.111H399.277V102.422L388.186 82.5964H395.422L402.471 96.1441L409.52 82.5964L416.757 82.6185Z" fill="#FFF200"/>
</g>
<path d="M157.457 133.009V134.232H156.179V145.125H154.516V143.473C154.135 144.083 153.598 144.579 152.961 144.912C152.324 145.245 151.61 145.402 150.892 145.368C150.251 145.378 149.615 145.254 149.025 145.004C148.435 144.754 147.904 144.382 147.467 143.914C146.561 142.946 146.057 141.67 146.057 140.345C146.057 139.02 146.561 137.744 147.467 136.776C147.905 136.309 148.436 135.937 149.026 135.685C149.615 135.433 150.251 135.305 150.892 135.311C151.61 135.277 152.324 135.434 152.961 135.767C153.598 136.1 154.135 136.596 154.516 137.206V134.232H151.212V133.009H154.516V131.732H156.179V133.009H157.457ZM153.536 142.79C153.856 142.468 154.107 142.084 154.276 141.662C154.444 141.24 154.526 140.788 154.516 140.334C154.526 139.885 154.444 139.438 154.276 139.021C154.107 138.605 153.855 138.227 153.536 137.911C152.891 137.277 152.023 136.921 151.118 136.921C150.213 136.921 149.345 137.277 148.7 137.911C148.381 138.227 148.129 138.605 147.96 139.021C147.792 139.438 147.71 139.885 147.72 140.334C147.71 140.788 147.792 141.24 147.96 141.662C148.129 142.084 148.38 142.468 148.7 142.79C149.352 143.412 150.218 143.758 151.118 143.758C152.018 143.758 152.884 143.412 153.536 142.79Z" fill="white"/>
<path d="M160.046 141.105C160.192 141.9 160.625 142.614 161.263 143.111C161.9 143.608 162.697 143.855 163.504 143.804C164.047 143.845 164.591 143.736 165.077 143.49C165.562 143.243 165.971 142.868 166.258 142.405L167.679 143.209C167.234 143.917 166.609 144.494 165.868 144.882C165.126 145.269 164.296 145.452 163.46 145.412C162.78 145.438 162.102 145.326 161.466 145.084C160.83 144.842 160.25 144.474 159.759 144.002C158.853 143.019 158.35 141.731 158.35 140.395C158.35 139.058 158.853 137.77 159.759 136.787C160.229 136.311 160.793 135.938 161.415 135.692C162.037 135.445 162.703 135.331 163.372 135.356C164.017 135.337 164.658 135.461 165.25 135.718C165.842 135.975 166.37 136.359 166.798 136.842C167.692 137.808 168.175 139.084 168.141 140.4C168.141 140.651 168.119 140.902 168.075 141.149L160.046 141.105ZM160.046 139.651H166.434C166.37 138.883 166.015 138.168 165.442 137.652C164.869 137.137 164.121 136.859 163.35 136.876C162.551 136.839 161.768 137.104 161.156 137.618C160.543 138.132 160.147 138.858 160.046 139.651ZM163.405 132.844L162.304 134.298H160.64L162.535 131.886H164.242L166.137 134.298H164.473L163.405 132.844ZM165.377 132.536C165.377 131.754 165.377 131.556 165.74 131.291C165.833 131.24 165.922 131.181 166.004 131.115C166.102 131.088 166.188 131.03 166.251 130.951C166.315 130.872 166.352 130.775 166.357 130.674C166.357 130.509 166.225 130.366 165.916 130.366C165.736 130.357 165.558 130.406 165.409 130.508C165.26 130.609 165.148 130.757 165.09 130.928L164.099 130.509C164.235 130.143 164.485 129.829 164.812 129.615C165.139 129.401 165.526 129.298 165.916 129.32C166.753 129.32 167.447 129.738 167.447 130.663C167.465 130.912 167.412 131.16 167.292 131.379C167.173 131.598 166.994 131.777 166.775 131.897C166.544 132.018 166.412 132.117 166.467 132.536H165.377Z" fill="white"/>
<path d="M180.014 137.162H177.47V142.35C177.47 143.826 178.307 143.704 180.014 143.627V145.125C177.106 145.5 175.807 144.718 175.807 142.35V137.162H173.912V135.554H175.862V133.351L177.525 132.855V135.532H180.069L180.014 137.162Z" fill="white"/>
<path d="M183.704 137.162C183.957 136.594 184.38 136.118 184.915 135.801C185.449 135.483 186.069 135.339 186.689 135.388V137.129C185.93 137.064 185.175 137.297 184.585 137.779C184.272 138.062 184.029 138.415 183.876 138.809C183.723 139.202 183.664 139.627 183.704 140.048V145.125H182.041V135.554H183.704V137.162Z" fill="white"/>
<path d="M192.814 145.368C192.15 145.382 191.49 145.261 190.874 145.011C190.258 144.761 189.7 144.387 189.235 143.914C188.303 142.957 187.781 141.675 187.781 140.339C187.781 139.004 188.303 137.722 189.235 136.765C189.7 136.292 190.258 135.918 190.874 135.668C191.49 135.418 192.15 135.297 192.814 135.311C193.37 135.307 193.924 135.389 194.455 135.554H195.105C195.953 135.554 196.085 135.212 196.085 134.375V134.144H197.561V134.375C197.561 135.609 197.231 136.38 196.317 136.688C196.323 136.706 196.334 136.722 196.347 136.735C196.36 136.748 196.376 136.759 196.394 136.765C197.102 137.47 197.585 138.37 197.78 139.35C197.976 140.329 197.875 141.345 197.491 142.268C197.107 143.19 196.458 143.978 195.625 144.53C194.792 145.082 193.813 145.373 192.814 145.368ZM195.226 142.768C195.793 142.213 196.149 141.478 196.233 140.689C196.318 139.9 196.126 139.106 195.691 138.443C195.256 137.78 194.603 137.288 193.846 137.053C193.089 136.817 192.273 136.851 191.538 137.15C190.803 137.448 190.194 137.993 189.816 138.69C189.438 139.388 189.314 140.195 189.464 140.974C189.615 141.752 190.031 142.455 190.642 142.961C191.253 143.467 192.021 143.745 192.814 143.748C193.262 143.757 193.706 143.674 194.121 143.506C194.536 143.337 194.912 143.086 195.226 142.768ZM192.693 134.309C192.693 133.472 192.693 133.285 193.079 132.987L193.387 132.8C193.487 132.766 193.576 132.702 193.64 132.618C193.705 132.534 193.743 132.433 193.75 132.327C193.75 132.128 193.596 131.996 193.266 131.996C193.075 131.981 192.884 132.031 192.725 132.139C192.567 132.248 192.451 132.407 192.396 132.591L191.294 132.128C191.445 131.74 191.715 131.409 192.065 131.184C192.415 130.958 192.828 130.849 193.244 130.873C194.147 130.873 194.896 131.324 194.896 132.305C194.918 132.571 194.863 132.838 194.738 133.074C194.613 133.31 194.424 133.506 194.191 133.637C193.938 133.758 193.783 133.869 193.839 134.309H192.693Z" fill="white"/>
<path d="M209.819 137.162H207.274V142.35C207.274 143.826 208.112 143.704 209.819 143.627V145.125C206.911 145.5 205.611 144.718 205.611 142.35V137.162H203.717V135.554H205.6V133.351L207.263 132.855V135.532H209.808L209.819 137.162Z" fill="white"/>
<path d="M220.316 139.244V145.125H218.653V139.343C218.689 139.019 218.654 138.692 218.549 138.384C218.445 138.075 218.273 137.794 218.046 137.561C217.82 137.327 217.544 137.146 217.24 137.031C216.935 136.917 216.609 136.871 216.285 136.897C214.621 136.897 213.509 137.911 213.509 140.048V145.125H211.846V131.732H213.509V136.931C213.828 136.404 214.285 135.974 214.83 135.689C215.376 135.403 215.989 135.273 216.604 135.311C217.117 135.288 217.628 135.376 218.104 135.568C218.58 135.761 219.009 136.053 219.361 136.427C219.713 136.8 219.981 137.245 220.146 137.731C220.311 138.217 220.369 138.733 220.316 139.244Z" fill="white"/>
<path d="M230.559 135.554H232.222V145.125H230.559V143.473C230.177 144.082 229.64 144.578 229.003 144.911C228.367 145.244 227.653 145.401 226.935 145.368C226.294 145.38 225.658 145.256 225.067 145.006C224.477 144.755 223.946 144.383 223.51 143.914C222.604 142.946 222.1 141.67 222.1 140.345C222.1 139.02 222.604 137.744 223.51 136.776C223.947 136.308 224.478 135.935 225.068 135.683C225.658 135.431 226.294 135.304 226.935 135.311C227.653 135.278 228.367 135.435 229.003 135.768C229.64 136.101 230.177 136.597 230.559 137.206V135.554ZM229.579 142.79C229.899 142.468 230.15 142.084 230.319 141.662C230.487 141.24 230.569 140.788 230.559 140.334C230.569 139.885 230.487 139.438 230.318 139.021C230.15 138.605 229.898 138.227 229.579 137.911C229.102 137.432 228.493 137.106 227.831 136.974C227.168 136.842 226.481 136.91 225.857 137.17C225.234 137.43 224.701 137.87 224.328 138.433C223.955 138.997 223.759 139.658 223.763 140.334C223.748 140.789 223.828 141.242 223.997 141.664C224.165 142.087 224.42 142.47 224.743 142.79C225.395 143.412 226.261 143.758 227.161 143.758C228.061 143.758 228.927 143.412 229.579 142.79ZM229.347 134.254H227.739L225.812 131.732H227.816L229.347 134.254Z" fill="white"/>
<path d="M243.214 139.243V145.125H241.551V139.343C241.588 139.019 241.553 138.692 241.448 138.384C241.343 138.075 241.171 137.794 240.945 137.56C240.718 137.327 240.443 137.146 240.138 137.031C239.834 136.917 239.507 136.871 239.183 136.897C237.542 136.897 236.441 137.889 236.441 140.092V145.169H234.777V135.598H236.441V136.975C236.759 136.448 237.216 136.018 237.762 135.733C238.308 135.447 238.921 135.317 239.536 135.355C240.042 135.338 240.545 135.428 241.014 135.62C241.482 135.812 241.904 136.101 242.252 136.469C242.6 136.837 242.866 137.275 243.032 137.753C243.198 138.231 243.26 138.739 243.214 139.243Z" fill="white"/>
<path d="M254.063 139.244V145.125H252.4V139.343C252.437 139.018 252.402 138.69 252.296 138.381C252.191 138.072 252.018 137.79 251.79 137.556C251.563 137.322 251.286 137.141 250.98 137.028C250.674 136.914 250.346 136.869 250.021 136.897C248.358 136.897 247.256 137.911 247.256 140.048V145.125H245.582V131.732H247.256V136.931C247.569 136.398 248.025 135.965 248.572 135.679C249.119 135.392 249.736 135.265 250.351 135.311C250.864 135.29 251.374 135.379 251.849 135.572C252.324 135.765 252.752 136.058 253.104 136.431C253.456 136.804 253.724 137.248 253.889 137.733C254.055 138.218 254.114 138.733 254.063 139.244Z" fill="white"/>
<path d="M262.545 143.396C261.559 142.419 260.889 141.169 260.62 139.807C260.351 138.445 260.496 137.034 261.037 135.755C261.577 134.476 262.488 133.389 263.652 132.632C264.816 131.876 266.18 131.486 267.568 131.512C268.738 131.501 269.89 131.801 270.906 132.382C271.922 132.963 272.765 133.802 273.35 134.816L271.797 135.719C271.382 134.966 270.768 134.342 270.022 133.915C269.276 133.488 268.427 133.274 267.568 133.296C266.186 133.296 264.861 133.845 263.884 134.822C262.907 135.799 262.358 137.124 262.358 138.506C262.358 139.887 262.907 141.212 263.884 142.189C264.861 143.167 266.186 143.715 267.568 143.715C268.436 143.724 269.291 143.494 270.037 143.049C270.783 142.604 271.392 141.962 271.797 141.193L273.35 142.074C272.786 143.074 271.96 143.9 270.96 144.464C269.928 145.054 268.757 145.358 267.568 145.346C266.642 145.382 265.718 145.228 264.854 144.893C263.99 144.557 263.204 144.048 262.545 143.396Z" fill="white"/>
<path d="M279.738 135.311C280.885 135.327 281.99 135.739 282.868 136.476C283.745 137.214 284.34 138.233 284.552 139.359C284.764 140.486 284.58 141.651 284.031 142.658C283.482 143.664 282.602 144.449 281.54 144.881C280.478 145.312 279.299 145.363 278.204 145.024C277.109 144.686 276.164 143.979 275.531 143.024C274.897 142.068 274.613 140.923 274.728 139.782C274.842 138.642 275.348 137.576 276.159 136.765C276.625 136.291 277.182 135.918 277.798 135.668C278.414 135.418 279.074 135.297 279.738 135.311ZM282.15 142.768C282.717 142.213 283.073 141.478 283.157 140.689C283.242 139.9 283.05 139.106 282.615 138.443C282.18 137.78 281.528 137.288 280.77 137.052C280.013 136.817 279.197 136.851 278.462 137.15C277.727 137.448 277.118 137.993 276.74 138.69C276.362 139.388 276.238 140.195 276.388 140.974C276.539 141.752 276.955 142.455 277.566 142.961C278.177 143.467 278.945 143.745 279.738 143.748C280.186 143.757 280.63 143.674 281.045 143.506C281.46 143.337 281.836 143.086 282.15 142.768ZM279.716 132.855L278.615 134.309H276.952L278.846 131.897H280.553L282.448 134.309H280.774L279.716 132.855ZM278.615 147.934C278.615 147.642 278.731 147.362 278.937 147.155C279.144 146.949 279.424 146.832 279.716 146.832C280.008 146.832 280.289 146.949 280.495 147.155C280.702 147.362 280.818 147.642 280.818 147.934C280.818 148.226 280.702 148.506 280.495 148.713C280.289 148.919 280.008 149.035 279.716 149.035C279.566 149.037 279.417 149.008 279.278 148.95C279.14 148.892 279.014 148.806 278.91 148.698C278.806 148.589 278.725 148.461 278.672 148.32C278.62 148.179 278.596 148.029 278.604 147.879L278.615 147.934Z" fill="white"/>
<path d="M295.235 139.244V145.125H293.572V139.343C293.609 139.018 293.574 138.69 293.468 138.381C293.363 138.072 293.19 137.79 292.962 137.556C292.734 137.322 292.458 137.141 292.152 137.028C291.845 136.914 291.518 136.869 291.193 136.897C289.53 136.897 288.417 137.911 288.417 140.048V145.125H286.754V135.554H288.417V136.931C288.738 136.403 289.197 135.973 289.744 135.687C290.292 135.402 290.907 135.272 291.523 135.311C292.035 135.29 292.546 135.379 293.021 135.572C293.496 135.765 293.924 136.058 294.276 136.431C294.628 136.804 294.896 137.248 295.061 137.733C295.227 138.218 295.286 138.733 295.235 139.244Z" fill="white"/>
<path d="M305.49 135.554H307.131V144.718C307.167 145.342 307.057 145.966 306.808 146.54C306.56 147.114 306.18 147.622 305.699 148.022C304.727 148.815 303.506 149.236 302.252 149.212C301.353 149.291 300.451 149.114 299.649 148.701C298.848 148.287 298.18 147.655 297.725 146.876L299.179 146.05C299.477 146.6 299.934 147.048 300.49 147.334C301.045 147.621 301.675 147.734 302.296 147.658C302.705 147.71 303.12 147.672 303.513 147.546C303.906 147.421 304.267 147.212 304.571 146.933C304.875 146.654 305.115 146.313 305.273 145.932C305.432 145.551 305.506 145.141 305.49 144.729V143.396C305.111 144.004 304.578 144.501 303.946 144.837C303.314 145.174 302.604 145.338 301.888 145.312C301.242 145.324 300.601 145.201 300.005 144.951C299.41 144.701 298.873 144.328 298.43 143.859C297.97 143.391 297.607 142.837 297.363 142.228C297.119 141.619 296.999 140.968 297.009 140.312C296.996 139.661 297.115 139.013 297.359 138.409C297.603 137.805 297.967 137.257 298.43 136.798C298.872 136.327 299.408 135.954 300.004 135.703C300.6 135.453 301.242 135.33 301.888 135.344C302.603 135.312 303.313 135.471 303.946 135.804C304.579 136.137 305.112 136.632 305.49 137.239V135.554ZM304.51 137.867C303.947 137.286 303.201 136.919 302.398 136.829C301.595 136.739 300.786 136.931 300.109 137.372C299.432 137.814 298.929 138.477 298.688 139.248C298.446 140.019 298.481 140.85 298.785 141.598C299.089 142.347 299.644 142.966 300.355 143.35C301.066 143.734 301.889 143.859 302.681 143.703C303.474 143.547 304.188 143.12 304.701 142.495C305.213 141.87 305.492 141.087 305.49 140.279C305.495 139.835 305.411 139.395 305.243 138.984C305.075 138.573 304.825 138.201 304.51 137.889V137.867Z" fill="white"/>
<path d="M319.643 137.162H317.099V142.35C317.099 143.826 317.936 143.704 319.643 143.627V145.125C316.735 145.5 315.435 144.718 315.435 142.35V137.162H313.541V135.554H315.435V133.351L317.099 132.855V135.532H319.643V137.162Z" fill="white"/>
<path d="M329.59 135.554H331.253V145.125H329.59V143.473C329.209 144.081 328.675 144.577 328.04 144.909C327.405 145.242 326.693 145.4 325.977 145.368C325.336 145.38 324.699 145.257 324.109 145.007C323.518 144.756 322.988 144.384 322.551 143.914C321.638 142.95 321.129 141.673 321.129 140.345C321.129 139.017 321.638 137.74 322.551 136.776C322.988 136.306 323.519 135.933 324.109 135.681C324.699 135.429 325.335 135.303 325.977 135.311C326.693 135.278 327.405 135.437 328.04 135.77C328.675 136.102 329.209 136.598 329.59 137.206V135.554ZM328.62 142.79C328.939 142.467 329.189 142.083 329.355 141.661C329.522 141.239 329.602 140.788 329.59 140.334C329.601 139.885 329.521 139.439 329.354 139.023C329.188 138.606 328.938 138.228 328.62 137.911C327.974 137.276 327.103 136.92 326.197 136.92C325.291 136.92 324.421 137.276 323.774 137.911C323.456 138.228 323.207 138.606 323.04 139.023C322.873 139.439 322.793 139.885 322.805 140.334C322.793 140.788 322.872 141.239 323.039 141.661C323.205 142.083 323.455 142.467 323.774 142.79C324.427 143.412 325.295 143.759 326.197 143.759C327.099 143.759 327.967 143.412 328.62 142.79ZM329.402 131.776L327.464 134.298H325.867L327.387 131.776H329.402Z" fill="white"/>
<path d="M334.678 143.936C334.207 143.464 333.838 142.901 333.592 142.282C333.345 141.663 333.228 141 333.246 140.334C333.234 139.67 333.356 139.011 333.605 138.395C333.854 137.78 334.224 137.221 334.694 136.752C335.164 136.283 335.724 135.914 336.34 135.666C336.956 135.419 337.616 135.298 338.28 135.311C339.149 135.284 340.009 135.504 340.758 135.947C341.507 136.389 342.114 137.036 342.509 137.812L341.11 138.616C340.847 138.095 340.441 137.66 339.94 137.362C339.438 137.063 338.863 136.914 338.28 136.931C337.832 136.922 337.387 137.005 336.973 137.173C336.558 137.342 336.182 137.593 335.867 137.911C335.251 138.565 334.907 139.43 334.907 140.328C334.907 141.227 335.251 142.092 335.867 142.746C336.182 143.064 336.558 143.315 336.973 143.484C337.387 143.652 337.832 143.735 338.28 143.726C338.867 143.741 339.447 143.594 339.956 143.301C340.465 143.007 340.884 142.579 341.165 142.063L342.586 142.878C342.199 143.543 341.666 144.11 341.027 144.539C340.389 144.967 339.661 145.245 338.9 145.351C338.138 145.457 337.362 145.388 336.631 145.151C335.9 144.913 335.232 144.513 334.678 143.98V143.936Z" fill="white"/>
<path d="M355.727 135.554H357.522L353.701 145.125H351.74L347.918 135.554H349.713L352.72 143.341L355.727 135.554Z" fill="white"/>
<path d="M358.701 133.263C358.701 132.971 358.817 132.69 359.024 132.484C359.23 132.277 359.51 132.161 359.803 132.161C360.095 132.161 360.375 132.277 360.581 132.484C360.788 132.69 360.904 132.971 360.904 133.263C360.904 133.555 360.788 133.835 360.581 134.042C360.375 134.248 360.095 134.364 359.803 134.364C359.51 134.364 359.23 134.248 359.024 134.042C358.817 133.835 358.701 133.555 358.701 133.263ZM358.988 145.125V135.554H360.662V145.125H358.988Z" fill="white"/>
<path d="M364.308 141.105C364.455 141.902 364.889 142.617 365.529 143.115C366.168 143.612 366.969 143.857 367.777 143.804C368.32 143.845 368.864 143.736 369.35 143.49C369.835 143.243 370.244 142.868 370.531 142.405L371.952 143.209C371.507 143.917 370.882 144.494 370.141 144.882C369.4 145.269 368.569 145.452 367.733 145.412C367.052 145.437 366.372 145.325 365.734 145.083C365.097 144.841 364.514 144.473 364.021 144.002C363.556 143.523 363.191 142.955 362.949 142.333C362.707 141.71 362.592 141.046 362.612 140.378C362.592 139.716 362.706 139.057 362.946 138.441C363.186 137.824 363.548 137.261 364.01 136.787C364.48 136.311 365.044 135.938 365.666 135.692C366.288 135.445 366.955 135.331 367.623 135.356C368.268 135.337 368.909 135.461 369.501 135.718C370.093 135.975 370.621 136.359 371.049 136.842C371.943 137.808 372.426 139.084 372.392 140.4C372.392 140.651 372.37 140.902 372.326 141.149L364.308 141.105ZM364.308 139.651H370.707C370.643 138.883 370.288 138.168 369.715 137.652C369.142 137.137 368.394 136.859 367.623 136.876C366.823 136.838 366.038 137.103 365.424 137.617C364.81 138.131 364.412 138.857 364.308 139.651ZM367.678 132.745L366.511 134.298H364.737L366.764 131.71H368.614L370.641 134.298H368.857L367.678 132.745Z" fill="white"/>
<path d="M382.778 139.244V145.125H381.104V139.343C381.141 139.019 381.105 138.692 381.001 138.384C380.896 138.075 380.724 137.794 380.497 137.561C380.271 137.327 379.996 137.146 379.691 137.031C379.386 136.917 379.06 136.871 378.736 136.897C377.073 136.897 375.96 137.911 375.96 140.048V145.125H374.297V135.554H375.96V136.931C376.281 136.403 376.74 135.973 377.287 135.687C377.835 135.402 378.45 135.272 379.066 135.311C379.578 135.29 380.089 135.379 380.564 135.572C381.039 135.765 381.467 136.058 381.819 136.431C382.171 136.804 382.439 137.248 382.604 137.733C382.77 138.218 382.829 138.733 382.778 139.244Z" fill="white"/>
<defs>
<filter id="filter0_d_344_2405" x="108.104" y="66.2712" width="313.973" height="56.7863" filterUnits="userSpaceOnUse" color-interpolation-filters="sRGB">
<feFlood flood-opacity="0" result="BackgroundImageFix"/>
<feColorMatrix in="SourceAlpha" type="matrix" values="0 0 0 0 0 0 0 0 0 0 0 0 0 0 0 0 0 0 127 0" result="hardAlpha"/>
<feOffset dy="2"/>
<feGaussianBlur stdDeviation="1.75"/>
<feComposite in2="hardAlpha" operator="out"/>
<feColorMatrix type="matrix" values="0 0 0 0 0 0 0 0 0 0 0 0 0 0 0 0 0 0 0.25 0"/>
<feBlend mode="normal" in2="BackgroundImageFix" result="effect1_dropShadow_344_2405"/>
<feBlend mode="normal" in="SourceGraphic" in2="effect1_dropShadow_344_2405" result="shape"/>
</filter>
<linearGradient id="paint0_linear_344_2405" x1="60.9043" y1="111.675" x2="466.354" y2="111.675" gradientUnits="userSpaceOnUse">
<stop stop-color="#24AA69"/>
<stop offset="0.5" stop-color="#005F49"/>
<stop offset="1" stop-color="#24AA69"/>
</linearGradient>
<linearGradient id="paint1_linear_344_2405" x1="44.1412" y1="111.686" x2="483.119" y2="111.686" gradientUnits="userSpaceOnUse">
<stop stop-color="#C8FFB4"/>
<stop offset="0.26" stop-color="#24AA69"/>
<stop offset="0.5" stop-color="#5FF927"/>
<stop offset="0.76" stop-color="#24AA69"/>
<stop offset="1" stop-color="#C9FFB6"/>
</linearGradient>
<linearGradient id="paint2_linear_344_2405" x1="-5.66577" y1="111.862" x2="543.609" y2="111.862" gradientUnits="userSpaceOnUse">
<stop stop-color="#CFFBC5"/>
<stop offset="0.26" stop-color="#24AA69"/>
<stop offset="0.5" stop-color="#CEFAC5"/>
<stop offset="0.76" stop-color="#24AA69"/>
<stop offset="1" stop-color="#D4FDC8"/>
</linearGradient>
<linearGradient id="paint3_linear_344_2405" x1="-5.66523" y1="111.862" x2="543.61" y2="111.862" gradientUnits="userSpaceOnUse">
<stop stop-color="#D4FDC7"/>
<stop offset="0.26" stop-color="#24AA69"/>
<stop offset="0.5" stop-color="#D4FDC7"/>
<stop offset="0.76" stop-color="#24AA69"/>
<stop offset="1" stop-color="#D5FDC9"/>
</linearGradient>
<linearGradient id="paint4_linear_344_2405" x1="-5.6649" y1="111.862" x2="543.61" y2="111.862" gradientUnits="userSpaceOnUse">
<stop stop-color="#D2FCC7"/>
<stop offset="0.26" stop-color="#24AA69"/>
<stop offset="0.5" stop-color="#D1FBC7"/>
<stop offset="0.76" stop-color="#24AA69"/>
<stop offset="1" stop-color="#D6FEC9"/>
</linearGradient>
<linearGradient id="paint5_linear_344_2405" x1="125.38" y1="80.7986" x2="125.38" y2="116.965" gradientUnits="userSpaceOnUse">
<stop stop-color="#009851"/>
<stop offset="0.18" stop-color="#46C917"/>
<stop offset="0.47" stop-color="#005F49"/>
<stop offset="0.8" stop-color="#3F9F1D"/>
<stop offset="0.95" stop-color="#005945"/>
</linearGradient>
<linearGradient id="paint6_linear_344_2405" x1="154.034" y1="67.7712" x2="154.034" y2="116.961" gradientUnits="userSpaceOnUse">
<stop stop-color="#009851"/>
<stop offset="0.18" stop-color="#46C917"/>
<stop offset="0.47" stop-color="#005F49"/>
<stop offset="0.8" stop-color="#3F9F1D"/>
<stop offset="0.95" stop-color="#005945"/>
</linearGradient>
<linearGradient id="paint7_linear_344_2405" x1="188.336" y1="80.8013" x2="188.336" y2="116.961" gradientUnits="userSpaceOnUse">
<stop stop-color="#009851"/>
<stop offset="0.18" stop-color="#46C917"/>
<stop offset="0.47" stop-color="#005F49"/>
<stop offset="0.8" stop-color="#3F9F1D"/>
<stop offset="0.95" stop-color="#005945"/>
</linearGradient>
<linearGradient id="paint8_linear_344_2405" x1="233.882" y1="80.7905" x2="233.882" y2="116.962" gradientUnits="userSpaceOnUse">
<stop stop-color="#009851"/>
<stop offset="0.18" stop-color="#46C917"/>
<stop offset="0.47" stop-color="#005F49"/>
<stop offset="0.8" stop-color="#3F9F1D"/>
<stop offset="0.95" stop-color="#005945"/>
</linearGradient>
<linearGradient id="paint9_linear_344_2405" x1="260.868" y1="71.5165" x2="260.868" y2="116.962" gradientUnits="userSpaceOnUse">
<stop stop-color="#009851"/>
<stop offset="0.18" stop-color="#46C917"/>
<stop offset="0.47" stop-color="#005F49"/>
<stop offset="0.8" stop-color="#3F9F1D"/>
<stop offset="0.95" stop-color="#005945"/>
</linearGradient>
<linearGradient id="paint10_linear_344_2405" x1="293.638" y1="80.1075" x2="293.638" y2="117.557" gradientUnits="userSpaceOnUse">
<stop stop-color="#009851"/>
<stop offset="0.18" stop-color="#46C917"/>
<stop offset="0.47" stop-color="#005F49"/>
<stop offset="0.8" stop-color="#3F9F1D"/>
<stop offset="0.95" stop-color="#005945"/>
</linearGradient>
<linearGradient id="paint11_linear_344_2405" x1="341.067" y1="80.798" x2="341.067" y2="116.965" gradientUnits="userSpaceOnUse">
<stop stop-color="#009851"/>
<stop offset="0.18" stop-color="#46C917"/>
<stop offset="0.47" stop-color="#005F49"/>
<stop offset="0.8" stop-color="#3F9F1D"/>
<stop offset="0.95" stop-color="#005945"/>
</linearGradient>
<linearGradient id="paint12_linear_344_2405" x1="372.55" y1="71.5714" x2="372.55" y2="116.962" gradientUnits="userSpaceOnUse">
<stop stop-color="#009851"/>
<stop offset="0.18" stop-color="#46C917"/>
<stop offset="0.47" stop-color="#005F49"/>
<stop offset="0.8" stop-color="#3F9F1D"/>
<stop offset="0.95" stop-color="#005945"/>
</linearGradient>
<linearGradient id="paint13_linear_344_2405" x1="402.47" y1="80.8013" x2="402.47" y2="116.961" gradientUnits="userSpaceOnUse">
<stop stop-color="#009851"/>
<stop offset="0.18" stop-color="#46C917"/>
<stop offset="0.47" stop-color="#005F49"/>
<stop offset="0.8" stop-color="#3F9F1D"/>
<stop offset="0.95" stop-color="#005945"/>
</linearGradient>
</defs>
</svg>
