<svg width="103" height="91" viewBox="0 0 103 91" fill="none" xmlns="http://www.w3.org/2000/svg">
<g clip-path="url(#clip0_1383_16935)">
<path d="M90.2758 61.488C90.2758 63.1495 89.9475 64.7947 89.3097 66.3295C88.672 67.8643 87.7372 69.2585 86.5589 70.4325C85.3806 71.6064 83.9819 72.5371 82.4428 73.1712C80.9037 73.8053 79.2544 74.1304 77.5893 74.1279H60.3975V78.7174H75.0633C75.6592 78.7703 76.2136 79.0439 76.6174 79.4843C77.0212 79.9247 77.2451 80.4999 77.2451 81.0968C77.2451 81.6937 77.0212 82.269 76.6174 82.7093C76.2136 83.1497 75.6592 83.4233 75.0633 83.4762H22.8281C22.4972 83.5056 22.1637 83.4659 21.8489 83.3597C21.5342 83.2535 21.245 83.0831 20.9999 82.8593C20.7547 82.6355 20.5589 82.3632 20.425 82.0598C20.2911 81.7564 20.2219 81.4284 20.2219 81.0968C20.2219 80.7653 20.2911 80.4374 20.425 80.1339C20.5589 79.8305 20.7547 79.5583 20.9999 79.3345C21.245 79.1106 21.5342 78.9401 21.8489 78.8339C22.1637 78.7277 22.4972 78.688 22.8281 78.7174H37.4751V74.1279H20.2079C16.8482 74.1279 13.6262 72.7963 11.2505 70.4258C8.87489 68.0554 7.54026 64.8403 7.54026 61.488V25.3739C7.53779 23.7124 7.86362 22.0667 8.49912 20.531C9.13462 18.9953 10.0673 17.5996 11.2439 16.4239C12.4204 15.2482 13.8177 14.3155 15.3559 13.6791C16.894 13.0427 18.5428 12.7152 20.2079 12.7152H71.6514C72.6513 12.7152 73.6102 12.3188 74.3172 11.6133C75.0243 10.9078 75.4215 9.95101 75.4215 8.95329C75.4215 7.95558 75.0243 6.99867 74.3172 6.29318C73.6102 5.58769 72.6513 5.19141 71.6514 5.19141H20.2079C14.8482 5.20136 9.71122 7.33148 5.92312 11.1148C2.13502 14.8982 0.0049811 20.0259 0 25.3739V61.488C0.00222563 65.5488 1.22978 69.5149 3.52282 72.8698C5.81586 76.2246 9.06814 78.8129 12.8561 80.2974C12.8561 80.5608 12.8561 80.8429 12.8561 81.125C12.8611 82.4268 13.1229 83.7148 13.6268 84.9155C14.1306 86.1163 14.8665 87.2063 15.7925 88.1232C16.7185 89.0402 17.8164 89.7663 19.0236 90.2599C20.2308 90.7534 21.5236 91.0049 22.8281 91H75.1387C77.7669 90.995 80.2861 89.9511 82.1445 88.0967C84.0029 86.2424 85.0492 83.7287 85.0542 81.1062C85.0542 80.8241 85.0542 80.5419 85.0542 80.2786C88.8392 78.7897 92.0886 76.2005 94.381 72.8466C96.6733 69.4927 97.903 65.5288 97.9103 61.4692V31.2801C97.9103 30.2824 97.5131 29.3254 96.8061 28.62C96.099 27.9145 95.1401 27.5182 94.1402 27.5182C93.1403 27.5182 92.1813 27.9145 91.4743 28.62C90.7673 29.3254 90.3701 30.2824 90.3701 31.2801L90.2758 61.488Z" fill="#E8E8E8"/>
<path d="M51.9338 66.4162C56.206 65.8484 60.234 64.1 63.5627 61.3684C66.8915 58.6367 69.3884 55.0308 70.7715 50.9577C72.1545 46.8847 72.3686 42.5069 71.3895 38.3189C70.4104 34.1309 68.2771 30.2995 65.2307 27.2574C62.1842 24.2154 58.346 22.0841 54.1495 21.1041C49.953 20.1241 45.5654 20.3344 41.4824 21.7115C37.3995 23.0886 33.7838 25.5775 31.0437 28.897C28.3037 32.2165 26.5485 36.2344 25.9764 40.4968C25.5244 44.0061 25.8844 47.5721 27.0287 50.921C28.1731 54.2699 30.0714 57.3125 32.5778 59.8153C35.0842 62.3181 38.1322 64.2143 41.4876 65.3586C44.8429 66.5029 48.4165 66.8647 51.9338 66.4162ZM32.2537 54.3969C30.3632 51.5576 29.2399 48.2792 28.9925 44.8793H39.1154C39.1566 47.2161 39.4026 49.5448 39.8505 51.8389C37.2055 52.3122 34.6453 53.1742 32.2537 54.3969ZM34.1388 56.8422C36.1667 55.908 38.2994 55.2197 40.4915 54.792C41.1833 57.8282 42.6509 60.634 44.7517 62.9365C40.6584 62.073 36.9436 59.9399 34.1388 56.8422ZM55.8359 44.8793C55.7755 47.0646 55.536 49.2412 55.1196 51.3874C53.0121 51.1264 50.8906 50.9945 48.7669 50.9924C46.7752 50.9893 44.7855 51.115 42.8101 51.3686C42.4199 49.2253 42.1868 47.0565 42.1126 44.8793H55.8359ZM42.1126 41.8699C42.1848 39.6926 42.4179 37.5236 42.8101 35.3806C44.7859 35.6277 46.7757 35.7471 48.7669 35.738C50.8899 35.7325 53.0108 35.6069 55.1196 35.3618C55.537 37.5078 55.7766 39.6846 55.8359 41.8699H42.1126ZM48.9743 61.8831C47.0892 61.8831 44.9025 58.9489 43.5453 54.3594C45.2787 54.161 47.0221 54.0605 48.7669 54.0584C50.6579 54.0487 52.5474 54.1681 54.4221 54.4157C52.9894 58.9864 50.8593 61.8831 48.8989 61.8831H48.9743ZM53.2157 62.9365C55.2865 60.655 56.7398 57.8841 57.4382 54.886C59.5981 55.3026 61.691 56.0114 63.6589 56.9926C60.8644 60.0259 57.1846 62.1053 53.1403 62.9365H53.2157ZM65.6194 54.5851C63.2587 53.3088 60.7156 52.4017 58.0791 51.8953C58.5121 49.5805 58.7517 47.2337 58.7954 44.8793H68.9182C68.6598 48.3526 67.4967 51.6983 65.544 54.5851H65.6194ZM65.6194 32.1642C67.5678 35.0516 68.7246 38.3979 68.9748 41.8699H58.7766C58.7318 39.5093 58.4922 37.1565 58.0603 34.8352C60.6786 34.3376 63.2034 33.4364 65.544 32.1642H65.6194ZM63.7343 29.7566C61.7664 30.7379 59.6735 31.4466 57.5136 31.8633C56.8239 28.8374 55.3555 26.0432 53.2534 23.7564C57.2292 24.659 60.8336 26.7526 63.5835 29.7566H63.7343ZM49.0497 24.8662C50.9347 24.8662 53.1403 27.7252 54.4975 32.39C52.6228 32.6376 50.7333 32.7569 48.8423 32.7472C47.0975 32.7451 45.3541 32.6447 43.6207 32.4463C44.8271 27.7628 46.9384 24.8662 48.8989 24.8662H49.0497ZM44.846 23.7564C42.7232 26.0681 41.2475 28.8964 40.5669 31.9573C38.3468 31.5443 36.1873 30.8556 34.1388 29.9071C36.9376 26.8196 40.6248 24.6712 44.6952 23.7564H44.846ZM32.2537 32.3335C34.6231 33.5657 37.165 34.4344 39.794 34.9104C39.344 37.2041 39.098 39.533 39.0588 41.8699H28.8983C29.1765 38.4561 30.3322 35.1716 32.2537 32.3335Z" fill="#E8E8E8"/>
<path d="M98.0422 15.4237H87.5236V4.94685C87.5531 3.75329 87.1407 2.59079 86.3651 1.6816C85.5896 0.772423 84.5054 0.18039 83.3198 0.0187884C82.6666 -0.046987 82.0068 0.0246815 81.3831 0.229223C80.7593 0.433765 80.1856 0.766581 79.6988 1.2062C79.212 1.64582 78.8231 2.18246 78.5571 2.78142C78.2912 3.38039 78.1541 4.02837 78.1548 4.68349V15.4237H67.6361C66.4431 15.3989 65.2827 15.8126 64.3755 16.586C63.4683 17.3594 62.8777 18.4385 62.7161 19.6182C62.6475 20.2699 62.7168 20.9287 62.9193 21.552C63.1219 22.1754 63.4534 22.7494 63.8922 23.2369C64.331 23.7244 64.8675 24.1146 65.467 24.3823C66.0664 24.65 66.7155 24.7891 67.3722 24.7908H78.1548V35.2676C78.1252 36.4612 78.5376 37.6237 79.3132 38.5329C80.0887 39.4421 81.1729 40.0341 82.3585 40.1957C83.0107 40.2643 83.6701 40.1953 84.2938 39.993C84.9176 39.7906 85.4916 39.4597 85.9788 39.0215C86.4659 38.5833 86.8552 38.0477 87.1213 37.4496C87.3875 36.8515 87.5245 36.2042 87.5236 35.5498V24.7908H98.2307C98.8875 24.7891 99.5365 24.65 100.136 24.3823C100.735 24.1146 101.272 23.7244 101.711 23.2369C102.15 22.7494 102.481 22.1754 102.684 21.552C102.886 20.9287 102.955 20.2699 102.887 19.6182C102.727 18.4516 102.147 17.3828 101.256 16.6111C100.364 15.8394 99.2223 15.4174 98.0422 15.4237Z" fill="#E8E8E8"/>
</g>
<defs>
<clipPath id="clip0_1383_16935">
<rect width="103" height="91" fill="white"/>
</clipPath>
</defs>
</svg>
