<svg width="29" height="27" viewBox="0 0 29 27" fill="none" xmlns="http://www.w3.org/2000/svg">
<g clip-path="url(#clip0_1_7876)">
<path d="M22.7073 14.121C21.8532 14.1107 21.0375 13.7576 20.4371 13.1383C19.8367 12.5191 19.5 11.6836 19.5001 10.813V9.70164H18.4096C17.6684 9.70406 16.9488 9.44733 16.3708 8.97427C15.7929 8.5012 15.3916 7.84042 15.234 7.10223C15.0764 6.36404 15.1719 5.59309 15.5047 4.91804C15.8375 4.24298 16.3874 3.70468 17.0626 3.39294H5.13161C3.77062 3.39294 2.46537 3.94396 1.50301 4.92478C0.540646 5.9056 0 7.23588 0 8.62297V21.7699C0.000386688 22.1054 0.0304129 22.4402 0.0897734 22.7702C0.317651 23.9621 0.945414 25.0361 1.86535 25.8079C2.78529 26.5797 3.94009 27.0011 5.13161 27H20.5906C21.9516 27 23.2568 26.4489 24.2192 25.4681C25.1815 24.4873 25.7222 23.157 25.7222 21.7699V12.0421C25.4811 12.656 25.065 13.1822 24.5276 13.5528C23.9902 13.9234 23.3562 14.1213 22.7073 14.121ZM18.3455 17.5467L11.2895 21.7045C10.884 21.9432 10.424 22.0688 9.95572 22.0689C9.48746 22.069 9.02741 21.9435 8.62181 21.705C8.21621 21.4665 7.87936 21.1234 7.64503 20.7102C7.4107 20.297 7.28717 19.8283 7.28687 19.351V11.0484C7.28605 10.5706 7.40873 10.101 7.6426 9.68687C7.87647 9.27277 8.21324 8.92879 8.61903 8.68953C9.02482 8.45026 9.48531 8.32419 9.95412 8.32398C10.4229 8.32377 10.8835 8.44943 11.2895 8.68833L18.3455 12.8462C18.7502 13.086 19.0861 13.4299 19.3196 13.8435C19.553 14.257 19.6759 14.7259 19.6759 15.203C19.6759 15.6801 19.553 16.1489 19.3196 16.5625C19.0861 16.9761 18.7502 17.3199 18.3455 17.5598V17.5467Z" fill="white"/>
<path d="M27.0437 4.41285H24.6704V1.99395C24.6417 1.48401 24.4228 1.00455 24.0584 0.653846C23.6941 0.303146 23.2119 0.107788 22.7107 0.107788C22.2096 0.107788 21.7274 0.303146 21.363 0.653846C20.9987 1.00455 20.7798 1.48401 20.7511 1.99395V4.41285H18.3777C18.111 4.39728 17.8439 4.43738 17.5929 4.53072C17.3419 4.62405 17.1121 4.76865 16.9179 4.95563C16.7236 5.14262 16.5689 5.36807 16.4631 5.61816C16.3573 5.86825 16.3027 6.13772 16.3027 6.41006C16.3027 6.68239 16.3573 6.95186 16.4631 7.20195C16.5689 7.45204 16.7236 7.67745 16.9179 7.86444C17.1121 8.05143 17.3419 8.19602 17.5929 8.28936C17.8439 8.38269 18.111 8.42283 18.3777 8.40727H20.7511V10.8523C20.7358 11.1242 20.7752 11.3964 20.8668 11.6523C20.9584 11.9081 21.1002 12.1422 21.2837 12.3402C21.4672 12.5382 21.6884 12.6959 21.9338 12.8037C22.1791 12.9115 22.4435 12.9671 22.7107 12.9671C22.978 12.9671 23.2424 12.9115 23.4877 12.8037C23.7331 12.6959 23.9543 12.5382 24.1378 12.3402C24.3213 12.1422 24.4631 11.9081 24.5547 11.6523C24.6463 11.3964 24.6856 11.1242 24.6704 10.8523V8.4334H27.0437C27.5441 8.40422 28.0145 8.18108 28.3586 7.80974C28.7027 7.43839 28.8944 6.94696 28.8944 6.43619C28.8944 5.92542 28.7027 5.434 28.3586 5.06265C28.0145 4.6913 27.5441 4.46817 27.0437 4.43898V4.41285Z" fill="white"/>
</g>
<defs>
<clipPath id="clip0_1_7876">
<rect width="29" height="27" fill="white"/>
</clipPath>
</defs>
</svg>
