<svg width="42" height="42" viewBox="0 0 42 42" fill="none" xmlns="http://www.w3.org/2000/svg">
<circle cx="21" cy="21" r="20" fill="white"/>
<path d="M21 41C18.3736 41 15.7728 40.4827 13.3463 39.4776C10.9198 38.4725 8.71503 36.9993 6.85786 35.1421C5.00069 33.285 3.5275 31.0802 2.52241 28.6537C1.51731 26.2272 1 23.6264 1 21C1 18.3736 1.51732 15.7728 2.52241 13.3463C3.5275 10.9198 5.00069 8.71503 6.85787 6.85786C8.71504 5.00069 10.9198 3.5275 13.3463 2.52241C15.7728 1.51731 18.3736 0.999999 21 1C23.6264 1 26.2272 1.51732 28.6537 2.52241C31.0802 3.52751 33.285 5.0007 35.1421 6.85787C36.9993 8.71504 38.4725 10.9198 39.4776 13.3463C40.4827 15.7728 41 18.3736 41 21C41 23.6264 40.4827 26.2272 39.4776 28.6537C38.4725 31.0802 36.9993 33.285 35.1421 35.1421C33.285 36.9993 31.0802 38.4725 28.6537 39.4776C26.2272 40.4827 23.6264 41 21 41L21 41Z" stroke="#D5D5D5" stroke-width="2" stroke-linecap="round"/>
<path d="M12 12L30 30" stroke="#C5C5C5" stroke-width="2" stroke-linecap="round"/>
<path d="M30 12L12 30" stroke="#C5C5C5" stroke-width="2" stroke-linecap="round"/>
</svg>
