<svg width="20" height="21" viewBox="0 0 20 21" fill="none" xmlns="http://www.w3.org/2000/svg">
<path d="M16.0575 8.03125H8.8322C7.94543 8.03125 7.22656 8.75012 7.22656 9.63688V16.8622C7.22656 17.749 7.94543 18.4679 8.8322 18.4679H16.0575C16.9443 18.4679 17.6632 17.749 17.6632 16.8622V9.63688C17.6632 8.75012 16.9443 8.03125 16.0575 8.03125Z" stroke="#828282" stroke-width="1.60563" stroke-linecap="round" stroke-linejoin="round"/>
<path d="M4.01392 12.8507H3.2111C2.78526 12.8507 2.37686 12.6815 2.07575 12.3804C1.77463 12.0793 1.60547 11.6709 1.60547 11.245V4.0197C1.60547 3.59386 1.77463 3.18546 2.07575 2.88434C2.37686 2.58323 2.78526 2.41406 3.2111 2.41406H10.4365C10.8623 2.41406 11.2707 2.58323 11.5718 2.88434C11.8729 3.18546 12.0421 3.59386 12.0421 4.0197V4.82251" stroke="#828282" stroke-width="1.60563" stroke-linecap="round" stroke-linejoin="round"/>
</svg>
