<svg width="26" height="25" viewBox="0 0 26 25" fill="none" xmlns="http://www.w3.org/2000/svg">
<g clip-path="url(#clip0_124_2205)">
<path d="M19.0493 19.537C18.7998 19.8726 18.4665 20.1366 18.0827 20.3026L14.6617 21.7634C14.2765 21.9299 13.8543 21.9918 13.4375 21.9428C13.0208 21.8939 12.6244 21.7358 12.2883 21.4846C11.9522 21.2334 11.6884 20.8979 11.5236 20.5121C11.3587 20.1262 11.2985 19.7037 11.3492 19.2872L11.789 15.6001C11.8362 15.1834 11.9958 14.7873 12.2507 14.4543L20.863 2.92042C20.3699 2.29125 19.7401 1.78244 19.0214 1.43248C18.3026 1.08252 17.5137 0.900576 16.7143 0.900391H5.26731C4.57514 0.90039 3.88981 1.03681 3.25039 1.30186C2.61098 1.56691 2.03004 1.95539 1.54085 2.44508C1.05166 2.93477 0.663772 3.51606 0.399383 4.15575C0.134994 4.79544 -0.000710781 5.48099 2.7996e-06 6.17317V19.1623C2.0585e-06 20.5598 0.554777 21.9001 1.54244 22.8888C2.5301 23.8775 3.86983 24.4336 5.26731 24.4351H16.7143C18.1118 24.4336 19.4515 23.8775 20.4392 22.8888C21.4268 21.9001 21.9816 20.5598 21.9816 19.1623V15.6109L19.0493 19.537ZM7.28741 4.33231C7.51403 4.33231 7.73554 4.3995 7.92397 4.5254C8.11239 4.6513 8.25923 4.83026 8.34595 5.03962C8.43267 5.24899 8.45539 5.47934 8.41118 5.7016C8.36697 5.92386 8.25781 6.12803 8.09757 6.28827C7.93733 6.44852 7.73319 6.55764 7.51093 6.60185C7.28867 6.64606 7.05829 6.62337 6.84892 6.53665C6.63956 6.44993 6.46063 6.30306 6.33473 6.11464C6.20883 5.92621 6.14164 5.70469 6.14164 5.47808C6.14873 5.17893 6.27255 4.89442 6.48666 4.68539C6.70077 4.47635 6.98818 4.35937 7.28741 4.35945V4.33231ZM4.02927 4.33231C4.25611 4.33123 4.47814 4.39751 4.66728 4.52275C4.85642 4.64799 5.0041 4.82658 5.09165 5.03585C5.1792 5.24511 5.20266 5.47564 5.15906 5.69825C5.11547 5.92087 5.00681 6.12554 4.84679 6.28632C4.68676 6.4471 4.48262 6.5568 4.26021 6.60145C4.0378 6.6461 3.80715 6.62371 3.59747 6.53715C3.38779 6.45059 3.2085 6.30374 3.08235 6.1152C2.95621 5.92666 2.88886 5.70493 2.88886 5.47808C2.89586 5.18173 3.0175 4.89962 3.22812 4.69102C3.43874 4.48242 3.72199 4.36358 4.01839 4.35945L4.02927 4.33231ZM3.22017 7.79137C3.32661 7.68565 3.45286 7.60195 3.5917 7.54511C3.73055 7.48827 3.87924 7.45941 4.02927 7.46013H11.5284C11.8179 7.4801 12.0891 7.60919 12.2872 7.82136C12.4852 8.03353 12.5954 8.31295 12.5954 8.60319C12.5954 8.89342 12.4852 9.17284 12.2872 9.38501C12.0891 9.59718 11.8179 9.72627 11.5284 9.74624H4.01839C3.7921 9.74582 3.57099 9.67838 3.38297 9.55245C3.19494 9.42652 3.04839 9.24776 2.96184 9.03866C2.8753 8.82956 2.85265 8.59952 2.89668 8.37755C2.94072 8.15557 3.04949 7.9516 3.20929 7.79137H3.22017ZM8.25394 19.9225C8.1475 20.0283 8.02125 20.1119 7.8824 20.1688C7.74356 20.2256 7.59487 20.2545 7.44484 20.2538H4.02927C3.87253 20.2646 3.71524 20.243 3.56718 20.1905C3.41912 20.1379 3.28344 20.0555 3.16859 19.9483C3.05374 19.8411 2.96215 19.7114 2.89953 19.5673C2.83692 19.4233 2.80461 19.2678 2.80461 19.1107C2.80461 18.9536 2.83692 18.7982 2.89953 18.6541C2.96215 18.51 3.05374 18.3803 3.16859 18.2731C3.28344 18.1659 3.41912 18.0835 3.56718 18.0309C3.71524 17.9784 3.87253 17.9568 4.02927 17.9676H7.44484C7.5946 17.9676 7.74292 17.9971 7.88128 18.0544C8.01963 18.1117 8.14533 18.1958 8.25123 18.3017C8.35712 18.4075 8.4411 18.5333 8.49841 18.6716C8.55572 18.81 8.58525 18.9583 8.58525 19.108C8.58831 19.2642 8.55954 19.4193 8.50073 19.564C8.44192 19.7087 8.35428 19.8399 8.24314 19.9497L8.25394 19.9225ZM8.25394 16.4037C8.1485 16.5112 8.02259 16.5963 7.8836 16.6542C7.74461 16.712 7.59538 16.7413 7.44484 16.7404H4.02927C3.72539 16.7404 3.43391 16.6197 3.21904 16.4048C3.00416 16.1899 2.88349 15.8985 2.88349 15.5946C2.88349 15.2907 3.00416 14.9993 3.21904 14.7844C3.43391 14.5696 3.72539 14.4489 4.02927 14.4489H7.44484C7.59531 14.4496 7.74419 14.4799 7.88293 14.5381C8.02168 14.5964 8.14759 14.6814 8.25348 14.7883C8.35937 14.8952 8.44315 15.0219 8.50007 15.1612C8.55699 15.3005 8.58596 15.4496 8.58525 15.6001C8.5881 15.7546 8.55918 15.908 8.50033 16.0509C8.44149 16.1939 8.35397 16.3232 8.24314 16.4309L8.25394 16.4037ZM9.5138 12.8958C9.40653 13.0019 9.27932 13.0858 9.13954 13.1427C8.99976 13.1995 8.85015 13.2282 8.69926 13.227H4.02927C3.87253 13.2379 3.71524 13.2163 3.56718 13.1638C3.41912 13.1112 3.28344 13.0288 3.16859 12.9216C3.05374 12.8144 2.96215 12.6847 2.89953 12.5406C2.83692 12.3965 2.80461 12.2411 2.80461 12.084C2.80461 11.9269 2.83692 11.7714 2.89953 11.6273C2.96215 11.4832 3.05374 11.3536 3.16859 11.2464C3.28344 11.1392 3.41912 11.0567 3.56718 11.0042C3.71524 10.9516 3.87253 10.9301 4.02927 10.9409H8.69926C8.84973 10.9402 8.99886 10.9691 9.13815 11.026C9.27743 11.083 9.40411 11.1668 9.51101 11.2727C9.61791 11.3786 9.70294 11.5045 9.76118 11.6432C9.81942 11.782 9.84976 11.9308 9.85047 12.0813C9.85251 12.2378 9.82277 12.393 9.76304 12.5377C9.7033 12.6824 9.61479 12.8135 9.50293 12.923L9.5138 12.8958Z" fill="white"/>
<path d="M25.5821 6.99311L22.4272 4.6364C22.3188 4.55511 22.1954 4.49596 22.0642 4.46233C21.9329 4.42871 21.7963 4.42126 21.6622 4.44042C21.5281 4.45959 21.399 4.50496 21.2825 4.57399C21.1659 4.64302 21.064 4.73436 20.9827 4.84275L19.2559 7.15061L24.067 10.7509L25.7939 8.43757C25.8756 8.32912 25.935 8.20552 25.9686 8.07395C26.0022 7.94239 26.0093 7.80548 25.9896 7.67113C25.9699 7.53678 25.9238 7.40765 25.8538 7.29127C25.7839 7.17489 25.6915 7.07354 25.5821 6.99311Z" fill="white"/>
<path d="M12.9451 15.9041L12.5542 19.1623C12.5264 19.3996 12.5615 19.64 12.6559 19.8595C12.7503 20.079 12.9007 20.2698 13.0921 20.4128C13.2835 20.5558 13.5092 20.646 13.7464 20.6743C13.9837 20.7026 14.2242 20.6681 14.4439 20.5741L17.4631 19.2817C17.6305 19.2117 17.7806 19.1061 17.903 18.9722L13.1135 15.3937C13.0199 15.5491 12.9623 15.7235 12.9451 15.9041Z" fill="white"/>
<path d="M18.8672 7.5904L13.4453 14.8459L18.2563 18.4411L23.6782 11.1855L18.8672 7.5904Z" fill="white"/>
</g>
<defs>
<clipPath id="clip0_124_2205">
<rect width="26" height="23.5292" fill="white" transform="translate(0 0.900391)"/>
</clipPath>
</defs>
</svg>
