<svg width="20" height="18" viewBox="0 0 20 18" fill="none" xmlns="http://www.w3.org/2000/svg">
<g clip-path="url(#clip0_156_2513)">
<path d="M15.7802 3.58413H10.0513C9.84248 3.58473 9.637 3.53363 9.45428 3.4357C9.27157 3.33777 9.11772 3.19622 9.00741 3.02456L8.58466 2.36478C8.26209 1.86684 7.81427 1.45623 7.28313 1.17142C6.75199 0.886615 6.15488 0.736952 5.54768 0.736328H2.95936C2.1745 0.736328 1.42175 1.03813 0.866776 1.57533C0.311797 2.11252 0 2.84104 0 3.60074V14.3488C0 15.1085 0.311797 15.8371 0.866776 16.3743C1.42175 16.9115 2.1745 17.2133 2.95936 17.2133H6.71241C6.05208 16.5157 5.68581 15.604 5.68575 14.6579V9.21285C5.68575 8.20431 6.09905 7.23689 6.835 6.52296C7.57095 5.80903 8.56938 5.40685 9.61131 5.40464H16.8414C17.4794 5.40447 18.1076 5.55651 18.6704 5.84728C18.5299 5.20639 18.166 4.6317 17.6398 4.21965C17.1136 3.80759 16.457 3.58326 15.7802 3.58413ZM2.89027 3.6509C2.89027 3.80816 2.82579 3.959 2.71091 4.0702C2.59603 4.18139 2.4402 4.24381 2.27774 4.24381C2.11527 4.24381 1.95944 4.18139 1.84456 4.0702C1.72968 3.959 1.6652 3.80816 1.6652 3.6509V2.81578C1.6652 2.65852 1.72968 2.50768 1.84456 2.39648C1.95944 2.28529 2.11527 2.22287 2.27774 2.22287C2.4402 2.22287 2.59603 2.28529 2.71091 2.39648C2.82579 2.50768 2.89027 2.65852 2.89027 2.81578V3.6509ZM4.89197 3.6509C4.89197 3.80816 4.82738 3.959 4.7125 4.0702C4.59762 4.18139 4.44189 4.24381 4.27943 4.24381C4.11697 4.24381 3.96113 4.18139 3.84625 4.0702C3.73137 3.959 3.66679 3.80816 3.66679 3.6509V2.81578C3.66679 2.65852 3.73137 2.50768 3.84625 2.39648C3.96113 2.28529 4.11697 2.22287 4.27943 2.22287C4.44189 2.22287 4.59762 2.28529 4.7125 2.39648C4.82738 2.50768 4.89197 2.65852 4.89197 2.81578V3.6509ZM6.90219 3.6509C6.90219 3.80816 6.83771 3.959 6.72283 4.0702C6.60795 4.18139 6.45212 4.24381 6.28965 4.24381C6.12719 4.24381 5.97136 4.18139 5.85648 4.0702C5.7416 3.959 5.67712 3.80816 5.67712 3.6509V2.81578C5.67712 2.65852 5.7416 2.50768 5.85648 2.39648C5.97136 2.28529 6.12719 2.22287 6.28965 2.22287C6.45212 2.22287 6.60795 2.28529 6.72283 2.39648C6.83771 2.50768 6.90219 2.65852 6.90219 2.81578V3.6509Z" fill="white"/>
<path d="M16.8413 6.65723H9.61129C8.91939 6.6682 8.25981 6.94259 7.77536 7.42089C7.29092 7.89918 7.0206 8.54294 7.02296 9.21275V14.6578C7.0206 15.3276 7.29092 15.9712 7.77536 16.4495C8.25981 16.9278 8.91939 17.2022 9.61129 17.2132H16.8413C17.1876 17.2132 17.5306 17.147 17.8504 17.0185C18.1702 16.89 18.4607 16.7016 18.7052 16.4642C18.9496 16.2268 19.1432 15.945 19.2749 15.635C19.4067 15.325 19.474 14.993 19.4728 14.6578V9.21275C19.474 8.87756 19.4067 8.54541 19.2749 8.23542C19.1432 7.92542 18.9496 7.64362 18.7052 7.40621C18.4607 7.1688 18.1702 6.98047 17.8504 6.85194C17.5306 6.72341 17.1876 6.65722 16.8413 6.65723ZM15.9786 12.5532H13.8734V14.5909C13.8734 14.7548 13.8061 14.912 13.6864 15.0279C13.5667 15.1438 13.4043 15.2089 13.235 15.2089C13.0657 15.2089 12.9032 15.1438 12.7835 15.0279C12.6638 14.912 12.5964 14.7548 12.5964 14.5909V12.5532H10.4913C10.322 12.5532 10.1596 12.4881 10.0398 12.3722C9.9201 12.2563 9.85289 12.0992 9.85289 11.9353C9.85289 11.7714 9.9201 11.6141 10.0398 11.4982C10.1596 11.3823 10.322 11.3173 10.4913 11.3173H12.5964V9.27953C12.5964 9.11563 12.6638 8.95849 12.7835 8.8426C12.9032 8.7267 13.0657 8.66154 13.235 8.66154C13.4043 8.66154 13.5667 8.7267 13.6864 8.8426C13.8061 8.95849 13.8734 9.11563 13.8734 9.27953V11.3173H15.9786C16.1479 11.3173 16.3103 11.3823 16.4301 11.4982C16.5498 11.6141 16.617 11.7714 16.617 11.9353C16.617 12.0992 16.5498 12.2563 16.4301 12.3722C16.3103 12.4881 16.1479 12.5532 15.9786 12.5532Z" fill="white"/>
<rect x="8.98755" y="8.22559" width="8.98745" height="7.48954" fill="white"/>
</g>
<defs>
<clipPath id="clip0_156_2513">
<rect width="19.4728" height="16.477" fill="white" transform="translate(0 0.736328)"/>
</clipPath>
</defs>
</svg>
