<svg width="14" height="16" viewBox="0 0 14 16" fill="none" xmlns="http://www.w3.org/2000/svg">
<path fill-rule="evenodd" clip-rule="evenodd" d="M0 3.50078C0 3.11418 0.313401 2.80078 0.7 2.80078H13.3C13.6866 2.80078 14 3.11418 14 3.50078C14 3.88738 13.6866 4.20078 13.3 4.20078H0.7C0.313401 4.20078 0 3.88738 0 3.50078Z" fill="#A1A1A1"/>
<path fill-rule="evenodd" clip-rule="evenodd" d="M5.60234 1.4C5.41669 1.4 5.23864 1.47375 5.10737 1.60503C4.97609 1.7363 4.90234 1.91435 4.90234 2.1V3.5C4.90234 3.8866 4.58894 4.2 4.20234 4.2C3.81574 4.2 3.50234 3.8866 3.50234 3.5V2.1C3.50234 1.54305 3.72359 1.0089 4.11742 0.615076C4.51125 0.221249 5.04539 0 5.60234 0H8.40234C8.9593 0 9.49344 0.221249 9.88727 0.615076C10.2811 1.0089 10.5023 1.54305 10.5023 2.1V3.5C10.5023 3.8866 10.1889 4.2 9.80234 4.2C9.41574 4.2 9.10234 3.8866 9.10234 3.5V2.1C9.10234 1.91435 9.02859 1.7363 8.89732 1.60503C8.76604 1.47375 8.588 1.4 8.40234 1.4H5.60234ZM2.10234 2.8C2.48894 2.8 2.80234 3.1134 2.80234 3.5V13.3C2.80234 13.4857 2.87609 13.6637 3.00737 13.795C3.13864 13.9263 3.31669 14 3.50234 14H10.5023C10.688 14 10.866 13.9263 10.9973 13.795C11.1286 13.6637 11.2023 13.4857 11.2023 13.3V3.5C11.2023 3.1134 11.5157 2.8 11.9023 2.8C12.2889 2.8 12.6023 3.1134 12.6023 3.5V13.3C12.6023 13.857 12.3811 14.3911 11.9873 14.7849C11.5934 15.1788 11.0593 15.4 10.5023 15.4H3.50234C2.94539 15.4 2.41125 15.1788 2.01742 14.7849C1.62359 14.3911 1.40234 13.857 1.40234 13.3V3.5C1.40234 3.1134 1.71574 2.8 2.10234 2.8Z" fill="#A1A1A1"/>
<path fill-rule="evenodd" clip-rule="evenodd" d="M5.60234 6.30078C5.98894 6.30078 6.30234 6.61418 6.30234 7.00078V11.2008C6.30234 11.5874 5.98894 11.9008 5.60234 11.9008C5.21574 11.9008 4.90234 11.5874 4.90234 11.2008V7.00078C4.90234 6.61418 5.21574 6.30078 5.60234 6.30078Z" fill="#A1A1A1"/>
<path fill-rule="evenodd" clip-rule="evenodd" d="M8.39922 6.30078C8.78582 6.30078 9.09922 6.61418 9.09922 7.00078V11.2008C9.09922 11.5874 8.78582 11.9008 8.39922 11.9008C8.01262 11.9008 7.69922 11.5874 7.69922 11.2008V7.00078C7.69922 6.61418 8.01262 6.30078 8.39922 6.30078Z" fill="#A1A1A1"/>
</svg>
