<svg width="27" height="26" viewBox="0 0 27 26" fill="none" xmlns="http://www.w3.org/2000/svg">
<circle cx="13.6417" cy="12.8126" r="12.669" fill="white"/>
<g clip-path="url(#clip0_0_1)">
<path d="M16.5053 4.25684H10.1163C8.78061 4.25846 7.50008 4.7898 6.55558 5.7343C5.61109 6.67879 5.07975 7.95933 5.07812 9.29505V15.6758C5.07975 17.0115 5.61109 18.292 6.55558 19.2365C7.50008 20.181 8.78061 20.7124 10.1163 20.714H16.4971C17.8328 20.7124 19.1133 20.181 20.0578 19.2365C21.0023 18.292 21.5336 17.0115 21.5353 15.6758V9.29505C21.5342 7.96058 21.0042 6.68095 20.0613 5.73657C19.1185 4.7922 17.8397 4.26009 16.5053 4.25684ZM10.1245 6.30655H16.5053C17.2975 6.30763 18.057 6.62284 18.6172 7.18306C19.1775 7.74327 19.4927 8.50278 19.4938 9.29505V15.4442C19.4325 15.3691 19.3639 15.3004 19.2888 15.2392L17.9237 14.1139C17.6779 13.9118 17.3713 13.7981 17.0531 13.7911C16.735 13.784 16.4237 13.884 16.1691 14.075L15.093 14.8846C14.8127 15.0944 14.4647 15.1934 14.1159 15.1623C13.7671 15.1313 13.4421 14.9726 13.2032 14.7165L11.0981 12.4618C10.9665 12.3206 10.8075 12.2077 10.6308 12.1301C10.454 12.0524 10.2633 12.0117 10.0702 12.0104C9.87718 12.009 9.68589 12.0471 9.50808 12.1223C9.33026 12.1974 9.16967 12.3081 9.03612 12.4475L7.13604 14.4275V9.30323C7.13495 8.51096 7.44807 7.75059 8.00675 7.18884C8.56542 6.62708 9.32406 6.3098 10.1163 6.30655H10.1245Z" fill="#24AA69"/>
<path d="M18.152 10.8763C18.5891 9.821 18.088 8.6112 17.0327 8.1741C15.9774 7.73699 14.7676 8.2381 14.3305 9.29337C13.8934 10.3486 14.3945 11.5585 15.4498 11.9956C16.5051 12.4327 17.7149 11.9315 18.152 10.8763Z" fill="#24AA69"/>
</g>
<defs>
<clipPath id="clip0_0_1">
<rect width="16.4571" height="16.4571" fill="white" transform="translate(5.08594 4.25684)"/>
</clipPath>
</defs>
</svg>
