<svg width="25" height="25" viewBox="0 0 25 25" fill="none" xmlns="http://www.w3.org/2000/svg">
<circle cx="12.3171" cy="12.3171" r="12.3171" fill="white"/>
<path d="M3.79102 9.33565C3.79102 8.36545 4.57752 7.57894 5.54772 7.57894C6.21311 7.57894 6.8214 7.203 7.11897 6.60786L7.89672 5.05236C8.0572 4.7314 8.13744 4.57092 8.2399 4.43921C8.48805 4.12023 8.8426 3.9011 9.23888 3.82181C9.40251 3.78906 9.58193 3.78906 9.94077 3.78906H14.6957C15.0546 3.78906 15.234 3.78906 15.3976 3.82181C15.7939 3.9011 16.1484 4.12023 16.3966 4.43921C16.4991 4.57092 16.5793 4.7314 16.7398 5.05236L17.5175 6.60786C17.8151 7.203 18.4234 7.57894 19.0888 7.57894C20.059 7.57894 20.8455 8.36545 20.8455 9.33565V14.0759C20.8455 16.2829 20.8455 17.3864 20.2028 18.1056C20.1398 18.1761 20.073 18.2429 20.0025 18.3059C19.2833 18.9486 18.1798 18.9486 15.9728 18.9486H8.66372C6.45668 18.9486 5.35315 18.9486 4.63402 18.3059C4.56354 18.2429 4.49666 18.1761 4.43367 18.1056C3.79102 17.3864 3.79102 16.2829 3.79102 14.0759V9.33565Z" stroke="#24AA69" stroke-width="1.2763"/>
<path d="M14.275 16.1064H12.4275L11.9101 14.5544H8.47366L7.95634 16.1064H6.12109L9.13879 7.48438H11.245L14.275 16.1064ZM10.1981 9.4428L9.01561 12.9655H11.3805L10.1981 9.4428Z" fill="#24AA69"/>
<path d="M15.1122 16.1064V7.48438H16.812V16.1064H15.1122Z" fill="#24AA69"/>
</svg>
