<svg width="16" height="20" viewBox="0 0 16 20" fill="none" xmlns="http://www.w3.org/2000/svg">
<g clip-path="url(#clip0_1362_11134)">
<path d="M13.6708 2.47493L7.32128 0.718091C6.94189 0.61499 6.54464 0.603108 6.1601 0.683372C5.77556 0.763637 5.41398 0.933911 5.10314 1.18109C4.7923 1.42826 4.54047 1.74575 4.36705 2.10916C4.19364 2.47257 4.10326 2.87223 4.10281 3.27737V6.3257C4.10281 6.42393 4.14057 6.51812 4.20783 6.58757C4.27508 6.65703 4.36629 6.69605 4.4614 6.69605C4.55652 6.69605 4.64778 6.65703 4.71503 6.58757C4.78229 6.51812 4.82004 6.42393 4.82004 6.3257V3.3391C4.81232 2.8858 4.95511 2.44343 5.22465 2.08557C5.39689 1.86048 5.61624 1.6786 5.86628 1.5536C6.11633 1.4286 6.39057 1.36372 6.66837 1.36384C6.83337 1.36215 6.99765 1.38617 7.15571 1.43507L13.5053 3.18716C13.9014 3.29276 14.2521 3.53171 14.5019 3.86623C14.7517 4.20075 14.8864 4.61174 14.8847 5.03418V14.9057C14.8885 15.3298 14.7547 15.7429 14.5047 16.0794C14.2548 16.4158 13.9029 16.6562 13.5053 16.7622L7.15571 18.5191C6.85186 18.6055 6.5316 18.6098 6.22565 18.5317C5.91971 18.4535 5.63836 18.2955 5.40858 18.0727C5.21691 17.881 5.06568 17.6505 4.9644 17.3955C4.86312 17.1406 4.81397 16.8668 4.82004 16.5913V12.2087C4.82004 12.1105 4.78229 12.0163 4.71503 11.9468C4.64778 11.8774 4.55652 11.8383 4.4614 11.8383C4.36629 11.8383 4.27508 11.8774 4.20783 11.9468C4.14057 12.0163 4.10281 12.1105 4.10281 12.2087V16.6625C4.10085 17.0705 4.19078 17.4733 4.36554 17.8392C4.5403 18.2051 4.79506 18.524 5.10971 18.7707C5.55525 19.1281 6.10422 19.3204 6.66837 19.3167C6.89468 19.3168 7.12012 19.2881 7.33964 19.2313L13.6892 17.4744C14.2359 17.322 14.7186 16.9877 15.0627 16.5234C15.4068 16.059 15.5931 15.4904 15.5927 14.9057V5.04844C15.593 4.46039 15.4045 3.88883 15.0568 3.42317C14.709 2.95752 14.2216 2.62404 13.6708 2.47493Z" fill="#FFC978"/>
<path d="M15.5695 5.3164V14.6228C15.5701 15.0975 15.419 15.559 15.1397 15.9359C14.8603 16.3128 14.4684 16.584 14.0246 16.7073L8.04745 18.3644C7.73815 18.4496 7.414 18.4602 7.10011 18.3954C6.78621 18.3305 6.49101 18.192 6.23723 17.9905C5.98346 17.7891 5.77792 17.53 5.63658 17.2334C5.49524 16.9368 5.42188 16.6105 5.42212 16.28V12.4814H6.77845C6.66842 12.7846 6.61842 13.1075 6.63135 13.431C6.64836 13.9288 6.80798 14.4102 7.09006 14.8141C7.37214 15.2181 7.76399 15.5266 8.21594 15.7005C8.66789 15.8744 9.15962 15.9059 9.6289 15.7909C10.0982 15.676 10.5239 15.4199 10.8521 15.0549L13.9005 11.6695C13.9388 11.6262 13.9741 11.5802 14.0062 11.5318C14.043 11.4843 14.0798 11.4416 14.1165 11.3846L14.1625 11.3134C14.2018 11.2493 14.2372 11.1827 14.2683 11.114C14.2982 11.0679 14.3228 11.0185 14.3418 10.9667C14.3563 10.9377 14.3687 10.9076 14.3786 10.8765C14.3786 10.8101 14.4246 10.7483 14.4476 10.6581C14.4669 10.6023 14.4822 10.5452 14.4936 10.4872V10.4065C14.5076 10.3296 14.5168 10.2519 14.5212 10.1738C14.5234 10.1517 14.5234 10.1294 14.5212 10.1073C14.5234 10.0964 14.5234 10.0851 14.5212 10.0741V10.0361V9.85092C14.5248 9.80193 14.5248 9.75272 14.5212 9.70373C14.5254 9.64049 14.5254 9.57702 14.5212 9.51379V9.42357L14.4706 9.23841C14.4706 9.17194 14.4292 9.11021 14.4108 9.05323L14.374 8.95826C14.374 8.90603 14.328 8.8538 14.2867 8.77782C14.2572 8.72079 14.225 8.66533 14.1901 8.61165L14.1442 8.53566C14.1138 8.48599 14.0783 8.43984 14.0384 8.39798C14.0045 8.34666 13.9677 8.2975 13.9281 8.25078L10.8797 4.87007C10.5518 4.50538 10.1265 4.24929 9.65758 4.1342C9.18871 4.01911 8.69729 4.05018 8.24552 4.22349C7.79374 4.39679 7.40189 4.70454 7.11947 5.10783C6.83706 5.51112 6.67678 5.99184 6.6589 6.48919C6.64598 6.81271 6.69598 7.13563 6.80601 7.43883H5.44968V3.64028C5.44923 3.30978 5.52254 2.98364 5.66391 2.68714C5.80527 2.39063 6.01086 2.13175 6.26479 1.9306C6.51872 1.72944 6.81412 1.59144 7.12806 1.52727C7.442 1.4631 7.76603 1.47448 8.07501 1.56057L14.0522 3.21771C14.4935 3.34625 14.8815 3.6216 15.1558 4.00106C15.4302 4.38052 15.5755 4.84289 15.5695 5.3164Z" fill="url(#paint0_linear_1362_11134)"/>
<path d="M8.0248 5.44228C7.73061 5.72517 7.55717 6.11704 7.54252 6.53189C7.52786 6.94674 7.67323 7.35065 7.94668 7.65492L8.62254 8.40514H2.33731C1.93491 8.40514 1.54902 8.57023 1.26447 8.86408C0.979926 9.15793 0.820068 9.55647 0.820068 9.97204C0.820068 10.3876 0.979926 10.7861 1.26447 11.08C1.54902 11.3739 1.93491 11.5389 2.33731 11.5389H8.62254L7.94668 12.2892C7.67292 12.5939 7.52759 12.9985 7.54268 13.4139C7.55777 13.8293 7.73201 14.2215 8.0271 14.5042C8.3222 14.7869 8.71398 14.937 9.11622 14.9214C9.51847 14.9058 9.89824 14.7258 10.172 14.4211L13.2158 11.0404L13.2755 10.9597C13.3031 10.9264 13.3307 10.8979 13.3537 10.8647L13.3813 10.8172L13.4456 10.6985C13.4456 10.6653 13.4824 10.632 13.4962 10.5988C13.4974 10.5814 13.4974 10.564 13.4962 10.5466C13.4962 10.5038 13.5238 10.4564 13.5376 10.4136L13.5698 10.3092C13.5698 10.3092 13.5698 10.2712 13.5698 10.2522C13.5723 10.2079 13.5723 10.1635 13.5698 10.1192C13.5721 10.0797 13.5721 10.0401 13.5698 10.0005C13.5698 10.0005 13.5698 10.0005 13.5698 9.97204C13.5698 9.97204 13.5698 9.97204 13.5698 9.94355C13.5721 9.90402 13.5721 9.86438 13.5698 9.82485C13.5723 9.78057 13.5723 9.73619 13.5698 9.69191C13.5698 9.69191 13.5698 9.6539 13.5698 9.63491C13.5698 9.61592 13.5698 9.56369 13.5376 9.52571C13.5054 9.48772 13.5376 9.44023 13.4962 9.3975C13.4974 9.38011 13.4974 9.36266 13.4962 9.34528C13.4962 9.31204 13.4594 9.27882 13.4456 9.24558L13.3813 9.12688L13.3537 9.07938C13.3537 9.04614 13.3031 9.01765 13.2755 8.98441C13.2582 8.95554 13.2382 8.92851 13.2158 8.9037L10.172 5.52299C10.0363 5.37185 9.87301 5.24985 9.69157 5.16398C9.51012 5.0781 9.31411 5.03002 9.11465 5.02252C8.91519 5.01502 8.71621 5.04825 8.5292 5.12027C8.3422 5.1923 8.1708 5.30173 8.0248 5.44228Z" fill="#FFC978"/>
</g>
<defs>
<linearGradient id="paint0_linear_1362_11134" x1="10.4935" y1="20.145" x2="10.4935" y2="4.24806" gradientUnits="userSpaceOnUse">
<stop stop-color="#FF6E11"/>
<stop offset="0.24" stop-color="#FF7311"/>
<stop offset="0.54" stop-color="#FF8211"/>
<stop offset="0.85" stop-color="#FF9A11"/>
<stop offset="1" stop-color="#FFA811"/>
</linearGradient>
<clipPath id="clip0_1362_11134">
<rect width="14.7544" height="18.6889" fill="white" transform="translate(0.820068 0.625)"/>
</clipPath>
</defs>
</svg>
