<svg width="25" height="25" viewBox="0 0 25 25" fill="none" xmlns="http://www.w3.org/2000/svg">
<circle cx="12.0116" cy="12.0116" r="12.0116" fill="#0290FF"/>
<path d="M16.5924 6.56975C16.5924 3.88907 14.4963 1.71594 11.9105 1.71594C9.3247 1.71594 7.22852 3.88907 7.22852 6.56975V9.34736C7.22852 12.028 9.3247 14.2012 11.9105 14.2012C14.4963 14.2012 16.5924 12.028 16.5924 9.34736V6.56975Z" fill="white"/>
<path d="M17.6772 12.0047C17.5061 12.0031 17.3377 12.0472 17.1886 12.1328C17.0395 12.2184 16.915 12.3424 16.8276 12.4924C16.3301 13.3741 15.6137 14.1065 14.7507 14.6157C13.8876 15.125 12.9082 15.3931 11.9113 15.3931C10.9143 15.3931 9.93497 15.125 9.07188 14.6157C8.20879 14.1065 7.49243 13.3741 6.99498 12.4924C6.90769 12.3422 6.78324 12.2181 6.63411 12.1325C6.48499 12.0469 6.31643 12.0028 6.14535 12.0047C5.97112 12.0045 5.79988 12.0509 5.64874 12.1394C5.4976 12.2278 5.37186 12.3552 5.28407 12.5088C5.19628 12.6624 5.14951 12.8368 5.14846 13.0146C5.1474 13.1924 5.19208 13.3674 5.27803 13.5221C5.86713 14.5596 6.68177 15.4452 7.65919 16.1107C8.63661 16.7763 9.75071 17.2039 10.9156 17.3606V19.3364H8.60792C8.34386 19.3364 8.09061 19.4434 7.90389 19.634C7.71717 19.8245 7.61227 20.083 7.61227 20.3525C7.61227 20.6219 7.71717 20.8804 7.90389 21.071C8.09061 21.2615 8.34386 21.3686 8.60792 21.3686H15.2279C15.4919 21.3686 15.7452 21.2615 15.9319 21.071C16.1186 20.8804 16.2235 20.6219 16.2235 20.3525C16.2235 20.083 16.1186 19.8245 15.9319 19.634C15.7452 19.4434 15.4919 19.3364 15.2279 19.3364H12.9069V17.3606C14.0717 17.2034 15.1856 16.7756 16.1629 16.1101C17.1403 15.4446 17.955 14.5593 18.5445 13.5221C18.6305 13.3674 18.6751 13.1924 18.6741 13.0146C18.673 12.8368 18.6263 12.6624 18.5385 12.5088C18.4507 12.3552 18.3249 12.2278 18.1738 12.1394C18.0227 12.0509 17.8514 12.0045 17.6772 12.0047Z" fill="white"/>
</svg>
