<svg width="36" height="37" viewBox="0 0 36 37" fill="none" xmlns="http://www.w3.org/2000/svg">
<circle cx="17.9465" cy="18.6809" r="17.9465" fill="#FFA411"/>
<path d="M23.3911 12.6798C23.3911 9.54294 20.9381 7 17.9123 7C14.8865 7 12.4336 9.54294 12.4336 12.6798V15.9301C12.4336 19.067 14.8865 21.61 17.9123 21.61C20.9381 21.61 23.3911 19.067 23.3911 15.9301V12.6798Z" fill="white"/>
<path d="M24.6609 19.043C24.4607 19.0411 24.2636 19.0928 24.0891 19.193C23.9147 19.2931 23.769 19.4382 23.6667 19.6138C23.0846 20.6455 22.2463 21.5025 21.2363 22.0984C20.2263 22.6943 19.0803 23.0081 17.9137 23.0081C16.7471 23.0081 15.6011 22.6943 14.5911 22.0984C13.5812 21.5025 12.7429 20.6455 12.1608 19.6138C12.0586 19.438 11.913 19.2928 11.7385 19.1926C11.564 19.0924 11.3668 19.0409 11.1666 19.043C10.9627 19.0428 10.7623 19.0971 10.5854 19.2006C10.4086 19.3041 10.2614 19.4532 10.1587 19.6329C10.056 19.8127 10.0013 20.0168 10 20.2248C9.99878 20.4329 10.0511 20.6376 10.1516 20.8186C10.841 22.0327 11.7943 23.0691 12.938 23.8478C14.0818 24.6266 15.3855 25.127 16.7486 25.3104V27.6224H14.0482C13.7392 27.6224 13.4429 27.7477 13.2244 27.9707C13.0059 28.1937 12.8831 28.4961 12.8831 28.8114C12.8831 29.1268 13.0059 29.4292 13.2244 29.6522C13.4429 29.8752 13.7392 30.0004 14.0482 30.0004H21.7948C22.1038 30.0004 22.4001 29.8752 22.6186 29.6522C22.8371 29.4292 22.9599 29.1268 22.9599 28.8114C22.9599 28.4961 22.8371 28.1937 22.6186 27.9707C22.4001 27.7477 22.1038 27.6224 21.7948 27.6224H19.0788V25.3104C20.4418 25.1264 21.7452 24.6258 22.8889 23.8471C24.0326 23.0684 24.986 22.0323 25.6758 20.8186C25.7764 20.6376 25.8287 20.4329 25.8274 20.2248C25.8262 20.0168 25.7715 19.8127 25.6687 19.6329C25.566 19.4532 25.4189 19.3041 25.242 19.2006C25.0652 19.0971 24.8648 19.0428 24.6609 19.043Z" fill="white"/>
</svg>
