<svg width="19" height="20" viewBox="0 0 19 20" fill="none" xmlns="http://www.w3.org/2000/svg">
<g clip-path="url(#clip0_258_8540)">
<path d="M10.6911 13.6952C11.0321 13.5334 11.3894 13.4083 11.757 13.322C11.7985 13.3119 11.8355 13.2883 11.8622 13.255C11.8889 13.2216 11.9038 13.1804 11.9046 13.1377V3.55865C11.9033 3.19664 11.9821 2.83881 12.1352 2.51068C12.2884 2.18255 12.5121 1.8922 12.7906 1.66035C12.8251 1.63137 12.8522 1.59464 12.8698 1.55318C12.8874 1.51171 12.895 1.46668 12.8918 1.42176C12.8887 1.37684 12.8749 1.33332 12.8517 1.29471C12.8285 1.2561 12.7965 1.2235 12.7583 1.1996C12.0957 0.785702 11.3296 0.566909 10.548 0.568367H4.16651C3.06511 0.568367 2.00881 1.00526 1.23 1.78294C0.451191 2.56061 0.0136719 3.61535 0.0136719 4.71515V13.9993C0.0136719 15.0991 0.451191 16.1539 1.23 16.9316C2.00881 17.7092 3.06511 18.1461 4.16651 18.1461H7.51645C7.55543 18.1456 7.59389 18.1372 7.62956 18.1214C7.66522 18.1057 7.69735 18.083 7.72404 18.0546C7.75073 18.0263 7.77145 17.9928 7.78493 17.9563C7.79842 17.9198 7.80439 17.8809 7.80253 17.842C7.75178 16.2248 8.84536 14.5568 10.6911 13.6952ZM3.76505 4.11618H9.57903C9.71371 4.11444 9.84714 4.14216 9.96995 4.19739C10.0928 4.25263 10.202 4.33406 10.2899 4.43593C10.3779 4.53779 10.4424 4.65763 10.479 4.78706C10.5156 4.91649 10.5234 5.05237 10.5019 5.18513C10.4594 5.40663 10.3397 5.60594 10.1639 5.74766C9.98824 5.88937 9.76793 5.96431 9.54212 5.95919H3.8112C3.58562 5.96339 3.36577 5.88809 3.19026 5.74653C3.01474 5.60498 2.89479 5.40622 2.85144 5.18513C2.83001 5.05314 2.83761 4.91807 2.8737 4.78931C2.90979 4.66055 2.97351 4.54117 3.06044 4.43947C3.14737 4.33776 3.25542 4.25617 3.37709 4.20035C3.49877 4.14452 3.63115 4.11579 3.76505 4.11618ZM6.75972 14.4831H3.8112C3.58562 14.4873 3.36577 14.412 3.19026 14.2705C3.01474 14.1289 2.89479 13.9302 2.85144 13.7091C2.82988 13.5763 2.83768 13.4404 2.87429 13.311C2.91091 13.1816 2.97547 13.0617 3.06341 12.9599C3.15136 12.858 3.26057 12.7766 3.38337 12.7213C3.50618 12.6661 3.63961 12.6384 3.77429 12.6401H6.71819C6.94182 12.6353 7.16011 12.7086 7.33535 12.8474C7.51059 12.9862 7.63176 13.1818 7.67795 13.4004C7.70171 13.5338 7.69571 13.6707 7.66039 13.8015C7.62508 13.9324 7.5613 14.0538 7.47362 14.1572C7.38593 14.2606 7.2765 14.3434 7.1531 14.3997C7.02971 14.4561 6.8954 14.4846 6.75972 14.4831ZM3.8112 10.2212C3.58562 10.2254 3.36577 10.1501 3.19026 10.0085C3.01474 9.86695 2.89479 9.66819 2.85144 9.4471C2.82988 9.31434 2.83768 9.17846 2.87429 9.04903C2.91091 8.9196 2.97547 8.79977 3.06341 8.6979C3.15136 8.59603 3.26057 8.5146 3.38337 8.45937C3.50618 8.40413 3.63961 8.37641 3.77429 8.37815H9.58827C9.72295 8.37641 9.85636 8.40413 9.97917 8.45937C10.102 8.5146 10.2112 8.59603 10.2991 8.6979C10.3871 8.79977 10.4516 8.9196 10.4882 9.04903C10.5249 9.17846 10.5327 9.31434 10.5111 9.4471C10.4686 9.66861 10.3489 9.86792 10.1732 10.0096C9.99746 10.1513 9.77715 10.2263 9.55134 10.2212H3.8112Z" fill="white"/>
<path d="M15.0936 3.55853C15.0936 3.38623 15.0251 3.22099 14.9031 3.09916C14.7811 2.97732 14.6156 2.90888 14.443 2.90888H14.4015C14.3725 2.90407 14.3428 2.90407 14.3138 2.90888C14.1581 2.92905 14.015 3.00518 13.9114 3.12306C13.8078 3.24094 13.7507 3.39249 13.7509 3.54934V15.1281C13.4978 15.053 13.235 15.0157 12.9711 15.0175C12.4519 15.0216 11.9399 15.1395 11.4714 15.363C10.1887 15.9666 9.45501 17.1692 9.69956 18.1737C9.72295 18.2788 9.75857 18.3808 9.80569 18.4777C9.80569 18.5192 9.84722 18.5607 9.87029 18.6022C9.9172 18.6836 9.97125 18.7607 10.0318 18.8325C10.184 19.0121 10.3707 19.1594 10.5809 19.2656C10.6659 19.3111 10.7538 19.3511 10.8439 19.3854C10.9392 19.4185 11.0362 19.4462 11.1346 19.4684C11.2363 19.4927 11.3396 19.5096 11.4438 19.519C11.5513 19.5262 11.6592 19.5262 11.7668 19.519C12.2859 19.5149 12.7979 19.397 13.2664 19.1735C13.7449 18.982 14.1647 18.6685 14.4837 18.2642C14.8028 17.8599 15.0099 17.379 15.0844 16.8697C15.0844 16.8697 15.0844 16.8375 15.0844 16.8237V8.39645C15.9842 9.53451 17.5807 10.4975 17.5576 12.124C17.5492 12.6436 17.478 13.1603 17.3454 13.6629C17.328 13.7224 17.325 13.7853 17.3364 13.8462C17.3478 13.9072 17.3733 13.9647 17.411 14.014C17.4488 14.0633 17.4975 14.1031 17.5535 14.1301C17.6094 14.1572 17.6709 14.1707 17.733 14.1697C17.7995 14.1702 17.8649 14.1529 17.9225 14.1197C17.9801 14.0865 18.0278 14.0385 18.0606 13.9808C18.6561 13.0106 18.9678 11.8934 18.9604 10.7555C18.9696 7.24456 15.0936 5.59046 15.0936 3.55853Z" fill="white"/>
</g>
<defs>
<clipPath id="clip0_258_8540">
<rect width="18.9692" height="18.9692" fill="white" transform="translate(0 0.568359)"/>
</clipPath>
</defs>
</svg>
