<svg width="22" height="22" viewBox="0 0 22 22" fill="none" xmlns="http://www.w3.org/2000/svg">
<g clip-path="url(#clip0_1_7073)">
<path d="M15.2653 22H6.73549C4.94848 22 3.23454 21.2907 1.97016 20.0278C0.705778 18.765 -0.0056341 17.0519 -0.0078125 15.2649V6.73507C-0.00563716 4.94949 0.704644 3.23764 1.96725 1.97504C3.22985 0.71244 4.94169 0.00217534 6.72728 0H15.2571C17.0432 0.00145017 18.7557 0.711392 20.0189 1.97407C21.2821 3.23675 21.9927 4.94901 21.9949 6.73507V15.2649C21.9928 17.0495 21.2832 18.7605 20.0218 20.023C18.7604 21.2854 17.05 21.9964 15.2653 22ZM6.73549 2.74007C5.67496 2.73934 4.65756 3.15974 3.90688 3.90888C3.15621 4.65801 2.73371 5.67455 2.73225 6.73507V15.2649C2.7337 16.324 3.15508 17.3393 3.90397 18.0882C4.65287 18.8371 5.66818 19.2585 6.72728 19.2599H15.2571C16.3167 19.2592 17.3327 18.8381 18.0822 18.0892C18.8317 17.3402 19.2534 16.3245 19.2549 15.2649V6.73507C19.2534 5.6755 18.8317 4.65979 18.0822 3.91082C17.3327 3.16184 16.3167 2.74079 15.2571 2.74007H6.73549Z" fill="white"/>
<path d="M10.8136 4.46387C9.48517 4.46387 8.18661 4.85784 7.08213 5.59592C5.97765 6.33399 5.11686 7.38303 4.60863 8.61036C4.1004 9.83769 3.96754 11.1882 4.2269 12.491C4.48626 13.7938 5.12616 14.9905 6.06568 15.9296C7.00519 16.8687 8.2021 17.5082 9.50504 17.767C10.808 18.0258 12.1584 17.8924 13.3855 17.3837C14.6127 16.875 15.6614 16.0137 16.399 14.9089C17.1366 13.8042 17.53 12.5054 17.5295 11.177C17.5295 10.2952 17.3557 9.42204 17.0182 8.60738C16.6807 7.79273 16.1859 7.05255 15.5623 6.42914C14.9386 5.80573 14.1982 5.31133 13.3834 4.97412C12.5686 4.63691 11.6954 4.46351 10.8136 4.46387ZM14.4387 12.3059L10.1669 14.772C9.93788 14.9042 9.67808 14.9739 9.41361 14.9739C9.14914 14.974 8.88932 14.9044 8.66024 14.7722C8.43117 14.6401 8.24092 14.4499 8.10858 14.2209C7.97625 13.992 7.90651 13.7322 7.90636 13.4677V8.5356C7.90651 8.27114 7.97625 8.01136 8.10858 7.78239C8.24092 7.55341 8.43117 7.3633 8.66024 7.23113C8.88932 7.09896 9.14914 7.0294 9.41361 7.02944C9.67808 7.02947 9.93788 7.09913 10.1669 7.23136L14.4387 9.69742C14.6681 9.82925 14.8586 10.0192 14.9911 10.2482C15.1237 10.4772 15.1935 10.7371 15.1935 11.0017C15.1935 11.2662 15.1237 11.5262 14.9911 11.7551C14.8586 11.9841 14.6681 12.1741 14.4387 12.3059Z" fill="white"/>
</g>
<defs>
<clipPath id="clip0_1_7073">
<rect width="22" height="22" fill="white"/>
</clipPath>
</defs>
</svg>
