<svg width="15" height="19" viewBox="0 0 15 19" fill="none" xmlns="http://www.w3.org/2000/svg">
<g clip-path="url(#clip0_1_6601)">
<path d="M10.4678 18.448H4.53216C3.33063 18.4465 2.17876 17.9685 1.32915 17.1189C0.479537 16.2692 0.00154737 15.1174 0 13.9158V5.35736C0.00154737 4.15583 0.479537 3.00396 1.32915 2.15435C2.17876 1.30474 3.33063 0.826743 4.53216 0.825195H10.4678C11.6694 0.826743 12.8212 1.30474 13.6708 2.15435C14.5205 3.00396 14.9985 4.15583 15 5.35736V13.9158C14.9985 15.1174 14.5205 16.2692 13.6708 17.1189C12.8212 17.9685 11.6694 18.4465 10.4678 18.448ZM4.53216 2.57958C3.79569 2.58036 3.0896 2.87328 2.56883 3.39404C2.04806 3.91481 1.75516 4.62088 1.75439 5.35736V13.9158C1.75516 14.6523 2.04806 15.3584 2.56883 15.8792C3.0896 16.3999 3.79569 16.6928 4.53216 16.6936H10.4678C11.2043 16.6928 11.9104 16.3999 12.4312 15.8792C12.9519 15.3584 13.2448 14.6523 13.2456 13.9158V5.35736C13.2448 4.62088 12.9519 3.91481 12.4312 3.39404C11.9104 2.87328 11.2043 2.58036 10.4678 2.57958H4.53216Z" fill="white"/>
<path d="M10.438 6.64696H4.54907C4.31642 6.64696 4.09331 6.55455 3.9288 6.39005C3.7643 6.22554 3.67188 6.00242 3.67188 5.76977C3.67188 5.53713 3.7643 5.314 3.9288 5.1495C4.09331 4.98499 4.31642 4.89258 4.54907 4.89258H10.438C10.6706 4.89258 10.8937 4.98499 11.0582 5.1495C11.2227 5.314 11.3152 5.53713 11.3152 5.76977C11.3152 6.00242 11.2227 6.22554 11.0582 6.39005C10.8937 6.55455 10.6706 6.64696 10.438 6.64696Z" fill="white"/>
<path d="M7.91749 14.2583H4.54907C4.31642 14.2583 4.09331 14.1659 3.9288 14.0014C3.7643 13.8369 3.67188 13.6137 3.67188 13.3811C3.67188 13.1485 3.7643 12.9253 3.9288 12.7608C4.09331 12.5963 4.31642 12.5039 4.54907 12.5039H7.91749C8.15014 12.5039 8.37325 12.5963 8.53776 12.7608C8.70227 12.9253 8.79469 13.1485 8.79469 13.3811C8.79469 13.6137 8.70227 13.8369 8.53776 14.0014C8.37325 14.1659 8.15014 14.2583 7.91749 14.2583Z" fill="white"/>
<path d="M10.438 10.4507H4.54907C4.31642 10.4507 4.09331 10.3582 3.9288 10.1937C3.7643 10.0292 3.67188 9.80613 3.67188 9.57348C3.67188 9.34084 3.7643 9.11771 3.9288 8.95321C4.09331 8.7887 4.31642 8.69629 4.54907 8.69629H10.438C10.6706 8.69629 10.8937 8.7887 11.0582 8.95321C11.2227 9.11771 11.3152 9.34084 11.3152 9.57348C11.3152 9.80613 11.2227 10.0292 11.0582 10.1937C10.8937 10.3582 10.6706 10.4507 10.438 10.4507Z" fill="white"/>
</g>
<defs>
<clipPath id="clip0_1_6601">
<rect width="15" height="17.6199" fill="white" transform="translate(0 0.825195)"/>
</clipPath>
</defs>
</svg>
