<svg width="50" height="51" viewBox="0 0 50 51" fill="none" xmlns="http://www.w3.org/2000/svg">
<circle cx="25" cy="25.8829" r="25" fill="#24AA69"/>
<g clip-path="url(#clip0_90_7872)">
<path d="M35.5398 25.3459H34.4228C33.9058 23.9194 33.0797 22.625 32.0039 21.5551C30.928 20.4853 29.6289 19.6666 28.1996 19.1575V22.8027C29.0437 23.2891 29.7772 23.946 30.3533 24.7316C30.9294 25.5172 31.3355 26.4141 31.5456 27.3654C31.6207 27.7394 31.8234 28.0756 32.119 28.3166C32.4146 28.5577 32.7848 28.6885 33.1662 28.6869H35.5398C36.6335 28.6869 37.6825 29.1213 38.4559 29.8947C39.2292 30.6681 39.6637 31.717 39.6637 32.8108C39.6637 33.9045 39.2292 34.9534 38.4559 35.7268C37.6825 36.5002 36.6335 36.9347 35.5398 36.9347H15.2046C14.1109 36.9347 13.062 36.5002 12.2886 35.7268C11.5152 34.9534 11.0807 33.9045 11.0807 32.8108C11.0807 31.717 11.5152 30.6681 12.2886 29.8947C13.062 29.1213 14.1109 28.6869 15.2046 28.6869H16.3914C16.7748 28.6875 17.1468 28.5567 17.4453 28.3162C17.7439 28.0757 17.951 27.7401 18.032 27.3654C18.2507 26.349 18.695 25.3948 19.332 24.5732C19.9689 23.7515 20.7823 23.0834 21.7121 22.6182V19.0428C20.2065 19.5204 18.8308 20.3376 17.6912 21.4314C16.5517 22.5251 15.6787 23.8661 15.1398 25.3509C13.242 25.4791 11.4643 26.3254 10.1684 27.7178C8.87257 29.1102 8.15587 30.9441 8.16413 32.8462C8.17239 34.7483 8.905 36.5758 10.2129 37.9569C11.5208 39.338 13.3058 40.1689 15.2046 40.2806H35.5398C37.438 40.1604 39.219 39.3216 40.5207 37.9349C41.8223 36.5482 42.5469 34.7177 42.5469 32.8157C42.5469 30.9138 41.8223 29.0833 40.5207 27.6966C39.219 26.3099 37.438 25.4711 35.5398 25.3509V25.3459Z" fill="white"/>
<path d="M19.9278 16.8089L23.209 13.5526V26.2634C23.1966 26.4908 23.2306 26.7183 23.3091 26.932C23.3875 27.1458 23.5088 27.3414 23.6653 27.5067C23.8219 27.6721 24.0106 27.8038 24.2197 27.8938C24.4289 27.9838 24.6542 28.0302 24.882 28.0302C25.1097 28.0302 25.335 27.9838 25.5442 27.8938C25.7534 27.8038 25.942 27.6721 26.0986 27.5067C26.2552 27.3414 26.3764 27.1458 26.4548 26.932C26.5333 26.7183 26.5674 26.4908 26.5549 26.2634V13.5576L29.8361 16.8139C30.1566 17.099 30.5743 17.2503 31.003 17.2367C31.4318 17.223 31.839 17.0454 32.1407 16.7405C32.4425 16.4356 32.6157 16.0265 32.6249 15.5976C32.634 15.1688 32.4783 14.7527 32.1898 14.4353L26.0563 8.35659L25.9964 8.31672C25.9355 8.25982 25.8687 8.20963 25.797 8.1671C25.7301 8.12082 25.6601 8.07917 25.5875 8.04244C25.5666 8.02803 25.545 8.01474 25.5227 8.00257C25.4703 7.98635 25.4171 7.97306 25.3632 7.9627C25.2853 7.93575 25.2052 7.91573 25.1238 7.90286C25.0425 7.89525 24.9607 7.89525 24.8795 7.90286C24.7999 7.89542 24.7197 7.89542 24.6401 7.90286C24.5587 7.91573 24.4786 7.93575 24.4008 7.9627C24.3459 7.9627 24.2911 7.96267 24.2362 8.00257C24.1814 8.04246 24.1963 8.03246 24.1714 8.04244C24.1004 8.07919 24.0321 8.12085 23.9669 8.1671C23.8945 8.2108 23.8261 8.26089 23.7625 8.31672L23.7026 8.35659L17.5742 14.4353C17.2857 14.7527 17.1299 15.1688 17.1391 15.5976C17.1482 16.0265 17.3215 16.4356 17.6232 16.7405C17.9249 17.0454 18.3321 17.223 18.7609 17.2367C19.1896 17.2503 19.6073 17.099 19.9278 16.8139V16.8089Z" fill="white"/>
</g>
<defs>
<clipPath id="clip0_90_7872">
<rect width="35.27" height="32.3927" fill="white" transform="translate(7.73047 7.88293)"/>
</clipPath>
</defs>
</svg>
