<svg width="57" height="57" viewBox="0 0 57 57" fill="none" xmlns="http://www.w3.org/2000/svg">
<circle cx="28.499" cy="28.6182" r="28.3818" fill="#FFA411"/>
<g clip-path="url(#clip0_1_5794)">
<path d="M38.2966 28.7689H37.16C36.6339 27.3175 35.7934 26.0003 34.6987 24.9117C33.604 23.8232 32.2822 22.9901 30.8278 22.4722V26.1812C31.6867 26.6761 32.433 27.3445 33.0192 28.1438C33.6054 28.9432 34.0186 29.8558 34.2324 30.8238C34.3088 31.2043 34.5151 31.5464 34.8159 31.7917C35.1166 32.0369 35.4933 32.1701 35.8814 32.1684H38.2966C39.4094 32.1684 40.4767 32.6105 41.2637 33.3974C42.0506 34.1843 42.4927 35.2516 42.4927 36.3645C42.4927 37.4774 42.0506 38.5447 41.2637 39.3316C40.4767 40.1185 39.4094 40.5606 38.2966 40.5606H17.6053C16.4924 40.5606 15.4251 40.1185 14.6382 39.3316C13.8512 38.5447 13.4091 37.4774 13.4091 36.3645C13.4091 35.2516 13.8512 34.1843 14.6382 33.3974C15.4251 32.6105 16.4924 32.1684 17.6053 32.1684H18.8128C19.2029 32.169 19.5814 32.0359 19.8852 31.7912C20.189 31.5465 20.3997 31.205 20.4821 30.8238C20.7047 29.7896 21.1568 28.8187 21.8049 27.9826C22.453 27.1466 23.2806 26.4668 24.2267 25.9935V22.3555C22.6947 22.8414 21.2949 23.6729 20.1354 24.7858C18.9759 25.8987 18.0877 27.2632 17.5393 28.774C15.6083 28.9044 13.7994 29.7656 12.4809 31.1824C11.1623 32.5992 10.4331 34.4651 10.4415 36.4005C10.4499 38.3359 11.1953 40.1954 12.5261 41.6007C13.8569 43.006 15.6732 43.8515 17.6053 43.9652H38.2966C40.2279 43.8428 42.0402 42.9894 43.3646 41.5783C44.6891 40.1673 45.4263 38.3048 45.4263 36.3696C45.4263 34.4343 44.6891 32.5718 43.3646 31.1608C42.0402 29.7498 40.2279 28.8963 38.2966 28.774V28.7689Z" fill="white"/>
<path d="M22.4102 20.0834L25.7489 16.7701V29.7035C25.7362 29.9348 25.7709 30.1663 25.8507 30.3838C25.9306 30.6014 26.0539 30.8003 26.2132 30.9686C26.3725 31.1368 26.5645 31.2709 26.7773 31.3625C26.9902 31.454 27.2194 31.5013 27.4511 31.5013C27.6829 31.5013 27.9122 31.454 28.125 31.3625C28.3378 31.2709 28.5298 31.1368 28.6891 30.9686C28.8484 30.8003 28.9717 30.6014 29.0516 30.3838C29.1314 30.1663 29.1661 29.9348 29.1534 29.7035V16.7752L32.4921 20.0885C32.8182 20.3786 33.2432 20.5326 33.6794 20.5187C34.1157 20.5048 34.53 20.3241 34.837 20.0138C35.144 19.7036 35.3204 19.2874 35.3296 18.851C35.3389 18.4146 35.1805 17.9913 34.887 17.6682L28.646 11.4831L28.5852 11.4425C28.5232 11.3846 28.4552 11.3336 28.3822 11.2903C28.3142 11.2432 28.2429 11.2008 28.1691 11.1634C28.1478 11.1488 28.1258 11.1353 28.1032 11.1229C28.0498 11.1064 27.9956 11.0929 27.9408 11.0823C27.8616 11.0549 27.78 11.0345 27.6972 11.0214C27.6145 11.0137 27.5313 11.0137 27.4486 11.0214C27.3676 11.0139 27.2861 11.0139 27.2051 11.0214C27.1223 11.0345 27.0408 11.0549 26.9615 11.0823C26.9057 11.0823 26.8499 11.0823 26.7941 11.1229C26.7383 11.1635 26.7535 11.1533 26.7281 11.1634C26.6559 11.2008 26.5864 11.2432 26.5201 11.2903C26.4464 11.3348 26.3768 11.3857 26.3121 11.4425L26.2512 11.4831L20.0154 17.6682C19.7218 17.9913 19.5634 18.4146 19.5727 18.851C19.5819 19.2874 19.7583 19.7036 20.0653 20.0138C20.3723 20.3241 20.7866 20.5048 21.2229 20.5187C21.6591 20.5326 22.0841 20.3786 22.4102 20.0885V20.0834Z" fill="white"/>
</g>
<defs>
<clipPath id="clip0_1_5794">
<rect width="35.8876" height="32.96" fill="white" transform="translate(10 11)"/>
</clipPath>
</defs>
</svg>
