<svg width="19" height="18" viewBox="0 0 19 18" fill="none" xmlns="http://www.w3.org/2000/svg">
<rect x="0.816895" y="0.0722656" width="17.7581" height="17.7581" rx="4.84311" fill="white"/>
<g clip-path="url(#clip0_156_15262)">
<path d="M13.4218 9.39322H13.0128C12.8234 8.8956 12.5209 8.444 12.127 8.07077C11.733 7.69755 11.2573 7.41192 10.734 7.23434V8.50602C11.0431 8.67568 11.3116 8.90485 11.5226 9.17891C11.7335 9.45298 11.8822 9.7659 11.9592 10.0978C11.9867 10.2282 12.0609 10.3455 12.1692 10.4296C12.2774 10.5137 12.4129 10.5594 12.5526 10.5588H13.4218C13.8223 10.5588 14.2063 10.7103 14.4895 10.9801C14.7727 11.2499 14.9318 11.6159 14.9318 11.9974C14.9318 12.379 14.7727 12.7449 14.4895 13.0147C14.2063 13.2845 13.8223 13.4361 13.4218 13.4361H5.97553C5.57504 13.4361 5.19095 13.2845 4.90775 13.0147C4.62456 12.7449 4.46546 12.379 4.46546 11.9974C4.46546 11.6159 4.62456 11.2499 4.90775 10.9801C5.19095 10.7103 5.57504 10.5588 5.97553 10.5588H6.41011C6.55049 10.559 6.6867 10.5134 6.79603 10.4295C6.90536 10.3456 6.98118 10.2285 7.01084 10.0978C7.09094 9.74319 7.25362 9.41031 7.48686 9.12366C7.7201 8.83701 8.01794 8.60394 8.3584 8.44165V7.19434C7.80709 7.36094 7.30335 7.64604 6.88607 8.0276C6.46879 8.40917 6.14914 8.877 5.95179 9.39496C5.25687 9.43969 4.60593 9.73496 4.13141 10.2207C3.6569 10.7065 3.39446 11.3462 3.39749 12.0098C3.40051 12.6734 3.66877 13.3109 4.14769 13.7927C4.62662 14.2745 5.28023 14.5644 5.97553 14.6034H13.4218C14.1168 14.5614 14.769 14.2688 15.2456 13.7851C15.7223 13.3013 15.9876 12.6627 15.9876 11.9992C15.9876 11.3357 15.7223 10.6971 15.2456 10.2133C14.769 9.72953 14.1168 9.43691 13.4218 9.39496V9.39322Z" fill="#24AA69"/>
<path d="M7.70441 6.41462L8.90589 5.27864V9.71294C8.90135 9.79227 8.91382 9.87164 8.94255 9.94621C8.97128 10.0208 9.01567 10.089 9.073 10.1467C9.13033 10.2044 9.19942 10.2503 9.27601 10.2817C9.35261 10.3131 9.43511 10.3293 9.5185 10.3293C9.60189 10.3293 9.6844 10.3131 9.761 10.2817C9.83759 10.2503 9.90667 10.2044 9.964 10.1467C10.0213 10.089 10.0657 10.0208 10.0944 9.94621C10.1232 9.87164 10.1357 9.79227 10.1311 9.71294V5.28038L11.3326 6.41636C11.4499 6.51583 11.6029 6.56862 11.7599 6.56386C11.9169 6.5591 12.066 6.49715 12.1765 6.39077C12.287 6.28439 12.3504 6.14169 12.3538 5.99207C12.3571 5.84245 12.3001 5.69732 12.1944 5.58656L9.94851 3.46594L9.9266 3.45203C9.9043 3.43218 9.87981 3.41468 9.85357 3.39984C9.82907 3.38369 9.80344 3.36916 9.77687 3.35635C9.76921 3.35132 9.7613 3.34668 9.75314 3.34244C9.73395 3.33678 9.71444 3.33214 9.69471 3.32853C9.66619 3.31913 9.63686 3.31214 9.60705 3.30765C9.5773 3.305 9.54734 3.305 9.51759 3.30765C9.48843 3.30506 9.45909 3.30506 9.42994 3.30765C9.40014 3.31214 9.37081 3.31913 9.3423 3.32853C9.32222 3.32853 9.30213 3.32852 9.28204 3.34244C9.26196 3.35635 9.26743 3.35287 9.2583 3.35635C9.23232 3.36917 9.2073 3.3837 9.18343 3.39984C9.1569 3.41508 9.13185 3.43256 9.10857 3.45203L9.08666 3.46594L6.84257 5.58656C6.73693 5.69732 6.6799 5.84245 6.68324 5.99207C6.68659 6.14169 6.75004 6.28439 6.86052 6.39077C6.97101 6.49715 7.12011 6.5591 7.27711 6.56386C7.43412 6.56862 7.58705 6.51583 7.70441 6.41636V6.41462Z" fill="#24AA69"/>
</g>
<defs>
<clipPath id="clip0_156_15262">
<rect width="12.915" height="11.3006" fill="white" transform="translate(3.23828 3.30078)"/>
</clipPath>
</defs>
</svg>
