<svg width="54" height="47" viewBox="0 0 54 47" fill="none" xmlns="http://www.w3.org/2000/svg">
<path opacity="0.64" d="M12.8183 1H39.7376C42.2984 1 44.7543 2.01727 46.5651 3.82801C48.3758 5.63876 49.3931 8.09466 49.3931 10.6554V30.9319C49.3931 33.4927 48.3758 35.9486 46.5651 37.7593C44.7543 39.5701 42.2984 40.5873 39.7376 40.5873H10.6554C8.09466 40.5873 5.63876 39.5701 3.82801 37.7593C2.01727 35.9486 1 33.4927 1 30.9319V12.8134C1.00128 9.67987 2.24698 6.67509 4.4632 4.45978C6.67941 2.24447 9.6847 1 12.8183 1Z" stroke="url(#paint0_linear_5_787)" stroke-width="2" stroke-miterlimit="10"/>
<path d="M52.0582 13.1948V33.4712C52.0505 36.0296 51.0308 38.4811 49.2217 40.2902C47.4126 42.0993 44.9612 43.119 42.4027 43.1266H13.3399C10.7814 43.119 8.32997 42.0993 6.52087 40.2902C4.71178 38.4811 3.69206 36.0296 3.68442 33.4712V13.1948C3.68442 10.634 4.70168 8.17806 6.51243 6.36731C8.32318 4.55657 10.7791 3.53931 13.3399 3.53931H42.4027C44.9635 3.53931 47.4194 4.55657 49.2302 6.36731C51.0409 8.17806 52.0582 10.634 52.0582 13.1948Z" fill="url(#paint1_linear_5_787)"/>
<path opacity="0.5" d="M52.9896 39.1245L41.2245 18.7419C40.763 17.9429 40.0993 17.2794 39.3002 16.8181C38.5011 16.3568 37.5946 16.114 36.6719 16.114C35.7492 16.114 34.8428 16.3568 34.0437 16.8181C33.2446 17.2794 32.5809 17.9429 32.1194 18.7419L25.2833 30.5843C25.146 30.8218 24.9486 31.0191 24.7109 31.1562C24.4732 31.2934 24.2036 31.3656 23.9292 31.3656C23.6548 31.3656 23.3852 31.2934 23.1475 31.1562C22.9098 31.0191 22.7123 30.8218 22.575 30.5843L19.6784 25.5683C19.2165 24.7704 18.553 24.108 17.7544 23.6475C16.9558 23.187 16.0501 22.9446 15.1282 22.9446C14.2064 22.9446 13.3007 23.187 12.5021 23.6475C11.7034 24.108 11.0399 24.7704 10.5781 25.5683L2.75237 39.1245C2.29156 39.9236 2.04912 40.8299 2.04941 41.7524C2.04969 42.6749 2.29269 43.581 2.75399 44.3799C3.21529 45.1787 3.87866 45.8421 4.67748 46.3035C5.4763 46.7648 6.38244 47.0078 7.30491 47.0082H22.9516C23.2758 47.0038 23.599 46.9698 23.9171 46.9068C24.2353 46.9693 24.5584 47.0033 24.8826 47.0082H48.4226C49.3469 47.0119 50.2558 46.7716 51.0575 46.3117C51.8592 45.8517 52.5253 45.1884 52.9886 44.3886C53.4519 43.5888 53.696 42.6809 53.6962 41.7567C53.6964 40.8324 53.4526 39.9244 52.9896 39.1245Z" fill="url(#paint2_linear_5_787)"/>
<path opacity="0.48" d="M49.4079 40.1433C48.5072 41.0962 47.4212 41.855 46.2166 42.3731C45.012 42.8911 43.7142 43.1575 42.4029 43.1558H13.34C12.0282 43.1561 10.7301 42.8892 9.52489 42.3713C8.31968 41.8533 7.23265 41.0952 6.33014 40.1433L10.5737 32.7955C11.0352 31.9965 11.6989 31.333 12.498 30.8717C13.2971 30.4105 14.2036 30.1676 15.1262 30.1676C16.0489 30.1676 16.9554 30.4105 17.7545 30.8717C18.5536 31.333 19.2173 31.9965 19.6788 32.7955L21.4747 35.8997C21.7233 36.3308 22.0811 36.6889 22.5121 36.9378C22.943 37.1868 23.4319 37.3178 23.9296 37.3178C24.4273 37.3178 24.9162 37.1868 25.3471 36.9378C25.7781 36.6889 26.1359 36.3308 26.3845 35.8997L32.1198 25.9642C32.5816 25.1664 33.2451 24.504 34.0438 24.0435C34.8424 23.583 35.7481 23.3406 36.67 23.3406C37.5918 23.3406 38.4975 23.583 39.2961 24.0435C40.0948 24.504 40.7583 25.1664 41.2201 25.9642L49.4079 40.1433Z" fill="url(#paint3_linear_5_787)"/>
<path d="M15.1209 18.4185C18.2324 18.4185 20.7548 15.8961 20.7548 12.7846C20.7548 9.67304 18.2324 7.15063 15.1209 7.15063C12.0093 7.15063 9.48691 9.67304 9.48691 12.7846C9.48691 15.8961 12.0093 18.4185 15.1209 18.4185Z" fill="white"/>
<defs>
<linearGradient id="paint0_linear_5_787" x1="0.517228" y1="20.813" x2="49.8903" y2="20.813" gradientUnits="userSpaceOnUse">
<stop stop-color="#00DDFF"/>
<stop offset="1" stop-color="#00FFFF"/>
</linearGradient>
<linearGradient id="paint1_linear_5_787" x1="27.7458" y1="-0.115279" x2="27.9534" y2="39.1776" gradientUnits="userSpaceOnUse">
<stop stop-color="#0093FF"/>
<stop offset="1" stop-color="#3B3AEF"/>
</linearGradient>
<linearGradient id="paint2_linear_5_787" x1="27.8227" y1="49.031" x2="27.9627" y2="29.0732" gradientUnits="userSpaceOnUse">
<stop stop-color="#00BFFF"/>
<stop offset="1" stop-color="#00FFFF"/>
</linearGradient>
<linearGradient id="paint3_linear_5_787" x1="27.8425" y1="44.4641" x2="27.9294" y2="31.6465" gradientUnits="userSpaceOnUse">
<stop stop-color="#00BFFF"/>
<stop offset="1" stop-color="#00FFFF"/>
</linearGradient>
</defs>
</svg>
