<svg width="54" height="48" viewBox="0 0 54 48" fill="none" xmlns="http://www.w3.org/2000/svg">
<g clip-path="url(#clip0_5_813)">
<path opacity="0.64" d="M41.6175 1.44116H11.0856C5.48513 1.44116 0.945068 5.98123 0.945068 11.5817V29.1034C0.945068 34.7039 5.48513 39.2439 11.0856 39.2439H41.6175C47.218 39.2439 51.758 34.7039 51.758 29.1034V11.5817C51.758 5.98123 47.218 1.44116 41.6175 1.44116Z" stroke="url(#paint0_linear_5_813)" stroke-width="2" stroke-linecap="round" stroke-linejoin="round"/>
<path d="M46.2256 3.63477H10.9752C6.67771 3.63477 3.19391 7.11857 3.19391 11.4161V33.6562C3.19391 37.9537 6.67771 41.4375 10.9752 41.4375H46.2256C50.5231 41.4375 54.0069 37.9537 54.0069 33.6562V11.4161C54.0069 7.11857 50.5231 3.63477 46.2256 3.63477Z" fill="url(#paint1_linear_5_813)"/>
<path d="M35.6574 41.3411H21.5297V44.266H35.6574V41.3411Z" fill="url(#paint2_linear_5_813)"/>
<path d="M44.6597 44.2659H12.5274C11.7197 44.2659 11.0649 44.9206 11.0649 45.7283C11.0649 46.536 11.7197 47.1908 12.5274 47.1908H44.6597C45.4674 47.1908 46.1222 46.536 46.1222 45.7283C46.1222 44.9206 45.4674 44.2659 44.6597 44.2659Z" fill="url(#paint3_linear_5_813)"/>
<path d="M45.3358 7.3667H11.8514C9.10067 7.3667 6.87079 9.59658 6.87079 12.3473V33.263C6.87079 36.0137 9.10067 38.2436 11.8514 38.2436H45.3358C48.0865 38.2436 50.3164 36.0137 50.3164 33.263V12.3473C50.3164 9.59658 48.0865 7.3667 45.3358 7.3667Z" fill="url(#paint4_linear_5_813)"/>
<path d="M28.9246 34.2082L27.7864 30.628H19.3152L18.1702 34.2082H12.4722L20.2259 11.4023H26.8551L34.6157 34.2082H28.9246ZM20.8743 25.737H26.2205L23.5508 17.3625L20.8743 25.737Z" fill="white"/>
<path d="M36.5886 11.4023H41.8038V34.2082H36.5886V11.4023Z" fill="white"/>
</g>
<defs>
<linearGradient id="paint0_linear_5_813" x1="-5.81868e-07" y1="20.3425" x2="52.6962" y2="20.3425" gradientUnits="userSpaceOnUse">
<stop stop-color="#00DDFF"/>
<stop offset="1" stop-color="#00FFFF"/>
</linearGradient>
<linearGradient id="paint1_linear_5_813" x1="28.5935" y1="48.8739" x2="28.5935" y2="19.4664" gradientUnits="userSpaceOnUse">
<stop stop-color="#3B3AEF"/>
<stop offset="0.96" stop-color="#0093FF"/>
</linearGradient>
<linearGradient id="paint2_linear_5_813" x1="28.5935" y1="48.874" x2="28.5935" y2="19.4665" gradientUnits="userSpaceOnUse">
<stop stop-color="#3B3AEF"/>
<stop offset="0.96" stop-color="#0093FF"/>
</linearGradient>
<linearGradient id="paint3_linear_5_813" x1="28.5936" y1="48.8739" x2="28.5936" y2="19.4664" gradientUnits="userSpaceOnUse">
<stop stop-color="#3B3AEF"/>
<stop offset="0.96" stop-color="#0093FF"/>
</linearGradient>
<linearGradient id="paint4_linear_5_813" x1="28.5936" y1="47.9564" x2="28.5936" y2="17.4589" gradientUnits="userSpaceOnUse">
<stop stop-color="#00BFFF"/>
<stop offset="1" stop-color="#00FFFF"/>
</linearGradient>
<clipPath id="clip0_5_813">
<rect width="54" height="46.6878" fill="white" transform="translate(0 0.496094)"/>
</clipPath>
</defs>
</svg>
