<svg width="57" height="52" viewBox="0 0 57 52" fill="none" xmlns="http://www.w3.org/2000/svg">
<path opacity="0.64" d="M44.1029 6.57202H11.7475C8.8971 6.57202 6.16343 7.70434 4.14788 9.71989C2.13233 11.7354 1 14.4691 1 17.3195V39.8893C1 42.7397 2.13233 45.4734 4.14788 47.4889C6.16343 49.5045 8.8971 50.6368 11.7475 50.6368H44.1029C46.9533 50.6368 49.687 49.5045 51.7026 47.4889C53.7181 45.4734 54.8504 42.7397 54.8504 39.8893V17.3195C54.8504 14.4691 53.7181 11.7354 51.7026 9.71989C49.687 7.70434 46.9533 6.57202 44.1029 6.57202ZM47.4884 37.9386C47.4884 39.2475 46.9688 40.5028 46.0438 41.4288C45.1189 42.3548 43.8641 42.8757 42.5553 42.8771H13.2952C11.9858 42.8757 10.7305 42.3549 9.80469 41.4291C8.87886 40.5033 8.3581 39.248 8.35668 37.9386V19.3132C8.3581 18.0044 8.87903 16.7496 9.80502 15.8246C10.731 14.8996 11.9863 14.3801 13.2952 14.3801H42.5553C43.8636 14.3801 45.1184 14.8998 46.0435 15.825C46.9686 16.7501 47.4884 18.0049 47.4884 19.3132V37.9386Z" stroke="url(#paint0_linear_5_799)" stroke-width="2" stroke-miterlimit="10"/>
<path d="M46.2525 4.42261H13.8971C11.0466 4.42261 8.31297 5.55492 6.29742 7.57047C4.28187 9.58602 3.14954 12.3197 3.14954 15.1701V37.7399C3.14954 40.5903 4.28187 43.324 6.29742 45.3395C8.31297 47.3551 11.0466 48.4874 13.8971 48.4874H46.2525C47.6638 48.4874 49.0614 48.2094 50.3654 47.6693C51.6693 47.1292 52.8541 46.3375 53.8521 45.3395C54.8501 44.3415 55.6418 43.1567 56.1819 41.8528C56.722 40.5488 57 39.1513 57 37.7399V15.1701C57 13.7587 56.722 12.3612 56.1819 11.0572C55.6418 9.75327 54.8501 8.56847 53.8521 7.57047C52.8541 6.57247 51.6693 5.78082 50.3654 5.24071C49.0614 4.7006 47.6638 4.42261 46.2525 4.42261ZM49.6379 35.7892C49.6379 37.0981 49.1183 38.3534 48.1934 39.2794C47.2684 40.2054 46.0136 40.7263 44.7048 40.7277H15.4447C14.1354 40.7263 12.8801 40.2055 11.9542 39.2797C11.0284 38.3539 10.5076 37.0986 10.5062 35.7892V17.1638C10.5076 15.8549 11.0286 14.6002 11.9546 13.6752C12.8805 12.7502 14.1359 12.2307 15.4447 12.2307H44.7048C46.0132 12.2307 47.2679 12.7504 48.193 13.6755C49.1182 14.6007 49.6379 15.8554 49.6379 17.1638V35.7892Z" fill="url(#paint1_linear_5_799)"/>
<path d="M39.0243 23.0909L26.9603 16.105C26.2987 15.7237 25.5487 15.5229 24.7851 15.5227C24.0216 15.5225 23.2713 15.7229 22.6096 16.1038C21.9479 16.4848 21.3978 17.0329 21.0146 17.6932C20.6313 18.3536 20.4283 19.1031 20.4258 19.8667V33.8008C20.4283 34.5644 20.6313 35.3139 21.0146 35.9743C21.3978 36.6346 21.9479 37.1828 22.6096 37.5637C23.2713 37.9446 24.0216 38.145 24.7851 38.1448C25.5487 38.1446 26.2987 37.9438 26.9603 37.5625L39.0243 30.5766C39.6736 30.1911 40.2115 29.6433 40.585 28.9871C40.9586 28.3309 41.155 27.5888 41.155 26.8338C41.155 26.0787 40.9586 25.3366 40.585 24.6804C40.2115 24.0242 39.6736 23.4764 39.0243 23.0909Z" fill="url(#paint2_linear_5_799)"/>
<path d="M39.363 23.3436L27.2667 16.3577C26.7159 16.0404 26.0915 15.8733 25.4559 15.8733C24.8203 15.8733 24.1958 16.0402 23.645 16.3575C23.0943 16.6748 22.6366 17.1313 22.3177 17.6811C21.9989 18.231 21.8302 18.855 21.8284 19.4906V33.4624C21.8292 34.0984 21.9973 34.7231 22.3157 35.2737C22.6342 35.8244 23.0918 36.2816 23.6427 36.5995C24.1936 36.9174 24.8185 37.0849 25.4545 37.0851C26.0906 37.0853 26.7155 36.9182 27.2667 36.6007L39.363 29.6148C39.9131 29.2967 40.3698 28.8396 40.6874 28.2892C41.0049 27.7388 41.1721 27.1146 41.1721 26.4792C41.1721 25.8438 41.0049 25.2195 40.6874 24.6692C40.3698 24.1188 39.9131 23.6616 39.363 23.3436Z" fill="url(#paint3_linear_5_799)"/>
<path d="M49.1377 43.3394H13.8644C13.5884 43.3394 13.3646 43.5631 13.3646 43.8391V43.8821C13.3646 44.1581 13.5884 44.3819 13.8644 44.3819H49.1377C49.4137 44.3819 49.6375 44.1581 49.6375 43.8821V43.8391C49.6375 43.5631 49.4137 43.3394 49.1377 43.3394Z" fill="white"/>
<path opacity="0.75" d="M20.9524 46.2734C22.285 46.2734 23.3652 45.1931 23.3652 43.8606C23.3652 42.528 22.285 41.4478 20.9524 41.4478C19.6199 41.4478 18.5396 42.528 18.5396 43.8606C18.5396 45.1931 19.6199 46.2734 20.9524 46.2734Z" fill="url(#paint4_linear_5_799)"/>
<path d="M11.2205 42.6677H10.5058V45.0644H11.2205V42.6677Z" fill="white"/>
<path d="M12.5106 42.6677H11.7959V45.0644H12.5106V42.6677Z" fill="white"/>
<path opacity="0.48" d="M46.6823 0H42.2167C40.5844 0 39.2611 1.32325 39.2611 2.95557V6.0401C39.2611 7.67242 40.5844 8.99567 42.2167 8.99567H46.6823C48.3146 8.99567 49.6378 7.67242 49.6378 6.0401V2.95557C49.6378 1.32325 48.3146 0 46.6823 0Z" fill="url(#paint5_linear_5_799)"/>
<path opacity="0.58" d="M35.1827 0H33.404C32.015 0 30.889 1.12597 30.889 2.51492V6.48075C30.889 7.8697 32.015 8.99567 33.404 8.99567H35.1827C36.5716 8.99567 37.6976 7.8697 37.6976 6.48075V2.51492C37.6976 1.12597 36.5716 0 35.1827 0Z" fill="url(#paint6_linear_5_799)"/>
<defs>
<linearGradient id="paint0_linear_5_799" x1="0.446503" y1="28.6313" x2="55.4039" y2="28.6313" gradientUnits="userSpaceOnUse">
<stop stop-color="#00DDFF"/>
<stop offset="1" stop-color="#00FFFF"/>
</linearGradient>
<linearGradient id="paint1_linear_5_799" x1="29.5401" y1="54.3824" x2="30.4429" y2="7.24383" gradientUnits="userSpaceOnUse">
<stop stop-color="#3B3AEF"/>
<stop offset="0.96" stop-color="#0093FF"/>
</linearGradient>
<linearGradient id="paint2_linear_5_799" x1="30.5069" y1="38.4276" x2="30.8885" y2="18.1793" gradientUnits="userSpaceOnUse">
<stop stop-color="#0093FF"/>
<stop offset="1" stop-color="#3B3AEF"/>
</linearGradient>
<linearGradient id="paint3_linear_5_799" x1="31.2325" y1="37.3261" x2="31.5925" y2="18.346" gradientUnits="userSpaceOnUse">
<stop stop-color="#00BFFF"/>
<stop offset="1" stop-color="#00FFFF"/>
</linearGradient>
<linearGradient id="paint4_linear_5_799" x1="18.5396" y1="43.8606" x2="23.3652" y2="43.8606" gradientUnits="userSpaceOnUse">
<stop stop-color="#00BFFF"/>
<stop offset="1" stop-color="#00FFFF"/>
</linearGradient>
<linearGradient id="paint5_linear_5_799" x1="44.4522" y1="12.322" x2="44.4522" y2="2.3967" gradientUnits="userSpaceOnUse">
<stop stop-color="#00BFFF"/>
<stop offset="1" stop-color="#00FFFF"/>
</linearGradient>
<linearGradient id="paint6_linear_5_799" x1="34.296" y1="12.322" x2="34.296" y2="2.3967" gradientUnits="userSpaceOnUse">
<stop offset="0.01" stop-color="#203DE6"/>
<stop offset="1" stop-color="#24CCFF"/>
</linearGradient>
</defs>
</svg>
