<svg width="27" height="26" viewBox="0 0 27 26" fill="none" xmlns="http://www.w3.org/2000/svg">
<g clip-path="url(#clip0_5_1646)">
<path d="M21.1054 19.1324L16.8838 22.0216C15.8984 22.7367 14.7121 23.1218 13.4946 23.1218C12.2771 23.1218 11.0908 22.7367 10.1054 22.0216L5.89457 19.1378C4.4243 18.1297 3.97027 15.354 4.96756 13.4621L10.8973 2.20537C11.5594 0.951314 12.5189 0.313477 13.5 0.313477C14.4811 0.313477 15.4405 0.940504 16.1027 2.20537L22.0324 13.4621C23.0297 15.3513 22.5757 18.1243 21.1054 19.1324Z" stroke="url(#paint0_linear_5_1646)" stroke-width="0.443243" stroke-miterlimit="10"/>
<path d="M3.60538 6.17562L0.337821 12.0459C0.00591451 12.6431 -0.0852218 13.3446 0.0830896 14.0068C0.251401 14.669 0.666427 15.2418 1.24322 15.608L8.07025 19.9324C8.3829 20.1303 8.74922 20.2264 9.11877 20.2075C9.48832 20.1885 9.84291 20.0555 10.1337 19.8267C10.4245 19.5978 10.6372 19.2845 10.7425 18.9297C10.8478 18.575 10.8404 18.1963 10.7216 17.8459L6.86215 6.47021C6.75066 6.14254 6.54653 5.85425 6.2745 5.64026C6.00246 5.42628 5.67421 5.29578 5.32951 5.2646C4.9848 5.23342 4.63844 5.30289 4.33242 5.46459C4.02641 5.62629 3.77385 5.87327 3.60538 6.17562Z" fill="url(#paint1_linear_5_1646)"/>
<path d="M23.4054 6.17562L26.673 12.0459C27.0049 12.6431 27.096 13.3446 26.9277 14.0068C26.7594 14.669 26.3444 15.2418 25.7676 15.608L18.9406 19.9324C18.6279 20.1303 18.2616 20.2264 17.892 20.2075C17.5225 20.1885 17.1679 20.0555 16.8771 19.8267C16.5863 19.5978 16.3736 19.2845 16.2683 18.9297C16.1631 18.575 16.1704 18.1963 16.2892 17.8459L20.1487 6.47021C20.2601 6.14254 20.4643 5.85425 20.7363 5.64026C21.0083 5.42628 21.3366 5.29578 21.6813 5.2646C22.026 5.23342 22.3724 5.30289 22.6784 5.46459C22.9844 5.62629 23.237 5.87327 23.4054 6.17562Z" fill="url(#paint2_linear_5_1646)"/>
<path d="M21.4892 21.0729L17.054 23.9648C16.0059 24.6829 14.7651 25.0672 13.4946 25.0672C12.224 25.0672 10.9832 24.6829 9.93513 23.9648L5.51351 21.0729C3.96757 20.0647 3.49186 17.2891 4.53781 15.3972L10.754 4.14043C11.4486 2.88637 12.4676 2.24854 13.4865 2.24854C14.5054 2.24854 15.5243 2.87826 16.2189 4.14043L22.4351 15.3972C23.5108 17.2918 23.0324 20.0647 21.4892 21.0729Z" fill="url(#paint3_linear_5_1646)"/>
<path opacity="0.5" d="M21.4892 21.073L17.0541 23.9649C16.0026 24.6716 14.7668 25.0541 13.5 25.0649V2.26221C14.5189 2.26221 15.5378 2.89194 16.2324 4.1541L22.4486 15.4109C23.5108 17.2919 23.0324 20.0649 21.4892 21.073Z" fill="url(#paint4_linear_5_1646)"/>
<path opacity="0.69" d="M3.8108 3.86488C3.43994 3.49459 3.209 3.00714 3.15729 2.48562C3.10559 1.9641 3.23634 1.44079 3.52727 1.00488C3.81819 0.568978 4.25128 0.247455 4.75272 0.0951134C5.25416 -0.0572276 5.79294 -0.0309522 6.27718 0.169453C6.76142 0.369857 7.16117 0.731991 7.40831 1.19413C7.65545 1.65628 7.73469 2.18983 7.63249 2.70384C7.53029 3.21785 7.253 3.68052 6.84787 4.01298C6.44275 4.34544 5.93488 4.52711 5.41081 4.52704C5.11365 4.52744 4.81934 4.46916 4.54477 4.35553C4.2702 4.2419 4.02076 4.07516 3.8108 3.86488Z" fill="#0193FF"/>
</g>
<defs>
<linearGradient id="paint0_linear_5_1646" x1="4.2108" y1="11.7216" x2="22.7892" y2="11.7216" gradientUnits="userSpaceOnUse">
<stop stop-color="#00DDFF"/>
<stop offset="1" stop-color="#00FFFF"/>
</linearGradient>
<linearGradient id="paint1_linear_5_1646" x1="5.41078" y1="22.7513" x2="5.41078" y2="10.8189" gradientUnits="userSpaceOnUse">
<stop stop-color="#00BFFF"/>
<stop offset="1" stop-color="#00FFFF"/>
</linearGradient>
<linearGradient id="paint2_linear_5_1646" x1="21.5892" y1="22.7513" x2="21.5892" y2="10.8189" gradientUnits="userSpaceOnUse">
<stop stop-color="#00BFFF"/>
<stop offset="1" stop-color="#00FFFF"/>
</linearGradient>
<linearGradient id="paint3_linear_5_1646" x1="13.5" y1="28.9161" x2="13.5" y2="10.735" gradientUnits="userSpaceOnUse">
<stop stop-color="#3B3AEF"/>
<stop offset="0.96" stop-color="#0093FF"/>
</linearGradient>
<linearGradient id="paint4_linear_5_1646" x1="18.2622" y1="28.9163" x2="18.2622" y2="10.7352" gradientUnits="userSpaceOnUse">
<stop stop-color="#00BFFF"/>
<stop offset="1" stop-color="#00FFFF"/>
</linearGradient>
<clipPath id="clip0_5_1646">
<rect width="27" height="25.0595" fill="white"/>
</clipPath>
</defs>
</svg>
