<svg width="35" height="26" viewBox="0 0 35 26" fill="none" xmlns="http://www.w3.org/2000/svg">
<path d="M16.9088 1.80759C19.5937 1.80448 22.1863 2.78729 24.1945 4.56947C24.3594 4.7194 24.574 4.80308 24.7969 4.80441C24.9795 4.80399 25.1576 4.74827 25.3079 4.64458C25.4582 4.5409 25.5736 4.39412 25.6388 4.22358C25.704 4.05303 25.716 3.86673 25.6733 3.68922C25.6305 3.51171 25.535 3.35132 25.3993 3.22918C23.0585 1.149 20.0358 0 16.9043 0C13.7727 0 10.75 1.149 8.40926 3.22918C8.27354 3.35132 8.178 3.51171 8.13524 3.68922C8.09248 3.86673 8.10449 4.05303 8.16971 4.22358C8.23493 4.39412 8.35028 4.5409 8.50058 4.64458C8.65087 4.74827 8.82905 4.80399 9.01164 4.80441C9.23453 4.80308 9.44906 4.7194 9.61401 4.56947C11.6245 2.78522 14.2207 1.80226 16.9088 1.80759ZM16.9088 23.8184C14.2249 23.8207 11.6334 22.838 9.62606 21.0565C9.46008 20.9082 9.2462 20.8248 9.02368 20.8216C8.84109 20.822 8.66292 20.8777 8.51262 20.9814C8.36233 21.085 8.24697 21.2318 8.18176 21.4024C8.11654 21.5729 8.10452 21.7592 8.14728 21.9367C8.19005 22.1142 8.28558 22.2746 8.42131 22.3968C10.7621 24.477 13.7848 25.626 16.9163 25.626C20.0478 25.626 23.0705 24.477 25.4113 22.3968C25.547 22.2746 25.6426 22.1142 25.6853 21.9367C25.7281 21.7592 25.7161 21.5729 25.6508 21.4024C25.5856 21.2318 25.4703 21.085 25.32 20.9814C25.1697 20.8777 24.9915 20.822 24.8089 20.8216C24.5864 20.8248 24.3725 20.9082 24.2065 21.0565C22.1953 22.8414 19.5979 23.8244 16.9088 23.8184Z" fill="url(#paint0_linear_5_1659)"/>
<g opacity="0.64">
<path d="M15.2221 12.9846C15.2221 9.05726 12.0384 5.87354 8.11104 5.87354C4.18372 5.87354 1 9.05726 1 12.9846C1 16.9119 4.18372 20.0956 8.11104 20.0956C12.0384 20.0956 15.2221 16.9119 15.2221 12.9846Z" stroke="url(#paint1_linear_5_1659)" stroke-width="0.602375" stroke-miterlimit="10"/>
</g>
<g opacity="0.64">
<path d="M34.0433 12.9846C34.0433 9.05726 30.8596 5.87354 26.9323 5.87354C23.005 5.87354 19.8213 9.05726 19.8213 12.9846C19.8213 16.9119 23.005 20.0956 26.9323 20.0956C30.8596 20.0956 34.0433 16.9119 34.0433 12.9846Z" stroke="url(#paint2_linear_5_1659)" stroke-width="0.602375" stroke-miterlimit="10"/>
</g>
<path d="M16.0684 12.9846C16.0684 9.05726 12.8847 5.87354 8.95738 5.87354C5.03006 5.87354 1.84634 9.05726 1.84634 12.9846C1.84634 16.9119 5.03006 20.0956 8.95738 20.0956C12.8847 20.0956 16.0684 16.9119 16.0684 12.9846Z" fill="url(#paint3_linear_5_1659)"/>
<path d="M5.53288 13.4303C6.2731 13.4303 6.87316 12.8303 6.87316 12.09C6.87316 11.3498 6.2731 10.7498 5.53288 10.7498C4.79266 10.7498 4.1926 11.3498 4.1926 12.09C4.1926 12.8303 4.79266 13.4303 5.53288 13.4303Z" fill="white"/>
<path d="M12.3427 13.4303C13.0829 13.4303 13.683 12.8303 13.683 12.09C13.683 11.3498 13.0829 10.7498 12.3427 10.7498C11.6025 10.7498 11.0024 11.3498 11.0024 12.09C11.0024 12.8303 11.6025 13.4303 12.3427 13.4303Z" fill="white"/>
<path d="M10.7735 15.0237C10.7467 15.4928 10.5414 15.9338 10.1998 16.2564C9.8582 16.579 9.40615 16.7587 8.93631 16.7587C8.46646 16.7587 8.0144 16.579 7.6728 16.2564C7.3312 15.9338 7.12593 15.4928 7.09906 15.0237H10.7735Z" fill="white"/>
<path d="M33.1819 12.9846C33.1819 9.05726 29.9982 5.87354 26.0709 5.87354C22.1436 5.87354 18.9598 9.05726 18.9598 12.9846C18.9598 16.9119 22.1436 20.0956 26.0709 20.0956C29.9982 20.0956 33.1819 16.9119 33.1819 12.9846Z" fill="url(#paint4_linear_5_1659)"/>
<path d="M22.6464 13.4303C23.3866 13.4303 23.9867 12.8303 23.9867 12.09C23.9867 11.3498 23.3866 10.7498 22.6464 10.7498C21.9062 10.7498 21.3061 11.3498 21.3061 12.09C21.3061 12.8303 21.9062 13.4303 22.6464 13.4303Z" fill="white"/>
<path d="M29.4532 13.4303C30.1934 13.4303 30.7935 12.8303 30.7935 12.09C30.7935 11.3498 30.1934 10.7498 29.4532 10.7498C28.713 10.7498 28.1129 11.3498 28.1129 12.09C28.1129 12.8303 28.713 13.4303 29.4532 13.4303Z" fill="white"/>
<path d="M28.8177 14.584C28.7773 15.2911 28.4679 15.956 27.953 16.4424C27.4381 16.9287 26.7566 17.1997 26.0483 17.1997C25.34 17.1997 24.6585 16.9287 24.1436 16.4424C23.6287 15.956 23.3193 15.2911 23.2789 14.584H28.8177Z" fill="white"/>
<defs>
<linearGradient id="paint0_linear_5_1659" x1="8.11108" y1="12.813" x2="25.7065" y2="12.813" gradientUnits="userSpaceOnUse">
<stop stop-color="#00DDFF"/>
<stop offset="1" stop-color="#00FFFF"/>
</linearGradient>
<linearGradient id="paint1_linear_5_1659" x1="0.698812" y1="12.9846" x2="15.5233" y2="12.9846" gradientUnits="userSpaceOnUse">
<stop stop-color="#00DDFF"/>
<stop offset="1" stop-color="#00FFFF"/>
</linearGradient>
<linearGradient id="paint2_linear_5_1659" x1="19.5201" y1="12.9846" x2="34.3445" y2="12.9846" gradientUnits="userSpaceOnUse">
<stop stop-color="#00DDFF"/>
<stop offset="1" stop-color="#00FFFF"/>
</linearGradient>
<linearGradient id="paint3_linear_5_1659" x1="8.95738" y1="2.83455" x2="8.95738" y2="20.2311" gradientUnits="userSpaceOnUse">
<stop stop-color="#0093FF"/>
<stop offset="1" stop-color="#3B3AEF"/>
</linearGradient>
<linearGradient id="paint4_linear_5_1659" x1="26.0709" y1="21.957" x2="26.0709" y2="7.80415" gradientUnits="userSpaceOnUse">
<stop stop-color="#00BFFF"/>
<stop offset="1" stop-color="#00FFFF"/>
</linearGradient>
</defs>
</svg>
