<svg width="26" height="21" viewBox="0 0 26 21" fill="none" xmlns="http://www.w3.org/2000/svg">
<g opacity="0.64">
<path d="M17.927 0.483329C18.9889 0.488281 20.0055 0.91423 20.7538 1.66776C21.502 2.42129 21.9209 3.44086 21.9184 4.5028V13.9574C21.9209 14.9885 21.5268 15.9811 20.8176 16.7296C20.4473 17.1248 19.9995 17.4395 19.5022 17.6541C19.0048 17.8687 18.4686 17.9786 17.927 17.9769H4.47786C3.93567 17.9792 3.39882 17.8696 2.90091 17.655C2.40299 17.4404 1.9547 17.1253 1.58409 16.7296C0.875954 15.9817 0.481962 14.9905 0.483366 13.9605V4.5028C0.481704 3.44058 0.901218 2.42101 1.64998 1.66757C2.39874 0.914129 3.41565 0.48828 4.47786 0.483329H17.927ZM17.927 0H4.47786C3.88818 0.00163572 3.30461 0.11939 2.76045 0.346562C2.21628 0.573735 1.72217 0.90587 1.30637 1.32399C0.890561 1.74212 0.56119 2.23804 0.337044 2.78346C0.112899 3.32888 -0.0016229 3.91312 1.73735e-05 4.5028V13.9574C0.000491792 15.1137 0.447322 16.2252 1.24733 17.0601C1.66284 17.5038 2.16514 17.8573 2.72303 18.0987C3.28092 18.3401 3.88248 18.4642 4.49035 18.4633H17.9395C19.1301 18.4584 20.2702 17.981 21.1092 17.1362C21.9481 16.2914 22.4175 15.1481 22.4142 13.9574V4.5028C22.4142 3.31243 21.9416 2.17076 21.1001 1.32875C20.2587 0.486742 19.1174 0.0132929 17.927 0.0124663V0Z" fill="url(#paint0_linear_5_1799)"/>
</g>
<path d="M23.9487 5.72517V15.1767C23.951 16.3381 23.5041 17.4555 22.7014 18.2949C22.286 18.738 21.7842 19.0911 21.2269 19.3324C20.6697 19.5738 20.0688 19.6983 19.4615 19.6982H6.00927C5.40145 19.6987 4.80001 19.5744 4.24218 19.333C3.68435 19.0917 3.18199 18.7383 2.76625 18.2949C1.96362 17.4555 1.51668 16.3381 1.51894 15.1767V5.72517C1.51562 4.53397 1.98543 3.39019 2.8251 2.54526C3.66477 1.70032 4.80559 1.22338 5.99678 1.21925H19.449C20.0408 1.21801 20.627 1.33377 21.1739 1.55985C21.7208 1.78594 22.2176 2.11788 22.6358 2.53662C23.0539 2.95536 23.3852 3.45263 23.6105 3.99983C23.8359 4.54704 23.9508 5.13339 23.9487 5.72517Z" fill="url(#paint1_linear_5_1799)"/>
<path opacity="0.6" d="M26 6.99102V16.4425C26.0009 17.6037 25.5542 18.7206 24.7527 19.5608C24.3369 20.0042 23.8346 20.3575 23.2767 20.5989C22.7189 20.8403 22.1175 20.9645 21.5096 20.964H8.0605C7.45222 20.9646 6.85028 20.8404 6.29193 20.599C5.73358 20.3576 5.23069 20.0043 4.81436 19.5608C4.01714 18.719 3.57588 17.6019 3.58266 16.4425V6.99102C3.58061 6.40108 3.69481 5.81652 3.91877 5.27074C4.14273 4.72496 4.47206 4.22866 4.8879 3.8102C5.30375 3.39175 5.798 3.05934 6.34237 2.83197C6.88673 2.60461 7.47056 2.48674 8.0605 2.48511H21.5096C22.1006 2.4851 22.6858 2.60176 23.2316 2.8284C23.7774 3.05503 24.2731 3.38719 24.6903 3.80581C25.1075 4.22443 25.4379 4.72127 25.6626 5.26786C25.8874 5.81446 26.002 6.40004 26 6.99102Z" fill="url(#paint2_linear_5_1799)"/>
<path d="M14.6403 18.1889C18.3465 18.1889 21.3509 15.1845 21.3509 11.4784C21.3509 7.77223 18.3465 4.76782 14.6403 4.76782C10.9342 4.76782 7.92981 7.77223 7.92981 11.4784C7.92981 15.1845 10.9342 18.1889 14.6403 18.1889Z" fill="white"/>
<path d="M14.5343 5.6814C13.3705 5.6814 12.2328 6.0265 11.2652 6.67306C10.2975 7.31963 9.54337 8.23861 9.09801 9.3138C8.65264 10.389 8.53611 11.5721 8.76315 12.7136C8.99019 13.855 9.5506 14.9034 10.3735 15.7264C11.1964 16.5493 12.2449 17.1097 13.3863 17.3367C14.5277 17.5638 15.7109 17.4472 16.7861 17.0019C17.8613 16.5565 18.7802 15.8023 19.4268 14.8347C20.0734 13.867 20.4185 12.7294 20.4185 11.5656C20.4189 10.7927 20.267 10.0274 19.9714 9.31332C19.6758 8.59924 19.2424 7.95041 18.696 7.40393C18.1495 6.85745 17.5006 6.42403 16.7866 6.12847C16.0725 5.83291 15.3071 5.68099 14.5343 5.6814ZM14.5811 16.7856C13.5541 16.7856 12.5501 16.481 11.6962 15.9104C10.8424 15.3397 10.1769 14.5287 9.78405 13.5798C9.39118 12.6309 9.28854 11.5868 9.48912 10.5796C9.68971 9.57239 10.1845 8.64729 10.9109 7.92131C11.6373 7.19533 12.5627 6.70109 13.5701 6.50111C14.5774 6.30113 15.6214 6.40438 16.5701 6.79782C17.5187 7.19127 18.3294 7.85722 18.8995 8.71144C19.4697 9.56566 19.7736 10.5698 19.773 11.5968C19.773 12.2785 19.6387 12.9534 19.3777 13.5832C19.1167 14.2129 18.7343 14.7851 18.2521 15.2669C17.77 15.7488 17.1976 16.1309 16.5677 16.3915C15.9378 16.6521 15.2627 16.786 14.5811 16.7856Z" fill="url(#paint3_linear_5_1799)"/>
<path d="M17.6963 10.2776L13.7735 8.01065C13.547 7.88059 13.2902 7.81235 13.029 7.81275C12.7678 7.81315 12.5113 7.88217 12.2852 8.01291C12.0591 8.14366 11.8713 8.33152 11.7407 8.5577C11.61 8.78387 11.5411 9.0404 11.5408 9.3016V13.8293C11.5411 14.0905 11.61 14.3471 11.7407 14.5732C11.8713 14.7994 12.0591 14.9873 12.2852 15.118C12.5113 15.2488 12.7678 15.3178 13.029 15.3182C13.2902 15.3186 13.547 15.2504 13.7735 15.1203L17.6963 12.8533C17.9222 12.7227 18.1099 12.535 18.2403 12.3089C18.3708 12.0829 18.4395 11.8265 18.4395 11.5655C18.4395 11.3045 18.3708 11.0481 18.2403 10.822C18.1099 10.596 17.9222 10.4082 17.6963 10.2776Z" fill="url(#paint4_linear_5_1799)"/>
<defs>
<linearGradient id="paint0_linear_5_1799" x1="1.73734e-05" y1="9.2301" x2="22.4017" y2="9.2301" gradientUnits="userSpaceOnUse">
<stop stop-color="#00DDFF"/>
<stop offset="1" stop-color="#00FFFF"/>
</linearGradient>
<linearGradient id="paint1_linear_5_1799" x1="12.6886" y1="-0.477096" x2="12.7853" y2="17.8303" gradientUnits="userSpaceOnUse">
<stop stop-color="#0093FF"/>
<stop offset="1" stop-color="#3B3AEF"/>
</linearGradient>
<linearGradient id="paint2_linear_5_1799" x1="14.7399" y1="0.788763" x2="14.8365" y2="19.0962" gradientUnits="userSpaceOnUse">
<stop stop-color="#00BFFF"/>
<stop offset="1" stop-color="#00FFFF"/>
</linearGradient>
<linearGradient id="paint3_linear_5_1799" x1="14.5343" y1="19.1648" x2="14.5343" y2="4.42473" gradientUnits="userSpaceOnUse">
<stop stop-color="#00BFFF"/>
<stop offset="1" stop-color="#00FFFF"/>
</linearGradient>
<linearGradient id="paint4_linear_5_1799" x1="14.9927" y1="4.8643" x2="14.9927" y2="16.3489" gradientUnits="userSpaceOnUse">
<stop stop-color="#0093FF"/>
<stop offset="1" stop-color="#3B3AEF"/>
</linearGradient>
</defs>
</svg>
