<svg width="27" height="23" viewBox="0 0 27 23" fill="none" xmlns="http://www.w3.org/2000/svg">
<path d="M20.2413 0H3.45218C1.5456 0 0 1.5456 0 3.45219V15.1705C0 17.0771 1.5456 18.6227 3.45218 18.6227H20.2413C22.1479 18.6227 23.6935 17.0771 23.6935 15.1705V3.45219C23.6935 1.5456 22.1479 0 20.2413 0Z" fill="url(#paint0_linear_5_1791)"/>
<path opacity="0.6" d="M22.6665 2.58618H6.05655C4.10048 2.58618 2.51477 4.17189 2.51477 6.12796V18.6167C2.51477 20.5728 4.10048 22.1585 6.05655 22.1585H22.6665C24.6225 22.1585 26.2082 20.5728 26.2082 18.6167V6.12796C26.2082 4.17189 24.6225 2.58618 22.6665 2.58618Z" fill="url(#paint1_linear_5_1791)"/>
<path d="M14.7884 9.83699C14.5934 9.96496 14.4383 10.145 14.3404 10.3566L14.3822 10.4223C14.6178 10.782 14.7127 11.2159 14.6488 11.6411C14.5849 12.0663 14.3667 12.4531 14.0358 12.7277L13.8805 12.8412C13.8289 12.8765 13.7751 12.9085 13.7193 12.9368C13.4075 13.0935 13.0561 13.1538 12.7099 13.11C12.4587 13.0792 12.2172 12.9937 12.0026 12.8596C11.788 12.7254 11.6053 12.5459 11.4676 12.3335L10.273 10.4761C10.0336 10.1066 9.94264 9.66028 10.0186 9.2266C10.0945 8.79293 10.3316 8.40403 10.6824 8.13794C11.0332 7.87184 11.4716 7.74826 11.9097 7.79199C12.3477 7.83572 12.7531 8.04351 13.0444 8.37369C13.206 8.21629 13.3819 8.07431 13.57 7.94962C13.7584 7.82844 13.9585 7.72639 14.1672 7.64501C13.9319 7.31794 13.6345 7.04041 13.2919 6.82829C12.9494 6.61616 12.5684 6.47359 12.1707 6.4087C11.7731 6.34381 11.3665 6.35789 10.9743 6.45011C10.5821 6.54234 10.2119 6.71092 9.88481 6.94622C9.55774 7.18152 9.28022 7.47893 9.0681 7.82148C8.85597 8.16403 8.7134 8.54504 8.64851 8.9427C8.58362 9.34035 8.59769 9.7469 8.68992 10.1391C8.78215 10.5313 8.95072 10.9015 9.18602 11.2286L10.3806 13.0861C10.7176 13.6 11.2014 14.0007 11.7691 14.2361C12.3368 14.4714 12.9622 14.5307 13.564 14.406C13.8798 14.3443 14.1828 14.2292 14.4599 14.0656L14.6211 13.97C14.6753 13.9356 14.7272 13.8977 14.7764 13.8566C15.0375 13.6662 15.2656 13.4341 15.4513 13.1697C15.8041 12.6666 15.9979 12.0693 16.0075 11.4549C16.017 10.8405 15.842 10.2373 15.5051 9.72351L15.4633 9.65778C15.226 9.65307 14.9921 9.71519 14.7884 9.83699Z" fill="white"/>
<path d="M14.3882 8.04527L14.2628 8.099C14.1934 8.12708 14.1256 8.15901 14.0597 8.19458C13.9728 8.23858 13.8889 8.28847 13.8088 8.3439C13.7265 8.39277 13.6485 8.44871 13.5759 8.51111C13.4982 8.57084 13.4325 8.63654 13.3609 8.69626L13.3191 8.73808C12.8228 9.23587 12.5128 9.88915 12.4411 10.5884C12.3693 11.2876 12.5401 11.9902 12.9249 12.5785L12.9727 12.6501C13.1582 12.6527 13.3412 12.6075 13.5042 12.5188C13.5875 12.4728 13.6673 12.4209 13.7431 12.3635C13.8832 12.2448 13.9971 12.0984 14.0776 11.9335L14.0298 11.8558C13.8908 11.6451 13.7996 11.4065 13.7624 11.1569C13.7253 10.9072 13.7432 10.6524 13.8148 10.4104C13.8148 10.3507 13.8566 10.291 13.8805 10.2312L13.9163 10.1536C14.0167 9.93714 14.1635 9.74545 14.3464 9.59216C14.4028 9.53789 14.4649 9.48983 14.5315 9.44882C14.5944 9.40301 14.6626 9.36491 14.7346 9.33534C14.8065 9.29682 14.8827 9.26677 14.9615 9.24577C15.1112 9.19342 15.2688 9.16716 15.4274 9.16812H15.517H15.7022C15.9527 9.19901 16.1934 9.28386 16.4079 9.41689C16.6224 9.54991 16.8055 9.72791 16.9445 9.93858L18.139 11.802C18.3711 12.1716 18.4563 12.6147 18.3777 13.044C18.2991 13.4732 18.0624 13.8574 17.7144 14.1206C17.3663 14.3839 16.9322 14.5071 16.4978 14.466C16.0633 14.4249 15.6601 14.2224 15.3677 13.8984C15.2571 14.0077 15.1394 14.1095 15.0153 14.2031C14.9599 14.2507 14.8999 14.2927 14.8361 14.3285C14.7749 14.3752 14.7088 14.4152 14.639 14.4479C14.5185 14.5191 14.3927 14.581 14.2628 14.6331C14.7519 15.2455 15.4572 15.6473 16.2336 15.7556C17.0099 15.8638 17.7982 15.6705 18.4363 15.2152C19.0745 14.76 19.5138 14.0775 19.664 13.3082C19.8142 12.5389 19.6639 11.7412 19.2439 11.0793L18.0494 9.21588C17.6636 8.63313 17.0904 8.1995 16.4247 7.98665C15.759 7.77379 15.0406 7.79448 14.3882 8.04527Z" fill="white"/>
<path d="M22.6782 19.6262H8.06911C7.82502 19.6262 7.62714 19.8241 7.62714 20.0682C7.62714 20.3123 7.82502 20.5102 8.06911 20.5102H22.6782C22.9223 20.5102 23.1202 20.3123 23.1202 20.0682C23.1202 19.8241 22.9223 19.6262 22.6782 19.6262Z" fill="white"/>
<path d="M6.83295 19.8113L5.4473 19.0169C5.40353 18.9917 5.35385 18.9784 5.3033 18.9785C5.25276 18.9786 5.20315 18.9921 5.15949 19.0176C5.11583 19.043 5.0797 19.0796 5.05472 19.1235C5.02975 19.1675 5.01683 19.2172 5.01728 19.2678V20.8744C5.01683 20.925 5.02975 20.9747 5.05472 21.0187C5.0797 21.0626 5.11583 21.0992 5.15949 21.1246C5.20315 21.1501 5.25276 21.1636 5.3033 21.1637C5.35385 21.1638 5.40353 21.1505 5.4473 21.1253L6.83295 20.3249C6.87906 20.2998 6.91755 20.2626 6.94436 20.2174C6.97116 20.1722 6.9853 20.1207 6.9853 20.0681C6.9853 20.0156 6.97116 19.964 6.94436 19.9188C6.91755 19.8736 6.87906 19.8365 6.83295 19.8113Z" fill="white"/>
<path opacity="0.65" d="M10.6135 20.934C11.0819 20.934 11.4616 20.5543 11.4616 20.0859C11.4616 19.6175 11.0819 19.2378 10.6135 19.2378C10.1451 19.2378 9.76538 19.6175 9.76538 20.0859C9.76538 20.5543 10.1451 20.934 10.6135 20.934Z" fill="url(#paint2_linear_5_1791)"/>
<defs>
<linearGradient id="paint0_linear_5_1791" x1="11.8437" y1="-1.80374" x2="11.8437" y2="15.3079" gradientUnits="userSpaceOnUse">
<stop stop-color="#0093FF"/>
<stop offset="1" stop-color="#3B3AEF"/>
</linearGradient>
<linearGradient id="paint1_linear_5_1791" x1="2.51477" y1="12.3694" x2="26.2082" y2="12.3694" gradientUnits="userSpaceOnUse">
<stop stop-color="#00BFFF"/>
<stop offset="1" stop-color="#00FFFF"/>
</linearGradient>
<linearGradient id="paint2_linear_5_1791" x1="10.6135" y1="21.4417" x2="10.6135" y2="19.7574" gradientUnits="userSpaceOnUse">
<stop stop-color="#0093FF"/>
<stop offset="1" stop-color="#3B3AEF"/>
</linearGradient>
</defs>
</svg>
