<svg width="28" height="22" viewBox="0 0 28 22" fill="none" xmlns="http://www.w3.org/2000/svg">
<path d="M22.9166 3.13585V3.97393H7.84792C7.01624 3.97393 6.21862 4.30431 5.63054 4.89239C5.04245 5.48048 4.71207 6.27807 4.71207 7.10974V17.2332H3.1414C2.89627 17.2345 2.65196 17.2047 2.41434 17.1444C1.72689 16.9839 1.11402 16.5954 0.675614 16.0421C0.237205 15.4888 -0.000929607 14.8033 2.72728e-06 14.0974V3.13585C0.00147302 2.30367 0.333093 1.50605 0.922058 0.91813C1.51102 0.330206 2.30922 2.98674e-06 3.1414 4.28558e-06H19.7918C20.3916 -0.000988887 20.979 0.170662 21.4839 0.49445C21.9888 0.818238 22.3898 1.2805 22.6391 1.82602C22.8277 2.2366 22.9225 2.68405 22.9166 3.13585Z" fill="url(#paint0_linear_5_1785)"/>
<path d="M24.8814 4.00717C24.73 3.47332 24.4387 2.98961 24.0377 2.60612C23.6366 2.22263 23.1404 1.95329 22.6003 1.82597C22.3609 1.76508 22.1146 1.73522 21.8676 1.73715H5.2172C4.80493 1.73715 4.39669 1.81844 4.01587 1.97638C3.63506 2.13431 3.28911 2.3658 2.99785 2.65758C2.70659 2.94935 2.47574 3.29569 2.31848 3.67679C2.16122 4.05788 2.08062 4.46628 2.08135 4.87855V15.8345C2.0787 16.2872 2.17732 16.7347 2.36997 17.1444C2.58933 17.6236 2.92612 18.0397 3.34914 18.354C3.77216 18.6684 4.2677 18.8708 4.78983 18.9426C4.93159 18.9605 5.07431 18.9698 5.2172 18.9704H21.8676C22.2799 18.9711 22.6883 18.8905 23.0694 18.7333C23.4505 18.576 23.7968 18.3451 24.0886 18.0539C24.3804 17.7626 24.6118 17.4166 24.7698 17.0358C24.9277 16.655 25.009 16.2468 25.009 15.8345V4.87855C25.0094 4.5834 24.9664 4.2898 24.8814 4.00717ZM22.8944 14.0973C22.8929 14.9295 22.5613 15.7271 21.9723 16.315C21.3834 16.903 20.5852 17.2332 19.753 17.2332H4.71212V7.10969C4.71212 6.27801 5.0425 5.48042 5.63058 4.89234C6.21866 4.30426 7.01629 3.97387 7.84796 3.97387H22.9166L22.8944 14.0973Z" fill="url(#paint1_linear_5_1785)"/>
<path opacity="0.6" d="M27.6175 7.1097V18.0712C27.6175 18.9034 27.2873 19.7016 26.6994 20.2906C26.1115 20.8796 25.3139 21.2112 24.4817 21.2126H7.83128C7.15087 21.2117 6.48913 20.9898 5.94564 20.5805C5.40215 20.1711 5.00626 19.5963 4.81752 18.9426C4.7374 18.6591 4.69634 18.3659 4.69543 18.0712V17.2332H19.7752C20.6074 17.2332 21.4056 16.903 21.9945 16.315C22.5835 15.7271 22.9151 14.9295 22.9166 14.0974V3.97389H24.4817C24.623 3.9735 24.764 3.98463 24.9035 4.00719C25.6554 4.10687 26.3453 4.47659 26.8447 5.04743C27.344 5.61828 27.6187 6.35126 27.6175 7.1097Z" fill="url(#paint2_linear_5_1785)"/>
<path d="M14.336 5.27808C13.2548 5.27808 12.1978 5.59871 11.2988 6.19942C10.3998 6.80013 9.69905 7.65394 9.28527 8.65288C8.87149 9.65182 8.76325 10.7511 8.97419 11.8115C9.18513 12.872 9.70578 13.8461 10.4703 14.6107C11.2349 15.3752 12.209 15.8959 13.2695 16.1068C14.33 16.3178 15.4292 16.2095 16.4281 15.7957C17.427 15.3819 18.2809 14.6813 18.8816 13.7822C19.4823 12.8832 19.8029 11.8262 19.8029 10.745C19.8029 9.29505 19.227 7.90454 18.2017 6.8793C17.1765 5.85406 15.7859 5.27808 14.336 5.27808ZM14.3749 15.5958C13.4212 15.5947 12.4892 15.3109 11.6968 14.7803C10.9044 14.2496 10.2871 13.496 9.92291 12.6146C9.55871 11.7332 9.46396 10.7636 9.65069 9.82839C9.83741 8.89317 10.2972 8.03429 10.972 7.36033C11.6467 6.68637 12.5061 6.22758 13.4415 6.04193C14.377 5.85628 15.3464 5.9521 16.2274 6.31731C17.1084 6.68252 17.8613 7.3007 18.391 8.09373C18.9208 8.88676 19.2035 9.81906 19.2035 10.7727C19.2035 11.4099 19.0773 12.0407 18.8322 12.6287C18.587 13.2168 18.2278 13.7505 17.7752 14.199C17.3226 14.6474 16.7857 15.0017 16.1954 15.2415C15.6051 15.4812 14.9731 15.6017 14.336 15.5958H14.3749Z" fill="url(#paint3_linear_5_1785)"/>
<path d="M17.2499 9.54611L13.6034 7.44262C13.3931 7.32054 13.1543 7.25613 12.9111 7.25586C12.668 7.25559 12.429 7.31948 12.2185 7.44109C12.0079 7.5627 11.8331 7.73772 11.7118 7.94848C11.5905 8.15923 11.527 8.39827 11.5277 8.64143V12.854C11.528 13.0967 11.5922 13.335 11.7139 13.545C11.8356 13.755 12.0105 13.9292 12.2209 14.0502C12.4313 14.1711 12.6698 14.2345 12.9125 14.234C13.1552 14.2335 13.3935 14.1691 13.6034 14.0473L17.2499 11.9438C17.4595 11.8216 17.6334 11.6466 17.7543 11.4363C17.8752 11.2259 17.9388 10.9875 17.9388 10.7449C17.9388 10.5023 17.8752 10.264 17.7543 10.0536C17.6334 9.84324 17.4595 9.66826 17.2499 9.54611Z" fill="url(#paint4_linear_5_1785)"/>
<defs>
<linearGradient id="paint0_linear_5_1785" x1="11.4611" y1="23.2995" x2="11.4611" y2="0.338562" gradientUnits="userSpaceOnUse">
<stop stop-color="#0093FF"/>
<stop offset="1" stop-color="#3B3AEF"/>
</linearGradient>
<linearGradient id="paint1_linear_5_1785" x1="8.58612" y1="-4.25701" x2="16.4285" y2="18.6984" gradientUnits="userSpaceOnUse">
<stop stop-color="#0093FF"/>
<stop offset="1" stop-color="#3B3AEF" stop-opacity="0.5"/>
</linearGradient>
<linearGradient id="paint2_linear_5_1785" x1="16.162" y1="27.279" x2="16.162" y2="4.31245" gradientUnits="userSpaceOnUse">
<stop stop-color="#00BFFF"/>
<stop offset="1" stop-color="#00FFFF"/>
</linearGradient>
<linearGradient id="paint3_linear_5_1785" x1="14.3138" y1="17.8103" x2="14.3138" y2="4.10699" gradientUnits="userSpaceOnUse">
<stop stop-color="#00BFFF"/>
<stop offset="1" stop-color="#00FFFF"/>
</linearGradient>
<linearGradient id="paint4_linear_5_1785" x1="14.7356" y1="4.5177" x2="14.7356" y2="15.1906" gradientUnits="userSpaceOnUse">
<stop stop-color="#0093FF"/>
<stop offset="1" stop-color="#3B3AEF"/>
</linearGradient>
</defs>
</svg>
