<svg width="27" height="23" viewBox="0 0 27 23" fill="none" xmlns="http://www.w3.org/2000/svg">
<g clip-path="url(#clip0_5_1680)">
<g opacity="0.64">
<path d="M20.5415 21.2643H5.31885C3.90887 21.2617 2.55736 20.7004 1.56036 19.7034C0.563352 18.7064 0.00212226 17.3549 -0.000457764 15.9449V6.44176C0.00212374 4.73409 0.681612 3.09709 1.88911 1.88959C3.09662 0.68209 4.7336 0.00258151 6.44126 0H20.5415C21.9515 0.00258002 23.303 0.563849 24.3 1.56086C25.297 2.55786 25.8583 3.90935 25.8608 5.31933V15.9449C25.8583 17.3549 25.297 18.7064 24.3 19.7034C23.303 20.7004 21.9515 21.2617 20.5415 21.2643ZM6.44126 0.50753C4.86794 0.509252 3.35957 1.13503 2.24706 2.24754C1.13455 3.36004 0.508775 4.86843 0.507053 6.44176V15.9449C0.508774 17.2206 1.01629 18.4435 1.9183 19.3455C2.82032 20.2475 4.04321 20.755 5.31885 20.7567H20.5415C21.8177 20.7559 23.0414 20.2487 23.9442 19.3466C24.8469 18.4445 25.3548 17.2211 25.3566 15.9449V5.31933C25.3548 4.04369 24.8473 2.82079 23.9453 1.91878C23.0433 1.01677 21.8204 0.509252 20.5448 0.50753H6.44126Z" fill="url(#paint0_linear_5_1680)"/>
</g>
<mask id="mask0_5_1680" style="mask-type:luminance" maskUnits="userSpaceOnUse" x="1" y="1" width="27" height="22">
<path d="M27.0032 6.64018V17.2658C27.0015 18.6087 26.4672 19.8962 25.5176 20.8458C24.568 21.7954 23.2806 22.3296 21.9376 22.3313H6.7182C5.3747 22.3305 4.08643 21.7966 3.13612 20.8469C2.18582 19.8972 1.65114 18.6093 1.64941 17.2658V6.64018C1.64984 5.97496 1.78127 5.31633 2.03623 4.70192C2.29119 4.0875 2.66469 3.52933 3.13537 3.05925C3.60605 2.58917 4.16472 2.21639 4.77947 1.96222C5.39421 1.70805 6.05299 1.57745 6.7182 1.57788H21.9376C23.2805 1.57788 24.5685 2.11113 25.5184 3.0604C26.4683 4.00967 27.0023 5.29727 27.0032 6.64018Z" fill="white"/>
</mask>
<g mask="url(#mask0_5_1680)">
<path d="M3.4875 1.57446L1.64932 1.58422V1.57446H3.4875Z" fill="#058CFE"/>
<path d="M27.0031 1.68183L1.64932 1.81521V1.58422L3.4875 1.57446H27.0031V1.68183Z" fill="#058BFE"/>
<path d="M27.003 1.91288L1.64923 2.04627V1.81527L27.003 1.68188V1.91288Z" fill="#068AFD"/>
<path d="M27.003 2.14383L1.64923 2.27722V2.04623L27.003 1.91284V2.14383Z" fill="#0789FD"/>
<path d="M27.003 2.37479L1.64923 2.50818V2.27719L27.003 2.1438V2.37479Z" fill="#0788FD"/>
<path d="M27.003 2.60575L1.64923 2.73914V2.50815L27.003 2.37476V2.60575Z" fill="#0887FD"/>
<path d="M27.003 2.83695L1.64923 2.97034V2.73935L27.003 2.60596V2.83695Z" fill="#0986FD"/>
<path d="M27.003 3.06791L1.64923 3.20455V2.9703L27.003 2.83691V3.06791Z" fill="#0985FC"/>
<path d="M27.003 3.29886L1.64923 3.43551V3.20451L27.003 3.06787V3.29886Z" fill="#0A84FC"/>
<path d="M27.003 3.53307L1.64923 3.66646V3.43547L27.003 3.29883V3.53307Z" fill="#0B83FC"/>
<path d="M27.003 3.76395L1.64923 3.89734V3.66635L27.003 3.53296V3.76395Z" fill="#0B82FC"/>
<path d="M27.003 3.99515L1.64923 4.12854V3.89755L27.003 3.76416V3.99515Z" fill="#0C81FC"/>
<path d="M27.003 4.22611L1.64923 4.3595V4.12851L27.003 3.99512V4.22611Z" fill="#0D80FC"/>
<path d="M27.003 4.45707L1.64923 4.59046V4.35946L27.003 4.22607V4.45707Z" fill="#0D7FFB"/>
<path d="M27.003 4.68802L1.64923 4.82141V4.59042L27.003 4.45703V4.68802Z" fill="#0E7EFB"/>
<path d="M27.003 4.91898L1.64923 5.05237V4.82138L27.003 4.68799V4.91898Z" fill="#0F7DFB"/>
<path d="M27.003 5.14994L1.64923 5.28333V5.05233L27.003 4.91895V5.14994Z" fill="#0F7CFB"/>
<path d="M27.003 5.38089L1.64923 5.51428V5.28329L27.003 5.1499V5.38089Z" fill="#107BFB"/>
<path d="M27.003 5.61209L1.64923 5.74548V5.51449L27.003 5.3811V5.61209Z" fill="#117AFA"/>
<path d="M27.003 5.84305L1.64923 5.97644V5.74545L27.003 5.61206V5.84305Z" fill="#1179FA"/>
<path d="M27.003 6.07401L1.64923 6.21065V5.97641L27.003 5.84302V6.07401Z" fill="#1278FA"/>
<path d="M27.003 6.30497L1.64923 6.44161V6.21062L27.003 6.07397V6.30497Z" fill="#1377FA"/>
<path d="M27.003 6.53592L1.64923 6.67257V6.44157L27.003 6.30493V6.53592Z" fill="#1376FA"/>
<path d="M27.003 6.76688L1.64923 6.90352V6.67253L27.003 6.53589V6.76688Z" fill="#1475FA"/>
<path d="M27.003 7.00109L1.64923 7.13448V6.90349L27.003 6.76685V7.00109Z" fill="#1574F9"/>
<path d="M27.003 7.23221L1.64923 7.3656V7.13461L27.003 7.00122V7.23221Z" fill="#1573F9"/>
<path d="M27.003 7.46317L1.64923 7.59656V7.36557L27.003 7.23218V7.46317Z" fill="#1672F9"/>
<path d="M27.003 7.69413L1.64923 7.82752V7.59652L27.003 7.46313V7.69413Z" fill="#1771F9"/>
<path d="M27.003 7.92508L1.64923 8.05847V7.82748L27.003 7.69409V7.92508Z" fill="#1770F9"/>
<path d="M27.003 8.15604L1.64923 8.28943V8.05844L27.003 7.92505V8.15604Z" fill="#186FF8"/>
<path d="M27.003 8.38724L1.64923 8.52063V8.28964L27.003 8.15625V8.38724Z" fill="#196EF8"/>
<path d="M27.003 8.6182L1.64923 8.75159V8.5206L27.003 8.38721V8.6182Z" fill="#196DF8"/>
<path d="M27.003 8.84916L1.64923 8.98255V8.75155L27.003 8.61816V8.84916Z" fill="#1A6CF8"/>
<path d="M27.003 9.08011L1.64923 9.2135V8.98251L27.003 8.84912V9.08011Z" fill="#1B6BF8"/>
<path d="M27.003 9.31107L1.64923 9.44771V9.21347L27.003 9.08008V9.31107Z" fill="#1B6AF8"/>
<path d="M27.003 9.54203L1.64923 9.67867V9.44768L27.003 9.31104V9.54203Z" fill="#1C69F7"/>
<path d="M27.003 9.77298L1.64923 9.90963V9.67864L27.003 9.54199V9.77298Z" fill="#1D68F7"/>
<path d="M27.003 10.0042L1.64923 10.1408V9.90984L27.003 9.77319V10.0042Z" fill="#1E67F7"/>
<path d="M27.003 10.2384L1.64923 10.3718V10.1408L27.003 10.0042V10.2384Z" fill="#1E65F7"/>
<path d="M27.003 10.4693L1.64923 10.6027V10.3717L27.003 10.2383V10.4693Z" fill="#1F64F7"/>
<path d="M27.003 10.7002L1.64923 10.8336V10.6026L27.003 10.4692V10.7002Z" fill="#2063F6"/>
<path d="M27.003 10.9312L1.64923 11.0646V10.8336L27.003 10.7002V10.9312Z" fill="#2062F6"/>
<path d="M27.003 11.1624L1.64923 11.2958V11.0648L27.003 10.9314V11.1624Z" fill="#2161F6"/>
<path d="M27.003 11.3933L1.64923 11.5267V11.2957L27.003 11.1624V11.3933Z" fill="#2260F6"/>
<path d="M27.003 11.6243L1.64923 11.7577V11.5267L27.003 11.3933V11.6243Z" fill="#225FF6"/>
<path d="M27.003 11.8553L1.64923 11.9886V11.7577L27.003 11.6243V11.8553Z" fill="#235EF6"/>
<path d="M27.003 12.0862L1.64923 12.2196V11.9886L27.003 11.8552V12.0862Z" fill="#245DF5"/>
<path d="M27.003 12.3172L1.64923 12.4506V12.2196L27.003 12.0862V12.3172Z" fill="#245CF5"/>
<path d="M27.003 12.5481L1.64923 12.6815V12.4505L27.003 12.3171V12.5481Z" fill="#255BF5"/>
<path d="M27.003 12.7793L1.64923 12.916V12.6817L27.003 12.5483V12.7793Z" fill="#265AF5"/>
<path d="M27.003 13.0103L1.64923 13.1469V12.9159L27.003 12.7793V13.0103Z" fill="#2659F5"/>
<path d="M27.003 13.2412L1.64923 13.3779V13.1469L27.003 13.0103V13.2412Z" fill="#2758F4"/>
<path d="M27.003 13.4755L1.64923 13.6088V13.3779L27.003 13.2412V13.4755Z" fill="#2857F4"/>
<path d="M27.003 13.7063L1.64923 13.8397V13.6087L27.003 13.4753V13.7063Z" fill="#2856F4"/>
<path d="M27.003 13.9375L1.64923 14.0709V13.8399L27.003 13.7065V13.9375Z" fill="#2955F4"/>
<path d="M27.003 14.1685L1.64923 14.3019V14.0709L27.003 13.9375V14.1685Z" fill="#2A54F4"/>
<path d="M27.003 14.3994L1.64923 14.5328V14.3018L27.003 14.1685V14.3994Z" fill="#2A53F4"/>
<path d="M27.003 14.6304L1.64923 14.7638V14.5328L27.003 14.3994V14.6304Z" fill="#2B52F3"/>
<path d="M27.003 14.8614L1.64923 14.9948V14.7638L27.003 14.6304V14.8614Z" fill="#2C51F3"/>
<path d="M27.003 15.0923L1.64923 15.2257V14.9947L27.003 14.8613V15.0923Z" fill="#2C50F3"/>
<path d="M27.003 15.3233L1.64923 15.4567V15.2257L27.003 15.0923V15.3233Z" fill="#2D4FF3"/>
<path d="M27.003 15.5545L1.64923 15.6879V15.4569L27.003 15.3235V15.5545Z" fill="#2E4EF3"/>
<path d="M27.003 15.7854L1.64923 15.9221V15.6878L27.003 15.5544V15.7854Z" fill="#2E4DF2"/>
<path d="M27.003 16.0164L1.64923 16.153V15.922L27.003 15.7854V16.0164Z" fill="#2F4CF2"/>
<path d="M27.003 16.2473L1.64923 16.384V16.153L27.003 16.0164V16.2473Z" fill="#304BF2"/>
<path d="M27.003 16.4816L1.64923 16.6149V16.384L27.003 16.2473V16.4816Z" fill="#304AF2"/>
<path d="M27.003 16.7127L1.64923 16.8461V16.6151L27.003 16.4817V16.7127Z" fill="#3149F2"/>
<path d="M27.003 16.9436L1.64923 17.077V16.846L27.003 16.7126V16.9436Z" fill="#3248F2"/>
<path d="M27.003 17.1746L1.64923 17.308V17.077L27.003 16.9436V17.1746Z" fill="#3247F1"/>
<path d="M27.003 17.4056L1.64923 17.5389V17.308L27.003 17.1746V17.4056Z" fill="#3346F1"/>
<path d="M27.003 17.6365L1.64923 17.7699V17.5389L27.003 17.4055V17.6365Z" fill="#3445F1"/>
<path d="M27.003 17.8675L1.64923 18.0009V17.7699L27.003 17.6365V17.8675Z" fill="#3444F1"/>
<path d="M27.003 18.0984L1.64923 18.2318V18.0008L27.003 17.8674V18.0984Z" fill="#3543F1"/>
<path d="M27.003 18.3296L1.64923 18.463V18.232L27.003 18.0986V18.3296Z" fill="#3642F0"/>
<path d="M27.003 18.5606L1.64923 18.694V18.463L27.003 18.3296V18.5606Z" fill="#3641F0"/>
<path d="M27.003 18.7915L1.64923 18.9249V18.6939L27.003 18.5605V18.7915Z" fill="#3740F0"/>
<path d="M27.003 19.0225L1.64923 19.1559V18.9249L27.003 18.7915V19.0225Z" fill="#383FF0"/>
<path d="M27.003 19.2535L1.64923 19.3901V19.1559L27.003 19.0225V19.2535Z" fill="#383EF0"/>
<path d="M27.003 19.4844L1.64923 19.6211V19.3901L27.003 19.2534V19.4844Z" fill="#393DF0"/>
<path d="M27.003 19.7154L1.64923 19.852V19.621L27.003 19.4844V19.7154Z" fill="#3A3CEF"/>
<path d="M27.003 19.9466L1.64923 20.0832V19.8522L27.003 19.7156V19.9466Z" fill="#3A3BEF"/>
<path d="M27.003 20.1808L1.64923 20.3142V20.0832L27.003 19.9465V20.1808Z" fill="#3B3AEF"/>
<path d="M1.64923 20.3141L27.003 20.1807V22.3312H1.64923V20.3141Z" fill="#3B3AEF"/>
</g>
<path d="M14.0806 12.6721C16.244 12.6721 17.9977 10.9183 17.9977 8.75499C17.9977 6.59164 16.244 4.83789 14.0806 4.83789C11.9173 4.83789 10.1635 6.59164 10.1635 8.75499C10.1635 10.9183 11.9173 12.6721 14.0806 12.6721Z" fill="#00FFFF"/>
<path d="M14.0806 18.9934C17.3885 18.9934 20.0701 17.8602 20.0701 16.4623C20.0701 15.0644 17.3885 13.9312 14.0806 13.9312C10.7727 13.9312 8.09109 15.0644 8.09109 16.4623C8.09109 17.8602 10.7727 18.9934 14.0806 18.9934Z" fill="#00FFFF"/>
<path d="M19.4715 3.98866V4.49294C19.4715 4.53953 19.49 4.58422 19.523 4.61717C19.5559 4.65011 19.6006 4.66864 19.6472 4.66864H21.1893C21.2362 4.66949 21.2809 4.6887 21.3138 4.72217C21.3466 4.75564 21.365 4.80067 21.365 4.84757V6.38642C21.3658 6.43331 21.3851 6.47801 21.4185 6.51087C21.452 6.54372 21.497 6.56213 21.5439 6.56212H22.0449C22.0918 6.56213 22.1369 6.54372 22.1704 6.51087C22.2038 6.47801 22.223 6.43331 22.2239 6.38642V4.32703C22.223 4.1904 22.1682 4.05966 22.0712 3.96335C21.9743 3.86704 21.8432 3.81299 21.7066 3.81299H19.6472C19.6241 3.81299 19.6013 3.81752 19.58 3.82635C19.5587 3.83518 19.5393 3.84812 19.523 3.86444C19.5066 3.88075 19.4937 3.90011 19.4849 3.92143C19.476 3.94274 19.4715 3.96559 19.4715 3.98866Z" fill="white"/>
<path d="M8.68964 3.98866V4.49294C8.68964 4.53953 8.67112 4.58422 8.63817 4.61717C8.60522 4.65011 8.56054 4.66864 8.51394 4.66864H6.97509C6.92763 4.66864 6.88212 4.68748 6.84856 4.72104C6.815 4.7546 6.79614 4.80011 6.79614 4.84757V6.38642C6.79614 6.43302 6.77765 6.4777 6.74471 6.51065C6.71176 6.5436 6.66708 6.56212 6.62048 6.56212H6.11619C6.06959 6.56212 6.02491 6.5436 5.99196 6.51065C5.95901 6.4777 5.94049 6.43302 5.94049 6.38642V4.32703C5.94049 4.25953 5.95382 4.19267 5.97965 4.13031C6.00548 4.06794 6.04332 4.01128 6.09105 3.96355C6.13878 3.91581 6.19548 3.87794 6.25785 3.85211C6.32021 3.82627 6.38705 3.81299 6.45455 3.81299H8.51394C8.53702 3.81299 8.55987 3.81752 8.58118 3.82635C8.6025 3.83518 8.62186 3.84812 8.63817 3.86444C8.65449 3.88075 8.66743 3.90011 8.67626 3.92143C8.68509 3.94274 8.68964 3.96559 8.68964 3.98866Z" fill="white"/>
<path d="M19.4718 19.9174V19.4262C19.4718 19.3793 19.4902 19.3342 19.523 19.3008C19.5559 19.2673 19.6006 19.2481 19.6475 19.2472H21.1896C21.2362 19.2472 21.2808 19.2287 21.3138 19.1958C21.3467 19.1628 21.3653 19.1181 21.3653 19.0715V17.5327C21.3653 17.4852 21.3841 17.4397 21.4177 17.4062C21.4512 17.3726 21.4968 17.3538 21.5442 17.3538H22.0452C22.0927 17.3538 22.1382 17.3726 22.1717 17.4062C22.2053 17.4397 22.2242 17.4852 22.2242 17.5327V19.5921C22.2233 19.7287 22.1684 19.8595 22.0715 19.9558C21.9746 20.0521 21.8435 20.1061 21.7069 20.1061H19.6475C19.6234 20.1057 19.5997 20.1005 19.5777 20.0907C19.5557 20.0809 19.5359 20.0668 19.5195 20.0492C19.5031 20.0315 19.4904 20.0108 19.4822 19.9882C19.474 19.9655 19.4705 19.9415 19.4718 19.9174Z" fill="white"/>
<path d="M8.68964 19.9174V19.4262C8.68965 19.3793 8.67123 19.3342 8.63837 19.3008C8.60551 19.2673 8.56084 19.2481 8.51394 19.2472H6.97509C6.92819 19.2473 6.88318 19.2288 6.84971 19.196C6.81625 19.1631 6.79699 19.1184 6.79614 19.0715V17.5327C6.79615 17.4858 6.77776 17.4408 6.74491 17.4073C6.71205 17.3738 6.66737 17.3546 6.62048 17.3538H6.11619C6.0693 17.3546 6.02462 17.3738 5.99176 17.4073C5.95891 17.4408 5.94048 17.4858 5.94049 17.5327V19.5921C5.94049 19.7284 5.99465 19.8592 6.09105 19.9556C6.18745 20.052 6.31822 20.1061 6.45455 20.1061H8.51394C8.53801 20.1057 8.56177 20.1005 8.58376 20.0907C8.60575 20.0809 8.62554 20.0668 8.64194 20.0492C8.65835 20.0315 8.671 20.0108 8.6792 19.9882C8.68739 19.9655 8.69096 19.9415 8.68964 19.9174Z" fill="white"/>
</g>
<defs>
<linearGradient id="paint0_linear_5_1680" x1="-0.000457764" y1="10.6321" x2="25.8608" y2="10.6321" gradientUnits="userSpaceOnUse">
<stop stop-color="#00DDFF"/>
<stop offset="1" stop-color="#00FFFF"/>
</linearGradient>
<clipPath id="clip0_5_1680">
<rect width="27" height="22.3314" fill="white"/>
</clipPath>
</defs>
</svg>
