<svg width="30" height="24" viewBox="0 0 30 24" fill="none" xmlns="http://www.w3.org/2000/svg">
<g clip-path="url(#clip0_5_1673)">
<path opacity="0.56" d="M19.4755 5.47365L12.9871 16.7157C12.7971 17.0437 12.6969 17.416 12.6966 17.7951C12.6962 18.1742 12.7957 18.5467 12.9851 18.875C13.1745 19.2034 13.4471 19.4761 13.7754 19.6657C14.1037 19.8552 14.4761 19.9549 14.8552 19.9547H27.8372C28.2162 19.9546 28.5885 19.8547 28.9167 19.6652C29.2449 19.4756 29.5174 19.2031 29.707 18.8749C29.8965 18.5467 29.9964 18.1744 29.9966 17.7954C29.9967 17.4164 29.8971 17.044 29.7079 16.7157L23.2169 5.47365C23.0273 5.14533 22.7546 4.8727 22.4262 4.68314C22.0978 4.49359 21.7254 4.3938 21.3462 4.3938C20.9671 4.3938 20.5946 4.49359 20.2662 4.68314C19.9378 4.8727 19.6652 5.14533 19.4755 5.47365Z" fill="url(#paint0_linear_5_1673)"/>
<path d="M13.6662 2.38062H3.60296C2.71376 2.38061 1.86096 2.73367 1.23196 3.36219C0.602959 3.9907 0.249245 4.84325 0.248566 5.73245V19.6754C0.248566 20.565 0.601978 21.4182 1.23105 22.0473C1.86012 22.6764 2.71332 23.0298 3.60296 23.0298H13.6662C14.5558 23.0298 15.409 22.6764 16.0381 22.0473C16.6672 21.4182 17.0206 20.565 17.0206 19.6754V5.73245C17.0199 4.84325 16.6662 3.9907 16.0372 3.36219C15.4082 2.73367 14.5554 2.38061 13.6662 2.38062ZM8.4206 18.5863C8.28472 18.7223 8.10037 18.7988 7.90809 18.799H4.06424C3.87234 18.7983 3.68855 18.7216 3.5531 18.5857C3.41765 18.4498 3.34157 18.2657 3.34157 18.0738C3.34124 17.9787 3.35968 17.8844 3.39585 17.7965C3.43201 17.7085 3.48521 17.6285 3.55235 17.5611C3.61948 17.4938 3.69924 17.4403 3.78708 17.4038C3.87493 17.3674 3.96912 17.3486 4.06424 17.3486H7.90809C8.10043 17.3486 8.28488 17.425 8.42089 17.561C8.55689 17.697 8.63329 17.8815 8.63329 18.0738C8.63479 18.1685 8.61743 18.2626 8.58223 18.3506C8.54704 18.4386 8.49473 18.5187 8.4283 18.5863H8.4206ZM13.7098 14.9449C13.5739 15.0809 13.3895 15.1574 13.1972 15.1576H4.06937C3.87747 15.1569 3.69365 15.0802 3.5582 14.9443C3.42275 14.8083 3.3467 14.6243 3.3467 14.4324C3.34637 14.3373 3.36481 14.243 3.40098 14.155C3.43714 14.0671 3.49031 13.9871 3.55745 13.9197C3.62458 13.8524 3.70437 13.7989 3.79221 13.7624C3.88006 13.7259 3.97425 13.7072 4.06937 13.7072H13.1972C13.3406 13.7073 13.4807 13.7499 13.5998 13.8296C13.719 13.9093 13.8118 14.0225 13.8667 14.1549C13.9215 14.2874 13.9359 14.4331 13.908 14.5737C13.88 14.7143 13.8111 14.8435 13.7098 14.9449ZM13.7098 11.3009C13.6428 11.3687 13.563 11.4225 13.475 11.459C13.3869 11.4955 13.2925 11.5141 13.1972 11.5136H4.06937C3.97425 11.5136 3.88006 11.4948 3.79221 11.4584C3.70437 11.4219 3.62458 11.3684 3.55745 11.301C3.49031 11.2337 3.43714 11.1537 3.40098 11.0657C3.36481 10.9778 3.34637 10.8835 3.3467 10.7884C3.34602 10.6933 3.36425 10.599 3.40032 10.5111C3.43639 10.4231 3.48961 10.3431 3.55685 10.2759C3.62409 10.2087 3.70401 10.1554 3.79199 10.1194C3.87998 10.0833 3.97428 10.0651 4.06937 10.0658H13.1972C13.3406 10.0652 13.4809 10.1072 13.6003 10.1866C13.7197 10.2659 13.8128 10.379 13.8678 10.5114C13.9227 10.6439 13.937 10.7896 13.9089 10.9302C13.8808 11.0708 13.8114 11.1998 13.7098 11.3009ZM13.7098 7.6595C13.5739 7.79554 13.3895 7.87205 13.1972 7.8722H4.06937C3.87747 7.87152 3.69365 7.79481 3.5582 7.65888C3.42275 7.52295 3.3467 7.33888 3.3467 7.14699C3.34637 7.05187 3.36481 6.95763 3.40098 6.86966C3.43714 6.78169 3.49031 6.70172 3.55745 6.63435C3.62458 6.56697 3.70437 6.51351 3.79221 6.47704C3.88006 6.44056 3.97425 6.42178 4.06937 6.42178H13.1972C13.3406 6.4219 13.4807 6.46449 13.5998 6.54419C13.719 6.62388 13.8118 6.7371 13.8667 6.86955C13.9215 7.00199 13.9359 7.14772 13.908 7.28832C13.88 7.42892 13.8111 7.55808 13.7098 7.6595Z" stroke="url(#paint1_linear_5_1673)" stroke-width="0.512514" stroke-miterlimit="10"/>
<path d="M14.3581 1.85278H4.29489C3.40569 1.85278 2.55285 2.20583 1.92385 2.83435C1.29485 3.46287 0.94114 4.31542 0.94046 5.20462V19.1476C0.94046 20.0372 1.29387 20.8904 1.92295 21.5195C2.55202 22.1486 3.40524 22.502 4.29489 22.502H14.3581C15.2477 22.502 16.1009 22.1486 16.73 21.5195C17.3591 20.8904 17.7125 20.0372 17.7125 19.1476V5.20462C17.7118 4.31542 17.3581 3.46287 16.7291 2.83435C16.1001 2.20583 15.2473 1.85278 14.3581 1.85278ZM9.1125 18.0585C8.97661 18.1945 8.79226 18.271 8.59998 18.2712H4.75613C4.56424 18.2705 4.38044 18.1938 4.24499 18.0579C4.10954 17.9219 4.0335 17.7378 4.0335 17.546C4.03316 17.4508 4.05161 17.3566 4.08777 17.2686C4.12394 17.1807 4.1771 17.1007 4.24424 17.0333C4.31138 16.9659 4.39117 16.9125 4.47901 16.876C4.56685 16.8395 4.66101 16.8207 4.75613 16.8207H8.59998C8.79232 16.8207 8.97678 16.8972 9.11278 17.0332C9.24878 17.1692 9.32521 17.3536 9.32521 17.546C9.3257 17.6412 9.30712 17.7357 9.27059 17.8237C9.23407 17.9117 9.18032 17.9915 9.1125 18.0585ZM14.4016 14.4171C14.2658 14.5531 14.0814 14.6296 13.8891 14.6298H4.76126C4.56937 14.6291 4.38557 14.5524 4.25012 14.4164C4.11467 14.2805 4.03863 14.0964 4.03863 13.9045C4.03829 13.8094 4.05671 13.7152 4.09287 13.6272C4.12904 13.5392 4.18223 13.4593 4.24937 13.3919C4.31651 13.3245 4.39626 13.2711 4.48411 13.2346C4.57195 13.1981 4.66614 13.1793 4.76126 13.1793H13.8891C14.0325 13.1794 14.1726 13.222 14.2917 13.3017C14.4109 13.3814 14.5037 13.4947 14.5586 13.6271C14.6134 13.7595 14.6278 13.9053 14.5999 14.0459C14.5719 14.1865 14.503 14.3156 14.4016 14.4171ZM14.4016 10.7731C14.3347 10.8409 14.2549 10.8947 14.1669 10.9312C14.0789 10.9677 13.9844 10.9863 13.8891 10.9858H4.76126C4.66614 10.9858 4.57195 10.967 4.48411 10.9305C4.39626 10.894 4.31651 10.8406 4.24937 10.7732C4.18223 10.7058 4.12904 10.6259 4.09287 10.5379C4.05671 10.4499 4.03829 10.3557 4.03863 10.2606C4.03795 10.1655 4.05617 10.0712 4.09225 9.98322C4.12832 9.89524 4.18151 9.81531 4.24875 9.74807C4.31599 9.68083 4.39594 9.62762 4.48392 9.59154C4.5719 9.55547 4.66617 9.53724 4.76126 9.53793H13.8891C14.0325 9.53732 14.1728 9.57937 14.2922 9.65873C14.4116 9.7381 14.5047 9.85118 14.5597 9.98361C14.6146 10.116 14.6289 10.2618 14.6008 10.4024C14.5726 10.543 14.5033 10.672 14.4016 10.7731ZM14.4016 7.13167C14.2658 7.26771 14.0814 7.34422 13.8891 7.34437H4.76126C4.56937 7.34369 4.38557 7.26698 4.25012 7.13105C4.11467 6.99512 4.03863 6.81105 4.03863 6.61916C4.03829 6.52404 4.05671 6.4298 4.09287 6.34183C4.12904 6.25386 4.18223 6.17389 4.24937 6.10652C4.31651 6.03914 4.39626 5.98568 4.48411 5.9492C4.57195 5.91273 4.66614 5.89395 4.76126 5.89395H13.8891C14.0325 5.89406 14.1726 5.93666 14.2917 6.01636C14.4109 6.09605 14.5037 6.20927 14.5586 6.34171C14.6134 6.47416 14.6278 6.61988 14.5999 6.76049C14.5719 6.90109 14.503 7.03025 14.4016 7.13167Z" fill="url(#paint2_linear_5_1673)"/>
<path opacity="0.41" d="M13.8455 8.33094L7.91322 18.6094C7.74002 18.9094 7.64885 19.2497 7.64886 19.5961C7.64888 19.9425 7.74009 20.2828 7.91332 20.5828C8.08655 20.8827 8.33568 21.1318 8.6357 21.305C8.93572 21.4781 9.27604 21.5692 9.62244 21.5692H21.4897C21.8361 21.5692 22.1764 21.4781 22.4765 21.305C22.7765 21.1318 23.0256 20.8827 23.1988 20.5828C23.3721 20.2828 23.4633 19.9425 23.4633 19.5961C23.4633 19.2497 23.3721 18.9094 23.1989 18.6094L17.2538 8.33094C17.0795 8.03383 16.8305 7.78744 16.5316 7.61624C16.2326 7.44504 15.8941 7.35498 15.5497 7.35498C15.2052 7.35498 14.8667 7.44504 14.5678 7.61624C14.2688 7.78744 14.0199 8.03383 13.8455 8.33094Z" fill="url(#paint3_linear_5_1673)"/>
<path opacity="0.69" d="M13.802 4.85363C13.3373 4.38868 13.0481 3.77699 12.9838 3.12276C12.9194 2.46853 13.0839 1.81222 13.4491 1.26563C13.8144 0.719047 14.3578 0.315989 14.9868 0.125115C15.6159 -0.065759 16.2917 -0.0326411 16.8991 0.218826C17.5065 0.470294 18.0079 0.924552 18.318 1.50423C18.628 2.08391 18.7275 2.75316 18.5995 3.39796C18.4715 4.04276 18.1239 4.62324 17.6159 5.04053C17.108 5.45781 16.471 5.68609 15.8136 5.68646C15.44 5.68682 15.07 5.61344 14.7248 5.47052C14.3796 5.32761 14.0661 5.11797 13.802 4.85363Z" fill="url(#paint4_linear_5_1673)"/>
</g>
<defs>
<linearGradient id="paint0_linear_5_1673" x1="21.3462" y1="22.5865" x2="21.3462" y2="10.176" gradientUnits="userSpaceOnUse">
<stop stop-color="#3B3AEF"/>
<stop offset="0.96" stop-color="#0093FF"/>
</linearGradient>
<linearGradient id="paint1_linear_5_1673" x1="-3.38497e-06" y1="12.7052" x2="17.2845" y2="12.7052" gradientUnits="userSpaceOnUse">
<stop stop-color="#00DDFF"/>
<stop offset="1" stop-color="#00FFFF"/>
</linearGradient>
<linearGradient id="paint2_linear_5_1673" x1="9.32776" y1="25.8307" x2="9.32776" y2="7.60575" gradientUnits="userSpaceOnUse">
<stop stop-color="#3B3AEF"/>
<stop offset="0.96" stop-color="#0093FF"/>
</linearGradient>
<linearGradient id="paint3_linear_5_1673" x1="15.5548" y1="23.9754" x2="15.5548" y2="12.6309" gradientUnits="userSpaceOnUse">
<stop stop-color="#00BFFF"/>
<stop offset="1" stop-color="#00FFFF"/>
</linearGradient>
<linearGradient id="paint4_linear_5_1673" x1="15.8136" y1="-1.03772" x2="15.8136" y2="4.51793" gradientUnits="userSpaceOnUse">
<stop stop-color="#00BFFF"/>
<stop offset="1" stop-color="#00FFFF"/>
</linearGradient>
<clipPath id="clip0_5_1673">
<rect width="30" height="23.2835" fill="white"/>
</clipPath>
</defs>
</svg>
