<svg width="33" height="33" viewBox="0 0 33 33" fill="none" xmlns="http://www.w3.org/2000/svg">
<g clip-path="url(#clip0_8_15024)">
<path d="M16.4656 31.787C24.9061 31.787 31.7484 24.9498 31.7484 16.5158C31.7484 8.08177 24.9061 1.24463 16.4656 1.24463C8.02519 1.24463 1.18286 8.08177 1.18286 16.5158C1.18286 24.9498 8.02519 31.787 16.4656 31.787Z" fill="white"/>
<path d="M22.1419 2.29481C21.516 2.38862 21.0154 2.43865 20.5022 2.55121C19.1336 2.85983 17.8681 3.51688 16.8286 4.45855C16.5908 4.67117 16.4531 4.70869 16.2028 4.45855C14.8142 3.19602 13.033 2.44963 11.1586 2.34484C11.0647 2.34484 10.9395 2.38862 10.9082 2.24479C10.8769 2.10095 10.9959 2.11972 11.0584 2.06344C12.5681 0.725026 14.5184 -0.0104513 16.5366 -0.0023756C18.5547 0.00570014 20.4991 0.756758 21.9979 2.10721L22.1419 2.29481Z" fill="#207A91"/>
<path d="M10.4013 2.51389C9.49534 3.52399 8.83372 4.72855 8.46748 6.03464C8.30181 6.61302 8.20725 7.20942 8.18587 7.81065C8.18587 7.98575 8.18586 8.1671 7.94179 8.17961C5.91463 8.25214 3.98249 9.0564 2.50332 10.4434C2.2217 6.6725 5.93287 2.35755 10.4013 2.51389Z" fill="#207A91"/>
<path d="M22.5798 2.45117C24.6033 2.49394 26.5391 3.2848 28.0129 4.67087C29.4867 6.05694 30.3939 7.9398 30.5592 9.95544C30.5592 10.068 30.6405 10.2181 30.5091 10.2869C30.3777 10.3557 30.2963 10.2181 30.2087 10.143C28.8167 8.97121 27.0819 8.2822 25.2646 8.17943C24.983 8.17943 24.8391 8.12314 24.8203 7.78545C24.7294 5.87766 23.9822 4.05972 22.705 2.63878C22.6588 2.57934 22.617 2.51664 22.5798 2.45117Z" fill="#207A91"/>
<path d="M30.5718 22.6064C30.6782 26.7588 26.7668 30.6735 22.7114 30.5047C22.7114 30.3046 22.8679 30.2108 22.968 30.0919C24.0909 28.7251 24.7485 27.0362 24.8455 25.2704C24.8455 25.0078 24.8768 24.8202 25.2273 24.8077C27.1193 24.7373 28.9274 24.0097 30.3403 22.7503C30.4138 22.6966 30.4912 22.6486 30.5718 22.6064Z" fill="#207A91"/>
<path d="M10.4139 30.4986C6.42106 30.68 2.40323 26.9403 2.46581 22.6692C2.63478 22.6191 2.70363 22.7692 2.80376 22.8505C4.18749 24.0393 5.93099 24.7286 7.75408 24.8079C7.96686 24.8079 8.17339 24.8079 8.1859 25.1143C8.26287 27.117 9.05295 29.0264 10.4139 30.4986Z" fill="#207A91"/>
<path d="M10.8958 30.7552C11.5216 30.6426 12.1099 30.5738 12.6731 30.4425C13.9995 30.1151 15.222 29.4591 16.2278 28.5351C16.403 28.3788 16.5157 28.2913 16.741 28.4976C18.1433 29.7969 19.9517 30.5722 21.8603 30.6926C21.9103 30.6954 21.9592 30.7082 22.0042 30.7302C22.0042 30.7302 22.0042 30.7302 22.0355 30.7739C19.6386 33.4567 14.1688 34.0133 10.8958 30.7552Z" fill="#207A91"/>
<path d="M16.4905 17.7915C16.6321 18.0384 16.7155 18.3143 16.7346 18.5982C17.0625 19.8512 17.6798 21.0099 18.537 21.9814C18.6442 22.0901 18.7266 22.2208 18.7784 22.3643C18.8303 22.5079 18.8504 22.661 18.8374 22.8131C18.7488 24.6865 18.0148 26.4716 16.7596 27.866C16.5531 28.0974 16.4467 28.0849 16.2464 27.866C15.0411 26.5234 14.3168 24.8185 14.1875 23.0195C14.1676 22.8266 14.1885 22.6318 14.2489 22.4475C14.3092 22.2633 14.4077 22.0938 14.5379 21.9501C15.5236 20.8331 16.1743 19.4612 16.4154 17.9916C16.4326 17.9222 16.4578 17.8551 16.4905 17.7915Z" fill="#F49A23"/>
<path d="M2.26539 10.9062C2.34481 12.0623 2.63541 13.1941 3.12279 14.2456C3.47991 14.9712 3.93471 15.6445 4.47457 16.2468C4.60599 16.3969 4.73116 16.5032 4.53715 16.7095C3.17353 18.1742 2.37696 20.0765 2.29043 22.0751C-0.394382 19.8051 -1.10158 14.2456 2.26539 10.9062Z" fill="#207A91"/>
<path d="M30.7158 22.1313C30.6357 20.1115 29.8368 18.1867 28.4628 16.7032C28.2625 16.4906 28.419 16.378 28.5441 16.2404C29.5755 15.0977 30.2726 13.6937 30.5593 12.1819C30.6344 11.7816 30.6782 11.3814 30.7345 10.9624C33.4006 13.2512 34.089 18.8481 30.7158 22.1313Z" fill="#207A91"/>
<path d="M17.323 15.6591C18.3141 14.3033 18.8803 12.6841 18.9502 11.0065C18.9674 10.8794 19.0122 10.7576 19.0813 10.6496C19.1505 10.5416 19.2424 10.45 19.3507 10.3811C20.7375 9.14738 22.5031 8.42183 24.3573 8.32373C24.6515 8.32373 24.7266 8.39876 24.7078 8.66141C24.6076 10.5881 23.8296 12.4175 22.5111 13.8268C22.4577 13.8932 22.3913 13.9479 22.316 13.9877C22.2407 14.0275 22.158 14.0515 22.0731 14.0582C20.3779 14.1293 18.7429 14.7066 17.3793 15.7154C17.3576 15.6999 17.3386 15.6809 17.323 15.6591Z" fill="#F49A23"/>
<path d="M15.6333 17.4476C14.6904 18.7721 14.1474 20.3391 14.0687 21.9626C14.0676 22.0743 14.0418 22.1844 13.9931 22.285C13.9444 22.3855 13.874 22.474 13.7871 22.5442C12.3894 23.8423 10.5796 24.6081 8.67403 24.7079C8.34234 24.7079 8.26723 24.6329 8.29227 24.3077C8.41217 22.4505 9.1552 20.688 10.4013 19.3049C10.487 19.199 10.5945 19.1129 10.7166 19.0524C10.8386 18.992 10.9723 18.9586 11.1085 18.9547C12.5773 18.8807 13.9975 18.4048 15.2139 17.5789C15.334 17.4822 15.4855 17.4332 15.6395 17.4413L15.6333 17.4476Z" fill="#F49A23"/>
<path d="M17.4294 17.4287C17.6102 17.5049 17.7857 17.5926 17.9551 17.6913C19.1474 18.4579 20.5195 18.8999 21.9354 18.9733C22.0701 18.977 22.2024 19.0097 22.3234 19.069C22.4443 19.1284 22.5511 19.213 22.6364 19.3173C23.8844 20.6986 24.6258 22.4626 24.7391 24.3201C24.7391 24.6453 24.664 24.7391 24.3449 24.7203C22.4197 24.6155 20.5944 23.831 19.1943 22.5066C19.1229 22.4444 19.0657 22.3674 19.0268 22.2811C18.988 22.1947 18.9682 22.101 18.969 22.0063C18.9405 20.4248 18.4126 18.8927 17.4607 17.6288C17.4607 17.6288 17.4294 17.5475 17.4294 17.4287Z" fill="#F49A23"/>
<path d="M16.4842 15.321C16.3384 14.6858 16.1566 14.0595 15.9398 13.4449C15.5865 12.5655 15.0848 11.7533 14.4566 11.0436C14.3566 10.9398 14.2803 10.8156 14.2327 10.6797C14.1852 10.5437 14.1676 10.399 14.1812 10.2556C14.2679 8.38233 14.9972 6.59592 16.2464 5.19649C16.4467 4.9651 16.5594 4.9651 16.7596 5.19649C17.9731 6.55784 18.7034 8.28112 18.8374 10.0993C18.8595 10.2705 18.8459 10.4445 18.7974 10.6102C18.749 10.776 18.6667 10.9299 18.5557 11.0623C17.5396 12.1975 16.8631 13.5951 16.6032 15.0959C16.5691 15.1737 16.5294 15.249 16.4842 15.321Z" fill="#F49A23"/>
<path d="M15.4641 15.5524C14.4549 14.8921 13.3293 14.4294 12.1472 14.1891C11.9659 14.1381 11.7787 14.1107 11.5903 14.1078C11.2565 14.1245 10.9248 14.0464 10.6335 13.8826C10.3423 13.7188 10.1033 13.476 9.94433 13.1823C8.99067 11.8854 8.4204 10.347 8.2984 8.74227C8.26711 8.4296 8.36098 8.31078 8.68641 8.32954C10.6319 8.42575 12.476 9.22595 13.8745 10.5808C13.9281 10.6233 13.9724 10.6763 14.0047 10.7365C14.037 10.7967 14.0566 10.8629 14.0623 10.931C14.115 12.5544 14.6295 14.1293 15.5455 15.4711L15.4641 15.5524Z" fill="#F49A23"/>
<path d="M15.1137 16.6032C13.5292 16.8739 12.0562 17.5947 10.8706 18.6794C10.8081 18.7382 10.7342 18.7835 10.6535 18.8125C10.5727 18.8416 10.4869 18.8537 10.4012 18.8482C8.49147 18.7973 6.65914 18.083 5.21935 16.8283C4.93773 16.5907 4.92521 16.4468 5.21935 16.2029C6.64624 14.9594 8.45887 14.2459 10.3512 14.183C10.4538 14.1757 10.5568 14.1897 10.6538 14.2242C10.7507 14.2586 10.8395 14.3127 10.9144 14.3831C12.0547 15.4173 13.4577 16.1182 14.9698 16.4093C15.0324 16.4218 15.0949 16.4468 15.1137 16.6032Z" fill="#F49A23"/>
<path d="M17.6859 16.4407C19.1842 16.2757 20.5967 15.6583 21.735 14.6709C21.9332 14.4863 22.171 14.3492 22.4301 14.2701C22.6893 14.191 22.9631 14.172 23.2307 14.2144C24.9005 14.3973 26.4768 15.077 27.7555 16.1655C28.0684 16.4282 28.0872 16.597 27.7555 16.8722C26.3257 18.0798 24.532 18.7734 22.6612 18.842C22.5676 18.8516 22.4731 18.8415 22.3837 18.8124C22.2942 18.7833 22.2119 18.7359 22.1418 18.6732C20.8923 17.5531 19.3485 16.8132 17.6922 16.5407C17.6868 16.5077 17.6847 16.4742 17.6859 16.4407Z" fill="#F49A23"/>
<path d="M17.6859 16.4406C17.6826 16.4738 17.6826 16.5073 17.6859 16.5406C17.348 17.6162 16.8849 17.8413 15.8084 17.4536C15.742 17.4441 15.6746 17.4441 15.6082 17.4536C15.3516 16.872 15.1388 16.2905 15.6082 15.7089L15.6708 15.6714C15.8983 15.4743 16.1894 15.3657 16.4906 15.3657C16.7918 15.3657 17.0829 15.4743 17.3104 15.6714C17.3284 15.6914 17.3495 15.7083 17.373 15.7214L17.6859 16.4406Z" fill="#207A91"/>
<path d="M15.6834 15.6713L15.6208 15.7088L15.4644 15.5462L15.5457 15.4712L15.6834 15.6713Z" fill="#F49A23"/>
</g>
<defs>
<clipPath id="clip0_8_15024">
<rect width="33" height="33" fill="white"/>
</clipPath>
</defs>
</svg>
