<svg width="369" height="75" viewBox="0 0 369 75" fill="none" xmlns="http://www.w3.org/2000/svg">
<g clip-path="url(#clip0_18_17837)">
<path d="M111.16 37.1154C110.019 37.1219 108.913 37.505 108.013 38.205C107.112 38.905 106.469 39.8827 106.181 40.9863H70.8047V43.5428H106.181C106.416 44.4854 106.912 45.3428 107.612 46.0169C108.311 46.691 109.187 47.1546 110.137 47.3545C111.088 47.5544 112.076 47.4827 112.988 47.1475C113.9 46.8124 114.699 46.2273 115.294 45.4592C115.889 44.6911 116.255 43.7711 116.352 42.8044C116.448 41.8376 116.271 40.8633 115.839 39.9927C115.408 39.1222 114.74 38.3907 113.913 37.8818C113.085 37.373 112.131 37.1074 111.16 37.1154ZM111.16 44.8469C110.647 44.8489 110.146 44.6989 109.719 44.4158C109.292 44.1328 108.959 43.7294 108.762 43.2568C108.564 42.7842 108.511 42.2636 108.61 41.761C108.709 41.2584 108.954 40.7963 109.316 40.4334C109.677 40.0705 110.138 39.823 110.641 39.7223C111.143 39.6217 111.664 39.6723 112.137 39.8679C112.61 40.0634 113.015 40.395 113.3 40.8207C113.585 41.2465 113.737 41.7472 113.737 42.2594C113.737 42.9438 113.466 43.6004 112.983 44.0854C112.499 44.5703 111.844 44.8442 111.16 44.8469Z" fill="url(#paint0_linear_18_17837)"/>
<path d="M92.1981 32.5925H70.7734V35.1593H93.2641L109.11 19.334C109.744 19.6054 110.428 19.7429 111.118 19.7377C112.29 19.7426 113.428 19.3497 114.348 18.6233C115.267 17.8969 115.913 16.88 116.179 15.7389C116.446 14.5979 116.317 13.4002 115.814 12.3418C115.311 11.2835 114.464 10.4271 113.411 9.91284C112.358 9.39854 111.162 9.25675 110.018 9.51068C108.874 9.76461 107.85 10.3992 107.114 11.3107C106.378 12.2222 105.972 13.3565 105.965 14.5283C105.957 15.7 106.347 16.8396 107.071 17.7608L92.1981 32.5925ZM111.118 12.0373C111.631 12.0352 112.132 12.1855 112.559 12.469C112.986 12.7525 113.32 13.1566 113.517 13.6298C113.714 14.103 113.766 14.6241 113.667 15.127C113.567 15.6299 113.32 16.0919 112.958 16.4544C112.595 16.8169 112.133 17.0635 111.631 17.1631C111.128 17.2626 110.607 17.2105 110.133 17.0133C109.66 16.8162 109.256 16.483 108.973 16.0559C108.689 15.6288 108.539 15.1271 108.541 14.6144C108.544 13.9318 108.816 13.2778 109.299 12.7951C109.781 12.3124 110.435 12.04 111.118 12.0373Z" fill="url(#paint1_linear_18_17837)"/>
<path d="M92.497 21.5281C93.4806 22.1082 94.6286 22.3467 95.7619 22.2063C96.8953 22.066 97.9503 21.5546 98.7628 20.7521C99.5752 19.9495 100.099 18.9007 100.253 17.7692C100.408 16.6377 100.183 15.4869 99.6152 14.4962C99.0471 13.5056 98.1673 12.7306 97.1128 12.2922C96.0583 11.8537 94.8885 11.7763 93.7854 12.0721C92.6824 12.3679 91.7082 13.0203 91.0146 13.9275C90.321 14.8348 89.947 15.9459 89.9509 17.0879C89.9493 18.0151 90.2036 18.9248 90.6857 19.7168L86.5457 23.8569H65.1211V26.4237H87.6117L92.497 21.5281ZM95.0948 14.5108C95.6075 14.5087 96.1092 14.659 96.5363 14.9425C96.9634 15.226 97.2966 15.63 97.4937 16.1033C97.6909 16.5765 97.743 17.0976 97.6435 17.6005C97.544 18.1034 97.2973 18.5654 96.9348 18.9279C96.5723 19.2904 96.1103 19.537 95.6074 19.6366C95.1045 19.7361 94.5834 19.6839 94.1102 19.4868C93.637 19.2897 93.233 18.9564 92.9494 18.5293C92.6659 18.1022 92.5156 17.6006 92.5177 17.0879C92.5204 16.4053 92.7928 15.7513 93.2755 15.2686C93.7582 14.7859 94.4122 14.5135 95.0948 14.5108Z" fill="url(#paint2_linear_18_17837)"/>
<path d="M111.118 64.5636C110.428 64.563 109.746 64.7003 109.11 64.9673L93.2641 49.1523H70.7734V51.7088H92.1981L107.102 66.5508C106.38 67.4737 105.993 68.6141 106.004 69.7855C106.015 70.957 106.422 72.0902 107.161 72.9998C107.899 73.9095 108.924 74.5416 110.068 74.793C111.213 75.0444 112.408 74.9001 113.46 74.3838C114.511 73.8674 115.357 73.0094 115.857 71.9503C116.358 70.8912 116.485 69.6935 116.216 68.5531C115.948 67.4128 115.301 66.3972 114.38 65.6725C113.46 64.9478 112.32 64.5568 111.149 64.5636H111.118ZM111.118 72.295C110.606 72.295 110.106 72.1433 109.68 71.859C109.255 71.5746 108.923 71.1706 108.727 70.6977C108.532 70.2249 108.48 69.7047 108.58 69.2028C108.68 68.7009 108.926 68.2398 109.288 67.8779C109.65 67.516 110.111 67.2696 110.613 67.1698C111.115 67.07 111.635 67.1211 112.108 67.317C112.581 67.5128 112.985 67.8445 113.269 68.27C113.554 68.6955 113.705 69.1958 113.705 69.7075C113.707 70.0477 113.641 70.3848 113.511 70.6994C113.382 71.0139 113.191 71.2997 112.951 71.5403C112.71 71.7808 112.424 71.9714 112.11 72.1009C111.795 72.2305 111.458 72.2964 111.118 72.295Z" fill="url(#paint3_linear_18_17837)"/>
<path d="M95.0948 62.0694C94.181 62.0739 93.2847 62.3203 92.497 62.7836L87.6117 57.9087H65.1211V60.4652H86.556L90.6961 64.6051C90.2154 65.3978 89.9613 66.3071 89.9612 67.2341C89.9612 68.2576 90.2647 69.2581 90.8334 70.1092C91.402 70.9602 92.2102 71.6235 93.1558 72.0152C94.1014 72.4069 95.142 72.5094 96.1458 72.3097C97.1497 72.11 98.0718 71.6171 98.7955 70.8934C99.5193 70.1696 100.012 69.2476 100.212 68.2437C100.412 67.2399 100.309 66.1993 99.9173 65.2537C99.5257 64.3081 98.8624 63.4999 98.0113 62.9312C97.1603 62.3626 96.1598 62.0591 95.1362 62.0591L95.0948 62.0694ZM95.0948 69.8009C94.5831 69.8009 94.0828 69.6491 93.6573 69.3648C93.2318 69.0805 92.9001 68.6764 92.7043 68.2036C92.5084 67.7308 92.4572 67.2105 92.557 66.7086C92.6569 66.2066 92.9033 65.7456 93.2652 65.3837C93.6271 65.0219 94.0881 64.7754 94.59 64.6756C95.092 64.5757 95.6122 64.627 96.085 64.8228C96.5578 65.0187 96.9619 65.3503 97.2463 65.7758C97.5306 66.2014 97.6823 66.7016 97.6823 67.2134C97.6823 67.8996 97.4097 68.5578 96.9245 69.043C96.4392 69.5283 95.7811 69.8009 95.0948 69.8009Z" fill="url(#paint4_linear_18_17837)"/>
<path d="M5.18674 12.037C4.67239 12.0309 4.16788 12.1782 3.73764 12.4602C3.3074 12.7421 2.97096 13.1459 2.77128 13.6199C2.5716 14.094 2.51774 14.6168 2.61659 15.1216C2.71544 15.6264 2.96251 16.0903 3.32624 16.454C3.68996 16.8177 4.15385 17.0648 4.65865 17.1636C5.16346 17.2625 5.68626 17.2086 6.16032 17.009C6.63437 16.8093 7.03815 16.4728 7.32009 16.0426C7.60203 15.6124 7.74934 15.1079 7.74321 14.5935C7.73515 13.918 7.46322 13.2724 6.98553 12.7947C6.50783 12.317 5.86226 12.0451 5.18674 12.037ZM5.18674 9.47021C6.21027 9.47021 7.21081 9.77372 8.06184 10.3424C8.91287 10.911 9.57616 11.7193 9.96785 12.6649C10.3595 13.6105 10.462 14.651 10.2623 15.6549C10.0627 16.6587 9.56978 17.5808 8.84604 18.3046C8.1223 19.0283 7.2002 19.5212 6.19635 19.7208C5.19249 19.9205 4.15196 19.818 3.20635 19.4264C2.26074 19.0347 1.45251 18.3714 0.883867 17.5203C0.315228 16.6693 0.0117188 15.6688 0.0117188 14.6452C0.0117188 13.2727 0.556947 11.9565 1.52745 10.986C2.49796 10.0155 3.81424 9.47021 5.18674 9.47021Z" fill="url(#paint5_linear_18_17837)"/>
<path d="M23.0385 35.159H45.5291V32.6025H24.1045L8.7761 17.3052L6.96484 19.1164L23.0385 35.159Z" fill="url(#paint6_linear_18_17837)"/>
<path d="M5.14514 39.682C4.63339 39.6841 4.13373 39.8378 3.70936 40.1238C3.28499 40.4099 2.95497 40.8153 2.76102 41.2889C2.56707 41.7625 2.51791 42.283 2.61976 42.7845C2.72161 43.286 2.96989 43.7461 3.3332 44.1065C3.69652 44.4669 4.15855 44.7115 4.66087 44.8093C5.16319 44.9072 5.68324 44.8538 6.15526 44.6561C6.62728 44.4584 7.03006 44.1251 7.31267 43.6985C7.59529 43.2718 7.74505 42.771 7.74301 42.2592C7.74027 41.5748 7.46645 40.9192 6.9815 40.4362C6.49654 39.9532 5.83996 39.682 5.15549 39.682M5.15549 37.1152C6.17902 37.1152 7.17956 37.4187 8.03059 37.9874C8.88162 38.556 9.54491 39.3642 9.9366 40.3099C10.3283 41.2555 10.4308 42.296 10.2311 43.2998C10.0314 44.3037 9.53853 45.2258 8.81479 45.9495C8.09105 46.6733 7.16895 47.1662 6.16509 47.3659C5.16123 47.5655 4.12071 47.463 3.1751 47.0713C2.22949 46.6797 1.42126 46.0164 0.852617 45.1653C0.283978 44.3143 -0.0195312 43.3138 -0.0195312 42.2903C-0.0195312 40.9178 0.525689 39.6014 1.49619 38.6309C2.4667 37.6604 3.78299 37.1152 5.15549 37.1152Z" fill="url(#paint7_linear_18_17837)"/>
<path d="M21.1985 14.5107C20.6858 14.5086 20.1841 14.6589 19.757 14.9424C19.3299 15.2259 18.9967 15.6299 18.7996 16.1032C18.6024 16.5764 18.5503 17.0975 18.6498 17.6004C18.7493 18.1033 18.996 18.5653 19.3585 18.9278C19.721 19.2903 20.183 19.5369 20.6859 19.6365C21.1888 19.736 21.7099 19.6838 22.1831 19.4867C22.6563 19.2896 23.0603 18.9563 23.3439 18.5292C23.6274 18.1021 23.7777 17.6005 23.7756 17.0878C23.7729 16.4052 23.5005 15.7512 23.0178 15.2685C22.5351 14.7858 21.8811 14.5134 21.1985 14.5107ZM21.1985 11.9438C22.222 11.9438 23.2225 12.2474 24.0736 12.816C24.9246 13.3846 25.5879 14.1929 25.9796 15.1385C26.3713 16.0841 26.4737 17.1246 26.274 18.1285C26.0744 19.1323 25.5815 20.0544 24.8578 20.7782C24.134 21.5019 23.2119 21.9948 22.2081 22.1945C21.2042 22.3941 20.1637 22.2916 19.2181 21.9C18.2725 21.5083 17.4642 20.845 16.8956 19.994C16.3269 19.1429 16.0234 18.1424 16.0234 17.1189C16.0234 15.7464 16.5687 14.4301 17.5392 13.4596C18.5097 12.4891 19.826 11.9438 21.1985 11.9438Z" fill="url(#paint8_linear_18_17837)"/>
<path d="M28.6908 26.4132H51.1814V23.8463H29.7465L24.7267 18.8369L22.9258 20.6482L28.6908 26.4132Z" fill="url(#paint9_linear_18_17837)"/>
<path d="M5.184 67.1303C4.67052 67.1241 4.16683 67.2709 3.73702 67.5519C3.30722 67.8329 2.97074 68.2355 2.77043 68.7083C2.57012 69.1811 2.51504 69.7029 2.61219 70.2071C2.70934 70.7114 2.95432 71.1753 3.31596 71.5398C3.6776 71.9044 4.13955 72.1532 4.64299 72.2544C5.14644 72.3556 5.66861 72.3047 6.14304 72.1082C6.61748 71.9117 7.02273 71.5785 7.3072 71.151C7.59166 70.7234 7.74248 70.2209 7.74047 69.7074C7.73774 69.0248 7.46534 68.3709 6.98262 67.8881C6.4999 67.4054 5.84597 67.133 5.16331 67.1303M5.16331 64.5635C6.18683 64.5635 7.18736 64.867 8.03839 65.4356C8.88942 66.0043 9.55272 66.8125 9.9444 67.7581C10.3361 68.7037 10.4386 69.7443 10.2389 70.7481C10.0392 71.752 9.54634 72.674 8.8226 73.3978C8.09886 74.1215 7.17676 74.6144 6.1729 74.8141C5.16904 75.0138 4.12852 74.9113 3.18291 74.5196C2.23729 74.1279 1.42907 73.4646 0.86043 72.6136C0.291791 71.7625 -0.0117188 70.762 -0.0117188 69.7385C-0.0117188 68.366 0.533502 67.0497 1.50401 66.0792C2.47451 65.1087 3.7908 64.5635 5.16331 64.5635Z" fill="url(#paint10_linear_18_17837)"/>
<path d="M8.7761 67.0165L24.1045 51.7192H45.5291V49.1523H23.0385L6.96484 65.1949L8.7761 67.0165Z" fill="url(#paint11_linear_18_17837)"/>
<path d="M21.1985 64.6361C20.6858 64.6341 20.1841 64.7844 19.757 65.0679C19.3299 65.3514 18.9967 65.7554 18.7996 66.2286C18.6024 66.7018 18.5503 67.223 18.6498 67.7259C18.7493 68.2287 18.996 68.6908 19.3585 69.0533C19.721 69.4158 20.183 69.6624 20.6859 69.7619C21.1888 69.8614 21.7099 69.8093 22.1831 69.6122C22.6563 69.415 23.0603 69.0818 23.3439 68.6547C23.6274 68.2276 23.7777 67.7259 23.7756 67.2133C23.7729 66.5306 23.5005 65.8767 23.0178 65.3939C22.5351 64.9112 21.8811 64.6389 21.1985 64.6361ZM21.1985 62.0693C22.222 62.0693 23.2225 62.3728 24.0736 62.9415C24.9246 63.5101 25.5879 64.3183 25.9796 65.2639C26.3713 66.2095 26.4737 67.2501 26.274 68.2539C26.0744 69.2578 25.5815 70.1799 24.8578 70.9036C24.134 71.6274 23.2119 72.1202 22.2081 72.3199C21.2042 72.5196 20.1637 72.4171 19.2181 72.0254C18.2725 71.6338 17.4642 70.9705 16.8956 70.1194C16.3269 69.2684 16.0234 68.2679 16.0234 67.2444C16.0234 65.8719 16.5687 64.5555 17.5392 63.585C18.5097 62.6145 19.826 62.0693 21.1985 62.0693Z" fill="url(#paint12_linear_18_17837)"/>
<path d="M24.7267 65.4746L29.7465 60.4755H51.1814V57.9087H28.6908L22.9258 63.6633L24.7267 65.4746Z" fill="url(#paint13_linear_18_17837)"/>
<path d="M45.4903 40.9863H9.79297V43.5531H45.4903V40.9863Z" fill="url(#paint14_linear_18_17837)"/>
<path d="M58.0443 70.3079C73.5695 70.3079 86.1551 57.7223 86.1551 42.1972C86.1551 26.672 73.5695 14.0864 58.0443 14.0864C42.5192 14.0864 29.9336 26.672 29.9336 42.1972C29.9336 57.7223 42.5192 70.3079 58.0443 70.3079Z" fill="white"/>
<path d="M68.4868 15.9804C67.3897 16.146 66.4168 16.2392 65.4646 16.4565C62.9473 17.0164 60.6206 18.2262 58.7163 19.9652C58.2816 20.3585 58.0229 20.4206 57.5468 19.9652C54.9829 17.6334 51.6924 16.2587 48.2317 16.0736C48.0558 16.0736 47.8177 16.146 47.766 15.8873C47.7142 15.6285 47.9212 15.6596 48.0351 15.5561C50.8126 13.09 54.402 11.7349 58.1163 11.7501C61.8306 11.7654 65.4088 13.15 68.1659 15.6389C68.2799 15.7459 68.3871 15.86 68.4868 15.9804Z" fill="#207A91"/>
<path d="M46.8857 16.4154C45.2235 18.2775 44.006 20.493 43.3253 22.8945C43.0273 23.9643 42.8571 25.0656 42.8182 26.1755C42.8182 26.486 42.8182 26.8172 42.3628 26.8482C38.6396 26.9762 35.0884 28.4467 32.3646 30.9882C31.8368 24.1158 38.6678 16.1773 46.8857 16.4154Z" fill="#207A91"/>
<path d="M69.293 16.3013C73.0215 16.3771 76.5886 17.8366 79.301 20.396C82.0134 22.9554 83.6773 26.4318 83.9693 30.1496C83.9693 30.3566 84.1142 30.6257 83.8865 30.7603C83.6588 30.8948 83.4932 30.6361 83.3276 30.5015C80.7653 28.3442 77.5739 27.0735 74.2299 26.879C73.7228 26.879 73.4433 26.7755 73.4123 26.1545C73.2447 22.6437 71.8701 19.2984 69.5207 16.6842C69.4343 16.5631 69.3582 16.435 69.293 16.3013Z" fill="#207A91"/>
<path d="M83.9393 53.4375C84.1359 61.0758 76.9323 68.2898 69.4492 67.9276C69.4492 67.555 69.739 67.379 69.915 67.1513C71.9856 64.6432 73.2004 61.539 73.3822 58.2917C73.3822 57.8052 73.4443 57.4533 74.0964 57.4326C77.574 57.3001 80.8969 55.9608 83.4942 53.6445C83.6369 53.5639 83.7857 53.4946 83.9393 53.4375Z" fill="#207A91"/>
<path d="M46.9173 67.9274C39.5584 68.2586 32.1788 61.3759 32.2823 53.5098C32.6032 53.4167 32.7274 53.6961 32.9137 53.841C35.4644 56.0216 38.6695 57.2891 42.0217 57.4428C42.4047 57.4428 42.7876 57.4428 42.8083 58.0017C42.9478 61.695 44.4054 65.2162 46.9173 67.9274Z" fill="#207A91"/>
<path d="M47.7969 68.4136C48.9664 68.2066 50.0325 68.0824 51.0675 67.834C53.511 67.2404 55.7625 66.0328 57.6087 64.3254C57.9296 64.0356 58.1469 63.8804 58.5506 64.253C61.1294 66.6463 64.4575 68.0726 67.9691 68.2895C68.0619 68.306 68.1522 68.3338 68.2382 68.3723C68.2382 68.3723 68.2382 68.424 68.29 68.4447C63.8912 73.3817 53.8206 74.4063 47.7969 68.4136Z" fill="#207A91"/>
<path d="M58.0958 44.5361C58.3518 44.9942 58.5038 45.5031 58.5408 46.0265C59.1411 48.3304 60.2798 50.4587 61.8632 52.2366C62.0598 52.4372 62.2106 52.678 62.3053 52.9424C62.4 53.2068 62.4363 53.4886 62.4118 53.7684C62.2434 57.2192 60.8951 60.5076 58.5926 63.0834C58.2096 63.5078 58.013 63.4767 57.6404 63.0834C55.4243 60.6112 54.0919 57.4731 53.8523 54.1617C53.8171 53.8065 53.8569 53.4479 53.9692 53.1091C54.0816 52.7703 54.2639 52.4589 54.5043 52.1952C56.297 50.1276 57.4764 47.6004 57.9095 44.8984C57.9567 44.7706 58.0193 44.6489 58.0958 44.5361Z" fill="#F49A23"/>
<path d="M31.9205 31.8677C32.0691 33.9952 32.6021 36.0782 33.4937 38.0156C34.1549 39.3508 34.994 40.5903 35.9881 41.7002C36.2261 41.9693 36.4642 42.166 36.1019 42.5593C33.5947 45.2555 32.1274 48.7551 31.9619 52.4332C27.0249 48.2622 25.7312 38.0156 31.9205 31.8677Z" fill="#207A91"/>
<path d="M84.272 52.5265C84.1197 48.8117 82.6525 45.2719 80.132 42.5387C79.7594 42.1454 80.0492 41.9487 80.2769 41.69C82.1785 39.5891 83.4611 37.0026 83.9822 34.2172C84.1271 33.4824 84.1996 32.7372 84.3134 31.9609C89.209 36.1838 90.4717 46.4924 84.272 52.5265Z" fill="#207A91"/>
<path d="M59.6172 40.6237C61.4457 38.1289 62.4873 35.1447 62.6084 32.0539C62.6421 31.8185 62.7261 31.5931 62.8547 31.3931C62.9832 31.193 63.1534 31.0231 63.3536 30.8947C65.9082 28.6199 69.1598 27.2806 72.5755 27.0962C73.1137 27.0962 73.2482 27.2411 73.2172 27.7276C73.0366 31.2722 71.6066 34.6383 69.1806 37.2289C69.0823 37.352 68.9601 37.454 68.8214 37.5287C68.6826 37.6034 68.5302 37.6493 68.3733 37.6636C65.2545 37.7905 62.2463 38.8545 59.7414 40.7169L59.6172 40.6237Z" fill="#F49A23"/>
<path d="M56.5131 43.9048C54.7889 46.3365 53.791 49.208 53.6358 52.1848C53.6271 52.3841 53.5766 52.5792 53.4874 52.7575C53.3982 52.9359 53.2724 53.0934 53.1183 53.2199C50.5443 55.6053 47.2147 57.0119 43.7101 57.1943C43.1098 57.1943 42.9545 57.0597 43.0166 56.4594C43.2385 53.0481 44.602 49.8107 46.8875 47.2686C47.0457 47.0739 47.2442 46.9157 47.4693 46.8049C47.6944 46.6942 47.9408 46.6334 48.1916 46.6269C50.8948 46.4894 53.5084 45.6122 55.7472 44.0911C55.9681 43.9174 56.2425 43.8259 56.5234 43.8323L56.5131 43.9048Z" fill="#F49A23"/>
<path d="M59.7734 43.874C60.1036 44.0171 60.425 44.1796 60.736 44.3605C62.9304 45.7739 65.457 46.5875 68.0638 46.7203C68.3123 46.7257 68.5567 46.7849 68.78 46.8939C69.0034 47.0029 69.2004 47.1591 69.3576 47.3516C71.6463 49.8867 73.0073 53.1232 73.2181 56.5321C73.2181 57.1324 73.0836 57.3187 72.4936 57.2773C68.9503 57.0833 65.5908 55.6383 63.013 53.1994C62.8836 53.0837 62.7807 52.9416 62.711 52.7827C62.6414 52.6238 62.6067 52.4518 62.6093 52.2783C62.5457 49.3803 61.5756 46.5752 59.8355 44.257C59.796 44.1331 59.7751 44.004 59.7734 43.874Z" fill="#F49A23"/>
<path d="M58.0759 39.9821C57.8053 38.7952 57.4596 37.6268 57.0409 36.4838C56.3922 34.8607 55.4678 33.362 54.3085 32.0539C54.1242 31.8635 53.9834 31.6353 53.8958 31.3851C53.8083 31.135 53.776 30.8688 53.8013 30.6049C53.964 27.1567 55.3048 23.8686 57.5998 21.2899C57.9621 20.8552 58.1794 20.8552 58.552 21.2899C60.7837 23.796 62.1261 26.9684 62.3712 30.3151C62.4125 30.6299 62.3878 30.9498 62.2987 31.2545C62.2096 31.5592 62.058 31.842 61.8537 32.085C59.9783 34.1689 58.7329 36.7423 58.2622 39.506C58.2128 39.6694 58.1505 39.8286 58.0759 39.9821Z" fill="#F49A23"/>
<path d="M56.2016 40.417C54.3468 39.2029 52.278 38.3528 50.1054 37.9122C49.7683 37.8185 49.4203 37.7697 49.0704 37.7673C47.6524 37.9019 46.8348 37.0946 46.0585 36.0492C44.2963 33.6715 43.2415 30.8443 43.0156 27.8934C43.0156 27.3034 43.1398 27.0861 43.7401 27.1171C47.317 27.298 50.7071 28.7688 53.2829 31.2572C53.383 31.3352 53.4653 31.4338 53.5242 31.5462C53.5831 31.6587 53.6173 31.7825 53.6244 31.9092C53.7205 34.8969 54.6685 37.7949 56.3568 40.2617L56.2016 40.417Z" fill="#F49A23"/>
<path d="M55.5483 42.3627C52.6346 42.8609 49.9256 44.1867 47.7444 46.1818C47.6301 46.2896 47.4948 46.3727 47.3471 46.4261C47.1993 46.4795 47.0422 46.5021 46.8854 46.4923C43.3732 46.3964 40.0035 45.0829 37.353 42.7767C36.8355 42.3316 36.8148 42.0729 37.353 41.6175C39.9786 39.3304 43.3122 38.0182 46.7922 37.9018C46.9812 37.8875 47.1712 37.9133 47.3495 37.9775C47.5279 38.0417 47.6907 38.1429 47.8272 38.2744C49.9273 40.1732 52.5087 41.4585 55.2896 41.9901C55.4034 42.0522 55.5276 42.0522 55.5483 42.3627Z" fill="#F49A23"/>
<path d="M60.2978 42.0525C63.0526 41.7419 65.6479 40.6013 67.7395 38.7819C68.1063 38.4452 68.5445 38.1959 69.0212 38.0525C69.498 37.9091 70.001 37.8754 70.4927 37.9539C73.5496 38.2894 76.4347 39.5372 78.7727 41.535C79.3523 42.0214 79.3833 42.332 78.7727 42.8391C76.1395 45.0671 72.8325 46.3432 69.3852 46.4616C69.2143 46.4815 69.0411 46.465 68.877 46.4133C68.7129 46.3616 68.5616 46.2757 68.433 46.1615C66.1366 44.0959 63.2948 42.7342 60.2461 42.2388C60.2524 42.1742 60.2699 42.1111 60.2978 42.0525Z" fill="#F49A23"/>
<path d="M60.2993 42.0523C60.2889 42.1139 60.2889 42.1769 60.2993 42.2386C59.6783 44.2154 58.8296 44.6294 56.8838 43.9153C56.7601 43.8996 56.6349 43.8996 56.5112 43.9153C56.0455 42.8803 55.6522 41.7832 56.5112 40.7068L56.6354 40.6447C57.0517 40.2828 57.5846 40.0835 58.1362 40.0835C58.6877 40.0835 59.2207 40.2828 59.6369 40.6447L59.7611 40.7378L60.2993 42.0523Z" fill="#207A91"/>
<path d="M56.6132 40.6446L56.489 40.7067L56.1992 40.4169L56.3545 40.272L56.6132 40.6446Z" fill="#F49A23"/>
<path d="M177.288 70.2042L174.472 61.386H153.679L150.874 70.2042H136.809L155.884 14.1069H172.237L191.312 70.2042H177.288ZM157.488 49.3696H170.633L164.029 28.773L157.488 49.3696Z" fill="#207A91"/>
<path d="M196.113 14.1069H208.937V70.2042H196.113V14.1069Z" fill="#207A91"/>
<path d="M240.473 27.4276C244.716 28.9077 247.583 32.3439 247.583 36.7427C247.656 38.2873 247.376 39.8282 246.764 41.2485C246.153 42.6688 245.226 43.9312 244.054 44.9399C241.625 46.9371 238.555 47.9885 235.412 47.9C230.123 47.9 225.683 45.4677 223.727 40.7481L230.309 36.9289C230.619 38.0263 231.301 38.9821 232.237 39.6332C233.173 40.2844 234.306 40.5906 235.443 40.4997C241.456 40.8827 241.456 32.6751 235.443 33.058H233.87L230.961 28.7214L237.016 21.0313H224.803V13.8794H246.279V20.0894L240.473 27.4276Z" fill="#207A91"/>
<path d="M296.859 28.6697V31.5366C296.859 36.546 295.286 40.4998 292.192 43.5116C290.615 44.9902 288.762 46.1426 286.739 46.9028C284.716 47.663 282.563 48.016 280.403 47.9415C278.031 48.0083 275.67 47.5995 273.458 46.7392C271.247 45.8788 269.23 44.5843 267.527 42.932C264.254 39.6649 262.406 35.2356 262.387 30.6109C262.367 25.9862 264.178 21.5416 267.424 18.2472C269.277 16.45 271.498 15.0769 273.934 14.2231C276.37 13.3692 278.962 13.0549 281.531 13.302C284.101 13.5491 286.586 14.3517 288.814 15.6541C291.042 16.9565 292.961 18.7277 294.438 20.845L287.948 24.571C287.061 23.4483 285.951 22.5218 284.687 21.8499C283.424 21.178 282.035 20.7754 280.608 20.6674C279.181 20.5594 277.748 20.7485 276.398 21.2227C275.048 21.6968 273.811 22.4458 272.765 23.4222C271.836 24.3791 271.113 25.5149 270.638 26.7605C270.163 28.006 269.946 29.3353 270.001 30.6672C269.955 31.9856 270.186 33.2989 270.68 34.5221C271.173 35.7453 271.919 36.851 272.868 37.7673C273.897 38.7018 275.101 39.4234 276.41 39.8906C277.719 40.3578 279.108 40.5613 280.496 40.4894C284.936 40.4894 287.741 38.7713 289.035 35.3144H280.113V28.6386L296.859 28.6697Z" fill="#207A91"/>
<path d="M317.093 13.2067C319.378 13.1716 321.647 13.6002 323.762 14.4666C325.877 15.3329 327.795 16.619 329.399 18.2471C332.648 21.5398 334.469 25.9794 334.469 30.6051C334.469 35.2308 332.648 39.6704 329.399 42.9631C326.11 46.1839 321.691 47.9877 317.088 47.9877C312.484 47.9877 308.065 46.1839 304.776 42.9631C301.529 39.669 299.709 35.2287 299.711 30.603C299.713 25.9773 301.536 21.5385 304.787 18.2471C306.391 16.62 308.309 15.3345 310.424 14.4682C312.539 13.602 314.807 13.1728 317.093 13.2067ZM317.093 40.4998C318.373 40.5393 319.648 40.3143 320.838 39.8389C322.027 39.3634 323.106 38.6476 324.007 37.7363C325.816 35.7922 326.822 33.235 326.822 30.5792C326.822 27.9235 325.816 25.3663 324.007 23.4222C323.106 22.5109 322.027 21.7951 320.838 21.3196C319.648 20.8441 318.373 20.6191 317.093 20.6587C315.805 20.6194 314.522 20.8443 313.324 21.3196C312.126 21.7949 311.038 22.5104 310.127 23.4222C308.342 25.3785 307.353 27.9311 307.353 30.5792C307.353 33.2274 308.342 35.78 310.127 37.7363C311.038 38.648 312.126 39.3636 313.324 39.8389C314.522 40.3142 315.805 40.5391 317.093 40.4998ZM317.093 8.53879L315.561 11.0021H309.123L313.843 4.32631H320.384L325.104 11.0021H318.666L317.093 8.53879ZM326.252 0H334.222L329.047 6.21003H322.661L326.252 0Z" fill="#207A91"/>
<path d="M342.234 42.9837C339.076 39.634 337.316 35.204 337.316 30.5999C337.316 25.9958 339.076 21.5657 342.234 18.216C344.066 16.4232 346.27 15.055 348.689 14.2085C351.108 13.362 353.684 13.0578 356.234 13.3175C358.784 13.5773 361.245 14.3945 363.444 15.7114C365.643 17.0284 367.526 18.8127 368.958 20.9381L362.376 24.7573C361.584 23.431 360.446 22.3451 359.084 21.6158C357.722 20.8865 356.187 20.5414 354.644 20.6173C353.336 20.5548 352.029 20.7635 350.806 21.2301C349.582 21.6968 348.468 22.4114 347.534 23.329C345.842 25.3484 344.916 27.8985 344.916 30.5326C344.916 33.1667 345.842 35.7168 347.534 37.7362C348.466 38.6573 349.579 39.3747 350.803 39.8433C352.027 40.3118 353.335 40.5213 354.644 40.4583C356.185 40.523 357.716 40.173 359.076 39.4448C360.436 38.7166 361.575 37.6369 362.376 36.3183L368.958 40.1374C367.443 42.5513 365.327 44.5313 362.819 45.8844C360.31 47.2376 357.494 47.9177 354.644 47.8586C352.353 47.9305 350.071 47.5355 347.938 46.6974C345.805 45.8593 343.864 44.5958 342.234 42.9837Z" fill="#207A91"/>
<path d="M225.413 68.4136C224.564 67.5744 223.986 66.5003 223.752 65.3296C223.519 64.1589 223.641 62.9451 224.103 61.8443C224.565 60.7435 225.345 59.8061 226.344 59.1527C227.343 58.4992 228.515 58.1595 229.709 58.1774C230.697 58.1656 231.672 58.4091 232.538 58.8841C233.405 59.3591 234.134 60.0498 234.656 60.8892L232.7 62.0276C232.398 61.5076 231.96 61.0797 231.433 60.7897C230.906 60.4998 230.31 60.3589 229.709 60.382C229.209 60.3557 228.71 60.4342 228.243 60.6124C227.776 60.7907 227.352 61.0648 226.997 61.417C226.342 62.1705 225.981 63.1354 225.981 64.1339C225.981 65.1325 226.342 66.0974 226.997 66.8508C227.353 67.2015 227.778 67.4745 228.244 67.6526C228.711 67.8308 229.21 67.9102 229.709 67.8858C230.307 67.9077 230.9 67.7684 231.427 67.4825C231.953 67.1967 232.393 66.7748 232.7 66.2608L234.656 67.389C234.172 68.1354 233.528 68.7652 232.772 69.2329C232.015 69.7006 231.164 69.9945 230.28 70.0935C229.396 70.1925 228.5 70.0941 227.659 69.8054C226.818 69.5167 226.051 69.0449 225.413 68.424V68.4136Z" fill="#EC8600"/>
<path d="M239.995 61.4687C240.862 61.4626 241.711 61.7143 242.434 62.1918C243.157 62.6694 243.721 63.3513 244.056 64.1506C244.39 64.95 244.479 65.8307 244.312 66.6808C244.144 67.531 243.728 68.312 243.115 68.9247C242.502 69.5374 241.721 69.9541 240.871 70.1216C240.021 70.2891 239.14 70.2001 238.341 69.8656C237.541 69.5312 236.86 68.9666 236.382 68.2436C235.904 67.5206 235.653 66.6719 235.659 65.8054C235.639 65.2299 235.739 64.6565 235.952 64.1219C236.166 63.5872 236.489 63.1031 236.901 62.7004C237.306 62.2955 237.789 61.9775 238.321 61.7657C238.853 61.5539 239.423 61.4529 239.995 61.4687ZM239.995 59.6575L239.323 60.6925H237.367L238.981 58.4775H240.989L242.614 60.6925H240.658L239.995 59.6575ZM239.995 68.0721C240.291 68.079 240.584 68.0257 240.859 67.9154C241.133 67.8051 241.381 67.64 241.589 67.4304C242.001 66.9895 242.23 66.4087 242.23 65.8054C242.23 65.2021 242.001 64.6213 241.589 64.1804C241.161 63.7681 240.59 63.5377 239.995 63.5377C239.401 63.5377 238.83 63.7681 238.402 64.1804C237.996 64.6247 237.772 65.2042 237.772 65.8054C237.772 66.4066 237.996 66.9861 238.402 67.4304C238.609 67.6405 238.858 67.8058 239.132 67.9162C239.406 68.0266 239.7 68.0796 239.995 68.0721ZM238.691 72.595C238.681 72.3326 238.75 72.0732 238.888 71.8501C239.027 71.627 239.229 71.4505 239.468 71.3433C239.708 71.2362 239.974 71.2032 240.233 71.2488C240.492 71.2943 240.731 71.4163 240.919 71.599C241.108 71.7816 241.237 72.0166 241.291 72.2735C241.345 72.5305 241.321 72.7978 241.222 73.0408C241.122 73.2839 240.952 73.4916 240.734 73.6372C240.515 73.7828 240.258 73.8596 239.995 73.8577C239.657 73.8579 239.331 73.7262 239.088 73.4905C238.844 73.2548 238.702 72.9337 238.691 72.595Z" fill="#EC8600"/>
<path d="M252.635 62.3691C252.94 62.7055 253.175 63.0994 253.326 63.5277C253.477 63.956 253.541 64.4101 253.515 64.8634V69.9143H251.445V65.1326C251.472 64.9086 251.448 64.6814 251.376 64.4675C251.305 64.2536 251.186 64.0584 251.03 63.8959C250.873 63.7334 250.683 63.6078 250.471 63.5281C250.26 63.4484 250.034 63.4166 249.809 63.4351C248.712 63.4351 248.008 64.1079 248.008 65.5051V69.9454H245.887V61.7171H248.008V62.6382C248.278 62.2486 248.646 61.9371 249.075 61.7354C249.504 61.5336 249.979 61.4488 250.451 61.4894C250.856 61.4757 251.26 61.5468 251.636 61.6984C252.012 61.8499 252.352 62.0783 252.635 62.3691Z" fill="#EC8600"/>
<path d="M261.616 61.717H263.686V69.5416C263.718 70.0914 263.621 70.6409 263.401 71.1461C263.182 71.6512 262.847 72.0978 262.424 72.45C261.569 73.1397 260.499 73.5062 259.402 73.485C258.63 73.5476 257.856 73.3926 257.168 73.0377C256.481 72.6828 255.906 72.1421 255.51 71.4771L257.311 70.4421C257.521 70.8207 257.836 71.1306 258.218 71.3344C258.6 71.5382 259.032 71.6273 259.464 71.5909C259.748 71.6277 260.037 71.6002 260.309 71.5104C260.581 71.4207 260.83 71.2709 261.036 71.0722C261.243 70.8735 261.402 70.631 261.503 70.3625C261.603 70.094 261.642 69.8064 261.616 69.5209V68.6308C261.314 69.0386 260.916 69.3659 260.458 69.5843C260 69.8026 259.495 69.9053 258.988 69.8832C258.443 69.8947 257.902 69.792 257.399 69.5816C256.896 69.3713 256.443 69.058 256.069 68.6619C255.298 67.859 254.878 66.7833 254.899 65.6707C254.889 65.1221 254.988 64.577 255.191 64.067C255.394 63.5571 255.695 63.0925 256.079 62.7003C256.449 62.301 256.9 61.9848 257.401 61.7725C257.903 61.5602 258.443 61.4566 258.988 61.4686C259.494 61.4454 259.998 61.5464 260.456 61.7629C260.915 61.9794 261.313 62.3048 261.616 62.7106V61.717ZM260.964 64.0975C260.748 63.8849 260.49 63.7184 260.207 63.6081C259.924 63.4978 259.622 63.446 259.319 63.4558C259.014 63.4458 258.71 63.4975 258.425 63.6077C258.141 63.718 257.881 63.8846 257.663 64.0975C257.448 64.3017 257.279 64.5497 257.169 64.8247C257.058 65.0997 257.008 65.3953 257.021 65.6914C257.021 66.3008 257.263 66.8852 257.694 67.3162C258.125 67.7471 258.709 67.9891 259.319 67.9891C259.928 67.9891 260.513 67.7471 260.943 67.3162C261.374 66.8852 261.616 66.3008 261.616 65.6914C261.632 65.3911 261.581 65.0911 261.468 64.8122C261.356 64.5334 261.184 64.2824 260.964 64.0768V64.0975Z" fill="#EC8600"/>
<path d="M279.108 59.4298V60.8064H278.073V69.9144H275.951V68.9622C275.634 69.3611 275.226 69.6784 274.762 69.8873C274.297 70.0961 273.789 70.1906 273.281 70.1628C272.747 70.1691 272.219 70.0605 271.732 69.8444C271.244 69.6283 270.809 69.3098 270.455 68.9105C269.701 68.0619 269.285 66.9663 269.285 65.8313C269.285 64.6963 269.701 63.6008 270.455 62.7522C270.808 62.3516 271.243 62.0315 271.731 61.8136C272.218 61.5957 272.747 61.4852 273.281 61.4895C273.789 61.4617 274.297 61.5562 274.762 61.7651C275.226 61.974 275.634 62.2912 275.951 62.6901V60.8271H273.477V59.4505H275.951V58.4155H278.073V59.4505L279.108 59.4298ZM273.684 68.1239C273.985 68.1327 274.283 68.0803 274.563 67.97C274.842 67.8597 275.096 67.6937 275.309 67.4822C275.527 67.262 275.697 66.9997 275.809 66.7113C275.921 66.4229 275.973 66.1147 275.961 65.8055C275.975 65.4991 275.924 65.1933 275.812 64.908C275.699 64.6227 275.528 64.3642 275.309 64.1494C274.874 63.7258 274.291 63.4888 273.684 63.4888C273.077 63.4888 272.494 63.7258 272.059 64.1494C271.844 64.3662 271.676 64.6253 271.565 64.9103C271.455 65.1953 271.405 65.5001 271.418 65.8055C271.407 66.1137 271.458 66.421 271.568 66.7091C271.678 66.9972 271.845 67.2601 272.059 67.4822C272.278 67.7013 272.54 67.8718 272.829 67.9824C273.118 68.093 273.427 68.1412 273.736 68.1239H273.684Z" fill="#EC8600"/>
<path d="M284.088 61.4688C284.665 61.4555 285.238 61.5608 285.772 61.778C286.306 61.9952 286.79 62.3197 287.193 62.7314C287.922 63.4468 288.38 64.3929 288.488 65.4082C288.597 66.4235 288.35 67.4451 287.79 68.2986C287.229 69.152 286.39 69.7845 285.415 70.0878C284.439 70.3912 283.389 70.3468 282.443 69.9621C281.498 69.5775 280.715 68.8764 280.228 67.9787C279.741 67.0809 279.582 66.0421 279.776 65.0396C279.97 64.0371 280.506 63.1331 281.292 62.4819C282.079 61.8306 283.067 61.4725 284.088 61.4688ZM284.088 59.6575L283.415 60.6925H281.459L283.064 58.4776H285.071L286.696 60.6925H284.709L284.088 59.6575ZM284.088 68.0721C284.384 68.0797 284.677 68.0266 284.952 67.9163C285.226 67.8059 285.474 67.6406 285.682 67.4304C286.094 66.9895 286.323 66.4087 286.323 65.8054C286.323 65.2021 286.094 64.6214 285.682 64.1805C285.254 63.7681 284.683 63.5377 284.088 63.5377C283.494 63.5377 282.922 63.7681 282.494 64.1805C282.094 64.6268 281.872 65.2056 281.872 65.8054C281.872 66.4053 282.094 66.984 282.494 67.4304C282.702 67.6406 282.951 67.8059 283.225 67.9163C283.499 68.0266 283.793 68.0797 284.088 68.0721ZM286.158 59.0158L284.471 56.9458H286.831L288.063 59.0158H286.158Z" fill="#EC8600"/>
<path d="M296.672 62.3695C297.274 63.0404 297.586 63.9221 297.541 64.8224V69.8733H295.471V65.1329C295.498 64.9099 295.475 64.6837 295.403 64.4706C295.332 64.2575 295.215 64.0629 295.059 63.9006C294.904 63.7383 294.715 63.6124 294.505 63.532C294.295 63.4516 294.07 63.4186 293.846 63.4355C292.739 63.4355 292.035 64.1083 292.035 65.5055V69.9457H289.965V61.7174H292.035V62.6386C292.307 62.2489 292.677 61.9376 293.108 61.7359C293.538 61.5343 294.014 61.4494 294.488 61.4898C294.893 61.4748 295.297 61.5453 295.673 61.6969C296.05 61.8485 296.39 62.0777 296.672 62.3695Z" fill="#EC8600"/>
<path d="M305.666 61.717H307.736V69.5416C307.766 70.0922 307.666 70.642 307.445 71.147C307.224 71.6521 306.887 72.0984 306.463 72.45C305.609 73.1413 304.539 73.508 303.441 73.485C302.669 73.5476 301.895 73.3926 301.208 73.0377C300.52 72.6828 299.945 72.1421 299.549 71.4771L301.36 70.4421C301.568 70.8225 301.883 71.1338 302.265 71.3379C302.648 71.542 303.081 71.6299 303.513 71.5909C303.797 71.6277 304.086 71.6002 304.358 71.5105C304.631 71.4207 304.879 71.2709 305.086 71.0722C305.292 70.8736 305.452 70.6311 305.552 70.3626C305.653 70.0941 305.691 69.8064 305.666 69.5209V68.6308C305.363 69.0386 304.966 69.366 304.507 69.5843C304.049 69.8026 303.544 69.9053 303.037 69.8832C302.491 69.8943 301.948 69.7913 301.444 69.5811C300.939 69.3708 300.484 69.0578 300.108 68.6619C299.337 67.8591 298.917 66.7833 298.938 65.6707C298.935 64.579 299.362 63.5299 300.129 62.752C300.498 62.3517 300.948 62.0348 301.45 61.8224C301.951 61.61 302.492 61.507 303.037 61.5204C303.543 61.4971 304.047 61.5981 304.506 61.8146C304.964 62.0311 305.362 62.3565 305.666 62.7624V61.717ZM305.003 64.0975C304.787 63.8844 304.53 63.7176 304.247 63.6072C303.964 63.4969 303.661 63.4454 303.358 63.4558C303.053 63.447 302.749 63.4992 302.465 63.6094C302.181 63.7196 301.921 63.8855 301.702 64.0975C301.491 64.3045 301.325 64.553 301.214 64.8273C301.104 65.1017 301.051 65.3959 301.06 65.6915C301.099 66.2755 301.359 66.8229 301.786 67.2227C302.214 67.6226 302.778 67.845 303.363 67.845C303.948 67.845 304.512 67.6226 304.939 67.2227C305.367 66.8229 305.627 66.2755 305.666 65.6915C305.68 65.3903 305.627 65.0898 305.513 64.8109C305.399 64.532 305.225 64.2815 305.003 64.0769V64.0975Z" fill="#EC8600"/>
<path d="M321.256 69.9145L320.573 67.8445H315.988L315.294 69.9145H312.852L316.878 58.4053H319.683L323.729 69.9145H321.256ZM316.712 65.7745H319.817L318.244 61.0239L316.712 65.7745Z" fill="#EC8600"/>
<path d="M324.848 58.4053H327.114V69.9145H324.848V58.4053Z" fill="#EC8600"/>
<path d="M337.96 63.7872H336.097V67.2027C336.097 68.0928 336.739 68.1031 337.96 68.041V69.9661C335.052 70.2973 333.975 69.459 333.975 67.2027V63.7872H332.547V61.7171H333.975V60.0611L336.097 59.4194V61.7171H337.96V63.7872Z" fill="#EC8600"/>
<path d="M345.008 61.717H346.416C346.964 61.717 347.047 61.4169 347.047 60.827V60.5475H348.755V60.827C348.755 62.276 348.341 62.9694 347.13 63.1454V69.935H345.008V68.9621C344.736 69.3518 344.366 69.6631 343.936 69.8647C343.505 70.0664 343.029 70.1513 342.555 70.1109C342.141 70.1235 341.728 70.0499 341.343 69.8949C340.958 69.74 340.61 69.5069 340.32 69.2105C339.713 68.5214 339.401 67.6223 339.45 66.7058V61.717H341.572V66.4988C341.547 66.721 341.571 66.9461 341.643 67.1578C341.715 67.3696 341.833 67.563 341.988 67.724C342.143 67.8851 342.332 68.0101 342.541 68.0899C342.75 68.1697 342.974 68.2024 343.197 68.1858C344.304 68.1858 345.008 67.5131 345.008 66.1158V61.717ZM342.69 60.8166C342.69 59.8747 342.835 59.7091 343.269 59.5021C343.269 59.5021 343.425 59.3779 343.414 59.3986C343.474 59.3633 343.523 59.3133 343.557 59.2535C343.592 59.1937 343.61 59.1261 343.611 59.0571C343.611 58.9536 343.549 58.8604 343.342 58.8604C343.196 58.8475 343.051 58.8891 342.935 58.977C342.818 59.065 342.738 59.1931 342.711 59.3365L341.479 58.8708C341.622 58.4884 341.885 58.1623 342.228 57.9405C342.571 57.7188 342.976 57.6131 343.383 57.6391C344.315 57.6391 345.019 58.1359 345.019 59.0053C345.036 59.2483 344.984 59.4911 344.869 59.7055C344.753 59.92 344.579 60.0971 344.367 60.2163C344.149 60.3198 344.035 60.4233 344.087 60.8166H342.69Z" fill="#EC8600"/>
<path d="M357.871 63.7872H356.019V67.2027C356.019 68.0928 356.661 68.1031 357.871 68.041V69.9661C354.963 70.2973 353.897 69.459 353.897 67.2027V63.7872H352.469V61.7171H353.897V60.0611L356.019 59.4194V61.7171H357.871V63.7872Z" fill="#EC8600"/>
<path d="M361.287 66.6748C361.413 67.1742 361.72 67.6088 362.148 67.894C362.577 68.1791 363.096 68.2943 363.606 68.217C363.956 68.2379 364.306 68.1745 364.626 68.0323C364.947 67.89 365.228 67.6729 365.448 67.3993L367.156 68.4344C366.76 69.0106 366.223 69.4752 365.596 69.7834C364.968 70.0916 364.272 70.2329 363.574 70.1939C362.974 70.2211 362.375 70.1259 361.813 69.9142C361.25 69.7025 360.737 69.3786 360.304 68.9622C359.898 68.556 359.579 68.071 359.367 67.537C359.155 67.003 359.055 66.4314 359.072 65.8572C359.057 65.2842 359.158 64.714 359.367 64.1806C359.577 63.6472 359.892 63.1614 360.294 62.7522C360.696 62.3406 361.18 62.0176 361.715 61.8037C362.25 61.5899 362.823 61.4899 363.399 61.5102C363.955 61.4911 364.51 61.5921 365.024 61.8064C365.539 62.0208 366.001 62.3433 366.379 62.7522C366.77 63.1668 367.076 63.6545 367.278 64.1873C367.481 64.72 367.576 65.2875 367.559 65.8572C367.556 66.1488 367.528 66.4396 367.476 66.7266L361.287 66.6748ZM363.461 59.7196L362.788 60.7546H360.832L362.446 58.5397H364.444L366.069 60.7546H364.123L363.461 59.7196ZM365.448 65.0292C365.367 64.5468 365.111 64.1111 364.729 63.8056C364.347 63.5 363.866 63.3461 363.378 63.3732C362.88 63.3433 362.387 63.4945 361.992 63.7987C361.596 64.103 361.324 64.54 361.225 65.0292H365.448ZM366.628 56.9976H368.957L367.269 59.0676H365.355L366.628 56.9976Z" fill="#EC8600"/>
</g>
<defs>
<linearGradient id="paint0_linear_18_17837" x1="59.4403" y1="42.2594" x2="103.211" y2="42.2594" gradientUnits="userSpaceOnUse">
<stop stop-color="#004254"/>
<stop offset="1" stop-color="#207A91"/>
</linearGradient>
<linearGradient id="paint1_linear_18_17837" x1="59.4401" y1="22.3045" x2="103.21" y2="22.3045" gradientUnits="userSpaceOnUse">
<stop stop-color="#004254"/>
<stop offset="1" stop-color="#207A91"/>
</linearGradient>
<linearGradient id="paint2_linear_18_17837" x1="59.4389" y1="19.1786" x2="103.209" y2="19.1786" gradientUnits="userSpaceOnUse">
<stop stop-color="#004254"/>
<stop offset="1" stop-color="#207A91"/>
</linearGradient>
<linearGradient id="paint3_linear_18_17837" x1="59.4401" y1="62.0071" x2="103.211" y2="62.0071" gradientUnits="userSpaceOnUse">
<stop stop-color="#004254"/>
<stop offset="1" stop-color="#207A91"/>
</linearGradient>
<linearGradient id="paint4_linear_18_17837" x1="59.4389" y1="65.133" x2="103.209" y2="65.133" gradientUnits="userSpaceOnUse">
<stop stop-color="#004254"/>
<stop offset="1" stop-color="#207A91"/>
</linearGradient>
<linearGradient id="paint5_linear_18_17837" x1="56.7921" y1="14.5935" x2="13.6841" y2="14.5935" gradientUnits="userSpaceOnUse">
<stop stop-color="#004254"/>
<stop offset="1" stop-color="#207A91"/>
</linearGradient>
<linearGradient id="paint6_linear_18_17837" x1="56.79" y1="26.2373" x2="13.682" y2="26.2373" gradientUnits="userSpaceOnUse">
<stop stop-color="#004254"/>
<stop offset="1" stop-color="#207A91"/>
</linearGradient>
<linearGradient id="paint7_linear_18_17837" x1="56.7919" y1="42.2592" x2="13.6839" y2="42.2592" gradientUnits="userSpaceOnUse">
<stop stop-color="#004254"/>
<stop offset="1" stop-color="#207A91"/>
</linearGradient>
<linearGradient id="paint8_linear_18_17837" x1="56.7923" y1="17.0878" x2="13.6843" y2="17.0878" gradientUnits="userSpaceOnUse">
<stop stop-color="#004254"/>
<stop offset="1" stop-color="#207A91"/>
</linearGradient>
<linearGradient id="paint9_linear_18_17837" x1="56.7911" y1="22.625" x2="13.6832" y2="22.625" gradientUnits="userSpaceOnUse">
<stop stop-color="#004254"/>
<stop offset="1" stop-color="#207A91"/>
</linearGradient>
<linearGradient id="paint10_linear_18_17837" x1="56.7893" y1="69.7075" x2="13.6814" y2="69.7075" gradientUnits="userSpaceOnUse">
<stop stop-color="#004254"/>
<stop offset="1" stop-color="#207A91"/>
</linearGradient>
<linearGradient id="paint11_linear_18_17837" x1="56.79" y1="58.0844" x2="13.682" y2="58.0844" gradientUnits="userSpaceOnUse">
<stop stop-color="#004254"/>
<stop offset="1" stop-color="#207A91"/>
</linearGradient>
<linearGradient id="paint12_linear_18_17837" x1="56.7923" y1="67.2133" x2="13.6843" y2="67.2133" gradientUnits="userSpaceOnUse">
<stop stop-color="#004254"/>
<stop offset="1" stop-color="#207A91"/>
</linearGradient>
<linearGradient id="paint13_linear_18_17837" x1="56.7911" y1="61.6968" x2="13.6832" y2="61.6968" gradientUnits="userSpaceOnUse">
<stop stop-color="#004254"/>
<stop offset="1" stop-color="#207A91"/>
</linearGradient>
<linearGradient id="paint14_linear_18_17837" x1="56.7926" y1="42.2697" x2="13.6846" y2="42.2697" gradientUnits="userSpaceOnUse">
<stop stop-color="#004254"/>
<stop offset="1" stop-color="#207A91"/>
</linearGradient>
<clipPath id="clip0_18_17837">
<rect width="369" height="74.8619" fill="white"/>
</clipPath>
</defs>
</svg>
