<svg width="65" height="42" viewBox="0 0 65 42" fill="none" xmlns="http://www.w3.org/2000/svg">
<g clip-path="url(#clip0_148_1408)">
<path d="M56.5157 12.8245C56.0006 12.8283 55.5012 13.0057 55.0945 13.3292C54.6878 13.6526 54.3965 14.1042 54.2657 14.6141H38.2349V15.804H54.2563C54.3629 16.2411 54.5876 16.6387 54.9047 16.9513C55.2217 17.2638 55.6184 17.4786 56.0492 17.5711C56.48 17.6636 56.9276 17.6301 57.3406 17.4743C57.7536 17.3185 58.1155 17.0469 58.3847 16.6904C58.6539 16.3339 58.8196 15.907 58.8627 15.4586C58.9059 15.0103 58.8249 14.5585 58.6288 14.1551C58.4328 13.7516 58.1298 13.4129 57.7544 13.1776C57.379 12.9423 56.9465 12.8199 56.5063 12.8245H56.5157ZM56.5157 16.4037C56.2837 16.4037 56.057 16.3332 55.8641 16.2012C55.6713 16.0692 55.5211 15.8816 55.4326 15.6622C55.344 15.4427 55.3211 15.2013 55.3667 14.9685C55.4123 14.7357 55.5244 14.522 55.6887 14.3544C55.8531 14.1869 56.0623 14.073 56.2899 14.0273C56.5176 13.9815 56.7533 14.006 56.9674 14.0975C57.1814 14.189 57.3641 14.3435 57.4923 14.5414C57.6205 14.7392 57.6884 14.9716 57.6875 15.2091C57.6863 15.5263 57.5623 15.8302 57.3426 16.0541C57.123 16.278 56.8257 16.4037 56.5157 16.4037Z" fill="url(#paint0_linear_148_1408)"/>
<path d="M47.9237 10.7279H38.2349V11.913H48.4206L55.5782 4.5819C55.898 4.73094 56.2464 4.80447 56.5978 4.79705C56.9491 4.78963 57.2943 4.70145 57.6078 4.53903C57.9213 4.37661 58.1951 4.14409 58.409 3.85872C58.6229 3.57334 58.7713 3.2424 58.8433 2.89037C58.9153 2.53834 58.9091 2.17424 58.8251 1.82501C58.7411 1.47578 58.5814 1.15036 58.3579 0.872828C58.1344 0.595293 57.8528 0.372764 57.5339 0.22168C57.215 0.0705956 56.867 -0.00516845 56.5157 3.95768e-06C56.0836 0.00703873 55.6619 0.136207 55.297 0.373222C54.9322 0.610237 54.6385 0.945884 54.4483 1.34306C54.2582 1.74024 54.179 2.18349 54.2196 2.62383C54.2602 3.06418 54.4189 3.48445 54.6782 3.83825L47.9237 10.7279ZM56.5157 1.19946C56.7474 1.19946 56.974 1.2698 57.1667 1.4016C57.3594 1.5334 57.5096 1.72072 57.5983 1.93989C57.687 2.15906 57.7102 2.40024 57.665 2.63291C57.6198 2.86558 57.5082 3.0793 57.3443 3.24705C57.1804 3.41479 56.9716 3.52903 56.7443 3.57531C56.517 3.62159 56.2814 3.59784 56.0672 3.50705C55.8531 3.41627 55.6701 3.26253 55.5413 3.06528C55.4126 2.86803 55.3438 2.63614 55.3438 2.39891C55.3438 2.08079 55.4673 1.77571 55.6871 1.55077C55.9068 1.32583 56.2049 1.19946 56.5157 1.19946Z" fill="url(#paint1_linear_148_1408)"/>
<path d="M48.0786 5.5942C48.5667 5.88493 49.1417 5.98347 49.6957 5.87134C50.2497 5.75921 50.7447 5.44413 51.088 4.98513C51.4313 4.52614 51.5992 3.95475 51.5603 3.37808C51.5215 2.80141 51.2785 2.25904 50.8768 1.85265C50.4752 1.44625 49.9426 1.20374 49.3788 1.17055C48.815 1.13735 48.2587 1.31577 47.8143 1.67235C47.3698 2.02893 47.0676 2.5392 46.9644 3.1075C46.8612 3.67581 46.964 4.26313 47.2536 4.75939L45.3787 6.67851H35.6758V7.86358H45.8615L48.0786 5.5942ZM49.2551 2.3413C49.4869 2.3413 49.7135 2.41165 49.9062 2.54344C50.0989 2.67524 50.2491 2.86256 50.3378 3.08173C50.4265 3.30091 50.4497 3.54209 50.4045 3.77476C50.3593 4.00743 50.2476 4.22114 50.0838 4.38889C49.9199 4.55664 49.7111 4.67088 49.4837 4.71716C49.2564 4.76344 49.0208 4.73968 48.8067 4.6489C48.5926 4.55811 48.4096 4.40438 48.2808 4.20713C48.152 4.00988 48.0833 3.77798 48.0833 3.54075C48.0833 3.22594 48.2041 2.92372 48.4199 2.69932C48.6356 2.47492 48.9289 2.34634 49.2364 2.3413H49.2551Z" fill="url(#paint2_linear_148_1408)"/>
<path d="M56.5157 25.5483C56.2034 25.5481 55.8942 25.6117 55.6063 25.7355L48.4252 18.3996H38.2349V19.5895H47.9424L54.6407 26.4647C54.3814 26.8185 54.2227 27.2388 54.1821 27.6792C54.1415 28.1195 54.2207 28.5627 54.4108 28.9599C54.601 29.3571 54.8947 29.6927 55.2595 29.9298C55.6244 30.1668 56.0461 30.2959 56.4782 30.303C56.8056 30.3398 57.137 30.3057 57.4506 30.2027C57.7643 30.0996 58.0532 29.9301 58.2985 29.7051C58.5438 29.4801 58.7401 29.2047 58.8744 28.8968C59.0088 28.589 59.0782 28.2556 59.0782 27.9185C59.0782 27.5813 59.0088 27.2479 58.8744 26.9401C58.7401 26.6322 58.5438 26.3568 58.2985 26.1318C58.0532 25.9068 57.7643 25.7373 57.4506 25.6343C57.137 25.5312 56.8056 25.4971 56.4782 25.5339L56.5157 25.5483ZM56.5157 29.1275C56.2835 29.1285 56.0563 29.0588 55.8629 28.9274C55.6695 28.7959 55.5185 28.6086 55.4292 28.3893C55.34 28.1699 55.3164 27.9283 55.3614 27.6952C55.4065 27.4621 55.5182 27.248 55.6824 27.0799C55.8465 26.9119 56.0558 26.7976 56.2835 26.7514C56.5113 26.7053 56.7473 26.7294 56.9616 26.8208C57.1759 26.9122 57.3589 27.0667 57.4873 27.2647C57.6157 27.4627 57.6838 27.6952 57.6828 27.9328C57.6816 28.2493 57.5582 28.5524 57.3396 28.7762C57.121 29 56.8248 29.1263 56.5157 29.1275Z" fill="url(#paint3_linear_148_1408)"/>
<path d="M49.2363 24.392C48.8301 24.3931 48.4311 24.5022 48.0785 24.7087L45.8661 22.4489H35.6616V23.6388H45.3645L47.2395 25.5579C46.9732 26.0127 46.8617 26.5449 46.9222 27.0714C46.9828 27.5979 47.212 28.089 47.5741 28.468C47.9362 28.8471 48.4108 29.0927 48.9237 29.1665C49.4366 29.2403 49.9589 29.1381 50.4091 28.8758C50.8592 28.6136 51.2118 28.2062 51.4118 27.7172C51.6118 27.2281 51.6479 26.6851 51.5144 26.1728C51.381 25.6606 51.0855 25.208 50.6742 24.8859C50.2629 24.5637 49.7589 24.39 49.241 24.392H49.2363ZM49.2363 27.9712C49.0041 27.9721 48.7769 27.9025 48.5835 27.7711C48.3901 27.6396 48.2391 27.4524 48.1499 27.233C48.0606 27.0136 48.037 26.7721 48.0821 26.5389C48.1271 26.3058 48.2388 26.0916 48.403 25.9236C48.5672 25.7556 48.7764 25.6413 49.0041 25.5951C49.2319 25.549 49.4679 25.5732 49.6822 25.6645C49.8965 25.7559 50.0795 25.9104 50.2079 26.1084C50.3363 26.3063 50.4044 26.5389 50.4034 26.7765C50.4034 27.0934 50.2805 27.3972 50.0616 27.6213C49.8427 27.8453 49.5458 27.9712 49.2363 27.9712Z" fill="url(#paint4_linear_148_1408)"/>
<path d="M8.51703 1.19945C8.28507 1.1985 8.05805 1.26803 7.86472 1.39925C7.6714 1.53047 7.52046 1.71746 7.43104 1.93654C7.34163 2.15563 7.31775 2.39696 7.36244 2.62995C7.40712 2.86293 7.51837 3.07711 7.68206 3.24534C7.84576 3.41357 8.05455 3.52828 8.28199 3.57495C8.50943 3.62163 8.74529 3.59816 8.95969 3.50751C9.1741 3.41687 9.3574 3.26312 9.48637 3.06577C9.61534 2.86842 9.68419 2.63633 9.68419 2.3989C9.68419 2.08162 9.56137 1.77726 9.34262 1.55246C9.12387 1.32766 8.82701 1.20072 8.51703 1.19945ZM8.51703 0.0144043C8.98057 0.0144043 9.43369 0.155097 9.81911 0.418692C10.2045 0.682287 10.5049 1.05693 10.6823 1.49527C10.8597 1.93361 10.9061 2.41595 10.8157 2.88129C10.7253 3.34663 10.502 3.77409 10.1743 4.10958C9.8465 4.44508 9.42889 4.67353 8.97426 4.76609C8.51962 4.85865 8.04839 4.81117 7.62014 4.6296C7.19188 4.44803 6.82585 4.14056 6.56832 3.74606C6.31079 3.35156 6.17334 2.88777 6.17334 2.41331C6.17334 1.77708 6.42026 1.16688 6.85978 0.717003C7.29931 0.267121 7.89545 0.0144043 8.51703 0.0144043Z" fill="url(#paint5_linear_148_1408)"/>
<path d="M8.49799 14.0096C8.26602 14.0086 8.039 14.0782 7.84568 14.2094C7.65235 14.3406 7.50143 14.5276 7.41202 14.7467C7.3226 14.9658 7.29872 15.2071 7.34341 15.4401C7.38809 15.6731 7.49932 15.8872 7.66302 16.0555C7.82672 16.2237 8.03552 16.3384 8.26296 16.3851C8.49041 16.4317 8.72627 16.4083 8.94067 16.3176C9.15507 16.227 9.33835 16.0733 9.46732 15.8759C9.5963 15.6786 9.66514 15.4465 9.66515 15.209C9.66515 14.8918 9.54234 14.5874 9.32359 14.3626C9.10484 14.1378 8.80797 14.0109 8.49799 14.0096ZM8.49799 12.8245C8.96153 12.8245 9.41466 12.9652 9.80008 13.2288C10.1855 13.4924 10.4859 13.8671 10.6633 14.3054C10.8407 14.7438 10.8871 15.2261 10.7967 15.6914C10.7062 16.1568 10.483 16.5842 10.1552 16.9197C9.82746 17.2552 9.40986 17.4837 8.95523 17.5762C8.5006 17.6688 8.02935 17.6213 7.6011 17.4397C7.17284 17.2582 6.80681 16.9507 6.54928 16.5562C6.29175 16.1617 6.1543 15.6979 6.1543 15.2234C6.1543 14.5872 6.40123 13.977 6.84075 13.5272C7.28028 13.0773 7.8764 12.8245 8.49799 12.8245Z" fill="url(#paint6_linear_148_1408)"/>
<path d="M16.6026 11.9177H26.7883V10.7279H17.0807L10.1387 3.63672L9.31836 4.48113L16.6026 11.9177Z" fill="url(#paint7_linear_148_1408)"/>
<path d="M15.7685 2.34132C15.5367 2.34132 15.3102 2.41167 15.1174 2.54347C14.9247 2.67526 14.7746 2.86259 14.6859 3.08176C14.5972 3.30093 14.574 3.54211 14.6192 3.77478C14.6644 4.00745 14.776 4.22117 14.9399 4.38891C15.1038 4.55666 15.3126 4.6709 15.5399 4.71718C15.7672 4.76346 16.0028 4.7397 16.2169 4.64892C16.4311 4.55814 16.6141 4.4044 16.7429 4.20715C16.8716 4.0099 16.9403 3.778 16.9403 3.54078C16.9403 3.22266 16.8169 2.91758 16.5971 2.69264C16.3774 2.4677 16.0793 2.34132 15.7685 2.34132ZM15.7685 1.15625C16.232 1.15625 16.6852 1.29694 17.0706 1.56054C17.456 1.82413 17.7564 2.1988 17.9338 2.63715C18.1112 3.07549 18.1576 3.55782 18.0672 4.02316C17.9767 4.4885 17.7535 4.91597 17.4257 5.25146C17.098 5.58695 16.6804 5.8154 16.2257 5.90796C15.7711 6.00053 15.2999 5.95304 14.8716 5.77147C14.4433 5.58991 14.0773 5.28243 13.8198 4.88793C13.5623 4.49344 13.4248 4.02961 13.4248 3.55515C13.4248 2.91892 13.6717 2.30876 14.1112 1.85888C14.5508 1.409 15.1469 1.15625 15.7685 1.15625Z" fill="url(#paint8_linear_148_1408)"/>
<path d="M19.1573 7.8588H29.343V6.66894H19.6401L17.3667 4.3468L16.5464 5.19122L19.1573 7.8588Z" fill="url(#paint9_linear_148_1408)"/>
<path d="M8.51703 26.7334C8.28507 26.7324 8.05805 26.802 7.86472 26.9332C7.6714 27.0644 7.52046 27.2514 7.43104 27.4705C7.34163 27.6896 7.31775 27.9309 7.36244 28.1639C7.40712 28.3969 7.51837 28.611 7.68206 28.7793C7.84576 28.9475 8.05455 29.0622 8.28199 29.1089C8.50943 29.1556 8.74529 29.1321 8.95969 29.0415C9.1741 28.9508 9.3574 28.7971 9.48637 28.5997C9.61534 28.4024 9.68419 28.1703 9.68419 27.9328C9.68419 27.6156 9.56137 27.3112 9.34262 27.0864C9.12387 26.8616 8.82701 26.7347 8.51703 26.7334ZM8.51703 25.5483C8.98057 25.5483 9.43369 25.689 9.81911 25.9526C10.2045 26.2162 10.5049 26.5909 10.6823 27.0292C10.8597 27.4676 10.9061 27.9499 10.8157 28.4153C10.7253 28.8806 10.502 29.308 10.1743 29.6435C9.8465 29.979 9.42889 30.2075 8.97426 30.3001C8.51962 30.3926 8.04839 30.3451 7.62014 30.1635C7.19188 29.982 6.82585 29.6745 6.56832 29.28C6.31079 28.8855 6.17334 28.4217 6.17334 27.9472C6.17334 27.311 6.42026 26.7008 6.85978 26.251C7.29931 25.8011 7.89545 25.5483 8.51703 25.5483Z" fill="url(#paint10_linear_148_1408)"/>
<path d="M10.1387 26.6806L17.0807 19.5895H26.7883V18.3996H16.6026L9.31836 25.8362L10.1387 26.6806Z" fill="url(#paint11_linear_148_1408)"/>
<path d="M15.7685 25.5771C15.5367 25.5771 15.3102 25.6475 15.1174 25.7793C14.9247 25.9111 14.7746 26.0984 14.6859 26.3176C14.5972 26.5367 14.574 26.7779 14.6192 27.0106C14.6644 27.2433 14.776 27.457 14.9399 27.6247C15.1038 27.7925 15.3126 27.9067 15.5399 27.953C15.7672 27.9993 16.0028 27.9755 16.2169 27.8847C16.4311 27.7939 16.6141 27.6402 16.7429 27.443C16.8716 27.2457 16.9403 27.0138 16.9403 26.7766C16.9403 26.4585 16.8169 26.1534 16.5971 25.9284C16.3774 25.7035 16.0793 25.5771 15.7685 25.5771ZM15.7685 24.3921C16.232 24.3921 16.6852 24.5328 17.0706 24.7964C17.456 25.06 17.7564 25.4346 17.9338 25.873C18.1112 26.3113 18.1576 26.7936 18.0672 27.259C17.9767 27.7243 17.7535 28.1518 17.4257 28.4873C17.098 28.8228 16.6804 29.0512 16.2257 29.1438C15.7711 29.2363 15.2999 29.1889 14.8716 29.0073C14.4433 28.8257 14.0773 28.5182 13.8198 28.1237C13.5623 27.7292 13.4248 27.2655 13.4248 26.791C13.4248 26.1548 13.6717 25.5446 14.1112 25.0947C14.5508 24.6448 15.1469 24.3921 15.7685 24.3921Z" fill="url(#paint12_linear_148_1408)"/>
<path d="M17.3667 25.9706L19.6401 23.6484H29.343V22.4586H19.1573L16.5464 25.1261L17.3667 25.9706Z" fill="url(#paint13_linear_148_1408)"/>
<path d="M26.7698 14.6141H10.603V15.804H26.7698V14.6141Z" fill="url(#paint14_linear_148_1408)"/>
<path d="M32.4507 28.2111C39.4818 28.2111 45.1816 22.377 45.1816 15.1803C45.1816 7.98352 39.4818 2.14941 32.4507 2.14941C25.4196 2.14941 19.7197 7.98352 19.7197 15.1803C19.7197 22.377 25.4196 28.2111 32.4507 28.2111Z" fill="white"/>
<path d="M37.1852 3.02261C36.6884 3.10418 36.2477 3.14737 35.8165 3.24332C34.6772 3.50498 33.624 4.06549 32.7603 4.86979C32.5635 5.0521 32.4463 5.08569 32.2306 4.86979C31.071 3.78651 29.5799 3.14888 28.012 3.06581C27.9323 3.06581 27.8245 3.09939 27.8011 2.97465C27.7776 2.8499 27.8714 2.8691 27.9229 2.82592C29.1808 1.68274 30.8064 1.05456 32.4886 1.06164C34.1707 1.06873 35.7912 1.71055 37.0399 2.86428L37.1852 3.02261Z" fill="#207A91"/>
<path d="M27.3976 3.22893C26.6447 4.08945 26.0946 5.1153 25.7898 6.22756C25.6549 6.72347 25.5778 7.23401 25.5602 7.74848C25.5602 7.89721 25.5602 8.05073 25.3492 8.06032C23.6643 8.11906 22.0573 8.80087 20.8259 9.97944C20.5868 6.7937 23.704 3.11858 27.3976 3.22893Z" fill="#207A91"/>
<path d="M37.5508 3.17133C39.2395 3.20875 40.8544 3.88669 42.0825 5.07367C43.3106 6.26065 44.0643 7.87211 44.1975 9.5956C44.1975 9.69155 44.2631 9.81631 44.1553 9.87868C44.0475 9.94105 43.9772 9.81631 43.9069 9.75873C42.7482 8.75569 41.3018 8.16622 39.7867 8.0795C39.5523 8.0795 39.4304 8.02672 39.4164 7.73885C39.3405 6.1114 38.7179 4.56068 37.6539 3.34884C37.6137 3.29346 37.5791 3.23397 37.5508 3.17133Z" fill="#207A91"/>
<path d="M44.1786 20.3907C44.2723 23.9315 41.0099 27.2755 37.6162 27.1076C37.6162 26.9397 37.7475 26.8581 37.8318 26.7526C38.7685 25.5874 39.3185 24.1473 39.4021 22.6409C39.4021 22.4154 39.4256 22.2522 39.7209 22.2426C41.2979 22.1847 42.8054 21.5635 43.9817 20.4866C44.0379 20.4627 44.0895 20.4339 44.1786 20.3907Z" fill="#207A91"/>
<path d="M27.412 27.1076C24.0839 27.2611 20.7371 24.0706 20.7887 20.4243C20.934 20.3811 20.9902 20.5106 21.0699 20.5826C22.2273 21.5896 23.6776 22.1766 25.1948 22.2522C25.3729 22.2522 25.5464 22.2522 25.5558 22.5065C25.6201 24.2174 26.2782 25.8487 27.412 27.1076Z" fill="#207A91"/>
<path d="M27.8149 27.3283C28.3446 27.2371 28.8227 27.1747 29.2915 27.0644C30.3995 26.7866 31.4205 26.2253 32.2586 25.4332C32.4039 25.3036 32.4976 25.2269 32.6805 25.3996C33.8489 26.5118 35.3581 27.1748 36.9507 27.2755C36.9928 27.2799 37.0339 27.2913 37.0725 27.3091C37.0725 27.3091 37.0725 27.3331 37.0725 27.3475C35.0991 29.636 30.543 30.111 27.8149 27.3283Z" fill="#207A91"/>
<path d="M32.4744 16.2646C32.5944 16.4738 32.665 16.7087 32.6807 16.9507C32.9528 18.0175 33.4667 19.0037 34.1806 19.8294C34.2695 19.9227 34.338 20.0342 34.3816 20.1566C34.4252 20.279 34.443 20.4095 34.4338 20.5394C34.3577 22.14 33.7452 23.6649 32.6994 24.8574C32.5307 25.059 32.4369 25.0446 32.2729 24.8574C31.268 23.7104 30.6644 22.2537 30.5573 20.7169C30.5424 20.5527 30.5605 20.3872 30.6105 20.2304C30.6605 20.0736 30.7413 19.929 30.8479 19.8054C31.6588 18.855 32.1945 17.6919 32.3947 16.4469C32.4102 16.3817 32.4372 16.3199 32.4744 16.2646Z" fill="#F49A23"/>
<path d="M20.6243 10.392C20.69 11.377 20.9315 12.3413 21.3368 13.2372C21.6347 13.8573 22.0131 14.4334 22.4618 14.9499C22.5696 15.0747 22.6774 15.1659 22.5133 15.3434C21.3768 16.5945 20.7122 18.2186 20.6384 19.9253C18.4072 17.9918 17.8212 13.2419 20.6243 10.392Z" fill="#207A91"/>
<path d="M44.3286 19.9685C44.2629 18.2457 43.5979 16.6037 42.4536 15.3386C42.2896 15.1515 42.4208 15.0603 42.5239 14.9404C43.3843 13.966 43.9651 12.7672 44.202 11.4764C44.263 11.1405 44.3004 10.7951 44.352 10.4352C46.5691 12.3879 47.141 17.1666 44.3286 19.9685Z" fill="#207A91"/>
<path d="M33.168 14.4462C33.9938 13.2884 34.4652 11.9059 34.5226 10.4736C34.5226 10.2241 34.6961 10.085 34.8601 9.93625C36.0159 8.88056 37.4895 8.26096 39.0366 8.18024C39.2803 8.18024 39.3413 8.24263 39.3272 8.46812C39.2454 10.1112 38.5978 11.6716 37.4991 12.8725C37.455 12.9312 37.3992 12.9796 37.3353 13.0144C37.2714 13.0491 37.201 13.0694 37.1288 13.074C35.715 13.1387 34.3536 13.6405 33.2242 14.5133C33.1998 14.4967 33.1803 14.4734 33.168 14.4462Z" fill="#F49A23"/>
<path d="M31.7619 15.9719C30.9803 17.0988 30.5283 18.4301 30.4588 19.8102C30.4543 19.9024 30.4311 19.9926 30.3908 20.0752C30.3505 20.1578 30.2938 20.2309 30.2244 20.2899C29.0593 21.3975 27.5514 22.0512 25.9636 22.1371C25.6917 22.1371 25.6214 22.0747 25.6448 21.7965C25.7477 20.2134 26.3667 18.7114 27.4026 17.5312C27.4749 17.4429 27.5643 17.3709 27.6651 17.3197C27.766 17.2685 27.8761 17.2392 27.9885 17.2337C29.2148 17.1731 30.4007 16.7662 31.415 16.0583C31.5155 15.9791 31.6398 15.9384 31.7666 15.9431L31.7619 15.9719Z" fill="#F49A23"/>
<path d="M33.2383 15.9527C33.4117 16.0439 33.5523 16.0966 33.6742 16.1782C34.6663 16.8334 35.809 17.2106 36.9882 17.2721C37.1014 17.2745 37.2128 17.3019 37.3147 17.3524C37.4166 17.403 37.5067 17.4754 37.5788 17.5648C38.6138 18.7428 39.2298 20.244 39.3272 21.8252C39.3272 22.1035 39.2663 22.1851 38.9991 22.1659C37.3942 22.0768 35.8724 21.4068 34.7054 20.2755C34.6475 20.2221 34.601 20.1571 34.5687 20.0844C34.5365 20.0118 34.5192 19.9331 34.5179 19.8533C34.4924 18.5087 34.0546 17.2063 33.2664 16.1302C33.2664 16.1302 33.2523 16.0726 33.2383 15.9527Z" fill="#F49A23"/>
<path d="M32.4696 14.1535C32.3448 13.6039 32.1883 13.0624 32.0009 12.5319C31.7053 11.7819 31.2868 11.089 30.7634 10.4832C30.6804 10.3945 30.617 10.2887 30.5774 10.1728C30.5378 10.057 30.5229 9.93376 30.5337 9.81151C30.6055 8.21263 31.2129 6.68781 32.254 5.49348C32.418 5.29677 32.5118 5.29677 32.6805 5.49348C33.693 6.65403 34.3013 8.12524 34.4102 9.67715C34.4316 9.82312 34.4217 9.97212 34.3813 10.1138C34.3408 10.2555 34.2707 10.3864 34.1758 10.4976C33.3299 11.4678 32.7665 12.6612 32.5493 13.9424C32.5286 14.015 32.502 14.0856 32.4696 14.1535Z" fill="#F49A23"/>
<path d="M31.6212 14.3502C30.7789 13.7928 29.8427 13.4007 28.8603 13.1939C28.7072 13.1528 28.5498 13.1302 28.3915 13.1268C27.7447 13.1939 27.3744 12.8197 27.0228 12.3352C26.2272 11.2302 25.7512 9.91838 25.6494 8.54967C25.6494 8.281 25.7057 8.17545 25.9728 8.19464C27.595 8.27473 29.133 8.95698 30.2993 10.1138C30.344 10.1502 30.3806 10.196 30.4064 10.2482C30.4323 10.3003 30.4469 10.3576 30.4493 10.416C30.4967 11.8025 30.9274 13.1468 31.6915 14.2926L31.6212 14.3502Z" fill="#F49A23"/>
<path d="M31.326 15.2522C30.0064 15.4832 28.7795 16.0977 27.7917 17.0226C27.7408 17.0738 27.6796 17.1131 27.6125 17.138C27.5454 17.1628 27.4738 17.1726 27.4027 17.1666C25.8117 17.1237 24.2851 16.5146 23.0856 15.4441C22.8512 15.2426 22.8418 15.1179 23.0856 14.9116C24.2736 13.849 25.7837 13.2389 27.3605 13.1844C27.5328 13.1766 27.7012 13.2387 27.8292 13.3571C28.7807 14.2376 29.9494 14.8349 31.2088 15.0843C31.2604 15.1131 31.3119 15.1131 31.326 15.2522Z" fill="#F49A23"/>
<path d="M33.4726 15.1131C34.7207 14.9688 35.897 14.442 36.8476 13.6017C37.0116 13.4437 37.2089 13.3265 37.4243 13.2591C37.6398 13.1917 37.8674 13.176 38.0897 13.2131C39.4742 13.3717 40.7805 13.9517 41.8396 14.878C42.1068 15.1035 42.1162 15.2474 41.8396 15.4777C40.648 16.5096 39.1527 17.1026 37.5929 17.1617C37.5144 17.1701 37.4351 17.1616 37.3601 17.1368C37.285 17.112 37.2158 17.0715 37.1569 17.0178C36.1151 16.0632 34.8289 15.4324 33.4492 15.1994C33.4521 15.1695 33.46 15.1402 33.4726 15.1131Z" fill="#F49A23"/>
<path d="M33.4724 15.1131C33.4677 15.1417 33.4677 15.1709 33.4724 15.1994C33.1959 16.1206 32.8115 16.3125 31.9256 15.9767C31.8713 15.9668 31.8158 15.9668 31.7615 15.9767C31.5459 15.4969 31.3678 14.9883 31.7615 14.4846L31.8178 14.4558C32.007 14.2877 32.2492 14.1951 32.4998 14.1951C32.7504 14.1951 32.9925 14.2877 33.1818 14.4558C33.1972 14.4743 33.2164 14.489 33.238 14.4989C33.3084 14.7005 33.388 14.9068 33.4724 15.1131Z" fill="#207A91"/>
<path d="M31.8039 14.4558L31.7476 14.4846L31.6211 14.3502L31.6914 14.2879L31.8039 14.4558Z" fill="#F49A23"/>
<path d="M4.85134 41.8609L4.45291 40.6423H1.80923L1.41549 41.8609H0.00927734L2.35297 35.0768H3.97011L6.3138 41.8609H4.85134ZM2.2264 39.39H4.04511L3.13576 36.6169L2.2264 39.39Z" fill="#F6921E"/>
<path d="M6.91846 35.0768H8.23561V41.8609H6.92783L6.91846 35.0768Z" fill="#F6921E"/>
<path d="M11.4839 40.3207L12.5995 39.6539C12.7057 39.9757 12.9135 40.2522 13.1902 40.4398C13.4668 40.6274 13.7966 40.7155 14.1276 40.6902C14.8541 40.6902 15.1869 40.3879 15.1869 39.9705C15.1907 39.8576 15.1632 39.7459 15.1076 39.6483C15.052 39.5507 14.9707 39.4711 14.8729 39.4188C14.5205 39.2255 14.1457 39.0788 13.7573 38.9822C13.2668 38.8574 12.8018 38.6446 12.3839 38.3537C12.1758 38.1911 12.0097 37.9789 11.9002 37.7355C11.7907 37.4921 11.7411 37.225 11.7558 36.9575C11.7473 36.6837 11.8003 36.4115 11.9109 36.1619C12.0214 35.9124 12.1864 35.6921 12.3932 35.5182C12.8253 35.1492 13.3727 34.9516 13.9354 34.9616C14.4288 34.9544 14.9136 35.095 15.33 35.366C15.7464 35.6371 16.0763 36.0268 16.2791 36.4873L15.1822 37.135C15.084 36.8734 14.9092 36.6492 14.6819 36.4929C14.4546 36.3367 14.1857 36.256 13.9119 36.2618C13.3729 36.2618 13.0401 36.5449 13.0401 36.9431C13.0384 37.0451 13.0609 37.1461 13.1058 37.2372C13.1508 37.3283 13.2167 37.4069 13.2979 37.4661C13.6127 37.6524 13.9499 37.7959 14.301 37.8931L14.7697 38.0466C14.915 38.0923 15.0574 38.1468 15.1963 38.2097C15.3421 38.2631 15.482 38.3323 15.6135 38.416C15.8621 38.5662 16.075 38.7711 16.2369 39.0158C16.4561 39.4121 16.5334 39.8742 16.4555 40.3226C16.3777 40.7709 16.1495 41.1775 15.8104 41.4722C15.3136 41.8556 14.7023 42.0507 14.0807 42.024C12.7729 41.9808 11.8542 41.3571 11.4839 40.3207Z" fill="#207A91"/>
<path d="M20.4841 34.9377C20.9385 34.9287 21.3899 35.0157 21.8101 35.1932C22.2302 35.3706 22.6102 35.6348 22.9262 35.9692C23.2534 36.292 23.5115 36.6809 23.6842 37.1112C23.8569 37.5415 23.9404 38.0038 23.9293 38.4688C23.9265 39.1662 23.7228 39.8473 23.3437 40.4268C22.9647 41.0063 22.4271 41.4584 21.7982 41.7268C21.1693 41.9951 20.4771 42.0677 19.8081 41.9354C19.1392 41.803 18.5232 41.4717 18.0373 40.9829C17.7147 40.654 17.4604 40.2617 17.2897 39.8297C17.1189 39.3977 17.0352 38.9348 17.0435 38.4688C17.0392 38.0047 17.1251 37.5443 17.2963 37.1145C17.4676 36.6847 17.7207 36.294 18.0409 35.9654C18.3612 35.6367 18.7421 35.3766 19.1616 35.2001C19.581 35.0237 20.0306 34.9345 20.4841 34.9377ZM20.4841 40.695C20.7657 40.7025 21.0458 40.6515 21.3077 40.5451C21.5695 40.4388 21.8075 40.2792 22.0075 40.0761C22.4022 39.6412 22.6215 39.0696 22.6215 38.476C22.6215 37.8825 22.4022 37.3108 22.0075 36.876C21.5989 36.4695 21.0515 36.242 20.4817 36.242C19.9119 36.242 19.3646 36.4695 18.956 36.876C18.5613 37.3108 18.3419 37.8825 18.3419 38.476C18.3419 39.0696 18.5613 39.6412 18.956 40.0761C19.157 40.2787 19.3961 40.4376 19.6587 40.5431C19.9213 40.6486 20.2021 40.6987 20.4841 40.6902V40.695ZM20.4841 33.8773L20.095 34.4675H18.9654L19.9028 33.1625H21.0606L21.9981 34.4675H20.8919L20.4841 33.8773ZM22.3122 32.2701H23.7043L22.7293 33.4983H21.6278L22.3122 32.2701Z" fill="#207A91"/>
<path d="M28.6866 35.0768H29.9944V41.8609H28.996L26.1554 37.7108V41.8609H24.8477V35.0768H25.8414L28.6866 39.2173V35.0768Z" fill="#207A91"/>
<path d="M37.7336 38.2193V38.7423C37.75 39.178 37.6776 39.6125 37.521 40.0181C37.3645 40.4236 37.1272 40.7914 36.8242 41.098C36.5111 41.3994 36.1428 41.6342 35.7405 41.7891C35.3383 41.9439 34.91 42.0156 34.4805 42C34.0112 42.0148 33.5438 41.9324 33.1064 41.7576C32.669 41.5828 32.2706 41.3193 31.9353 40.9829C31.592 40.6308 31.3248 40.209 31.1508 39.7446C30.9768 39.2803 30.8999 38.7837 30.9251 38.287C30.9503 37.7903 31.0771 37.3046 31.2971 36.8612C31.5172 36.4178 31.8258 36.0266 32.2028 35.7129C32.5798 35.3992 33.017 35.1699 33.486 35.0399C33.955 34.9099 34.4454 34.8821 34.9256 34.9582C35.4058 35.0344 35.865 35.2128 36.2736 35.482C36.6822 35.7512 37.031 36.1051 37.2976 36.5209L36.168 37.183C35.9776 36.879 35.7133 36.6308 35.4011 36.4626C35.0889 36.2944 34.7394 36.212 34.3868 36.2234C34.0973 36.2141 33.809 36.2664 33.5403 36.3771C33.2716 36.4877 33.0283 36.6544 32.8259 36.8664C32.4308 37.2991 32.211 37.8693 32.211 38.4616C32.211 39.0539 32.4308 39.6241 32.8259 40.0569C33.0463 40.2666 33.3053 40.4293 33.5878 40.5356C33.8702 40.6418 34.1705 40.6895 34.4711 40.6758C35.4883 40.6758 36.168 40.196 36.407 39.3852H34.3961V38.2049L37.7336 38.2193Z" fill="#207A91"/>
<path d="M45.4162 35.0768V36.353H43.6256V41.8609H42.3178V36.353H40.5366V35.0768H45.4162Z" fill="#207A91"/>
<path d="M46.7987 41.3571C46.5632 41.1436 46.3771 40.8792 46.2538 40.5829C46.1306 40.2866 46.0733 39.966 46.0863 39.6443V35.0767H47.3847V39.5339C47.3847 40.244 47.7737 40.6902 48.6174 40.6902C49.4612 40.6902 49.8455 40.244 49.8455 39.5339V35.0767H50.6705C50.9846 35.0767 51.0314 34.8992 51.0314 34.5538V34.3858H52.0158V34.5538C52.0158 35.3742 51.8002 35.782 51.1533 35.902V39.6443C51.1668 39.9656 51.1103 40.286 50.9879 40.5823C50.8655 40.8785 50.6802 41.1432 50.4455 41.3571C49.9247 41.7734 49.2829 41.9995 48.6221 41.9995C47.9614 41.9995 47.3195 41.7734 46.7987 41.3571ZM48.2753 34.5442C48.2753 33.9876 48.3596 33.8917 48.6081 33.7669L48.6924 33.7094C48.727 33.6878 48.7555 33.6575 48.7752 33.6214C48.7949 33.5852 48.8052 33.5445 48.8049 33.5031C48.8049 33.4455 48.7675 33.3879 48.655 33.3879C48.5698 33.3792 48.4846 33.4034 48.4161 33.4558C48.3475 33.5082 48.3006 33.585 48.2846 33.671L47.5722 33.3975C47.6565 33.1725 47.8088 32.9808 48.007 32.8505C48.2051 32.7202 48.4387 32.658 48.6737 32.673C49.2127 32.673 49.6112 32.9609 49.6112 33.4743C49.62 33.6186 49.5892 33.7625 49.522 33.8898C49.4549 34.017 49.3542 34.1224 49.2315 34.194C49.1096 34.2515 49.044 34.3091 49.0721 34.5442H48.2753Z" fill="#207A91"/>
<path d="M59.0847 35.0768V36.353H57.2941V41.8609H55.9863V36.353H54.2051V35.0768H59.0847Z" fill="#207A91"/>
<path d="M61.1187 40.5846H63.9312V41.8608H59.7969V35.0767H63.8515V36.353H61.1047V37.7923H63.6171V39.0493H61.1047L61.1187 40.5846ZM61.8124 33.9493L61.4234 34.5442H60.2937L61.2312 33.2344H62.389L63.3265 34.5442H62.2015L61.8124 33.9493ZM63.6405 32.342H65.0046L64.0155 33.5702H62.914L63.6405 32.342Z" fill="#207A91"/>
</g>
<defs>
<linearGradient id="paint0_linear_148_1408" x1="33.0881" y1="15.209" x2="52.9111" y2="15.209" gradientUnits="userSpaceOnUse">
<stop stop-color="#004254"/>
<stop offset="1" stop-color="#207A91"/>
</linearGradient>
<linearGradient id="paint1_linear_148_1408" x1="33.0881" y1="5.95888" x2="52.9111" y2="5.95888" gradientUnits="userSpaceOnUse">
<stop stop-color="#004254"/>
<stop offset="1" stop-color="#207A91"/>
</linearGradient>
<linearGradient id="paint2_linear_148_1408" x1="33.0883" y1="4.50511" x2="52.9113" y2="4.50511" gradientUnits="userSpaceOnUse">
<stop stop-color="#004254"/>
<stop offset="1" stop-color="#207A91"/>
</linearGradient>
<linearGradient id="paint3_linear_148_1408" x1="33.0881" y1="24.3585" x2="52.9111" y2="24.3585" gradientUnits="userSpaceOnUse">
<stop stop-color="#004254"/>
<stop offset="1" stop-color="#207A91"/>
</linearGradient>
<linearGradient id="paint4_linear_148_1408" x1="33.0882" y1="25.8122" x2="52.9112" y2="25.8122" gradientUnits="userSpaceOnUse">
<stop stop-color="#004254"/>
<stop offset="1" stop-color="#207A91"/>
</linearGradient>
<linearGradient id="paint5_linear_148_1408" x1="31.8883" y1="2.38451" x2="12.3607" y2="2.38451" gradientUnits="userSpaceOnUse">
<stop stop-color="#004254"/>
<stop offset="1" stop-color="#207A91"/>
</linearGradient>
<linearGradient id="paint6_linear_148_1408" x1="31.8881" y1="15.209" x2="12.3604" y2="15.209" gradientUnits="userSpaceOnUse">
<stop stop-color="#004254"/>
<stop offset="1" stop-color="#207A91"/>
</linearGradient>
<linearGradient id="paint7_linear_148_1408" x1="31.8881" y1="7.77723" x2="12.3605" y2="7.77723" gradientUnits="userSpaceOnUse">
<stop stop-color="#004254"/>
<stop offset="1" stop-color="#207A91"/>
</linearGradient>
<linearGradient id="paint8_linear_148_1408" x1="31.8884" y1="3.54076" x2="12.3608" y2="3.54076" gradientUnits="userSpaceOnUse">
<stop stop-color="#004254"/>
<stop offset="1" stop-color="#207A91"/>
</linearGradient>
<linearGradient id="paint9_linear_148_1408" x1="31.8882" y1="6.1028" x2="12.3606" y2="6.1028" gradientUnits="userSpaceOnUse">
<stop stop-color="#004254"/>
<stop offset="1" stop-color="#207A91"/>
</linearGradient>
<linearGradient id="paint10_linear_148_1408" x1="31.8883" y1="27.9329" x2="12.3607" y2="27.9329" gradientUnits="userSpaceOnUse">
<stop stop-color="#004254"/>
<stop offset="1" stop-color="#207A91"/>
</linearGradient>
<linearGradient id="paint11_linear_148_1408" x1="31.8881" y1="22.5401" x2="12.3605" y2="22.5401" gradientUnits="userSpaceOnUse">
<stop stop-color="#004254"/>
<stop offset="1" stop-color="#207A91"/>
</linearGradient>
<linearGradient id="paint12_linear_148_1408" x1="31.8884" y1="26.7766" x2="12.3608" y2="26.7766" gradientUnits="userSpaceOnUse">
<stop stop-color="#004254"/>
<stop offset="1" stop-color="#207A91"/>
</linearGradient>
<linearGradient id="paint13_linear_148_1408" x1="31.8882" y1="24.2146" x2="12.3606" y2="24.2146" gradientUnits="userSpaceOnUse">
<stop stop-color="#004254"/>
<stop offset="1" stop-color="#207A91"/>
</linearGradient>
<linearGradient id="paint14_linear_148_1408" x1="166.618" y1="301.878" x2="147.09" y2="301.878" gradientUnits="userSpaceOnUse">
<stop stop-color="#004254"/>
<stop offset="1" stop-color="#207A91"/>
</linearGradient>
<clipPath id="clip0_148_1408">
<rect width="65" height="42" fill="white"/>
</clipPath>
</defs>
</svg>
