<svg width="63" height="35" viewBox="0 0 63 35" fill="none" xmlns="http://www.w3.org/2000/svg">
<path d="M59.3435 14.5357C58.7373 14.5341 58.1478 14.733 57.6681 15.101C57.1884 15.469 56.8457 15.9852 56.6942 16.5681H37.9765V17.9164H56.7074C56.8348 18.4052 57.0976 18.8488 57.4659 19.197C57.8342 19.5451 58.2933 19.7838 58.7913 19.8861C59.2892 19.9884 59.806 19.9502 60.2832 19.7757C60.7604 19.6013 61.1788 19.2976 61.4911 18.8991C61.8034 18.5006 61.997 18.0233 62.0501 17.5211C62.1032 17.0189 62.0135 16.512 61.7914 16.0578C61.5692 15.6036 61.2234 15.2203 60.7931 14.9512C60.3628 14.6822 59.8652 14.5383 59.3568 14.5357H59.3435ZM59.3435 18.6005C59.0721 18.6018 58.8063 18.523 58.58 18.3742C58.3537 18.2254 58.1769 18.0132 58.0721 17.7646C57.9673 17.5159 57.9392 17.2419 57.9914 16.9774C58.0435 16.7129 58.1736 16.4696 58.3651 16.2785C58.5565 16.0875 58.8008 15.9572 59.067 15.9041C59.3331 15.851 59.6091 15.8776 59.86 15.9805C60.1109 16.0833 60.3255 16.2578 60.4764 16.4818C60.6273 16.7059 60.7079 16.9694 60.7079 17.2389C60.7079 17.5989 60.5644 17.9442 60.3087 18.1994C60.053 18.4545 59.706 18.5987 59.3435 18.6005Z" fill="url(#paint0_linear_33_7822)"/>
<path d="M49.3089 12.1944H37.9564V13.5099H49.8785L58.277 5.1961C58.6119 5.33782 58.9727 5.40948 59.3367 5.40658C59.9522 5.40643 60.5495 5.19916 61.0311 4.81858C61.5127 4.43799 61.8502 3.90656 61.9886 3.31099C62.127 2.71543 62.058 2.09088 61.793 1.53924C61.5279 0.987593 61.0825 0.54143 60.5292 0.273526C59.976 0.00562251 59.3477 -0.0682123 58.7468 0.0640898C58.1459 0.196392 57.6079 0.527004 57.2206 1.002C56.8332 1.47699 56.6194 2.06832 56.614 2.67951C56.6086 3.2907 56.8119 3.88566 57.1907 4.36735L49.3089 12.1944ZM59.3235 1.3681C59.5946 1.3681 59.8597 1.44794 60.0852 1.59755C60.3107 1.74715 60.4864 1.95979 60.5901 2.20857C60.6939 2.45736 60.7211 2.73111 60.6682 2.99521C60.6153 3.25932 60.4847 3.50194 60.2929 3.69235C60.1012 3.88276 59.8569 4.0124 59.591 4.06494C59.325 4.11747 59.0493 4.09055 58.7988 3.9875C58.5483 3.88445 58.3341 3.70993 58.1835 3.48603C58.0328 3.26213 57.9524 2.99888 57.9524 2.72959C57.948 2.54805 57.9802 2.36748 58.0471 2.19848C58.1141 2.02948 58.2143 1.87547 58.3421 1.74554C58.4699 1.61561 58.6225 1.51237 58.791 1.44191C58.9596 1.37144 59.1406 1.33515 59.3235 1.3352V1.3681Z" fill="url(#paint1_linear_33_7822)"/>
<path d="M49.468 6.34055C49.9832 6.64664 50.5859 6.77497 51.1823 6.70559C51.7786 6.6362 52.3351 6.373 52.7651 5.95692C53.1952 5.54085 53.4746 4.99526 53.56 4.40508C53.6454 3.8149 53.5319 3.21325 53.2372 2.69378C52.9425 2.17431 52.4831 1.76617 51.9306 1.53289C51.378 1.29961 50.7633 1.25427 50.1821 1.40394C49.601 1.55361 49.0859 1.8899 48.7172 2.36044C48.3484 2.83098 48.1467 3.40937 48.1433 4.0056C48.1402 4.49244 48.2732 4.97062 48.5275 5.38686L46.3418 7.55738H34.9694V8.87285H46.8915L49.468 6.34055ZM50.839 2.65066C51.1108 2.64936 51.3767 2.72828 51.6032 2.87738C51.8297 3.02649 52.0064 3.23906 52.111 3.48811C52.2156 3.73716 52.2433 4.01146 52.1906 4.27617C52.138 4.54089 52.0073 4.78409 51.8151 4.9749C51.623 5.1657 51.3781 5.29552 51.1115 5.34784C50.8449 5.40017 50.5687 5.37266 50.3179 5.2688C50.0671 5.16493 49.8531 4.9894 49.7029 4.7645C49.5528 4.53959 49.4733 4.27543 49.4746 4.0056C49.4764 3.64678 49.6207 3.30315 49.8762 3.04942C50.1317 2.7957 50.4777 2.65239 50.839 2.65066Z" fill="url(#paint2_linear_33_7822)"/>
<path d="M59.3236 28.9666C58.9591 28.9667 58.5986 29.0406 58.2638 29.1836L49.8455 20.8633H37.9234V22.2116H49.2759L57.1445 30.0124C56.7657 30.485 56.5623 31.0725 56.5682 31.6764C56.5695 32.2108 56.7303 32.7328 57.0302 33.1765C57.3301 33.6202 57.7557 33.9657 58.2533 34.1693C58.7508 34.3729 59.2979 34.4255 59.8256 34.3204C60.3532 34.2154 60.8376 33.9574 61.2177 33.5791C61.5977 33.2008 61.8563 32.719 61.9608 32.1948C62.0653 31.6706 62.011 31.1274 61.8048 30.6338C61.5986 30.1403 61.2497 29.7185 60.8021 29.4217C60.3546 29.125 59.8286 28.9666 59.2904 28.9666H59.3236ZM59.3236 33.0314C59.0518 33.0327 58.7858 32.9538 58.5594 32.8047C58.3329 32.6556 58.1561 32.443 58.0515 32.194C57.947 31.9449 57.9192 31.6706 57.9719 31.4059C58.0246 31.1412 58.1553 30.898 58.3475 30.7071C58.5396 30.5163 58.7845 30.3865 59.0511 30.3342C59.3177 30.2819 59.5939 30.3094 59.8447 30.4133C60.0955 30.5171 60.3095 30.6927 60.4597 30.9176C60.6098 31.1425 60.6893 31.4066 60.688 31.6764C60.6862 32.0353 60.5419 32.3789 60.2864 32.6326C60.0309 32.8863 59.6849 33.0296 59.3236 33.0314Z" fill="url(#paint3_linear_33_7822)"/>
<path d="M50.8389 27.6576C50.3561 27.6561 49.882 27.7858 49.4679 28.0325L46.8782 25.4673H34.9561V26.8156H46.3019L48.4876 28.9796C48.2353 29.3967 48.1024 29.8743 48.1035 30.3608C48.1035 30.8955 48.2631 31.4181 48.5623 31.8627C48.8614 32.3073 49.2865 32.6538 49.7839 32.8584C50.2814 33.063 50.8287 33.1165 51.3568 33.0122C51.8848 32.9079 52.3699 32.6504 52.7506 32.2723C53.1313 31.8943 53.3906 31.4126 53.4956 30.8882C53.6006 30.3638 53.5467 29.8203 53.3407 29.3263C53.1347 28.8324 52.7857 28.4102 52.3381 28.1131C51.8904 27.8161 51.3641 27.6576 50.8257 27.6576H50.8389ZM50.8389 31.7224C50.5678 31.7224 50.3027 31.6425 50.0772 31.4929C49.8518 31.3433 49.676 31.1307 49.5723 30.8819C49.4685 30.6331 49.4413 30.3593 49.4942 30.0952C49.5471 29.8311 49.6777 29.5885 49.8695 29.3981C50.0612 29.2077 50.3055 29.078 50.5715 29.0255C50.8374 28.973 51.1131 28.9999 51.3636 29.103C51.6141 29.206 51.8283 29.3805 51.9789 29.6044C52.1296 29.8283 52.21 30.0916 52.21 30.3608C52.21 30.7219 52.0655 31.0683 51.8084 31.3236C51.5513 31.5789 51.2026 31.7224 50.8389 31.7224Z" fill="url(#paint4_linear_33_7822)"/>
<path d="M3.23684 1.33452C2.9654 1.33322 2.69967 1.41197 2.47334 1.56078C2.247 1.70959 2.07024 1.92177 1.96546 2.17044C1.86067 2.41911 1.83257 2.69306 1.88472 2.9576C1.93687 3.22214 2.06693 3.46536 2.2584 3.65643C2.44988 3.84749 2.69416 3.97783 2.9603 4.0309C3.22643 4.08397 3.50244 4.0574 3.75335 3.95454C4.00427 3.85169 4.21879 3.67717 4.36973 3.45313C4.52068 3.22909 4.60126 2.9656 4.60126 2.69604C4.60127 2.33608 4.45773 1.99077 4.20204 1.73563C3.94635 1.48048 3.59932 1.33626 3.23684 1.33452ZM3.23684 0.019051C3.77496 0.0203512 4.30062 0.180017 4.74741 0.477848C5.19421 0.775678 5.54209 1.19832 5.74711 1.69239C5.95213 2.18647 6.0051 2.7298 5.89931 3.25375C5.79353 3.7777 5.53374 4.25876 5.15277 4.63616C4.7718 5.01357 4.28674 5.27037 3.75887 5.37415C3.23099 5.47792 2.68398 5.42403 2.18695 5.21923C1.68992 5.01443 1.26516 4.66792 0.96633 4.22351C0.667501 3.7791 0.508012 3.25673 0.508011 2.72235C0.50801 2.3668 0.578638 2.01474 0.715856 1.68633C0.853074 1.35792 1.05418 1.05961 1.30767 0.808502C1.56115 0.557392 1.86203 0.358413 2.19306 0.222947C2.5241 0.0874815 2.8788 0.0181859 3.23684 0.019051Z" fill="url(#paint5_linear_33_7822)"/>
<path d="M3.21682 15.884C2.94509 15.8827 2.6791 15.9616 2.45262 16.1107C2.22615 16.2598 2.04939 16.4724 1.9448 16.7215C1.84021 16.9705 1.8125 17.2448 1.86519 17.5095C1.91788 17.7742 2.0486 18.0174 2.24074 18.2082C2.43288 18.399 2.67778 18.5289 2.94436 18.5812C3.21093 18.6335 3.48714 18.606 3.73794 18.5021C3.98873 18.3983 4.20279 18.2227 4.35294 17.9978C4.50308 17.7729 4.58255 17.5088 4.58124 17.2389C4.57949 16.8801 4.43518 16.5365 4.17968 16.2828C3.92418 16.029 3.57815 15.8857 3.21682 15.884ZM3.21682 14.5357C3.75681 14.5357 4.28466 14.6948 4.73356 14.9928C5.18246 15.2909 5.53222 15.7145 5.73856 16.21C5.9449 16.7056 5.99856 17.2508 5.89272 17.7766C5.78689 18.3024 5.52634 18.7853 5.14404 19.164C4.76174 19.5427 4.27489 19.8003 3.74511 19.9041C3.21533 20.0079 2.66645 19.9533 2.16794 19.7472C1.66943 19.5411 1.2437 19.1928 0.944651 18.7463C0.6456 18.2998 0.486673 17.7752 0.487984 17.2389C0.487983 16.8834 0.558611 16.5313 0.695829 16.2029C0.833047 15.8745 1.03416 15.5762 1.28764 15.3251C1.54112 15.074 1.842 14.875 2.17304 14.7395C2.50408 14.6041 2.85877 14.5348 3.21682 14.5357Z" fill="url(#paint6_linear_33_7822)"/>
<path d="M12.6883 13.5096H24.5971V12.1613H13.2513L5.13098 4.11719L4.17722 5.0709L12.6883 13.5096Z" fill="url(#paint7_linear_33_7822)"/>
<path d="M11.7148 2.65011C11.4433 2.65011 11.178 2.73014 10.9524 2.88004C10.7268 3.02993 10.551 3.24296 10.4475 3.49213C10.3439 3.74129 10.3171 4.01539 10.3706 4.27967C10.424 4.54396 10.5553 4.78652 10.7477 4.97667C10.9401 5.16681 11.185 5.29598 11.4514 5.34777C11.7178 5.39956 11.9936 5.37166 12.244 5.2676C12.4945 5.16354 12.7081 4.98802 12.858 4.76326C13.0078 4.53849 13.0871 4.2746 13.0858 4.00504C13.0858 3.82655 13.0503 3.64984 12.9813 3.48502C12.9123 3.3202 12.8112 3.17053 12.6838 3.04463C12.5564 2.91873 12.4052 2.81906 12.2389 2.75135C12.0726 2.68365 11.8945 2.64924 11.7148 2.65011ZM11.7148 1.30176C12.2532 1.30176 12.7795 1.4603 13.2271 1.75734C13.6748 2.05438 14.0237 2.47658 14.2298 2.97054C14.4358 3.46451 14.4897 4.00804 14.3847 4.53242C14.2796 5.05681 14.0204 5.53852 13.6397 5.91658C13.259 6.29464 12.7739 6.55211 12.2458 6.65641C11.7178 6.76072 11.1704 6.70718 10.673 6.50258C10.1756 6.29797 9.75045 5.95146 9.45133 5.5069C9.15221 5.06235 8.99255 4.5397 8.99255 4.00504C8.9943 3.28862 9.28167 2.60203 9.7918 2.09544C10.3019 1.58885 10.9933 1.30349 11.7148 1.30176Z" fill="url(#paint8_linear_33_7822)"/>
<path d="M15.6755 8.90557H27.5843V7.55721H16.2385L13.5825 4.92627L12.6221 5.87999L15.6755 8.90557Z" fill="url(#paint9_linear_33_7822)"/>
<path d="M3.23674 30.3145C2.9653 30.3132 2.69958 30.3919 2.47324 30.5408C2.2469 30.6896 2.07015 30.9017 1.96536 31.1504C1.86057 31.3991 1.83247 31.6731 1.88462 31.9376C1.93677 32.2021 2.06683 32.4453 2.2583 32.6364C2.44978 32.8275 2.69406 32.9578 2.9602 33.0109C3.22634 33.0639 3.50234 33.0374 3.75326 32.9345C4.00417 32.8317 4.21869 32.6572 4.36964 32.4331C4.52058 32.2091 4.60116 31.9456 4.60116 31.676C4.60117 31.3161 4.45763 30.9707 4.20194 30.7156C3.94625 30.4604 3.59922 30.3162 3.23674 30.3145ZM3.23674 28.999C3.77646 28.999 4.30405 29.158 4.75281 29.4557C5.20156 29.7535 5.55132 30.1767 5.75786 30.6719C5.9644 31.167 6.01844 31.7119 5.91315 32.2376C5.80786 32.7632 5.54796 33.2461 5.16632 33.6251C4.78469 34.004 4.29846 34.2621 3.76911 34.3667C3.23977 34.4713 2.6911 34.4176 2.19247 34.2125C1.69384 34.0074 1.26765 33.66 0.967803 33.2144C0.667954 32.7688 0.507912 32.2449 0.507912 31.7089C0.507039 31.3528 0.577025 31 0.713852 30.6709C0.850679 30.3417 1.05165 30.0426 1.30522 29.7908C1.55879 29.539 1.85996 29.3394 2.19144 29.2035C2.52291 29.0677 2.87814 28.9982 3.23674 28.999Z" fill="url(#paint10_linear_33_7822)"/>
<path d="M5.13098 30.2557L13.2513 22.2116H24.5971V20.8633H12.6883L4.17722 29.302L5.13098 30.2557Z" fill="url(#paint11_linear_33_7822)"/>
<path d="M11.7148 29.0064C11.4433 29.0064 11.178 29.0864 10.9524 29.2363C10.7268 29.3862 10.551 29.5992 10.4475 29.8484C10.3439 30.0976 10.3171 30.3717 10.3706 30.636C10.424 30.9002 10.5553 31.1428 10.7477 31.333C10.9401 31.5231 11.185 31.6523 11.4514 31.7041C11.7178 31.7558 11.9936 31.7279 12.2441 31.6239C12.4945 31.5198 12.7081 31.3443 12.858 31.1195C13.0078 30.8948 13.0871 30.6309 13.0858 30.3613C13.0858 30.1828 13.0503 30.0061 12.9813 29.8413C12.9123 29.6765 12.8112 29.5268 12.6838 29.4009C12.5564 29.275 12.4053 29.1753 12.2389 29.1076C12.0726 29.0399 11.8945 29.0055 11.7148 29.0064ZM11.7148 27.6909C12.255 27.6896 12.7836 27.8476 13.2333 28.1449C13.6831 28.4421 14.0339 28.8653 14.2412 29.3607C14.4486 29.8561 14.5032 30.4016 14.3981 30.9279C14.293 31.4541 14.033 31.9376 13.651 32.3169C13.2689 32.6963 12.7821 32.9546 12.2521 33.0589C11.7222 33.1633 11.173 33.109 10.6741 32.9031C10.1752 32.6972 9.74904 32.3489 9.44969 31.9022C9.15035 31.4556 8.99125 30.9307 8.99256 30.3942C8.99431 29.6778 9.28168 28.9912 9.79181 28.4846C10.3019 27.978 10.9933 27.6927 11.7148 27.6909Z" fill="url(#paint12_linear_33_7822)"/>
<path d="M13.5825 29.4466L16.2385 26.8156H27.5843V25.4673H15.6755L12.6221 28.4929L13.5825 29.4466Z" fill="url(#paint13_linear_33_7822)"/>
<path d="M24.5774 16.5684H5.67424V17.9167H24.5774V16.5684Z" fill="url(#paint14_linear_33_7822)"/>
<path d="M31.2205 31.9859C39.44 31.9859 46.1033 25.3689 46.1033 17.2066C46.1033 9.04417 39.44 2.42725 31.2205 2.42725C23.001 2.42725 16.3378 9.04417 16.3378 17.2066C16.3378 25.3689 23.001 31.9859 31.2205 31.9859Z" fill="white"/>
<path d="M36.7511 3.42034C36.1682 3.51242 35.6516 3.55845 35.1548 3.67026C33.8204 3.9651 32.5871 4.60239 31.5782 5.5185C31.3464 5.7224 31.2073 5.75528 30.9556 5.5185C29.6071 4.29352 27.8726 3.57064 26.0477 3.47295C25.9549 3.47295 25.8291 3.50584 25.8026 3.36771C25.7761 3.22959 25.8887 3.24933 25.9483 3.19671C27.4189 1.90043 29.3193 1.18836 31.2857 1.19685C33.252 1.20535 35.1462 1.93382 36.6053 3.24276L36.7511 3.42034Z" fill="#207A91"/>
<path d="M25.339 3.64346C24.4579 4.61886 23.8143 5.78229 23.4579 7.04394C23.2983 7.60551 23.2072 8.18406 23.1864 8.7672C23.1864 8.93822 23.1864 9.10925 22.9413 9.12241C20.9664 9.19182 19.0838 9.96996 17.6426 11.3126C17.3446 7.69509 20.9609 3.50534 25.339 3.64346Z" fill="#207A91"/>
<path d="M37.1749 3.59082C39.1516 3.62761 41.0435 4.39464 42.4813 5.74217C43.9191 7.0897 44.7996 8.92099 44.9508 10.8785C44.9508 10.9903 45.0303 11.1284 44.9044 11.2008C44.7786 11.2731 44.6925 11.1351 44.613 11.0627C43.2555 9.92714 41.5634 9.26006 39.7912 9.16184C39.5196 9.16184 39.3805 9.10263 39.3606 8.78034C39.2713 6.93476 38.5437 5.17623 37.3008 3.80128C37.2551 3.73337 37.2131 3.66313 37.1749 3.59082Z" fill="#207A91"/>
<path d="M44.9309 23.106C45.0369 27.1181 41.2218 30.9133 37.2743 30.7488C37.2743 30.5581 37.4266 30.466 37.526 30.3476C38.6183 29.0247 39.2606 27.3922 39.3607 25.6843C39.3607 25.4278 39.3938 25.2436 39.7316 25.2304C41.5719 25.1655 43.3324 24.4681 44.7124 23.2572C44.7815 23.2017 44.8545 23.1512 44.9309 23.106Z" fill="#207A91"/>
<path d="M25.339 30.7422C21.4445 30.9198 17.5301 27.3023 17.5897 23.1651C17.7553 23.1191 17.8215 23.2638 17.9208 23.3427C19.2728 24.4864 20.9686 25.1526 22.7427 25.237C22.948 25.237 23.1533 25.237 23.1599 25.5264C23.2365 27.4675 24.0094 29.3174 25.339 30.7422Z" fill="#207A91"/>
<path d="M25.7961 30.9928C26.412 30.8876 26.975 30.8152 27.5248 30.6902C28.8205 30.3757 30.0147 29.7398 30.9954 28.842C31.161 28.6907 31.2736 28.6052 31.4856 28.8025C32.8531 30.0623 34.6178 30.813 36.4796 30.927L36.6187 30.9665C36.6187 30.9665 36.6187 30.9665 36.6187 31.0125C34.3137 33.604 28.9819 34.1434 25.7961 30.9928Z" fill="#207A91"/>
<path d="M31.247 18.4429C31.384 18.6806 31.4655 18.9458 31.4855 19.219C31.8001 20.4378 32.4016 21.5649 33.2407 22.5077C33.3449 22.6138 33.4248 22.7411 33.4751 22.8807C33.5254 23.0203 33.5448 23.1689 33.5321 23.3167C33.444 25.1277 32.7306 26.8535 31.512 28.2037C31.3066 28.4339 31.2007 28.4142 31.0086 28.2037C29.8431 26.9011 29.1445 25.2522 29.0216 23.514C29.0035 23.3266 29.0248 23.1374 29.084 22.9585C29.1433 22.7797 29.2393 22.6149 29.366 22.4748C30.3176 21.3894 30.944 20.061 31.1742 18.6402C31.1845 18.5701 31.2093 18.5029 31.247 18.4429Z" fill="#F49A23"/>
<path d="M17.3909 11.7803C17.4689 12.8982 17.7517 13.9927 18.2255 15.0098C18.5731 15.7251 19.0189 16.3892 19.5501 16.983C19.676 17.1211 19.8018 17.2263 19.6098 17.4302C18.2826 18.85 17.5058 20.6912 17.4174 22.6263C14.8012 20.3834 14.1123 15.0098 17.3909 11.7803Z" fill="#207A91"/>
<path d="M45.1032 22.639C45.0286 20.6813 44.251 18.8148 42.9108 17.3771C42.7121 17.1667 42.8645 17.0614 42.9903 16.9233C44.0066 15.8151 44.6943 14.4492 44.9773 12.9769C45.0502 12.5954 45.0899 12.2008 45.1495 11.793C47.7194 14.0424 48.3884 19.4622 45.1032 22.639Z" fill="#207A91"/>
<path d="M32.0552 16.3775C33.0237 15.0661 33.575 13.497 33.6381 11.872C33.6381 11.5892 33.8435 11.4313 34.0356 11.2603C35.3894 10.0704 37.1112 9.37438 38.917 9.28711C39.2018 9.28711 39.2746 9.35946 39.2548 9.61598C39.1615 11.4803 38.4058 13.2513 37.122 14.6147C37.0693 14.6791 37.0039 14.7321 36.9299 14.7705C36.8559 14.809 36.7748 14.8321 36.6915 14.8384C35.0395 14.9065 33.4467 15.4681 32.1214 16.4498L32.0552 16.3775Z" fill="#F49A23"/>
<path d="M30.4124 18.1138C29.4917 19.396 28.9628 20.9146 28.8891 22.4877C28.8867 22.5964 28.8607 22.7033 28.8126 22.8009C28.7646 22.8986 28.6958 22.9847 28.6109 23.0534C27.2478 24.3073 25.4855 25.0473 23.6301 25.145C23.3122 25.145 23.2327 25.0726 23.2592 24.7569C23.3803 22.9628 24.1032 21.2608 25.3124 19.9225C25.3938 19.8246 25.4946 19.7442 25.6085 19.6865C25.7225 19.6288 25.8471 19.595 25.9748 19.5871C27.3954 19.5162 28.7695 19.0613 29.9488 18.2716C30.067 18.1785 30.2154 18.1317 30.3661 18.1401L30.4124 18.1138Z" fill="#F49A23"/>
<path d="M32.1346 18.1138C32.3113 18.19 32.4838 18.2756 32.6512 18.3703C33.8122 19.1118 35.1476 19.5402 36.5259 19.6134C36.6534 19.6189 36.7783 19.651 36.8924 19.7077C37.0065 19.7644 37.1073 19.8443 37.1883 19.9423C38.404 21.2733 39.126 22.9763 39.2349 24.77C39.2349 25.0858 39.1686 25.1844 38.8507 25.1647C36.976 25.0584 35.1998 24.2965 33.8368 23.0139C33.7667 22.9551 33.7106 22.8815 33.6728 22.7984C33.635 22.7153 33.6163 22.6249 33.6182 22.5337C33.5845 21.0102 33.0702 19.5356 32.1479 18.3177C32.136 18.2504 32.1316 18.182 32.1346 18.1138Z" fill="#F49A23"/>
<path d="M31.2404 16.0485C31.1016 15.4266 30.9247 14.8138 30.7106 14.2134C30.3693 13.3598 29.8807 12.5718 29.2666 11.8851C29.1689 11.7847 29.0941 11.6645 29.0473 11.5329C29.0004 11.4013 28.9826 11.2611 28.9951 11.1221C29.071 9.31053 29.7727 7.58018 30.9821 6.22192C31.1742 5.99829 31.2868 5.99829 31.4855 6.22192C32.6677 7.53779 33.378 9.2053 33.5056 10.9642C33.5287 11.1301 33.5164 11.2989 33.4696 11.4598C33.4228 11.6207 33.3426 11.77 33.2341 11.8982C32.2404 12.9936 31.5791 14.3458 31.3265 15.7985C31.3083 15.8851 31.2794 15.969 31.2404 16.0485Z" fill="#F49A23"/>
<path d="M30.247 16.2726C29.2638 15.6336 28.1667 15.1871 27.0147 14.9572C26.8384 14.9053 26.6555 14.8787 26.4716 14.8782C26.1469 14.8937 25.8245 14.8171 25.5419 14.6576C25.2593 14.4981 25.0281 14.2621 24.8754 13.9771C23.943 12.7242 23.3852 11.2356 23.2659 9.68212C23.2659 9.37956 23.3321 9.26117 23.6434 9.28091C25.5375 9.37644 27.3327 10.1498 28.6971 11.458C28.7497 11.4996 28.7933 11.5513 28.8251 11.6101C28.857 11.6689 28.8765 11.7335 28.8825 11.8C28.934 13.3731 29.4348 14.8991 30.3264 16.2003L30.247 16.2726Z" fill="#F49A23"/>
<path d="M29.9025 17.2916C28.364 17.546 26.9304 18.2304 25.7695 19.2648C25.7092 19.3226 25.6374 19.3671 25.5586 19.3954C25.4799 19.4237 25.396 19.4353 25.3125 19.4292C23.4499 19.3762 21.6646 18.6782 20.2655 17.456C19.9939 17.2258 19.9807 17.0877 20.2655 16.8509C21.6489 15.6372 23.4146 14.9396 25.2595 14.8777C25.3595 14.8699 25.46 14.8827 25.5546 14.9156C25.6493 14.9484 25.736 15.0005 25.8093 15.0685C26.9236 16.08 28.2998 16.7633 29.7833 17.0417C29.823 17.114 29.8893 17.1337 29.9025 17.2916Z" fill="#F49A23"/>
<path d="M32.4128 17.1339C33.8821 16.9752 35.2681 16.3765 36.3868 15.4172C36.5792 15.2398 36.81 15.1084 37.0614 15.0332C37.3128 14.9579 37.5782 14.9408 37.8373 14.983C39.4632 15.1535 40.9989 15.8094 42.2419 16.8642C42.5532 17.1207 42.5664 17.2851 42.2419 17.5219C40.8444 18.6952 39.0899 19.3671 37.2611 19.4293C37.1708 19.4387 37.0795 19.4295 36.9929 19.4024C36.9063 19.3752 36.8262 19.3307 36.7577 19.2715C35.5386 18.1877 34.0337 17.4713 32.4194 17.2062C32.4136 17.1825 32.4114 17.1582 32.4128 17.1339Z" fill="#F49A23"/>
<path d="M32.4127 17.1337C32.4061 17.1662 32.4061 17.1998 32.4127 17.2323C32.0882 18.2715 31.6378 18.4952 30.6045 18.1137C30.5409 18.1037 30.4761 18.1037 30.4124 18.1137C30.1608 17.5481 29.9488 16.989 30.4124 16.4233H30.4787C30.6992 16.2331 30.9814 16.1284 31.2735 16.1284C31.5656 16.1284 31.8478 16.2331 32.0683 16.4233L32.1345 16.476C32.2206 16.6601 32.3134 16.8969 32.4127 17.1337Z" fill="#207A91"/>
<path d="M30.4656 16.3906H30.3993L30.247 16.2394L30.3265 16.167L30.4656 16.3906Z" fill="#F49A23"/>
<defs>
<linearGradient id="paint0_linear_33_7822" x1="31.9624" y1="17.2389" x2="55.1377" y2="17.2389" gradientUnits="userSpaceOnUse">
<stop stop-color="#004254"/>
<stop offset="1" stop-color="#207A91"/>
</linearGradient>
<linearGradient id="paint1_linear_33_7822" x1="31.9623" y1="6.74837" x2="55.1375" y2="6.74837" gradientUnits="userSpaceOnUse">
<stop stop-color="#004254"/>
<stop offset="1" stop-color="#207A91"/>
</linearGradient>
<linearGradient id="paint2_linear_33_7822" x1="31.9624" y1="5.10402" x2="55.1376" y2="5.10402" gradientUnits="userSpaceOnUse">
<stop stop-color="#004254"/>
<stop offset="1" stop-color="#207A91"/>
</linearGradient>
<linearGradient id="paint3_linear_33_7822" x1="31.9624" y1="27.6182" x2="55.1376" y2="27.6182" gradientUnits="userSpaceOnUse">
<stop stop-color="#004254"/>
<stop offset="1" stop-color="#207A91"/>
</linearGradient>
<linearGradient id="paint4_linear_33_7822" x1="31.9623" y1="29.269" x2="55.1375" y2="29.269" gradientUnits="userSpaceOnUse">
<stop stop-color="#004254"/>
<stop offset="1" stop-color="#207A91"/>
</linearGradient>
<linearGradient id="paint5_linear_33_7822" x1="30.5583" y1="2.69603" x2="7.73412" y2="2.69603" gradientUnits="userSpaceOnUse">
<stop stop-color="#004254"/>
<stop offset="1" stop-color="#207A91"/>
</linearGradient>
<linearGradient id="paint6_linear_33_7822" x1="30.5581" y1="17.2389" x2="7.73397" y2="17.2389" gradientUnits="userSpaceOnUse">
<stop stop-color="#004254"/>
<stop offset="1" stop-color="#207A91"/>
</linearGradient>
<linearGradient id="paint7_linear_33_7822" x1="30.5582" y1="8.81341" x2="7.72735" y2="8.81341" gradientUnits="userSpaceOnUse">
<stop stop-color="#004254"/>
<stop offset="1" stop-color="#207A91"/>
</linearGradient>
<linearGradient id="paint8_linear_33_7822" x1="30.5583" y1="4.00506" x2="7.73411" y2="4.00506" gradientUnits="userSpaceOnUse">
<stop stop-color="#004254"/>
<stop offset="1" stop-color="#207A91"/>
</linearGradient>
<linearGradient id="paint9_linear_33_7822" x1="30.5582" y1="6.91263" x2="7.7274" y2="6.91263" gradientUnits="userSpaceOnUse">
<stop stop-color="#004254"/>
<stop offset="1" stop-color="#207A91"/>
</linearGradient>
<linearGradient id="paint10_linear_33_7822" x1="30.5582" y1="31.676" x2="7.73402" y2="31.676" gradientUnits="userSpaceOnUse">
<stop stop-color="#004254"/>
<stop offset="1" stop-color="#207A91"/>
</linearGradient>
<linearGradient id="paint11_linear_33_7822" x1="30.5582" y1="25.5595" x2="7.72735" y2="25.5595" gradientUnits="userSpaceOnUse">
<stop stop-color="#004254"/>
<stop offset="1" stop-color="#207A91"/>
</linearGradient>
<linearGradient id="paint12_linear_33_7822" x1="30.5583" y1="30.3613" x2="7.73412" y2="30.3613" gradientUnits="userSpaceOnUse">
<stop stop-color="#004254"/>
<stop offset="1" stop-color="#207A91"/>
</linearGradient>
<linearGradient id="paint13_linear_33_7822" x1="30.5582" y1="27.4602" x2="7.7274" y2="27.4602" gradientUnits="userSpaceOnUse">
<stop stop-color="#004254"/>
<stop offset="1" stop-color="#207A91"/>
</linearGradient>
<linearGradient id="paint14_linear_33_7822" x1="97.7724" y1="350.086" x2="74.9482" y2="350.086" gradientUnits="userSpaceOnUse">
<stop stop-color="#004254"/>
<stop offset="1" stop-color="#207A91"/>
</linearGradient>
</defs>
</svg>
