<svg width="99" height="62" viewBox="0 0 99 62" fill="none" xmlns="http://www.w3.org/2000/svg">
<g clip-path="url(#clip0_1255_6337)">
<path d="M86.0779 18.9313C85.2935 18.937 84.5328 19.1988 83.9134 19.6763C83.2939 20.1538 82.8503 20.8204 82.6511 21.5731H58.2349V23.3296H82.6368C82.7991 23.9749 83.1413 24.5618 83.6242 25.0232C84.1072 25.4846 84.7113 25.8017 85.3674 25.9382C86.0236 26.0748 86.7053 26.0252 87.3344 25.7953C87.9635 25.5654 88.5146 25.1643 88.9246 24.6381C89.3346 24.1118 89.5869 23.4817 89.6527 22.8198C89.7185 22.1579 89.595 21.491 89.2965 20.8954C88.9979 20.2999 88.5364 19.7999 87.9646 19.4525C87.3929 19.1051 86.7341 18.9245 86.0637 18.9313H86.0779ZM86.0779 24.2149C85.7246 24.2149 85.3793 24.1108 85.0856 23.916C84.792 23.7211 84.5632 23.4442 84.4283 23.1202C84.2934 22.7963 84.2585 22.4399 84.328 22.0962C84.3974 21.7526 84.5681 21.4371 84.8184 21.1897C85.0688 20.9424 85.3875 20.7743 85.7341 20.7068C86.0808 20.6393 86.4399 20.6754 86.7659 20.8105C87.0919 20.9456 87.3702 21.1736 87.5654 21.4657C87.7607 21.7578 87.8642 22.1009 87.8628 22.4514C87.8609 22.9197 87.672 23.3683 87.3375 23.6988C87.003 24.0293 86.5501 24.2149 86.0779 24.2149Z" fill="url(#paint0_linear_1255_6337)"/>
<path d="M72.9917 15.8363H58.2349V17.5857H73.7485L84.6501 6.76363C85.1372 6.98364 85.6679 7.09219 86.203 7.08123C86.738 7.07027 87.2638 6.94011 87.7413 6.70035C88.2188 6.46058 88.6359 6.11734 88.9616 5.69608C89.2873 5.27481 89.5134 4.78627 89.6231 4.26661C89.7328 3.74695 89.7233 3.20946 89.5953 2.69393C89.4674 2.1784 89.2242 1.69803 88.8838 1.28833C88.5434 0.878639 88.1145 0.550143 87.6288 0.327114C87.1431 0.104085 86.6131 -0.0077575 86.0779 -0.000122041C85.4199 0.0102626 84.7775 0.200939 84.2218 0.550819C83.6662 0.900699 83.2188 1.39618 82.9292 1.98249C82.6396 2.5688 82.5191 3.22312 82.5809 3.87315C82.6427 4.52318 82.8844 5.14359 83.2793 5.66586L72.9917 15.8363ZM86.0779 1.7705C86.4309 1.7705 86.776 1.87434 87.0695 2.0689C87.363 2.26346 87.5918 2.53998 87.7269 2.86352C87.862 3.18706 87.8973 3.54308 87.8285 3.88655C87.7596 4.23002 87.5896 4.5455 87.34 4.79313C87.0904 5.04075 86.7724 5.20939 86.4261 5.27771C86.0799 5.34603 85.7211 5.31096 85.3949 5.17695C85.0688 5.04294 84.79 4.81599 84.5939 4.52481C84.3978 4.23364 84.2931 3.89131 84.2931 3.54112C84.2931 3.07152 84.4812 2.62116 84.8159 2.2891C85.1506 1.95705 85.6046 1.7705 86.0779 1.7705Z" fill="url(#paint1_linear_1255_6337)"/>
<path d="M73.2272 8.25811C73.9707 8.68728 74.8464 8.83274 75.6902 8.66722C76.534 8.5017 77.288 8.03657 77.8108 7.35901C78.3336 6.68145 78.5894 5.83797 78.5302 4.9867C78.471 4.13543 78.1009 3.33478 77.4892 2.73487C76.8775 2.13495 76.0663 1.77695 75.2076 1.72796C74.3489 1.67896 73.5016 1.94233 72.8246 2.46871C72.1476 2.9951 71.6874 3.74835 71.5302 4.58727C71.373 5.4262 71.5297 6.2932 71.9707 7.02576L69.115 9.85876H54.3368V11.6081H69.8504L73.2272 8.25811ZM75.0192 3.45621C75.3722 3.45621 75.7173 3.56006 76.0108 3.75462C76.3043 3.94917 76.5331 4.22569 76.6682 4.54923C76.8032 4.87277 76.8386 5.2288 76.7697 5.57227C76.7009 5.91573 76.5309 6.23122 76.2813 6.47884C76.0316 6.72647 75.7136 6.89511 75.3674 6.96343C75.0212 7.03175 74.6623 6.99668 74.3362 6.86267C74.01 6.72865 73.7313 6.5017 73.5352 6.21053C73.3391 5.91935 73.2344 5.57703 73.2344 5.22683C73.2343 4.7621 73.4184 4.31597 73.747 3.98472C74.0756 3.65346 74.5222 3.46365 74.9906 3.45621H75.0192Z" fill="url(#paint2_linear_1255_6337)"/>
<path d="M86.0779 37.714C85.6023 37.7137 85.1314 37.8076 84.6929 37.9903L73.7556 27.1611H58.2349V28.9176H73.0202L83.2222 39.0668C82.8273 39.589 82.5855 40.2095 82.5237 40.8595C82.462 41.5096 82.5825 42.1639 82.8721 42.7502C83.1617 43.3365 83.6091 43.832 84.1647 44.1819C84.7204 44.5317 85.3628 44.7224 86.0208 44.7328C86.5195 44.7872 87.0242 44.7368 87.5019 44.5847C87.9796 44.4326 88.4197 44.1824 88.7933 43.8502C89.167 43.5181 89.4659 43.1115 89.6705 42.6571C89.8751 42.2026 89.9809 41.7105 89.9809 41.2128C89.9809 40.7151 89.8751 40.2229 89.6705 39.7685C89.4659 39.3141 89.167 38.9075 88.7933 38.5754C88.4197 38.2432 87.9796 37.9929 87.5019 37.8409C87.0242 37.6888 86.5195 37.6383 86.0208 37.6928L86.0779 37.714ZM86.0779 42.9976C85.7243 42.999 85.3783 42.8961 85.0837 42.7021C84.7891 42.5081 84.5592 42.2316 84.4232 41.9078C84.2873 41.584 84.2513 41.2274 84.32 40.8833C84.3886 40.5391 84.5587 40.223 84.8088 39.975C85.0588 39.7269 85.3775 39.5581 85.7244 39.49C86.0712 39.4219 86.4307 39.4576 86.7571 39.5925C87.0835 39.7274 87.3622 39.9554 87.5578 40.2477C87.7534 40.5399 87.857 40.8832 87.8556 41.234C87.8537 41.7012 87.6658 42.1487 87.3329 42.479C86.9999 42.8093 86.5488 42.9957 86.0779 42.9976Z" fill="url(#paint3_linear_1255_6337)"/>
<path d="M74.9907 36.0071C74.372 36.0087 73.7643 36.1697 73.2273 36.4745L69.8576 33.1387H54.3154V34.8952H69.0937L71.9494 37.7281C71.5439 38.3994 71.374 39.1851 71.4662 39.9623C71.5585 40.7395 71.9076 41.4645 72.4591 42.0241C73.0106 42.5836 73.7334 42.9462 74.5146 43.0551C75.2958 43.164 76.0913 43.0131 76.7769 42.6261C77.4625 42.239 77.9996 41.6375 78.3042 40.9156C78.6088 40.1937 78.6637 39.3921 78.4605 38.6359C78.2572 37.8797 77.8072 37.2117 77.1808 36.7361C76.5543 36.2605 75.7867 36.0041 74.9978 36.0071H74.9907ZM74.9907 41.2906C74.6371 41.292 74.291 41.1892 73.9964 40.9952C73.7018 40.8012 73.4719 40.5247 73.336 40.2009C73.2 39.877 73.1641 39.5205 73.2327 39.1763C73.3013 38.8322 73.4715 38.516 73.7215 38.268C73.9716 38.0199 74.2902 37.8512 74.6371 37.7831C74.984 37.715 75.3434 37.7506 75.6699 37.8855C75.9963 38.0204 76.275 38.2484 76.4706 38.5407C76.6661 38.833 76.7698 39.1763 76.7684 39.5271C76.7684 39.9948 76.5811 40.4434 76.2477 40.7741C75.9143 41.1048 75.4622 41.2906 74.9907 41.2906Z" fill="url(#paint4_linear_1255_6337)"/>
<path d="M12.972 1.77084C12.6187 1.76943 12.2729 1.87208 11.9784 2.06578C11.684 2.25948 11.4541 2.53552 11.3179 2.85893C11.1817 3.18234 11.1454 3.53859 11.2134 3.88252C11.2815 4.22646 11.4509 4.54263 11.7002 4.79096C11.9496 5.03929 12.2676 5.20864 12.614 5.27753C12.9604 5.34643 13.3196 5.31178 13.6462 5.17798C13.9727 5.04418 14.2519 4.81721 14.4483 4.52589C14.6448 4.23456 14.7496 3.89195 14.7496 3.54145C14.7496 3.07308 14.5626 2.6238 14.2294 2.29195C13.8962 1.9601 13.4441 1.77271 12.972 1.77084ZM12.972 0.0214844C13.678 0.0214844 14.3681 0.229174 14.9551 0.61829C15.5422 1.00741 15.9997 1.56045 16.2699 2.20752C16.54 2.8546 16.6107 3.56662 16.473 4.25355C16.3353 4.94048 15.9953 5.5715 15.4961 6.06675C14.9968 6.562 14.3608 6.89924 13.6684 7.03588C12.9759 7.17252 12.2582 7.10242 11.6059 6.83439C10.9537 6.56636 10.3962 6.11247 10.0039 5.53012C9.6117 4.94776 9.40234 4.26311 9.40234 3.56272C9.40234 2.62353 9.77841 1.72276 10.4478 1.05865C11.1173 0.394543 12.0252 0.0214844 12.972 0.0214844Z" fill="url(#paint5_linear_1255_6337)"/>
<path d="M12.9434 20.681C12.5901 20.6796 12.2443 20.7823 11.9499 20.976C11.6554 21.1697 11.4256 21.4457 11.2894 21.7691C11.1532 22.0925 11.1168 22.4488 11.1849 22.7927C11.2529 23.1367 11.4224 23.4528 11.6717 23.7011C11.921 23.9495 12.239 24.1188 12.5854 24.1877C12.9319 24.2566 13.2911 24.2219 13.6176 24.0881C13.9442 23.9543 14.2233 23.7274 14.4198 23.4361C14.6162 23.1448 14.7211 22.8022 14.7211 22.4517C14.7211 21.9833 14.534 21.534 14.2009 21.2021C13.8677 20.8703 13.4155 20.6829 12.9434 20.681ZM12.9434 18.9316C13.6494 18.9316 14.3396 19.1393 14.9266 19.5284C15.5136 19.9176 15.9711 20.4706 16.2413 21.1177C16.5115 21.7648 16.5822 22.4768 16.4444 23.1637C16.3067 23.8507 15.9667 24.4817 15.4675 24.9769C14.9683 25.4722 14.3323 25.8094 13.6398 25.9461C12.9474 26.0827 12.2296 26.0126 11.5774 25.7446C10.9251 25.4766 10.3676 25.0227 9.97537 24.4403C9.58313 23.858 9.37378 23.1733 9.37378 22.4729C9.37378 21.5337 9.74987 20.633 10.4193 19.9689C11.0887 19.3047 11.9967 18.9316 12.9434 18.9316Z" fill="url(#paint6_linear_1255_6337)"/>
<path d="M25.2873 17.593H40.8009V15.8366H26.0155L15.4422 5.36865L14.1929 6.61517L25.2873 17.593Z" fill="url(#paint7_linear_1255_6337)"/>
<path d="M24.0164 3.45643C23.6634 3.45643 23.3183 3.56027 23.0248 3.75483C22.7313 3.94939 22.5025 4.22591 22.3675 4.54945C22.2324 4.87298 22.197 5.22901 22.2659 5.57248C22.3348 5.91595 22.5047 6.23143 22.7544 6.47906C23.004 6.72668 23.322 6.89532 23.6682 6.96364C24.0144 7.03196 24.3733 6.99689 24.6994 6.86288C25.0255 6.72886 25.3043 6.50192 25.5004 6.21074C25.6965 5.91956 25.8012 5.57724 25.8012 5.22704C25.8012 4.75745 25.6132 4.30709 25.2785 3.97503C24.9437 3.64298 24.4898 3.45643 24.0164 3.45643ZM24.0164 1.70703C24.7224 1.70703 25.4125 1.91472 25.9996 2.30384C26.5866 2.69295 27.0441 3.24604 27.3143 3.89311C27.5845 4.54019 27.6552 5.25221 27.5174 5.93914C27.3797 6.62607 27.0397 7.25709 26.5405 7.75234C26.0413 8.24759 25.4052 8.58483 24.7128 8.72147C24.0203 8.85811 23.3026 8.78801 22.6504 8.51998C21.9981 8.25195 21.4406 7.79806 21.0484 7.21571C20.6561 6.63335 20.4468 5.94866 20.4468 5.24827C20.4468 4.30907 20.8228 3.40836 21.4923 2.74424C22.1617 2.08013 23.0697 1.70703 24.0164 1.70703Z" fill="url(#paint8_linear_1255_6337)"/>
<path d="M29.1781 11.6009H44.6917V9.84442H29.9134L26.4509 6.4165L25.2015 7.66302L29.1781 11.6009Z" fill="url(#paint9_linear_1255_6337)"/>
<path d="M12.972 39.4637C12.6187 39.4623 12.2729 39.565 11.9784 39.7587C11.684 39.9524 11.4541 40.2284 11.3179 40.5518C11.1817 40.8753 11.1454 41.2315 11.2134 41.5754C11.2815 41.9193 11.4509 42.2355 11.7002 42.4838C11.9496 42.7322 12.2676 42.9015 12.614 42.9704C12.9604 43.0393 13.3196 43.0047 13.6462 42.8709C13.9727 42.737 14.2519 42.5101 14.4483 42.2188C14.6448 41.9275 14.7496 41.5848 14.7496 41.2343C14.7496 40.766 14.5626 40.3167 14.2294 39.9848C13.8962 39.653 13.4441 39.4656 12.972 39.4637ZM12.972 37.7144C13.678 37.7144 14.3681 37.922 14.9551 38.3112C15.5422 38.7003 15.9997 39.2534 16.2699 39.9004C16.54 40.5475 16.6107 41.2595 16.473 41.9465C16.3353 42.6334 15.9953 43.2644 15.4961 43.7596C14.9968 44.2549 14.3608 44.5922 13.6684 44.7288C12.9759 44.8654 12.2582 44.7953 11.6059 44.5273C10.9537 44.2592 10.3962 43.8053 10.0039 43.223C9.6117 42.6406 9.40234 41.956 9.40234 41.2556C9.40234 40.3164 9.77841 39.4157 10.4478 38.7516C11.1173 38.0875 12.0252 37.7144 12.972 37.7144Z" fill="url(#paint10_linear_1255_6337)"/>
<path d="M15.4422 39.3855L26.0155 28.9176H40.8009V27.1611H25.2873L14.1929 38.139L15.4422 39.3855Z" fill="url(#paint11_linear_1255_6337)"/>
<path d="M24.0164 37.7567C23.6634 37.7567 23.3183 37.8605 23.0248 38.0551C22.7313 38.2496 22.5025 38.5262 22.3675 38.8497C22.2324 39.1732 22.197 39.5293 22.2659 39.8727C22.3348 40.2162 22.5047 40.5317 22.7544 40.7793C23.004 41.0269 23.322 41.1956 23.6682 41.2639C24.0144 41.3322 24.3733 41.2971 24.6994 41.1631C25.0255 41.0291 25.3043 40.8022 25.5004 40.511C25.6965 40.2198 25.8012 39.8775 25.8012 39.5273C25.8012 39.0577 25.6132 38.6073 25.2785 38.2753C24.9437 37.9432 24.4898 37.7567 24.0164 37.7567ZM24.0164 36.0073C24.7224 36.0073 25.4125 36.215 25.9996 36.6041C26.5866 36.9932 27.0441 37.5463 27.3143 38.1934C27.5845 38.8404 27.6552 39.5525 27.5174 40.2394C27.3797 40.9263 27.0397 41.5573 26.5405 42.0526C26.0413 42.5478 25.4052 42.8851 24.7128 43.0217C24.0203 43.1584 23.3026 43.0883 22.6504 42.8202C21.9981 42.5522 21.4406 42.0983 21.0484 41.516C20.6561 40.9336 20.4468 40.249 20.4468 39.5486C20.4468 38.6094 20.8228 37.7086 21.4923 37.0445C22.1617 36.3804 23.0697 36.0073 24.0164 36.0073Z" fill="url(#paint12_linear_1255_6337)"/>
<path d="M26.4509 38.3372L29.9134 34.9093H44.6917V33.1528H29.1781L25.2015 37.0907L26.4509 38.3372Z" fill="url(#paint13_linear_1255_6337)"/>
<path d="M40.7722 21.5732H16.1489V23.3297H40.7722V21.5732Z" fill="url(#paint14_linear_1255_6337)"/>
<path d="M49.425 41.6449C60.1339 41.6449 68.8152 33.0326 68.8152 22.4089C68.8152 11.7851 60.1339 3.17285 49.425 3.17285C38.7161 3.17285 30.0348 11.7851 30.0348 22.4089C30.0348 33.0326 38.7161 41.6449 49.425 41.6449Z" fill="white"/>
<path d="M56.6357 4.46175C55.8789 4.58215 55.2078 4.64591 54.551 4.78755C52.8158 5.17381 51.2117 6.00123 49.8962 7.18852C49.5964 7.45766 49.4179 7.50724 49.0895 7.18852C47.3233 5.58941 45.0522 4.64815 42.6642 4.52551C42.5428 4.52551 42.3786 4.57508 42.3429 4.39094C42.3072 4.20679 42.45 4.23513 42.5285 4.17138C44.4444 2.48384 46.9203 1.55653 49.4824 1.56698C52.0444 1.57744 54.5126 2.52489 56.4144 4.22801L56.6357 4.46175Z" fill="#207A91"/>
<path d="M41.729 4.76628C40.5822 6.03657 39.7444 7.55093 39.2802 9.19282C39.0747 9.92488 38.9572 10.6785 38.9304 11.438C38.9304 11.6576 38.9304 11.8842 38.6091 11.8983C36.0429 11.985 33.5953 12.9915 31.7197 14.7313C31.3556 10.0286 36.1032 4.60338 41.729 4.76628Z" fill="#207A91"/>
<path d="M57.1925 4.68164C59.7645 4.73688 62.2242 5.73765 64.0947 7.48986C65.9651 9.24207 67.1131 11.6209 67.316 14.1651C67.316 14.3067 67.4159 14.4909 67.2517 14.583C67.0875 14.675 66.9804 14.4909 66.8733 14.4059C65.1085 12.9252 62.9056 12.055 60.5979 11.927C60.241 11.927 60.0553 11.8491 60.0339 11.4242C59.9183 9.02175 58.9701 6.73258 57.3496 4.94369C57.2883 4.86193 57.2356 4.77412 57.1925 4.68164Z" fill="#207A91"/>
<path d="M67.2874 30.1006C67.4302 35.3275 62.4613 40.2639 57.2925 40.0161C57.2925 39.7682 57.4924 39.6478 57.6209 39.492C59.0475 37.772 59.8852 35.6461 60.0125 33.4223C60.0125 33.0894 60.0482 32.8486 60.498 32.8344C62.9 32.7489 65.1961 31.8318 66.9876 30.2422C67.0733 30.2068 67.1518 30.1643 67.2874 30.1006Z" fill="#207A91"/>
<path d="M41.7504 40.0158C36.6815 40.2424 31.5841 35.5326 31.6626 30.1499C31.884 30.0862 31.9696 30.2774 32.091 30.3837C33.8538 31.8702 36.0626 32.7367 38.3735 32.8483C38.6448 32.8483 38.909 32.8483 38.9233 33.2237C39.0212 35.7493 40.0236 38.1575 41.7504 40.0158Z" fill="#207A91"/>
<path d="M42.3643 40.3418C43.171 40.2072 43.8992 40.1151 44.6131 39.9522C46.3008 39.5421 47.8558 38.7135 49.1323 37.5442C49.3536 37.3529 49.4964 37.2396 49.7748 37.4946C51.5545 39.1364 53.853 40.1151 56.2787 40.2638C56.3428 40.2703 56.4055 40.2871 56.4643 40.3134C56.4643 40.3134 56.4643 40.3488 56.4643 40.3701C53.4587 43.7484 46.5193 44.4496 42.3643 40.3418Z" fill="#207A91"/>
<path d="M49.4607 24.0098C49.6434 24.3185 49.7509 24.6653 49.7748 25.0226C50.1893 26.5974 50.972 28.0532 52.0594 29.272C52.1947 29.4098 52.299 29.5744 52.3655 29.7551C52.432 29.9358 52.459 30.1284 52.4449 30.3202C52.3291 32.683 51.3962 34.9341 49.8034 36.6945C49.5464 36.9919 49.4036 36.9707 49.1537 36.6945C47.6232 35.0011 46.7039 32.8509 46.5407 30.5823C46.5181 30.3399 46.5457 30.0955 46.6218 29.864C46.698 29.6326 46.821 29.4191 46.9834 29.2366C48.2185 27.8338 49.0344 26.1168 49.3393 24.2789C49.363 24.1826 49.4041 24.0914 49.4607 24.0098Z" fill="#F49A23"/>
<path d="M31.4127 15.3408C31.5128 16.7948 31.8806 18.2183 32.4979 19.5408C32.9517 20.4563 33.5281 21.3067 34.2113 22.0692C34.3755 22.2533 34.5397 22.3879 34.2898 22.6499C32.5589 24.4968 31.5467 26.8944 31.4341 29.4137C28.0359 26.5595 27.1435 19.5478 31.4127 15.3408Z" fill="#207A91"/>
<path d="M67.5159 29.4772C67.4159 26.9341 66.4031 24.5101 64.6602 22.6426C64.4104 22.3664 64.6103 22.2318 64.7673 22.0548C66.0778 20.6163 66.9623 18.8467 67.3232 16.9412C67.416 16.4454 67.4731 15.9355 67.5516 15.4043C70.9285 18.2869 71.7995 25.341 67.5159 29.4772Z" fill="#207A91"/>
<path d="M50.5173 21.3254C51.7751 19.6164 52.4932 17.5754 52.5806 15.4611C52.5806 15.0928 52.8447 14.8875 53.0946 14.6679C54.8549 13.1095 57.0994 12.1948 59.4557 12.0757C59.8269 12.0757 59.9197 12.1678 59.8983 12.5007C59.7738 14.9262 58.7874 17.2296 57.114 19.0024C57.0469 19.089 56.9618 19.1605 56.8645 19.2118C56.7672 19.2631 56.66 19.2931 56.55 19.2998C54.3967 19.3953 52.3232 20.1361 50.603 21.4246C50.5658 21.4 50.5361 21.3656 50.5173 21.3254Z" fill="#F49A23"/>
<path d="M48.3756 23.5777C47.1852 25.2412 46.4968 27.2064 46.3909 29.2437C46.3841 29.3798 46.3488 29.5131 46.2874 29.635C46.2259 29.7569 46.1396 29.8648 46.0339 29.9519C44.2595 31.5869 41.9627 32.552 39.5444 32.6787C39.1303 32.6787 39.0232 32.5866 39.0589 32.1758C39.2156 29.8389 40.1584 27.6218 41.7361 25.8795C41.8463 25.7492 41.9824 25.6429 42.136 25.5674C42.2896 25.4918 42.4573 25.4485 42.6285 25.4404C44.4962 25.3509 46.3025 24.7503 47.8473 23.7052C48.0004 23.5883 48.1898 23.5282 48.3828 23.5352L48.3756 23.5777Z" fill="#F49A23"/>
<path d="M50.6244 23.5493C50.8885 23.6839 51.1027 23.7618 51.2883 23.8822C52.7994 24.8494 54.5398 25.4063 56.3358 25.497C56.5082 25.5006 56.6778 25.5411 56.8331 25.6156C56.9883 25.6902 57.1255 25.7971 57.2353 25.929C58.8117 27.6681 59.75 29.8842 59.8983 32.2183C59.8983 32.629 59.8055 32.7495 59.3985 32.7211C56.9541 32.5896 54.6364 31.6006 52.859 29.9306C52.7708 29.8518 52.6999 29.7558 52.6507 29.6485C52.6016 29.5413 52.5753 29.4252 52.5734 29.3074C52.5345 27.3224 51.8677 25.3998 50.6672 23.8114C50.6672 23.8114 50.6458 23.7264 50.6244 23.5493Z" fill="#F49A23"/>
<path d="M49.4536 20.8932C49.2636 20.082 49.0252 19.2826 48.7397 18.4994C48.2895 17.3922 47.6521 16.3695 46.8549 15.4751C46.7286 15.3443 46.632 15.1881 46.5716 15.017C46.5113 14.846 46.4886 14.6641 46.5051 14.4836C46.6144 12.1234 47.5396 9.87244 49.1252 8.10939C49.3751 7.81901 49.5179 7.81901 49.7749 8.10939C51.317 9.82258 52.2434 11.9944 52.4093 14.2853C52.4419 14.5008 52.4269 14.7207 52.3653 14.9299C52.3036 15.139 52.1968 15.3323 52.0523 15.4964C50.764 16.9287 49.9058 18.6903 49.575 20.5816C49.5435 20.6887 49.5029 20.793 49.4536 20.8932Z" fill="#F49A23"/>
<path d="M48.1613 21.1838C46.8786 20.3609 45.4526 19.7821 43.9563 19.4769C43.7231 19.4162 43.4835 19.3829 43.2424 19.3778C42.2572 19.4769 41.6932 18.9245 41.1577 18.2092C39.9459 16.578 39.221 14.6416 39.0659 12.6211C39.0659 12.2245 39.1516 12.0687 39.5585 12.097C42.0292 12.2152 44.3718 13.2224 46.1481 14.93C46.2162 14.9838 46.2718 15.0514 46.3112 15.1284C46.3506 15.2054 46.3729 15.2899 46.3765 15.3762C46.4486 17.4229 47.1047 19.4073 48.2684 21.0988L48.1613 21.1838Z" fill="#F49A23"/>
<path d="M47.7116 22.5154C45.7018 22.8564 43.8332 23.7636 42.3286 25.1288C42.251 25.2044 42.1579 25.2625 42.0557 25.2992C41.9534 25.3358 41.8444 25.3502 41.7361 25.3414C39.313 25.2781 36.9879 24.3789 35.1608 22.7987C34.8038 22.5013 34.7896 22.3171 35.1608 22.0126C36.9703 20.444 39.2702 19.5434 41.6718 19.4629C41.9343 19.4515 42.1908 19.5431 42.3857 19.7179C43.835 21.0177 45.615 21.8994 47.5331 22.2675C47.6117 22.31 47.6902 22.31 47.7116 22.5154Z" fill="#F49A23"/>
<path d="M50.9814 22.3097C52.8822 22.0967 54.6739 21.3191 56.1216 20.0787C56.3714 19.8455 56.672 19.6724 57.0001 19.5729C57.3282 19.4734 57.675 19.4502 58.0135 19.5051C60.1222 19.7392 62.1117 20.5953 63.7249 21.9627C64.1319 22.2956 64.1462 22.5081 63.7249 22.848C61.91 24.3713 59.6325 25.2467 57.2568 25.334C57.1373 25.3463 57.0165 25.3338 56.9022 25.2972C56.7879 25.2606 56.6825 25.2007 56.5928 25.1215C55.0059 23.7123 53.047 22.7812 50.9457 22.4372C50.95 22.393 50.9621 22.3499 50.9814 22.3097Z" fill="#F49A23"/>
<path d="M50.9814 22.3097C50.9742 22.3519 50.9742 22.3949 50.9814 22.4371C50.5602 23.797 49.9748 24.0803 48.6254 23.5845C48.5428 23.5699 48.4582 23.5699 48.3756 23.5845C48.0472 22.8762 47.7759 22.1255 48.3756 21.3819L48.4612 21.3394C48.7495 21.0912 49.1183 20.9546 49.5 20.9546C49.8817 20.9546 50.2505 21.0912 50.5388 21.3394C50.5622 21.3667 50.5914 21.3884 50.6244 21.4031C50.7315 21.7005 50.8529 22.0051 50.9814 22.3097Z" fill="#207A91"/>
<path d="M48.4398 21.3397L48.3541 21.3822L48.1614 21.1838L48.2685 21.0918L48.4398 21.3397Z" fill="#F49A23"/>
</g>
<defs>
<linearGradient id="paint0_linear_1255_6337" x1="50.396" y1="22.4513" x2="80.5879" y2="22.4513" gradientUnits="userSpaceOnUse">
<stop stop-color="#004254"/>
<stop offset="1" stop-color="#207A91"/>
</linearGradient>
<linearGradient id="paint1_linear_1255_6337" x1="50.396" y1="8.79632" x2="80.5879" y2="8.79632" gradientUnits="userSpaceOnUse">
<stop stop-color="#004254"/>
<stop offset="1" stop-color="#207A91"/>
</linearGradient>
<linearGradient id="paint2_linear_1255_6337" x1="50.3959" y1="6.65041" x2="80.5878" y2="6.65041" gradientUnits="userSpaceOnUse">
<stop stop-color="#004254"/>
<stop offset="1" stop-color="#207A91"/>
</linearGradient>
<linearGradient id="paint3_linear_1255_6337" x1="50.396" y1="35.9576" x2="80.5879" y2="35.9576" gradientUnits="userSpaceOnUse">
<stop stop-color="#004254"/>
<stop offset="1" stop-color="#207A91"/>
</linearGradient>
<linearGradient id="paint4_linear_1255_6337" x1="50.396" y1="38.1035" x2="80.5879" y2="38.1035" gradientUnits="userSpaceOnUse">
<stop stop-color="#004254"/>
<stop offset="1" stop-color="#207A91"/>
</linearGradient>
<linearGradient id="paint5_linear_1255_6337" x1="48.5683" y1="3.52021" x2="18.8262" y2="3.52021" gradientUnits="userSpaceOnUse">
<stop stop-color="#004254"/>
<stop offset="1" stop-color="#207A91"/>
</linearGradient>
<linearGradient id="paint6_linear_1255_6337" x1="48.5683" y1="22.4516" x2="18.8262" y2="22.4516" gradientUnits="userSpaceOnUse">
<stop stop-color="#004254"/>
<stop offset="1" stop-color="#207A91"/>
</linearGradient>
<linearGradient id="paint7_linear_1255_6337" x1="48.5684" y1="11.4808" x2="18.8262" y2="11.4808" gradientUnits="userSpaceOnUse">
<stop stop-color="#004254"/>
<stop offset="1" stop-color="#207A91"/>
</linearGradient>
<linearGradient id="paint8_linear_1255_6337" x1="48.5683" y1="5.22703" x2="18.8262" y2="5.22703" gradientUnits="userSpaceOnUse">
<stop stop-color="#004254"/>
<stop offset="1" stop-color="#207A91"/>
</linearGradient>
<linearGradient id="paint9_linear_1255_6337" x1="48.5683" y1="9.00869" x2="18.8262" y2="9.00869" gradientUnits="userSpaceOnUse">
<stop stop-color="#004254"/>
<stop offset="1" stop-color="#207A91"/>
</linearGradient>
<linearGradient id="paint10_linear_1255_6337" x1="48.5683" y1="41.2343" x2="18.8262" y2="41.2343" gradientUnits="userSpaceOnUse">
<stop stop-color="#004254"/>
<stop offset="1" stop-color="#207A91"/>
</linearGradient>
<linearGradient id="paint11_linear_1255_6337" x1="48.5684" y1="33.2733" x2="18.8262" y2="33.2733" gradientUnits="userSpaceOnUse">
<stop stop-color="#004254"/>
<stop offset="1" stop-color="#207A91"/>
</linearGradient>
<linearGradient id="paint12_linear_1255_6337" x1="48.5683" y1="39.5273" x2="18.8262" y2="39.5273" gradientUnits="userSpaceOnUse">
<stop stop-color="#004254"/>
<stop offset="1" stop-color="#207A91"/>
</linearGradient>
<linearGradient id="paint13_linear_1255_6337" x1="48.5683" y1="35.745" x2="18.8262" y2="35.745" gradientUnits="userSpaceOnUse">
<stop stop-color="#004254"/>
<stop offset="1" stop-color="#207A91"/>
</linearGradient>
<linearGradient id="paint14_linear_1255_6337" x1="253.772" y1="445.629" x2="224.03" y2="445.629" gradientUnits="userSpaceOnUse">
<stop stop-color="#004254"/>
<stop offset="1" stop-color="#207A91"/>
</linearGradient>
<clipPath id="clip0_1255_6337">
<rect width="99" height="62" fill="white"/>
</clipPath>
</defs>
</svg>
