<svg width="69" height="63" viewBox="0 0 69 63" fill="none" xmlns="http://www.w3.org/2000/svg">
<path d="M65.5479 16.6925C64.8776 16.6975 64.2275 16.9284 63.6981 17.3494C63.1688 17.7704 62.7897 18.3582 62.6194 19.0219H41.7539V20.5706H62.6072C62.7459 21.1396 63.0384 21.6571 63.4511 22.0639C63.8638 22.4706 64.38 22.7502 64.9408 22.8706C65.5015 22.991 66.084 22.9474 66.6216 22.7446C67.1593 22.5419 67.6302 22.1883 67.9806 21.7243C68.331 21.2603 68.5466 20.7047 68.6028 20.1211C68.659 19.5375 68.5535 18.9494 68.2984 18.4243C68.0433 17.8993 67.6488 17.4583 67.1602 17.1521C66.6716 16.8458 66.1087 16.6865 65.5357 16.6925H65.5479ZM65.5479 21.3511C65.246 21.3511 64.9509 21.2594 64.6999 21.0876C64.449 20.9158 64.2535 20.6716 64.1382 20.386C64.0229 20.1003 63.9931 19.7861 64.0524 19.4831C64.1118 19.1801 64.2577 18.9019 64.4716 18.6838C64.6855 18.4657 64.9579 18.3175 65.2541 18.258C65.5504 18.1985 65.8573 18.2303 66.1359 18.3494C66.4145 18.4685 66.6523 18.6696 66.8191 18.9272C66.986 19.1847 67.0744 19.4872 67.0732 19.7962C67.0716 20.2092 66.9102 20.6047 66.6243 20.8961C66.3384 21.1875 65.9514 21.3511 65.5479 21.3511Z" fill="url(#paint0_linear_747_17640)"/>
<path d="M54.3647 13.9636H41.7539V15.5061H55.0115L64.3277 5.96405C64.744 6.15804 65.1975 6.25375 65.6548 6.24408C66.112 6.23442 66.5613 6.11966 66.9694 5.90825C67.3775 5.69685 67.7339 5.39421 68.0122 5.02277C68.2906 4.65133 68.4838 4.22058 68.5775 3.76238C68.6713 3.30419 68.6632 2.83028 68.5538 2.37572C68.4445 1.92117 68.2366 1.49761 67.9457 1.13638C67.6548 0.775143 67.2883 0.485502 66.8732 0.288853C66.4582 0.0922039 66.0052 -0.0064094 65.5479 0.000322921C64.9856 0.00947927 64.4366 0.177602 63.9618 0.486098C63.4869 0.794594 63.1046 1.23147 62.8571 1.74843C62.6096 2.26539 62.5066 2.84232 62.5594 3.41546C62.6122 3.9886 62.8188 4.53563 63.1563 4.99613L54.3647 13.9636ZM65.5479 1.56151C65.8496 1.56151 66.1445 1.65307 66.3953 1.82462C66.6461 1.99616 66.8416 2.23998 66.9571 2.52525C67.0725 2.81052 67.1027 3.12443 67.0439 3.42728C66.985 3.73012 66.8398 4.00829 66.6264 4.22662C66.4131 4.44496 66.1414 4.59365 65.8455 4.65389C65.5496 4.71413 65.243 4.68321 64.9643 4.56505C64.6855 4.44688 64.4473 4.24678 64.2797 3.99004C64.1121 3.73331 64.0227 3.43147 64.0227 3.1227C64.0227 2.70865 64.1834 2.31156 64.4694 2.01878C64.7555 1.726 65.1434 1.56151 65.5479 1.56151Z" fill="url(#paint1_linear_747_17640)"/>
<path d="M54.5691 7.2819C55.2044 7.66031 55.9528 7.78857 56.6739 7.64262C57.395 7.49668 58.0393 7.08657 58.4861 6.48915C58.9329 5.89173 59.1515 5.14803 59.1009 4.39744C59.0503 3.64686 58.734 2.94091 58.2113 2.41196C57.6885 1.883 56.9953 1.56735 56.2615 1.52415C55.5276 1.48094 54.8036 1.71316 54.225 2.17728C53.6465 2.64141 53.2532 3.30556 53.1189 4.04526C52.9845 4.78496 53.1184 5.54941 53.4953 6.19532L51.0549 8.69322H38.4258V10.2357H51.6833L54.5691 7.2819ZM56.1005 3.04798C56.4021 3.04798 56.697 3.13954 56.9479 3.31109C57.1987 3.48264 57.3942 3.72645 57.5096 4.01172C57.6251 4.29699 57.6553 4.61091 57.5964 4.91375C57.5376 5.21659 57.3923 5.49476 57.179 5.71309C56.9657 5.93143 56.6939 6.08012 56.398 6.14036C56.1021 6.2006 55.7955 6.16968 55.5168 6.05152C55.2381 5.93335 54.9999 5.73325 54.8323 5.47651C54.6647 5.21978 54.5752 4.91794 54.5752 4.60917C54.5752 4.19941 54.7325 3.80605 55.0133 3.51398C55.2941 3.2219 55.6758 3.05454 56.0761 3.04798H56.1005Z" fill="url(#paint2_linear_747_17640)"/>
<path d="M65.5479 33.2539C65.1415 33.2536 64.7391 33.3364 64.3643 33.4975L55.0175 23.9492H41.7539V25.4979H54.3891L63.1075 34.4466C62.77 34.9071 62.5634 35.4542 62.5106 36.0273C62.4578 36.6005 62.5608 37.1774 62.8083 37.6944C63.0558 38.2113 63.4381 38.6482 63.913 38.9567C64.3878 39.2652 64.9368 39.4333 65.4991 39.4424C65.9253 39.4904 66.3566 39.446 66.7648 39.3119C67.1731 39.1778 67.5491 38.9571 67.8684 38.6643C68.1878 38.3714 68.4432 38.013 68.6181 37.6123C68.7929 37.2116 68.8833 36.7777 68.8833 36.3388C68.8833 35.9 68.7929 35.4661 68.6181 35.0654C68.4432 34.6647 68.1878 34.3062 67.8684 34.0134C67.5491 33.7205 67.1731 33.4998 66.7648 33.3657C66.3566 33.2317 65.9253 33.1872 65.4991 33.2352L65.5479 33.2539ZM65.5479 37.9125C65.2457 37.9137 64.95 37.8231 64.6983 37.652C64.4465 37.4809 64.25 37.2372 64.1338 36.9516C64.0176 36.6661 63.9869 36.3517 64.0456 36.0483C64.1043 35.7449 64.2496 35.4661 64.4633 35.2474C64.677 35.0287 64.9493 34.8799 65.2458 34.8198C65.5422 34.7598 65.8494 34.7912 66.1283 34.9102C66.4073 35.0291 66.6455 35.2302 66.8126 35.4879C66.9797 35.7456 67.0683 36.0482 67.0671 36.3575C67.0655 36.7694 66.9049 37.164 66.6204 37.4552C66.3358 37.7465 65.9503 37.9109 65.5479 37.9125Z" fill="url(#paint3_linear_747_17640)"/>
<path d="M56.0748 31.7489C55.5461 31.7503 55.0268 31.8923 54.5679 32.161L51.6882 29.2197H38.4062V30.7685H51.0354L53.4758 33.2664C53.1293 33.8582 52.9841 34.551 53.0629 35.2362C53.1417 35.9215 53.4401 36.5608 53.9114 37.0541C54.3827 37.5475 55.0004 37.8672 55.668 37.9632C56.3356 38.0592 57.0154 37.9262 57.6013 37.5849C58.1872 37.2436 58.6462 36.7133 58.9065 36.0768C59.1668 35.4403 59.2137 34.7335 59.04 34.0667C58.8663 33.4 58.4818 32.811 57.9464 32.3916C57.4111 31.9723 56.7551 31.7463 56.0809 31.7489H56.0748ZM56.0748 36.4074C55.7726 36.4087 55.4769 36.318 55.2252 36.147C54.9734 35.9759 54.7769 35.7321 54.6607 35.4466C54.5445 35.1611 54.5138 34.8467 54.5725 34.5432C54.6312 34.2398 54.7766 33.961 54.9902 33.7423C55.2039 33.5236 55.4762 33.3748 55.7727 33.3148C56.0691 33.2548 56.3763 33.2862 56.6552 33.4051C56.9342 33.5241 57.1723 33.7251 57.3395 33.9828C57.5066 34.2405 57.5952 34.5432 57.594 34.8525C57.594 35.2649 57.4339 35.6604 57.149 35.952C56.8641 36.2436 56.4777 36.4074 56.0748 36.4074Z" fill="url(#paint4_linear_747_17640)"/>
<path d="M3.07395 1.56148C2.77203 1.56024 2.47654 1.65074 2.22491 1.82154C1.97329 1.99233 1.77683 2.23571 1.66045 2.52087C1.54407 2.80603 1.51299 3.12014 1.57115 3.42339C1.62931 3.72664 1.7741 4.00542 1.98717 4.22438C2.20024 4.44334 2.47199 4.59265 2.76803 4.6534C3.06406 4.71415 3.37105 4.6836 3.65011 4.56562C3.92917 4.44764 4.16776 4.24753 4.33562 3.99066C4.50349 3.73379 4.5931 3.43171 4.5931 3.12267C4.59311 2.70969 4.43325 2.31355 4.14852 2.02095C3.8638 1.72835 3.47742 1.56313 3.07395 1.56148ZM3.07395 0.019043C3.67729 0.019043 4.26706 0.202167 4.76872 0.545258C5.27037 0.888349 5.66137 1.37598 5.89226 1.94652C6.12314 2.51706 6.18356 3.14485 6.06586 3.75053C5.94815 4.35622 5.65761 4.91259 5.23099 5.34927C4.80437 5.78594 4.26081 6.08329 3.66907 6.20376C3.07733 6.32424 2.46398 6.26244 1.90657 6.02611C1.34916 5.78978 0.872737 5.38958 0.537542 4.87611C0.202347 4.36263 0.0234375 3.75897 0.0234375 3.14142C0.0234375 2.31331 0.344819 1.51909 0.916901 0.933535C1.48898 0.347976 2.26491 0.019043 3.07395 0.019043Z" fill="url(#paint5_linear_747_17640)"/>
<path d="M3.05052 18.2349C2.74859 18.2336 2.45311 18.3241 2.20148 18.4949C1.94985 18.6657 1.75341 18.9091 1.63703 19.1942C1.52065 19.4794 1.48957 19.7935 1.54773 20.0968C1.60589 20.4 1.75067 20.6788 1.96373 20.8977C2.1768 21.1167 2.44857 21.266 2.74461 21.3267C3.04064 21.3875 3.34764 21.3569 3.6267 21.239C3.90576 21.121 4.14432 20.9209 4.31219 20.664C4.48006 20.4072 4.56966 20.1051 4.56967 19.796C4.56967 19.3831 4.40983 18.9869 4.1251 18.6943C3.84038 18.4017 3.45398 18.2365 3.05052 18.2349ZM3.05052 16.6924C3.65385 16.6924 4.24364 16.8755 4.7453 17.2186C5.24695 17.5617 5.63795 18.0494 5.86884 18.6199C6.09972 19.1904 6.16012 19.8182 6.04242 20.4239C5.92472 21.0296 5.63417 21.586 5.20755 22.0226C4.78093 22.4593 4.23739 22.7567 3.64565 22.8771C3.05391 22.9976 2.44054 22.9358 1.88313 22.6995C1.32572 22.4632 0.849299 22.063 0.514104 21.5495C0.178909 21.036 0 20.4323 0 19.8148C0 18.9867 0.3214 18.1925 0.893482 17.6069C1.46557 17.0214 2.24147 16.6924 3.05052 16.6924Z" fill="url(#paint6_linear_747_17640)"/>
<path d="M13.5982 15.5118H26.8557V13.9631H14.2205L5.18487 4.7334L4.11719 5.83247L13.5982 15.5118Z" fill="url(#paint7_linear_747_17640)"/>
<path d="M12.5115 3.04736C12.2098 3.04736 11.9149 3.13892 11.6641 3.31046C11.4132 3.48201 11.2177 3.72582 11.1023 4.01109C10.9869 4.29636 10.9566 4.61028 11.0155 4.91312C11.0744 5.21596 11.2196 5.49413 11.4329 5.71247C11.6462 5.9308 11.918 6.0795 12.2139 6.13974C12.5098 6.19998 12.8164 6.16905 13.0951 6.05089C13.3738 5.93273 13.6121 5.73262 13.7797 5.47589C13.9473 5.21915 14.0367 4.91732 14.0367 4.60854C14.0367 4.19449 13.876 3.7974 13.59 3.50462C13.3039 3.21184 12.916 3.04736 12.5115 3.04736ZM12.5115 1.50488C13.1148 1.50488 13.7046 1.68801 14.2062 2.0311C14.7079 2.37419 15.0989 2.86185 15.3298 3.43239C15.5606 4.00293 15.6211 4.63073 15.5034 5.23641C15.3857 5.84209 15.0951 6.39847 14.6685 6.83514C14.2419 7.27182 13.6983 7.56916 13.1066 7.68964C12.5148 7.81012 11.9015 7.74831 11.3441 7.51199C10.7867 7.27566 10.3102 6.87546 9.97504 6.36198C9.63985 5.84851 9.46094 5.24481 9.46094 4.62726C9.46094 3.79915 9.78232 3.00497 10.3544 2.41941C10.9265 1.83385 11.7024 1.50488 12.5115 1.50488Z" fill="url(#paint8_linear_747_17640)"/>
<path d="M16.9256 10.2294H30.1832V8.68066H17.554L14.595 5.6582L13.5273 6.75728L16.9256 10.2294Z" fill="url(#paint9_linear_747_17640)"/>
<path d="M3.07395 34.7963C2.77203 34.7951 2.47654 34.8856 2.22491 35.0564C1.97329 35.2272 1.77683 35.4706 1.66045 35.7558C1.54407 36.0409 1.51299 36.355 1.57115 36.6583C1.62931 36.9615 1.7741 37.2403 1.98717 37.4592C2.20024 37.6782 2.47199 37.8275 2.76803 37.8883C3.06406 37.949 3.37105 37.9185 3.65011 37.8005C3.92917 37.6825 4.16776 37.4824 4.33562 37.2256C4.50349 36.9687 4.5931 36.6666 4.5931 36.3575C4.59311 35.9446 4.43325 35.5484 4.14852 35.2558C3.8638 34.9632 3.47742 34.798 3.07395 34.7963ZM3.07395 33.2539C3.67729 33.2539 4.26706 33.437 4.76872 33.7801C5.27037 34.1232 5.66137 34.6109 5.89226 35.1814C6.12314 35.752 6.18356 36.3798 6.06586 36.9854C5.94815 37.5911 5.65761 38.1475 5.23099 38.5841C4.80437 39.0208 4.26081 39.3182 3.66907 39.4387C3.07733 39.5591 2.46398 39.4973 1.90657 39.261C1.34916 39.0246 0.872737 38.6244 0.537542 38.111C0.202347 37.5975 0.0234375 36.9938 0.0234375 36.3763C0.0234375 35.5482 0.344819 34.754 0.916901 34.1684C1.48898 33.5829 2.26491 33.2539 3.07395 33.2539Z" fill="url(#paint10_linear_747_17640)"/>
<path d="M5.18487 34.7277L14.2205 25.4979H26.8557V23.9492H13.5982L4.11719 33.6286L5.18487 34.7277Z" fill="url(#paint11_linear_747_17640)"/>
<path d="M12.5115 33.2915C12.2098 33.2915 11.9149 33.383 11.6641 33.5546C11.4132 33.7261 11.2177 33.9699 11.1023 34.2552C10.9869 34.5405 10.9566 34.8544 11.0155 35.1572C11.0744 35.4601 11.2196 35.7382 11.4329 35.9566C11.6462 36.1749 11.918 36.3236 12.2139 36.3838C12.5098 36.4441 12.8164 36.4132 13.0951 36.295C13.3738 36.1768 13.6121 35.9767 13.7797 35.72C13.9473 35.4633 14.0367 35.1614 14.0367 34.8526C14.0367 34.4386 13.876 34.0415 13.59 33.7487C13.3039 33.4559 12.916 33.2915 12.5115 33.2915ZM12.5115 31.749C13.1148 31.749 13.7046 31.9321 14.2062 32.2752C14.7079 32.6183 15.0989 33.106 15.3298 33.6765C15.5606 34.247 15.6211 34.8748 15.5034 35.4805C15.3857 36.0862 15.0951 36.6426 14.6685 37.0792C14.2419 37.5159 13.6983 37.8133 13.1066 37.9337C12.5148 38.0542 11.9015 37.9924 11.3441 37.7561C10.7867 37.5198 10.3102 37.1196 9.97504 36.6061C9.63985 36.0926 9.46094 35.4889 9.46094 34.8714C9.46094 34.0433 9.78232 33.2491 10.3544 32.6635C10.9265 32.078 11.7024 31.749 12.5115 31.749Z" fill="url(#paint12_linear_747_17640)"/>
<path d="M14.595 33.8036L17.554 30.7811H30.1832V29.2324H16.9256L13.5273 32.7045L14.595 33.8036Z" fill="url(#paint13_linear_747_17640)"/>
<path d="M26.8315 19.0215H5.78906V20.5702H26.8315V19.0215Z" fill="url(#paint14_linear_747_17640)"/>
<path d="M34.2267 36.7189C43.3782 36.7189 50.7971 29.1253 50.7971 19.7581C50.7971 10.3909 43.3782 2.79736 34.2267 2.79736C25.0751 2.79736 17.6562 10.3909 17.6562 19.7581C17.6562 29.1253 25.0751 36.7189 34.2267 36.7189Z" fill="white"/>
<path d="M40.3871 3.93477C39.7403 4.04093 39.1668 4.09715 38.6055 4.22204C37.1226 4.56261 35.7518 5.29216 34.6277 6.33902C34.3714 6.57632 34.2189 6.62004 33.9383 6.33902C32.4289 4.92905 30.4881 4.09912 28.4473 3.99099C28.3436 3.99099 28.2033 4.0347 28.1728 3.87234C28.1423 3.70997 28.2643 3.73495 28.3314 3.67875C29.9687 2.19081 32.0845 1.37318 34.274 1.3824C36.4635 1.39162 38.5727 2.22701 40.1979 3.72868L40.3871 3.93477Z" fill="#207A91"/>
<path d="M27.6486 4.20286C26.6686 5.32291 25.9526 6.65814 25.5559 8.10583C25.3803 8.7513 25.2799 9.41582 25.257 10.0854C25.257 10.279 25.257 10.4788 24.9824 10.4913C22.7894 10.5678 20.6977 11.4552 19.0949 12.9892C18.7838 8.84272 22.841 4.05924 27.6486 4.20286Z" fill="#207A91"/>
<path d="M40.8633 4.12842C43.0613 4.17713 45.1632 5.05952 46.7617 6.60448C48.3602 8.14944 49.3412 10.2469 49.5145 12.4902C49.5145 12.615 49.6 12.7774 49.4596 12.8586C49.3193 12.9398 49.2278 12.7774 49.1363 12.7025C47.6281 11.3969 45.7456 10.6297 43.7735 10.5168C43.4684 10.5168 43.3098 10.4481 43.2915 10.0734C43.1927 7.95517 42.3824 5.93677 40.9975 4.35947C40.9451 4.28739 40.9001 4.20996 40.8633 4.12842Z" fill="#207A91"/>
<path d="M49.4907 26.54C49.6127 31.1487 45.3664 35.5013 40.9492 35.2827C40.9492 35.0641 41.1201 34.958 41.2299 34.8206C42.449 33.304 43.1649 31.4296 43.2737 29.4688C43.2737 29.1753 43.3042 28.963 43.6886 28.9505C45.7413 28.8751 47.7034 28.0665 49.2344 26.6649C49.3076 26.6337 49.3747 26.5962 49.4907 26.54Z" fill="#207A91"/>
<path d="M27.6684 35.2834C23.3367 35.4832 18.9805 31.3305 19.0476 26.5845C19.2368 26.5283 19.31 26.6969 19.4137 26.7905C20.9202 28.1013 22.8078 28.8653 24.7826 28.9637C25.0144 28.9637 25.2402 28.9637 25.2524 29.2947C25.3361 31.5215 26.1927 33.6449 27.6684 35.2834Z" fill="#207A91"/>
<path d="M28.1914 35.5705C28.8808 35.4519 29.5031 35.3706 30.1132 35.227C31.5555 34.8654 32.8843 34.1349 33.9752 33.1038C34.1643 32.9352 34.2863 32.8353 34.5243 33.0601C36.0451 34.5077 38.0094 35.3706 40.0823 35.5018C40.1372 35.5075 40.1907 35.5223 40.2409 35.5455C40.2409 35.5455 40.2409 35.5767 40.2409 35.5955C37.6724 38.5742 31.7422 39.1925 28.1914 35.5705Z" fill="#207A91"/>
<path d="M34.2558 21.1699C34.4119 21.4422 34.5038 21.7479 34.5242 22.0629C34.8785 23.4515 35.5473 24.7351 36.4766 25.8098C36.5922 25.9312 36.6814 26.0764 36.7382 26.2357C36.7949 26.395 36.8181 26.5648 36.806 26.734C36.707 28.8173 35.9098 30.8021 34.5486 32.3543C34.329 32.6165 34.207 32.5978 33.9934 32.3543C32.6855 30.8612 31.8999 28.9653 31.7605 26.965C31.7411 26.7513 31.7647 26.5358 31.8298 26.3318C31.8948 26.1277 31.9999 25.9395 32.1387 25.7786C33.1942 24.5416 33.8915 23.0277 34.1521 21.4072C34.1722 21.3223 34.2074 21.2419 34.2558 21.1699Z" fill="#F49A23"/>
<path d="M18.8356 13.5269C18.9211 14.8089 19.2354 16.064 19.763 17.23C20.1508 18.0372 20.6433 18.7871 21.2272 19.4594C21.3675 19.6217 21.5079 19.7404 21.2943 19.9714C19.8151 21.5999 18.9501 23.7138 18.8539 25.9352C15.9498 23.4186 15.1872 17.2362 18.8356 13.5269Z" fill="#207A91"/>
<path d="M49.686 25.9908C49.6005 23.7485 48.735 21.6113 47.2456 19.9646C47.0321 19.7211 47.2029 19.6025 47.3371 19.4464C48.457 18.1781 49.2129 16.6178 49.5213 14.9376C49.6006 14.5005 49.6494 14.0509 49.7165 13.5825C52.6023 16.1241 53.3466 22.3439 49.686 25.9908Z" fill="#207A91"/>
<path d="M35.1602 18.8036C36.235 17.2967 36.8487 15.4972 36.9233 13.633C36.9233 13.3082 37.1491 13.1271 37.3626 12.9335C38.867 11.5595 40.785 10.753 42.7986 10.6479C43.1159 10.6479 43.1952 10.7292 43.1769 11.0227C43.0705 13.1613 42.2275 15.1923 40.7975 16.7553C40.7401 16.8318 40.6674 16.8947 40.5843 16.94C40.5012 16.9852 40.4095 17.0117 40.3155 17.0176C38.4754 17.1018 36.7034 17.755 35.2334 18.891C35.2016 18.8693 35.1762 18.8391 35.1602 18.8036Z" fill="#F49A23"/>
<path d="M33.3306 20.7889C32.3133 22.2556 31.725 23.9884 31.6345 25.7847C31.6287 25.9048 31.5985 26.0223 31.546 26.1297C31.4935 26.2372 31.4198 26.3324 31.3295 26.4092C29.813 27.8508 27.8503 28.7017 25.7836 28.8135C25.4298 28.8135 25.3382 28.7323 25.3688 28.3701C25.5027 26.3096 26.3083 24.3547 27.6566 22.8185C27.7508 22.7036 27.8671 22.6099 27.9984 22.5432C28.1296 22.4766 28.2729 22.4385 28.4193 22.4313C30.0153 22.3524 31.5589 21.8228 32.8791 20.9013C33.0099 20.7983 33.1718 20.7453 33.3367 20.7515L33.3306 20.7889Z" fill="#F49A23"/>
<path d="M35.25 20.7642C35.4757 20.8828 35.6588 20.9515 35.8174 21.0576C37.1087 21.9105 38.5961 22.4015 40.1308 22.4815C40.2782 22.4847 40.4231 22.5203 40.5558 22.5861C40.6885 22.6518 40.8057 22.7461 40.8996 22.8624C42.2466 24.3957 43.0485 26.3497 43.1752 28.4077C43.1752 28.7699 43.0959 28.8761 42.7482 28.8511C40.6592 28.7351 38.6785 27.8631 37.1596 26.3907C37.0842 26.3212 37.0237 26.2365 36.9817 26.142C36.9397 26.0474 36.9172 25.945 36.9156 25.8411C36.8823 24.091 36.3125 22.3958 35.2866 20.9952C35.2866 20.9952 35.2683 20.9203 35.25 20.7642Z" fill="#F49A23"/>
<path d="M34.2508 18.4223C34.0884 17.707 33.8847 17.0022 33.6407 16.3116C33.2559 15.3354 32.7112 14.4336 32.03 13.645C31.922 13.5297 31.8394 13.3919 31.7879 13.2411C31.7363 13.0903 31.7169 12.9299 31.731 12.7708C31.8244 10.6897 32.6151 8.70504 33.9701 7.15052C34.1836 6.89449 34.3057 6.89449 34.5253 7.15052C35.8431 8.66107 36.6348 10.576 36.7766 12.5959C36.8045 12.7859 36.7916 12.9799 36.739 13.1643C36.6863 13.3487 36.595 13.5191 36.4715 13.6638C35.3706 14.9267 34.6372 16.4799 34.3545 18.1475C34.3276 18.242 34.2929 18.3339 34.2508 18.4223Z" fill="#F49A23"/>
<path d="M33.1477 18.6784C32.0515 17.9529 30.8329 17.4425 29.5542 17.1735C29.3549 17.1199 29.1501 17.0905 28.9441 17.086C28.1022 17.1734 27.6202 16.6864 27.1626 16.0557C26.127 14.6174 25.5075 12.91 25.375 11.1285C25.375 10.7788 25.4482 10.6415 25.796 10.6664C27.9073 10.7707 29.9092 11.6587 31.4272 13.1643C31.4854 13.2117 31.533 13.2714 31.5667 13.3393C31.6004 13.4072 31.6194 13.4817 31.6225 13.5578C31.6841 15.3624 32.2447 17.112 33.2392 18.6035L33.1477 18.6784Z" fill="#F49A23"/>
<path d="M32.7637 19.8525C31.0461 20.1531 29.4493 20.953 28.1635 22.1568C28.0972 22.2234 28.0177 22.2746 27.9303 22.307C27.8429 22.3393 27.7497 22.352 27.6571 22.3442C25.5864 22.2884 23.5994 21.4956 22.0381 20.1023C21.733 19.84 21.7208 19.6777 22.0381 19.4091C23.5844 18.0261 25.5499 17.232 27.6022 17.161C27.8265 17.1509 28.0457 17.2317 28.2123 17.3858C29.4508 18.5319 30.972 19.3093 32.6112 19.6339C32.6783 19.6714 32.7454 19.6714 32.7637 19.8525Z" fill="#F49A23"/>
<path d="M35.5578 19.6714C37.1822 19.4835 38.7134 18.7979 39.9506 17.7042C40.1641 17.4986 40.4209 17.3459 40.7013 17.2582C40.9817 17.1705 41.278 17.15 41.5674 17.1984C43.3694 17.4049 45.0696 18.1597 46.4482 19.3654C46.7959 19.6589 46.8081 19.8462 46.4482 20.146C44.8972 21.4891 42.9509 22.2609 40.9207 22.3379C40.8186 22.3487 40.7153 22.3377 40.6177 22.3054C40.52 22.2732 40.4299 22.2204 40.3533 22.1505C38.9972 20.908 37.3231 20.087 35.5273 19.7838C35.5311 19.7448 35.5414 19.7067 35.5578 19.6714Z" fill="#F49A23"/>
<path d="M35.5577 19.6714C35.5516 19.7086 35.5516 19.7465 35.5577 19.7838C35.1978 20.9827 34.6975 21.2325 33.5444 20.7954C33.4738 20.7826 33.4015 20.7826 33.3309 20.7954C33.0502 20.1709 32.8184 19.509 33.3309 18.8533L33.4041 18.8158C33.6504 18.597 33.9656 18.4766 34.2918 18.4766C34.618 18.4766 34.9331 18.597 35.1795 18.8158C35.1995 18.8399 35.2245 18.8591 35.2527 18.872C35.3442 19.1343 35.4479 19.4028 35.5577 19.6714Z" fill="#207A91"/>
<path d="M33.3864 18.8157L33.3132 18.8532L33.1484 18.6783L33.2399 18.5972L33.3864 18.8157Z" fill="#F49A23"/>
<path d="M9.54227 61.9339L8.75708 59.5324H3.54718L2.77123 61.9339H0L4.61872 48.5645H7.80563L12.4244 61.9339H9.54227ZM4.3693 57.0645H7.95343L6.16136 51.5995L4.3693 57.0645Z" fill="#F6921E"/>
<path d="M13.6172 48.5645H16.2129V61.9339H13.6357L13.6172 48.5645Z" fill="#F6921E"/>
<path d="M30.3818 48.5645V51.0795H26.8531V61.9339H24.2758V51.0795H20.7656V48.5645H30.3818Z" fill="#207A91"/>
<path d="M33.1068 60.9412C32.6426 60.5206 32.2758 59.9994 32.0329 59.4156C31.7901 58.8317 31.6773 58.1998 31.7027 57.5658V48.5645H34.2615V57.3483C34.2615 58.7477 35.0282 59.627 36.691 59.627C38.3537 59.627 39.1112 58.7477 39.1112 57.3483V48.5645H40.737C41.3559 48.5645 41.4482 48.2147 41.4482 47.534V47.203H43.3881V47.534C43.3881 49.1508 42.9632 49.9545 41.6884 50.1908V57.5658C41.715 58.1991 41.6037 58.8305 41.3625 59.4143C41.1212 59.9981 40.7561 60.5197 40.2936 60.9412C39.2672 61.7616 38.0024 62.2073 36.7002 62.2073C35.398 62.2073 34.1331 61.7616 33.1068 60.9412ZM36.0166 47.515C36.0166 46.4183 36.1829 46.2292 36.6725 45.9833L36.8388 45.8699C36.9069 45.8275 36.9631 45.7677 37.0019 45.6965C37.0408 45.6252 37.0609 45.5449 37.0605 45.4633C37.0605 45.3499 36.9866 45.2364 36.7649 45.2364C36.5971 45.2192 36.4291 45.2669 36.2941 45.3701C36.159 45.4734 36.0666 45.6247 36.0351 45.7942L34.631 45.2553C34.7973 44.8118 35.0974 44.4342 35.4879 44.1774C35.8783 43.9206 36.3386 43.798 36.8018 43.8276C37.8641 43.8276 38.6493 44.3949 38.6493 45.4066C38.6668 45.691 38.6059 45.9746 38.4736 46.2254C38.3414 46.4761 38.143 46.6838 37.9011 46.8248C37.6609 46.9383 37.5316 47.0518 37.587 47.515H36.0166Z" fill="#207A91"/>
<path d="M57.3154 48.5645V51.0795H53.7867V61.9339H51.2094V51.0795H47.6992V48.5645H57.3154Z" fill="#207A91"/>
<path d="M61.3276 59.4186H66.8701V61.9337H58.7227V48.5642H66.713V51.0793H61.2999V53.9158H66.2512V56.393H61.2999L61.3276 59.4186ZM62.6947 46.3423L61.9281 47.5147H59.7018L61.5493 44.9335H63.831L65.6785 47.5147H63.4615L62.6947 46.3423ZM66.2974 43.1748H68.9854L67.0364 45.5953H64.8656L66.2974 43.1748Z" fill="#207A91"/>
<defs>
<linearGradient id="paint0_linear_747_17640" x1="35.055" y1="19.7962" x2="60.8562" y2="19.7962" gradientUnits="userSpaceOnUse">
<stop stop-color="#004254"/>
<stop offset="1" stop-color="#207A91"/>
</linearGradient>
<linearGradient id="paint1_linear_747_17640" x1="35.055" y1="7.75631" x2="60.8562" y2="7.75631" gradientUnits="userSpaceOnUse">
<stop stop-color="#004254"/>
<stop offset="1" stop-color="#207A91"/>
</linearGradient>
<linearGradient id="paint2_linear_747_17640" x1="35.058" y1="5.86437" x2="60.8593" y2="5.86437" gradientUnits="userSpaceOnUse">
<stop stop-color="#004254"/>
<stop offset="1" stop-color="#207A91"/>
</linearGradient>
<linearGradient id="paint3_linear_747_17640" x1="35.055" y1="31.7052" x2="60.8562" y2="31.7052" gradientUnits="userSpaceOnUse">
<stop stop-color="#004254"/>
<stop offset="1" stop-color="#207A91"/>
</linearGradient>
<linearGradient id="paint4_linear_747_17640" x1="35.0568" y1="33.5973" x2="60.858" y2="33.5973" gradientUnits="userSpaceOnUse">
<stop stop-color="#004254"/>
<stop offset="1" stop-color="#207A91"/>
</linearGradient>
<linearGradient id="paint5_linear_747_17640" x1="33.4937" y1="3.10394" x2="8.0768" y2="3.10394" gradientUnits="userSpaceOnUse">
<stop stop-color="#004254"/>
<stop offset="1" stop-color="#207A91"/>
</linearGradient>
<linearGradient id="paint6_linear_747_17640" x1="33.4947" y1="19.796" x2="8.07777" y2="19.796" gradientUnits="userSpaceOnUse">
<stop stop-color="#004254"/>
<stop offset="1" stop-color="#207A91"/>
</linearGradient>
<linearGradient id="paint7_linear_747_17640" x1="33.4937" y1="10.1226" x2="8.07676" y2="10.1226" gradientUnits="userSpaceOnUse">
<stop stop-color="#004254"/>
<stop offset="1" stop-color="#207A91"/>
</linearGradient>
<linearGradient id="paint8_linear_747_17640" x1="33.4929" y1="4.60853" x2="8.076" y2="4.60853" gradientUnits="userSpaceOnUse">
<stop stop-color="#004254"/>
<stop offset="1" stop-color="#207A91"/>
</linearGradient>
<linearGradient id="paint9_linear_747_17640" x1="33.496" y1="7.94378" x2="8.07912" y2="7.94378" gradientUnits="userSpaceOnUse">
<stop stop-color="#004254"/>
<stop offset="1" stop-color="#207A91"/>
</linearGradient>
<linearGradient id="paint10_linear_747_17640" x1="33.4937" y1="36.3575" x2="8.0768" y2="36.3575" gradientUnits="userSpaceOnUse">
<stop stop-color="#004254"/>
<stop offset="1" stop-color="#207A91"/>
</linearGradient>
<linearGradient id="paint11_linear_747_17640" x1="33.4937" y1="29.3384" x2="8.07676" y2="29.3384" gradientUnits="userSpaceOnUse">
<stop stop-color="#004254"/>
<stop offset="1" stop-color="#207A91"/>
</linearGradient>
<linearGradient id="paint12_linear_747_17640" x1="33.4929" y1="34.8527" x2="8.076" y2="34.8527" gradientUnits="userSpaceOnUse">
<stop stop-color="#004254"/>
<stop offset="1" stop-color="#207A91"/>
</linearGradient>
<linearGradient id="paint13_linear_747_17640" x1="33.496" y1="31.518" x2="8.07912" y2="31.518" gradientUnits="userSpaceOnUse">
<stop stop-color="#004254"/>
<stop offset="1" stop-color="#207A91"/>
</linearGradient>
<linearGradient id="paint14_linear_747_17640" x1="208.856" y1="392.92" x2="183.439" y2="392.92" gradientUnits="userSpaceOnUse">
<stop stop-color="#004254"/>
<stop offset="1" stop-color="#207A91"/>
</linearGradient>
</defs>
</svg>