<svg width="41" height="41" viewBox="0 0 41 41" fill="none" xmlns="http://www.w3.org/2000/svg">
<g clip-path="url(#clip0_16_41769)">
<path d="M20.4564 39.4929C30.943 39.4929 39.4441 30.9983 39.4441 20.5197C39.4441 10.041 30.943 1.54639 20.4564 1.54639C9.96982 1.54639 1.46875 10.041 1.46875 20.5197C1.46875 30.9983 9.96982 39.4929 20.4564 39.4929Z" fill="white"/>
<path d="M27.5102 2.85124C26.7327 2.96778 26.1107 3.02994 25.4731 3.16979C23.7726 3.55322 22.2003 4.36956 20.9089 5.53951C20.6134 5.80368 20.4424 5.8503 20.1313 5.53951C18.4062 3.97092 16.1932 3.04359 13.8643 2.91339C13.7477 2.91339 13.5922 2.96778 13.5533 2.78908C13.5144 2.61038 13.6621 2.63369 13.7399 2.56377C15.6155 0.900894 18.0386 -0.0128814 20.546 -0.00284793C23.0534 0.00718557 25.4692 0.940318 27.3314 2.61815L27.5102 2.85124Z" fill="#207A91"/>
<path d="M12.9251 3.12329C11.7995 4.37826 10.9775 5.87483 10.5225 7.49755C10.3166 8.21615 10.1991 8.95713 10.1726 9.70411C10.1726 9.92166 10.1726 10.147 9.86932 10.1625C7.35073 10.2526 4.95019 11.2519 3.11244 12.9751C2.76254 8.29005 7.37339 2.92905 12.9251 3.12329Z" fill="#207A91"/>
<path d="M28.0547 3.0459C30.5687 3.09903 32.9737 4.08161 34.8048 5.80371C36.6359 7.5258 37.7631 9.8651 37.9684 12.3694C37.9684 12.5092 38.0695 12.6957 37.9062 12.7812C37.7429 12.8666 37.6418 12.6957 37.533 12.6025C35.8035 11.1465 33.6481 10.2905 31.3903 10.1628C31.0404 10.1628 30.8616 10.0929 30.8383 9.67334C30.7254 7.30306 29.797 5.0444 28.2102 3.27899C28.1528 3.20513 28.1008 3.12723 28.0547 3.0459Z" fill="#207A91"/>
<path d="M37.9847 28.0869C38.1169 33.2459 33.2572 38.1096 28.2188 37.8999C28.2188 37.6512 28.4131 37.5347 28.5375 37.3871C29.9326 35.6889 30.7497 33.5905 30.8702 31.3967C30.8702 31.0704 30.9091 30.8373 31.3445 30.8218C33.6951 30.7343 35.9417 29.8303 37.697 28.2656C37.7883 28.199 37.8845 28.1392 37.9847 28.0869Z" fill="#207A91"/>
<path d="M12.9382 37.8923C7.9775 38.1176 2.98564 33.4714 3.0634 28.1647C3.27333 28.1026 3.35887 28.2891 3.48328 28.3901C5.20246 29.867 7.36862 30.7235 9.63367 30.822C9.89804 30.822 10.1546 30.8219 10.1702 31.2027C10.2658 33.6908 11.2474 36.0631 12.9382 37.8923Z" fill="#207A91"/>
<path d="M13.5352 38.2107C14.3127 38.0709 15.0436 37.9854 15.7434 37.8223C17.3913 37.4154 18.9102 36.6005 20.1598 35.4525C20.3776 35.2583 20.5175 35.1495 20.7974 35.4059C22.5397 37.0201 24.7865 37.9835 27.1578 38.133C27.2199 38.1365 27.2807 38.1523 27.3366 38.1796C27.3366 38.1796 27.3366 38.1797 27.3755 38.234C24.3975 41.5672 17.6017 42.2587 13.5352 38.2107Z" fill="#207A91"/>
<path d="M20.4876 22.1045C20.6635 22.4113 20.7672 22.754 20.7909 23.1068C21.1983 24.6635 21.9653 26.1031 23.0302 27.3101C23.1634 27.4452 23.2657 27.6075 23.3302 27.7859C23.3946 27.9643 23.4196 28.1545 23.4034 28.3435C23.2934 30.6709 22.3814 32.8888 20.822 34.6213C20.5654 34.9087 20.4332 34.8932 20.1844 34.6213C18.6868 32.9533 17.7869 30.835 17.6263 28.5999C17.6015 28.3603 17.6275 28.1182 17.7025 27.8893C17.7775 27.6604 17.8999 27.4498 18.0617 27.2712C19.2863 25.8835 20.0948 24.179 20.3943 22.3531C20.4157 22.2669 20.447 22.1835 20.4876 22.1045Z" fill="#F49A23"/>
<path d="M2.81427 13.5503C2.91295 14.9867 3.274 16.3928 3.87953 17.6992C4.32322 18.6007 4.88828 19.4372 5.55901 20.1855C5.72229 20.372 5.87781 20.5041 5.63677 20.7604C3.94256 22.5801 2.95289 24.9437 2.84538 27.4268C-0.490293 24.6064 -1.36893 17.6992 2.81427 13.5503Z" fill="#207A91"/>
<path d="M38.1604 27.4966C38.0609 24.9872 37.0683 22.5957 35.3612 20.7526C35.1124 20.4884 35.3068 20.3486 35.4623 20.1776C36.7438 18.758 37.6099 17.0136 37.966 15.1352C38.0593 14.6379 38.1138 14.1407 38.1837 13.6201C41.4961 16.4638 42.3514 23.4176 38.1604 27.4966Z" fill="#207A91"/>
<path d="M21.5234 19.455C22.7548 17.7704 23.4583 15.7587 23.5451 13.6744C23.5665 13.5166 23.6221 13.3653 23.7081 13.2311C23.794 13.0969 23.9082 12.983 24.0427 12.8975C25.7657 11.3646 27.9594 10.4632 30.2631 10.3413C30.6285 10.3413 30.7218 10.4345 30.6985 10.7608C30.574 13.1546 29.6074 15.4275 27.9693 17.1785C27.9029 17.2609 27.8204 17.3289 27.7268 17.3784C27.6332 17.4278 27.5306 17.4576 27.425 17.466C25.3189 17.5543 23.2876 18.2715 21.5934 19.5249C21.5664 19.5056 21.5428 19.482 21.5234 19.455Z" fill="#F49A23"/>
<path d="M19.423 21.6773C18.2515 23.323 17.5769 25.2698 17.4791 27.2869C17.4778 27.4257 17.4457 27.5625 17.3852 27.6874C17.3247 27.8123 17.2373 27.9223 17.1292 28.0095C15.3927 29.6223 13.1442 30.5738 10.7767 30.6978C10.3646 30.6978 10.2713 30.6045 10.3024 30.2005C10.4513 27.8931 11.3745 25.7033 12.9227 23.9849C13.0291 23.8533 13.1627 23.7464 13.3144 23.6713C13.466 23.5962 13.6321 23.5547 13.8013 23.5498C15.6262 23.4579 17.3907 22.8666 18.902 21.8405C19.0512 21.7203 19.2395 21.6595 19.4308 21.6695L19.423 21.6773Z" fill="#F49A23"/>
<path d="M21.6562 21.6538C21.8808 21.7484 22.0989 21.8574 22.3094 21.9801C23.7907 22.9325 25.4955 23.4816 27.2546 23.5729C27.4219 23.5775 27.5863 23.618 27.7366 23.6918C27.8869 23.7655 28.0195 23.8707 28.1254 24.0002C29.676 25.7164 30.5972 27.908 30.738 30.2159C30.738 30.6199 30.6447 30.7364 30.2481 30.7131C27.8563 30.5829 25.5885 29.6082 23.8489 27.9627C23.7602 27.8854 23.6892 27.7898 23.6409 27.6825C23.5926 27.5752 23.5681 27.4588 23.569 27.3411C23.5336 25.3762 22.8778 23.4727 21.6951 21.9024C21.6951 21.9024 21.6562 21.8014 21.6562 21.6538Z" fill="#F49A23"/>
<path d="M20.4802 19.0352C20.299 18.2461 20.0731 17.4679 19.8037 16.7044C19.3648 15.6118 18.7415 14.6027 17.9609 13.7209C17.8367 13.5919 17.7419 13.4377 17.6828 13.2687C17.6238 13.0998 17.6019 12.9201 17.6188 12.7419C17.7266 10.4145 18.6326 8.19502 20.1847 6.45633C20.4335 6.16885 20.5735 6.16885 20.8223 6.45633C22.33 8.14771 23.2373 10.2887 23.4037 12.5477C23.4312 12.7604 23.4143 12.9766 23.3541 13.1825C23.2939 13.3884 23.1917 13.5797 23.0538 13.7442C21.7914 15.1546 20.9508 16.891 20.6279 18.7556C20.5856 18.8523 20.5362 18.9458 20.4802 19.0352Z" fill="#F49A23"/>
<path d="M19.2146 19.3229C17.9608 18.5025 16.5623 17.9277 15.0936 17.6291C14.8683 17.5657 14.6357 17.5318 14.4016 17.5281C13.9869 17.5488 13.5748 17.4518 13.213 17.2483C12.8511 17.0448 12.5542 16.7432 12.3567 16.3782C11.1718 14.7669 10.4633 12.8556 10.3117 10.8618C10.2729 10.4734 10.3895 10.3257 10.7938 10.349C13.211 10.4686 15.5021 11.4628 17.2397 13.1461C17.3062 13.1989 17.3613 13.2647 17.4014 13.3395C17.4415 13.4143 17.4658 13.4966 17.4729 13.5812C17.5384 15.5982 18.1776 17.5548 19.3157 19.2219L19.2146 19.3229Z" fill="#F49A23"/>
<path d="M18.78 20.6283C16.8114 20.9647 14.9813 21.8602 13.5083 23.2078C13.4307 23.2809 13.3388 23.3372 13.2385 23.3733C13.1382 23.4094 13.0315 23.4244 12.9251 23.4176C10.5524 23.3543 8.27586 22.4669 6.48704 20.908C6.13714 20.6128 6.12159 20.4341 6.48704 20.131C8.25984 18.586 10.5119 17.6996 12.8629 17.6215C12.9904 17.6124 13.1184 17.6298 13.2389 17.6726C13.3593 17.7154 13.4696 17.7826 13.5627 17.8701C14.9795 19.1549 16.7225 20.0258 18.6012 20.3875C18.679 20.403 18.7567 20.4341 18.78 20.6283Z" fill="#F49A23"/>
<path d="M21.9731 20.4261C23.8347 20.2211 25.5895 19.4542 27.0038 18.2274C27.2501 17.998 27.5454 17.8277 27.8674 17.7294C28.1894 17.6311 28.5296 17.6074 28.8621 17.6602C30.9367 17.8874 32.8952 18.7319 34.4838 20.0843C34.8726 20.4106 34.8959 20.6204 34.4838 20.9623C32.7074 22.4626 30.4789 23.3243 28.1546 23.4097C28.0383 23.4215 27.9209 23.4089 27.8097 23.3728C27.6986 23.3367 27.5962 23.2778 27.5092 23.1999C25.9568 21.8083 24.0387 20.889 21.9809 20.5505C21.9742 20.5094 21.9716 20.4677 21.9731 20.4261Z" fill="#F49A23"/>
<path d="M21.9735 20.4262C21.9694 20.4676 21.9694 20.5092 21.9735 20.5505C21.5537 21.8869 20.9783 22.1666 19.6409 21.6849C19.5584 21.6731 19.4746 21.6731 19.3921 21.6849C19.0733 20.9623 18.8089 20.2398 19.3921 19.5172L19.4698 19.4706C19.7526 19.2257 20.1142 19.0908 20.4884 19.0908C20.8626 19.0908 21.2243 19.2257 21.507 19.4706C21.5293 19.4954 21.5556 19.5164 21.5848 19.5327L21.9735 20.4262Z" fill="#207A91"/>
<path d="M19.4831 19.4703L19.4053 19.5169L19.2109 19.3149L19.312 19.2217L19.4831 19.4703Z" fill="#F49A23"/>
</g>
<defs>
<clipPath id="clip0_16_41769">
<rect width="41" height="41" fill="white"/>
</clipPath>
</defs>
</svg>
