<svg width="99" height="117" viewBox="0 0 99 117" fill="none" xmlns="http://www.w3.org/2000/svg">
<g clip-path="url(#clip0_1_35012)">
<path d="M49.9337 57.7821C65.1149 57.7821 77.4216 45.4753 77.4216 30.2941C77.4216 15.1129 65.1149 2.80615 49.9337 2.80615C34.7525 2.80615 22.4457 15.1129 22.4457 30.2941C22.4457 45.4753 34.7525 57.7821 49.9337 57.7821Z" fill="white"/>
<path d="M60.143 4.69705C59.0174 4.8659 58.1169 4.95595 57.1938 5.15857C54.7322 5.71407 52.456 6.89676 50.5864 8.59175C50.1586 8.97447 49.911 9.04201 49.4607 8.59175C46.9632 6.31921 43.7595 4.97572 40.3881 4.7871C40.2193 4.7871 39.9941 4.8659 39.9379 4.607C39.8816 4.3481 40.0955 4.38188 40.208 4.28057C42.9233 1.87145 46.4312 0.547594 50.0611 0.56213C53.691 0.576666 57.1882 1.92856 59.8841 4.35936L60.143 4.69705Z" fill="#207A91"/>
<path d="M39.0261 5.09092C37.3967 6.90909 36.2067 9.07728 35.5479 11.4282C35.2499 12.4693 35.0799 13.5428 35.0414 14.625C35.0414 14.9402 35.0414 15.2667 34.6024 15.2892C30.9563 15.4197 27.4811 16.8674 24.8206 19.364C24.3141 12.5764 30.9891 4.80952 39.0261 5.09092Z" fill="#207A91"/>
<path d="M60.931 4.97852C64.5705 5.05549 68.0522 6.47903 70.703 8.97395C73.3539 11.4689 74.9857 14.858 75.2829 18.4861C75.2829 18.6887 75.4292 18.9589 75.1928 19.0827C74.9564 19.2065 74.8101 18.9589 74.6525 18.8238C72.1488 16.7145 69.0285 15.4743 65.76 15.2893C65.2534 15.2893 64.9946 15.188 64.9608 14.5802C64.7973 11.1462 63.4534 7.87388 61.1561 5.31621C61.0731 5.20921 60.9978 5.09635 60.931 4.97852Z" fill="#207A91"/>
<path d="M75.3054 41.2573C75.4968 48.7315 68.4616 55.778 61.1675 55.4741C61.1675 55.1138 61.4489 54.945 61.629 54.7312C63.6486 52.2708 64.8315 49.2308 65.0059 46.0525C65.0059 45.5797 65.0622 45.2421 65.6925 45.2195C69.0955 45.0928 72.3478 43.7831 74.889 41.5162C75.0211 41.4196 75.1604 41.3331 75.3054 41.2573Z" fill="#207A91"/>
<path d="M39.0488 55.4635C31.8673 55.7899 24.6407 49.0586 24.7533 41.3705C25.0572 41.2805 25.181 41.5506 25.3611 41.697C27.8499 43.8367 30.9858 45.0776 34.2649 45.2202C34.6476 45.2202 35.019 45.2202 35.0416 45.7717C35.18 49.3766 36.6011 52.8135 39.0488 55.4635Z" fill="#207A91"/>
<path d="M39.9155 55.9242C41.0412 55.7216 42.0993 55.5978 43.1123 55.3614C45.498 54.772 47.6968 53.5913 49.5059 51.9282C49.8211 51.6468 50.0237 51.4892 50.4289 51.8607C52.9512 54.1993 56.2038 55.5949 59.6366 55.8117C59.7266 55.8167 59.8146 55.8396 59.8955 55.8792C59.8955 55.8792 59.8955 55.8792 59.9518 55.958C55.6406 60.787 45.8026 61.7888 39.9155 55.9242Z" fill="#207A91"/>
<path d="M49.9787 32.5903C50.2333 33.0348 50.3834 33.5314 50.4177 34.0424C51.0076 36.2978 52.1178 38.3834 53.6595 40.1321C53.8523 40.3278 54.0005 40.563 54.0938 40.8214C54.1871 41.0798 54.2232 41.3554 54.1998 41.6292C54.0405 45.0012 52.7202 48.2144 50.4627 50.7243C50.0913 51.1408 49.8999 51.1183 49.5397 50.7243C47.3717 48.3077 46.0689 45.2388 45.8364 42.0007C45.8006 41.6535 45.8382 41.3028 45.9468 40.9712C46.0554 40.6396 46.2325 40.3345 46.4667 40.0758C48.2396 38.0652 49.41 35.5958 49.8436 32.9505C49.8746 32.8257 49.9199 32.7048 49.9787 32.5903Z" fill="#F49A23"/>
<path d="M24.3929 20.1968C24.5357 22.2777 25.0584 24.3149 25.935 26.2077C26.5773 27.5136 27.3954 28.7256 28.3664 29.8097C28.6027 30.0799 28.8279 30.2712 28.4789 30.6427C26.0263 33.279 24.5936 36.7032 24.4379 40.3006C19.6089 36.2146 18.337 26.2077 24.3929 20.1968Z" fill="#207A91"/>
<path d="M75.5643 40.4022C75.4202 36.7667 73.9832 33.302 71.512 30.6317C71.1518 30.249 71.4332 30.0463 71.6583 29.7987C73.5134 27.7419 74.7673 25.2147 75.2828 22.4933C75.4179 21.7729 75.4967 21.0525 75.598 20.2983C80.3932 24.4182 81.6314 34.4926 75.5643 40.4022Z" fill="#207A91"/>
<path d="M51.4758 28.752C53.2584 26.3114 54.2769 23.3969 54.4025 20.3773C54.4335 20.1486 54.514 19.9294 54.6384 19.7349C54.7629 19.5405 54.9282 19.3756 55.1229 19.2517C57.6173 17.0309 60.793 15.7249 64.128 15.5483C64.657 15.5483 64.7921 15.6834 64.7583 16.1562C64.5781 19.6242 63.1788 22.9171 60.8073 25.4539C60.7113 25.5733 60.5918 25.6718 60.4563 25.7435C60.3209 25.8151 60.1722 25.8583 60.0194 25.8704C56.9704 25.9984 54.0298 27.0374 51.5772 28.8533C51.5381 28.8253 51.5038 28.7911 51.4758 28.752Z" fill="#F49A23"/>
<path d="M48.4366 31.9708C46.7407 34.355 45.7641 37.1755 45.6225 40.0979C45.6206 40.299 45.5742 40.4971 45.4866 40.6781C45.399 40.8591 45.2725 41.0185 45.116 41.1447C42.6021 43.4813 39.3469 44.8598 35.9196 45.0394C35.323 45.0394 35.1879 44.9044 35.2329 44.319C35.4486 40.9761 36.785 37.8036 39.0263 35.314C39.1804 35.1234 39.3738 34.9684 39.5934 34.8596C39.8129 34.7508 40.0534 34.6908 40.2983 34.6836C42.9401 34.5505 45.4945 33.6938 47.6824 32.2072C47.8984 32.0332 48.171 31.945 48.4479 31.9596L48.4366 31.9708Z" fill="#F49A23"/>
<path d="M51.6672 31.937C51.9923 32.0741 52.3081 32.232 52.6128 32.4098C54.7573 33.7896 57.2252 34.5851 59.7718 34.7173C60.0141 34.724 60.2521 34.7827 60.4696 34.8896C60.6871 34.9964 60.8791 35.1488 61.0325 35.3364C63.2773 37.8228 64.6108 40.9979 64.8146 44.3415C64.8146 44.9268 64.6796 45.0956 64.1055 45.0619C60.6429 44.8733 57.3598 43.4611 54.8415 41.0772C54.713 40.9652 54.6103 40.8267 54.5404 40.6713C54.4704 40.5158 54.4349 40.3471 54.4363 40.1766C54.3851 37.3299 53.4356 34.5721 51.7235 32.2972C51.7235 32.2972 51.6672 32.1509 51.6672 31.937Z" fill="#F49A23"/>
<path d="M49.9675 28.1438C49.7051 27.0005 49.3782 25.8731 48.9882 24.7669C48.3528 23.184 47.4505 21.722 46.3204 20.4445C46.1406 20.2576 46.0033 20.0342 45.9178 19.7894C45.8324 19.5447 45.8007 19.2843 45.8251 19.0262C45.9811 15.6543 47.2928 12.4388 49.5397 9.91979C49.8999 9.5033 50.1025 9.5033 50.4627 9.91979C52.6454 12.3702 53.9589 15.4721 54.1998 18.7448C54.2397 19.053 54.2152 19.3662 54.128 19.6645C54.0408 19.9628 53.8928 20.2399 53.6933 20.4782C51.8657 22.5216 50.6488 25.0373 50.1813 27.7386C50.1201 27.8787 50.0486 28.0141 49.9675 28.1438Z" fill="#F49A23"/>
<path d="M48.1326 28.5607C46.3174 27.3721 44.2929 26.5393 42.1667 26.1068C41.8405 26.0149 41.5038 25.9657 41.1649 25.9605C40.5646 25.9904 39.968 25.8498 39.4441 25.555C38.9203 25.2602 38.4905 24.8232 38.2045 24.2945C36.4892 21.96 35.4635 19.191 35.2441 16.3025C35.1878 15.7397 35.3567 15.5258 35.942 15.5596C39.4413 15.7328 42.758 17.1731 45.2735 19.6119C45.3698 19.6883 45.4495 19.7837 45.5076 19.8921C45.5657 20.0005 45.6009 20.1197 45.6112 20.2422C45.706 23.1644 46.6314 25.9991 48.2789 28.4143L48.1326 28.5607Z" fill="#F49A23"/>
<path d="M47.5024 30.4519C44.6525 30.9392 42.0031 32.2366 39.8706 34.189C39.7583 34.2948 39.6253 34.3764 39.4801 34.4287C39.3349 34.481 39.1804 34.5028 39.0264 34.4929C35.5914 34.4013 32.2958 33.1156 29.7061 30.8571C29.1996 30.4294 29.1771 30.1705 29.7061 29.7315C32.2726 27.4931 35.5328 26.2089 38.9363 26.0957C39.1209 26.0825 39.3063 26.1077 39.4806 26.1697C39.655 26.2317 39.8146 26.3291 39.9494 26.4559C42.0005 28.3173 44.5238 29.579 47.2435 30.1029C47.3561 30.1255 47.4686 30.1705 47.5024 30.4519Z" fill="#F49A23"/>
<path d="M52.1287 30.1587C54.8236 29.8617 57.3641 28.7505 59.4115 26.9732C59.7681 26.6409 60.1956 26.3941 60.6618 26.2517C61.1279 26.1094 61.6204 26.0751 62.1018 26.1515C65.1051 26.4806 67.9403 27.7041 70.2401 29.6634C70.8029 30.1362 70.8367 30.4401 70.2401 30.9354C67.6685 33.1091 64.4423 34.3575 61.0774 34.4812C60.9091 34.4983 60.7391 34.4801 60.5782 34.4278C60.4174 34.3754 60.2692 34.2901 60.1432 34.1772C57.8958 32.1611 55.119 30.8293 52.1399 30.3388C52.1302 30.2793 52.1265 30.219 52.1287 30.1587Z" fill="#F49A23"/>
<path d="M52.1287 30.1588C52.1228 30.2187 52.1228 30.279 52.1287 30.3389C51.5209 32.275 50.6879 32.6802 48.7518 31.9823C48.6324 31.9652 48.5111 31.9652 48.3916 31.9823C47.9301 30.9355 47.5474 29.8887 48.3916 28.8418L48.5042 28.7743C48.9135 28.4195 49.437 28.2241 49.9787 28.2241C50.5205 28.2241 51.044 28.4195 51.4533 28.7743C51.4856 28.8103 51.5237 28.8407 51.5659 28.8643L52.1287 30.1588Z" fill="#207A91"/>
<path d="M48.5267 28.7748L48.4141 28.8423L48.1327 28.5496L48.279 28.4146L48.5267 28.7748Z" fill="#F49A23"/>
<path d="M13.4518 73.4954V67.8672C13.4208 67.3724 13.4973 66.8767 13.676 66.4142C13.8548 65.9518 14.1316 65.5335 14.4874 65.1882C15.219 64.5651 16.1619 64.2468 17.1214 64.299C18.0905 64.2553 19.04 64.5812 19.7779 65.2108C20.1298 65.5533 20.4027 65.9684 20.5776 66.4272C20.7526 66.886 20.8254 67.3774 20.791 67.8672V68.9929H17.8981V67.5971C17.9034 67.3576 17.873 67.1186 17.8081 66.8879C17.7438 66.7516 17.6391 66.6385 17.5081 66.5639C17.3772 66.4894 17.2264 66.4571 17.0764 66.4715C16.9299 66.4615 16.7837 66.4946 16.6557 66.5666C16.5278 66.6386 16.4236 66.7463 16.356 66.8767C16.2861 67.1103 16.252 67.3532 16.2547 67.5971V73.7093C16.2395 74.0101 16.3056 74.3095 16.446 74.576C16.519 74.6715 16.6153 74.7465 16.7258 74.7939C16.8362 74.8412 16.9569 74.8592 17.0764 74.8462C17.2255 74.8556 17.3739 74.8184 17.501 74.7397C17.628 74.6611 17.7275 74.5448 17.7855 74.4072C17.8639 74.183 17.902 73.9467 17.8981 73.7093V71.897H20.746V73.4616C20.7708 73.9401 20.6955 74.4185 20.5249 74.8662C20.3544 75.314 20.0923 75.7212 19.7554 76.0618C19.0068 76.6914 18.0601 77.0365 17.082 77.0365C16.1039 77.0365 15.1572 76.6914 14.4086 76.0618C14.0683 75.7208 13.8033 75.3122 13.6307 74.8624C13.4582 74.4126 13.3819 73.9315 13.4068 73.4504" fill="#207A91"/>
<path d="M22.0518 67.8673C22.0181 67.3688 22.0933 66.869 22.2722 66.4025C22.451 65.936 22.7291 65.514 23.0873 65.1658C23.85 64.5923 24.7783 64.2822 25.7326 64.2822C26.6868 64.2822 27.6152 64.5923 28.3778 65.1658C28.7332 65.5085 29.0091 65.925 29.1861 66.386C29.3631 66.8469 29.4368 67.341 29.4021 67.8335V73.4617C29.4249 73.94 29.3487 74.4177 29.1782 74.8652C29.0078 75.3126 28.7468 75.72 28.4116 76.0619C27.6603 76.6902 26.712 77.0345 25.7326 77.0345C24.7531 77.0345 23.8049 76.6902 23.0536 76.0619C22.7132 75.7209 22.4482 75.3123 22.2757 74.8625C22.1031 74.4126 22.0268 73.9316 22.0518 73.4504V67.8673ZM23.425 63.7475L24.7082 61.6538H26.9032L28.0289 63.7475H26.4192L25.7438 62.6218L24.9671 63.7475H23.425ZM24.4268 78.0655H27.0833V79.8891H24.4268V78.0655ZM24.8996 73.7431C24.8806 74.0479 24.9469 74.3519 25.091 74.6211C25.1659 74.7137 25.2628 74.786 25.373 74.8312C25.4832 74.8765 25.603 74.8933 25.7213 74.88C25.8705 74.8894 26.0188 74.8522 26.1459 74.7736C26.2729 74.6949 26.3724 74.5787 26.4305 74.441C26.5034 74.2155 26.5414 73.9801 26.543 73.7431V67.6197C26.5483 67.3801 26.5179 67.1411 26.453 66.9105C26.3888 66.7742 26.284 66.661 26.1531 66.5865C26.0221 66.512 25.8713 66.4796 25.7213 66.494C25.5746 66.4826 25.4278 66.5151 25.2996 66.5872C25.1713 66.6594 25.0674 66.768 25.0009 66.8993C24.9304 67.1328 24.8962 67.3757 24.8996 67.6197V73.7431Z" fill="#207A91"/>
<path d="M30.6401 76.8726V64.5132H33.7581L36.0432 71.796L36.0769 64.5132H38.8348V76.8726H35.7393L33.4317 69.2296L33.3979 76.8726H30.6401Z" fill="#207A91"/>
<path d="M40.0956 73.4959V67.8677C40.0646 67.3729 40.1411 66.8772 40.3198 66.4147C40.4986 65.9522 40.7754 65.534 41.1312 65.1887C41.877 64.5803 42.8281 64.2821 43.7877 64.3557C44.6851 64.3022 45.5772 64.5263 46.3429 64.9974C46.7197 65.2649 47.0212 65.6251 47.2184 66.0431C47.4155 66.461 47.5017 66.9227 47.4685 67.3837V68.757H44.767V67.53C44.767 66.8772 44.4631 66.5507 43.8665 66.5507C43.719 66.5512 43.5741 66.5897 43.4459 66.6627C43.3177 66.7357 43.2106 66.8406 43.1349 66.9672C43.0322 67.1896 42.9784 67.4314 42.9773 67.6764V73.7886C42.9621 74.0894 43.0282 74.3888 43.1686 74.6553C43.2423 74.7499 43.3387 74.8244 43.449 74.8716C43.5592 74.9189 43.6797 74.9374 43.799 74.9255C43.9243 74.9406 44.0515 74.9267 44.1706 74.8847C44.2897 74.8428 44.3975 74.7739 44.4857 74.6836C44.5739 74.5932 44.6401 74.4838 44.6791 74.3637C44.7181 74.2436 44.729 74.1161 44.7108 73.9912V72.404H43.7089V70.1527H47.4685V76.9065H44.9134V75.9047C44.6811 76.2894 44.3494 76.6042 43.9532 76.8162C43.557 77.0281 43.111 77.1293 42.6621 77.1092C42.2484 77.1292 41.8372 77.0347 41.4738 76.8361C41.1104 76.6375 40.8088 76.3425 40.6022 75.9835C40.1938 75.2165 40.003 74.3523 40.0506 73.4846" fill="#207A91"/>
<path d="M52.5338 71.2112H51.9485V69.2863H52.5338V64.4911H56.7775C57.2318 64.4473 57.6902 64.5099 58.1161 64.674C58.5421 64.8381 58.9239 65.0993 59.2313 65.4367C59.7178 66.1287 59.9486 66.9683 59.8842 67.8118V73.6988C59.9138 74.1526 59.84 74.6072 59.6685 75.0284C59.4969 75.4495 59.232 75.8263 58.8937 76.1302C58.3043 76.6308 57.5504 76.8954 56.7775 76.8731H52.5338V71.2112ZM55.3817 69.2863H56.2484V71.2112H55.3817V74.7682H55.8995C56.1946 74.7881 56.4858 74.6911 56.7099 74.498C56.81 74.4241 56.8909 74.3273 56.9457 74.2156C57.0006 74.104 57.0278 73.9808 57.0251 73.8564V67.6542C57.0251 66.9563 56.6199 66.5961 55.8319 66.5961H55.3817V69.2863Z" fill="#207A91"/>
<path d="M61.1338 67.8678C61.0971 67.3707 61.171 66.8717 61.3501 66.4066C61.5291 65.9415 61.8089 65.5218 62.1693 65.1775C62.9031 64.5595 63.8455 64.2454 64.8033 64.2996C65.771 64.2516 66.7208 64.5735 67.4598 65.2C67.8152 65.5428 68.0911 65.9593 68.2681 66.4202C68.4451 66.8811 68.5188 67.3753 68.4841 67.8678V73.496C68.5042 73.9739 68.4267 74.451 68.2564 74.898C68.0861 75.345 67.8266 75.7527 67.4936 76.0962C66.7423 76.7245 65.794 77.0687 64.8146 77.0687C63.8351 77.0687 62.8869 76.7245 62.1356 76.0962C61.7917 75.7577 61.5244 75.3495 61.3516 74.8991C61.1788 74.4486 61.1045 73.9663 61.1338 73.4847V67.8678ZM62.507 63.748L63.7902 61.6543H65.974L67.0996 63.748H65.49L64.8146 62.6223L64.0379 63.748H62.507ZM63.9816 73.7436C63.9626 74.0484 64.0288 74.3524 64.1729 74.6216C64.2478 74.7142 64.3448 74.7865 64.455 74.8317C64.5652 74.877 64.685 74.8938 64.8033 74.8805C64.9525 74.8899 65.1008 74.8527 65.2279 74.7741C65.3549 74.6954 65.4544 74.5792 65.5125 74.4415C65.5816 74.2154 65.6158 73.98 65.6138 73.7436V67.6202C65.6247 67.3804 65.5942 67.1405 65.5237 66.911C65.4628 66.7745 65.3604 66.6608 65.231 66.586C65.1017 66.5112 64.952 66.4792 64.8033 66.4945C64.6564 66.4816 64.509 66.5133 64.3804 66.5857C64.2518 66.658 64.1482 66.7675 64.0829 66.8998C64.0123 67.1333 63.9782 67.3762 63.9816 67.6202V73.7436ZM67.2347 59.9546L67.8425 61.8456H66.5593L65.0397 59.9546H67.2347Z" fill="#207A91"/>
<path d="M69.7223 76.8726V64.5132H72.8403L75.1253 71.796L75.1591 64.5132H77.9169V76.8726H74.8214L72.5139 69.2296L72.4801 76.8726H69.7223Z" fill="#207A91"/>
<path d="M79.1775 73.4962V67.868C79.1465 67.3732 79.2229 66.8775 79.4017 66.415C79.5805 65.9525 79.8573 65.5343 80.2131 65.189C80.9446 64.5659 81.8876 64.2476 82.8471 64.2998C83.7445 64.2463 84.6366 64.4702 85.4023 64.9413C85.7791 65.2089 86.0806 65.5691 86.2777 65.987C86.4749 66.405 86.5611 66.8668 86.5279 67.3277V68.701H83.8151V67.474C83.8151 66.8212 83.5225 66.4947 82.9259 66.4947C82.7784 66.4952 82.6335 66.5338 82.5053 66.6067C82.3771 66.6797 82.2699 66.7846 82.1942 66.9112C82.0915 67.1336 82.0378 67.3754 82.0366 67.6204V73.7325C82.0214 74.0334 82.0875 74.3328 82.228 74.5993C82.3016 74.694 82.3981 74.7684 82.5083 74.8156C82.6186 74.8629 82.739 74.8814 82.8583 74.8694C82.9837 74.8846 83.1109 74.8707 83.23 74.8287C83.349 74.7868 83.4569 74.7179 83.5451 74.6276C83.6332 74.5372 83.6994 74.4277 83.7385 74.3077C83.7775 74.1876 83.7883 74.0601 83.7701 73.9352V72.348H82.7683V70.0968H86.5617V76.8506H84.0628V75.8487C83.8305 76.2334 83.4988 76.5482 83.1026 76.7602C82.7064 76.9722 82.2604 77.0734 81.8115 77.0532C81.3978 77.0732 80.9866 76.9787 80.6232 76.7801C80.2598 76.5815 79.9582 76.2865 79.7516 75.9275C79.3432 75.1605 79.1524 74.2963 79.2 73.4286" fill="#207A91"/>
<path d="M1.01368 96.2897H4.70576V97.5167C4.67966 97.927 4.75709 98.3372 4.9309 98.7098C5.04079 98.8875 5.19795 99.0311 5.38482 99.1246C5.57169 99.218 5.78091 99.2576 5.989 99.2389C6.17058 99.2443 6.3513 99.2121 6.51983 99.1443C6.68836 99.0765 6.84106 98.9746 6.96829 98.8449C7.19348 98.5992 7.31803 98.2777 7.31724 97.9444C7.2596 97.4923 7.10631 97.0578 6.86757 96.6696C6.62884 96.2814 6.31013 95.9485 5.93269 95.6931L4.28928 94.4662C3.55208 93.8843 2.84571 93.2644 2.17308 92.6089C1.86868 92.2165 1.62579 91.78 1.45269 91.3144C1.30161 90.8144 1.22572 90.2947 1.22755 89.7723C1.17772 89.1345 1.2644 88.4934 1.48179 87.8917C1.69918 87.29 2.04227 86.7415 2.48826 86.2829C3.50298 85.4649 4.79038 85.0626 6.0903 85.1572C7.38357 85.0604 8.66473 85.4632 9.66981 86.2829C10.0735 86.6796 10.3878 87.158 10.5916 87.686C10.7955 88.214 10.8841 88.7795 10.8517 89.3446V90.8417H7.2947V89.9524C7.31291 89.5348 7.24788 89.1177 7.10336 88.7255C7.01489 88.535 6.87063 88.376 6.6897 88.2695C6.50877 88.1629 6.29973 88.1139 6.0903 88.1289C5.74866 88.1119 5.41253 88.2199 5.14477 88.4328C5.02183 88.554 4.92609 88.7001 4.86398 88.8612C4.80187 89.0222 4.77481 89.1947 4.78456 89.3671C4.78456 89.8849 5.27984 90.549 6.25914 91.3594L7.95886 92.6652C8.89061 93.4167 9.743 94.2616 10.5028 95.1866C10.9522 96.0707 11.1691 97.0546 11.1331 98.0457C11.1287 99.0627 10.7244 100.037 10.0075 100.758C9.47461 101.285 8.83552 101.692 8.13285 101.952C7.43017 102.212 6.6801 102.32 5.93269 102.267C5.22293 102.318 4.51042 102.219 3.8414 101.976C3.17238 101.734 2.56182 101.353 2.04928 100.86C1.70372 100.495 1.43417 100.066 1.25637 99.5963C1.07857 99.1267 0.996068 98.6264 1.01368 98.1245V96.2897Z" fill="#207A91"/>
<path d="M12.6303 89.8511C12.588 89.1848 12.6898 88.5171 12.9287 87.8936C13.1676 87.2701 13.5381 86.7054 14.0148 86.2379C15.0088 85.4302 16.2713 85.0282 17.5493 85.1122C18.8444 85.0511 20.1148 85.4813 21.1063 86.3167C21.5845 86.7755 21.9556 87.3342 22.193 87.9529C22.4303 88.5717 22.5282 89.2352 22.4796 89.8962V97.4267C22.5085 98.0665 22.4054 98.7055 22.1769 99.3038C21.9484 99.9022 21.5994 100.447 21.1513 100.905C20.1426 101.738 18.8748 102.194 17.5662 102.194C16.2575 102.194 14.9898 101.738 13.981 100.905C13.5227 100.449 13.1656 99.9015 12.9328 99.2984C12.7001 98.6952 12.597 98.0498 12.6303 97.4041V89.8511ZM14.4763 84.3355L16.1985 81.5214H19.1139L20.611 84.3355H18.4611L17.5493 82.7597L16.5025 84.3355H14.4763ZM16.4462 97.7193C16.4332 98.1094 16.5183 98.4964 16.6938 98.845C16.7955 98.9711 16.9269 99.07 17.0762 99.1328C17.2255 99.1957 17.388 99.2205 17.5493 99.2051C17.7493 99.2157 17.9477 99.1655 18.1185 99.061C18.2893 98.9565 18.4245 98.8027 18.5061 98.6198C18.5974 98.3169 18.643 98.0019 18.6412 97.6855V89.4797C18.6505 89.1599 18.6087 88.8407 18.5173 88.5342C18.4355 88.3506 18.298 88.1974 18.1242 88.0963C17.9505 87.9953 17.7493 87.9516 17.5493 87.9713C17.3539 87.9538 17.1577 87.9961 16.9868 88.0926C16.816 88.1891 16.6784 88.3352 16.5925 88.5116C16.4895 88.8237 16.44 89.1511 16.4462 89.4797V97.7193ZM20.5773 78.9888H23.5264L21.5453 81.4989H19.7443L20.5773 78.9888Z" fill="#207A91"/>
<path d="M24.1454 101.907V85.3491H28.3102L31.372 95.1084L31.417 85.3491H35.1091V101.907H30.9555L27.8712 91.6752L27.8375 101.907H24.1454Z" fill="#207A91"/>
<path d="M36.7975 97.3817V89.8738C36.7539 89.2089 36.8551 88.5426 37.0941 87.9207C37.3331 87.2988 37.7043 86.7362 38.182 86.2717C39.1666 85.4408 40.4297 85.0144 41.7165 85.0785C42.9021 85.0221 44.0777 85.3199 45.0934 85.934C45.5935 86.2982 45.9925 86.7839 46.2525 87.3453C46.5125 87.9067 46.625 88.5251 46.5792 89.1421V90.9769H42.9997V89.3334C42.9997 88.4667 42.5945 88.0277 41.7953 88.0277C41.5999 88.0277 41.408 88.0786 41.2382 88.1753C41.0685 88.272 40.9269 88.4112 40.8272 88.5793C40.6865 88.8786 40.6135 89.2053 40.6134 89.536V97.7194C40.5968 98.1098 40.6822 98.4977 40.861 98.8451C40.9627 98.9712 41.0941 99.0701 41.2434 99.1329C41.3927 99.1958 41.5552 99.2206 41.7165 99.2052C41.8827 99.2197 42.05 99.197 42.2064 99.1388C42.3628 99.0806 42.5043 98.9884 42.6206 98.8688C42.737 98.7492 42.8253 98.6053 42.8791 98.4474C42.933 98.2895 42.9511 98.1216 42.9322 97.9558V95.8734H41.5364V92.8116H46.5792V101.929H43.2023V100.579C42.8911 101.086 42.4513 101.502 41.9274 101.785C41.4036 102.067 40.8143 102.207 40.2194 102.188C39.6714 102.216 39.1259 102.097 38.6391 101.844C38.1524 101.591 37.742 101.212 37.4503 100.747C36.9055 99.7086 36.6526 98.5415 36.7187 97.3704" fill="#207A91"/>
<path d="M52.8154 88.5459V85.3491H61.5729V88.5459H59.0965V101.907H55.2918V88.5459H52.8154Z" fill="#207A91"/>
<path d="M71.9284 83.4921H74.7425V86.2386L73.4143 87.6344H72.4912V97.3824C72.5216 98.0215 72.4204 98.6599 72.1938 99.2583C71.9673 99.8566 71.6202 100.402 71.1742 100.861C70.1654 101.694 68.8977 102.15 67.5891 102.15C66.2804 102.15 65.0127 101.694 64.0039 100.861C63.5456 100.405 63.1885 99.8573 62.9557 99.2541C62.723 98.651 62.6199 98.0056 62.6532 97.3599V85.3269H66.4691V97.4274C66.4497 97.8536 66.503 98.2799 66.6267 98.6882C66.728 98.9696 67.0432 99.1046 67.5722 99.1046C67.726 99.11 67.8793 99.0839 68.0225 99.0277C68.1658 98.9716 68.296 98.8866 68.4052 98.7782C68.6247 98.364 68.715 97.8935 68.6641 97.4274V85.3269H71.9622L71.9284 83.4921ZM66.8518 84.4601C66.8829 84.0203 67.0221 83.5951 67.257 83.222L68.0562 82.2314C68.3341 81.9708 68.5097 81.6195 68.5515 81.2408C68.5589 81.0444 68.5243 80.8487 68.4502 80.6667C68.4077 80.5866 68.342 80.5211 68.2616 80.4789C68.1813 80.4367 68.0901 80.4198 68 80.4304C67.9107 80.432 67.8233 80.4567 67.7464 80.5021C67.6695 80.5474 67.6056 80.6119 67.5609 80.6893C67.483 80.8983 67.4411 81.1191 67.4371 81.3421V81.9162H65.9063V81.2408C65.898 80.9792 65.9449 80.7187 66.0438 80.4763C66.1427 80.2339 66.2914 80.015 66.4803 79.8338C66.6924 79.6399 66.941 79.4903 67.2116 79.3937C67.4822 79.297 67.7693 79.2553 68.0562 79.271C68.6402 79.2372 69.2186 79.3997 69.6996 79.7325C69.8957 79.9192 70.047 80.1478 70.1425 80.4011C70.238 80.6545 70.2752 80.9261 70.2512 81.1958C70.2448 81.7035 70.0617 82.193 69.7334 82.5803L68.7429 83.6384C68.5438 83.8975 68.3949 84.1914 68.3039 84.5052L66.8518 84.4601Z" fill="#207A91"/>
<path d="M78.6599 88.5459V85.3491H87.4174V88.5459H84.9522V101.907H81.1363V88.5459H78.6599Z" fill="#207A91"/>
<path d="M88.4867 85.3262H96.9627V88.523H92.3026V91.8324H96.3887V95.0291H92.3026V98.71H97.1428V101.907H88.4867V85.3262ZM89.7474 84.3356L91.4696 81.5215H94.4413L95.9272 84.3356H93.7772L92.8654 82.7597L91.8298 84.3356H89.7474ZM96.096 79.5854H99.0001L97.0078 82.0956H95.2293L96.096 79.5854Z" fill="#207A91"/>
<path d="M16.3334 107.332L16.6824 110.112C16.7725 110.81 16.8513 111.463 16.9075 112.06C17.0201 111.463 17.1439 110.743 17.2677 110.135L17.8306 107.332H19.1701L19.7216 110.079C19.8567 110.799 19.9693 111.429 20.0481 112.06C20.0898 111.4 20.1649 110.742 20.2732 110.09L20.6671 107.332H22.4006L20.7347 113.782H19.2714L18.7874 111.531C18.6387 110.866 18.5297 110.193 18.4609 109.516C18.3829 110.202 18.2588 110.883 18.0895 111.553L17.5379 113.804H16.0633L14.4874 107.355L16.3334 107.332Z" fill="#207A91"/>
<path d="M26.1379 107.332L26.4755 110.112C26.5656 110.81 26.6444 111.463 26.7007 112.06C26.802 111.463 26.9371 110.743 27.0496 110.135L27.6237 107.332H28.9519L29.5035 110.079C29.6386 110.799 29.7511 111.429 29.8299 112.06C29.8717 111.4 29.9468 110.742 30.055 110.09L30.449 107.332H32.1487L30.4828 113.782H29.1545L28.6705 111.531C28.5219 110.866 28.4128 110.193 28.3441 109.516C28.2695 110.202 28.1492 110.883 27.9839 111.553L27.4323 113.804H25.9465L24.3706 107.355L26.1379 107.332Z" fill="#207A91"/>
<path d="M35.9082 107.332L36.2459 110.112C36.336 110.81 36.426 111.463 36.4711 112.06C36.5724 111.463 36.7075 110.743 36.8313 110.135L37.3941 107.332H38.7223L39.2739 110.079C39.409 110.799 39.5328 111.429 39.6116 112.06C39.6116 111.463 39.7354 110.788 39.8367 110.09L40.2307 107.332H41.9304L40.4108 113.782H38.9475L38.4522 111.531C38.309 110.865 38.2 110.193 38.1257 109.516C38.0478 110.202 37.9237 110.883 37.7543 111.553L37.2027 113.804H35.7281L34.141 107.355L35.9082 107.332Z" fill="#207A91"/>
<path d="M43.5513 112.758C43.5498 112.478 43.6529 112.207 43.8402 111.999C44.0275 111.791 44.2857 111.66 44.5643 111.632C44.7054 111.636 44.8441 111.669 44.972 111.729C45.0999 111.788 45.2143 111.874 45.3081 111.979C45.4019 112.084 45.4732 112.208 45.5175 112.342C45.5619 112.476 45.5784 112.617 45.5661 112.758C45.5802 112.9 45.5646 113.043 45.5202 113.178C45.4757 113.314 45.4036 113.439 45.3082 113.545C45.2128 113.65 45.0964 113.735 44.9664 113.794C44.8364 113.852 44.6956 113.883 44.553 113.884C44.4125 113.878 44.2746 113.844 44.1474 113.784C44.0203 113.724 43.9066 113.639 43.813 113.534C43.7195 113.428 43.6482 113.306 43.6032 113.172C43.5582 113.039 43.5406 112.898 43.5513 112.758Z" fill="#207A91"/>
<path d="M52.6689 107.332C52.6689 107.917 52.6126 108.593 52.6126 109.381V113.05C52.6766 113.524 52.6395 114.005 52.5037 114.463C52.3678 114.921 52.1364 115.345 51.8247 115.707C51.5396 115.957 51.2078 116.148 50.8485 116.27C50.4892 116.392 50.1095 116.441 49.731 116.416C49.1794 116.425 48.6317 116.321 48.1214 116.112L48.4365 114.784C48.8294 114.961 49.2551 115.053 49.686 115.054C50.5527 115.054 50.8904 114.48 50.8904 113.489V113.095C50.7748 113.291 50.6102 113.453 50.4128 113.565C50.2154 113.678 49.992 113.737 49.7648 113.737C48.3127 113.737 47.7499 112.161 47.7499 110.619C47.7499 108.469 48.7179 107.242 49.9224 107.242C50.1704 107.237 50.4144 107.305 50.6244 107.437C50.8343 107.569 51.0012 107.759 51.1043 107.985L51.1943 107.343L52.6689 107.332ZM50.8904 109.673C50.8904 109.514 50.8715 109.355 50.8341 109.201C50.81 109.064 50.7419 108.94 50.6402 108.847C50.5385 108.753 50.4089 108.695 50.2713 108.683C49.6522 108.683 49.4046 109.516 49.4046 110.574C49.4046 111.632 49.7423 112.386 50.2376 112.386C50.3706 112.383 50.4987 112.336 50.6024 112.252C50.7061 112.169 50.7796 112.054 50.8116 111.925C50.8668 111.758 50.8934 111.583 50.8904 111.407V109.673Z" fill="#207A91"/>
<path d="M55.1229 109.268C55.1229 108.559 55.1229 107.94 55.1229 107.332H56.6088L56.6875 108.075C56.858 107.813 57.0918 107.598 57.3672 107.451C57.6427 107.303 57.9509 107.227 58.2634 107.231C59.4904 107.231 59.9744 108.199 59.9744 109.639V113.782H58.2409V109.741C58.2409 109.189 58.1171 108.683 57.6106 108.683C57.4542 108.691 57.3053 108.752 57.1886 108.857C57.0719 108.961 56.9944 109.102 56.9689 109.257C56.9019 109.448 56.8713 109.651 56.8789 109.853V113.782H55.1454L55.1229 109.268Z" fill="#207A91"/>
<path d="M62.4845 104.653H64.2067V108.03C64.3522 107.812 64.5397 107.624 64.7583 107.479C65.0221 107.328 65.3212 107.25 65.625 107.254C66.8182 107.254 67.2797 108.255 67.2797 109.888V113.805H65.5462V109.888C65.5462 109.257 65.4336 108.706 64.9158 108.706C64.6232 108.706 64.3755 108.874 64.2405 109.302C64.2046 109.465 64.182 109.631 64.1729 109.797V113.805H62.4507L62.4845 104.653Z" fill="#207A91"/>
<path d="M69.8686 112.758C69.8672 112.478 69.9702 112.207 70.1576 111.999C70.3449 111.791 70.6031 111.66 70.8817 111.632C71.0228 111.636 71.1615 111.669 71.2894 111.729C71.4173 111.788 71.5316 111.874 71.6254 111.979C71.7193 112.084 71.7905 112.208 71.8349 112.342C71.8793 112.476 71.8958 112.617 71.8835 112.758C71.8976 112.9 71.8819 113.043 71.8375 113.178C71.7931 113.314 71.7209 113.439 71.6256 113.545C71.5302 113.65 71.4138 113.735 71.2838 113.794C71.1538 113.852 71.013 113.883 70.8704 113.884C70.7299 113.878 70.5919 113.844 70.4648 113.784C70.3377 113.724 70.2239 113.639 70.1304 113.534C70.0369 113.428 69.9656 113.306 69.9206 113.172C69.8756 113.039 69.8579 112.898 69.8686 112.758Z" fill="#207A91"/>
<path d="M75.5193 107.332L76.0146 110.202C76.1046 110.788 76.1946 111.328 76.2847 112.015C76.3747 111.351 76.4536 110.81 76.5436 110.202L77.0389 107.332H78.7386L77.0164 113.782H75.418L73.662 107.332H75.5193Z" fill="#207A91"/>
<path d="M80.7535 109.268C80.7535 108.559 80.7535 107.94 80.7535 107.332H82.2394L82.3182 108.075C82.4886 107.813 82.7224 107.598 82.9979 107.451C83.2733 107.303 83.5816 107.227 83.8941 107.231C85.1098 107.231 85.605 108.199 85.605 109.639V113.782H83.8715V109.741C83.8715 109.189 83.7477 108.683 83.2412 108.683C83.0841 108.689 82.9342 108.749 82.8171 108.854C82.7 108.959 82.6231 109.101 82.5996 109.257C82.5325 109.448 82.5019 109.651 82.5095 109.853V113.782H80.776L80.7535 109.268Z" fill="#207A91"/>
</g>
<defs>
<clipPath id="clip0_1_35012">
<rect width="98.0315" height="115.85" fill="white" transform="translate(0.968506 0.566406)"/>
</clipPath>
</defs>
</svg>
