<svg width="26" height="26" viewBox="0 0 26 26" fill="none" xmlns="http://www.w3.org/2000/svg">
<path d="M8.66797 18.4166L13.0013 22.75L17.3346 18.4166" stroke="white" stroke-width="2" stroke-linecap="round" stroke-linejoin="round"/>
<path d="M13 13V22.75" stroke="white" stroke-width="2" stroke-linecap="round" stroke-linejoin="round"/>
<path d="M22.6206 19.5975C23.5624 18.9352 24.2687 17.99 24.637 16.8991C25.0052 15.8082 25.0163 14.6283 24.6685 13.5307C24.3208 12.4331 23.6323 11.4748 22.703 10.795C21.7737 10.1152 20.652 9.74915 19.5006 9.75005H18.1356C17.8098 8.48024 17.2001 7.3009 16.3526 6.3008C15.505 5.30071 14.4416 4.50591 13.2424 3.97627C12.0432 3.44662 10.7395 3.19591 9.42942 3.24303C8.11932 3.29014 6.83699 3.63384 5.67895 4.24826C4.52091 4.86268 3.51734 5.7318 2.7438 6.7902C1.97026 7.84859 1.4469 9.06868 1.21313 10.3586C0.979358 11.6485 1.04126 12.9747 1.39418 14.2372C1.74709 15.4998 2.38183 16.6658 3.2506 17.6475" stroke="white" stroke-width="2" stroke-linecap="round" stroke-linejoin="round"/>
</svg>
