<svg width="48" height="48" viewBox="0 0 48 48" fill="none" xmlns="http://www.w3.org/2000/svg">
<rect width="48" height="48" rx="14" fill="url(#paint0_linear_1_1201)"/>
<path d="M33.2407 20.3105L24.3253 41.297C24.2983 41.3624 24.2524 41.4182 24.1936 41.4575C24.1348 41.4968 24.0657 41.5178 23.995 41.5178C23.9242 41.5178 23.8551 41.4968 23.7963 41.4575C23.7375 41.4182 23.6917 41.3624 23.6646 41.297L14.7493 20.3105C14.726 20.2557 14.7167 20.196 14.7223 20.1367C14.7279 20.0775 14.7483 20.0206 14.7815 19.9711C14.8147 19.9217 14.8597 19.8814 14.9124 19.8538C14.9651 19.8262 15.024 19.8122 15.0835 19.813H32.9065C32.9653 19.814 33.0231 19.8293 33.0748 19.8574C33.1265 19.8855 33.1706 19.9257 33.2034 19.9746C33.2362 20.0234 33.2567 20.0795 33.2632 20.138C33.2697 20.1964 33.262 20.2556 33.2407 20.3105Z" fill="white"/>
<path d="M15.5367 18.4449L23.7448 10.4545C23.8137 10.3911 23.9038 10.356 23.9974 10.356C24.091 10.356 24.1812 10.3911 24.25 10.4545L32.4581 18.4449C32.5119 18.494 32.5495 18.5582 32.5658 18.6292C32.5821 18.7002 32.5764 18.7745 32.5494 18.8421C32.5223 18.9097 32.4752 18.9674 32.4145 19.0076C32.3537 19.0477 32.2822 19.0684 32.2094 19.0667H15.7854C15.7126 19.0684 15.6411 19.0477 15.5803 19.0076C15.5196 18.9674 15.4725 18.9097 15.4455 18.8421C15.4184 18.7745 15.4127 18.7002 15.429 18.6292C15.4453 18.5582 15.4829 18.494 15.5367 18.4449Z" fill="white"/>
<path d="M33.2586 18.1734L25.5557 10.6804C25.5047 10.6309 25.4696 10.5672 25.4549 10.4976C25.4403 10.428 25.4467 10.3556 25.4734 10.2897C25.5001 10.2238 25.5459 10.1673 25.6049 10.1275C25.6638 10.0878 25.7333 10.0665 25.8044 10.0664H34.6343C34.6858 10.0671 34.7367 10.0786 34.7834 10.1003C34.8301 10.122 34.8717 10.1533 34.9054 10.1922C34.9392 10.2311 34.9644 10.2767 34.9793 10.3261C34.9942 10.3754 34.9985 10.4273 34.9919 10.4784L33.857 17.9713C33.8466 18.0354 33.8188 18.0954 33.7768 18.1449C33.7348 18.1945 33.6801 18.2316 33.6186 18.2524C33.5571 18.2731 33.491 18.2768 33.4276 18.2629C33.3642 18.2489 33.3058 18.218 33.2586 18.1734Z" fill="white"/>
<path d="M14.1365 17.9714L13.0095 10.4784C13.0003 10.4276 13.0025 10.3753 13.0159 10.3254C13.0293 10.2755 13.0536 10.2292 13.0871 10.1898C13.1205 10.1504 13.1622 10.1189 13.2093 10.0976C13.2564 10.0762 13.3076 10.0656 13.3592 10.0665H22.1892C22.2603 10.0665 22.3298 10.0878 22.3887 10.1276C22.4477 10.1674 22.4934 10.2238 22.5202 10.2898C22.5469 10.3557 22.5533 10.4281 22.5387 10.4977C22.524 10.5673 22.4889 10.6309 22.4379 10.6805L14.735 18.1735C14.6878 18.2181 14.6294 18.249 14.566 18.2629C14.5026 18.2768 14.4365 18.2732 14.375 18.2524C14.3135 18.2316 14.2588 18.1945 14.2168 18.145C14.1748 18.0955 14.147 18.0355 14.1365 17.9714Z" fill="white"/>
<path d="M13.1194 19.0669H4.42944C4.3583 19.0668 4.28882 19.0455 4.22985 19.0057C4.17088 18.966 4.12514 18.9095 4.09844 18.8436C4.07173 18.7777 4.06528 18.7052 4.07994 18.6356C4.0946 18.566 4.12967 18.5024 4.1807 18.4528L11.7437 10.9754C11.7906 10.9286 11.8497 10.8958 11.9142 10.8806C11.9788 10.8654 12.0462 10.8685 12.1091 10.8894C12.172 10.9104 12.2278 10.9484 12.2704 10.9993C12.3129 11.0502 12.3404 11.1119 12.3499 11.1775L13.477 18.6549C13.4836 18.706 13.4793 18.7579 13.4644 18.8072C13.4495 18.8566 13.4243 18.9021 13.3905 18.941C13.3568 18.98 13.3152 19.0113 13.2684 19.033C13.2217 19.0547 13.1709 19.0662 13.1194 19.0669Z" fill="white"/>
<path d="M13.8169 20.0306L21.9472 39.175C21.9843 39.2537 21.9914 39.3433 21.9672 39.4269C21.943 39.5105 21.8892 39.5824 21.8158 39.6292C21.7423 39.6759 21.6544 39.6942 21.5684 39.6807C21.4824 39.6672 21.4043 39.6228 21.3487 39.5559L4.03089 20.4115C3.98416 20.3603 3.95334 20.2966 3.94217 20.2281C3.931 20.1597 3.93997 20.0895 3.96798 20.0261C3.99598 19.9627 4.04182 19.9088 4.09991 19.8709C4.158 19.8331 4.22585 19.813 4.29518 19.813H13.4904C13.5601 19.8135 13.6282 19.8344 13.6862 19.873C13.7442 19.9117 13.7896 19.9665 13.8169 20.0306Z" fill="white"/>
<path d="M34.5007 19.813H43.6959C43.7653 19.813 43.8331 19.8331 43.8912 19.8709C43.9493 19.9088 43.9951 19.9627 44.0231 20.0261C44.0511 20.0895 44.0601 20.1597 44.0489 20.2281C44.0377 20.2966 44.0069 20.3603 43.9602 20.4115L26.6424 39.5559C26.5868 39.6228 26.5087 39.6672 26.4227 39.6807C26.3367 39.6942 26.2488 39.6759 26.1754 39.6292C26.1019 39.5824 26.0481 39.5105 26.0239 39.4269C25.9997 39.3433 26.0068 39.2537 26.0439 39.175L34.1743 20.0306C34.2015 19.9665 34.247 19.9117 34.305 19.873C34.363 19.8344 34.431 19.8135 34.5007 19.813Z" fill="white"/>
<path d="M34.5167 18.6549L35.6437 11.1775C35.6532 11.1119 35.6808 11.0502 35.7233 10.9993C35.7658 10.9484 35.8216 10.9104 35.8845 10.8894C35.9474 10.8685 36.0149 10.8654 36.0794 10.8806C36.144 10.8958 36.203 10.9286 36.25 10.9754L43.8129 18.4528C43.864 18.5024 43.899 18.566 43.9137 18.6356C43.9284 18.7052 43.9219 18.7777 43.8952 18.8436C43.8685 18.9095 43.8228 18.966 43.7638 19.0057C43.7048 19.0455 43.6353 19.0668 43.5642 19.0669H34.8742C34.8227 19.0662 34.7719 19.0547 34.7252 19.033C34.6784 19.0113 34.6369 18.98 34.6031 18.941C34.5693 18.9021 34.5442 18.8566 34.5293 18.8072C34.5144 18.7579 34.5101 18.706 34.5167 18.6549Z" fill="white"/>
<defs>
<linearGradient id="paint0_linear_1_1201" x1="24" y1="0" x2="24" y2="48" gradientUnits="userSpaceOnUse">
<stop stop-color="#0093FF"/>
<stop offset="1" stop-color="#3248F2"/>
</linearGradient>
</defs>
</svg>
