<svg width="25" height="25" viewBox="0 0 25 25" fill="none" xmlns="http://www.w3.org/2000/svg">
<rect width="24.7173" height="24.7173" rx="12.3586" fill="url(#paint0_linear_1_1222)"/>
<g clip-path="url(#clip0_1_1222)">
<path d="M12.5 4C10.2464 4.00246 8.08583 4.89879 6.49231 6.49231C4.89878 8.08584 4.00246 10.2464 4 12.5C4.00246 14.7536 4.89878 16.9142 6.49231 18.5077C8.08583 20.1012 10.2464 20.9975 12.5 21C14.756 21.0012 16.9202 20.1065 18.5167 18.5126C20.1132 16.9187 21.0115 14.756 21.0139 12.5C21.0115 10.244 20.1132 8.08131 18.5167 6.48738C16.9202 4.89346 14.756 3.99877 12.5 4ZM12.5 19.14C11.628 19.14 10.7646 18.9683 9.95896 18.6346C9.15336 18.3009 8.42136 17.8118 7.80478 17.1952C7.18819 16.5786 6.69909 15.8466 6.3654 15.041C6.0317 14.2354 5.85996 13.372 5.85996 12.5C5.85996 11.628 6.0317 10.7646 6.3654 9.95897C6.69909 9.15336 7.18819 8.42137 7.80478 7.80478C8.42136 7.1882 9.15336 6.69909 9.95896 6.3654C10.7646 6.03171 11.628 5.85996 12.5 5.85996C13.3732 5.85812 14.2381 6.02852 15.0453 6.36139C15.8525 6.69426 16.5862 7.18307 17.2042 7.79984C17.8223 8.41661 18.3126 9.14922 18.6472 9.95574C18.9818 10.7623 19.154 11.6268 19.154 12.5C19.154 13.3732 18.9818 14.2377 18.6472 15.0443C18.3126 15.8508 17.8223 16.5834 17.2042 17.2002C16.5862 17.8169 15.8525 18.3057 15.0453 18.6386C14.2381 18.9715 13.3732 19.1419 12.5 19.14Z" fill="white"/>
<path d="M14.9275 13.2068L13.4303 12.0443V8.74291C13.4303 8.49626 13.3323 8.25972 13.1579 8.08531C12.9835 7.91091 12.7469 7.81293 12.5003 7.81293C12.2536 7.81293 12.0171 7.91091 11.8427 8.08531C11.6683 8.25972 11.5703 8.49626 11.5703 8.74291V12.5C11.5701 12.6417 11.6023 12.7815 11.6643 12.9088C11.7264 13.0361 11.8167 13.1476 11.9284 13.2347L13.7883 14.6762C13.9506 14.8021 14.1501 14.8708 14.3556 14.8715C14.4976 14.8711 14.6377 14.8383 14.765 14.7754C14.8924 14.7125 15.0036 14.6213 15.0903 14.5088C15.2408 14.3143 15.3082 14.0682 15.2777 13.8242C15.2472 13.5802 15.1213 13.3582 14.9275 13.2068Z" fill="white"/>
</g>
<defs>
<linearGradient id="paint0_linear_1_1222" x1="12.3586" y1="0" x2="12.3586" y2="24.7173" gradientUnits="userSpaceOnUse">
<stop stop-color="#0093FF"/>
<stop offset="1" stop-color="#3347F1"/>
</linearGradient>
<clipPath id="clip0_1_1222">
<rect width="17" height="17" fill="white" transform="translate(4 4)"/>
</clipPath>
</defs>
</svg>
