<svg width="18" height="18" viewBox="0 0 18 18" fill="none" xmlns="http://www.w3.org/2000/svg">
<circle cx="9" cy="9" r="9" fill="#24AA69"/>
<path d="M12.4322 4.92249C12.4322 2.91391 10.8616 1.28564 8.9241 1.28564C6.98664 1.28564 5.41602 2.91391 5.41602 4.92249V7.00368C5.41602 9.01225 6.98664 10.6405 8.9241 10.6405C10.8616 10.6405 12.4322 9.01225 12.4322 7.00368V4.92249Z" fill="white"/>
<path d="M13.2444 8.99492C13.1163 8.99369 12.99 9.02679 12.8783 9.09092C12.7666 9.15504 12.6734 9.24795 12.6078 9.36036C12.2351 10.021 11.6983 10.5697 11.0516 10.9513C10.405 11.3329 9.67115 11.5337 8.92416 11.5337C8.17717 11.5337 7.44337 11.3329 6.79667 10.9513C6.14998 10.5697 5.61323 10.021 5.2405 9.36036C5.1751 9.24783 5.08185 9.15483 4.97011 9.09069C4.85838 9.02655 4.73209 8.99352 4.60389 8.99492C4.47335 8.99475 4.34504 9.02954 4.2318 9.09582C4.11855 9.16211 4.02434 9.25755 3.95856 9.37263C3.89278 9.48771 3.85774 9.6184 3.85695 9.75162C3.85615 9.88485 3.88963 10.016 3.95403 10.1318C4.39543 10.9092 5.00582 11.5728 5.73818 12.0715C6.47054 12.5701 7.3053 12.8905 8.17814 13.008V14.4884H6.44904C6.25119 14.4884 6.06143 14.5686 5.92153 14.7114C5.78162 14.8541 5.70303 15.0478 5.70303 15.2497C5.70303 15.4516 5.78162 15.6453 5.92153 15.788C6.06143 15.9308 6.25119 16.011 6.44904 16.011H11.4092C11.6071 16.011 11.7968 15.9308 11.9367 15.788C12.0766 15.6453 12.1552 15.4516 12.1552 15.2497C12.1552 15.0478 12.0766 14.8541 11.9367 14.7114C11.7968 14.5686 11.6071 14.4884 11.4092 14.4884H9.67018V13.008C10.5429 12.8902 11.3775 12.5696 12.1098 12.071C12.8421 11.5724 13.4526 10.909 13.8943 10.1318C13.9587 10.016 13.9922 9.88485 13.9914 9.75162C13.9906 9.6184 13.9555 9.48771 13.8898 9.37263C13.824 9.25755 13.7298 9.16211 13.6165 9.09582C13.5033 9.02954 13.375 8.99475 13.2444 8.99492Z" fill="white"/>
</svg>
