<svg width="29" height="27" viewBox="0 0 29 27" fill="none" xmlns="http://www.w3.org/2000/svg">
<path d="M24.0608 20.9091L23.077 19.4893C23.425 19.0153 23.7331 18.5155 23.9983 17.9948C24.2598 17.4865 24.4791 16.9593 24.6542 16.4181L26.4345 16.306C26.8794 16.2753 27.2935 16.0773 27.5861 15.7552C27.8788 15.4331 28.0262 15.0132 27.9962 14.5873L27.7541 10.7837C27.7201 10.3573 27.5115 9.96105 27.1737 9.68114C26.8359 9.40124 26.3962 9.26035 25.9504 9.28918L24.1701 9.3938C23.6875 8.35345 23.0249 7.39852 22.2103 6.56918L22.9911 5.03726C23.0896 4.84552 23.1476 4.63707 23.1617 4.42382C23.1757 4.21057 23.1456 3.99676 23.0731 3.79468C23.0005 3.59261 22.8869 3.40625 22.7389 3.24632C22.5908 3.08639 22.4112 2.95602 22.2103 2.86275L18.642 1.16645C18.4416 1.07215 18.2237 1.01668 18.0009 1.00322C17.7781 0.989758 17.5547 1.01861 17.3435 1.08805C17.1324 1.15749 16.9377 1.26616 16.7706 1.40786C16.6034 1.54956 16.4673 1.72147 16.3698 1.91371L15.589 3.40824C14.4056 3.28875 13.2096 3.36205 12.0519 3.62497L11.068 2.19768C10.8172 1.84393 10.4316 1.59818 9.99389 1.51299C9.55612 1.42781 9.10088 1.50996 8.72558 1.74186L5.40712 3.84914C5.22228 3.96668 5.06351 4.11796 4.93988 4.29433C4.81626 4.47071 4.7302 4.66868 4.68668 4.87694C4.64316 5.0852 4.64302 5.29968 4.68625 5.50799C4.72949 5.71631 4.81526 5.91439 4.93865 6.09092L5.92248 7.51817C5.57159 7.99041 5.26336 8.49039 5.00112 9.01269C4.73835 9.52302 4.51899 10.0528 4.34522 10.5969L2.56498 10.7015C2.12089 10.7341 1.70803 10.9326 1.41578 11.2543C1.12352 11.5759 0.975367 11.9948 1.00335 12.4202L1.25322 16.2238C1.29112 16.6487 1.5008 17.0427 1.83769 17.3218C2.17457 17.601 2.61205 17.7432 3.0569 17.7183L4.83714 17.6062C5.31975 18.6465 5.98234 19.6015 6.79699 20.4309L6.01618 21.9627C5.91764 22.1545 5.85967 22.363 5.84561 22.5762C5.83155 22.7895 5.86164 23.0033 5.9342 23.2054C6.00676 23.4074 6.12036 23.5938 6.26842 23.7537C6.41649 23.9136 6.59612 24.044 6.79699 24.1372L10.3653 25.8335C10.5657 25.9278 10.7835 25.9833 11.0064 25.9968C11.2292 26.0102 11.4526 25.9814 11.6637 25.912C11.8749 25.8425 12.0696 25.7338 12.2367 25.5921C12.4038 25.4504 12.54 25.2785 12.6375 25.0863L13.4183 23.5918C14.6017 23.7112 15.7976 23.638 16.9554 23.3751L17.9392 24.8023C18.1901 25.1561 18.5756 25.4018 19.0134 25.487C19.4512 25.5722 19.9064 25.49 20.2817 25.2581L23.5923 23.1509C23.964 22.9122 24.2219 22.5425 24.3096 22.1225C24.3974 21.7024 24.3079 21.2662 24.0608 20.9091ZM12.0909 18.1816C11.1186 17.7247 10.3102 17.0016 9.76809 16.1041C9.22601 15.2067 8.9748 14.1753 9.04632 13.141C9.11783 12.1066 9.50883 11.1159 10.1697 10.2946C10.8307 9.47335 11.7317 8.85852 12.7584 8.52819C13.7851 8.19786 14.8912 8.16691 15.9363 8.43929C16.9814 8.71168 17.9183 9.27512 18.6282 10.0581C19.3381 10.841 19.7889 11.8082 19.9235 12.8367C20.058 13.8653 19.8701 14.909 19.3837 15.8352C18.7367 17.0673 17.6075 18.005 16.2418 18.4444C14.8761 18.8839 13.3842 18.7894 12.0909 18.1816Z" stroke="url(#paint0_linear_5_463)" stroke-width="2"/>
<defs>
<linearGradient id="paint0_linear_5_463" x1="14.5" y1="1" x2="14.5" y2="26" gradientUnits="userSpaceOnUse">
<stop stop-color="#048DFE"/>
<stop offset="1" stop-color="#3248F2"/>
</linearGradient>
</defs>
</svg>
