<svg width="25" height="25" viewBox="0 0 25 25" fill="none" xmlns="http://www.w3.org/2000/svg">
<rect width="24.7173" height="24.7173" rx="12.3586" fill="url(#paint0_linear_1_1215)"/>
<g clip-path="url(#clip0_1_1215)">
<path d="M12.498 4.62846C13.3542 4.62846 14.1754 4.97159 14.7808 5.58238C15.3863 6.19317 15.7264 7.02158 15.7264 7.88537C15.7264 8.74915 15.3863 9.57756 14.7808 10.1883C14.1754 10.7991 13.3542 11.1423 12.498 11.1423C11.6418 11.1423 10.8206 10.7991 10.2152 10.1883C9.60971 9.57756 9.26957 8.74915 9.26957 7.88537C9.26957 7.02158 9.60971 6.19317 10.2152 5.58238C10.8206 4.97159 11.6418 4.62846 12.498 4.62846ZM12.498 3C11.2136 3 9.9819 3.51471 9.07373 4.43089C8.16557 5.34707 7.65536 6.58969 7.65536 7.88537C7.65536 9.18105 8.16557 10.4237 9.07373 11.3398C9.9819 12.256 11.2136 12.7707 12.498 12.7707C13.7823 12.7707 15.0141 12.256 15.9222 11.3398C16.8304 10.4237 17.3406 9.18105 17.3406 7.88537C17.3406 6.58969 16.8304 5.34707 15.9222 4.43089C15.0141 3.51471 13.7823 3 12.498 3Z" fill="white"/>
<path d="M12.498 14.9854C15.7506 14.9854 18.3858 16.2068 18.3858 17.6765C18.3858 19.1461 15.7587 20.3675 12.498 20.3675C9.23729 20.3675 6.61421 19.1461 6.61421 17.6765C6.61421 16.2068 9.2494 14.9854 12.498 14.9854ZM12.498 13.357C8.15174 13.357 5 15.1727 5 17.6765C5 20.1802 8.15174 21.9959 12.498 21.9959C16.8442 21.9959 20 20.1721 20 17.6765C20 15.1808 16.8442 13.357 12.498 13.357Z" fill="white"/>
</g>
<defs>
<linearGradient id="paint0_linear_1_1215" x1="12.3586" y1="0" x2="12.3586" y2="24.7173" gradientUnits="userSpaceOnUse">
<stop stop-color="#0093FF"/>
<stop offset="1" stop-color="#3347F1"/>
</linearGradient>
<clipPath id="clip0_1_1215">
<rect width="15" height="19" fill="white" transform="translate(5 3)"/>
</clipPath>
</defs>
</svg>
