<svg width="53" height="47" viewBox="0 0 53 47" fill="none" xmlns="http://www.w3.org/2000/svg">
<path d="M38.2146 5.21069H14.1697C8.73379 5.21069 4.32715 9.61733 4.32715 15.0532V32.6455C4.32715 38.0813 8.73379 42.488 14.1697 42.488H38.2146C43.6504 42.488 48.0571 38.0813 48.0571 32.6455V15.0532C48.0571 9.61733 43.6504 5.21069 38.2146 5.21069Z" fill="white"/>
<path d="M38.2146 5.21006C40.8164 5.21006 43.3115 6.2436 45.1512 8.0833C46.9909 9.92299 48.0244 12.4181 48.0244 15.0199V32.6121C48.0244 35.2139 46.9909 37.709 45.1512 39.5487C43.3115 41.3884 40.8164 42.4219 38.2146 42.4219H14.1697C11.568 42.4219 9.07284 41.3884 7.23315 39.5487C5.39345 37.709 4.35991 35.2139 4.35991 32.6121V15.0525C4.35991 12.4508 5.39345 9.95566 7.23315 8.11596C9.07284 6.27627 11.568 5.24273 14.1697 5.24273H38.2146M38.2146 0.882812H14.1697C10.4117 0.882812 6.80756 2.37569 4.15022 5.03303C1.49288 7.69037 0 11.2945 0 15.0525V32.6448C0 36.4028 1.49288 40.007 4.15022 42.6643C6.80756 45.3216 10.4117 46.8145 14.1697 46.8145H38.2146C41.9683 46.8002 45.5641 45.3027 48.2183 42.6485C50.8725 39.9942 52.37 36.3984 52.3844 32.6448V15.0525C52.3844 11.2945 50.8915 7.69037 48.2341 5.03303C45.5768 2.37569 41.9727 0.882812 38.2146 0.882812Z" fill="url(#paint0_linear_90_7682)"/>
<path opacity="0.22" d="M36.6887 10.0178H15.6957C12.1741 10.0178 9.31934 12.8726 9.31934 16.3942V31.3051C9.31934 34.8267 12.1741 37.6815 15.6957 37.6815H36.6887C40.2103 37.6815 43.0651 34.8267 43.0651 31.3051V16.3942C43.0651 12.8726 40.2103 10.0178 36.6887 10.0178Z" fill="url(#paint1_linear_90_7682)"/>
<path d="M32.2962 25.1904L23.0858 30.5095C22.7698 30.6906 22.4118 30.7857 22.0475 30.7852C21.6833 30.7847 21.3255 30.6887 21.01 30.5067C20.6945 30.3246 20.4322 30.063 20.2494 29.7479C20.0667 29.4328 19.9698 29.0752 19.9685 28.711V18.0728C19.9701 17.7073 20.0675 17.3486 20.2508 17.0323C20.4341 16.7161 20.697 16.4535 21.0134 16.2705C21.3298 16.0875 21.6886 15.9905 22.0541 15.9893C22.4196 15.988 22.7791 16.0826 23.0967 16.2634L32.3071 21.5825C32.6207 21.7683 32.8804 22.0326 33.0604 22.3496C33.2404 22.6665 33.3345 23.025 33.3334 23.3895C33.3323 23.754 33.2361 24.112 33.0542 24.4278C32.8722 24.7437 32.6109 25.0065 32.2962 25.1904Z" fill="white"/>
<path d="M22.0395 15.9699C22.4221 15.9619 22.7993 16.06 23.1295 16.2533L32.3398 21.5724C32.6565 21.7565 32.9194 22.0205 33.1021 22.338C33.2848 22.6555 33.381 23.0154 33.381 23.3818C33.381 23.7481 33.2848 24.1081 33.1021 24.4256C32.9194 24.7431 32.6565 25.0071 32.3398 25.1912L23.1295 30.5103C22.8125 30.7024 22.4498 30.8064 22.0791 30.8116C21.7084 30.8167 21.3431 30.7227 21.0208 30.5394C20.6986 30.3561 20.4312 30.09 20.2462 29.7687C20.0612 29.4474 19.9653 29.0825 19.9686 28.7118V18.0736C19.9671 17.7993 20.0199 17.5274 20.1239 17.2735C20.2279 17.0197 20.381 16.7889 20.5745 16.5944C20.7679 16.3999 20.9979 16.2457 21.2512 16.1404C21.5045 16.0351 21.7761 15.9808 22.0504 15.9808M22.0504 11.6209C20.3409 11.6238 18.7025 12.3049 17.4947 13.5147C16.287 14.7245 15.6086 16.3641 15.6086 18.0736V28.7118C15.6091 29.8431 15.9071 30.9545 16.4726 31.9344C17.0382 32.9143 17.8514 33.7282 18.8307 34.2947C19.8101 34.8611 20.9212 35.16 22.0526 35.1616C23.184 35.1631 24.2958 34.8671 25.2767 34.3034L34.4871 28.9843C35.4671 28.4177 36.2807 27.6032 36.8464 26.6227C37.4121 25.6422 37.7098 24.5301 37.7098 23.3981C37.7098 22.2661 37.4121 21.1541 36.8464 20.1736C36.2807 19.1931 35.4671 18.3786 34.4871 17.812L25.2767 12.4929C24.2838 11.9165 23.155 11.6155 22.0068 11.6209H22.0504Z" fill="url(#paint2_linear_90_7682)"/>
<defs>
<linearGradient id="paint0_linear_90_7682" x1="-0.0326994" y1="23.8487" x2="52.4171" y2="23.8487" gradientUnits="userSpaceOnUse">
<stop stop-color="#FF6E11"/>
<stop offset="0.24" stop-color="#FF7311"/>
<stop offset="0.54" stop-color="#FF8211"/>
<stop offset="0.85" stop-color="#FF9A11"/>
<stop offset="1" stop-color="#FFA811"/>
</linearGradient>
<linearGradient id="paint1_linear_90_7682" x1="9.31934" y1="23.8496" x2="43.0651" y2="23.8496" gradientUnits="userSpaceOnUse">
<stop stop-color="#FF6E11"/>
<stop offset="0.24" stop-color="#FF7311"/>
<stop offset="0.54" stop-color="#FF8211"/>
<stop offset="0.85" stop-color="#FF9A11"/>
<stop offset="1" stop-color="#FFA811"/>
</linearGradient>
<linearGradient id="paint2_linear_90_7682" x1="15.5977" y1="23.3818" x2="37.7025" y2="23.3818" gradientUnits="userSpaceOnUse">
<stop stop-color="#FF6E11"/>
<stop offset="0.24" stop-color="#FF7311"/>
<stop offset="0.54" stop-color="#FF8211"/>
<stop offset="0.85" stop-color="#FF9A11"/>
<stop offset="1" stop-color="#FFA811"/>
</linearGradient>
</defs>
</svg>
