<svg width="30" height="28" viewBox="0 0 30 28" fill="none" xmlns="http://www.w3.org/2000/svg">
<g clip-path="url(#clip0_474_46833)">
<path opacity="0.3" d="M28.3198 13.5363C28.3198 9.94454 26.9201 6.49988 24.4287 3.96012C21.9373 1.42036 18.5583 -0.00646973 15.0349 -0.00646973C11.5115 -0.00646973 8.13246 1.42036 5.64105 3.96012C3.14965 6.49988 1.75 9.94454 1.75 13.5363C1.75 13.678 1.75 13.8132 1.75 13.9485H2.94394C2.94394 13.8132 2.94394 13.678 2.94394 13.5363C2.94276 11.1595 3.61572 8.83307 4.88176 6.83721C6.14779 4.84135 7.95289 3.26121 10.0796 2.28712C12.2064 1.31303 14.564 0.986545 16.8686 1.347C19.1731 1.70746 21.3263 2.73948 23.0687 4.31874C24.8112 5.898 26.0685 7.95714 26.6894 10.2481C27.3102 12.5391 27.268 14.9642 26.5679 17.2313C25.8677 19.4984 24.5395 21.5108 22.7433 23.0261C20.947 24.5414 18.7593 25.4949 16.4436 25.7718C16.3051 25.436 16.0568 25.1595 15.741 24.9891C15.4251 24.8187 15.0612 24.765 14.7109 24.837C14.3606 24.9091 14.0456 25.1025 13.8193 25.3844C13.593 25.6663 13.4693 26.0193 13.4693 26.3836C13.4693 26.7479 13.593 27.1009 13.8193 27.3828C14.0456 27.6647 14.3606 27.8581 14.7109 27.9302C15.0612 28.0022 15.4251 27.9485 15.741 27.7781C16.0568 27.6077 16.3051 27.3311 16.4436 26.9954C19.7012 26.6355 22.7141 25.0634 24.9054 22.58C27.0967 20.0966 28.3124 16.8765 28.3198 13.5363Z" fill="url(#paint0_linear_474_46833)"/>
<path d="M2.21731 9.65967H1.86987C0.837168 9.65967 0 10.5131 0 11.5658V16.3248C0 17.3775 0.837168 18.231 1.86987 18.231H2.21731C3.25001 18.231 4.08718 17.3775 4.08718 16.3248V11.5658C4.08718 10.5131 3.25001 9.65967 2.21731 9.65967Z" fill="url(#paint1_linear_474_46833)"/>
<path d="M28.1299 9.65967H27.7825C26.7498 9.65967 25.9126 10.5131 25.9126 11.5658V16.3248C25.9126 17.3775 26.7498 18.231 27.7825 18.231H28.1299C29.1626 18.231 29.9998 17.3775 29.9998 16.3248V11.5658C29.9998 10.5131 29.1626 9.65967 28.1299 9.65967Z" fill="url(#paint2_linear_474_46833)"/>
<path d="M25.6599 13.5396C25.6599 7.55565 20.9014 2.70471 15.0314 2.70471C9.1614 2.70471 4.40283 7.55565 4.40283 13.5396C4.40283 19.5235 9.1614 24.3744 15.0314 24.3744C20.9014 24.3744 25.6599 19.5235 25.6599 13.5396Z" fill="url(#paint3_linear_474_46833)"/>
<path d="M6.21623 18.7847L4.01787 23.2088C3.91086 23.4336 3.87031 23.6853 3.90116 23.9332C3.93201 24.1811 4.03293 24.4144 4.19163 24.6049C4.35032 24.7953 4.55993 24.9346 4.79491 25.0057C5.0299 25.0769 5.2801 25.0768 5.51503 25.0055L12.0343 22.919L6.21623 18.7847Z" fill="url(#paint4_linear_474_46833)"/>
<path d="M9.91171 14.2189C11.0177 14.2189 11.9142 13.3049 11.9142 12.1775C11.9142 11.0501 11.0177 10.1361 9.91171 10.1361C8.80574 10.1361 7.90918 11.0501 7.90918 12.1775C7.90918 13.3049 8.80574 14.2189 9.91171 14.2189Z" fill="white"/>
<path d="M20.0885 14.2189C21.1944 14.2189 22.091 13.3049 22.091 12.1775C22.091 11.0501 21.1944 10.1361 20.0885 10.1361C18.9825 10.1361 18.0859 11.0501 18.0859 12.1775C18.0859 13.3049 18.9825 14.2189 20.0885 14.2189Z" fill="white"/>
<path d="M17.7635 16.6532C17.7297 17.3721 17.4257 18.0501 16.9147 18.5467C16.4036 19.0432 15.7247 19.3202 15.0187 19.3202C14.3127 19.3202 13.6338 19.0432 13.1228 18.5467C12.6117 18.0501 12.3078 17.3721 12.2739 16.6532H17.7635Z" fill="white"/>
</g>
<defs>
<linearGradient id="paint0_linear_474_46833" x1="1.75" y1="14" x2="28.3198" y2="14" gradientUnits="userSpaceOnUse">
<stop stop-color="#FF6E11"/>
<stop offset="0.24" stop-color="#FF7311"/>
<stop offset="0.54" stop-color="#FF8211"/>
<stop offset="0.85" stop-color="#FF9A11"/>
<stop offset="1" stop-color="#FFA811"/>
</linearGradient>
<linearGradient id="paint1_linear_474_46833" x1="2.04043" y1="25.173" x2="2.04043" y2="12.0037" gradientUnits="userSpaceOnUse">
<stop stop-color="#FF6E11"/>
<stop offset="0.24" stop-color="#FF7311"/>
<stop offset="0.54" stop-color="#FF8211"/>
<stop offset="0.85" stop-color="#FF9A11"/>
<stop offset="1" stop-color="#FFA811"/>
</linearGradient>
<linearGradient id="paint2_linear_474_46833" x1="27.9593" y1="25.173" x2="27.9593" y2="12.0037" gradientUnits="userSpaceOnUse">
<stop stop-color="#FF6E11"/>
<stop offset="0.24" stop-color="#FF7311"/>
<stop offset="0.54" stop-color="#FF8211"/>
<stop offset="0.85" stop-color="#FF9A11"/>
<stop offset="1" stop-color="#FFA811"/>
</linearGradient>
<linearGradient id="paint3_linear_474_46833" x1="15.0282" y1="28.0966" x2="15.0282" y2="9.91078" gradientUnits="userSpaceOnUse">
<stop stop-color="#FF6E11"/>
<stop offset="0.24" stop-color="#FF7311"/>
<stop offset="0.54" stop-color="#FF8211"/>
<stop offset="0.85" stop-color="#FF9A11"/>
<stop offset="1" stop-color="#FFA811"/>
</linearGradient>
<linearGradient id="paint4_linear_474_46833" x1="7.95343" y1="28.0965" x2="7.95343" y2="9.91069" gradientUnits="userSpaceOnUse">
<stop stop-color="#FF6E11"/>
<stop offset="0.24" stop-color="#FF7311"/>
<stop offset="0.54" stop-color="#FF8211"/>
<stop offset="0.85" stop-color="#FF9A11"/>
<stop offset="1" stop-color="#FFA811"/>
</linearGradient>
<clipPath id="clip0_474_46833">
<rect width="30" height="28" fill="white"/>
</clipPath>
</defs>
</svg>
