<svg width="30" height="29" viewBox="0 0 30 29" fill="none" xmlns="http://www.w3.org/2000/svg">
<g opacity="0.51">
<path d="M4.87134 7.3268L0.32573 15.5088C0.0023501 16.1003 -0.0841378 16.7925 0.0837284 17.4453C0.251595 18.0981 0.661291 18.6627 1.22985 19.0248L10.6726 25.0119C10.9834 25.2095 11.3479 25.3058 11.7157 25.2873C12.0835 25.2689 12.4365 25.1367 12.726 24.909C13.0155 24.6812 13.2271 24.3693 13.3317 24.0161C13.4362 23.663 13.4284 23.286 13.3095 22.9375L8.11099 7.6131C7.99993 7.28699 7.79653 7.00014 7.52551 6.78746C7.25449 6.57478 6.92752 6.44543 6.58436 6.41511C6.24119 6.38478 5.89662 6.45479 5.5925 6.61664C5.28839 6.77849 5.03786 7.02522 4.87134 7.3268Z" fill="url(#paint0_linear_90_7739)"/>
</g>
<g opacity="0.51">
<path d="M24.5908 7.32622L29.1113 15.4932C29.4346 16.0846 29.5211 16.7768 29.3533 17.4296C29.1854 18.0824 28.7757 18.647 28.2071 19.0091L18.7644 24.9962C18.4536 25.1939 18.0891 25.2901 17.7213 25.2717C17.3535 25.2532 17.0004 25.121 16.7109 24.8933C16.4215 24.6656 16.2099 24.3536 16.1053 24.0005C16.0008 23.6473 16.0085 23.2704 16.1274 22.9218L21.326 7.59744C21.4349 7.26522 21.6392 6.97249 21.9136 6.7558C22.1879 6.53911 22.5201 6.4081 22.8685 6.37915C23.2169 6.35021 23.5661 6.4246 23.8724 6.59304C24.1787 6.76149 24.4286 7.01652 24.5908 7.32622Z" fill="url(#paint1_linear_90_7739)"/>
</g>
<path d="M22.0289 23.045L17.9756 25.6819C17.0188 26.338 15.886 26.6892 14.7259 26.6892C13.5658 26.6892 12.4329 26.338 11.4762 25.6819L7.45797 23.05C6.04658 22.1258 5.61462 19.5944 6.56894 17.8665L12.2597 7.58496C12.8926 6.43977 13.8268 5.86719 14.7711 5.86719C15.7153 5.86719 16.6345 6.43977 17.2824 7.58496L22.9732 17.8665C23.8723 19.5944 23.4403 22.1258 22.0289 23.045Z" fill="white"/>
<path d="M14.7108 5.86847C15.64 5.86847 16.5743 6.44106 17.2222 7.58624L22.913 17.8678C23.8673 19.5956 23.4153 22.1271 22.024 23.0513L17.9706 25.6882C17.0139 26.3443 15.881 26.6955 14.7209 26.6955C13.5608 26.6955 12.4279 26.3443 11.4712 25.6882L7.45299 23.0563C6.0416 22.1321 5.60963 19.6007 6.56396 17.8728L12.2547 7.59127C12.8876 6.44609 13.8218 5.8735 14.7661 5.8735M14.7661 3.8644C13.8748 3.89761 13.0091 4.1709 12.2603 4.65537C11.5115 5.13984 10.9074 5.81751 10.5118 6.61686L4.82108 16.9035C3.34439 19.5705 4.06765 23.2321 6.37309 24.7389L10.3913 27.3708C11.6744 28.2402 13.1886 28.7049 14.7385 28.7049C16.2883 28.7049 17.8026 28.2402 19.0856 27.3708L23.139 24.7339C25.4445 23.2271 26.1526 19.5655 24.691 16.8984L19.0003 6.61186C18.6047 5.81251 18.0006 5.13481 17.2518 4.65034C16.503 4.16587 15.6372 3.89258 14.746 3.85938L14.7661 3.8644Z" fill="url(#paint2_linear_90_7739)"/>
<g opacity="0.51">
<path d="M4.78594 4.62092C4.3432 4.17787 4.06777 3.595 4.0066 2.97164C3.94543 2.34828 4.10232 1.723 4.4505 1.20234C4.79868 0.681673 5.3166 0.297856 5.91606 0.116272C6.51552 -0.065312 7.15939 -0.0334412 7.73797 0.206494C8.31655 0.446429 8.79404 0.879583 9.08906 1.43211C9.38408 1.98463 9.47843 2.62234 9.35596 3.2366C9.23348 3.85087 8.9018 4.40366 8.41744 4.80079C7.93308 5.19792 7.32599 5.41483 6.69964 5.41453C6.34414 5.41463 5.99208 5.34457 5.6637 5.20839C5.33532 5.07221 5.03704 4.87258 4.78594 4.62092Z" fill="url(#paint3_linear_90_7739)"/>
</g>
<g opacity="0.51">
<path d="M22.029 23.045L17.9756 25.6819C17.0151 26.3259 15.8873 26.6751 14.731 26.6865V5.86719C15.6602 5.86719 16.5944 6.43977 17.2423 7.58496L22.9331 17.8665C23.8723 19.5944 23.4404 22.1258 22.029 23.045Z" fill="url(#paint4_linear_90_7739)"/>
</g>
<defs>
<linearGradient id="paint0_linear_90_7739" x1="-0.0107712" y1="15.8604" x2="13.41" y2="15.8604" gradientUnits="userSpaceOnUse">
<stop stop-color="#FF6E11"/>
<stop offset="0.24" stop-color="#FF7311"/>
<stop offset="0.54" stop-color="#FF8211"/>
<stop offset="0.85" stop-color="#FF9A11"/>
<stop offset="1" stop-color="#FFA811"/>
</linearGradient>
<linearGradient id="paint1_linear_90_7739" x1="16.0521" y1="15.8599" x2="29.4729" y2="15.8599" gradientUnits="userSpaceOnUse">
<stop stop-color="#FF6E11"/>
<stop offset="0.24" stop-color="#FF7311"/>
<stop offset="0.54" stop-color="#FF8211"/>
<stop offset="0.85" stop-color="#FF9A11"/>
<stop offset="1" stop-color="#FFA811"/>
</linearGradient>
<linearGradient id="paint2_linear_90_7739" x1="4.01743" y1="16.2806" x2="25.4444" y2="16.2806" gradientUnits="userSpaceOnUse">
<stop stop-color="#FF6E11"/>
<stop offset="0.24" stop-color="#FF7311"/>
<stop offset="0.54" stop-color="#FF8211"/>
<stop offset="0.85" stop-color="#FF9A11"/>
<stop offset="1" stop-color="#FFA811"/>
</linearGradient>
<linearGradient id="paint3_linear_90_7739" x1="3.99234" y1="2.70726" x2="9.40689" y2="2.70726" gradientUnits="userSpaceOnUse">
<stop stop-color="#FF6E11"/>
<stop offset="0.24" stop-color="#FF7311"/>
<stop offset="0.54" stop-color="#FF8211"/>
<stop offset="0.85" stop-color="#FF9A11"/>
<stop offset="1" stop-color="#FFA811"/>
</linearGradient>
<linearGradient id="paint4_linear_90_7739" x1="14.731" y1="16.2793" x2="23.4303" y2="16.2793" gradientUnits="userSpaceOnUse">
<stop stop-color="#FF6E11"/>
<stop offset="0.24" stop-color="#FF7311"/>
<stop offset="0.54" stop-color="#FF8211"/>
<stop offset="0.85" stop-color="#FF9A11"/>
<stop offset="1" stop-color="#FFA811"/>
</linearGradient>
</defs>
</svg>
