<svg width="53" height="46" viewBox="0 0 53 46" fill="none" xmlns="http://www.w3.org/2000/svg">
<g clip-path="url(#clip0_1_197)">
<path d="M38.6635 4.35938H14.3366C8.84937 4.35938 4.40112 8.76629 4.40112 14.2025V31.7959C4.40112 37.2321 8.84937 41.639 14.3366 41.639H38.6635C44.1507 41.639 48.599 37.2321 48.599 31.7959V14.2025C48.599 8.76629 44.1507 4.35938 38.6635 4.35938Z" fill="white"/>
<path d="M38.6634 4.35877C41.2897 4.35877 43.8084 5.39238 45.6655 7.23219C47.5226 9.072 48.5658 11.5673 48.5658 14.1692V31.7626C48.5658 34.3645 47.5226 36.8598 45.6655 38.6996C43.8084 40.5394 41.2897 41.573 38.6634 41.573H14.3365C11.7102 41.573 9.19147 40.5394 7.3344 38.6996C5.47734 36.8598 4.43404 34.3645 4.43404 31.7626V14.2019C4.43404 11.6 5.47734 9.10467 7.3344 7.26486C9.19147 5.42504 11.7102 4.39144 14.3365 4.39144H38.6634M38.6634 0.03125H14.3365C10.5429 0.03125 6.90479 1.52423 4.22237 4.18173C1.53994 6.83924 0.032959 10.4436 0.032959 14.2019V31.7952C0.0474489 35.5491 1.55905 39.1451 4.23835 41.7995C6.91764 44.4539 10.5474 45.9515 14.3365 45.9659H38.6634C42.4569 45.9659 46.0951 44.4729 48.7775 41.8154C51.4599 39.1579 52.9669 35.5535 52.9669 31.7952V14.2019C52.9669 10.4436 51.4599 6.83924 48.7775 4.18173C46.0951 1.52423 42.4569 0.03125 38.6634 0.03125Z" fill="url(#paint0_linear_1_197)"/>
<g clip-path="url(#clip1_1_197)">
<path d="M15.0118 19.5376C15.0057 22.1315 15.7748 24.6626 17.2116 26.778C17.3302 26.9537 17.4873 27.0971 17.6698 27.1964C17.8524 27.2956 18.055 27.3476 18.2607 27.3482C18.4062 27.3477 18.5506 27.3227 18.6884 27.2742C18.9235 27.1902 19.131 27.0382 19.2866 26.8359C19.4422 26.6335 19.5396 26.3891 19.5674 26.1312C19.5722 26.0556 19.5722 25.9797 19.5674 25.9041C19.5674 25.7708 19.5556 25.635 19.5556 25.4993C19.5549 23.4461 20.3313 21.4759 21.7154 20.0183C23.0996 18.5607 24.9792 17.7339 26.9444 17.7183H27.1618C27.2941 17.7183 27.4264 17.7183 27.5588 17.738L27.6698 17.7504C27.7691 17.7504 27.8683 17.7701 27.9699 17.7849L28.0739 17.7997C28.1826 17.817 28.2889 17.8343 28.3976 17.8565L28.4685 17.8713C28.7408 17.9286 29.0098 18.0019 29.2742 18.091H29.286C29.4089 18.133 29.5223 18.1774 29.6476 18.2268L29.735 18.2614L30.0209 18.3873L30.1202 18.4342L30.2737 18.5156C30.3304 18.5453 30.3895 18.5724 30.4462 18.6045L30.4746 18.6193C30.6022 18.6909 30.7251 18.765 30.8479 18.8415L30.9495 18.9081C31.044 18.9699 31.1362 19.0365 31.2284 19.1007L31.3111 19.1624C31.4292 19.2488 31.5473 19.3401 31.656 19.4339L31.6915 19.466C31.7986 19.5582 31.9026 19.652 32.0034 19.7475L32.0412 19.782C33.1959 20.8946 33.9883 22.3569 34.3072 23.9638C34.3081 23.972 34.3081 23.9803 34.3072 23.9885C34.3332 24.1267 34.3568 24.265 34.3757 24.4057C34.3757 24.4353 34.3757 24.4674 34.3876 24.497C34.4065 24.6476 34.423 24.8007 34.4324 24.9537C34.4525 25.2743 34.4525 25.5959 34.4324 25.9164C34.4324 25.9708 34.4324 26.0251 34.4324 26.0769C34.4312 26.0975 34.4312 26.1181 34.4324 26.1386C34.4324 26.1707 34.4324 26.2028 34.4443 26.2349C34.4561 26.267 34.4561 26.2843 34.4608 26.309C34.4655 26.3336 34.4726 26.3608 34.4797 26.3855C34.4869 26.4115 34.4956 26.437 34.5057 26.462C34.5057 26.4842 34.5222 26.5089 34.5317 26.5311C34.5411 26.5533 34.5553 26.578 34.5671 26.6027C34.5759 26.6248 34.5862 26.6463 34.5979 26.6669C34.612 26.6891 34.6262 26.7138 34.6427 26.736C34.654 26.7559 34.6666 26.7749 34.6806 26.7928C34.6958 26.8145 34.7124 26.8351 34.7302 26.8545C34.7467 26.8743 34.7609 26.894 34.7774 26.9113L34.8318 26.9631C34.848 26.9809 34.8653 26.9974 34.8838 27.0125C35.0223 27.1305 35.1823 27.218 35.3541 27.2698C35.5258 27.3215 35.7058 27.3365 35.8833 27.3137C36.0625 27.2905 36.2349 27.2279 36.3893 27.13C36.5436 27.0322 36.6764 26.9012 36.7788 26.7459C38.3054 24.4967 39.0734 21.7814 38.9621 19.0266C38.7258 12.4034 33.355 6.9997 27.0058 6.98242H26.9657C24.8383 6.98203 22.749 7.57244 20.9119 8.69316C20.7016 8.82399 20.4937 8.95976 20.2928 9.10293C20.2125 9.15971 20.1369 9.21896 20.0566 9.27821C19.936 9.36708 19.8203 9.45841 19.6974 9.55222C19.5745 9.64602 19.5178 9.7028 19.428 9.77933C19.3382 9.85586 19.2295 9.94719 19.1327 10.0262L18.8586 10.273C18.7688 10.3594 18.6837 10.4458 18.5963 10.5347C18.5089 10.6236 18.4191 10.7174 18.334 10.8112C18.2489 10.905 18.1686 10.9963 18.0977 11.0926C18.0268 11.1889 17.937 11.2778 17.8614 11.374C17.7858 11.4703 17.6866 11.5962 17.6039 11.7073C17.5212 11.8184 17.4715 11.8752 17.4101 11.9541C17.2707 12.1492 17.136 12.3467 17.0084 12.5466L16.9942 12.5664C16.8548 12.7885 16.7225 13.0156 16.5949 13.2452C16.5949 13.265 16.576 13.2847 16.5642 13.3045C16.4508 13.5143 16.3421 13.7266 16.2381 13.9438C16.2239 13.9734 16.2121 14.0006 16.2003 14.0302C16.1011 14.2425 16.0089 14.4573 15.9215 14.6745C15.9097 14.7017 15.9002 14.7288 15.8884 14.7535C15.801 14.9782 15.7206 15.2053 15.6521 15.4324L15.6308 15.4941C15.5529 15.741 15.482 15.9755 15.4205 16.2199C15.4195 16.2322 15.4195 16.2446 15.4205 16.2569C15.3544 16.5037 15.2953 16.7679 15.2457 17.0271V17.0394C15.1961 17.3036 15.1512 17.5702 15.1181 17.8392C15.1192 17.854 15.1192 17.8689 15.1181 17.8837C15.0897 18.1182 15.0708 18.3552 15.0543 18.5946V18.6588C15.0118 18.9871 15.0118 19.2612 15.0118 19.5376ZM17.5212 14.6646C17.7174 14.2441 17.94 13.8375 18.1875 13.4476C18.2111 13.4081 18.2395 13.3711 18.2631 13.3316C18.3576 13.1884 18.4521 13.0477 18.549 12.9095L18.7144 12.6898C18.79 12.591 18.8657 12.4898 18.9507 12.3936C19.0358 12.2973 19.0854 12.2331 19.1539 12.1467L19.3784 11.8998C19.4517 11.8208 19.5273 11.7394 19.6147 11.653C19.7021 11.5666 19.7706 11.495 19.851 11.4061C19.9313 11.3173 20.0046 11.2555 20.0873 11.184C20.17 11.1124 20.2692 11.0235 20.3614 10.9371C20.4535 10.8507 20.5079 10.8087 20.5835 10.7495C20.7276 10.631 20.8765 10.5199 21.0277 10.4113L21.1458 10.3249C21.2994 10.2163 21.4577 10.1126 21.6184 10.0114C23.2787 9.55991 25.0159 9.51189 26.6967 9.87101C28.3774 10.2301 29.9571 10.9868 31.3144 12.083C32.6717 13.1792 33.7705 14.5858 34.5264 16.1947C35.2824 17.8036 35.6754 19.5721 35.6753 21.3644C35.6753 21.9377 35.6358 22.5102 35.5572 23.0776C35.1983 21.7057 34.5418 20.4387 33.6385 19.3747L33.5818 19.3105C33.5086 19.2266 33.4353 19.1427 33.3621 19.0637L33.1896 18.8835C33.1518 18.8464 33.1139 18.8045 33.0738 18.7674C33.0336 18.7304 32.9249 18.6218 32.8375 18.5527L32.769 18.4885C32.6815 18.4095 32.5941 18.333 32.502 18.2564L32.4689 18.2293C32.097 17.9201 31.7019 17.6427 31.2874 17.3998C30.4344 15.998 29.2555 14.8447 27.8606 14.0475C26.4657 13.2502 24.9003 12.8349 23.3103 12.8404C21.1222 12.8483 19.0036 13.6433 17.3109 15.0917C17.3699 14.9535 17.4266 14.8152 17.4904 14.6795C17.4959 14.6735 17.5023 14.6685 17.5093 14.6646H17.5212ZM18.145 25.4993V25.5783C17.0213 23.7827 16.425 21.6829 16.4295 19.5376C16.4295 19.3056 16.4295 19.076 16.4508 18.8464C16.4508 18.7872 16.4508 18.7329 16.4649 18.6761C16.4649 18.5403 16.4886 18.407 16.5051 18.2737C17.1244 17.2449 17.9494 16.3681 18.9234 15.7035C19.8974 15.0389 20.9974 14.6022 22.1481 14.4233C23.2987 14.2444 24.4728 14.3276 25.5899 14.6671C26.7069 15.0066 27.7405 15.5944 28.6197 16.3902H28.5512C28.485 16.3754 28.4165 16.3655 28.348 16.3532L28.2369 16.3359H28.1613L27.9794 16.3112L27.7832 16.2914H27.6793H27.5942C27.4642 16.2914 27.3343 16.2766 27.202 16.2742C27.0696 16.2717 26.9019 16.2742 26.753 16.2742C24.4481 16.3455 22.2605 17.3524 20.6546 19.0813C19.0488 20.8101 18.151 23.1248 18.1521 25.5338L18.145 25.4993ZM37.5846 19.1007C37.6418 20.5281 37.4323 21.9535 36.9678 23.2973C37.4372 19.9987 36.6929 16.6369 34.8848 13.8887C33.0767 11.1404 30.3391 9.20989 27.2232 8.48579C32.7335 8.60428 37.3624 13.3242 37.5727 19.1007H37.5846Z" fill="url(#paint1_linear_1_197)"/>
<path d="M24.5675 22.2067C24.3077 22.363 24.0118 22.4416 23.7121 22.4338C23.4261 22.4448 23.1434 22.3676 22.8993 22.2116C22.751 22.0989 22.5668 22.0506 22.3851 22.0768C22.2035 22.103 22.0387 22.2017 21.9252 22.3521C21.8117 22.5026 21.7585 22.6932 21.7767 22.8838C21.7948 23.0744 21.883 23.2502 22.0226 23.3744C22.5143 23.7421 23.1076 23.932 23.7121 23.915C24.3185 23.9257 24.9136 23.7431 25.4181 23.3916C25.5685 23.2738 25.668 23.0983 25.6945 22.9039C25.7211 22.7095 25.6727 22.512 25.5599 22.3548C25.4471 22.1977 25.2792 22.0938 25.093 22.066C24.9069 22.0383 24.7179 22.0889 24.5675 22.2067Z" fill="url(#paint2_linear_1_197)"/>
<path d="M30.6283 22.2055C30.3695 22.3621 30.0743 22.4407 29.7753 22.4326C29.4894 22.4436 29.2066 22.3664 28.9625 22.2104C28.8143 22.0977 28.63 22.0494 28.4484 22.0756C28.2667 22.1017 28.1019 22.2004 27.9884 22.3509C27.875 22.5014 27.8217 22.6919 27.8399 22.8825C27.8581 23.0731 27.9462 23.249 28.0859 23.3731C28.5776 23.7409 29.1708 23.9307 29.7753 23.9138C30.3817 23.9245 30.9768 23.7419 31.4814 23.3904C31.5558 23.3319 31.6185 23.2586 31.6659 23.1748C31.7133 23.091 31.7444 22.9982 31.7574 22.9018C31.7705 22.8054 31.7652 22.7073 31.742 22.613C31.7187 22.5188 31.678 22.4302 31.6219 22.3524C31.5659 22.2746 31.4958 22.2091 31.4156 22.1596C31.3353 22.1101 31.2465 22.0776 31.1543 22.064C31.062 22.0503 30.9681 22.0558 30.8778 22.0801C30.7876 22.1044 30.7028 22.147 30.6283 22.2055Z" fill="url(#paint3_linear_1_197)"/>
<path d="M36.3513 29.6254C34.917 29.8994 34.2365 29.1168 33.2465 27.8159C32.5376 26.8877 31.7413 25.841 30.4464 25.5028C28.738 25.0609 27.6251 25.6485 27.006 26.194C26.3869 25.6485 25.2717 25.0609 23.5633 25.5028C22.2708 25.8386 21.4697 26.8877 20.7632 27.8159C19.7732 29.1168 19.0927 29.8994 17.6584 29.6254C17.5081 29.5968 17.353 29.6196 17.2162 29.6906C17.0794 29.7616 16.9681 29.8768 16.8991 30.0192C16.83 30.1615 16.8068 30.3233 16.8329 30.4806C16.8591 30.6378 16.9331 30.782 17.044 30.8917C18.242 32.0598 19.8216 32.7061 21.4603 32.6987C21.9329 34.9698 23.6909 36.5966 25.0046 37.7964C25.5599 38.3049 26.3184 38.9986 26.3633 39.2775C26.362 39.2972 26.362 39.317 26.3633 39.3368C26.3633 39.3614 26.3633 39.3861 26.3633 39.4108C26.3685 39.4334 26.3748 39.4556 26.3822 39.4775C26.3879 39.5018 26.395 39.5257 26.4035 39.5491C26.4035 39.5688 26.4224 39.5836 26.4295 39.6009L26.4696 39.6774L26.4933 39.707C26.5134 39.7358 26.5355 39.7631 26.5594 39.7885C26.6855 39.9189 26.8546 39.994 27.032 39.9983H27.0627C27.2043 39.998 27.3425 39.9534 27.4596 39.8702C27.5767 39.7871 27.6672 39.6692 27.7196 39.5318C27.7339 39.4906 27.7458 39.4486 27.7551 39.4059V39.3417C27.7564 39.3211 27.7564 39.3005 27.7551 39.28C27.7976 39.006 28.5585 38.3074 29.1137 37.7988C30.4181 36.5991 32.1855 34.9698 32.6581 32.6987C34.2568 32.6786 35.7906 32.0349 36.9586 30.8942C37.0695 30.7845 37.1435 30.6403 37.1697 30.483C37.1958 30.3258 37.1726 30.164 37.1035 30.0216C37.0345 29.8793 36.9232 29.764 36.7864 29.6931C36.6496 29.6221 36.4945 29.5992 36.3442 29.6278L36.3513 29.6254ZM28.1946 36.683C27.7645 37.078 27.3723 37.4359 27.0627 37.7865C26.7532 37.4359 26.3539 37.078 25.9309 36.683C24.7495 35.6018 23.3057 34.2712 22.8828 32.5654C24.406 32.2549 25.8264 31.538 27.006 30.4844C28.2118 31.5655 29.6719 32.2908 31.2356 32.5852C30.8079 34.2836 29.3666 35.6067 28.1946 36.683ZM27.4857 28.9588L27.4432 28.9243L27.3841 28.8774L27.3227 28.8403L27.2636 28.8107L27.1951 28.7885L27.1313 28.7688H27.0627H26.9966H26.9304H26.8595L26.7957 28.7885C26.773 28.7937 26.7509 28.8011 26.7296 28.8107C26.7082 28.8194 26.6876 28.8302 26.6681 28.8428L26.6067 28.8774L26.5476 28.9243L26.5075 28.9588C24.3808 31.0769 21.7108 31.7508 19.5842 30.867C20.5884 30.4128 21.2713 29.5167 21.8644 28.7367C22.4574 27.9566 23.0694 27.1543 23.8964 26.9395C25.6096 26.4952 26.3137 27.5443 26.3917 27.6801C26.4895 27.8463 26.6461 27.9654 26.8275 28.0116C27.0089 28.0578 27.2004 28.0274 27.3605 27.927C27.413 27.892 27.4614 27.8505 27.5046 27.8035L27.5353 27.7838C27.5591 27.7589 27.5805 27.7316 27.5991 27.7023L27.6133 27.6826C27.6889 27.5592 28.3907 26.5026 30.1109 26.942C30.9355 27.1568 31.5286 27.9294 32.1406 28.7391C32.7526 29.5488 33.4189 30.4153 34.4208 30.8695C32.2895 31.7508 29.6194 31.0769 27.4951 28.9588H27.4857Z" fill="url(#paint4_linear_1_197)"/>
</g>
</g>
<defs>
<linearGradient id="paint0_linear_1_197" x1="-7.5479" y1="29.1791" x2="40.5045" y2="20.2888" gradientUnits="userSpaceOnUse">
<stop stop-color="#FF6E11"/>
<stop offset="0.24" stop-color="#FF7311"/>
<stop offset="0.54" stop-color="#FF8211"/>
<stop offset="0.85" stop-color="#FF9A11"/>
<stop offset="1" stop-color="#FFA811"/>
</linearGradient>
<linearGradient id="paint1_linear_1_197" x1="26.9922" y1="6.98242" x2="26.9922" y2="27.3482" gradientUnits="userSpaceOnUse">
<stop stop-color="#FF7311"/>
<stop offset="1" stop-color="#FFA811"/>
</linearGradient>
<linearGradient id="paint2_linear_1_197" x1="23.7374" y1="22.0586" x2="23.7374" y2="23.916" gradientUnits="userSpaceOnUse">
<stop stop-color="#FF7311"/>
<stop offset="1" stop-color="#FFA811"/>
</linearGradient>
<linearGradient id="paint3_linear_1_197" x1="29.8004" y1="22.0566" x2="29.8004" y2="23.9148" gradientUnits="userSpaceOnUse">
<stop stop-color="#FF7311"/>
<stop offset="1" stop-color="#FFA811"/>
</linearGradient>
<linearGradient id="paint4_linear_1_197" x1="27.0013" y1="25.3477" x2="27.0013" y2="39.9983" gradientUnits="userSpaceOnUse">
<stop stop-color="#FF7311"/>
<stop offset="1" stop-color="#FFA811"/>
</linearGradient>
<clipPath id="clip0_1_197">
<rect width="53" height="46" fill="white"/>
</clipPath>
<clipPath id="clip1_1_197">
<rect width="24" height="33" fill="white" transform="translate(15 7)"/>
</clipPath>
</defs>
</svg>
