<svg width="41" height="40" viewBox="0 0 41 40" fill="none" xmlns="http://www.w3.org/2000/svg">
<g clip-path="url(#clip0_1230_45234)">
<path d="M34.654 12.8867H6.34598C2.84119 12.8867 0 15.7106 0 19.194V19.5573C0 23.0406 2.84119 25.8645 6.34598 25.8645H34.654C38.1588 25.8645 41 23.0406 41 19.5573V19.194C41 15.7106 38.1588 12.8867 34.654 12.8867Z" fill="url(#paint0_linear_1230_45234)"/>
<path d="M20.5467 6.08203H20.5389C13.1557 6.08203 7.17035 12.0308 7.17035 19.369V19.3767C7.17035 26.7149 13.1557 32.6637 20.5389 32.6637H20.5467C27.9299 32.6637 33.9152 26.7149 33.9152 19.3767V19.369C33.9152 12.0308 27.9299 6.08203 20.5467 6.08203Z" fill="white"/>
<path d="M20.5388 6.08397C24.0844 6.08397 27.4847 7.48386 29.9918 9.97565C32.4989 12.4674 33.9073 15.847 33.9073 19.3709C33.9073 22.8949 32.4989 26.2745 29.9918 28.7663C27.4847 31.2581 24.0844 32.6579 20.5388 32.6579C16.9933 32.6579 13.593 31.2581 11.0859 28.7663C8.57877 26.2745 7.17024 22.8949 7.17024 19.3709C7.17024 15.847 8.57877 12.4674 11.0859 9.97565C13.593 7.48386 16.9933 6.08397 20.5388 6.08397ZM20.5388 2.99219C17.2795 2.99219 14.0934 3.95279 11.3834 5.75251C8.67337 7.55223 6.5612 10.1103 5.31392 13.1031C4.06664 16.0959 3.74031 19.3891 4.37617 22.5663C5.01203 25.7434 6.58149 28.6619 8.88616 30.9525C11.1908 33.2431 14.1272 34.803 17.3238 35.435C20.5205 36.0669 23.834 35.7426 26.8452 34.5029C29.8564 33.2633 32.4301 31.164 34.2409 28.4705C36.0516 25.777 37.0181 22.6103 37.0181 19.3709C37.012 15.0289 35.2738 10.8665 32.1847 7.79621C29.0956 4.72593 24.9075 2.99832 20.5388 2.99219Z" fill="url(#paint1_linear_1230_45234)"/>
<path d="M14.5584 20.0873C16.139 20.0873 17.4204 18.8138 17.4204 17.2429C17.4204 15.6719 16.139 14.3984 14.5584 14.3984C12.9779 14.3984 11.6965 15.6719 11.6965 17.2429C11.6965 18.8138 12.9779 20.0873 14.5584 20.0873Z" fill="url(#paint2_linear_1230_45234)"/>
<path d="M26.4416 20.0873C28.0222 20.0873 29.3035 18.8138 29.3035 17.2429C29.3035 15.6719 28.0222 14.3984 26.4416 14.3984C24.861 14.3984 23.5797 15.6719 23.5797 17.2429C23.5797 18.8138 24.861 20.0873 26.4416 20.0873Z" fill="url(#paint3_linear_1230_45234)"/>
<path d="M24.4352 23.4805C24.3901 24.4867 23.9562 25.4368 23.2239 26.133C22.4916 26.8292 21.5173 27.2178 20.5039 27.2178C19.4905 27.2178 18.5162 26.8292 17.7839 26.133C17.0515 25.4368 16.6177 24.4867 16.5727 23.4805H24.4352Z" fill="url(#paint4_linear_1230_45234)"/>
<path opacity="0.22" d="M39.5224 23.5898C38.6274 27.5216 36.5207 31.0779 33.4956 33.763C30.4706 36.4482 26.678 38.1284 22.6465 38.5696C22.4541 39.0583 22.0957 39.4649 21.6335 39.7187C21.1713 39.9726 20.6344 40.0579 20.1156 39.9597C19.5969 39.8616 19.129 39.5862 18.793 39.1813C18.457 38.7763 18.274 38.2674 18.2758 37.7425C18.2779 37.1466 18.517 36.5757 18.9409 36.1543C19.3649 35.7329 19.9394 35.4953 20.5389 35.4932C20.8818 35.493 21.2201 35.5724 21.5266 35.7251C22.007 35.9514 22.3902 36.3406 22.6075 36.8227C25.8724 36.4362 28.9652 35.1563 31.5412 33.1256C34.1172 31.0948 36.0752 28.393 37.1971 25.3212C38.0988 24.9346 38.8956 24.3413 39.5224 23.5898Z" fill="url(#paint5_linear_1230_45234)"/>
<path opacity="0.22" d="M39.5457 15.1875C38.9203 14.4238 38.1204 13.8196 37.2126 13.4251C35.9812 10.0093 33.718 7.05496 30.7327 4.96628C27.7474 2.8776 24.1858 1.75659 20.535 1.75659C16.8842 1.75659 13.3226 2.8776 10.3373 4.96628C7.35197 7.05496 5.08874 10.0093 3.85731 13.4251C2.96051 13.7846 2.16131 14.3485 1.52423 15.0715C2.49279 10.775 4.90869 6.93605 8.37186 4.19026C11.835 1.44448 16.1379 -0.0434431 20.5679 -0.0272124C24.998 -0.0109816 29.2896 1.50844 32.7323 4.27952C36.175 7.05061 38.5624 10.9072 39.4991 15.2107L39.5457 15.1875Z" fill="url(#paint6_linear_1230_45234)"/>
</g>
<defs>
<linearGradient id="paint0_linear_1230_45234" x1="0" y1="19.3795" x2="41" y2="19.3795" gradientUnits="userSpaceOnUse">
<stop stop-color="#FF6E11"/>
<stop offset="0.24" stop-color="#FF7311"/>
<stop offset="0.54" stop-color="#FF8211"/>
<stop offset="0.85" stop-color="#FF9A11"/>
<stop offset="1" stop-color="#FFA811"/>
</linearGradient>
<linearGradient id="paint1_linear_1230_45234" x1="4.05952" y1="19.3709" x2="37.0181" y2="19.3709" gradientUnits="userSpaceOnUse">
<stop stop-color="#FF6E11"/>
<stop offset="0.24" stop-color="#FF7311"/>
<stop offset="0.54" stop-color="#FF8211"/>
<stop offset="0.85" stop-color="#FF9A11"/>
<stop offset="1" stop-color="#FFA811"/>
</linearGradient>
<linearGradient id="paint2_linear_1230_45234" x1="11.6965" y1="17.2429" x2="17.4281" y2="17.2429" gradientUnits="userSpaceOnUse">
<stop stop-color="#FF6E11"/>
<stop offset="0.24" stop-color="#FF7311"/>
<stop offset="0.54" stop-color="#FF8211"/>
<stop offset="0.85" stop-color="#FF9A11"/>
<stop offset="1" stop-color="#FFA811"/>
</linearGradient>
<linearGradient id="paint3_linear_1230_45234" x1="23.5797" y1="17.2429" x2="29.3113" y2="17.2429" gradientUnits="userSpaceOnUse">
<stop stop-color="#FF6E11"/>
<stop offset="0.24" stop-color="#FF7311"/>
<stop offset="0.54" stop-color="#FF8211"/>
<stop offset="0.85" stop-color="#FF9A11"/>
<stop offset="1" stop-color="#FFA811"/>
</linearGradient>
<linearGradient id="paint4_linear_1230_45234" x1="16.5727" y1="25.3278" x2="24.4352" y2="25.3278" gradientUnits="userSpaceOnUse">
<stop stop-color="#FF6E11"/>
<stop offset="0.24" stop-color="#FF7311"/>
<stop offset="0.54" stop-color="#FF8211"/>
<stop offset="0.85" stop-color="#FF9A11"/>
<stop offset="1" stop-color="#FFA811"/>
</linearGradient>
<linearGradient id="paint5_linear_1230_45234" x1="18.2758" y1="31.7908" x2="39.5224" y2="31.7908" gradientUnits="userSpaceOnUse">
<stop stop-color="#FF6E11"/>
<stop offset="0.24" stop-color="#FF7311"/>
<stop offset="0.54" stop-color="#FF8211"/>
<stop offset="0.85" stop-color="#FF9A11"/>
<stop offset="1" stop-color="#FFA811"/>
</linearGradient>
<linearGradient id="paint6_linear_1230_45234" x1="1.57089" y1="7.58944" x2="39.5457" y2="7.58944" gradientUnits="userSpaceOnUse">
<stop stop-color="#FF6E11"/>
<stop offset="0.24" stop-color="#FF7311"/>
<stop offset="0.54" stop-color="#FF8211"/>
<stop offset="0.85" stop-color="#FF9A11"/>
<stop offset="1" stop-color="#FFA811"/>
</linearGradient>
<clipPath id="clip0_1230_45234">
<rect width="41" height="40" fill="white"/>
</clipPath>
</defs>
</svg>
