<svg width="34" height="28" viewBox="0 0 34 28" fill="none" xmlns="http://www.w3.org/2000/svg">
<g clip-path="url(#clip0_474_46848)">
<path d="M29.4502 2L31.0002 5.45L21.9502 19.23L21.5202 23.84L11.3902 24.31L11.0902 19.88L2.22021 4.67L2.44021 2.76L5.35021 2H29.4502Z" fill="white"/>
<path d="M32.8901 2.57005C32.4826 1.79334 31.8701 1.14313 31.1191 0.690046C30.368 0.236961 29.5072 -0.00168398 28.6301 4.35601e-05H4.82012C3.93979 -0.00726145 3.07434 0.227199 2.31806 0.677839C1.56179 1.12848 0.943681 1.77804 0.531108 2.55574C0.118535 3.33344 -0.0726791 4.20945 -0.0217179 5.08833C0.0292434 5.96722 0.32043 6.81525 0.820125 7.54005L9.11012 19.6101V23.75C9.11276 24.6908 9.48763 25.5922 10.1528 26.2574C10.818 26.9226 11.7194 27.2974 12.6601 27.3001H20.7301C21.6708 27.2974 22.5723 26.9226 23.2374 26.2574C23.9026 25.5922 24.2775 24.6908 24.2801 23.75V19.6101L32.6301 7.54005C33.1257 6.81539 33.4121 5.96826 33.458 5.09157C33.5038 4.21487 33.3074 3.34246 32.8901 2.57005ZM20.3101 23.3001H13.1401V20.9901H20.3101V23.3001ZM29.3101 5.30006L21.3101 17.0101H12.2401L4.24012 5.30006C4.15698 5.17738 4.10863 5.03445 4.10023 4.88649C4.09183 4.73852 4.12369 4.59103 4.19242 4.45973C4.26115 4.32843 4.36417 4.21821 4.49055 4.14079C4.61693 4.06337 4.76192 4.02165 4.91012 4.02006H28.6301C28.7783 4.02165 28.9233 4.06337 29.0497 4.14079C29.1761 4.21821 29.2791 4.32843 29.3478 4.45973C29.4166 4.59103 29.4484 4.73852 29.44 4.88649C29.4316 5.03445 29.3833 5.17738 29.3001 5.30006H29.3101Z" fill="url(#paint0_linear_474_46848)"/>
<path d="M16.5499 15.76C19.1401 15.76 21.2399 14.8736 21.2399 13.78C21.2399 12.6865 19.1401 11.8 16.5499 11.8C13.9596 11.8 11.8599 12.6865 11.8599 13.78C11.8599 14.8736 13.9596 15.76 16.5499 15.76Z" fill="url(#paint1_linear_474_46848)"/>
<path d="M16.55 11.36C18.2455 11.36 19.62 9.98549 19.62 8.28997C19.62 6.59446 18.2455 5.21997 16.55 5.21997C14.8545 5.21997 13.48 6.59446 13.48 8.28997C13.48 9.98549 14.8545 11.36 16.55 11.36Z" fill="url(#paint2_linear_474_46848)"/>
</g>
<defs>
<linearGradient id="paint0_linear_474_46848" x1="16.7301" y1="30.0401" x2="16.7301" y2="5.94005" gradientUnits="userSpaceOnUse">
<stop stop-color="#FF6E11"/>
<stop offset="0.24" stop-color="#FF7311"/>
<stop offset="0.54" stop-color="#FF8211"/>
<stop offset="0.85" stop-color="#FF9A11"/>
<stop offset="1" stop-color="#FFA811"/>
</linearGradient>
<linearGradient id="paint1_linear_474_46848" x1="16.5499" y1="16.4" x2="16.5499" y2="6.95005" gradientUnits="userSpaceOnUse">
<stop stop-color="#FF6E11"/>
<stop offset="0.24" stop-color="#FF7311"/>
<stop offset="0.54" stop-color="#FF8211"/>
<stop offset="0.85" stop-color="#FF9A11"/>
<stop offset="1" stop-color="#FFA811"/>
</linearGradient>
<linearGradient id="paint2_linear_474_46848" x1="16.55" y1="17.23" x2="16.55" y2="7.78997" gradientUnits="userSpaceOnUse">
<stop stop-color="#FF6E11"/>
<stop offset="0.24" stop-color="#FF7311"/>
<stop offset="0.54" stop-color="#FF8211"/>
<stop offset="0.85" stop-color="#FF9A11"/>
<stop offset="1" stop-color="#FFA811"/>
</linearGradient>
<clipPath id="clip0_474_46848">
<rect width="33.45" height="27.29" fill="white"/>
</clipPath>
</defs>
</svg>
