<svg width="32" height="27" viewBox="0 0 32 27" fill="none" xmlns="http://www.w3.org/2000/svg">
<g clip-path="url(#clip0_899_41885)">
<path d="M7.99586 5.54568C8.8905 5.54568 9.61575 4.82044 9.61575 3.9258C9.61575 3.03116 8.8905 2.30591 7.99586 2.30591C7.10122 2.30591 6.37598 3.03116 6.37598 3.9258C6.37598 4.82044 7.10122 5.54568 7.99586 5.54568Z" fill="white"/>
<path d="M7.99588 2.30589C8.31789 2.30475 8.63301 2.3993 8.90123 2.57749C9.16945 2.75568 9.37868 3.00949 9.50244 3.30677C9.62619 3.60405 9.65889 3.93142 9.59634 4.2473C9.5338 4.56319 9.37885 4.85335 9.15115 5.08105C8.92345 5.30875 8.63325 5.4637 8.31737 5.52625C8.00148 5.58879 7.67415 5.55613 7.37687 5.43237C7.07959 5.30862 6.82578 5.09935 6.64759 4.83113C6.4694 4.56291 6.37485 4.24779 6.37599 3.92578C6.37599 3.49616 6.54668 3.08415 6.85046 2.78037C7.15425 2.47658 7.56626 2.30589 7.99588 2.30589ZM7.99588 4.22152e-06C7.2178 -0.00113582 6.4569 0.228652 5.80948 0.660217C5.16206 1.09178 4.65726 1.70573 4.35897 2.42436C4.06069 3.14299 3.98234 3.93396 4.13386 4.69714C4.28537 5.46033 4.65992 6.16141 5.2101 6.7116C5.76028 7.26178 6.46137 7.63632 7.22455 7.78784C7.98773 7.93936 8.7787 7.86101 9.49733 7.56273C10.216 7.26444 10.8299 6.75964 11.2615 6.11222C11.693 5.4648 11.9228 4.70386 11.9217 3.92578C11.9201 2.88507 11.5061 1.88744 10.7702 1.15154C10.0343 0.415646 9.03659 0.00152908 7.99588 4.22152e-06Z" fill="url(#paint0_linear_899_41885)"/>
<path d="M15.5014 5.20602C16.2082 5.20602 16.7812 4.63305 16.7812 3.92625C16.7812 3.21946 16.2082 2.64648 15.5014 2.64648C14.7947 2.64648 14.2217 3.21946 14.2217 3.92625C14.2217 4.63305 14.7947 5.20602 15.5014 5.20602Z" fill="white"/>
<path d="M15.5016 2.65184C15.7549 2.65185 16.0026 2.72704 16.2132 2.86791C16.4237 3.00879 16.5878 3.20901 16.6845 3.44319C16.7812 3.67737 16.8062 3.93501 16.7563 4.18341C16.7065 4.43182 16.584 4.65985 16.4045 4.8386C16.2249 5.01734 15.9963 5.13876 15.7477 5.18749C15.4991 5.23622 15.2416 5.21005 15.0078 5.1123C14.7741 5.01455 14.5746 4.84961 14.4347 4.63839C14.2948 4.42718 14.2207 4.17918 14.2218 3.92582C14.2218 3.75803 14.2549 3.59191 14.3193 3.43696C14.3837 3.28202 14.4781 3.14132 14.597 3.02294C14.7159 2.90456 14.857 2.81084 15.0123 2.74716C15.1675 2.68347 15.3338 2.65108 15.5016 2.65184ZM15.5016 0.345952C14.7919 0.344812 14.0979 0.554269 13.5073 0.947828C12.9168 1.34139 12.4563 1.90134 12.1842 2.55677C11.9121 3.2122 11.8406 3.93362 11.9788 4.6297C12.1169 5.32579 12.4586 5.96522 12.9604 6.46703C13.4622 6.96884 14.1016 7.31049 14.7977 7.44866C15.4938 7.58683 16.2152 7.51532 16.8707 7.24322C17.5261 6.97111 18.086 6.51062 18.4796 5.92008C18.8731 5.32954 19.0826 4.63549 19.0815 3.92582C19.08 2.97685 18.7023 2.06719 18.0312 1.39616C17.3602 0.725126 16.4506 0.347476 15.5016 0.345952Z" fill="url(#paint1_linear_899_41885)"/>
<path d="M15.9508 6.15137H7.51121C4.63627 6.15137 2.30566 8.48197 2.30566 11.3569V18.9318C2.30566 21.8067 4.63627 24.1373 7.51121 24.1373H15.9508C18.8257 24.1373 21.1563 21.8067 21.1563 18.9318V11.3569C21.1563 8.48197 18.8257 6.15137 15.9508 6.15137Z" fill="white"/>
<path d="M15.9508 6.15092C17.3268 6.15092 18.6465 6.69754 19.6194 7.67053C20.5924 8.64352 21.139 9.96316 21.139 11.3392V18.9313C21.139 20.3073 20.5924 21.627 19.6194 22.6C18.6465 23.5729 17.3268 24.1196 15.9508 24.1196H7.51123C6.13522 24.1196 4.81558 23.5729 3.84259 22.6C2.8696 21.627 2.32298 20.3073 2.32298 18.9313V11.3564C2.32298 9.98044 2.8696 8.66079 3.84259 7.6878C4.81558 6.71482 6.13522 6.1682 7.51123 6.1682H15.9508M15.9508 3.8623H7.51123C5.52366 3.8623 3.6175 4.65187 2.21208 6.05729C0.806652 7.46272 0.0170898 9.36888 0.0170898 11.3564V18.9313C0.0170898 20.9189 0.806652 22.825 2.21208 24.2305C3.6175 25.6359 5.52366 26.4255 7.51123 26.4255H15.9508C17.936 26.4179 19.8378 25.6259 21.2416 24.2221C22.6453 22.8183 23.4373 20.9165 23.4449 18.9313V11.3564C23.4449 9.36888 22.6554 7.46272 21.25 6.05729C19.8445 4.65187 17.9383 3.8623 15.9508 3.8623Z" fill="url(#paint2_linear_899_41885)"/>
<path d="M20.2977 16.1012L28.034 20.5688C28.2021 20.6659 28.3928 20.717 28.587 20.7171C28.7811 20.7172 28.9719 20.6662 29.1401 20.5692C29.3083 20.4722 29.4481 20.3328 29.5453 20.1647C29.6426 19.9967 29.6939 19.806 29.6942 19.6119V10.6765C29.6939 10.4824 29.6426 10.2917 29.5453 10.1237C29.4481 9.95562 29.3083 9.81613 29.1401 9.71917C28.9719 9.62222 28.7811 9.57122 28.587 9.57129C28.3928 9.57136 28.2021 9.62252 28.034 9.71959L20.2977 14.1873C20.1302 14.2846 19.9912 14.4242 19.8945 14.5922C19.7979 14.7601 19.7471 14.9504 19.7471 15.1442C19.7471 15.3379 19.7979 15.5283 19.8945 15.6962C19.9912 15.8642 20.1302 16.0038 20.2977 16.1012Z" fill="white"/>
<path d="M28.5872 9.56948C28.8807 9.56948 29.1622 9.68607 29.3698 9.89364C29.5774 10.1012 29.694 10.3827 29.694 10.6763V19.6116C29.694 19.9052 29.5774 20.1867 29.3698 20.3943C29.1622 20.6019 28.8807 20.7184 28.5872 20.7184C28.3852 20.7198 28.1864 20.6682 28.0107 20.5686L20.2744 16.1009C20.1069 16.0036 19.9679 15.8639 19.8713 15.696C19.7746 15.5281 19.7238 15.3377 19.7238 15.144C19.7238 14.9502 19.7746 14.7599 19.8713 14.5919C19.9679 14.424 20.1069 14.2844 20.2744 14.187L28.0107 9.71937C28.1853 9.61711 28.3849 9.56523 28.5872 9.56948ZM28.5872 7.26359C27.9799 7.26071 27.3829 7.41991 26.8578 7.72476L19.1215 12.1867C18.6032 12.4863 18.1728 12.9171 17.8737 13.4357C17.5745 13.9542 17.417 14.5424 17.417 15.1411C17.417 15.7398 17.5745 16.3279 17.8737 16.8465C18.1728 17.3651 18.6032 17.7958 19.1215 18.0955L26.8578 22.5632C27.376 22.8644 27.9645 23.0236 28.5639 23.0246C29.1633 23.0257 29.7523 22.8686 30.2716 22.5692C30.7909 22.2698 31.222 21.8387 31.5214 21.3194C31.8208 20.8001 31.9779 20.211 31.9768 19.6116V10.6763C31.9753 9.77166 31.6153 8.90449 30.9756 8.26482C30.3359 7.62514 29.4687 7.26511 28.5641 7.26359H28.5872Z" fill="url(#paint3_linear_899_41885)"/>
<path d="M16.5158 16.1006L10.9874 19.2884C10.8193 19.3855 10.6285 19.4367 10.4344 19.4368C10.2402 19.4368 10.0495 19.3858 9.88128 19.2888C9.71307 19.1919 9.57331 19.0524 9.47605 18.8843C9.37879 18.7163 9.32743 18.5257 9.32715 18.3315V11.95C9.32743 11.7558 9.37879 11.5651 9.47605 11.3971C9.57331 11.2291 9.71307 11.0896 9.88128 10.9926C10.0495 10.8957 10.2402 10.8447 10.4344 10.8447C10.6285 10.8448 10.8193 10.8959 10.9874 10.993L16.5158 14.1867C16.6833 14.284 16.8223 14.4237 16.9189 14.5916C17.0156 14.7595 17.0664 14.9499 17.0664 15.1436C17.0664 15.3374 17.0156 15.5277 16.9189 15.6957C16.8223 15.8636 16.6833 16.0032 16.5158 16.1006Z" fill="white"/>
<path d="M10.4341 10.8603C10.6364 10.8561 10.8359 10.9079 11.0106 11.0102L16.5389 14.2038C16.7064 14.3012 16.8455 14.4408 16.9421 14.6088C17.0387 14.7767 17.0896 14.9671 17.0896 15.1608C17.0896 15.3546 17.0387 15.5449 16.9421 15.7128C16.8455 15.8808 16.7064 16.0204 16.5389 16.1177L11.0106 19.3057C10.8424 19.4027 10.6517 19.4538 10.4575 19.4539C10.2634 19.454 10.0726 19.403 9.90442 19.306C9.73621 19.2091 9.59645 19.0696 9.49919 18.9015C9.40193 18.7335 9.35061 18.5428 9.35033 18.3487V11.9499C9.35033 11.6563 9.46692 11.3748 9.67449 11.1672C9.88206 10.9596 10.1636 10.843 10.4571 10.843M10.4571 8.53711C9.5525 8.53863 8.68534 8.89869 8.04566 9.53837C7.40598 10.1781 7.04596 11.0452 7.04443 11.9499V18.3545C7.04412 18.9537 7.20156 19.5424 7.50096 20.0615C7.80036 20.5805 8.23114 21.0116 8.75 21.3113C9.26885 21.611 9.85748 21.7689 10.4567 21.769C11.0559 21.7691 11.6446 21.6114 12.1635 21.3118L17.6919 18.1181C18.2087 17.8173 18.6376 17.3861 18.9357 16.8677C19.2338 16.3492 19.3906 15.7617 19.3906 15.1637C19.3906 14.5657 19.2338 13.9781 18.9357 13.4597C18.6376 12.9413 18.2087 12.5101 17.6919 12.2093L12.1635 9.02136C11.6375 8.71856 11.041 8.55952 10.4341 8.56019L10.4571 8.53711Z" fill="url(#paint4_linear_899_41885)"/>
<path opacity="0.51" d="M16.5158 16.1006L10.9874 19.2884C10.8193 19.3855 10.6285 19.4367 10.4344 19.4368C10.2402 19.4368 10.0495 19.3858 9.88128 19.2888C9.71307 19.1919 9.57331 19.0524 9.47605 18.8843C9.37879 18.7163 9.32743 18.5257 9.32715 18.3315V11.95C9.32743 11.7558 9.37879 11.5651 9.47605 11.3971C9.57331 11.2291 9.71307 11.0896 9.88128 10.9926C10.0495 10.8957 10.2402 10.8447 10.4344 10.8447C10.6285 10.8448 10.8193 10.8959 10.9874 10.993L16.5158 14.1867C16.6833 14.284 16.8223 14.4237 16.9189 14.5916C17.0156 14.7595 17.0664 14.9499 17.0664 15.1436C17.0664 15.3374 17.0156 15.5277 16.9189 15.6957C16.8223 15.8636 16.6833 16.0032 16.5158 16.1006Z" fill="url(#paint5_linear_899_41885)"/>
</g>
<defs>
<linearGradient id="paint0_linear_899_41885" x1="4.07012" y1="3.92579" x2="11.9217" y2="3.92579" gradientUnits="userSpaceOnUse">
<stop stop-color="#FF6E11"/>
<stop offset="0.24" stop-color="#FF7311"/>
<stop offset="0.54" stop-color="#FF8211"/>
<stop offset="0.85" stop-color="#FF9A11"/>
<stop offset="1" stop-color="#FFA811"/>
</linearGradient>
<linearGradient id="paint1_linear_899_41885" x1="11.9159" y1="3.92585" x2="19.0815" y2="3.92585" gradientUnits="userSpaceOnUse">
<stop stop-color="#FF6E11"/>
<stop offset="0.24" stop-color="#FF7311"/>
<stop offset="0.54" stop-color="#FF8211"/>
<stop offset="0.85" stop-color="#FF9A11"/>
<stop offset="1" stop-color="#FFA811"/>
</linearGradient>
<linearGradient id="paint2_linear_899_41885" x1="-0.000204317" y1="15.1439" x2="23.4622" y2="15.1439" gradientUnits="userSpaceOnUse">
<stop stop-color="#FF6E11"/>
<stop offset="0.24" stop-color="#FF7311"/>
<stop offset="0.54" stop-color="#FF8211"/>
<stop offset="0.85" stop-color="#FF9A11"/>
<stop offset="1" stop-color="#FFA811"/>
</linearGradient>
<linearGradient id="paint3_linear_899_41885" x1="24.719" y1="23.0243" x2="24.719" y2="7.26359" gradientUnits="userSpaceOnUse">
<stop stop-color="#FF6E11"/>
<stop offset="0.24" stop-color="#FF7311"/>
<stop offset="0.54" stop-color="#FF8211"/>
<stop offset="0.85" stop-color="#FF9A11"/>
<stop offset="1" stop-color="#FFA811"/>
</linearGradient>
<linearGradient id="paint4_linear_899_41885" x1="13.1954" y1="21.7441" x2="13.1954" y2="8.53711" gradientUnits="userSpaceOnUse">
<stop stop-color="#FF6E11"/>
<stop offset="0.24" stop-color="#FF7311"/>
<stop offset="0.54" stop-color="#FF8211"/>
<stop offset="0.85" stop-color="#FF9A11"/>
<stop offset="1" stop-color="#FFA811"/>
</linearGradient>
<linearGradient id="paint5_linear_899_41885" x1="9.32715" y1="15.1436" x2="17.0634" y2="15.1436" gradientUnits="userSpaceOnUse">
<stop stop-color="#FF6E11"/>
<stop offset="0.24" stop-color="#FF7311"/>
<stop offset="0.54" stop-color="#FF8211"/>
<stop offset="0.85" stop-color="#FF9A11"/>
<stop offset="1" stop-color="#FFA811"/>
</linearGradient>
<clipPath id="clip0_899_41885">
<rect width="32" height="26.4428" fill="white"/>
</clipPath>
</defs>
</svg>
