<svg width="37" height="35" viewBox="0 0 37 35" fill="none" xmlns="http://www.w3.org/2000/svg">
<g clip-path="url(#clip0_1230_45279)">
<path d="M14.6607 34.9905C22.7576 34.9905 29.3215 31.3917 29.3215 26.9523C29.3215 22.5129 22.7576 18.9141 14.6607 18.9141C6.56384 18.9141 0 22.5129 0 26.9523C0 31.3917 6.56384 34.9905 14.6607 34.9905Z" fill="#FFD99C"/>
<path d="M14.6608 17.8227C19.676 17.8227 23.7416 13.8329 23.7416 8.91133C23.7416 3.98974 19.676 0 14.6608 0C9.64567 0 5.58008 3.98974 5.58008 8.91133C5.58008 13.8329 9.64567 17.8227 14.6608 17.8227Z" fill="#FFD99C"/>
<path d="M34.6597 34.6489C34.3056 34.6505 33.9577 34.5567 33.6542 34.3776C33.3507 34.1986 33.103 33.9412 32.9383 33.6335L24.3121 17.5C24.0749 17.0533 24.0282 16.5323 24.1824 16.0518C24.3365 15.5713 24.6789 15.1705 25.1341 14.9377C25.5894 14.7049 26.1202 14.659 26.6099 14.8103C27.0996 14.9616 27.508 15.2976 27.7452 15.7443L36.3715 31.8778C36.4891 32.0989 36.5612 32.3407 36.5836 32.5892C36.606 32.8378 36.5782 33.0882 36.5018 33.3262C36.4255 33.5642 36.302 33.785 36.1386 33.9762C35.9752 34.1673 35.775 34.325 35.5494 34.4401C35.2755 34.5822 34.9695 34.654 34.6597 34.6489Z" fill="url(#paint0_linear_1230_45279)"/>
<path d="M26.0335 25.4739C31.022 25.4739 35.0659 21.5054 35.0659 16.61C35.0659 11.7146 31.022 7.74609 26.0335 7.74609C21.045 7.74609 17.0011 11.7146 17.0011 16.61C17.0011 21.5054 21.045 25.4739 26.0335 25.4739Z" fill="white"/>
<path d="M26.0334 27.3598C23.864 27.3617 21.7427 26.7321 19.938 25.5507C18.1333 24.3693 16.7262 22.6892 15.8947 20.7229C15.0632 18.7565 14.8446 16.5924 15.2667 14.5042C15.6887 12.4159 16.7324 10.4974 18.2657 8.9914C19.7991 7.48537 21.7531 6.45945 23.8806 6.04343C26.0082 5.62741 28.2137 5.83997 30.2181 6.65423C32.2226 7.4685 33.9359 8.84788 35.1413 10.6179C36.3468 12.3879 36.9902 14.469 36.9902 16.5979C36.9902 19.4505 35.8361 22.1864 33.7816 24.2044C31.7271 26.2223 28.9402 27.3573 26.0334 27.3598ZM26.0334 9.64154C24.6286 9.63966 23.2549 10.0468 22.0861 10.8115C20.9174 11.5762 20.006 12.6641 19.4676 13.9373C18.9291 15.2105 18.7878 16.6119 19.0613 17.964C19.3349 19.3161 20.0112 20.5582 21.0044 21.5329C21.9977 22.5077 23.2634 23.1713 24.6412 23.4398C26.0191 23.7083 27.4471 23.5695 28.7446 23.0411C30.042 22.5127 31.1505 21.6184 31.9297 20.4715C32.7089 19.3245 33.1239 17.9764 33.1219 16.5979C33.1194 14.7537 32.3718 12.9858 31.0429 11.6818C29.7141 10.3777 27.9126 9.64405 26.0334 9.64154Z" fill="url(#paint1_linear_1230_45279)"/>
<path d="M26.6911 11.8526C26.6906 12.0516 26.7538 12.2457 26.8718 12.4075C26.9898 12.5692 27.1566 12.6906 27.3487 12.7542C28.109 13.0028 28.7804 13.4607 29.2828 14.0733C29.3619 14.1799 29.4651 14.2671 29.5842 14.328C29.7033 14.3889 29.8352 14.4219 29.9695 14.4245H30.0758C30.2513 14.416 30.4211 14.3608 30.567 14.2648C30.7129 14.1688 30.8294 14.0355 30.904 13.8794C30.9785 13.7233 31.0084 13.5502 30.9903 13.3787C30.9721 13.2072 30.9067 13.0438 30.8011 12.9061C30.076 12.0005 29.0983 11.3213 27.987 10.9511C27.8402 10.899 27.6827 10.8826 27.5281 10.9032C27.3734 10.9237 27.2261 10.9807 27.0988 11.0693C26.9715 11.1579 26.8679 11.2754 26.7969 11.4118C26.7259 11.5482 26.6896 11.6995 26.6911 11.8526Z" fill="#FFD99C"/>
<path d="M25.3082 12.6134C25.837 12.6134 26.2656 12.1928 26.2656 11.6739C26.2656 11.155 25.837 10.7344 25.3082 10.7344C24.7795 10.7344 24.3508 11.155 24.3508 11.6739C24.3508 12.1928 24.7795 12.6134 25.3082 12.6134Z" fill="#FFD99C"/>
</g>
<defs>
<linearGradient id="paint0_linear_1230_45279" x1="24.0897" y1="24.6747" x2="36.5842" y2="24.6747" gradientUnits="userSpaceOnUse">
<stop stop-color="#FE7511"/>
<stop offset="1" stop-color="#FFA011"/>
</linearGradient>
<linearGradient id="paint1_linear_1230_45279" x1="15.0668" y1="16.6074" x2="36.9902" y2="16.6074" gradientUnits="userSpaceOnUse">
<stop stop-color="#FE6F11"/>
<stop offset="1" stop-color="#FFA511"/>
</linearGradient>
<clipPath id="clip0_1230_45279">
<rect width="37" height="35" fill="white"/>
</clipPath>
</defs>
</svg>
