<svg width="27" height="23" viewBox="0 0 27 23" fill="none" xmlns="http://www.w3.org/2000/svg">
<path opacity="0.45" d="M17.4842 0H6.21314C2.78171 0 0 2.78172 0 6.21314V13.6317C0 17.0632 2.78171 19.8449 6.21314 19.8449H17.4842C20.9156 19.8449 23.6973 17.0632 23.6973 13.6317V6.21314C23.6973 2.78172 20.9156 0 17.4842 0Z" fill="url(#paint0_linear_90_7710)"/>
<path d="M20.2968 4.24023H9.19155C6.68664 4.24023 4.65601 6.27086 4.65601 8.77577V16.0186C4.65601 18.5235 6.68664 20.5541 9.19155 20.5541H20.2968C22.8018 20.5541 24.8324 18.5235 24.8324 16.0186V8.77577C24.8324 6.27086 22.8018 4.24023 20.2968 4.24023Z" fill="white"/>
<path d="M20.3018 4.23816C21.5008 4.23816 22.6506 4.71442 23.4983 5.56218C24.3461 6.40993 24.8223 7.55972 24.8223 8.75863V16.0014C24.8223 17.2003 24.3461 18.3502 23.4983 19.1979C22.6506 20.0457 21.5008 20.5219 20.3018 20.5219H9.19656C7.99766 20.5219 6.84783 20.0457 6.00008 19.1979C5.15233 18.3502 4.67609 17.2003 4.67609 16.0014V8.77371C4.67609 7.57481 5.15233 6.42501 6.00008 5.57726C6.84783 4.72951 7.99766 4.25324 9.19656 4.25324H20.3018M20.3018 2.24414H9.19656C7.46481 2.24414 5.80399 2.93208 4.57946 4.15661C3.35493 5.38114 2.66699 7.04196 2.66699 8.77371V16.0165C2.66699 17.7483 3.35493 19.4091 4.57946 20.6336C5.80399 21.8581 7.46481 22.5461 9.19656 22.5461H20.3018C22.0336 22.5461 23.6944 21.8581 24.919 20.6336C26.1435 19.4091 26.8314 17.7483 26.8314 16.0165V8.77371C26.8248 7.044 26.1348 5.38701 24.9117 4.16391C23.6886 2.94081 22.0316 2.25076 20.3018 2.24414Z" fill="url(#paint1_linear_90_7710)"/>
<path d="M15.4199 10.9581C15.2029 11.1097 15.0296 11.3159 14.9176 11.5558L14.9678 11.6311C15.1288 11.8749 15.2346 12.1508 15.278 12.4397C15.3213 12.7286 15.3012 13.0234 15.219 13.3037C15.1071 13.6952 14.8816 14.0448 14.571 14.3082L14.3902 14.4439C14.3299 14.479 14.2646 14.5192 14.1993 14.5493C13.8406 14.7338 13.4339 14.8039 13.0341 14.7502C12.744 14.7147 12.4652 14.6162 12.2171 14.4618C11.969 14.3074 11.7576 14.1007 11.5976 13.8562L10.1912 11.7115C9.86883 11.2872 9.72822 10.7522 9.80028 10.2243C9.87233 9.69632 10.1512 9.21861 10.5755 8.89624C10.9997 8.57387 11.5347 8.43325 12.0627 8.50531C12.5906 8.57737 13.0683 8.85621 13.3907 9.28049C13.5796 9.09522 13.7847 8.92713 14.0035 8.77821C14.2163 8.63883 14.4417 8.51944 14.6765 8.42159C14.1143 7.69978 13.2947 7.22323 12.3893 7.09159C11.4838 6.95995 10.5625 7.18342 9.818 7.71523C9.07345 8.24705 8.56326 9.04607 8.39413 9.94527C8.22499 10.8445 8.41001 11.7743 8.91044 12.5402L10.3168 14.6849C10.7065 15.2785 11.2669 15.7401 11.924 16.0091C12.5812 16.2781 13.3044 16.3418 13.9985 16.1918C14.3653 16.1204 14.717 15.9861 15.0382 15.795C15.1029 15.763 15.165 15.7261 15.224 15.6845C15.2883 15.6467 15.3488 15.603 15.4048 15.5539C15.7058 15.3335 15.9687 15.0654 16.1834 14.7603C16.594 14.1809 16.8195 13.4907 16.8303 12.7806C16.841 12.0705 16.6365 11.3739 16.2436 10.7823L16.1934 10.7019C15.9166 10.7125 15.6484 10.8013 15.4199 10.9581Z" fill="url(#paint2_linear_90_7710)"/>
<path d="M14.9576 8.88659C14.9124 8.88659 14.8621 8.92174 14.8169 8.94686C14.7346 8.97533 14.6555 9.01239 14.5809 9.05737C14.4804 9.1076 14.38 9.16786 14.2846 9.22813C14.1926 9.28892 14.1037 9.35431 14.0183 9.42402L13.7722 9.64L13.727 9.69024C13.1486 10.263 12.7869 11.0187 12.7035 11.8284C12.6202 12.6382 12.8204 13.4517 13.27 14.1303L13.3202 14.2107C13.5354 14.2122 13.7476 14.1604 13.938 14.06C14.0336 14.0061 14.1244 13.9439 14.2092 13.8742C14.3749 13.7374 14.5086 13.5659 14.601 13.3719L14.5458 13.2865C14.3864 13.043 14.2819 12.7677 14.2394 12.4798C14.1969 12.1919 14.2174 11.8982 14.2996 11.619C14.2996 11.5486 14.3449 11.4783 14.37 11.408C14.3951 11.3377 14.4001 11.3427 14.4152 11.3226C14.531 11.0683 14.7027 10.8434 14.9174 10.6647C14.985 10.6039 15.0572 10.5485 15.1334 10.4989C15.2092 10.4475 15.2901 10.4038 15.3745 10.3683C15.4557 10.3262 15.5417 10.2941 15.6307 10.2729C15.8044 10.2092 15.9881 10.1769 16.1731 10.1774C16.2064 10.1723 16.2403 10.1723 16.2735 10.1774H16.4896C16.7792 10.2124 17.0577 10.3101 17.3057 10.4636C17.5538 10.6171 17.7655 10.8229 17.9261 11.0665L19.3374 13.2162C19.6591 13.6411 19.7989 14.1765 19.7259 14.7044C19.6529 15.2324 19.3731 15.7098 18.9482 16.0315C18.5233 16.3532 17.9879 16.4929 17.46 16.4199C16.932 16.3469 16.4547 16.0671 16.133 15.6422C16.007 15.7701 15.8709 15.8877 15.7261 15.9938C15.6613 16.0514 15.5906 16.1019 15.5151 16.1445C15.4423 16.1937 15.3668 16.239 15.2891 16.2801C15.1491 16.363 15.003 16.4352 14.8521 16.4961C15.4092 17.2295 16.2302 17.7171 17.1408 17.8552C18.0515 17.9934 18.9801 17.7712 19.7297 17.236C20.4793 16.7008 20.9908 15.8946 21.1558 14.9884C21.3207 14.0822 21.1261 13.1475 20.6132 12.3824L19.2018 10.2327C18.7546 9.55727 18.0895 9.05537 17.3173 8.81047C16.5452 8.56556 15.7124 8.59242 14.9576 8.88659Z" fill="url(#paint3_linear_90_7710)"/>
<defs>
<linearGradient id="paint0_linear_90_7710" x1="0" y1="9.91993" x2="23.6973" y2="9.91993" gradientUnits="userSpaceOnUse">
<stop stop-color="#FF6E11"/>
<stop offset="0.24" stop-color="#FF7311"/>
<stop offset="0.54" stop-color="#FF8211"/>
<stop offset="0.85" stop-color="#FF9A11"/>
<stop offset="1" stop-color="#FFA811"/>
</linearGradient>
<linearGradient id="paint1_linear_90_7710" x1="2.65192" y1="12.3951" x2="26.8465" y2="12.3951" gradientUnits="userSpaceOnUse">
<stop stop-color="#FF6E11"/>
<stop offset="0.24" stop-color="#FF7311"/>
<stop offset="0.54" stop-color="#FF8211"/>
<stop offset="0.85" stop-color="#FF9A11"/>
<stop offset="1" stop-color="#FFA811"/>
</linearGradient>
<linearGradient id="paint2_linear_90_7710" x1="9.76428" y1="6.88461" x2="12.6423" y2="11.8019" gradientUnits="userSpaceOnUse">
<stop stop-color="#FF6E11"/>
<stop offset="0.24" stop-color="#FF7311"/>
<stop offset="0.54" stop-color="#FF8211"/>
<stop offset="0.85" stop-color="#FF9A11"/>
<stop offset="1" stop-color="#FFA811"/>
</linearGradient>
<linearGradient id="paint3_linear_90_7710" x1="10.7686" y1="16.7623" x2="17.7503" y2="12.7993" gradientUnits="userSpaceOnUse">
<stop stop-color="#FF6E11"/>
<stop offset="0.24" stop-color="#FF7311"/>
<stop offset="0.54" stop-color="#FF8211"/>
<stop offset="0.85" stop-color="#FF9A11"/>
<stop offset="1" stop-color="#FFA811"/>
</linearGradient>
</defs>
</svg>
