<svg width="23" height="28" viewBox="0 0 23 28" fill="none" xmlns="http://www.w3.org/2000/svg">
<g clip-path="url(#clip0_1063_40517)">
<path d="M11.5008 27.7556C11.1504 27.7556 10.8144 27.6161 10.5666 27.3678C10.3189 27.1195 10.1797 26.7828 10.1797 26.4317V22.1754C10.1797 21.8243 10.3189 21.4876 10.5666 21.2393C10.8144 20.991 11.1504 20.8516 11.5008 20.8516C11.8511 20.8516 12.1871 20.991 12.4349 21.2393C12.6826 21.4876 12.8218 21.8243 12.8218 22.1754V26.4317C12.8218 26.7828 12.6826 27.1195 12.4349 27.3678C12.1871 27.6161 11.8511 27.7556 11.5008 27.7556Z" fill="url(#paint0_linear_1063_40517)"/>
<path d="M15.7675 27.9993H7.26639C6.91602 27.9993 6.58002 27.8598 6.33227 27.6115C6.08452 27.3633 5.94531 27.0266 5.94531 26.6754C5.94531 26.3243 6.08452 25.9876 6.33227 25.7393C6.58002 25.491 6.91602 25.3516 7.26639 25.3516H15.7675C16.1179 25.3516 16.454 25.491 16.7017 25.7393C16.9495 25.9876 17.0886 26.3243 17.0886 26.6754C17.0886 27.0266 16.9495 27.3633 16.7017 27.6115C16.454 27.8598 16.1179 27.9993 15.7675 27.9993Z" fill="url(#paint1_linear_1063_40517)"/>
<path d="M11.4868 2.64775C12.2206 2.64775 12.9473 2.7926 13.6253 3.07403C14.3033 3.35546 14.9193 3.76793 15.4382 4.28793C15.9571 4.80794 16.3688 5.42529 16.6496 6.10471C16.9304 6.78413 17.075 7.51233 17.075 8.24773V11.061C17.075 11.7964 16.9304 12.5246 16.6496 13.204C16.3688 13.8834 15.9571 14.5008 15.4382 15.0208C14.9193 15.5408 14.3033 15.9533 13.6253 16.2347C12.9473 16.5161 12.2206 16.661 11.4868 16.661C10.7533 16.661 10.0269 16.5161 9.34932 16.2346C8.6717 15.9531 8.05609 15.5405 7.53771 15.0204C7.01933 14.5003 6.60834 13.8829 6.32822 13.2035C6.04811 12.5241 5.90436 11.7961 5.90523 11.061V8.24773C5.90436 7.51264 6.04811 6.78458 6.32822 6.1052C6.60834 5.42581 7.01933 4.80843 7.53771 4.28834C8.05609 3.76824 8.6717 3.35566 9.34932 3.07415C10.0269 2.79264 10.7533 2.64775 11.4868 2.64775ZM11.4868 0C9.30566 0.00350493 7.21497 0.873786 5.67329 2.41997C4.13161 3.96616 3.26481 6.06197 3.26307 8.24773V11.061C3.2319 12.1633 3.42166 13.2607 3.82108 14.2883C4.22051 15.3158 4.82151 16.2527 5.58854 17.0435C6.35558 17.8342 7.27303 18.4628 8.2867 18.892C9.30037 19.3212 10.3897 19.5424 11.4901 19.5424C12.5905 19.5424 13.6798 19.3212 14.6935 18.892C15.7072 18.4628 16.6246 17.8342 17.3917 17.0435C18.1587 16.2527 18.7597 15.3158 19.1591 14.2883C19.5585 13.2607 19.7483 12.1633 19.7171 11.061V8.24773C19.7154 6.06083 18.8477 3.964 17.3046 2.41763C15.7615 0.871253 13.6691 0.00175303 11.4868 0Z" fill="url(#paint2_linear_1063_40517)"/>
<path d="M17.1944 8.82859C19.033 8.82859 20.5235 7.33494 20.5235 5.49242C20.5235 3.6499 19.033 2.15625 17.1944 2.15625C15.3557 2.15625 13.8652 3.6499 13.8652 5.49242C13.8652 7.33494 15.3557 8.82859 17.1944 8.82859Z" fill="white"/>
<g opacity="0.22">
<path d="M15.266 8.30701C15.266 6.21956 13.5774 4.52734 11.4943 4.52734C9.4113 4.52734 7.72266 6.21956 7.72266 8.30701V11.0077C7.72266 13.0952 9.4113 14.7874 11.4943 14.7874C13.5774 14.7874 15.266 13.0952 15.266 11.0077V8.30701Z" fill="url(#paint3_linear_1063_40517)"/>
</g>
<path d="M11.4934 23.4989C4.22746 23.4989 0.838885 18.541 0.0528427 15.9197C-0.0487652 15.5835 -0.0129499 15.2206 0.152424 14.9109C0.317797 14.6012 0.599197 14.37 0.934678 14.2682C1.27016 14.1664 1.63226 14.2022 1.94133 14.368C2.2504 14.5337 2.48111 14.8156 2.58272 15.1518C2.66199 15.3968 4.44544 20.8512 11.4934 20.8512C18.5414 20.8512 20.3446 15.3769 20.4173 15.1453C20.5198 14.8091 20.7513 14.5274 21.061 14.3623C21.3707 14.1972 21.7332 14.1622 22.0687 14.2649C22.4041 14.3676 22.6851 14.5996 22.8499 14.91C23.0147 15.2203 23.0496 15.5835 22.9471 15.9197C22.1545 18.541 18.7395 23.4989 11.4934 23.4989Z" fill="url(#paint4_linear_1063_40517)"/>
<path d="M17.0753 2.64775C17.571 2.64645 18.0559 2.79261 18.4686 3.06777C18.8813 3.34293 19.2032 3.73467 19.3935 4.19336C19.5838 4.65204 19.6339 5.15703 19.5375 5.64429C19.4411 6.13156 19.2026 6.57918 18.8521 6.93044C18.5016 7.28169 18.0549 7.52075 17.5686 7.61734C17.0824 7.71393 16.5785 7.66369 16.1208 7.47299C15.6631 7.28229 15.2722 6.95971 14.9976 6.54614C14.723 6.13256 14.5771 5.64661 14.5784 5.14986C14.5802 4.48679 14.8438 3.8514 15.3117 3.38254C15.7795 2.91367 16.4136 2.6495 17.0753 2.64775ZM17.0753 0C16.0573 8.40536e-07 15.0622 0.302584 14.2158 0.869481C13.3695 1.43638 12.71 2.24208 12.3207 3.18469C11.9315 4.1273 11.83 5.16446 12.029 6.16491C12.2281 7.16535 12.7189 8.08414 13.4391 8.80503C14.1594 9.52591 15.0769 10.0165 16.0755 10.2147C17.0741 10.4129 18.1089 10.3099 19.049 9.91857C19.9891 9.52728 20.7923 8.86532 21.3569 8.01647C21.9215 7.16762 22.2222 6.17 22.2209 5.14986C22.2191 3.78342 21.6763 2.47355 20.7115 1.50795C19.7467 0.542346 18.4389 -1.12586e-06 17.0753 0Z" fill="url(#paint5_linear_1063_40517)"/>
</g>
<defs>
<linearGradient id="paint0_linear_1063_40517" x1="10.1797" y1="24.3069" x2="12.8218" y2="24.3069" gradientUnits="userSpaceOnUse">
<stop stop-color="#FF6E11"/>
<stop offset="0.24" stop-color="#FF7311"/>
<stop offset="0.54" stop-color="#FF8211"/>
<stop offset="0.85" stop-color="#FF9A11"/>
<stop offset="1" stop-color="#FFA811"/>
</linearGradient>
<linearGradient id="paint1_linear_1063_40517" x1="5.94531" y1="26.6754" x2="17.0886" y2="26.6754" gradientUnits="userSpaceOnUse">
<stop stop-color="#FF6E11"/>
<stop offset="0.24" stop-color="#FF7311"/>
<stop offset="0.54" stop-color="#FF8211"/>
<stop offset="0.85" stop-color="#FF9A11"/>
<stop offset="1" stop-color="#FFA811"/>
</linearGradient>
<linearGradient id="paint2_linear_1063_40517" x1="3.26307" y1="9.65106" x2="19.7171" y2="9.65106" gradientUnits="userSpaceOnUse">
<stop stop-color="#FF6E11"/>
<stop offset="0.24" stop-color="#FF7311"/>
<stop offset="0.54" stop-color="#FF8211"/>
<stop offset="0.85" stop-color="#FF9A11"/>
<stop offset="1" stop-color="#FFA811"/>
</linearGradient>
<linearGradient id="paint3_linear_1063_40517" x1="7.72266" y1="9.65075" x2="15.2594" y2="9.65075" gradientUnits="userSpaceOnUse">
<stop stop-color="#FF6E11"/>
<stop offset="0.24" stop-color="#FF7311"/>
<stop offset="0.54" stop-color="#FF8211"/>
<stop offset="0.85" stop-color="#FF9A11"/>
<stop offset="1" stop-color="#FFA811"/>
</linearGradient>
<linearGradient id="paint4_linear_1063_40517" x1="-2.95525e-06" y1="18.8587" x2="23" y2="18.8587" gradientUnits="userSpaceOnUse">
<stop stop-color="#FF6E11"/>
<stop offset="0.24" stop-color="#FF7311"/>
<stop offset="0.54" stop-color="#FF8211"/>
<stop offset="0.85" stop-color="#FF9A11"/>
<stop offset="1" stop-color="#FFA811"/>
</linearGradient>
<linearGradient id="paint5_linear_1063_40517" x1="11.9363" y1="5.14988" x2="22.2209" y2="5.14988" gradientUnits="userSpaceOnUse">
<stop stop-color="#FF6E11"/>
<stop offset="0.24" stop-color="#FF7311"/>
<stop offset="0.54" stop-color="#FF8211"/>
<stop offset="0.85" stop-color="#FF9A11"/>
<stop offset="1" stop-color="#FFA811"/>
</linearGradient>
<clipPath id="clip0_1063_40517">
<rect width="23" height="28" fill="white"/>
</clipPath>
</defs>
</svg>
