<svg width="31" height="26" viewBox="0 0 31 26" fill="none" xmlns="http://www.w3.org/2000/svg">
<path d="M25.778 6.95875V16.8958C25.7828 18.1099 25.3169 19.2785 24.4783 20.1563C24.0431 20.6238 23.516 20.9963 22.9301 21.2505C22.3441 21.5048 21.7121 21.6353 21.0734 21.6338H6.93151C6.29209 21.6347 5.65932 21.504 5.07259 21.2498C4.48586 20.9956 3.95771 20.6234 3.52102 20.1563C2.68436 19.2772 2.21878 18.1094 2.2212 16.8958V6.95875C2.21825 5.70605 2.71269 4.50339 3.59587 3.615C4.47906 2.72661 5.67882 2.22512 6.93151 2.2207H21.0734C21.6934 2.22289 22.3069 2.34718 22.8789 2.58647C23.4508 2.82577 23.9701 3.17537 24.407 3.61534C24.8438 4.05531 25.1898 4.57701 25.4251 5.15067C25.6603 5.72433 25.7802 6.33873 25.778 6.95875Z" fill="white"/>
<path d="M21.074 2.22182C21.694 2.224 22.3075 2.3483 22.8795 2.58759C23.4515 2.82688 23.9707 3.17649 24.4076 3.61645C24.8445 4.05642 25.1904 4.57812 25.4257 5.15179C25.6609 5.72545 25.7809 6.33984 25.7787 6.95986V16.8969C25.7834 18.111 25.3175 19.2796 24.4789 20.1575C24.0437 20.6249 23.5166 20.9974 22.9307 21.2517C22.3448 21.5059 21.7127 21.6364 21.074 21.635H6.93213C6.29271 21.6358 5.65993 21.5051 5.0732 21.2509C4.48647 20.9967 3.95833 20.6245 3.52163 20.1575C2.68498 19.2784 2.21939 18.1105 2.22182 16.8969V6.95986C2.21887 5.70716 2.7133 4.50451 3.59649 3.61612C4.47967 2.72772 5.67944 2.22623 6.93213 2.22182H21.074ZM21.074 0H6.93213C5.09063 0.00588283 3.32663 0.741933 2.02709 2.04668C0.727546 3.35142 -0.001478 5.11835 2.24979e-06 6.95986V16.8969C-0.001478 18.7385 0.727546 20.5054 2.02709 21.8101C3.32663 23.1148 5.09063 23.8509 6.93213 23.8568H21.074C21.9858 23.8546 22.8882 23.6728 23.7297 23.3219C24.5713 22.971 25.3355 22.4577 25.9787 21.8114C26.6219 21.1651 27.1315 20.3985 27.4784 19.5553C27.8253 18.712 28.0027 17.8087 28.0005 16.8969V6.95986C28.002 5.11931 27.2738 3.35323 25.9754 2.04865C24.6771 0.744058 22.9145 0.00734985 21.074 0Z" fill="url(#paint0_linear_899_41851)"/>
<path d="M30.0938 8.79414V19.8421C30.0953 21.2339 29.5458 22.5696 28.5653 23.5574C27.5848 24.5451 26.2531 25.1046 24.8614 25.1134H9.14208C7.7499 25.106 6.41736 24.5471 5.43657 23.559C4.45578 22.5709 3.90672 21.2343 3.90968 19.8421V8.79414C3.90673 7.40245 4.45596 6.06643 5.43691 5.07923C6.41785 4.09204 7.75041 3.53432 9.14208 3.52844H24.8614C26.2531 3.53432 27.5856 4.09204 28.5666 5.07923C29.5475 6.06643 30.0968 7.40245 30.0938 8.79414Z" fill="url(#paint1_linear_899_41851)"/>
<path d="M16.824 21.9066C21.1555 21.9066 24.667 18.3952 24.667 14.0636C24.667 9.73202 21.1555 6.22058 16.824 6.22058C12.4924 6.22058 8.98096 9.73202 8.98096 14.0636C8.98096 18.3952 12.4924 21.9066 16.824 21.9066Z" fill="white"/>
<path d="M16.7083 7.28894C15.348 7.28784 14.0179 7.69021 12.8863 8.44514C11.7548 9.20008 10.8725 10.2737 10.3512 11.5301C9.82986 12.7865 9.69294 14.1693 9.95764 15.5036C10.2223 16.8379 10.8768 18.0637 11.8383 19.0259C12.7997 19.9882 14.025 20.6437 15.3591 20.9095C16.6932 21.1753 18.0761 21.0394 19.333 20.5191C20.5898 19.9988 21.6641 19.1174 22.4199 17.9865C23.1758 16.8555 23.5792 15.5258 23.5792 14.1655C23.58 13.2627 23.4028 12.3686 23.0578 11.5344C22.7128 10.7001 22.2068 9.942 21.5687 9.30338C20.9306 8.66476 20.1729 8.15814 19.3389 7.8125C18.5049 7.46685 17.611 7.28894 16.7083 7.28894ZM16.7582 20.2644C15.5586 20.2633 14.3862 19.9065 13.3893 19.239C12.3924 18.5716 11.6159 17.6236 11.1578 16.5149C10.6998 15.4061 10.5807 14.1864 10.8158 13.01C11.051 11.8336 11.6297 10.7534 12.4787 9.90589C13.3278 9.05838 14.4091 8.48168 15.5859 8.24872C16.7627 8.01575 17.9822 8.13699 19.0901 8.59709C20.198 9.0572 21.1446 9.83551 21.8102 10.8336C22.4758 11.8317 22.8305 13.0047 22.8294 14.2044C22.8294 15.0006 22.6725 15.7891 22.3676 16.5247C22.0627 17.2603 21.6157 17.9286 21.0524 18.4914C20.4891 19.0542 19.8204 19.5005 19.0845 19.8047C18.3487 20.1089 17.5601 20.2651 16.7638 20.2644H16.7582Z" fill="url(#paint2_linear_899_41851)"/>
<path d="M20.3577 12.6379L15.8585 10.0384C15.5902 9.88346 15.2858 9.80185 14.9759 9.80176C14.666 9.80166 14.3616 9.88308 14.0932 10.0379C13.8247 10.1926 13.6016 10.4153 13.4464 10.6835C13.2912 10.9517 13.2094 11.256 13.209 11.5659V16.7649C13.2094 17.0748 13.2912 17.3791 13.4464 17.6473C13.6016 17.9156 13.8247 18.1382 14.0932 18.293C14.3616 18.4478 14.666 18.5292 14.9759 18.5291C15.2858 18.529 15.5902 18.4474 15.8585 18.2924L20.3577 15.6929C20.6266 15.5387 20.85 15.3163 21.0054 15.0481C21.1608 14.7799 21.2426 14.4754 21.2426 14.1654C21.2426 13.8554 21.1608 13.551 21.0054 13.2828C20.85 13.0146 20.6266 12.7921 20.3577 12.6379Z" fill="url(#paint3_linear_899_41851)"/>
<defs>
<linearGradient id="paint0_linear_899_41851" x1="2.24992e-06" y1="11.9256" x2="28.0005" y2="11.9256" gradientUnits="userSpaceOnUse">
<stop stop-color="#FF6E11"/>
<stop offset="0.24" stop-color="#FF7311"/>
<stop offset="0.54" stop-color="#FF8211"/>
<stop offset="0.85" stop-color="#FF9A11"/>
<stop offset="1" stop-color="#FFA811"/>
</linearGradient>
<linearGradient id="paint1_linear_899_41851" x1="3.92079" y1="14.3431" x2="30.1049" y2="14.3431" gradientUnits="userSpaceOnUse">
<stop offset="0.01" stop-color="#FFBF94"/>
<stop offset="0.08" stop-color="#FFC294"/>
<stop offset="0.54" stop-color="#FFCE94"/>
<stop offset="1" stop-color="#FFD294"/>
</linearGradient>
<linearGradient id="paint2_linear_899_41851" x1="16.7083" y1="23.0472" x2="16.7083" y2="5.81699" gradientUnits="userSpaceOnUse">
<stop stop-color="#FF6E11"/>
<stop offset="0.24" stop-color="#FF7311"/>
<stop offset="0.54" stop-color="#FF8211"/>
<stop offset="0.85" stop-color="#FF9A11"/>
<stop offset="1" stop-color="#FFA811"/>
</linearGradient>
<linearGradient id="paint3_linear_899_41851" x1="17.2249" y1="6.36685" x2="17.2249" y2="19.7311" gradientUnits="userSpaceOnUse">
<stop stop-color="#FF6E11"/>
<stop offset="0.24" stop-color="#FF7311"/>
<stop offset="0.54" stop-color="#FF8211"/>
<stop offset="0.85" stop-color="#FF9A11"/>
<stop offset="1" stop-color="#FFA811"/>
</linearGradient>
</defs>
</svg>
