<svg width="27" height="27" viewBox="0 0 27 27" fill="none" xmlns="http://www.w3.org/2000/svg">
<g clip-path="url(#clip0_682_556)">
<path opacity="0.5" d="M14.7661 2.19714H7.15479C4.41683 2.19714 2.19727 4.4167 2.19727 7.15467V18.2165C2.19727 20.9545 4.41683 23.174 7.15479 23.174H14.7661C17.5041 23.174 19.7237 20.9545 19.7237 18.2165V7.15467C19.7237 4.4167 17.5041 2.19714 14.7661 2.19714Z" fill="url(#paint0_linear_682_556)"/>
<path d="M14.766 2.20728C15.4172 2.20662 16.0622 2.3344 16.664 2.5833C17.2658 2.8322 17.8125 3.19734 18.273 3.65783C18.7335 4.11831 19.0987 4.66507 19.3476 5.26685C19.5965 5.86862 19.7242 6.5136 19.7235 7.16482V18.2266C19.7235 19.5415 19.2012 20.8024 18.2715 21.7322C17.3418 22.6619 16.0808 23.1842 14.766 23.1842H7.15466C5.83984 23.1842 4.57893 22.6619 3.64921 21.7322C2.7195 20.8024 2.19718 19.5415 2.19718 18.2266V7.16482C2.19652 6.5136 2.32426 5.86862 2.57317 5.26685C2.82207 4.66507 3.18718 4.11831 3.64766 3.65783C4.10815 3.19734 4.65494 2.8322 5.25671 2.5833C5.85849 2.3344 6.50344 2.20662 7.15466 2.20728H14.766ZM14.766 0.0101318H7.15466C5.25795 0.0128165 3.43969 0.767494 2.09851 2.10867C0.757331 3.44985 0.00268466 5.26811 0 7.16482V18.2266C0.00268466 20.1234 0.757331 21.9416 2.09851 23.2828C3.43969 24.624 5.25795 25.3786 7.15466 25.3813H14.766C16.6627 25.3786 18.481 24.624 19.8222 23.2828C21.1633 21.9416 21.918 20.1234 21.9207 18.2266V7.16482C21.918 5.26811 21.1633 3.44985 19.8222 2.10867C18.481 0.767494 16.6627 0.0128165 14.766 0.0101318Z" fill="url(#paint1_linear_682_556)"/>
<path d="M13.594 8.61607H6.6778C6.39934 8.59713 6.13848 8.47317 5.94794 8.26923C5.7574 8.06529 5.65137 7.79661 5.65137 7.51751C5.65137 7.23841 5.7574 6.9697 5.94794 6.76576C6.13848 6.56182 6.39934 6.43785 6.6778 6.41892H13.594C13.7445 6.40868 13.8956 6.42951 14.0377 6.48008C14.1799 6.53066 14.3101 6.60991 14.4204 6.71292C14.5307 6.81594 14.6186 6.9405 14.6787 7.0789C14.7388 7.21731 14.7698 7.36662 14.7698 7.51751C14.7698 7.6684 14.7388 7.81768 14.6787 7.95609C14.6186 8.09449 14.5307 8.21905 14.4204 8.32207C14.3101 8.42508 14.1799 8.50433 14.0377 8.5549C13.8956 8.60548 13.7445 8.62631 13.594 8.61607Z" fill="white"/>
<path d="M13.594 13.6954H6.6778C6.39934 13.6764 6.13848 13.5525 5.94794 13.3485C5.7574 13.1446 5.65137 12.8759 5.65137 12.5968C5.65137 12.3177 5.7574 12.049 5.94794 11.845C6.13848 11.6411 6.39934 11.5171 6.6778 11.4982H13.594C13.7445 11.488 13.8956 11.5088 14.0377 11.5593C14.1799 11.6099 14.3101 11.6892 14.4204 11.7922C14.5307 11.8952 14.6186 12.0198 14.6787 12.1582C14.7388 12.2966 14.7698 12.4459 14.7698 12.5968C14.7698 12.7477 14.7388 12.897 14.6787 13.0354C14.6186 13.1738 14.5307 13.2983 14.4204 13.4014C14.3101 13.5044 14.1799 13.5836 14.0377 13.6342C13.8956 13.6848 13.7445 13.7056 13.594 13.6954Z" fill="white"/>
<path d="M10.2454 18.7747H6.69342C6.41496 18.7557 6.15405 18.6317 5.96351 18.4278C5.77296 18.2239 5.66699 17.9552 5.66699 17.6761C5.66699 17.397 5.77296 17.1283 5.96351 16.9244C6.15405 16.7204 6.41496 16.5965 6.69342 16.5775H10.2454C10.5238 16.5965 10.7847 16.7204 10.9752 16.9244C11.1658 17.1283 11.2718 17.397 11.2718 17.6761C11.2718 17.9552 11.1658 18.2239 10.9752 18.4278C10.7847 18.6317 10.5238 18.7557 10.2454 18.7747Z" fill="white"/>
<path d="M20.1544 5.75928C20.1544 5.55426 20.0733 5.35754 19.9288 5.21209C19.7843 5.06664 19.5882 4.98425 19.3832 4.98291H19.3324C19.1273 4.98425 18.9312 5.06664 18.7867 5.21209C18.6422 5.35754 18.5611 5.55426 18.5611 5.75928V19.5409C17.6531 19.3074 16.6913 19.4083 15.8515 19.825C14.1617 20.6166 13.2738 22.2759 13.8624 23.5394C14.451 24.8029 16.3031 25.1784 17.9877 24.3868C19.2766 23.783 20.0986 22.6717 20.1494 21.6163C20.1494 21.6163 20.1494 21.5808 20.1494 21.5655V11.5236C21.2251 12.8784 23.1228 14.0252 23.0924 15.9636C23.082 16.5838 22.9968 17.2006 22.8387 17.8004C22.8106 17.9089 22.822 18.0237 22.8709 18.1245C22.9197 18.2253 23.0028 18.3054 23.1053 18.3506C23.2078 18.3957 23.323 18.4029 23.4303 18.3709C23.5377 18.339 23.6301 18.2698 23.6912 18.1759C24.405 17.0154 24.7761 15.6768 24.7618 14.3144C24.7669 10.1485 20.1544 8.17969 20.1544 5.75928Z" fill="white"/>
<path d="M19.3838 4.98287C19.5889 4.98421 19.785 5.06661 19.9295 5.21206C20.074 5.35751 20.1551 5.55422 20.1551 5.75925C20.1551 8.17966 24.7676 10.1485 24.7676 14.3144C24.7819 15.6768 24.4107 17.0154 23.6969 18.1759C23.6585 18.2446 23.6026 18.3018 23.5348 18.3419C23.4671 18.382 23.39 18.4035 23.3113 18.4042C23.2372 18.4053 23.1639 18.3892 23.0972 18.357C23.0305 18.3249 22.9722 18.2776 22.9269 18.2191C22.8816 18.1605 22.8506 18.0921 22.8363 18.0195C22.822 17.9468 22.8247 17.8718 22.8444 17.8004C23.0025 17.2005 23.0877 16.5838 23.0981 15.9635C23.1286 14.0252 21.2308 12.8784 20.1551 11.5236V21.5655C20.1551 21.5655 20.1551 21.601 20.1551 21.6162C20.1043 22.6717 19.2824 23.7829 17.9935 24.3868C17.4374 24.6539 16.8294 24.796 16.2124 24.8029C15.742 24.8368 15.2716 24.736 14.8564 24.5123C14.4412 24.2885 14.0984 23.951 13.8681 23.5394C13.2795 22.2759 14.1675 20.6166 15.8572 19.825C16.412 19.5598 17.0183 19.4195 17.6332 19.414C17.9487 19.4135 18.2628 19.4562 18.5668 19.5409V5.75925C18.5668 5.55334 18.6487 5.35589 18.7943 5.21029C18.9399 5.0647 19.1373 4.98287 19.3432 4.98287H19.3889M19.3889 2.79083H19.3432C18.5555 2.79083 17.7999 3.10339 17.2424 3.65993C16.6849 4.21647 16.3711 4.9715 16.3697 5.75925V17.3539C15.8705 17.4577 15.3852 17.6195 14.9236 17.8359C12.0972 19.1603 10.7576 22.0729 11.879 24.4679C12.2825 25.2614 12.9054 25.9223 13.6736 26.3721C14.4418 26.8218 15.323 27.0415 16.2124 27.0051C17.1516 26.9985 18.078 26.7873 18.9271 26.386C20.8807 25.4727 22.2152 23.6865 22.3421 21.8192C22.3481 21.7364 22.3481 21.6533 22.3421 21.5705V20.4238C22.6479 20.5428 22.973 20.6047 23.3011 20.6065C23.7553 20.6064 24.2017 20.4892 24.5973 20.2661C24.9929 20.0429 25.3242 19.7215 25.5591 19.3328C26.4849 17.8255 26.9684 16.0883 26.9546 14.3195C26.9546 11.1176 25.0264 8.97123 23.6259 7.40329C23.123 6.91055 22.691 6.35045 22.3421 5.73896C22.3354 4.95609 22.0197 4.20755 21.4638 3.65634C20.9078 3.10513 20.1566 2.79585 19.3737 2.79588L19.3889 2.79083Z" fill="url(#paint2_linear_682_556)"/>
</g>
<defs>
<linearGradient id="paint0_linear_682_556" x1="2.19727" y1="12.6856" x2="19.7237" y2="12.6856" gradientUnits="userSpaceOnUse">
<stop stop-color="#FF6E11"/>
<stop offset="0.24" stop-color="#FF7311"/>
<stop offset="0.54" stop-color="#FF8211"/>
<stop offset="0.85" stop-color="#FF9A11"/>
<stop offset="1" stop-color="#FFA811"/>
</linearGradient>
<linearGradient id="paint1_linear_682_556" x1="0" y1="12.6856" x2="21.9207" y2="12.6856" gradientUnits="userSpaceOnUse">
<stop stop-color="#FF6E11"/>
<stop offset="0.24" stop-color="#FF7311"/>
<stop offset="0.54" stop-color="#FF8211"/>
<stop offset="0.85" stop-color="#FF9A11"/>
<stop offset="1" stop-color="#FFA811"/>
</linearGradient>
<linearGradient id="paint2_linear_682_556" x1="11.4782" y1="14.8929" x2="26.9647" y2="14.8929" gradientUnits="userSpaceOnUse">
<stop stop-color="#FF6E11"/>
<stop offset="0.24" stop-color="#FF7311"/>
<stop offset="0.54" stop-color="#FF8211"/>
<stop offset="0.85" stop-color="#FF9A11"/>
<stop offset="1" stop-color="#FFA811"/>
</linearGradient>
<clipPath id="clip0_682_556">
<rect width="26.9594" height="27" fill="white"/>
</clipPath>
</defs>
</svg>
