<svg width="27" height="23" viewBox="0 0 27 23" fill="none" xmlns="http://www.w3.org/2000/svg">
<path opacity="0.45" d="M17.4842 0H6.21314C2.78171 0 0 2.78172 0 6.21314V13.6317C0 17.0632 2.78171 19.8449 6.21314 19.8449H17.4842C20.9156 19.8449 23.6973 17.0632 23.6973 13.6317V6.21314C23.6973 2.78172 20.9156 0 17.4842 0Z" fill="url(#paint0_linear_90_7703)"/>
<path d="M20.2968 4.24609H9.19155C6.68664 4.24609 4.65601 6.27672 4.65601 8.78163V16.0244C4.65601 18.5293 6.68664 20.56 9.19155 20.56H20.2968C22.8017 20.56 24.8324 18.5293 24.8324 16.0244V8.78163C24.8324 6.27672 22.8017 4.24609 20.2968 4.24609Z" fill="white"/>
<path d="M20.3018 4.24014C21.5008 4.24014 22.6506 4.71641 23.4983 5.56416C24.3461 6.41191 24.8223 7.56171 24.8223 8.76061V16.0034C24.8223 17.2023 24.3461 18.3521 23.4983 19.1999C22.6506 20.0476 21.5008 20.5239 20.3018 20.5239H9.19656C7.99766 20.5239 6.84783 20.0476 6.00008 19.1999C5.15233 18.3521 4.67609 17.2023 4.67609 16.0034V8.77566C4.67609 7.57676 5.15233 6.42696 6.00008 5.57921C6.84783 4.73146 7.99766 4.25519 9.19656 4.25519H20.3018M20.3018 2.24609H9.19656C7.46481 2.24609 5.80399 2.93403 4.57946 4.15856C3.35493 5.3831 2.66699 7.04391 2.66699 8.77566V16.0185C2.66699 17.7502 3.35493 19.4111 4.57946 20.6356C5.80399 21.8601 7.46481 22.5481 9.19656 22.5481H20.3018C22.0336 22.5481 23.6944 21.8601 24.919 20.6356C26.1435 19.4111 26.8314 17.7502 26.8314 16.0185V8.77566C26.8314 7.04391 26.1435 5.3831 24.919 4.15856C23.6944 2.93403 22.0336 2.24609 20.3018 2.24609Z" fill="url(#paint1_linear_90_7703)"/>
<path opacity="0.45" d="M18.8101 6.66016H10.6883C9.06553 6.66016 7.75 7.97568 7.75 9.59846V15.1938C7.75 16.8166 9.06553 18.1321 10.6883 18.1321H18.8101C20.4329 18.1321 21.7484 16.8166 21.7484 15.1938V9.59846C21.7484 7.97568 20.4329 6.66016 18.8101 6.66016Z" fill="url(#paint2_linear_90_7703)"/>
<path d="M16.8361 13.3018L14.0988 14.879C13.9526 14.9639 13.7867 15.0088 13.6176 15.009C13.4486 15.0091 13.2825 14.9647 13.1362 14.88C12.9899 14.7954 12.8686 14.6736 12.7845 14.527C12.7003 14.3804 12.6565 14.2142 12.6572 14.0452V10.8859C12.658 10.7175 12.7028 10.5522 12.7873 10.4064C12.8718 10.2607 12.9929 10.1397 13.1387 10.0554C13.2845 9.97104 13.4499 9.92636 13.6183 9.92579C13.7867 9.92522 13.9524 9.96878 14.0988 10.0521L16.8361 11.6343C16.9821 11.7191 17.1032 11.8407 17.1874 11.9871C17.2716 12.1334 17.3159 12.2993 17.3159 12.4681C17.3159 12.6369 17.2716 12.8027 17.1874 12.949C17.1032 13.0953 16.9821 13.217 16.8361 13.3018Z" fill="white"/>
<path d="M13.6216 9.92125C13.7981 9.91591 13.9724 9.96123 14.1239 10.0518L16.8613 11.634C17.0073 11.7188 17.1284 11.8405 17.2126 11.9868C17.2968 12.1331 17.3411 12.299 17.3411 12.4678C17.3411 12.6366 17.2968 12.8024 17.2126 12.9488C17.1284 13.0951 17.0073 13.2167 16.8613 13.3015L14.1239 14.8787C13.9724 14.9693 13.7981 15.0146 13.6216 15.0093C13.495 15.0093 13.3696 14.9843 13.2526 14.9359C13.1356 14.8874 13.0293 14.8164 12.9398 14.7268C12.8502 14.6373 12.7791 14.531 12.7307 14.414C12.6822 14.297 12.6573 14.1716 12.6573 14.0449V10.8856C12.6573 10.759 12.6822 10.6336 12.7307 10.5166C12.7791 10.3996 12.8502 10.2933 12.9398 10.2037C13.0293 10.1142 13.1356 10.0431 13.2526 9.99464C13.3696 9.94618 13.495 9.92125 13.6216 9.92125ZM13.6216 7.91215C12.8334 7.91348 12.0779 8.22716 11.5206 8.78451C10.9632 9.34185 10.6495 10.0974 10.6482 10.8856V14.0449C10.6484 14.5663 10.7857 15.0784 11.0463 15.5299C11.3069 15.9815 11.6816 16.3566 12.1329 16.6176C12.5842 16.8786 13.0963 17.0164 13.6176 17.0171C14.139 17.0178 14.6514 16.8814 15.1034 16.6216L17.8407 15.0394C18.2923 14.7783 18.6673 14.403 18.9279 13.9512C19.1886 13.4994 19.3259 12.9869 19.3259 12.4653C19.3259 11.9436 19.1886 11.4312 18.9279 10.9794C18.6673 10.5275 18.2923 10.1522 17.8407 9.89111L15.1034 8.31396C14.6459 8.04812 14.1257 7.9094 13.5965 7.91215H13.6216Z" fill="url(#paint3_linear_90_7703)"/>
<defs>
<linearGradient id="paint0_linear_90_7703" x1="0" y1="9.92495" x2="23.6973" y2="9.92495" gradientUnits="userSpaceOnUse">
<stop stop-color="#FF6E11"/>
<stop offset="0.24" stop-color="#FF7311"/>
<stop offset="0.54" stop-color="#FF8211"/>
<stop offset="0.85" stop-color="#FF9A11"/>
<stop offset="1" stop-color="#FFA811"/>
</linearGradient>
<linearGradient id="paint1_linear_90_7703" x1="2.65192" y1="12.3971" x2="26.8465" y2="12.3971" gradientUnits="userSpaceOnUse">
<stop stop-color="#FF6E11"/>
<stop offset="0.24" stop-color="#FF7311"/>
<stop offset="0.54" stop-color="#FF8211"/>
<stop offset="0.85" stop-color="#FF9A11"/>
<stop offset="1" stop-color="#FFA811"/>
</linearGradient>
<linearGradient id="paint2_linear_90_7703" x1="7.75" y1="12.4012" x2="21.7434" y2="12.4012" gradientUnits="userSpaceOnUse">
<stop stop-color="#FF6E11"/>
<stop offset="0.24" stop-color="#FF7311"/>
<stop offset="0.54" stop-color="#FF8211"/>
<stop offset="0.85" stop-color="#FF9A11"/>
<stop offset="1" stop-color="#FFA811"/>
</linearGradient>
<linearGradient id="paint3_linear_90_7703" x1="10.6482" y1="12.4678" x2="19.3275" y2="12.4678" gradientUnits="userSpaceOnUse">
<stop stop-color="#FF6E11"/>
<stop offset="0.24" stop-color="#FF7311"/>
<stop offset="0.54" stop-color="#FF8211"/>
<stop offset="0.85" stop-color="#FF9A11"/>
<stop offset="1" stop-color="#FFA811"/>
</linearGradient>
</defs>
</svg>
