<svg width="28" height="23" viewBox="0 0 28 23" fill="none" xmlns="http://www.w3.org/2000/svg">
<path opacity="0.22" d="M25.1137 6.62372V16.3026C25.1123 17.5268 24.6258 18.7006 23.7606 19.5668C22.8953 20.433 21.7221 20.9208 20.4978 20.9235H6.63C5.40567 20.9195 4.2326 20.4314 3.36687 19.5657C2.50113 18.6999 2.01301 17.5269 2.00903 16.3026V6.62372C2.00903 6.01713 2.12862 5.41649 2.36091 4.85613C2.59319 4.29578 2.93366 3.78671 3.36282 3.35802C3.79198 2.92932 4.30137 2.5894 4.86198 2.35773C5.42259 2.12605 6.02341 2.00716 6.63 2.00782H20.4978C21.722 2.00782 22.8961 2.49414 23.7617 3.35979C24.6274 4.22544 25.1137 5.39951 25.1137 6.62372Z" fill="url(#paint0_linear_90_7750)"/>
<path d="M20.4978 2.0091C21.7216 2.01043 22.8949 2.49716 23.7603 3.36252C24.6256 4.22788 25.1124 5.4012 25.1137 6.625V16.3038C25.1124 17.5281 24.6258 18.7019 23.7606 19.5681C22.8954 20.4342 21.7221 20.9221 20.4978 20.9247H6.63003C5.40571 20.9208 4.23263 20.4327 3.3669 19.5669C2.50117 18.7012 2.01304 17.5282 2.00907 16.3038V6.625C2.0104 5.40033 2.49788 4.22628 3.36433 3.36077C4.23077 2.49526 5.40535 2.0091 6.63003 2.0091H20.4978ZM20.4978 0H6.63003C4.87292 0.00132813 3.18806 0.699596 1.94512 1.94159C0.70218 3.18359 0.00265978 4.86789 0 6.625V16.3038C0.00265696 18.0614 0.702017 19.7462 1.94481 20.989C3.18761 22.2318 4.87246 22.9312 6.63003 22.9338H20.4978C22.2545 22.9299 23.9381 22.2299 25.1798 20.9873C26.4215 19.7446 27.1201 18.0606 27.1228 16.3038V6.625C27.1201 4.86876 26.4213 3.18519 25.1795 1.94334C23.9376 0.701487 22.2541 0.00265695 20.4978 0Z" fill="url(#paint1_linear_90_7750)"/>
<path d="M13.3355 16.9079C15.6684 16.9079 17.5596 16.1096 17.5596 15.1249C17.5596 14.1401 15.6684 13.3418 13.3355 13.3418C11.0025 13.3418 9.11133 14.1401 9.11133 15.1249C9.11133 16.1096 11.0025 16.9079 13.3355 16.9079Z" fill="white"/>
<path d="M13.3303 13.3431C15.6608 13.3431 17.5544 14.1417 17.5544 15.1262C17.5544 16.1106 15.6608 16.9092 13.3303 16.9092C10.9997 16.9092 9.10614 16.1106 9.10614 15.1262C9.10614 14.1417 10.9947 13.3431 13.3303 13.3431ZM13.3303 11.334C9.65866 11.334 7.09705 12.891 7.09705 15.1262C7.09705 17.3613 9.65866 18.9183 13.3303 18.9183C17.0019 18.9183 19.5635 17.3613 19.5635 15.1262C19.5635 12.891 16.9969 11.334 13.3303 11.334Z" fill="url(#paint2_linear_90_7750)"/>
<path d="M13.3353 11.2653C14.861 11.2653 16.0978 10.0284 16.0978 8.50274C16.0978 6.97705 14.861 5.74023 13.3353 5.74023C11.8096 5.74023 10.5728 6.97705 10.5728 8.50274C10.5728 10.0284 11.8096 11.2653 13.3353 11.2653Z" fill="white"/>
<path d="M13.3302 5.73566C13.8778 5.73566 14.4131 5.89812 14.8683 6.20244C15.3236 6.50676 15.6783 6.93929 15.8876 7.44528C16.0969 7.95127 16.1515 8.50798 16.0443 9.04496C15.9371 9.58195 15.6729 10.0751 15.2854 10.4619C14.8978 10.8488 14.4043 11.1119 13.8671 11.2182C13.3299 11.3244 12.7733 11.2689 12.2677 11.0586C11.7621 10.8484 11.3302 10.4929 11.0267 10.0371C10.7232 9.58132 10.5617 9.04575 10.5627 8.49818C10.5627 8.13497 10.6344 7.77534 10.7735 7.43985C10.9126 7.10436 11.1166 6.79959 11.3736 6.543C11.6307 6.28641 11.9358 6.08303 12.2716 5.9445C12.6073 5.80596 12.967 5.735 13.3302 5.73566ZM13.3302 3.72657C12.3851 3.72557 11.4609 4.00501 10.6746 4.52949C9.88832 5.05397 9.2753 5.79993 8.91315 6.67295C8.55099 7.54597 8.45598 8.5068 8.64012 9.43384C8.82427 10.3609 9.27929 11.2125 9.94762 11.8808C10.6159 12.5491 11.4676 13.0042 12.3946 13.1883C13.3217 13.3724 14.2824 13.2774 15.1555 12.9153C16.0285 12.5531 16.7745 11.9401 17.299 11.1538C17.8234 10.3675 18.1028 9.44333 18.1019 8.49818C18.0992 7.23348 17.5956 6.02135 16.7013 5.12707C15.8071 4.2328 14.5949 3.72922 13.3302 3.72657Z" fill="url(#paint3_linear_90_7750)"/>
<path d="M19.9653 3.79354V4.29582C19.9653 4.33978 19.9828 4.38193 20.0139 4.41302C20.045 4.4441 20.0872 4.46158 20.1311 4.46158H21.5977C21.6421 4.46288 21.6843 4.48144 21.7153 4.51333C21.7462 4.54521 21.7635 4.5879 21.7635 4.63233V6.09397C21.7648 6.13839 21.7834 6.18053 21.8153 6.21148C21.8471 6.24242 21.8898 6.25975 21.9343 6.25973H22.4114C22.4554 6.25973 22.4976 6.24225 22.5286 6.21117C22.5597 6.18009 22.5772 6.13793 22.5772 6.09397V4.13509C22.5772 4.00188 22.5242 3.87413 22.43 3.77993C22.3359 3.68574 22.2081 3.63281 22.0749 3.63281H20.116C20.076 3.6375 20.0389 3.65622 20.0113 3.68563C19.9837 3.71505 19.9674 3.75328 19.9653 3.79354Z" fill="white"/>
<path d="M6.82591 3.90323V4.4055C6.82591 4.44946 6.80843 4.49162 6.77735 4.5227C6.74626 4.55379 6.70408 4.57123 6.66012 4.57123H5.19351C5.14955 4.57123 5.10737 4.58871 5.07628 4.61979C5.0452 4.65088 5.02772 4.69303 5.02772 4.73699V6.20362C5.02642 6.24804 5.00786 6.29021 4.97598 6.32116C4.94409 6.35211 4.9014 6.3694 4.85697 6.36938H4.35469C4.31073 6.36938 4.26855 6.35191 4.23746 6.32082C4.20638 6.28974 4.18896 6.24758 4.18896 6.20362V4.24477C4.18896 4.11156 4.24186 3.98378 4.33605 3.88959C4.43025 3.79539 4.55803 3.7425 4.69124 3.7425H6.65006C6.67224 3.74114 6.69447 3.74426 6.71542 3.75166C6.73637 3.75907 6.75561 3.7706 6.77201 3.7856C6.78841 3.80059 6.80164 3.81874 6.81088 3.83894C6.82013 3.85915 6.82527 3.88102 6.82591 3.90323Z" fill="white"/>
<path d="M19.9652 18.9226V18.4455C19.9652 18.4015 19.9827 18.3594 20.0138 18.3283C20.0449 18.2972 20.087 18.2797 20.131 18.2797H21.5976C21.642 18.2784 21.6842 18.2598 21.7151 18.228C21.7461 18.1961 21.7634 18.1534 21.7634 18.109V16.6473C21.7634 16.6021 21.7813 16.5586 21.8134 16.5266C21.8454 16.4946 21.8889 16.4766 21.9341 16.4766H22.4113C22.4557 16.4779 22.4979 16.4965 22.5288 16.5283C22.5598 16.5602 22.5771 16.6029 22.5771 16.6473V18.6012C22.5771 18.7344 22.5241 18.8622 22.4299 18.9564C22.3357 19.0506 22.208 19.1034 22.0748 19.1034H20.1159C20.0724 19.0984 20.0325 19.0768 20.0045 19.0431C19.9764 19.0095 19.9623 18.9664 19.9652 18.9226Z" fill="white"/>
<path d="M6.71028 18.9226V18.4455C6.71028 18.4015 6.69287 18.3594 6.66179 18.3283C6.6307 18.2972 6.58851 18.2797 6.54455 18.2797H5.07789C5.03348 18.2784 4.99136 18.2598 4.96042 18.228C4.92947 18.1961 4.91214 18.1534 4.91216 18.109V16.6473C4.91218 16.6029 4.89486 16.5602 4.86391 16.5283C4.83296 16.4965 4.79085 16.4779 4.74643 16.4766H4.24416C4.19974 16.4779 4.15757 16.4965 4.12662 16.5283C4.09567 16.5602 4.07835 16.6029 4.07837 16.6473V18.6012C4.07837 18.7344 4.13133 18.8622 4.22552 18.9564C4.31971 19.0506 4.44743 19.1034 4.58064 19.1034H6.53953C6.56282 19.1035 6.58588 19.0988 6.60728 19.0896C6.62868 19.0804 6.648 19.0669 6.66399 19.05C6.67999 19.033 6.69232 19.013 6.70029 18.9911C6.70826 18.9692 6.71165 18.9459 6.71028 18.9226Z" fill="white"/>
<defs>
<linearGradient id="paint0_linear_90_7750" x1="2.00903" y1="11.4656" x2="25.1137" y2="11.4656" gradientUnits="userSpaceOnUse">
<stop stop-color="#FF6E11"/>
<stop offset="0.24" stop-color="#FF7311"/>
<stop offset="0.54" stop-color="#FF8211"/>
<stop offset="0.85" stop-color="#FF9A11"/>
<stop offset="1" stop-color="#FFA811"/>
</linearGradient>
<linearGradient id="paint1_linear_90_7750" x1="0" y1="11.4669" x2="27.1228" y2="11.4669" gradientUnits="userSpaceOnUse">
<stop stop-color="#FF6E11"/>
<stop offset="0.24" stop-color="#FF7311"/>
<stop offset="0.54" stop-color="#FF8211"/>
<stop offset="0.85" stop-color="#FF9A11"/>
<stop offset="1" stop-color="#FFA811"/>
</linearGradient>
<linearGradient id="paint2_linear_90_7750" x1="7.10709" y1="15.1262" x2="19.5736" y2="15.1262" gradientUnits="userSpaceOnUse">
<stop stop-color="#FF6E11"/>
<stop offset="0.24" stop-color="#FF7311"/>
<stop offset="0.54" stop-color="#FF8211"/>
<stop offset="0.85" stop-color="#FF9A11"/>
<stop offset="1" stop-color="#FFA811"/>
</linearGradient>
<linearGradient id="paint3_linear_90_7750" x1="8.56365" y1="8.49818" x2="18.1119" y2="8.49818" gradientUnits="userSpaceOnUse">
<stop stop-color="#FF6E11"/>
<stop offset="0.24" stop-color="#FF7311"/>
<stop offset="0.54" stop-color="#FF8211"/>
<stop offset="0.85" stop-color="#FF9A11"/>
<stop offset="1" stop-color="#FFA811"/>
</linearGradient>
</defs>
</svg>
