<svg width="27" height="26" viewBox="0 0 27 26" fill="none" xmlns="http://www.w3.org/2000/svg">
<g opacity="0.22">
<path d="M13.4861 1.99414H6.52455C4.01964 1.99414 1.98901 4.02477 1.98901 6.52968V16.6505C1.98901 19.1554 4.01964 21.1861 6.52455 21.1861H13.4861C15.991 21.1861 18.0216 19.1554 18.0216 16.6505V6.52968C18.0216 4.02477 15.991 1.99414 13.4861 1.99414Z" fill="url(#paint0_linear_90_7730)"/>
</g>
<path d="M13.4911 1.99402C14.69 1.99402 15.8398 2.47028 16.6876 3.31804C17.5353 4.16579 18.0116 5.31558 18.0116 6.51449V16.6504C18.0116 17.8493 17.5353 18.9991 16.6876 19.8468C15.8398 20.6946 14.69 21.1709 13.4911 21.1709H6.52957C5.33067 21.1709 4.1809 20.6946 3.33315 19.8468C2.4854 18.9991 2.0091 17.8493 2.0091 16.6504V6.52957C2.0091 5.33067 2.4854 4.18084 3.33315 3.33309C4.1809 2.48534 5.33067 2.0091 6.52957 2.0091H13.4911M13.4911 0H6.52957C4.79782 0 3.137 0.687938 1.91247 1.91247C0.687937 3.137 0 4.79782 0 6.52957V16.6504C0 18.3821 0.687937 20.043 1.91247 21.2675C3.137 22.492 4.79782 23.18 6.52957 23.18H13.4911C15.2228 23.18 16.8837 22.492 18.1082 21.2675C19.3327 20.043 20.0207 18.3821 20.0207 16.6504V6.52957C20.0207 4.79782 19.3327 3.137 18.1082 1.91247C16.8837 0.687938 15.2228 0 13.4911 0Z" fill="url(#paint1_linear_90_7730)"/>
<path d="M19.4078 9.73936C21.1027 9.73936 22.4767 8.36537 22.4767 6.67046C22.4767 4.97556 21.1027 3.60156 19.4078 3.60156C17.7129 3.60156 16.3389 4.97556 16.3389 6.67046C16.3389 8.36537 17.7129 9.73936 19.4078 9.73936Z" fill="url(#paint2_linear_90_7730)"/>
<path d="M25.1187 21.7425L25.2694 19.3315L23.3106 16.6192L21.5978 13.3746L19.7293 11.9531L17.4993 13.1887L15.7513 14.9366L14.4253 17.1617L13.6116 17.3727C13.6116 17.3727 13.25 17.1919 13.1646 17.011C13.0793 16.8302 11.6277 15.238 11.6277 15.238L9.78931 14.6353L7.70988 15.896L6.20306 18.3169L4.97754 20.8283V22.2749L5.79122 23.5406L8.11173 23.9022H12.361L17.8458 24.284L20.7389 24.1333L23.0243 23.8922L24.5612 22.9881L25.1187 21.7425Z" fill="white"/>
<path d="M22.4417 25.2892H7.80039C7.17435 25.2893 6.55932 25.1246 6.01711 24.8117C5.4749 24.4987 5.02464 24.0485 4.71158 23.5064C4.39851 22.9642 4.23367 22.3493 4.23364 21.7232C4.23362 21.0972 4.39837 20.4821 4.71139 19.94L7.14238 15.7309C7.45346 15.187 7.90333 14.7353 8.44602 14.422C8.9887 14.1088 9.60478 13.9451 10.2314 13.9478C10.8585 13.9425 11.4756 14.1051 12.0188 14.4186C12.5619 14.7321 13.0113 15.1852 13.3204 15.7309L13.8227 16.5797L15.6308 13.4405C15.9907 12.8156 16.5089 12.2966 17.1332 11.9357C17.7575 11.5748 18.4659 11.3848 19.187 11.3848C19.9081 11.3848 20.6164 11.5748 21.2407 11.9357C21.865 12.2966 22.3832 12.8156 22.7431 13.4405L26.033 19.1313C26.3925 19.756 26.5813 20.4642 26.5805 21.1849C26.5797 21.9057 26.3894 22.6135 26.0286 23.2374C25.6678 23.8613 25.1492 24.3794 24.5249 24.7395C23.9006 25.0996 23.1925 25.2892 22.4718 25.2892H22.4417ZM10.2113 15.9569C9.93801 15.9553 9.66915 16.0265 9.43254 16.1634C9.19593 16.3002 9.00009 16.4977 8.86521 16.7354L6.43422 20.9445C6.29678 21.1825 6.2248 21.4527 6.22557 21.7275C6.22634 22.0023 6.29981 22.2721 6.43857 22.5093C6.57734 22.7465 6.77647 22.9428 7.01565 23.0782C7.25483 23.2136 7.52557 23.2832 7.80039 23.2801H22.4618C22.8296 23.2796 23.1908 23.1825 23.5093 22.9985C23.8278 22.8144 24.0923 22.55 24.2764 22.2316C24.4606 21.9132 24.5578 21.552 24.5584 21.1842C24.559 20.8164 24.4631 20.4549 24.2801 20.1359L20.9952 14.4451C20.8116 14.1258 20.547 13.8606 20.2283 13.6762C19.9095 13.4918 19.5477 13.3946 19.1794 13.3946C18.8112 13.3946 18.4493 13.4918 18.1306 13.6762C17.8118 13.8606 17.5473 14.1258 17.3637 14.4451L15.3546 17.961C15.1993 18.2223 14.9787 18.4386 14.7146 18.5889C14.4504 18.7392 14.1517 18.8182 13.8478 18.8182C13.5439 18.8182 13.2451 18.7392 12.981 18.5889C12.7168 18.4386 12.4963 18.2223 12.341 17.961L11.6328 16.7254C11.4967 16.4876 11.2999 16.2902 11.0625 16.1535C10.8251 16.0167 10.5556 15.9454 10.2816 15.9469L10.2113 15.9569Z" fill="url(#paint3_linear_90_7730)"/>
<path d="M13.9934 4.78711H6.20309C5.62055 4.78711 5.14832 5.25935 5.14832 5.84189C5.14832 6.42442 5.62055 6.89666 6.20309 6.89666H13.9934C14.5759 6.89666 15.0481 6.42442 15.0481 5.84189C15.0481 5.25935 14.5759 4.78711 13.9934 4.78711Z" fill="url(#paint4_linear_90_7730)"/>
<path d="M13.9934 8.67969H6.20309C5.62055 8.67969 5.14832 9.15193 5.14832 9.73446C5.14832 10.317 5.62055 10.7892 6.20309 10.7892H13.9934C14.5759 10.7892 15.0481 10.317 15.0481 9.73446C15.0481 9.15193 14.5759 8.67969 13.9934 8.67969Z" fill="url(#paint5_linear_90_7730)"/>
<defs>
<linearGradient id="paint0_linear_90_7730" x1="1.98901" y1="11.5876" x2="18.0266" y2="11.5876" gradientUnits="userSpaceOnUse">
<stop stop-color="#FF6E11"/>
<stop offset="0.24" stop-color="#FF7311"/>
<stop offset="0.54" stop-color="#FF8211"/>
<stop offset="0.85" stop-color="#FF9A11"/>
<stop offset="1" stop-color="#FFA811"/>
</linearGradient>
<linearGradient id="paint1_linear_90_7730" x1="-0.0150682" y1="11.5875" x2="20.0357" y2="11.5875" gradientUnits="userSpaceOnUse">
<stop stop-color="#FF6E11"/>
<stop offset="0.24" stop-color="#FF7311"/>
<stop offset="0.54" stop-color="#FF8211"/>
<stop offset="0.85" stop-color="#FF9A11"/>
<stop offset="1" stop-color="#FFA811"/>
</linearGradient>
<linearGradient id="paint2_linear_90_7730" x1="16.3338" y1="6.67046" x2="22.4767" y2="6.67046" gradientUnits="userSpaceOnUse">
<stop stop-color="#FF6E11"/>
<stop offset="0.24" stop-color="#FF7311"/>
<stop offset="0.54" stop-color="#FF8211"/>
<stop offset="0.85" stop-color="#FF9A11"/>
<stop offset="1" stop-color="#FFA811"/>
</linearGradient>
<linearGradient id="paint3_linear_90_7730" x1="4.20914" y1="18.3176" x2="26.5553" y2="18.3176" gradientUnits="userSpaceOnUse">
<stop stop-color="#FF6E11"/>
<stop offset="0.24" stop-color="#FF7311"/>
<stop offset="0.54" stop-color="#FF8211"/>
<stop offset="0.85" stop-color="#FF9A11"/>
<stop offset="1" stop-color="#FFA811"/>
</linearGradient>
<linearGradient id="paint4_linear_90_7730" x1="5.14832" y1="5.83686" x2="15.0481" y2="5.83686" gradientUnits="userSpaceOnUse">
<stop stop-color="#FF6E11"/>
<stop offset="0.24" stop-color="#FF7311"/>
<stop offset="0.54" stop-color="#FF8211"/>
<stop offset="0.85" stop-color="#FF9A11"/>
<stop offset="1" stop-color="#FFA811"/>
</linearGradient>
<linearGradient id="paint5_linear_90_7730" x1="5.14832" y1="9.73446" x2="15.0481" y2="9.73446" gradientUnits="userSpaceOnUse">
<stop stop-color="#FF6E11"/>
<stop offset="0.24" stop-color="#FF7311"/>
<stop offset="0.54" stop-color="#FF8211"/>
<stop offset="0.85" stop-color="#FF9A11"/>
<stop offset="1" stop-color="#FFA811"/>
</linearGradient>
</defs>
</svg>
