<svg width="30" height="25" viewBox="0 0 30 25" fill="none" xmlns="http://www.w3.org/2000/svg">
<g clip-path="url(#clip0_1063_40477)">
<g opacity="0.22">
<path d="M22.6978 12.4972C25.3657 12.4972 27.5285 10.3345 27.5285 7.66659C27.5285 4.99869 25.3657 2.83594 22.6978 2.83594C20.0299 2.83594 17.8672 4.99869 17.8672 7.66659C17.8672 10.3345 20.0299 12.4972 22.6978 12.4972Z" fill="url(#paint0_linear_1063_40477)"/>
</g>
<g opacity="0.22">
<path d="M22.698 21.1446C26.7305 21.1446 29.9995 19.3572 29.9995 17.1524C29.9995 14.9475 26.7305 13.1602 22.698 13.1602C18.6655 13.1602 15.3965 14.9475 15.3965 17.1524C15.3965 19.3572 18.6655 21.1446 22.698 21.1446Z" fill="url(#paint1_linear_1063_40477)"/>
</g>
<g opacity="0.22">
<path d="M7.30135 12.4972C9.96925 12.4972 12.132 10.3345 12.132 7.66659C12.132 4.99869 9.96925 2.83594 7.30135 2.83594C4.63346 2.83594 2.4707 4.99869 2.4707 7.66659C2.4707 10.3345 4.63346 12.4972 7.30135 12.4972Z" fill="url(#paint2_linear_1063_40477)"/>
</g>
<g opacity="0.22">
<path d="M7.3015 21.1446C11.334 21.1446 14.603 19.3572 14.603 17.1524C14.603 14.9475 11.334 13.1602 7.3015 13.1602C3.26899 13.1602 0 14.9475 0 17.1524C0 19.3572 3.26899 21.1446 7.3015 21.1446Z" fill="url(#paint3_linear_1063_40477)"/>
</g>
<path d="M14.9585 11.8975C17.8319 11.8975 20.1612 9.56821 20.1612 6.69485C20.1612 3.8215 17.8319 1.49219 14.9585 1.49219C12.0852 1.49219 9.75586 3.8215 9.75586 6.69485C9.75586 9.56821 12.0852 11.8975 14.9585 11.8975Z" fill="white"/>
<path d="M14.9581 23.592C19.6315 23.592 23.42 21.4491 23.42 18.8058C23.42 16.1624 19.6315 14.0195 14.9581 14.0195C10.2846 14.0195 6.49609 16.1624 6.49609 18.8058C6.49609 21.4491 10.2846 23.592 14.9581 23.592Z" fill="white"/>
<path d="M15.0028 2.23271C15.8813 2.23271 16.7402 2.49324 17.4706 2.98133C18.2011 3.46942 18.7705 4.16315 19.1067 4.97482C19.4429 5.78648 19.5308 6.67962 19.3594 7.54127C19.188 8.40293 18.765 9.19442 18.1438 9.81564C17.5225 10.4369 16.7311 10.8599 15.8694 11.0313C15.0077 11.2027 14.1146 11.1147 13.3029 10.7785C12.4913 10.4423 11.7975 9.873 11.3094 9.14252C10.8214 8.41204 10.5608 7.55322 10.5608 6.67468C10.5608 5.4966 11.0288 4.36676 11.8618 3.53373C12.6949 2.7007 13.8247 2.23271 15.0028 2.23271ZM15.0028 0.0117188C13.685 0.0117188 12.3968 0.402481 11.301 1.13462C10.2053 1.86675 9.35134 2.90737 8.84703 4.12486C8.34273 5.34236 8.21078 6.68206 8.46787 7.97455C8.72497 9.26704 9.35954 10.4543 10.2914 11.3861C11.2232 12.3179 12.4104 12.9525 13.7029 13.2096C14.9954 13.4667 16.3351 13.3348 17.5526 12.8305C18.7701 12.3262 19.8107 11.4722 20.5428 10.3764C21.275 9.28072 21.6658 7.99249 21.6658 6.67468C21.6658 4.90756 20.9638 3.2128 19.7142 1.96325C18.4647 0.713703 16.7699 0.0117188 15.0028 0.0117188Z" fill="url(#paint4_linear_1063_40477)"/>
<path d="M15.0037 15.1351C19.4457 15.1351 23.0992 16.8008 23.0992 18.8108C23.0992 20.8208 19.4734 22.481 15.0037 22.481C10.534 22.481 6.90263 20.8152 6.90263 18.8108C6.90263 16.8063 10.5284 15.1351 15.0037 15.1351ZM15.0037 12.9141C9.02369 12.9141 4.68164 15.396 4.68164 18.8108C4.68164 22.2256 9.02369 24.7019 15.0037 24.7019C20.9837 24.7019 25.3202 22.22 25.3202 18.8108C25.3202 15.4016 20.9837 12.9141 15.0037 12.9141Z" fill="url(#paint5_linear_1063_40477)"/>
</g>
<defs>
<linearGradient id="paint0_linear_1063_40477" x1="17.8672" y1="7.66659" x2="27.5285" y2="7.66659" gradientUnits="userSpaceOnUse">
<stop stop-color="#FF6E11"/>
<stop offset="0.24" stop-color="#FF7311"/>
<stop offset="0.54" stop-color="#FF8211"/>
<stop offset="0.85" stop-color="#FF9A11"/>
<stop offset="1" stop-color="#FFA811"/>
</linearGradient>
<linearGradient id="paint1_linear_1063_40477" x1="15.3965" y1="17.1524" x2="29.9995" y2="17.1524" gradientUnits="userSpaceOnUse">
<stop stop-color="#FF6E11"/>
<stop offset="0.24" stop-color="#FF7311"/>
<stop offset="0.54" stop-color="#FF8211"/>
<stop offset="0.85" stop-color="#FF9A11"/>
<stop offset="1" stop-color="#FFA811"/>
</linearGradient>
<linearGradient id="paint2_linear_1063_40477" x1="2.4707" y1="7.66659" x2="12.132" y2="7.66659" gradientUnits="userSpaceOnUse">
<stop stop-color="#FF6E11"/>
<stop offset="0.24" stop-color="#FF7311"/>
<stop offset="0.54" stop-color="#FF8211"/>
<stop offset="0.85" stop-color="#FF9A11"/>
<stop offset="1" stop-color="#FFA811"/>
</linearGradient>
<linearGradient id="paint3_linear_1063_40477" x1="0" y1="17.1524" x2="14.603" y2="17.1524" gradientUnits="userSpaceOnUse">
<stop stop-color="#FF6E11"/>
<stop offset="0.24" stop-color="#FF7311"/>
<stop offset="0.54" stop-color="#FF8211"/>
<stop offset="0.85" stop-color="#FF9A11"/>
<stop offset="1" stop-color="#FFA811"/>
</linearGradient>
<linearGradient id="paint4_linear_1063_40477" x1="8.33985" y1="6.66358" x2="21.6658" y2="6.66358" gradientUnits="userSpaceOnUse">
<stop stop-color="#FF6E11"/>
<stop offset="0.24" stop-color="#FF7311"/>
<stop offset="0.54" stop-color="#FF8211"/>
<stop offset="0.85" stop-color="#FF9A11"/>
<stop offset="1" stop-color="#FFA811"/>
</linearGradient>
<linearGradient id="paint5_linear_1063_40477" x1="4.68164" y1="18.8108" x2="25.3202" y2="18.8108" gradientUnits="userSpaceOnUse">
<stop stop-color="#FF6E11"/>
<stop offset="0.24" stop-color="#FF7311"/>
<stop offset="0.54" stop-color="#FF8211"/>
<stop offset="0.85" stop-color="#FF9A11"/>
<stop offset="1" stop-color="#FFA811"/>
</linearGradient>
<clipPath id="clip0_1063_40477">
<rect width="30" height="24.7029" fill="white"/>
</clipPath>
</defs>
</svg>
