<svg width="32" height="28" viewBox="0 0 32 28" fill="none" xmlns="http://www.w3.org/2000/svg">
<g clip-path="url(#clip0_1063_40501)">
<path d="M16.5554 2.52649C16.8527 2.52566 17.1472 2.5835 17.4221 2.69668C17.6969 2.80987 17.9468 2.97614 18.1572 3.18604C18.3677 3.39595 18.5347 3.64532 18.6487 3.91987C18.7626 4.19443 18.8213 4.4888 18.8213 4.78607V23.0014C18.8213 23.6024 18.5826 24.1787 18.1576 24.6037C17.7327 25.0286 17.1564 25.2673 16.5554 25.2673C16.1031 25.2654 15.6624 25.1244 15.2931 24.8634L9.32226 20.7797H5.00512C4.34726 20.7797 3.71634 20.5184 3.25116 20.0532C2.78598 19.588 2.52465 18.9571 2.52465 18.2993V9.46297C2.52465 8.80511 2.78598 8.17419 3.25116 7.70901C3.71634 7.24383 4.34726 6.9825 5.00512 6.9825H9.31598L15.2868 2.89885C15.6567 2.63968 16.0974 2.50082 16.5491 2.50122M16.5491 -0.0234375C15.5865 -0.0226214 14.6468 0.270084 13.854 0.816021L8.52703 4.45785H5.00512C3.67819 4.45952 2.40609 4.98738 1.46781 5.92566C0.529528 6.86394 0.00167015 8.13604 0 9.46297V18.2993C0.00167015 19.6262 0.529528 20.8983 1.46781 21.8366C2.40609 22.7749 3.67819 23.3027 5.00512 23.3044H8.53331L13.8603 26.9525C14.5787 27.4467 15.4186 27.7348 16.2891 27.7857C17.1595 27.8366 18.0273 27.6484 18.7983 27.2414C19.5694 26.8344 20.2145 26.2241 20.6635 25.4767C21.1126 24.7294 21.3486 23.8734 21.346 23.0014V4.76711C21.3426 3.49819 20.8366 2.2823 19.9387 1.38562C19.0409 0.488951 17.8243 -0.0154545 16.5554 -0.0171197L16.5491 -0.0234375Z" fill="url(#paint0_linear_1063_40501)"/>
<g opacity="0.46">
<path d="M22.444 9.25153C22.2514 9.43887 22.135 9.69101 22.1175 9.95916C22.1 10.2273 22.1826 10.4924 22.3493 10.7032C23.0785 11.5953 23.4925 12.7035 23.5267 13.8552C23.561 15.007 23.2136 16.1378 22.5387 17.0717C22.3815 17.2843 22.3053 17.546 22.3238 17.8098C22.3423 18.0736 22.4543 18.3221 22.6397 18.5107C22.7497 18.6216 22.8822 18.7077 23.0281 18.7632C23.1741 18.8188 23.3303 18.8426 23.4862 18.8331C23.6421 18.8235 23.7942 18.7808 23.9323 18.7078C24.0704 18.6348 24.1913 18.5332 24.287 18.4097C25.2256 17.1282 25.7298 15.5801 25.7261 13.9916C25.7301 12.2955 25.1482 10.65 24.0787 9.33358C23.9816 9.21345 23.8602 9.11515 23.7226 9.04512C23.5849 8.97509 23.434 8.93491 23.2797 8.92716C23.1254 8.91942 22.9713 8.94431 22.8272 9.0002C22.6832 9.0561 22.5527 9.14173 22.444 9.25153Z" fill="url(#paint1_linear_1063_40501)"/>
</g>
<g opacity="0.46">
<path d="M24.6852 7.01195C24.487 7.20713 24.3707 7.47063 24.3602 7.74863C24.3496 8.02663 24.4455 8.29816 24.6284 8.50781C25.9259 9.99521 26.6564 11.8931 26.691 13.8666C26.7257 15.8401 26.0623 17.7624 24.8178 19.2944C24.6446 19.5048 24.5564 19.7723 24.5704 20.0444C24.5844 20.3165 24.6997 20.5735 24.8935 20.765C25.0032 20.8746 25.1346 20.9599 25.2794 21.0153C25.4241 21.0707 25.5789 21.0951 25.7337 21.0867C25.8885 21.0784 26.0398 21.0376 26.1778 20.9669C26.3157 20.8963 26.4373 20.7974 26.5345 20.6767C28.1021 18.7428 28.9375 16.318 28.8936 13.829C28.8497 11.34 27.9295 8.94619 26.2947 7.06877C26.1953 6.95518 26.0737 6.86313 25.9375 6.79834C25.8012 6.73356 25.6531 6.69742 25.5023 6.69209C25.3514 6.68677 25.2011 6.71239 25.0606 6.76741C24.9201 6.82242 24.7923 6.90565 24.6852 7.01195Z" fill="url(#paint2_linear_1063_40501)"/>
</g>
<g opacity="0.46">
<path d="M26.8867 4.80973C26.6858 5.00732 26.568 5.27424 26.5574 5.55584C26.5469 5.83745 26.6443 6.11241 26.8299 6.3245C28.6959 8.39533 29.7447 11.0743 29.7807 13.8616C29.8167 16.6489 28.8374 19.3541 27.0256 21.4724C26.8498 21.6825 26.7594 21.9509 26.7722 22.2244C26.7851 22.498 26.9003 22.7567 27.095 22.9494C27.203 23.0559 27.3319 23.1391 27.4735 23.1936C27.6151 23.2482 27.7664 23.273 27.918 23.2664C28.0696 23.2599 28.2182 23.2223 28.3546 23.1558C28.491 23.0893 28.6122 22.9954 28.7107 22.8799C30.8685 20.3574 32.0347 17.1359 31.9917 13.8166C31.9487 10.4974 30.6995 7.30715 28.4772 4.84128C28.3768 4.73151 28.2551 4.64329 28.1196 4.58198C27.984 4.52066 27.8375 4.48754 27.6887 4.48459C27.54 4.48164 27.3922 4.50894 27.2543 4.56483C27.1164 4.62073 26.9914 4.70403 26.8867 4.80973Z" fill="url(#paint3_linear_1063_40501)"/>
</g>
<g opacity="0.46">
<path d="M5.2634 10.7182C5.9989 10.7182 6.59515 10.122 6.59515 9.38644C6.59515 8.65093 5.9989 8.05469 5.2634 8.05469C4.52789 8.05469 3.93164 8.65093 3.93164 9.38644C3.93164 10.122 4.52789 10.7182 5.2634 10.7182Z" fill="url(#paint4_linear_1063_40501)"/>
</g>
<g opacity="0.46">
<path d="M5.2634 13.6909C5.9989 13.6909 6.59515 13.0946 6.59515 12.3591C6.59515 11.6236 5.9989 11.0273 5.2634 11.0273C4.52789 11.0273 3.93164 11.6236 3.93164 12.3591C3.93164 13.0946 4.52789 13.6909 5.2634 13.6909Z" fill="url(#paint5_linear_1063_40501)"/>
</g>
</g>
<defs>
<linearGradient id="paint0_linear_1063_40501" x1="0" y1="13.8937" x2="21.346" y2="13.8937" gradientUnits="userSpaceOnUse">
<stop stop-color="#FF6E11"/>
<stop offset="0.24" stop-color="#FF7311"/>
<stop offset="0.54" stop-color="#FF8211"/>
<stop offset="0.85" stop-color="#FF9A11"/>
<stop offset="1" stop-color="#FFA811"/>
</linearGradient>
<linearGradient id="paint1_linear_1063_40501" x1="22.1158" y1="13.8843" x2="25.7324" y2="13.8843" gradientUnits="userSpaceOnUse">
<stop stop-color="#FF6E11"/>
<stop offset="0.24" stop-color="#FF7311"/>
<stop offset="0.54" stop-color="#FF8211"/>
<stop offset="0.85" stop-color="#FF9A11"/>
<stop offset="1" stop-color="#FFA811"/>
</linearGradient>
<linearGradient id="paint2_linear_1063_40501" x1="24.3633" y1="13.8917" x2="28.8951" y2="13.8917" gradientUnits="userSpaceOnUse">
<stop stop-color="#FF6E11"/>
<stop offset="0.24" stop-color="#FF7311"/>
<stop offset="0.54" stop-color="#FF8211"/>
<stop offset="0.85" stop-color="#FF9A11"/>
<stop offset="1" stop-color="#FFA811"/>
</linearGradient>
<linearGradient id="paint3_linear_1063_40501" x1="26.5585" y1="13.8922" x2="31.9991" y2="13.8922" gradientUnits="userSpaceOnUse">
<stop stop-color="#FF6E11"/>
<stop offset="0.24" stop-color="#FF7311"/>
<stop offset="0.54" stop-color="#FF8211"/>
<stop offset="0.85" stop-color="#FF9A11"/>
<stop offset="1" stop-color="#FFA811"/>
</linearGradient>
<linearGradient id="paint4_linear_1063_40501" x1="3.93164" y1="9.38644" x2="6.60146" y2="9.38644" gradientUnits="userSpaceOnUse">
<stop stop-color="#FF6E11"/>
<stop offset="0.24" stop-color="#FF7311"/>
<stop offset="0.54" stop-color="#FF8211"/>
<stop offset="0.85" stop-color="#FF9A11"/>
<stop offset="1" stop-color="#FFA811"/>
</linearGradient>
<linearGradient id="paint5_linear_1063_40501" x1="3.93164" y1="12.3591" x2="6.60146" y2="12.3591" gradientUnits="userSpaceOnUse">
<stop stop-color="#FF6E11"/>
<stop offset="0.24" stop-color="#FF7311"/>
<stop offset="0.54" stop-color="#FF8211"/>
<stop offset="0.85" stop-color="#FF9A11"/>
<stop offset="1" stop-color="#FFA811"/>
</linearGradient>
<clipPath id="clip0_1063_40501">
<rect width="32" height="27.7901" fill="white"/>
</clipPath>
</defs>
</svg>
