<svg width="30" height="30" viewBox="0 0 30 30" fill="none" xmlns="http://www.w3.org/2000/svg">
<path d="M20.5092 29.1088H9.43242C7.11459 29.1059 4.89239 28.1846 3.25239 26.5467C1.61239 24.9087 0.688261 22.6877 0.682373 20.3699V9.30426C0.69115 6.98823 1.61431 4.7694 3.25096 3.13066C4.88762 1.49192 7.10526 0.565924 9.42128 0.554199H20.498C22.8159 0.560088 25.0369 1.48421 26.6749 3.12421C28.3128 4.76421 29.2341 6.98643 29.237 9.30426V20.3699C29.237 22.6856 28.3178 24.9067 26.6813 26.5453C25.0449 28.1838 22.8249 29.1058 20.5092 29.1088ZM9.43242 4.11657C8.05656 4.11657 6.73706 4.66313 5.76418 5.63601C4.7913 6.60889 4.24475 7.9284 4.24475 9.30426V20.3699C4.24475 21.7438 4.78976 23.0616 5.76024 24.0342C6.73071 25.0068 8.04734 25.5546 9.42128 25.5576H20.498C21.8721 25.5517 23.1882 25.0033 24.1598 24.0316C25.1314 23.06 25.6799 21.7439 25.6858 20.3699V9.30426C25.6858 7.9284 25.1391 6.60889 24.1663 5.63601C23.1934 4.66313 21.8739 4.11657 20.498 4.11657H9.43242Z" fill="white"/>
<path d="M14.7315 6.35424C12.5389 6.31767 10.4131 7.10884 8.77797 8.56998C7.14284 10.0311 6.11856 12.0549 5.90926 14.2377C5.69997 16.4206 6.32106 18.6021 7.64877 20.3474C8.97647 22.0926 10.9132 23.2733 13.0728 23.654C14.7665 23.9854 16.5203 23.8112 18.1158 23.153C19.7071 22.4898 21.0667 21.3706 22.0234 19.9365C22.9802 18.5023 23.4914 16.8172 23.4927 15.0932C23.4898 13.947 23.2629 12.8125 22.8247 11.7535C21.9369 9.61816 20.2399 7.92115 18.1046 7.03332C17.0364 6.58566 15.8897 6.35483 14.7315 6.35424ZM19.4294 16.5292L13.8632 19.7242C13.5707 19.9 13.2358 19.9924 12.8947 19.9914C12.5514 19.9924 12.2139 19.9041 11.915 19.7354C11.6165 19.5593 11.3675 19.3103 11.1914 19.0118C11.0226 18.7129 10.9344 18.3753 10.9353 18.0321V11.631C10.9358 11.2915 11.024 10.9579 11.1914 10.6625C11.3675 10.3639 11.6165 10.115 11.915 9.93887C12.2122 9.77109 12.5478 9.68293 12.8891 9.68293C13.2304 9.68293 13.5659 9.77109 13.8632 9.93887L19.4294 13.145C19.7296 13.3139 19.9794 13.5599 20.1529 13.8575C20.2836 14.0797 20.3685 14.3258 20.4028 14.5813C20.4372 14.8368 20.4202 15.0966 20.3528 15.3455C20.2854 15.5943 20.1689 15.8272 20.0104 16.0305C19.8518 16.2337 19.6543 16.4033 19.4294 16.5292Z" fill="white"/>
</svg>
