<svg width="30" height="29" viewBox="0 0 30 29" fill="none" xmlns="http://www.w3.org/2000/svg">
<path d="M20.6228 28.7019H9.55718C7.23652 28.7008 5.01088 27.7801 3.36757 26.1415C1.72963 24.5023 0.808815 22.2803 0.807129 19.963V8.88624C0.808815 6.56895 1.72963 4.34698 3.36757 2.70778C5.00677 1.06984 7.22874 0.149025 9.54603 0.147339H20.6116C22.9289 0.149025 25.1509 1.06984 26.7901 2.70778C28.4311 4.34585 29.3558 6.5676 29.3617 8.88624V19.963C29.3546 22.2759 28.4344 24.4925 26.8012 26.1303C25.1604 27.7672 22.9404 28.6912 20.6228 28.7019ZM9.55718 3.69858C8.87442 3.69739 8.1982 3.83156 7.56763 4.09335C6.93705 4.35513 6.36466 4.73932 5.8835 5.22371C5.39994 5.70318 5.0162 6.27372 4.75443 6.90237C4.49265 7.53101 4.35803 8.20527 4.35837 8.88624V19.963C4.35926 20.6438 4.49442 21.3177 4.75613 21.9462C5.01783 22.5747 5.40093 23.1453 5.8835 23.6255C6.36462 24.1061 6.93573 24.4872 7.56416 24.7469C8.1926 25.0067 8.86602 25.1401 9.54603 25.1395H20.6116C21.2916 25.1401 21.9651 25.0067 22.5936 24.7469C23.222 24.4872 23.793 24.1061 24.2742 23.6255C24.7577 23.1461 25.1415 22.5755 25.4033 21.9469C25.6651 21.3183 25.7996 20.644 25.7993 19.963V8.88624C25.7996 8.20527 25.6651 7.53101 25.4033 6.90237C25.1415 6.27372 24.7577 5.70318 24.2742 5.22371C23.3009 4.25423 21.9854 3.70643 20.6116 3.69858H9.55718Z" fill="white"/>
<path d="M15.079 15.5768C17.7535 15.5768 19.9216 13.4087 19.9216 10.7342C19.9216 8.0597 17.7535 5.8916 15.079 5.8916C12.4045 5.8916 10.2364 8.0597 10.2364 10.7342C10.2364 13.4087 12.4045 15.5768 15.079 15.5768Z" fill="white"/>
<path d="M15.0789 23.3695C19.1614 23.3695 22.4708 21.7696 22.4708 19.796C22.4708 17.8224 19.1614 16.2225 15.0789 16.2225C10.9965 16.2225 7.68701 17.8224 7.68701 19.796C7.68701 21.7696 10.9965 23.3695 15.0789 23.3695Z" fill="white"/>
</svg>
