<svg width="16" height="14" viewBox="0 0 16 14" fill="none" xmlns="http://www.w3.org/2000/svg">
    <g clip-path="url(#clip0_92_1847)">
    <path d="M12.968 0.525631C12.6029 0.179334 12.1154 -0.0080755 11.6123 0.00450068C11.1093 0.0170769 10.6317 0.228609 10.2844 0.592718L9.6135 1.29156L1.14351 10.1865C1.10416 10.2284 1.07373 10.2778 1.05406 10.3318V10.3709L0.310484 12.6911C0.261397 12.8445 0.256331 13.0086 0.295863 13.1648C0.335395 13.3209 0.417941 13.4629 0.534116 13.5745C0.685517 13.7177 0.884824 13.7994 1.09319 13.8037C1.19954 13.8034 1.30518 13.7864 1.40627 13.7534L3.64257 12.9483C3.65544 12.9514 3.66885 12.9514 3.68171 12.9483C3.73285 12.9239 3.77998 12.8918 3.82148 12.8532L12.2467 4.00308L12.9568 3.25392C13.1408 3.07789 13.2874 2.86658 13.388 2.63261C13.4885 2.39864 13.5409 2.1468 13.5419 1.89215C13.543 1.6375 13.4927 1.38525 13.3941 1.15046C13.2954 0.915676 13.1505 0.703166 12.968 0.525631ZM12.1964 1.3363C12.2701 1.40956 12.3286 1.49667 12.3685 1.59262C12.4084 1.68856 12.429 1.79146 12.429 1.89537C12.429 1.99929 12.4084 2.10218 12.3685 2.19813C12.3286 2.29408 12.2701 2.38119 12.1964 2.45445L11.9113 2.75076L10.7932 1.67733L11.0783 1.37542C11.1481 1.29775 11.2329 1.23496 11.3275 1.19078C11.4221 1.1466 11.5247 1.12195 11.629 1.1183C11.7334 1.11465 11.8374 1.13207 11.9349 1.16952C12.0324 1.20698 12.1214 1.2637 12.1964 1.3363ZM3.46926 11.6289L2.91019 11.0698L2.35111 10.5107L10.0104 2.46562L11.1286 3.53906L3.46926 11.6289ZM1.54045 12.529L1.81999 11.6065L2.44615 12.1991L1.54045 12.529Z" fill="#231F20"/>
    <path d="M11.1001 13.8315H11.061C10.7997 13.8255 10.5427 13.7634 10.3074 13.6496C10.072 13.5358 9.86386 13.3729 9.69686 13.1718L9.4285 12.8475C9.37417 12.782 9.30692 12.7282 9.23093 12.6898C9.15495 12.6513 9.07186 12.6289 8.98683 12.6239C8.90204 12.6176 8.81687 12.6293 8.73691 12.6582C8.65694 12.6871 8.58398 12.7326 8.5228 12.7916L8.042 13.2445C7.64661 13.6096 7.12654 13.8096 6.5884 13.8036H4.69872C4.55045 13.8036 4.40824 13.7446 4.3034 13.6398C4.19855 13.535 4.13965 13.3928 4.13965 13.2445C4.13965 13.0962 4.19855 12.954 4.3034 12.8492C4.40824 12.7443 4.55045 12.6854 4.69872 12.6854H6.5884C6.84389 12.6837 7.08936 12.5859 7.27606 12.4115L7.75128 11.9586C7.92432 11.7959 8.12878 11.6702 8.35213 11.5892C8.57547 11.5083 8.813 11.4739 9.05013 11.488C9.28727 11.5021 9.51902 11.5646 9.73117 11.6714C9.94332 11.7783 10.1314 11.9274 10.2839 12.1096L10.5578 12.4394C10.6224 12.5164 10.7027 12.5787 10.7934 12.6221C10.884 12.6655 10.9829 12.689 11.0834 12.691C11.1878 12.6971 11.2922 12.6796 11.389 12.6399C11.4857 12.6003 11.5723 12.5394 11.6424 12.4618L12.0226 12.0425C12.1789 11.8677 12.3701 11.7277 12.5839 11.6314C12.7977 11.5351 13.0293 11.4847 13.2638 11.4834C13.4954 11.487 13.7238 11.5385 13.9345 11.6347C14.1452 11.7309 14.3337 11.8698 14.4881 12.0425L15.1702 12.8419C15.2659 12.9554 15.3125 13.1022 15.2999 13.25C15.2873 13.3978 15.2166 13.5346 15.1031 13.6302C14.9897 13.7259 14.8429 13.7725 14.6951 13.76C14.5472 13.7474 14.4105 13.6766 14.3148 13.5632L13.6104 12.8252C13.5633 12.7683 13.5044 12.7223 13.4378 12.6904C13.3712 12.6586 13.2985 12.6416 13.2246 12.6407C13.1503 12.6417 13.0769 12.6576 13.0087 12.6873C12.9405 12.7171 12.879 12.7602 12.8277 12.814L12.4531 13.2333C12.2815 13.4215 12.0726 13.5719 11.8396 13.6749C11.6067 13.7779 11.3548 13.8312 11.1001 13.8315Z" fill="#231F20"/>
    </g>
    <defs>
    <clipPath id="clip0_92_1847">
    <rect width="15" height="13.8315" fill="white" transform="translate(0.282227)"/>
    </clipPath>
    </defs>
    </svg>
    