<svg width="18" height="19" viewBox="0 0 18 19" fill="none" xmlns="http://www.w3.org/2000/svg">
    <path d="M13.8198 18.2892H3.66412C2.69234 18.2892 1.76035 17.8906 1.07319 17.1812C0.386038 16.4717 0 15.5095 0 14.5062V7.91118C0.000253273 7.34564 0.124553 6.7875 0.363583 6.27864C0.602613 5.76979 0.950163 5.32343 1.38015 4.97306L6.46106 0.818077C7.10131 0.288542 7.8972 0 8.71755 0C9.53791 0 10.3338 0.288542 10.974 0.818077L16.055 4.97306C16.4842 5.32375 16.8308 5.77032 17.0688 6.27921C17.3068 6.78811 17.4299 7.34607 17.429 7.91118V14.5314C17.4227 15.5206 17.0414 16.4679 16.3668 17.1703C15.6921 17.8727 14.7779 18.2744 13.8198 18.2892ZM8.73893 1.26573C8.19485 1.26473 7.66685 1.45608 7.24275 1.80796L2.16183 5.96294C1.87591 6.19459 1.64484 6.4904 1.48613 6.82796C1.32741 7.16552 1.24523 7.53595 1.2458 7.91118V14.5314C1.2458 15.2003 1.50316 15.8418 1.96126 16.3147C2.41936 16.7877 3.04069 17.0534 3.68855 17.0534H13.8443C14.4921 17.0534 15.1135 16.7877 15.5716 16.3147C16.0297 15.8418 16.287 15.2003 16.287 14.5314V7.91118C16.2888 7.53639 16.2077 7.16613 16.0501 6.82853C15.8924 6.49094 15.6622 6.1949 15.3771 5.96294L10.2962 1.80796C9.85585 1.44218 9.30388 1.24999 8.73893 1.26573Z" fill="white"/>
    <path d="M10.8826 15.8495C10.7206 15.8495 10.5653 15.7831 10.4507 15.6649C10.3362 15.5466 10.2719 15.3863 10.2719 15.219V11.1838H7.21844V15.219C7.21844 15.3863 7.1541 15.5466 7.03958 15.6649C6.92505 15.7831 6.76972 15.8495 6.60776 15.8495C6.44579 15.8495 6.29046 15.7831 6.17594 15.6649C6.06141 15.5466 5.99707 15.3863 5.99707 15.219V10.5533C5.99707 10.3861 6.06141 10.2258 6.17594 10.1075C6.29046 9.98928 6.44579 9.92285 6.60776 9.92285H10.8826C11.0445 9.92285 11.1999 9.98928 11.3144 10.1075C11.4289 10.2258 11.4933 10.3861 11.4933 10.5533V15.219C11.4933 15.3863 11.4289 15.5466 11.3144 15.6649C11.1999 15.7831 11.0445 15.8495 10.8826 15.8495Z" fill="white"/>
    </svg>
    