<svg width="26" height="26" viewBox="0 0 26 26" fill="none" xmlns="http://www.w3.org/2000/svg">
<circle cx="13" cy="13" r="13" fill="#0290FF"/>
<path d="M4 9.8541C4 8.83011 4.83011 8 5.8541 8C6.55638 8 7.19839 7.60322 7.51246 6.97508L8.33333 5.33333C8.50271 4.99458 8.5874 4.8252 8.69554 4.68619C8.95744 4.34953 9.33166 4.11825 9.7499 4.03456C9.9226 4 10.112 4 10.4907 4H15.5093C15.888 4 16.0774 4 16.2501 4.03456C16.6683 4.11825 17.0426 4.34953 17.3045 4.68619C17.4126 4.8252 17.4973 4.99458 17.6667 5.33333L18.4875 6.97508C18.8016 7.60322 19.4436 8 20.1459 8C21.1699 8 22 8.83011 22 9.8541V14.8571C22 17.1866 22 18.3513 21.3217 19.1103C21.2552 19.1846 21.1846 19.2552 21.1103 19.3217C20.3513 20 19.1866 20 16.8571 20H9.14286C6.81345 20 5.64875 20 4.88974 19.3217C4.81536 19.2552 4.74476 19.1846 4.67829 19.1103C4 18.3513 4 17.1865 4 14.8571V9.8541Z" stroke="white" stroke-width="1.5"/>
<path d="M15.064 17H13.114L12.568 15.362H8.94101L8.39501 17H6.45801L9.64301 7.9H11.866L15.064 17ZM10.761 9.967L9.51301 13.685H12.009L10.761 9.967Z" fill="white"/>
<path d="M15.9476 17V7.9H17.7416V17H15.9476Z" fill="white"/>
</svg>
