<svg width="49" height="46" viewBox="0 0 49 46" fill="none" xmlns="http://www.w3.org/2000/svg">
<g clip-path="url(#clip0_1154_282)">
<path d="M37.9566 34.6313L30.4336 39.7799C28.6776 41.0543 26.5636 41.7405 24.3939 41.7405C22.2243 41.7405 20.1103 41.0543 18.3544 39.7799L10.8506 34.641C8.23051 32.8445 7.42141 27.8982 9.19862 24.5268L19.7655 4.46697C20.9455 2.23222 22.6553 1.09558 24.4036 1.09558C26.1519 1.09558 27.8617 2.21296 29.0417 4.46697L39.6086 24.5268C41.3858 27.8934 40.5766 32.8348 37.9566 34.6313Z" stroke="url(#paint0_linear_1154_282)" stroke-width="0.789869" stroke-miterlimit="10"/>
<path d="M6.77106 11.5421L0.948193 22.003C0.356729 23.0673 0.194322 24.3173 0.494257 25.4974C0.794191 26.6774 1.53378 27.6982 2.56163 28.3509L14.7276 36.0569C15.2847 36.4096 15.9375 36.5809 16.596 36.5471C17.2546 36.5134 17.8865 36.2763 18.4047 35.8685C18.9229 35.4607 19.3019 34.9023 19.4895 34.2701C19.6771 33.638 19.6641 32.9632 19.4523 32.3387L12.5747 12.067C12.376 11.4831 12.0123 10.9694 11.5275 10.588C11.0427 10.2067 10.4578 9.97417 9.84349 9.91861C9.22922 9.86304 8.61199 9.98684 8.06666 10.275C7.52133 10.5631 7.07128 11.0033 6.77106 11.5421Z" fill="url(#paint1_linear_1154_282)"/>
<path d="M42.0553 11.5421L47.8782 22.003C48.4696 23.0673 48.632 24.3173 48.3321 25.4974C48.0322 26.6774 47.2926 27.6982 46.2647 28.3509L34.0988 36.0569C33.5416 36.4096 32.8889 36.5809 32.2303 36.5471C31.5718 36.5134 30.9399 36.2763 30.4217 35.8685C29.9035 35.4607 29.5245 34.9023 29.3369 34.2701C29.1492 33.638 29.1622 32.9632 29.3741 32.3387L36.2517 12.067C36.4503 11.4831 36.8141 10.9694 37.2989 10.588C37.7837 10.2067 38.3687 9.97417 38.9829 9.91861C39.5972 9.86304 40.2144 9.98684 40.7597 10.275C41.305 10.5631 41.7551 11.0033 42.0553 11.5421Z" fill="url(#paint2_linear_1154_282)"/>
<path d="M38.6406 38.0893L30.7371 43.2427C28.8693 44.5225 26.6581 45.2074 24.394 45.2074C22.1299 45.2074 19.9188 44.5225 18.051 43.2427L10.1716 38.0893C7.41668 36.2928 6.56897 31.3465 8.43287 27.9751L19.5103 7.91534C20.7481 5.68059 22.5639 4.54395 24.3796 4.54395C26.1953 4.54395 28.0111 5.66614 29.2489 7.91534L40.3263 27.9751C42.2432 31.3513 41.3907 36.2928 38.6406 38.0893Z" fill="url(#paint3_linear_1154_282)"/>
<path opacity="0.5" d="M38.6403 38.0894L30.7367 43.2428C28.863 44.5022 26.6608 45.1838 24.4033 45.203V4.56812C26.2191 4.56812 28.0348 5.69031 29.2726 7.93951L40.35 27.9993C42.2428 31.3514 41.3904 36.2929 38.6403 38.0894Z" fill="url(#paint4_linear_1154_282)"/>
<path opacity="0.69" d="M7.13689 7.42432C6.47602 6.76444 6.06447 5.8958 5.97233 4.96644C5.8802 4.03709 6.11319 3.10453 6.63163 2.32774C7.15007 1.55094 7.92183 0.977982 8.81542 0.706507C9.709 0.435031 10.6691 0.481855 11.532 0.838981C12.395 1.19611 13.1073 1.84144 13.5477 2.66499C13.9881 3.48853 14.1294 4.43933 13.9472 5.35531C13.7651 6.2713 13.271 7.09577 12.549 7.68823C11.8271 8.28068 10.9221 8.60442 9.98815 8.6043C9.45861 8.60502 8.93414 8.50116 8.44485 8.29867C7.95556 8.09617 7.51106 7.79904 7.13689 7.42432Z" fill="#0193FF"/>
</g>
<defs>
<linearGradient id="paint0_linear_1154_282" x1="7.85005" y1="21.4251" x2="40.9571" y2="21.4251" gradientUnits="userSpaceOnUse">
<stop stop-color="#00DDFF"/>
<stop offset="1" stop-color="#00FFFF"/>
</linearGradient>
<linearGradient id="paint1_linear_1154_282" x1="9.98832" y1="41.0803" x2="9.98832" y2="19.8164" gradientUnits="userSpaceOnUse">
<stop stop-color="#00BFFF"/>
<stop offset="1" stop-color="#00FFFF"/>
</linearGradient>
<linearGradient id="paint2_linear_1154_282" x1="38.8188" y1="41.0803" x2="38.8188" y2="19.8164" gradientUnits="userSpaceOnUse">
<stop stop-color="#00BFFF"/>
<stop offset="1" stop-color="#00FFFF"/>
</linearGradient>
<linearGradient id="paint3_linear_1154_282" x1="24.4037" y1="52.0662" x2="24.4037" y2="19.6671" gradientUnits="userSpaceOnUse">
<stop stop-color="#3B3AEF"/>
<stop offset="0.96" stop-color="#0093FF"/>
</linearGradient>
<linearGradient id="paint4_linear_1154_282" x1="32.8896" y1="52.0662" x2="32.8896" y2="19.6671" gradientUnits="userSpaceOnUse">
<stop stop-color="#00BFFF"/>
<stop offset="1" stop-color="#00FFFF"/>
</linearGradient>
<clipPath id="clip0_1154_282">
<rect width="48.1146" height="44.6565" fill="white" transform="translate(0.346191 0.536987)"/>
</clipPath>
</defs>
</svg>
