<svg width="18" height="19" viewBox="0 0 18 19" fill="none" xmlns="http://www.w3.org/2000/svg">
<path d="M13.6567 18.2892H3.62087C2.66055 18.2892 1.73957 17.8906 1.06052 17.1812C0.38148 16.4717 0 15.5095 0 14.5062V7.91118C0.000250283 7.34564 0.123083 6.7875 0.359291 6.27864C0.595499 5.76979 0.938946 5.32343 1.36386 4.97306L6.38478 0.818077C7.01748 0.288542 7.80397 0 8.61464 0C9.42531 0 10.2118 0.288542 10.8445 0.818077L15.8654 4.97306C16.2896 5.32375 16.6321 5.77032 16.8673 6.27921C17.1024 6.78811 17.2242 7.34607 17.2232 7.91118V14.5314C17.217 15.5206 16.8402 16.4679 16.1736 17.1703C15.5069 17.8727 14.6034 18.2744 13.6567 18.2892ZM8.63576 1.26573C8.09811 1.26473 7.57634 1.45608 7.15724 1.80796L2.13631 5.96294C1.85377 6.19459 1.62542 6.4904 1.46858 6.82796C1.31174 7.16552 1.23053 7.53595 1.23109 7.91118V14.5314C1.23109 15.2003 1.48541 15.8418 1.93811 16.3147C2.3908 16.7877 3.00479 17.0534 3.645 17.0534H13.6808C14.321 17.0534 14.935 16.7877 15.3877 16.3147C15.8404 15.8418 16.0947 15.2003 16.0947 14.5314V7.91118C16.0965 7.53639 16.0164 7.16613 15.8606 6.82853C15.7048 6.49094 15.4773 6.1949 15.1956 5.96294L10.1746 1.80796C9.7395 1.44218 9.19405 1.24999 8.63576 1.26573Z" fill="#0E68EF"/>
<path d="M10.7536 15.8495C10.5935 15.8495 10.4401 15.7831 10.3269 15.6649C10.2137 15.5466 10.1501 15.3863 10.1501 15.219V11.1838H7.13274V15.219C7.13274 15.3863 7.06916 15.5466 6.95598 15.6649C6.84281 15.7831 6.68931 15.8495 6.52926 15.8495C6.36921 15.8495 6.21571 15.7831 6.10254 15.6649C5.98936 15.5466 5.92578 15.3863 5.92578 15.219V10.5533C5.92578 10.3861 5.98936 10.2258 6.10254 10.1075C6.21571 9.98928 6.36921 9.92285 6.52926 9.92285H10.7536C10.9137 9.92285 11.0672 9.98928 11.1803 10.1075C11.2935 10.2258 11.3571 10.3861 11.3571 10.5533V15.219C11.3571 15.3863 11.2935 15.5466 11.1803 15.6649C11.0672 15.7831 10.9137 15.8495 10.7536 15.8495Z" fill="#0E68EF"/>
</svg>
