<svg width="26" height="23" viewBox="0 0 26 23" fill="none" xmlns="http://www.w3.org/2000/svg">
<path d="M13.4109 21.4265H5.10732C4.43711 21.4269 3.77336 21.2954 3.15398 21.0394C2.53459 20.7834 1.9717 20.4079 1.49744 19.9343C1.02318 19.4607 0.646845 18.8984 0.389913 18.2794C0.132982 17.6604 0.000489029 16.9968 0 16.3266V5.94058C0 4.58604 0.53809 3.28696 1.4959 2.32915C2.45371 1.37134 3.75278 0.833252 5.10732 0.833252H13.4109C14.5198 0.833748 15.5985 1.1949 16.4842 1.86218C17.3698 2.52946 18.0145 3.46669 18.3208 4.53245C18.4474 4.97948 3.69918 3.91031 3.69918 4.39832L3.60232 19.8358C3.60232 21.1992 13.6121 21.758 17.1138 19.8358C16.6368 20.3382 16.0625 20.7383 15.4259 21.0118C14.7893 21.2853 14.1037 21.4263 13.4109 21.4265Z" fill="url(#paint0_linear_1095_3452)"/>
<path d="M18.5033 18.4425C18.2817 18.7384 17.9862 18.9709 17.6465 19.1168L14.6291 20.4095C14.289 20.5564 13.9162 20.6111 13.5482 20.5678C13.1803 20.5245 12.8303 20.3849 12.5336 20.163C12.2369 19.9412 12.004 19.6449 11.8585 19.3042C11.7129 18.9636 11.6599 18.5905 11.7047 18.2227L12.0773 14.9669C12.1203 14.5991 12.2604 14.2493 12.4833 13.9536L20.0866 3.77621C19.652 3.21991 19.0964 2.77005 18.4618 2.46084C17.8272 2.15163 17.1305 1.99123 16.4246 1.99182H6.33665C5.10329 1.99182 3.92038 2.48151 3.04791 3.35328C2.17544 4.22505 1.68479 5.40757 1.68381 6.64093V18.1073C1.68381 19.3413 2.17402 20.5247 3.04659 21.3973C3.91917 22.2699 5.10264 22.7601 6.33665 22.7601H16.4395C17.6735 22.7601 18.857 22.2699 19.7296 21.3973C20.6022 20.5247 21.0924 19.3413 21.0924 18.1073V14.9743L18.5033 18.4425ZM8.11732 5.03162C8.31804 5.03088 8.51446 5.08977 8.68166 5.20083C8.84886 5.31188 8.97931 5.47011 9.05646 5.65541C9.13362 5.84071 9.154 6.04474 9.11502 6.24164C9.07604 6.43855 8.97946 6.61944 8.83753 6.76137C8.6956 6.9033 8.51471 6.99988 8.31781 7.03885C8.1209 7.07783 7.91686 7.05746 7.73156 6.98031C7.54626 6.90315 7.38805 6.77271 7.27699 6.60551C7.16593 6.43831 7.10704 6.24189 7.10778 6.04117C7.11168 5.77666 7.21925 5.52424 7.40735 5.33823C7.59545 5.15222 7.84905 5.04746 8.11359 5.04651L8.11732 5.03162ZM5.23397 5.03162C5.43469 5.03088 5.63111 5.08977 5.79831 5.20083C5.96552 5.31188 6.09597 5.47011 6.17312 5.65541C6.25027 5.84071 6.27065 6.04474 6.23167 6.24164C6.19269 6.43855 6.09612 6.61944 5.95418 6.76137C5.81225 6.9033 5.63136 6.99988 5.43446 7.03885C5.23756 7.07783 5.03352 7.05746 4.84821 6.98031C4.66291 6.90315 4.5047 6.77271 4.39365 6.60551C4.28259 6.43831 4.22369 6.24189 4.22443 6.04117C4.22834 5.77601 4.33643 5.52305 4.52534 5.33693C4.71424 5.15082 4.96879 5.04648 5.23397 5.04651V5.03162ZM4.51872 8.0826C4.61275 7.98894 4.72432 7.91473 4.84705 7.86423C4.96978 7.81374 5.10126 7.78795 5.23397 7.78831H11.8388C12.1066 7.78831 12.3634 7.89466 12.5527 8.08399C12.742 8.27331 12.8484 8.5301 12.8484 8.79784C12.8484 9.06559 12.742 9.32237 12.5527 9.5117C12.3634 9.70102 12.1066 9.80739 11.8388 9.80739H5.23397C5.03469 9.80618 4.84019 9.74624 4.6748 9.63505C4.50941 9.52386 4.38048 9.36637 4.30415 9.18228C4.22781 8.9982 4.20745 8.7957 4.24562 8.6001C4.28378 8.4045 4.37878 8.22449 4.51872 8.0826ZM8.96295 18.789C8.86893 18.8826 8.75736 18.9568 8.63463 19.0073C8.5119 19.0578 8.38042 19.0836 8.2477 19.0833H5.23397C5.1014 19.0833 4.97012 19.0572 4.84764 19.0064C4.72515 18.9557 4.61386 18.8813 4.52012 18.7876C4.42637 18.6938 4.35201 18.5825 4.30128 18.4601C4.25054 18.3376 4.22443 18.2063 4.22443 18.0737C4.22443 17.9412 4.25054 17.8099 4.30128 17.6874C4.35201 17.5649 4.42637 17.4536 4.52012 17.3599C4.61386 17.2661 4.72515 17.1918 4.84764 17.141C4.97012 17.0903 5.1014 17.0642 5.23397 17.0642H8.2477C8.44699 17.0654 8.64149 17.1253 8.80688 17.2365C8.97227 17.3477 9.10119 17.5052 9.17753 17.6893C9.25387 17.8734 9.27423 18.0759 9.23606 18.2715C9.19789 18.4671 9.1029 18.6471 8.96295 18.789ZM8.96295 15.6859C8.86974 15.7809 8.7584 15.8562 8.63554 15.9074C8.51268 15.9586 8.3808 15.9846 8.2477 15.9839H5.23397C4.97634 15.9682 4.73439 15.8548 4.5575 15.6669C4.38061 15.4789 4.28212 15.2306 4.28212 14.9725C4.28212 14.7143 4.38061 14.466 4.5575 14.278C4.73439 14.0901 4.97634 13.9767 5.23397 13.9611H8.2477C8.38059 13.9611 8.51217 13.9873 8.6349 14.0383C8.75763 14.0892 8.86908 14.1639 8.96288 14.2581C9.05667 14.3522 9.13096 14.4639 9.18147 14.5868C9.23199 14.7097 9.25774 14.8414 9.25725 14.9743C9.25973 15.109 9.23494 15.2428 9.18437 15.3676C9.13379 15.4925 9.05847 15.6058 8.96295 15.7007V15.6859ZM10.0805 12.5864C9.9865 12.6801 9.87493 12.7543 9.7522 12.8048C9.62947 12.8553 9.49799 12.8811 9.36528 12.8807H5.23397C4.96623 12.8807 4.70944 12.7744 4.52012 12.585C4.33079 12.3957 4.22443 12.1389 4.22443 11.8712C4.22443 11.6034 4.33079 11.3466 4.52012 11.1573C4.70944 10.968 4.96623 10.8616 5.23397 10.8616H9.35783C9.5579 10.8611 9.75363 10.92 9.92016 11.0309C10.0867 11.1418 10.2165 11.2996 10.2932 11.4845C10.3698 11.6693 10.3898 11.8727 10.3506 12.0689C10.3114 12.2651 10.2148 12.4452 10.0731 12.5864H10.0805Z" fill="url(#paint1_linear_1095_3452)"/>
<path d="M25.477 6.14169L22.318 3.78362C22.2094 3.70232 22.0859 3.64321 21.9545 3.60969C21.823 3.57617 21.6863 3.56889 21.552 3.58827C21.4178 3.60764 21.2887 3.6533 21.1721 3.72262C21.0555 3.79194 20.9537 3.88355 20.8726 3.99224L19.1478 6.3019L23.9608 9.90048L25.6856 7.59082C25.85 7.37096 25.9204 7.09481 25.8813 6.82308C25.8422 6.55135 25.6967 6.30626 25.477 6.14169Z" fill="url(#paint2_linear_1095_3452)"/>
<path d="M12.8372 15.0525L12.4461 18.3121C12.4181 18.5497 12.4532 18.7905 12.5478 19.0103C12.6424 19.2301 12.7931 19.4211 12.9849 19.5641C13.1766 19.7072 13.4027 19.7973 13.6403 19.8254C13.8779 19.8534 14.1187 19.8185 14.3385 19.724L17.3522 18.4313C17.5205 18.3613 17.6716 18.2558 17.7955 18.1221L13.0049 14.5422C12.9132 14.6984 12.8561 14.8724 12.8372 15.0525Z" fill="url(#paint3_linear_1095_3452)"/>
<path d="M18.7919 6.77853L13.3709 14.0329L18.1813 17.6276L23.6023 10.3732L18.7919 6.77853Z" fill="url(#paint4_linear_1095_3452)"/>
<defs>
<linearGradient id="paint0_linear_1095_3452" x1="9.1604" y1="22.6707" x2="9.1604" y2="2.43139" gradientUnits="userSpaceOnUse">
<stop stop-color="#3B3AEF"/>
<stop offset="0.96" stop-color="#0093FF"/>
</linearGradient>
<linearGradient id="paint1_linear_1095_3452" x1="11.3881" y1="26.5934" x2="11.3881" y2="1.46656" gradientUnits="userSpaceOnUse">
<stop stop-color="#00BFFF"/>
<stop offset="1" stop-color="#00FFFF"/>
</linearGradient>
<linearGradient id="paint2_linear_1095_3452" x1="12.5131" y1="20.6739" x2="22.1168" y2="7.35986" gradientUnits="userSpaceOnUse">
<stop stop-color="#3B3AEF"/>
<stop offset="0.96" stop-color="#0093FF"/>
</linearGradient>
<linearGradient id="paint3_linear_1095_3452" x1="12.3529" y1="20.5585" x2="21.9566" y2="7.2444" gradientUnits="userSpaceOnUse">
<stop stop-color="#3B3AEF"/>
<stop offset="0.96" stop-color="#0093FF"/>
</linearGradient>
<linearGradient id="paint4_linear_1095_3452" x1="12.4134" y1="20.5988" x2="22.0208" y2="7.281" gradientUnits="userSpaceOnUse">
<stop stop-color="#3B3AEF"/>
<stop offset="0.96" stop-color="#0093FF"/>
</linearGradient>
</defs>
</svg>
