<svg width="20" height="20" viewBox="0 0 20 20" fill="none" xmlns="http://www.w3.org/2000/svg">
<path d="M8.33301 12.5L8.33301 10" stroke="white" stroke-width="1.66667" stroke-linecap="round"/>
<path d="M11.667 12.5L11.667 10" stroke="white" stroke-width="1.66667" stroke-linecap="round"/>
<path d="M2.5 5.83337H17.5V5.83337C16.7234 5.83337 16.3351 5.83337 16.0289 5.96024C15.6205 6.1294 15.296 6.45385 15.1269 6.86223C15 7.16852 15 7.5568 15 8.33337V13.3334C15 14.9047 15 15.6904 14.5118 16.1786C14.0237 16.6667 13.238 16.6667 11.6667 16.6667H8.33333C6.76198 16.6667 5.97631 16.6667 5.48816 16.1786C5 15.6904 5 14.9047 5 13.3334V8.33337C5 7.5568 5 7.16852 4.87313 6.86223C4.70398 6.45385 4.37952 6.1294 3.97114 5.96024C3.66485 5.83337 3.27657 5.83337 2.5 5.83337V5.83337Z" stroke="white" stroke-width="1.66667" stroke-linecap="round"/>
<path d="M8.39045 2.80883C8.48541 2.72023 8.69465 2.64194 8.98572 2.5861C9.2768 2.53027 9.63343 2.5 10.0003 2.5C10.3672 2.5 10.7239 2.53027 11.0149 2.5861C11.306 2.64194 11.5152 2.72023 11.6102 2.80883" stroke="white" stroke-width="1.66667" stroke-linecap="round"/>
</svg>
