<svg width="26" height="23" viewBox="0 0 26 23" fill="none" xmlns="http://www.w3.org/2000/svg">
<path d="M25.7915 12.8253C25.7915 14.0938 25.2876 15.3105 24.3906 16.2075C23.4935 17.1045 22.2769 17.6085 21.0083 17.6085H19.1457C19.1495 17.5651 19.1495 17.5215 19.1457 17.4781V17.3924C19.1495 16.7558 18.908 16.1422 18.4714 15.6788C18.1302 15.3122 17.6872 15.056 17.1993 14.9432C16.7114 14.8303 16.2009 14.866 15.7334 15.0455V10.3815C15.7334 9.71459 15.4684 9.07502 14.9969 8.60345C14.5253 8.13188 13.8857 7.86694 13.2188 7.86694C12.5519 7.86694 11.9123 8.13188 11.4408 8.60345C10.9692 9.07502 10.7043 9.71459 10.7043 10.3815V15.0418C10.2358 14.8629 9.72453 14.828 9.23606 14.9414C8.74758 15.0549 8.30412 15.3117 7.96248 15.6788C7.72253 15.9356 7.53971 16.2404 7.42606 16.573C7.31241 16.9056 7.2705 17.2585 7.3031 17.6085H5.44048C4.27141 17.5992 3.1463 17.1617 2.27803 16.3788C1.40975 15.5959 0.858547 14.5219 0.728685 13.36C0.598823 12.1982 0.899313 11.029 1.57331 10.0737C2.24731 9.11845 3.24807 8.44335 4.38624 8.17615C3.92987 7.16897 3.83713 6.03464 4.12385 4.96671C4.41057 3.89878 5.05897 2.96343 5.95843 2.32026C6.85789 1.6771 7.95266 1.36598 9.05593 1.44C10.1592 1.51401 11.2026 1.96856 12.0081 2.7261C12.7882 1.47791 14.0137 0.573005 15.4362 0.194774C16.8587 -0.183456 18.3718 -0.0067198 19.6689 0.689171C20.9659 1.38506 21.9499 2.54804 22.4213 3.94242C22.8928 5.33681 22.8165 6.85829 22.2078 8.1985C23.2335 8.46353 24.142 9.06179 24.7906 9.89926C25.4393 10.7367 25.7914 11.7659 25.7915 12.8253Z" fill="url(#paint0_linear_1095_3449)"/>
<path d="M17.8045 16.3121C17.5188 16.0052 17.1229 15.8242 16.7039 15.8088C16.2849 15.7935 15.8769 15.945 15.5694 16.2301L14.8243 16.9342V10.3814C14.8234 9.96218 14.6561 9.56044 14.3593 9.26434C14.0625 8.96823 13.6604 8.80193 13.2411 8.80193C13.0334 8.80144 12.8276 8.84194 12.6355 8.9211C12.4434 9.00025 12.2689 9.11652 12.1218 9.26324C11.9747 9.40996 11.8581 9.58425 11.7785 9.77613C11.6988 9.968 11.6579 10.1737 11.6579 10.3814V16.9342L10.9128 16.2301C10.602 15.9669 10.2018 15.8336 9.7952 15.8579C9.38865 15.8821 9.00709 16.0622 8.72985 16.3605C8.45261 16.6589 8.301 17.0526 8.30654 17.4598C8.31209 17.8671 8.47436 18.2565 8.75963 18.5472L12.1757 21.7248C12.198 21.7472 12.2278 21.7658 12.2539 21.7882C12.28 21.8105 12.3172 21.844 12.3508 21.8664L12.3992 21.8962C12.4369 21.9209 12.4768 21.9421 12.5184 21.9595L12.619 22.0154L12.6749 22.0378L12.8053 22.0787L12.9133 22.1123H12.9692H13.0995H13.2225H13.2784H13.4013H13.5354H13.5913L13.6993 22.0787L13.8297 22.0378L13.8818 22.0154C13.9178 21.999 13.9526 21.9804 13.9862 21.9595C14.0262 21.9413 14.0648 21.9201 14.1016 21.8962L14.1501 21.8664C14.1847 21.8433 14.2171 21.8171 14.2469 21.7882L14.3289 21.7248L17.7449 18.5472C18.0487 18.2584 18.2256 17.8609 18.2367 17.4419C18.2479 17.0229 18.0925 16.6166 17.8045 16.3121Z" fill="url(#paint1_linear_1095_3449)"/>
<path d="M17.8045 16.3121C17.5188 16.0052 17.1229 15.8242 16.7039 15.8088C16.2849 15.7935 15.8769 15.945 15.5694 16.2301L14.8243 16.9342V10.3814C14.8234 9.96218 14.6561 9.56044 14.3593 9.26434C14.0625 8.96823 13.6604 8.80193 13.2411 8.80193C13.0334 8.80144 12.8276 8.84194 12.6355 8.9211C12.4434 9.00025 12.2689 9.11652 12.1218 9.26324C11.9747 9.40996 11.8581 9.58425 11.7785 9.77613C11.6988 9.968 11.6579 10.1737 11.6579 10.3814V16.9342L10.9128 16.2301C10.602 15.9669 10.2018 15.8336 9.7952 15.8579C9.38865 15.8821 9.00709 16.0622 8.72985 16.3605C8.45261 16.6589 8.301 17.0526 8.30654 17.4598C8.31209 17.8671 8.47436 18.2565 8.75963 18.5472L12.1757 21.7248C12.198 21.7472 12.2278 21.7658 12.2539 21.7882C12.28 21.8105 12.3172 21.844 12.3508 21.8664L12.3992 21.8962C12.4369 21.9209 12.4768 21.9421 12.5184 21.9595L12.619 22.0154L12.6749 22.0378L12.8053 22.0787L12.9133 22.1123H12.9692H13.0995H13.2225H13.2784H13.4013H13.5354H13.5913L13.6993 22.0787L13.8297 22.0378L13.8818 22.0154C13.9178 21.999 13.9526 21.9804 13.9862 21.9595C14.0262 21.9413 14.0648 21.9201 14.1016 21.8962L14.1501 21.8664C14.1847 21.8433 14.2171 21.8171 14.2469 21.7882L14.3289 21.7248L17.7449 18.5472C18.0487 18.2584 18.2256 17.8609 18.2367 17.4419C18.2479 17.0229 18.0925 16.6166 17.8045 16.3121Z" fill="url(#paint2_linear_1095_3449)"/>
<mask id="mask0_1095_3449" style="mask-type:luminance" maskUnits="userSpaceOnUse" x="8" y="8" width="11" height="15">
<path d="M17.8045 16.3121C17.5188 16.0052 17.1229 15.8242 16.7039 15.8088C16.2849 15.7935 15.8769 15.945 15.5694 16.2301L14.8243 16.9342V10.3814C14.8234 9.96218 14.6561 9.56044 14.3593 9.26434C14.0625 8.96823 13.6604 8.80193 13.2411 8.80193C13.0334 8.80144 12.8276 8.84194 12.6355 8.9211C12.4434 9.00025 12.2689 9.11652 12.1218 9.26324C11.9747 9.40996 11.8581 9.58425 11.7785 9.77613C11.6988 9.968 11.6579 10.1737 11.6579 10.3814V16.9342L10.9128 16.2301C10.602 15.9669 10.2018 15.8336 9.7952 15.8579C9.38865 15.8821 9.00709 16.0622 8.72985 16.3605C8.45261 16.6589 8.301 17.0526 8.30654 17.4598C8.31209 17.8671 8.47436 18.2565 8.75963 18.5472L12.1757 21.7248C12.198 21.7472 12.2278 21.7658 12.2539 21.7882C12.28 21.8105 12.3172 21.844 12.3508 21.8664L12.3992 21.8962C12.4369 21.9209 12.4768 21.9421 12.5184 21.9595L12.619 22.0154L12.6749 22.0378L12.8053 22.0787L12.9133 22.1123H12.9692H13.0995H13.2225H13.2784H13.4013H13.5354H13.5913L13.6993 22.0787L13.8297 22.0378L13.8818 22.0154C13.9178 21.999 13.9526 21.9804 13.9862 21.9595C14.0262 21.9413 14.0648 21.9201 14.1016 21.8962L14.1501 21.8664C14.1847 21.8433 14.2171 21.8171 14.2469 21.7882L14.3289 21.7248L17.7449 18.5472C18.0487 18.2584 18.2256 17.8609 18.2367 17.4419C18.2479 17.0229 18.0925 16.6166 17.8045 16.3121Z" fill="white"/>
</mask>
<g mask="url(#mask0_1095_3449)">
<path d="M18.3968 22.0601H8.05927V22.1458H18.3968V22.0601Z" fill="url(#paint3_linear_1095_3449)"/>
<path d="M18.3968 21.8776H8.05927V22.0601H18.3968V21.8776Z" fill="url(#paint4_linear_1095_3449)"/>
<path d="M18.3968 21.695H8.05927V21.8776H18.3968V21.695Z" fill="url(#paint5_linear_1095_3449)"/>
<path d="M18.3968 21.5125H8.05927V21.6951H18.3968V21.5125Z" fill="url(#paint6_linear_1095_3449)"/>
<path d="M18.3968 21.33H8.05927V21.5125H18.3968V21.33Z" fill="url(#paint7_linear_1095_3449)"/>
<path d="M18.3968 21.1512H8.05927V21.3337H18.3968V21.1512Z" fill="url(#paint8_linear_1095_3449)"/>
<path d="M18.3968 20.9686H8.05927V21.1512H18.3968V20.9686Z" fill="url(#paint9_linear_1095_3449)"/>
<path d="M18.3968 20.7861H8.05927V20.9686H18.3968V20.7861Z" fill="url(#paint10_linear_1095_3449)"/>
<path d="M18.3968 20.6035H8.05927V20.7861H18.3968V20.6035Z" fill="url(#paint11_linear_1095_3449)"/>
<path d="M18.3968 20.421H8.05927V20.6035H18.3968V20.421Z" fill="url(#paint12_linear_1095_3449)"/>
<path d="M18.3968 20.2385H8.05927V20.421H18.3968V20.2385Z" fill="url(#paint13_linear_1095_3449)"/>
<path d="M18.3968 20.0559H8.05927V20.2385H18.3968V20.0559Z" fill="url(#paint14_linear_1095_3449)"/>
<path d="M18.3968 19.8734H8.05927V20.0559H18.3968V19.8734Z" fill="url(#paint15_linear_1095_3449)"/>
<path d="M18.3968 19.6909H8.05927V19.8734H18.3968V19.6909Z" fill="url(#paint16_linear_1095_3449)"/>
<path d="M18.3968 19.5083H8.05927V19.6909H18.3968V19.5083Z" fill="url(#paint17_linear_1095_3449)"/>
<path d="M18.3968 19.3258H8.05927V19.5083H18.3968V19.3258Z" fill="url(#paint18_linear_1095_3449)"/>
<path d="M18.3968 19.1432H8.05927V19.3258H18.3968V19.1432Z" fill="url(#paint19_linear_1095_3449)"/>
<path d="M18.3968 18.9607H8.05927V19.1432H18.3968V18.9607Z" fill="url(#paint20_linear_1095_3449)"/>
<path d="M18.3968 18.7782H8.05927V18.9607H18.3968V18.7782Z" fill="url(#paint21_linear_1095_3449)"/>
<path d="M18.3968 18.5956H8.05927V18.7782H18.3968V18.5956Z" fill="url(#paint22_linear_1095_3449)"/>
<path d="M18.3968 18.4131H8.05927V18.5956H18.3968V18.4131Z" fill="url(#paint23_linear_1095_3449)"/>
<path d="M18.3968 18.2306H8.05927V18.4131H18.3968V18.2306Z" fill="url(#paint24_linear_1095_3449)"/>
<path d="M18.3968 18.0517H8.05927V18.2343H18.3968V18.0517Z" fill="url(#paint25_linear_1095_3449)"/>
<path d="M18.3968 17.8692H8.05927V18.0518H18.3968V17.8692Z" fill="url(#paint26_linear_1095_3449)"/>
<path d="M18.3968 17.6867H8.05927V17.8692H18.3968V17.6867Z" fill="url(#paint27_linear_1095_3449)"/>
<path d="M18.3968 17.5041H8.05927V17.6867H18.3968V17.5041Z" fill="url(#paint28_linear_1095_3449)"/>
<path d="M18.3968 17.3216H8.05927V17.5041H18.3968V17.3216Z" fill="url(#paint29_linear_1095_3449)"/>
<path d="M18.3968 17.1391H8.05927V17.3216H18.3968V17.1391Z" fill="url(#paint30_linear_1095_3449)"/>
<path d="M18.3968 16.9565H8.05927V17.1391H18.3968V16.9565Z" fill="url(#paint31_linear_1095_3449)"/>
<path d="M18.3968 16.774H8.05927V16.9565H18.3968V16.774Z" fill="url(#paint32_linear_1095_3449)"/>
<path d="M18.3968 16.5914H8.05927V16.774H18.3968V16.5914Z" fill="url(#paint33_linear_1095_3449)"/>
<path d="M18.3968 16.4089H8.05927V16.5914H18.3968V16.4089Z" fill="url(#paint34_linear_1095_3449)"/>
<path d="M18.3968 16.2264H8.05927V16.4089H18.3968V16.2264Z" fill="url(#paint35_linear_1095_3449)"/>
<path d="M18.3968 16.0438H8.05927V16.2264H18.3968V16.0438Z" fill="url(#paint36_linear_1095_3449)"/>
<path d="M18.3968 15.8613H8.05927V16.0438H18.3968V15.8613Z" fill="url(#paint37_linear_1095_3449)"/>
<path d="M18.3968 15.6788H8.05927V15.8613H18.3968V15.6788Z" fill="url(#paint38_linear_1095_3449)"/>
<path d="M18.3968 15.4962H8.05927V15.6788H18.3968V15.4962Z" fill="url(#paint39_linear_1095_3449)"/>
<path d="M18.3968 15.3137H8.05927V15.4962H18.3968V15.3137Z" fill="url(#paint40_linear_1095_3449)"/>
<path d="M18.3968 15.1311H8.05927V15.3137H18.3968V15.1311Z" fill="url(#paint41_linear_1095_3449)"/>
<path d="M18.3968 14.9486H8.05927V15.1311H18.3968V14.9486Z" fill="url(#paint42_linear_1095_3449)"/>
<path d="M18.3968 14.7698H8.05927V14.9523H18.3968V14.7698Z" fill="url(#paint43_linear_1095_3449)"/>
<path d="M18.3968 14.5872H8.05927V14.7698H18.3968V14.5872Z" fill="url(#paint44_linear_1095_3449)"/>
<path d="M18.3968 14.4047H8.05927V14.5872H18.3968V14.4047Z" fill="url(#paint45_linear_1095_3449)"/>
<path d="M18.3968 14.2222H8.05927V14.4047H18.3968V14.2222Z" fill="url(#paint46_linear_1095_3449)"/>
<path d="M18.3968 14.0396H8.05927V14.2222H18.3968V14.0396Z" fill="url(#paint47_linear_1095_3449)"/>
<path d="M18.3968 13.8571H8.05927V14.0396H18.3968V13.8571Z" fill="url(#paint48_linear_1095_3449)"/>
<path d="M18.3968 13.6746H8.05927V13.8571H18.3968V13.6746Z" fill="url(#paint49_linear_1095_3449)"/>
<path d="M18.3968 13.492H8.05927V13.6746H18.3968V13.492Z" fill="url(#paint50_linear_1095_3449)"/>
<path d="M18.3968 13.3095H8.05927V13.492H18.3968V13.3095Z" fill="url(#paint51_linear_1095_3449)"/>
<path d="M18.3968 13.127H8.05927V13.3095H18.3968V13.127Z" fill="url(#paint52_linear_1095_3449)"/>
<path d="M18.3968 12.9444H8.05927V13.127H18.3968V12.9444Z" fill="url(#paint53_linear_1095_3449)"/>
<path d="M18.3968 12.7619H8.05927V12.9444H18.3968V12.7619Z" fill="url(#paint54_linear_1095_3449)"/>
<path d="M18.3968 12.5793H8.05927V12.7619H18.3968V12.5793Z" fill="url(#paint55_linear_1095_3449)"/>
<path d="M18.3968 12.3968H8.05927V12.5793H18.3968V12.3968Z" fill="url(#paint56_linear_1095_3449)"/>
<path d="M18.3968 12.2143H8.05927V12.3968H18.3968V12.2143Z" fill="url(#paint57_linear_1095_3449)"/>
<path d="M18.3968 12.0317H8.05927V12.2143H18.3968V12.0317Z" fill="url(#paint58_linear_1095_3449)"/>
<path d="M18.3968 11.8492H8.05927V12.0317H18.3968V11.8492Z" fill="url(#paint59_linear_1095_3449)"/>
<path d="M18.3968 11.6667H8.05927V11.8492H18.3968V11.6667Z" fill="url(#paint60_linear_1095_3449)"/>
<path d="M18.3968 8.79822H8.05927V11.6667H18.3968V8.79822Z" fill="url(#paint61_linear_1095_3449)"/>
</g>
<defs>
<linearGradient id="paint0_linear_1095_3449" x1="13.23" y1="25.9084" x2="13.23" y2="-1.53559" gradientUnits="userSpaceOnUse">
<stop stop-color="#00BFFF"/>
<stop offset="1" stop-color="#00FFFF"/>
</linearGradient>
<linearGradient id="paint1_linear_1095_3449" x1="13.2299" y1="23.3379" x2="13.2299" y2="11.6704" gradientUnits="userSpaceOnUse">
<stop stop-color="#00BFFF"/>
<stop offset="1" stop-color="#00FFFF"/>
</linearGradient>
<linearGradient id="paint2_linear_1095_3449" x1="13.2299" y1="-1.30095" x2="13.2299" y2="16.7367" gradientUnits="userSpaceOnUse">
<stop stop-color="#3B3AEF"/>
<stop offset="0.96" stop-color="#0093FF"/>
</linearGradient>
<linearGradient id="paint3_linear_1095_3449" x1="43.1139" y1="253.446" x2="43.1139" y2="271.484" gradientUnits="userSpaceOnUse">
<stop stop-color="#3B3AEF"/>
<stop offset="0.96" stop-color="#0093FF"/>
</linearGradient>
<linearGradient id="paint4_linear_1095_3449" x1="43.1139" y1="253.448" x2="43.1139" y2="271.485" gradientUnits="userSpaceOnUse">
<stop stop-color="#3B3AEF"/>
<stop offset="0.96" stop-color="#0093FF"/>
</linearGradient>
<linearGradient id="paint5_linear_1095_3449" x1="43.1139" y1="253.446" x2="43.1139" y2="271.483" gradientUnits="userSpaceOnUse">
<stop stop-color="#3B3AEF"/>
<stop offset="0.96" stop-color="#0093FF"/>
</linearGradient>
<linearGradient id="paint6_linear_1095_3449" x1="43.1139" y1="253.448" x2="43.1139" y2="271.485" gradientUnits="userSpaceOnUse">
<stop stop-color="#3B3AEF"/>
<stop offset="0.96" stop-color="#0093FF"/>
</linearGradient>
<linearGradient id="paint7_linear_1095_3449" x1="43.1139" y1="253.446" x2="43.1139" y2="271.483" gradientUnits="userSpaceOnUse">
<stop stop-color="#3B3AEF"/>
<stop offset="0.96" stop-color="#0093FF"/>
</linearGradient>
<linearGradient id="paint8_linear_1095_3449" x1="43.1139" y1="253.446" x2="43.1139" y2="271.483" gradientUnits="userSpaceOnUse">
<stop stop-color="#3B3AEF"/>
<stop offset="0.96" stop-color="#0093FF"/>
</linearGradient>
<linearGradient id="paint9_linear_1095_3449" x1="43.1139" y1="253.448" x2="43.1139" y2="271.485" gradientUnits="userSpaceOnUse">
<stop stop-color="#3B3AEF"/>
<stop offset="0.96" stop-color="#0093FF"/>
</linearGradient>
<linearGradient id="paint10_linear_1095_3449" x1="43.1139" y1="253.448" x2="43.1139" y2="271.485" gradientUnits="userSpaceOnUse">
<stop stop-color="#3B3AEF"/>
<stop offset="0.96" stop-color="#0093FF"/>
</linearGradient>
<linearGradient id="paint11_linear_1095_3449" x1="43.1139" y1="253.446" x2="43.1139" y2="271.483" gradientUnits="userSpaceOnUse">
<stop stop-color="#3B3AEF"/>
<stop offset="0.96" stop-color="#0093FF"/>
</linearGradient>
<linearGradient id="paint12_linear_1095_3449" x1="43.1139" y1="253.448" x2="43.1139" y2="271.485" gradientUnits="userSpaceOnUse">
<stop stop-color="#3B3AEF"/>
<stop offset="0.96" stop-color="#0093FF"/>
</linearGradient>
<linearGradient id="paint13_linear_1095_3449" x1="43.1139" y1="253.446" x2="43.1139" y2="271.483" gradientUnits="userSpaceOnUse">
<stop stop-color="#3B3AEF"/>
<stop offset="0.96" stop-color="#0093FF"/>
</linearGradient>
<linearGradient id="paint14_linear_1095_3449" x1="43.1139" y1="253.448" x2="43.1139" y2="271.485" gradientUnits="userSpaceOnUse">
<stop stop-color="#3B3AEF"/>
<stop offset="0.96" stop-color="#0093FF"/>
</linearGradient>
<linearGradient id="paint15_linear_1095_3449" x1="43.1139" y1="253.446" x2="43.1139" y2="271.483" gradientUnits="userSpaceOnUse">
<stop stop-color="#3B3AEF"/>
<stop offset="0.96" stop-color="#0093FF"/>
</linearGradient>
<linearGradient id="paint16_linear_1095_3449" x1="43.1139" y1="253.448" x2="43.1139" y2="271.485" gradientUnits="userSpaceOnUse">
<stop stop-color="#3B3AEF"/>
<stop offset="0.96" stop-color="#0093FF"/>
</linearGradient>
<linearGradient id="paint17_linear_1095_3449" x1="43.1139" y1="253.446" x2="43.1139" y2="271.483" gradientUnits="userSpaceOnUse">
<stop stop-color="#3B3AEF"/>
<stop offset="0.96" stop-color="#0093FF"/>
</linearGradient>
<linearGradient id="paint18_linear_1095_3449" x1="43.1139" y1="253.448" x2="43.1139" y2="271.485" gradientUnits="userSpaceOnUse">
<stop stop-color="#3B3AEF"/>
<stop offset="0.96" stop-color="#0093FF"/>
</linearGradient>
<linearGradient id="paint19_linear_1095_3449" x1="43.1139" y1="253.448" x2="43.1139" y2="271.485" gradientUnits="userSpaceOnUse">
<stop stop-color="#3B3AEF"/>
<stop offset="0.96" stop-color="#0093FF"/>
</linearGradient>
<linearGradient id="paint20_linear_1095_3449" x1="43.1139" y1="253.446" x2="43.1139" y2="271.483" gradientUnits="userSpaceOnUse">
<stop stop-color="#3B3AEF"/>
<stop offset="0.96" stop-color="#0093FF"/>
</linearGradient>
<linearGradient id="paint21_linear_1095_3449" x1="43.1139" y1="253.448" x2="43.1139" y2="271.485" gradientUnits="userSpaceOnUse">
<stop stop-color="#3B3AEF"/>
<stop offset="0.96" stop-color="#0093FF"/>
</linearGradient>
<linearGradient id="paint22_linear_1095_3449" x1="43.1139" y1="253.446" x2="43.1139" y2="271.483" gradientUnits="userSpaceOnUse">
<stop stop-color="#3B3AEF"/>
<stop offset="0.96" stop-color="#0093FF"/>
</linearGradient>
<linearGradient id="paint23_linear_1095_3449" x1="43.1139" y1="253.448" x2="43.1139" y2="271.485" gradientUnits="userSpaceOnUse">
<stop stop-color="#3B3AEF"/>
<stop offset="0.96" stop-color="#0093FF"/>
</linearGradient>
<linearGradient id="paint24_linear_1095_3449" x1="43.1139" y1="253.446" x2="43.1139" y2="271.483" gradientUnits="userSpaceOnUse">
<stop stop-color="#3B3AEF"/>
<stop offset="0.96" stop-color="#0093FF"/>
</linearGradient>
<linearGradient id="paint25_linear_1095_3449" x1="43.1139" y1="253.448" x2="43.1139" y2="271.485" gradientUnits="userSpaceOnUse">
<stop stop-color="#3B3AEF"/>
<stop offset="0.96" stop-color="#0093FF"/>
</linearGradient>
<linearGradient id="paint26_linear_1095_3449" x1="43.1139" y1="253.446" x2="43.1139" y2="271.483" gradientUnits="userSpaceOnUse">
<stop stop-color="#3B3AEF"/>
<stop offset="0.96" stop-color="#0093FF"/>
</linearGradient>
<linearGradient id="paint27_linear_1095_3449" x1="43.1139" y1="253.448" x2="43.1139" y2="271.485" gradientUnits="userSpaceOnUse">
<stop stop-color="#3B3AEF"/>
<stop offset="0.96" stop-color="#0093FF"/>
</linearGradient>
<linearGradient id="paint28_linear_1095_3449" x1="43.1139" y1="253.446" x2="43.1139" y2="271.483" gradientUnits="userSpaceOnUse">
<stop stop-color="#3B3AEF"/>
<stop offset="0.96" stop-color="#0093FF"/>
</linearGradient>
<linearGradient id="paint29_linear_1095_3449" x1="43.1139" y1="253.448" x2="43.1139" y2="271.485" gradientUnits="userSpaceOnUse">
<stop stop-color="#3B3AEF"/>
<stop offset="0.96" stop-color="#0093FF"/>
</linearGradient>
<linearGradient id="paint30_linear_1095_3449" x1="43.1139" y1="253.446" x2="43.1139" y2="271.483" gradientUnits="userSpaceOnUse">
<stop stop-color="#3B3AEF"/>
<stop offset="0.96" stop-color="#0093FF"/>
</linearGradient>
<linearGradient id="paint31_linear_1095_3449" x1="43.1139" y1="253.448" x2="43.1139" y2="271.485" gradientUnits="userSpaceOnUse">
<stop stop-color="#3B3AEF"/>
<stop offset="0.96" stop-color="#0093FF"/>
</linearGradient>
<linearGradient id="paint32_linear_1095_3449" x1="43.1139" y1="253.446" x2="43.1139" y2="271.483" gradientUnits="userSpaceOnUse">
<stop stop-color="#3B3AEF"/>
<stop offset="0.96" stop-color="#0093FF"/>
</linearGradient>
<linearGradient id="paint33_linear_1095_3449" x1="43.1139" y1="253.448" x2="43.1139" y2="271.485" gradientUnits="userSpaceOnUse">
<stop stop-color="#3B3AEF"/>
<stop offset="0.96" stop-color="#0093FF"/>
</linearGradient>
<linearGradient id="paint34_linear_1095_3449" x1="43.1139" y1="253.448" x2="43.1139" y2="271.485" gradientUnits="userSpaceOnUse">
<stop stop-color="#3B3AEF"/>
<stop offset="0.96" stop-color="#0093FF"/>
</linearGradient>
<linearGradient id="paint35_linear_1095_3449" x1="43.1139" y1="253.446" x2="43.1139" y2="271.483" gradientUnits="userSpaceOnUse">
<stop stop-color="#3B3AEF"/>
<stop offset="0.96" stop-color="#0093FF"/>
</linearGradient>
<linearGradient id="paint36_linear_1095_3449" x1="43.1139" y1="253.448" x2="43.1139" y2="271.485" gradientUnits="userSpaceOnUse">
<stop stop-color="#3B3AEF"/>
<stop offset="0.96" stop-color="#0093FF"/>
</linearGradient>
<linearGradient id="paint37_linear_1095_3449" x1="43.1139" y1="253.446" x2="43.1139" y2="271.483" gradientUnits="userSpaceOnUse">
<stop stop-color="#3B3AEF"/>
<stop offset="0.96" stop-color="#0093FF"/>
</linearGradient>
<linearGradient id="paint38_linear_1095_3449" x1="43.1139" y1="253.448" x2="43.1139" y2="271.485" gradientUnits="userSpaceOnUse">
<stop stop-color="#3B3AEF"/>
<stop offset="0.96" stop-color="#0093FF"/>
</linearGradient>
<linearGradient id="paint39_linear_1095_3449" x1="43.1139" y1="253.446" x2="43.1139" y2="271.483" gradientUnits="userSpaceOnUse">
<stop stop-color="#3B3AEF"/>
<stop offset="0.96" stop-color="#0093FF"/>
</linearGradient>
<linearGradient id="paint40_linear_1095_3449" x1="43.1139" y1="253.448" x2="43.1139" y2="271.485" gradientUnits="userSpaceOnUse">
<stop stop-color="#3B3AEF"/>
<stop offset="0.96" stop-color="#0093FF"/>
</linearGradient>
<linearGradient id="paint41_linear_1095_3449" x1="43.1139" y1="253.446" x2="43.1139" y2="271.483" gradientUnits="userSpaceOnUse">
<stop stop-color="#3B3AEF"/>
<stop offset="0.96" stop-color="#0093FF"/>
</linearGradient>
<linearGradient id="paint42_linear_1095_3449" x1="43.1139" y1="253.448" x2="43.1139" y2="271.485" gradientUnits="userSpaceOnUse">
<stop stop-color="#3B3AEF"/>
<stop offset="0.96" stop-color="#0093FF"/>
</linearGradient>
<linearGradient id="paint43_linear_1095_3449" x1="43.1139" y1="253.446" x2="43.1139" y2="271.483" gradientUnits="userSpaceOnUse">
<stop stop-color="#3B3AEF"/>
<stop offset="0.96" stop-color="#0093FF"/>
</linearGradient>
<linearGradient id="paint44_linear_1095_3449" x1="43.1139" y1="253.448" x2="43.1139" y2="271.485" gradientUnits="userSpaceOnUse">
<stop stop-color="#3B3AEF"/>
<stop offset="0.96" stop-color="#0093FF"/>
</linearGradient>
<linearGradient id="paint45_linear_1095_3449" x1="43.1139" y1="253.446" x2="43.1139" y2="271.483" gradientUnits="userSpaceOnUse">
<stop stop-color="#3B3AEF"/>
<stop offset="0.96" stop-color="#0093FF"/>
</linearGradient>
<linearGradient id="paint46_linear_1095_3449" x1="43.1139" y1="253.448" x2="43.1139" y2="271.485" gradientUnits="userSpaceOnUse">
<stop stop-color="#3B3AEF"/>
<stop offset="0.96" stop-color="#0093FF"/>
</linearGradient>
<linearGradient id="paint47_linear_1095_3449" x1="43.1139" y1="253.446" x2="43.1139" y2="271.483" gradientUnits="userSpaceOnUse">
<stop stop-color="#3B3AEF"/>
<stop offset="0.96" stop-color="#0093FF"/>
</linearGradient>
<linearGradient id="paint48_linear_1095_3449" x1="43.1139" y1="253.448" x2="43.1139" y2="271.485" gradientUnits="userSpaceOnUse">
<stop stop-color="#3B3AEF"/>
<stop offset="0.96" stop-color="#0093FF"/>
</linearGradient>
<linearGradient id="paint49_linear_1095_3449" x1="43.1139" y1="253.448" x2="43.1139" y2="271.485" gradientUnits="userSpaceOnUse">
<stop stop-color="#3B3AEF"/>
<stop offset="0.96" stop-color="#0093FF"/>
</linearGradient>
<linearGradient id="paint50_linear_1095_3449" x1="43.1139" y1="253.446" x2="43.1139" y2="271.483" gradientUnits="userSpaceOnUse">
<stop stop-color="#3B3AEF"/>
<stop offset="0.96" stop-color="#0093FF"/>
</linearGradient>
<linearGradient id="paint51_linear_1095_3449" x1="43.1139" y1="253.448" x2="43.1139" y2="271.485" gradientUnits="userSpaceOnUse">
<stop stop-color="#3B3AEF"/>
<stop offset="0.96" stop-color="#0093FF"/>
</linearGradient>
<linearGradient id="paint52_linear_1095_3449" x1="43.1139" y1="253.446" x2="43.1139" y2="271.483" gradientUnits="userSpaceOnUse">
<stop stop-color="#3B3AEF"/>
<stop offset="0.96" stop-color="#0093FF"/>
</linearGradient>
<linearGradient id="paint53_linear_1095_3449" x1="43.1139" y1="253.448" x2="43.1139" y2="271.485" gradientUnits="userSpaceOnUse">
<stop stop-color="#3B3AEF"/>
<stop offset="0.96" stop-color="#0093FF"/>
</linearGradient>
<linearGradient id="paint54_linear_1095_3449" x1="43.1139" y1="253.446" x2="43.1139" y2="271.483" gradientUnits="userSpaceOnUse">
<stop stop-color="#3B3AEF"/>
<stop offset="0.96" stop-color="#0093FF"/>
</linearGradient>
<linearGradient id="paint55_linear_1095_3449" x1="43.1139" y1="253.448" x2="43.1139" y2="271.485" gradientUnits="userSpaceOnUse">
<stop stop-color="#3B3AEF"/>
<stop offset="0.96" stop-color="#0093FF"/>
</linearGradient>
<linearGradient id="paint56_linear_1095_3449" x1="43.1139" y1="253.446" x2="43.1139" y2="271.483" gradientUnits="userSpaceOnUse">
<stop stop-color="#3B3AEF"/>
<stop offset="0.96" stop-color="#0093FF"/>
</linearGradient>
<linearGradient id="paint57_linear_1095_3449" x1="43.1139" y1="253.448" x2="43.1139" y2="271.485" gradientUnits="userSpaceOnUse">
<stop stop-color="#3B3AEF"/>
<stop offset="0.96" stop-color="#0093FF"/>
</linearGradient>
<linearGradient id="paint58_linear_1095_3449" x1="43.1139" y1="253.448" x2="43.1139" y2="271.485" gradientUnits="userSpaceOnUse">
<stop stop-color="#3B3AEF"/>
<stop offset="0.96" stop-color="#0093FF"/>
</linearGradient>
<linearGradient id="paint59_linear_1095_3449" x1="43.1139" y1="253.446" x2="43.1139" y2="271.483" gradientUnits="userSpaceOnUse">
<stop stop-color="#3B3AEF"/>
<stop offset="0.96" stop-color="#0093FF"/>
</linearGradient>
<linearGradient id="paint60_linear_1095_3449" x1="43.1139" y1="253.448" x2="43.1139" y2="271.485" gradientUnits="userSpaceOnUse">
<stop stop-color="#3B3AEF"/>
<stop offset="0.96" stop-color="#0093FF"/>
</linearGradient>
<linearGradient id="paint61_linear_1095_3449" x1="43.1139" y1="253.447" x2="43.1139" y2="271.484" gradientUnits="userSpaceOnUse">
<stop stop-color="#3B3AEF"/>
<stop offset="0.96" stop-color="#0093FF"/>
</linearGradient>
</defs>
</svg>
