<svg width="18" height="18" viewBox="0 0 18 18" fill="none" xmlns="http://www.w3.org/2000/svg">
<g clip-path="url(#clip0_2747_2427)">
<path d="M14.2214 0.168823H12.2085C11.7381 0.169029 11.2718 0.256666 10.8335 0.4273C10.7187 0.476701 10.6167 0.55171 10.5353 0.646602C10.4539 0.741494 10.3953 0.853746 10.364 0.974766C10.3327 1.09579 10.3295 1.22237 10.3546 1.34482C10.3798 1.46728 10.4326 1.58238 10.509 1.68128C10.612 1.82333 10.7583 1.92805 10.926 1.97963C11.0936 2.03122 11.2735 2.02687 11.4385 1.96725C11.6837 1.87049 11.9448 1.82016 12.2085 1.81878H14.2214C14.7855 1.82023 15.326 2.04494 15.7248 2.44378C16.1237 2.84263 16.3484 3.38316 16.3499 3.94721V13.9129C16.3484 14.477 16.1237 15.0175 15.7248 15.4163C15.326 15.8152 14.7855 16.0399 14.2214 16.0414H12.2085C11.9762 16.0424 11.7455 16.0033 11.5265 15.9258C11.3646 15.8733 11.1902 15.8732 11.0283 15.9255C10.8663 15.9779 10.725 16.08 10.6245 16.2174C10.5453 16.3221 10.4923 16.4443 10.4698 16.5737C10.4474 16.7032 10.4561 16.8361 10.4954 16.9614C10.5347 17.0868 10.6033 17.2009 10.6956 17.2944C10.7879 17.3879 10.9012 17.458 11.026 17.4988C11.407 17.6273 11.8064 17.6923 12.2085 17.6913H14.2214C14.7178 17.692 15.2095 17.5948 15.6682 17.4052C16.127 17.2155 16.5437 16.9373 16.8947 16.5863C17.2457 16.2353 17.5241 15.8184 17.7137 15.3597C17.9033 14.9009 18.0005 14.4093 17.9998 13.9129V3.94721C17.9998 2.94512 17.6017 1.98406 16.8931 1.27547C16.1845 0.566886 15.2235 0.168823 14.2214 0.168823Z" fill="white"/>
<path d="M10.4593 6.46611V3.94721C10.4593 2.94512 10.0613 1.98406 9.3527 1.27547C8.64411 0.566886 7.68302 0.168823 6.68093 0.168823H4.67354C3.67094 0.168822 2.70928 0.566708 1.99982 1.27514C1.29036 1.98356 0.891106 2.94461 0.889648 3.94721V13.9129C0.891106 14.9155 1.29036 15.8765 1.99982 16.585C2.70928 17.2934 3.67094 17.6913 4.67354 17.6913H6.68093C7.68302 17.6913 8.64411 17.2932 9.3527 16.5846C10.0613 15.876 10.4593 14.915 10.4593 13.9129V11.394C10.4593 11.1752 10.3724 10.9653 10.2177 10.8106C10.063 10.6559 9.85314 10.569 9.63434 10.569C9.41554 10.569 9.20577 10.6559 9.05105 10.8106C8.89634 10.9653 8.80936 11.1752 8.80936 11.394V13.9129C8.80936 14.4774 8.58516 15.0188 8.186 15.418C7.78684 15.8171 7.24542 16.0414 6.68093 16.0414H4.67354C4.10854 16.0414 3.56656 15.8173 3.16652 15.4183C2.76649 15.0193 2.54106 14.4779 2.5396 13.9129V3.94721C2.54106 3.38221 2.76649 2.84084 3.16652 2.44184C3.56656 2.04283 4.10854 1.81877 4.67354 1.81877H6.68093C7.24542 1.81877 7.78684 2.04301 8.186 2.44217C8.58516 2.84133 8.80936 3.38271 8.80936 3.94721V6.46611C8.80936 6.68491 8.89634 6.89475 9.05105 7.04946C9.20577 7.20418 9.41554 7.29109 9.63434 7.29109C9.85314 7.29109 10.063 7.20418 10.2177 7.04946C10.3724 6.89475 10.4593 6.68491 10.4593 6.46611Z" fill="white"/>
<path d="M12.8074 9.79338H6.6531C6.4343 9.79338 6.22446 9.70647 6.06975 9.55176C5.91504 9.39705 5.82812 9.18721 5.82812 8.96841C5.82812 8.74961 5.91504 8.53977 6.06975 8.38506C6.22446 8.23034 6.4343 8.14343 6.6531 8.14343H12.8074C13.0262 8.14343 13.236 8.23034 13.3907 8.38506C13.5455 8.53977 13.6324 8.74961 13.6324 8.96841C13.6324 9.18721 13.5455 9.39705 13.3907 9.55176C13.236 9.70647 13.0262 9.79338 12.8074 9.79338Z" fill="white"/>
<path d="M13.215 9.71104C13.0924 9.71069 12.9715 9.68283 12.8611 9.62953C12.7507 9.57623 12.6536 9.49884 12.5771 9.40305L10.8171 7.24161C10.7489 7.15747 10.6979 7.06071 10.667 6.95685C10.6361 6.853 10.626 6.74407 10.6373 6.63631C10.6485 6.52855 10.6809 6.42408 10.7325 6.32882C10.7841 6.23357 10.854 6.14941 10.9381 6.08115C11.0222 6.0129 11.119 5.96189 11.2229 5.93104C11.3267 5.90018 11.4356 5.89006 11.5434 5.9013C11.6512 5.91253 11.7557 5.94488 11.851 5.9965C11.9462 6.04811 12.0304 6.11799 12.0986 6.20213L13.8585 8.36357C13.995 8.53406 14.0588 8.75144 14.0362 8.96864C14.0135 9.18583 13.9063 9.38538 13.7376 9.52406C13.5907 9.64567 13.4057 9.71183 13.215 9.71104Z" fill="white"/>
<path d="M11.4551 11.8724C11.299 11.8737 11.1458 11.8304 11.0135 11.7475C10.8812 11.6647 10.7753 11.5458 10.7083 11.4048C10.6413 11.2638 10.6159 11.1067 10.6352 10.9518C10.6545 10.7969 10.7175 10.6507 10.8171 10.5305L12.577 8.36351C12.6453 8.27937 12.7295 8.20949 12.8247 8.15787C12.92 8.10625 13.0244 8.07391 13.1322 8.06267C13.24 8.05144 13.3488 8.06156 13.4527 8.09241C13.5566 8.12327 13.6534 8.17428 13.7375 8.24253C13.8216 8.31078 13.8915 8.39494 13.9431 8.4902C13.9948 8.58546 14.0271 8.68993 14.0383 8.79769C14.0496 8.90544 14.0395 9.01437 14.0086 9.11823C13.9777 9.22209 13.9267 9.31885 13.8585 9.40299L12.0986 11.5699C12.0201 11.6645 11.9218 11.7407 11.8105 11.793C11.6993 11.8453 11.578 11.8724 11.4551 11.8724Z" fill="white"/>
</g>
<defs>
<clipPath id="clip0_2747_2427">
<rect width="17.11" height="17.5225" fill="white" transform="translate(0.889648 0.168823)"/>
</clipPath>
</defs>
</svg>
