<svg width="26" height="22" viewBox="0 0 26 22" fill="none" xmlns="http://www.w3.org/2000/svg">
<g clip-path="url(#clip0_2745_2208)">
<path d="M11.8077 18.7767H6.0133V1.59884H16.455V9.27326C16.455 9.48528 16.5403 9.6886 16.6922 9.83852C16.8442 9.98844 17.0503 10.0727 17.2651 10.0727C17.48 10.0727 17.6861 9.98844 17.838 9.83852C17.99 9.6886 18.0753 9.48528 18.0753 9.27326V5.02034H20.6679V5.76222C20.6679 5.97424 20.7533 6.17756 20.9052 6.32748C21.0571 6.4774 21.2632 6.56164 21.4781 6.56164C21.693 6.56164 21.8991 6.4774 22.051 6.32748C22.203 6.17756 22.2883 5.97424 22.2883 5.76222V3.20408C22.2883 2.35601 21.9469 1.54263 21.3391 0.942954C20.7313 0.343274 19.907 0.00640869 19.0476 0.00640869H3.40773C2.54824 0.00640869 1.72395 0.343274 1.11619 0.942954C0.508434 1.54263 0.166992 2.35601 0.166992 3.20408V17.1715C0.166992 18.0196 0.508434 18.8329 1.11619 19.4326C1.72395 20.0323 2.54824 20.3692 3.40773 20.3692H11.8012C12.0161 20.3692 12.2222 20.285 12.3741 20.1351C12.5261 19.9851 12.6114 19.7818 12.6114 19.5698C12.6114 19.3577 12.5261 19.1544 12.3741 19.0045C12.2222 18.8546 12.0161 18.7703 11.8012 18.7703L11.8077 18.7767ZM20.6809 3.4279H18.0883V1.57964H19.067C19.4985 1.57964 19.9122 1.74877 20.2173 2.04981C20.5224 2.35084 20.6939 2.75914 20.6939 3.18488L20.6809 3.4279ZM1.78736 16.9093H4.37996V18.7575H3.40125C2.96978 18.7575 2.55602 18.5884 2.25092 18.2874C1.94583 17.9864 1.77439 17.5781 1.77439 17.1523L1.78736 16.9093ZM1.78736 7.39303V5.03314H4.37996V7.39303H1.78736ZM4.37996 8.99187V11.3518H1.78736V8.99187H4.37996ZM4.37996 12.9506V15.3105H1.78736V12.9506H4.37996ZM1.78736 3.43431V3.18488C1.78907 2.75966 1.961 2.35235 2.26572 2.05168C2.57044 1.751 2.98328 1.58132 3.41422 1.57964H4.39293V3.43431H1.78736Z" fill="white"/>
<path d="M21.4136 17.0308C21.2303 17.0367 21.0542 17.1028 20.9133 17.2186C20.7724 17.3345 20.6747 17.4935 20.6358 17.6704C20.5603 17.9111 20.429 18.1311 20.2524 18.3132C20.0758 18.4952 19.8587 18.6342 19.6183 18.7192C19.4355 18.777 19.2795 18.8971 19.178 19.0578C19.0766 19.2186 19.0363 19.4097 19.0643 19.597C19.0924 19.7844 19.1869 19.9558 19.3311 20.0808C19.4752 20.2058 19.6597 20.2763 19.8516 20.2796C19.9396 20.2813 20.0272 20.2683 20.1109 20.2413C20.6141 20.0747 21.0682 19.7888 21.4333 19.4085C21.7983 19.0283 22.0631 18.5654 22.2044 18.0605C22.2384 17.9443 22.2444 17.8219 22.2219 17.7031C22.1994 17.5843 22.149 17.4723 22.0748 17.3762C22.0008 17.2704 21.9021 17.1838 21.787 17.1237C21.6719 17.0636 21.5439 17.0317 21.4136 17.0308Z" fill="white"/>
<path d="M24.8423 7.02849C24.2987 6.62059 23.6139 6.44082 22.9367 6.52823C22.2595 6.61565 21.6447 6.96318 21.2257 7.49534L13.3831 17.6448C13.2248 17.8564 13.1263 18.1059 13.0979 18.3674L12.8775 20.414C12.8493 20.656 12.8852 20.9011 12.9818 21.1253C13.0784 21.3495 13.2322 21.5451 13.4284 21.693C13.6859 21.8912 14.0029 21.9991 14.3294 22H14.5238C14.627 21.9812 14.7288 21.9556 14.8285 21.9232L16.8637 21.1814C17.1208 21.0842 17.3453 20.9181 17.5118 20.7017L25.2896 10.5779C25.6998 10.0459 25.8827 9.37661 25.7991 8.71324C25.7155 8.04988 25.3721 7.44516 24.8423 7.02849ZM23.8507 8.30756C24.0398 8.45845 24.1632 8.67498 24.1958 8.91279C24.2283 9.15059 24.1674 9.39167 24.0256 9.58663L16.2479 19.6785L14.5044 20.318L14.6924 18.5721L22.5155 8.46104C22.5932 8.36102 22.6908 8.27768 22.8022 8.2161C22.9137 8.15453 23.0366 8.11601 23.1636 8.10291C23.2853 8.08812 23.4088 8.09748 23.5268 8.13042C23.6448 8.16337 23.7549 8.21923 23.8507 8.29476V8.30756Z" fill="white"/>
<path d="M9.99307 6.13955C9.73216 5.98479 9.43413 5.90152 9.12972 5.89832C8.82531 5.89512 8.5255 5.97212 8.2613 6.12136C7.99711 6.2706 7.77809 6.48667 7.62676 6.74731C7.47544 7.00795 7.39733 7.30371 7.40048 7.60407V12.6692C7.39873 12.9662 7.47698 13.2584 7.62732 13.5157C7.77765 13.7731 7.99464 13.9864 8.256 14.1337C8.51524 14.2845 8.8107 14.364 9.1116 14.364C9.41251 14.364 9.70788 14.2845 9.96712 14.1337L14.4134 11.5756C14.673 11.4264 14.8884 11.2127 15.0381 10.9557C15.1879 10.6987 15.2666 10.4075 15.2666 10.1111C15.2666 9.81466 15.1879 9.5234 15.0381 9.26642C14.8884 9.00943 14.673 8.79568 14.4134 8.64652L9.99307 6.13955ZM13.6745 10.1366C13.676 10.1525 13.6724 10.1684 13.6642 10.1822C13.6561 10.1959 13.6439 10.2068 13.6292 10.2134L9.18289 12.7715C9.17077 12.7832 9.15444 12.7898 9.13748 12.7898C9.12051 12.7898 9.10426 12.7832 9.09214 12.7715C9.078 12.7643 9.06623 12.7532 9.0582 12.7396C9.05017 12.726 9.04616 12.7105 9.04672 12.6948V7.62968C9.04569 7.61302 9.04939 7.59639 9.05741 7.5817C9.06542 7.56701 9.07748 7.55485 9.09214 7.54653H9.13748H9.18289L13.6292 10.1047C13.6473 10.1104 13.6632 10.1216 13.6745 10.1366Z" fill="white"/>
</g>
<defs>
<clipPath id="clip0_2745_2208">
<rect width="25.6667" height="22" fill="white" transform="translate(0.166992)"/>
</clipPath>
</defs>
</svg>
