<svg width="102" height="91" viewBox="0 0 102 91" fill="none" xmlns="http://www.w3.org/2000/svg">
<g clip-path="url(#clip0_1075_3820)">
<path d="M78.7899 -1.52588e-05H22.38C16.4469 0.00792202 10.7591 2.36836 6.56375 6.56371C2.36841 10.7591 0.0079678 16.4469 3.05176e-05 22.38V67.64C0.0079678 73.5731 2.36841 79.2609 6.56375 83.4563C10.7591 87.6516 16.4469 90.0121 22.38 90.02H78.7899C84.7231 90.0121 90.4109 87.6516 94.6062 83.4563C98.8016 79.2609 101.162 73.5731 101.17 67.64V22.38C101.162 16.4469 98.8016 10.7591 94.6062 6.56371C90.4109 2.36836 84.7231 0.00792202 78.7899 -1.52588e-05ZM22.38 7.64H78.7899C82.6984 7.64265 86.4462 9.19648 89.2099 11.9602C91.9736 14.7239 93.5273 18.4715 93.5299 22.38V55.94L83.25 38.14C81.7638 35.5627 79.625 33.4222 77.0489 31.9339C74.4727 30.4457 71.5501 29.6622 68.575 29.6622C65.5999 29.6622 62.6772 30.4457 60.1011 31.9339C57.525 33.4222 55.3861 35.5627 53.8999 38.14L43.08 56.89L39.88 51.35C38.6631 49.2445 36.9136 47.4962 34.8073 46.2807C32.7009 45.0653 30.3119 44.4254 27.88 44.4254C25.4482 44.4254 23.059 45.0653 20.9527 46.2807C18.8463 47.4962 17.0969 49.2445 15.88 51.35L7.64005 65.64V22.38C7.64269 18.4715 9.1964 14.7239 11.9601 11.9602C14.7238 9.19648 18.4716 7.64265 22.38 7.64Z" fill="white"/>
<path d="M27.87 39.29C35.1767 39.29 41.1 33.3667 41.1 26.06C41.1 18.7533 35.1767 12.83 27.87 12.83C20.5633 12.83 14.64 18.7533 14.64 26.06C14.64 33.3667 20.5633 39.29 27.87 39.29Z" fill="white"/>
</g>
<defs>
<clipPath id="clip0_1075_3820">
<rect width="101.17" height="90.05" fill="white"/>
</clipPath>
</defs>
</svg>
