<svg width="41" height="34" viewBox="0 0 41 34" fill="none" xmlns="http://www.w3.org/2000/svg">
<path d="M31.0538 0H5.29629C2.37123 0 0 2.37123 0 5.29629V23.2743C0 26.1994 2.37123 28.5706 5.29629 28.5706H31.0538C33.9789 28.5706 36.3501 26.1994 36.3501 23.2743V5.29629C36.3501 2.37123 33.9789 0 31.0538 0Z" fill="url(#paint0_linear_2743_1821)"/>
<path opacity="0.6" d="M34.7748 3.96777H9.29213C6.29116 3.96777 3.8584 6.40054 3.8584 9.40151V28.5616C3.8584 31.5626 6.29116 33.9953 9.29213 33.9953H34.7748C37.7758 33.9953 40.2085 31.5626 40.2085 28.5616V9.40151C40.2085 6.40054 37.7758 3.96777 34.7748 3.96777Z" fill="url(#paint1_linear_2743_1821)"/>
<path d="M22.6881 15.0917C22.3891 15.288 22.151 15.5642 22.0009 15.8889L22.0651 15.9897C22.4265 16.5415 22.5721 17.2072 22.474 17.8595C22.376 18.5119 22.0412 19.1053 21.5336 19.5266L21.2953 19.7007C21.2161 19.7549 21.1335 19.8039 21.048 19.8474C20.5696 20.0878 20.0305 20.1803 19.4994 20.1131C19.114 20.0658 18.7436 19.9347 18.4143 19.7289C18.085 19.5231 17.8048 19.2476 17.5934 18.9219L15.7608 16.0722C15.3934 15.5054 15.2539 14.8206 15.3704 14.1553C15.4869 13.4899 15.8507 12.8933 16.3888 12.485C16.927 12.0768 17.5996 11.8872 18.2717 11.9543C18.9438 12.0214 19.5657 12.3402 20.0125 12.8467C20.2605 12.6052 20.5304 12.3874 20.8189 12.1961C21.108 12.0102 21.415 11.8536 21.7352 11.7288C21.3742 11.227 20.9179 10.8012 20.3923 10.4758C19.8668 10.1504 19.2823 9.93162 18.6722 9.83207C18.0621 9.73252 17.4384 9.75411 16.8367 9.89561C16.235 10.0371 15.667 10.2957 15.1652 10.6567C14.6634 11.0177 14.2376 11.474 13.9122 11.9995C13.5868 12.5251 13.368 13.1096 13.2685 13.7197C13.1689 14.3298 13.1905 14.9535 13.332 15.5552C13.4735 16.157 13.7321 16.7249 14.0931 17.2267L15.9257 20.0764C16.4428 20.8649 17.1851 21.4795 18.056 21.8407C18.927 22.2018 19.8864 22.2927 20.8097 22.1015C21.2942 22.0067 21.759 21.8301 22.1842 21.5792L22.4315 21.4326C22.5146 21.3798 22.5942 21.3216 22.6698 21.2585C23.0704 20.9664 23.4203 20.6104 23.7052 20.2047C24.2465 19.4329 24.5438 18.5164 24.5585 17.5738C24.5732 16.6312 24.3047 15.7059 23.7877 14.9176L23.7236 14.8168C23.3595 14.8095 23.0007 14.9048 22.6881 15.0917Z" fill="white"/>
<path d="M22.0733 12.3427L21.8809 12.4251C21.7744 12.4682 21.6704 12.5172 21.5694 12.5718C21.436 12.6393 21.3074 12.7158 21.1845 12.8009C21.0581 12.8758 20.9386 12.9617 20.8271 13.0574C20.708 13.149 20.6072 13.2498 20.4973 13.3415L20.4331 13.4056C19.6718 14.1693 19.1962 15.1716 19.0861 16.2443C18.976 17.317 19.2381 18.395 19.8284 19.2975L19.9017 19.4074C20.1863 19.4113 20.4671 19.342 20.7172 19.2059C20.8449 19.1353 20.9674 19.0557 21.0837 18.9676C21.2986 18.7856 21.4733 18.561 21.5968 18.3079L21.5235 18.1888C21.3103 17.8655 21.1703 17.4995 21.1133 17.1165C21.0563 16.7335 21.0837 16.3426 21.1937 15.9713C21.1937 15.8796 21.2578 15.788 21.2944 15.6964L21.3494 15.5773C21.5034 15.2452 21.7287 14.9511 22.0092 14.7159C22.0957 14.6327 22.191 14.5589 22.2933 14.496C22.3898 14.4257 22.4943 14.3673 22.6048 14.3219C22.7151 14.2628 22.832 14.2167 22.953 14.1845C23.1826 14.1042 23.4244 14.0639 23.6677 14.0654H23.8051H24.0892C24.4735 14.1128 24.8429 14.2429 25.172 14.447C25.5011 14.6511 25.7819 14.9242 25.9951 15.2474L27.8278 18.1063C28.1839 18.6732 28.3146 19.3531 28.194 20.0116C28.0734 20.6702 27.7103 21.2595 27.1763 21.6634C26.6424 22.0673 25.9764 22.2564 25.3099 22.1933C24.6433 22.1302 24.0247 21.8195 23.5761 21.3226C23.4065 21.4902 23.2259 21.6463 23.0355 21.7899C22.9504 21.863 22.8583 21.9274 22.7606 21.9823C22.6666 22.054 22.5652 22.1154 22.4582 22.1656C22.2733 22.2748 22.0803 22.3698 21.8809 22.4496C22.6314 23.3893 23.7135 24.0056 24.9045 24.1717C26.0955 24.3379 27.305 24.0412 28.284 23.3428C29.2629 22.6443 29.9369 21.5973 30.1674 20.417C30.3979 19.2367 30.1673 18.0129 29.523 16.9975L27.6903 14.1386C27.0984 13.2446 26.219 12.5793 25.1977 12.2528C24.1764 11.9262 23.0742 11.958 22.0733 12.3427Z" fill="white"/>
<path d="M34.7923 30.11H12.3792C12.0048 30.11 11.7012 30.4136 11.7012 30.7881C11.7012 31.1625 12.0048 31.4661 12.3792 31.4661H34.7923C35.1667 31.4661 35.4703 31.1625 35.4703 30.7881C35.4703 30.4136 35.1667 30.11 34.7923 30.11Z" fill="white"/>
<path d="M10.4838 30.3941L8.35798 29.1754C8.29083 29.1366 8.21461 29.1163 8.13707 29.1165C8.05952 29.1166 7.98341 29.1373 7.91643 29.1764C7.84945 29.2154 7.79402 29.2715 7.7557 29.3389C7.71738 29.4063 7.69756 29.4827 7.69826 29.5602V32.0251C7.69756 32.1027 7.71738 32.179 7.7557 32.2464C7.79402 32.3138 7.84945 32.3699 7.91643 32.409C7.98341 32.4481 8.05952 32.4687 8.13707 32.4689C8.21461 32.4691 8.29083 32.4487 8.35798 32.41L10.4838 31.1821C10.5546 31.1435 10.6136 31.0865 10.6547 31.0171C10.6959 30.9478 10.7176 30.8687 10.7176 30.7881C10.7176 30.7075 10.6959 30.6284 10.6547 30.559C10.6136 30.4897 10.5546 30.4327 10.4838 30.3941Z" fill="white"/>
<path opacity="0.65" d="M16.2836 32.1167C17.0022 32.1167 17.5848 31.5342 17.5848 30.8156C17.5848 30.097 17.0022 29.5144 16.2836 29.5144C15.565 29.5144 14.9824 30.097 14.9824 30.8156C14.9824 31.5342 15.565 32.1167 16.2836 32.1167Z" fill="url(#paint2_linear_2743_1821)"/>
<defs>
<linearGradient id="paint0_linear_2743_1821" x1="18.1705" y1="-2.76726" x2="18.1705" y2="23.4851" gradientUnits="userSpaceOnUse">
<stop stop-color="#0093FF"/>
<stop offset="1" stop-color="#3B3AEF"/>
</linearGradient>
<linearGradient id="paint1_linear_2743_1821" x1="3.8584" y1="18.977" x2="40.2085" y2="18.977" gradientUnits="userSpaceOnUse">
<stop stop-color="#00BFFF"/>
<stop offset="1" stop-color="#00FFFF"/>
</linearGradient>
<linearGradient id="paint2_linear_2743_1821" x1="16.2836" y1="32.8956" x2="16.2836" y2="30.3116" gradientUnits="userSpaceOnUse">
<stop stop-color="#0093FF"/>
<stop offset="1" stop-color="#3B3AEF"/>
</linearGradient>
</defs>
</svg>
