<svg width="150" height="45" viewBox="0 0 150 45" fill="none" xmlns="http://www.w3.org/2000/svg">
<g clip-path="url(#clip0_1158_2384)">
<path d="M107.104 12.3785C105.767 11.0103 104.171 9.92244 102.408 9.17868C100.645 8.43492 98.7519 8.05017 96.8387 8.04696C94.9255 8.04374 93.0309 8.42212 91.2657 9.15995C89.5005 9.89778 87.9002 10.9802 86.5584 12.344C85.185 13.6879 84.0987 15.2966 83.3653 17.0726C82.6319 18.8487 82.2667 20.7552 82.2919 22.6765C82.2949 26.5305 83.8285 30.2254 86.5555 32.9488C89.2825 35.6721 92.9794 37.2009 96.8334 37.1989C99.3905 37.206 101.902 36.5233 104.104 35.2229C106.304 33.9456 108.133 32.1166 109.41 29.9166C111.006 27.1463 111.646 23.9276 111.23 20.7577C110.814 17.5878 109.365 14.6431 107.108 12.3785H107.104ZM104.802 27.392C103.99 28.8225 102.815 30.0135 101.395 30.8451C100.015 31.6737 98.4355 32.1114 96.8257 32.1114C95.2158 32.1114 93.6363 31.6737 92.2561 30.8451C90.8395 30.0123 89.6671 28.8214 88.8566 27.392C88.0253 25.9672 87.592 24.3453 87.602 22.6957C87.587 21.4737 87.8223 20.2615 88.2935 19.1338C88.7646 18.0061 89.4616 16.9868 90.3415 16.1386C91.7393 14.6701 93.5952 13.7207 95.604 13.4467C97.6129 13.1727 99.6552 13.5902 101.395 14.6308C104.53 16.5069 106.053 19.1428 106.053 22.688C106.064 24.3411 105.628 25.9663 104.791 27.392H104.802Z" fill="#3B3AEF"/>
<path d="M111.893 32.2993C111.537 32.3141 111.187 32.4021 110.866 32.5579C110.546 32.7137 110.26 32.9339 110.028 33.2047C108.751 34.6819 107.243 35.9426 105.562 36.938C102.921 38.5172 99.9012 39.3511 96.8239 39.3511C93.7466 39.3511 90.7267 38.5172 88.0855 36.938C86.4072 35.9383 84.9038 34.6708 83.6349 33.1856C83.4038 32.9133 83.1188 32.6919 82.7978 32.5354C82.4769 32.3789 82.127 32.2906 81.7702 32.2762C81.414 32.2584 81.0582 32.3177 80.727 32.4501C80.3959 32.5826 80.0974 32.785 79.8518 33.0436C79.3922 33.5095 79.126 34.1321 79.1068 34.7862C79.0876 35.4404 79.3167 36.0776 79.7482 36.5696C81.8908 38.987 84.5227 40.9213 87.4696 42.2442C90.4165 43.5672 93.6109 44.2486 96.8411 44.2432C97.2824 44.2432 97.7236 44.2432 98.1648 44.2049C101.342 44.0279 104.444 43.1709 107.262 41.6918C109.767 40.3903 112.014 38.6428 113.892 36.5351C114.325 36.0433 114.554 35.4055 114.534 34.7509C114.514 34.0962 114.246 33.4736 113.784 33.0091C113.537 32.7636 113.241 32.5733 112.915 32.451C112.589 32.3286 112.241 32.2769 111.893 32.2993Z" fill="url(#paint0_linear_1158_2384)"/>
<path d="M96.8334 5.94421C99.5775 5.94384 102.28 6.61241 104.708 7.89202C107.135 9.17163 109.214 11.0237 110.765 13.2879C111.121 13.8259 111.653 14.2227 112.27 14.4098C112.887 14.5968 113.551 14.5623 114.145 14.3123L114.264 14.2586C114.632 14.0957 114.959 13.854 115.222 13.5505C115.486 13.247 115.68 12.8893 115.789 12.5026C115.899 12.1159 115.923 11.7098 115.858 11.313C115.793 10.9163 115.642 10.5387 115.415 10.2069C113.355 7.1754 110.585 4.69385 107.347 2.97868C104.108 1.26351 100.498 0.366821 96.8334 0.366821C93.1684 0.366821 89.5591 1.26351 86.3203 2.97868C83.0814 4.69385 80.3114 7.1754 78.2517 10.2069C78.0241 10.5381 77.8723 10.9155 77.8073 11.3122C77.7422 11.7088 77.7655 12.1149 77.8754 12.5015C77.9853 12.8881 78.1792 13.2457 78.4433 13.5487C78.7073 13.8518 79.0349 14.0929 79.4028 14.2547L79.5217 14.3085C80.1161 14.5593 80.7795 14.5941 81.397 14.407C82.0144 14.2199 82.5468 13.8226 82.902 13.284C84.4542 11.022 86.5337 9.17173 88.9609 7.89297C91.3881 6.61421 94.09 5.94538 96.8334 5.94421Z" fill="url(#paint1_linear_1158_2384)"/>
<path d="M33.3688 8.08514H28.0203V37.2219H33.3688V8.08514Z" fill="#3B3AEF"/>
<path d="M25.8525 17.2206V17.1745C25.8422 16.6909 25.796 16.2087 25.7144 15.7319V15.6667C25.5134 14.5349 25.0909 13.454 24.4712 12.486C22.6104 9.63904 19.6791 8.19257 15.7578 8.19257H3.03499V13.5296H16.7439C17.4216 13.5293 18.0859 13.718 18.6623 14.0744C19.3033 14.4402 19.8143 14.9968 20.1241 15.6667H10.7546C7.89625 15.6667 5.15493 16.8022 3.13373 18.8233C1.11254 20.8445 -0.0229492 23.5859 -0.0229492 26.4443C-0.0229492 29.3027 1.11254 32.044 3.13373 34.0652C5.15493 36.0864 7.89625 37.2219 10.7546 37.2219H25.8525V17.4546C25.8525 17.4086 25.8525 17.3664 25.8525 17.3242V17.2206ZM10.9503 31.9884C10.1951 32.0281 9.4398 31.9136 8.7303 31.652C8.0208 31.3903 7.372 30.9869 6.82343 30.4664C6.27486 29.9459 5.838 29.3192 5.53946 28.6244C5.24093 27.9296 5.08697 27.1813 5.08697 26.4251C5.08697 25.6689 5.24093 24.9206 5.53946 24.2258C5.838 23.531 6.27486 22.9042 6.82343 22.3837C7.372 21.8632 8.0208 21.4598 8.7303 21.1982C9.4398 20.9365 10.1951 20.822 10.9503 20.8617H20.3045V31.9884H10.9503Z" fill="#3B3AEF"/>
<path d="M64.4851 8.04681V26.8472C64.4327 29.5778 63.3112 32.179 61.3616 34.0916C59.4119 36.0042 56.7898 37.0756 54.0586 37.0756C51.3275 37.0756 48.7053 36.0042 46.7556 34.0916C44.806 32.179 43.6845 29.5778 43.6321 26.8472V8.04681H48.9844V26.9277C48.9844 28.274 49.5192 29.5651 50.4712 30.5171C51.4231 31.469 52.7143 32.0038 54.0605 32.0038C55.4068 32.0038 56.6979 31.469 57.6499 30.5171C58.6018 29.5651 59.1366 28.274 59.1366 26.9277V8.04681H64.4851Z" fill="#00D9FF"/>
<path d="M79.9898 18.1913V26.663C79.9898 32.3837 75.4547 37.1643 69.7378 37.2603C68.3626 37.2831 66.9963 37.0337 65.7179 36.5263C64.4394 36.0189 63.274 35.2637 62.2886 34.304C61.3033 33.3443 60.5175 32.1992 59.9766 30.9346C59.4356 29.67 59.1502 28.3108 59.1367 26.9354V8.04681H64.4891V26.8126C64.486 27.4933 64.6175 28.1678 64.8758 28.7975C65.1342 29.4272 65.5144 29.9996 65.9946 30.482C66.4748 30.9643 67.0456 31.3471 67.6741 31.6082C68.3027 31.8694 68.9766 32.0039 69.6572 32.0038C70.9882 31.9807 72.2567 31.4357 73.1897 30.4862C74.1226 29.5368 74.6453 28.2589 74.6451 26.9277V18.1913C74.6451 17.479 74.9281 16.7959 75.4317 16.2922C75.9354 15.7885 76.6186 15.5056 77.3309 15.5056C78.0432 15.5056 78.7263 15.7885 79.23 16.2922C79.7337 16.7959 80.0166 17.479 80.0166 18.1913H79.9898Z" fill="#00D9FF"/>
<path d="M150 8.04681V26.7743C149.948 29.5049 148.826 32.1061 146.876 34.0187C144.927 35.9313 142.305 37.0027 139.573 37.0027C136.842 37.0027 134.22 35.9313 132.271 34.0187C130.321 32.1061 129.199 29.5049 129.147 26.7743V8.04681H134.495V26.874C134.532 28.1966 135.083 29.4529 136.031 30.3755C136.979 31.2981 138.25 31.8144 139.573 31.8144C140.897 31.8144 142.168 31.2981 143.116 30.3755C144.064 29.4529 144.615 28.1966 144.652 26.874V8.04681H150Z" fill="#00D9FF"/>
<path d="M134.495 8.04681V26.7704C134.495 28.1542 134.219 29.5242 133.684 30.8003C133.149 32.0765 132.365 33.2334 131.379 34.2037C130.392 35.1739 129.222 35.9381 127.937 36.4517C126.652 36.9653 125.278 37.218 123.894 37.195C118.177 37.103 113.646 32.3185 113.646 26.6016V18.1376C113.612 17.7656 113.655 17.3904 113.774 17.0361C113.892 16.6818 114.084 16.3562 114.335 16.0801C114.587 15.8039 114.894 15.5833 115.235 15.4324C115.577 15.2814 115.947 15.2035 116.32 15.2035C116.694 15.2035 117.064 15.2814 117.405 15.4324C117.747 15.5833 118.054 15.8039 118.305 16.0801C118.557 16.3562 118.748 16.6818 118.867 17.0361C118.986 17.3904 119.029 17.7656 118.995 18.1376V26.874C118.994 28.2051 119.517 29.4831 120.45 30.4325C121.383 31.382 122.652 31.927 123.983 31.9501C124.664 31.9501 125.338 31.8157 125.967 31.5547C126.596 31.2936 127.167 30.911 127.648 30.4287C128.129 29.9465 128.51 29.3741 128.769 28.7444C129.028 28.1146 129.16 27.4399 129.158 26.7589V8.04681H134.495Z" fill="#00D9FF"/>
</g>
<defs>
<linearGradient id="paint0_linear_1158_2384" x1="96.8181" y1="32.0345" x2="96.8181" y2="43.9555" gradientUnits="userSpaceOnUse">
<stop stop-color="#0093FF"/>
<stop offset="1" stop-color="#00FFFF"/>
</linearGradient>
<linearGradient id="paint1_linear_1158_2384" x1="96.8181" y1="13.8519" x2="96.8181" y2="0.196674" gradientUnits="userSpaceOnUse">
<stop stop-color="#0093FF"/>
<stop offset="1" stop-color="#00FFFF"/>
</linearGradient>
<clipPath id="clip0_1158_2384">
<rect width="150" height="43.9084" fill="white" transform="translate(0 0.365479)"/>
</clipPath>
</defs>
</svg>
