<svg width="29" height="26" viewBox="0 0 29 26" fill="none" xmlns="http://www.w3.org/2000/svg">
<g clip-path="url(#clip0_1825_2593)">
<path d="M2.75557 20.435C2.75557 20.5946 2.75557 20.7602 2.75557 20.9139C1.92804 20.5378 1.22637 19.9312 0.734564 19.1668C0.242758 18.4023 -0.0183575 17.5124 -0.0175764 16.6034V7.80504C-0.0175767 6.77957 0.184497 5.76413 0.577106 4.81679C0.969715 3.86946 1.54514 3.00877 2.27053 2.28392C2.99592 1.55908 3.85707 0.984302 4.8047 0.592411C5.75233 0.200519 6.76787 -0.00077463 7.79334 2.24011e-06H18.9628C19.73 0.000373276 20.4856 0.187327 21.1645 0.544773C21.8433 0.902219 22.425 1.41941 22.8594 2.05176H9.25976C7.53475 2.05176 5.88037 2.73704 4.66059 3.95682C3.44082 5.17659 2.75557 6.83093 2.75557 8.55595V20.435Z" fill="white"/>
<path d="M23.628 3.82562H9.25962C8.00506 3.82562 6.80188 4.32399 5.91477 5.2111C5.02766 6.0982 4.5293 7.30138 4.5293 8.55594V20.435C4.52965 20.7384 4.55737 21.0412 4.61209 21.3396C4.82214 22.4177 5.40078 23.3891 6.24878 24.0871C7.09678 24.7852 8.16127 25.1663 9.25962 25.1653H23.5097C24.7642 25.1653 25.9674 24.6669 26.8545 23.7798C27.7416 22.8927 28.24 21.6895 28.24 20.435V8.55594C28.2404 7.32161 27.7583 6.13602 26.8966 5.25224C26.0349 4.36845 24.8619 3.85648 23.628 3.82562ZM21.4461 16.6271L14.9419 20.3877C14.5681 20.6035 14.1441 20.7171 13.7124 20.7172C13.2808 20.7173 12.8567 20.6038 12.4828 20.3881C12.1089 20.1723 11.7984 19.8621 11.5824 19.4883C11.3664 19.1146 11.2525 18.6907 11.2523 18.259V10.7378C11.2515 10.3057 11.3646 9.88093 11.5802 9.50639C11.7957 9.13186 12.1062 8.82074 12.4802 8.60434C12.8543 8.38793 13.2788 8.27391 13.7109 8.27372C14.1431 8.27353 14.5677 8.38718 14.9419 8.60325L21.4461 12.3638C21.8192 12.5808 22.1288 12.8918 22.344 13.2658C22.5592 13.6399 22.6725 14.0639 22.6725 14.4955C22.6725 14.927 22.5592 15.351 22.344 15.7251C22.1288 16.0991 21.8192 16.4102 21.4461 16.6271Z" fill="white"/>
</g>
<defs>
<clipPath id="clip0_1825_2593">
<rect width="28.24" height="25.1653" fill="white"/>
</clipPath>
</defs>
</svg>
