<svg width="18" height="18" viewBox="0 0 18 18" fill="none" xmlns="http://www.w3.org/2000/svg">
<circle cx="9" cy="9" r="9" fill="#0290FF"/>
<path d="M12.4324 4.92255C12.4324 2.91398 10.8618 1.28571 8.92432 1.28571C6.98686 1.28571 5.41624 2.91398 5.41624 4.92255V7.00375C5.41624 9.01232 6.98686 10.6406 8.92432 10.6406C10.8618 10.6406 12.4324 9.01232 12.4324 7.00375V4.92255Z" fill="white"/>
<path d="M13.2446 8.99487C13.1165 8.99365 12.9902 9.02675 12.8785 9.09087C12.7668 9.155 12.6736 9.2479 12.608 9.36031C12.2353 10.021 11.6986 10.5697 11.0519 10.9513C10.4052 11.3328 9.67137 11.5337 8.92437 11.5337C8.17738 11.5337 7.44358 11.3328 6.79689 10.9513C6.15019 10.5697 5.61345 10.021 5.24071 9.36031C5.17531 9.24779 5.08206 9.15479 4.97033 9.09065C4.85859 9.02651 4.7323 8.99348 4.60411 8.99487C4.47356 8.9947 4.34526 9.0295 4.23201 9.09578C4.11877 9.16206 4.02455 9.25751 3.95877 9.37259C3.89299 9.48767 3.85795 9.61835 3.85716 9.75158C3.85637 9.88481 3.88984 10.0159 3.95425 10.1318C4.39565 10.9092 5.00604 11.5728 5.73839 12.0714C6.47075 12.5701 7.30552 12.8905 8.17836 13.0079V14.4883H6.44926C6.2514 14.4883 6.06164 14.5685 5.92174 14.7113C5.78183 14.8541 5.70324 15.0477 5.70324 15.2497C5.70324 15.4516 5.78183 15.6452 5.92174 15.788C6.06164 15.9308 6.2514 16.011 6.44926 16.011H11.4094C11.6073 16.011 11.797 15.9308 11.937 15.788C12.0769 15.6452 12.1555 15.4516 12.1555 15.2497C12.1555 15.0477 12.0769 14.8541 11.937 14.7113C11.797 14.5685 11.6073 14.4883 11.4094 14.4883H9.67039V13.0079C10.5431 12.8901 11.3777 12.5696 12.11 12.071C12.8423 11.5723 13.4528 10.9089 13.8945 10.1318C13.9589 10.0159 13.9924 9.88481 13.9916 9.75158C13.9908 9.61835 13.9558 9.48767 13.89 9.37259C13.8242 9.25751 13.73 9.16206 13.6167 9.09578C13.5035 9.0295 13.3752 8.9947 13.2446 8.99487Z" fill="white"/>
</svg>
