<svg width="15" height="19" viewBox="0 0 15 19" fill="none" xmlns="http://www.w3.org/2000/svg">
<g clip-path="url(#clip0_2745_2111)">
<path d="M10.4678 18.4481H4.53216C3.33063 18.4466 2.17876 17.9686 1.32915 17.119C0.479537 16.2694 0.00154737 15.1175 0 13.916V5.35748C0.00154737 4.15595 0.479537 3.00408 1.32915 2.15447C2.17876 1.30486 3.33063 0.826865 4.53216 0.825317H10.4678C11.6694 0.826865 12.8212 1.30486 13.6708 2.15447C14.5205 3.00408 14.9985 4.15595 15 5.35748V13.916C14.9985 15.1175 14.5205 16.2694 13.6708 17.119C12.8212 17.9686 11.6694 18.4466 10.4678 18.4481ZM4.53216 2.5797C3.79569 2.58048 3.0896 2.8734 2.56883 3.39417C2.04806 3.91493 1.75516 4.62101 1.75439 5.35748V13.916C1.75516 14.6524 2.04806 15.3585 2.56883 15.8793C3.0896 16.4001 3.79569 16.693 4.53216 16.6937H10.4678C11.2043 16.693 11.9104 16.4001 12.4312 15.8793C12.9519 15.3585 13.2448 14.6524 13.2456 13.916V5.35748C13.2448 4.62101 12.9519 3.91493 12.4312 3.39417C11.9104 2.8734 11.2043 2.58048 10.4678 2.5797H4.53216Z" fill="white"/>
<path d="M10.436 6.64696H4.54711C4.31447 6.64696 4.09136 6.55455 3.92685 6.39005C3.76234 6.22554 3.66992 6.00242 3.66992 5.76977C3.66992 5.53713 3.76234 5.314 3.92685 5.1495C4.09136 4.98499 4.31447 4.89258 4.54711 4.89258H10.436C10.6687 4.89258 10.8918 4.98499 11.0563 5.1495C11.2208 5.314 11.3132 5.53713 11.3132 5.76977C11.3132 6.00242 11.2208 6.22554 11.0563 6.39005C10.8918 6.55455 10.6687 6.64696 10.436 6.64696Z" fill="white"/>
<path d="M7.91554 14.258H4.54711C4.31447 14.258 4.09136 14.1656 3.92685 14.0011C3.76234 13.8366 3.66992 13.6135 3.66992 13.3809C3.66992 13.1482 3.76234 12.9251 3.92685 12.7606C4.09136 12.5961 4.31447 12.5037 4.54711 12.5037H7.91554C8.14819 12.5037 8.3713 12.5961 8.53581 12.7606C8.70031 12.9251 8.79273 13.1482 8.79273 13.3809C8.79273 13.6135 8.70031 13.8366 8.53581 14.0011C8.3713 14.1656 8.14819 14.258 7.91554 14.258Z" fill="white"/>
<path d="M10.436 10.451H4.54711C4.31447 10.451 4.09136 10.3586 3.92685 10.1941C3.76234 10.0296 3.66992 9.80649 3.66992 9.57385C3.66992 9.3412 3.76234 9.11808 3.92685 8.95357C4.09136 8.78907 4.31447 8.69666 4.54711 8.69666H10.436C10.6687 8.69666 10.8918 8.78907 11.0563 8.95357C11.2208 9.11808 11.3132 9.3412 11.3132 9.57385C11.3132 9.80649 11.2208 10.0296 11.0563 10.1941C10.8918 10.3586 10.6687 10.451 10.436 10.451Z" fill="white"/>
</g>
<defs>
<clipPath id="clip0_2745_2111">
<rect width="15" height="17.6199" fill="white" transform="translate(0 0.825317)"/>
</clipPath>
</defs>
</svg>
