<svg width="21" height="23" viewBox="0 0 21 23" fill="none" xmlns="http://www.w3.org/2000/svg">
<path d="M16.5848 1.86882C15.6855 1.19735 14.5929 0.835306 13.4705 0.836919H5.21535C3.83216 0.836919 2.50561 1.3864 1.52754 2.36447C0.549469 3.34254 0 4.66908 0 6.05227V16.0099C0 17.3931 0.549469 18.7196 1.52754 19.6977C2.50561 20.6758 3.83216 21.2252 5.21535 21.2252H13.4668C14.85 21.2252 16.1765 20.6758 17.1546 19.6977C18.1327 18.7196 18.6821 17.3931 18.6821 16.0099V6.04484C18.6814 5.2336 18.4915 4.43372 18.1274 3.70878C17.7633 2.98384 17.2351 2.35382 16.5848 1.86882ZM11.3508 13.2457C11.3519 13.4171 11.2858 13.582 11.1667 13.7053C11.0477 13.8285 10.8851 13.9002 10.7138 13.9051C9.53292 13.9349 7.037 14.2776 5.98275 16.5128C5.92296 16.6364 5.82586 16.7381 5.70515 16.8036C5.58444 16.8691 5.44622 16.895 5.30999 16.8777C5.17376 16.8605 5.04639 16.8008 4.94586 16.7073C4.84533 16.6137 4.77672 16.491 4.7497 16.3563C3.68427 11.0329 6.54154 8.81269 10.6542 8.5929C10.7442 8.5878 10.8343 8.60122 10.9189 8.6323C11.0035 8.66338 11.0808 8.71147 11.1461 8.77361C11.2114 8.83575 11.2632 8.91063 11.2985 8.99359C11.3337 9.07656 11.3515 9.16588 11.3508 9.256V13.2457ZM17.3112 12.0015L13.9026 15.2797C13.7542 15.4227 13.5672 15.5193 13.3646 15.5575C13.1621 15.5957 12.9528 15.5738 12.7624 15.4947C12.5721 15.4155 12.409 15.2825 12.2933 15.112C12.1775 14.9414 12.1141 14.7408 12.1108 14.5347V7.97825C12.1141 7.77214 12.1775 7.57148 12.2933 7.40093C12.409 7.23038 12.5721 7.09735 12.7624 7.01822C12.9528 6.93907 13.1621 6.91727 13.3646 6.95546C13.5672 6.99365 13.7542 7.09018 13.9026 7.23319L17.3112 10.5114C17.5063 10.711 17.6146 10.9797 17.6125 11.2588C17.6104 11.5379 17.4981 11.8048 17.3001 12.0015H17.3112Z" fill="url(#paint0_linear_1095_3451)"/>
<path opacity="0.61" d="M16.5848 1.86887C16.3224 1.82698 16.0571 1.80581 15.7914 1.80554H6.47823C5.83723 1.80505 5.20242 1.93095 4.61012 2.17602C4.01782 2.4211 3.47965 2.78052 3.0264 3.23378C2.57314 3.68703 2.2137 4.22521 1.96862 4.81751C1.72355 5.40981 1.59766 6.04462 1.59815 6.68562V17.8875C1.59766 18.5285 1.72355 19.1633 1.96862 19.7556C2.2137 20.3479 2.57314 20.886 3.0264 21.3393C3.47965 21.7925 4.01782 22.152 4.61012 22.397C5.20242 22.6421 5.83723 22.768 6.47823 22.7675H15.7914C16.4324 22.768 17.0672 22.6421 17.6595 22.397C18.2518 22.152 18.7899 21.7925 19.2432 21.3393C19.6964 20.886 20.0559 20.3479 20.301 19.7556C20.546 19.1633 20.6719 18.5285 20.6714 17.8875V6.68189C20.6724 5.52512 20.2619 4.40572 19.5132 3.52393C18.7645 2.64213 17.7265 2.05547 16.5848 1.86887ZM12.1145 7.96337C12.1178 7.75727 12.1812 7.55663 12.297 7.38608C12.4128 7.21553 12.5758 7.08251 12.7662 7.00337C12.9565 6.92423 13.1658 6.9024 13.3684 6.94059C13.5709 6.97878 13.7579 7.07531 13.9064 7.21832L17.315 10.4965C17.4174 10.5952 17.4989 10.7136 17.5545 10.8445C17.6102 10.9754 17.6388 11.1161 17.6388 11.2584C17.6388 11.4006 17.6102 11.5414 17.5545 11.6723C17.4989 11.8032 17.4174 11.9215 17.315 12.0202L13.9064 15.2984C13.7579 15.4414 13.5709 15.5379 13.3684 15.5761C13.1658 15.6143 12.9565 15.5925 12.7662 15.5134C12.5758 15.4342 12.4128 15.3012 12.297 15.1307C12.1812 14.9601 12.1178 14.7594 12.1145 14.5533V7.96337ZM10.6691 8.61156C10.7591 8.60647 10.8492 8.61988 10.9338 8.65097C11.0184 8.68205 11.0957 8.73016 11.161 8.7923C11.2263 8.85444 11.2782 8.92929 11.3134 9.01226C11.3486 9.09523 11.3664 9.18454 11.3658 9.27467V13.2458C11.3668 13.4171 11.3007 13.5821 11.1817 13.7053C11.0626 13.8286 10.9 13.9003 10.7287 13.9052C9.54784 13.935 7.05192 14.2777 5.99767 16.5128C5.93788 16.6365 5.84078 16.7382 5.72007 16.8037C5.59936 16.8691 5.46114 16.8951 5.3249 16.8778C5.18867 16.8605 5.06131 16.8009 4.96078 16.7073C4.86025 16.6138 4.79163 16.491 4.76461 16.3564C3.68429 11.0516 6.54156 8.83135 10.6542 8.61156H10.6691Z" fill="url(#paint1_linear_1095_3451)"/>
<defs>
<linearGradient id="paint0_linear_1095_3451" x1="9.33921" y1="22.4509" x2="9.33921" y2="2.4127" gradientUnits="userSpaceOnUse">
<stop stop-color="#3B3AEF"/>
<stop offset="0.96" stop-color="#0093FF"/>
</linearGradient>
<linearGradient id="paint1_linear_1095_3451" x1="11.1311" y1="24.0304" x2="11.1311" y2="3.42603" gradientUnits="userSpaceOnUse">
<stop stop-color="#00BFFF"/>
<stop offset="1" stop-color="#00FFFF"/>
</linearGradient>
</defs>
</svg>
