<svg width="27" height="19" viewBox="0 0 27 19" fill="none" xmlns="http://www.w3.org/2000/svg">
<path d="M23.5605 10.4948C23.5201 10.5655 22.6256 12.0816 19.3305 14.1941C19.3189 14.1973 19.3067 14.1973 19.2951 14.1941C19.2526 14.2301 19.2069 14.2622 19.1587 14.2901L18.8453 14.4771H18.815L18.4764 14.6843L12.6292 18.1815C12.4568 18.2878 12.2647 18.3585 12.0645 18.3893C11.8643 18.4202 11.6599 18.4106 11.4635 18.3611C11.267 18.3116 11.0825 18.2233 10.9207 18.1013C10.759 17.9793 10.6234 17.8262 10.5218 17.6509C10.3985 17.4451 10.3257 17.213 10.3095 16.9736C10.1361 17.0438 9.95081 17.0798 9.76375 17.0798C9.49623 17.0823 9.2328 17.0139 9.00025 16.8816C8.7677 16.7494 8.57431 16.558 8.43966 16.3268C8.24947 16.0079 8.18291 15.6302 8.25265 15.2655H8.20212C7.92304 15.2201 7.66222 15.0976 7.44911 14.9117C7.28958 14.7689 7.16134 14.5946 7.07246 14.3998C6.98357 14.205 6.93596 13.9939 6.93263 13.7799C6.92931 13.5658 6.97035 13.3533 7.05315 13.1558C7.13594 12.9584 7.25871 12.7802 7.41373 12.6325C7.20667 12.5077 7.03319 12.3342 6.90836 12.1271C6.80382 11.9545 6.73478 11.7628 6.70527 11.5633C6.67576 11.3637 6.68637 11.1602 6.73652 10.9648C6.78466 10.7683 6.87162 10.5835 6.99226 10.4212C7.1129 10.2589 7.2648 10.1224 7.439 10.0197L8.06063 9.65076C8.16056 9.59141 8.2799 9.57404 8.39259 9.60245C8.50529 9.63086 8.60218 9.70277 8.66203 9.80239C8.69209 9.85169 8.71202 9.90647 8.72067 9.96356C8.72931 10.0207 8.72648 10.0789 8.71237 10.1349C8.69825 10.1909 8.67311 10.2435 8.63843 10.2897C8.60376 10.3358 8.56023 10.3746 8.51039 10.4038L7.88879 10.7778C7.81329 10.8202 7.74768 10.8782 7.69628 10.9479C7.64488 11.0176 7.60884 11.0974 7.5906 11.1821C7.54476 11.3526 7.56839 11.5343 7.65631 11.6874C7.75094 11.8343 7.89688 11.9406 8.06566 11.9856C8.15066 12.0076 8.23925 12.0123 8.32609 11.9993C8.41293 11.9863 8.49624 11.9558 8.57103 11.9098L9.58179 11.3135L12.2502 9.71646C12.3002 9.68649 12.3556 9.66678 12.4133 9.65844C12.471 9.6501 12.5298 9.6533 12.5862 9.66787C12.6426 9.68245 12.6956 9.70812 12.742 9.74335C12.7884 9.77859 12.8274 9.82269 12.8566 9.87312C12.8867 9.92242 12.9066 9.97723 12.9153 10.0343C12.9239 10.0914 12.9211 10.1496 12.907 10.2056C12.8929 10.2616 12.8678 10.3142 12.8331 10.3604C12.7984 10.4066 12.7549 10.4454 12.705 10.4745L8.15665 13.1985C8.00719 13.2891 7.89853 13.434 7.85341 13.6028C7.81533 13.7748 7.84235 13.9549 7.92923 14.1082C7.97282 14.1833 8.03109 14.2488 8.10054 14.3009C8.17 14.353 8.24923 14.3906 8.33352 14.4114C8.41858 14.4329 8.50707 14.4372 8.59383 14.4242C8.68059 14.4112 8.76389 14.3811 8.8389 14.3356L13.3873 11.6116C13.4872 11.5523 13.6066 11.5349 13.7193 11.5633C13.832 11.5917 13.9288 11.6636 13.9887 11.7632C14.0189 11.8129 14.0389 11.8681 14.0476 11.9256C14.0563 11.9831 14.0535 12.0417 14.0394 12.0981C14.0253 12.1545 14.0002 12.2075 13.9655 12.2542C13.9307 12.3008 13.8871 12.34 13.8371 12.3697L9.4403 15.0027C9.3654 15.0459 9.30025 15.1041 9.24893 15.1736C9.19762 15.2432 9.16124 15.3227 9.14211 15.407C9.11902 15.4916 9.11338 15.5801 9.12555 15.667C9.13771 15.7538 9.16743 15.8373 9.21287 15.9124C9.3064 16.0602 9.4528 16.1669 9.62223 16.2106C9.70726 16.2323 9.79579 16.2368 9.88259 16.2238C9.96939 16.2108 10.0527 16.1805 10.1276 16.1347L14.5294 13.5068C14.5787 13.4767 14.6335 13.4568 14.6906 13.4481C14.7477 13.4395 14.8059 13.4423 14.8619 13.4564C14.9179 13.4706 14.9705 13.4957 15.0167 13.5303C15.0629 13.565 15.1017 13.6085 15.1308 13.6584C15.1609 13.7077 15.1808 13.7625 15.1895 13.8196C15.1981 13.8767 15.1953 13.9349 15.1812 13.9909C15.1671 14.0469 15.1419 14.0995 15.1073 14.1457C15.0726 14.1919 15.0291 14.2306 14.9792 14.2598L11.5326 16.3268C11.458 16.371 11.3929 16.4296 11.341 16.4991C11.2892 16.5686 11.2516 16.6476 11.2305 16.7317C11.2093 16.8158 11.205 16.9033 11.2178 16.989C11.2307 17.0748 11.2603 17.1572 11.3051 17.2314C11.3488 17.3059 11.407 17.3709 11.4761 17.4226C11.5453 17.4743 11.6242 17.5116 11.708 17.5323C11.7919 17.5531 11.879 17.5568 11.9643 17.5433C12.0496 17.5298 12.1313 17.4994 12.2047 17.4538L16.0354 15.1695L18.057 13.9616C18.3349 13.7999 18.5926 13.6382 18.8403 13.4563L19.3457 13.1227C19.5478 12.9913 19.7297 12.8549 19.9117 12.7285C22.1555 11.1214 22.8125 10.0399 22.8226 10.0298L23.5605 10.4948Z" fill="url(#paint0_linear_1158_2488)"/>
<path d="M10.0571 9.48432C9.39909 9.47436 8.75099 9.32266 8.1569 9.03959C8.05083 8.99013 7.96852 8.90084 7.92784 8.7911C7.88716 8.68135 7.89136 8.55999 7.93956 8.45333C7.98893 8.34852 8.07769 8.26745 8.18651 8.2277C8.29534 8.18795 8.41546 8.19275 8.52076 8.24109C11.1993 9.45904 12.6497 7.34151 13.155 6.37119C13.2345 6.21553 13.3692 6.09511 13.5328 6.03343C13.6963 5.97175 13.877 5.97326 14.0395 6.03765L17.5771 7.41226C17.8366 7.51399 18.1258 7.50952 18.382 7.39983C18.6383 7.29014 18.8411 7.08404 18.9467 6.82604C18.9954 6.70326 18.9941 6.56627 18.9431 6.44442C18.8921 6.32257 18.7954 6.22553 18.6738 6.17408L11.7046 3.25303C11.1457 3.02576 10.52 3.02576 9.96107 3.25303L9.3142 3.51077C9.13184 3.58231 8.93661 3.61521 8.74087 3.60738C8.54514 3.59955 8.35317 3.55115 8.17711 3.46528L7.74249 3.25303C7.64654 3.1972 7.57525 3.10713 7.54295 3.00092C7.51065 2.89472 7.51972 2.78023 7.56834 2.68044C7.61695 2.58064 7.70154 2.50294 7.80508 2.46291C7.90862 2.42289 8.02345 2.4235 8.12655 2.46464L8.5612 2.67689C8.62884 2.70683 8.702 2.7223 8.77598 2.7223C8.84995 2.7223 8.92311 2.70683 8.99075 2.67689L9.64268 2.4242C10.415 2.11636 11.2775 2.12543 12.0432 2.44947L19.0174 5.37055C19.353 5.51228 19.6189 5.78098 19.7572 6.11804C19.8954 6.45509 19.8947 6.83314 19.7553 7.16969C19.5581 7.63601 19.1877 8.0077 18.7221 8.20657C18.2565 8.40544 17.7319 8.41599 17.2587 8.23603L13.8575 6.917C13.0995 8.29668 11.7905 9.48432 10.0571 9.48432Z" fill="url(#paint1_linear_1158_2488)"/>
<path d="M21.7143 1.32619L18.9644 2.97065C18.7296 3.11104 18.6531 3.41515 18.7935 3.64991L23.1459 10.928C23.2863 11.1628 23.5904 11.2392 23.8252 11.0989L26.575 9.4544C26.8098 9.31401 26.8863 9.00991 26.7459 8.77516L22.3935 1.49705C22.2531 1.2623 21.949 1.1858 21.7143 1.32619Z" fill="url(#paint2_linear_1158_2488)"/>
<path d="M0.352688 8.00615L3.18643 9.83167C3.38118 9.95713 3.64077 9.90095 3.76623 9.70621L8.32321 2.63244C8.44867 2.43769 8.39248 2.17813 8.19773 2.05267L5.36399 0.227144C5.16924 0.101685 4.90967 0.157832 4.78421 0.352582L0.227224 7.42634C0.101764 7.62109 0.157938 7.88069 0.352688 8.00615Z" fill="url(#paint3_linear_1158_2488)"/>
<defs>
<linearGradient id="paint0_linear_1158_2488" x1="22.4335" y1="7.01269" x2="6.47879" y2="16.1701" gradientUnits="userSpaceOnUse">
<stop stop-color="#0091FF"/>
<stop offset="1" stop-color="#00FFFF"/>
</linearGradient>
<linearGradient id="paint1_linear_1158_2488" x1="7.25091" y1="5.50943" x2="19.8751" y2="6.74946" gradientUnits="userSpaceOnUse">
<stop stop-color="#3B3AEF"/>
<stop offset="0.96" stop-color="#0093FF"/>
</linearGradient>
<linearGradient id="paint2_linear_1158_2488" x1="20.4754" y1="6.46243" x2="24.0754" y2="4.30958" gradientUnits="userSpaceOnUse">
<stop stop-color="#3B3AEF"/>
<stop offset="0.96" stop-color="#0093FF"/>
</linearGradient>
<linearGradient id="paint3_linear_1158_2488" x1="5.31938" y1="7.29527" x2="1.78037" y2="5.01541" gradientUnits="userSpaceOnUse">
<stop stop-color="#3B3AEF"/>
<stop offset="0.96" stop-color="#0093FF"/>
</linearGradient>
</defs>
</svg>
