<svg width="25" height="21" viewBox="0 0 25 21" fill="none" xmlns="http://www.w3.org/2000/svg">
<path opacity="0.64" d="M18.7143 1H5.41668C2.97742 1 1 2.97741 1 5.41667V13.0493C1 15.4886 2.97742 17.466 5.41668 17.466H18.7143C21.1536 17.466 23.131 15.4886 23.131 13.0493V5.41667C23.131 2.97741 21.1536 1 18.7143 1Z" stroke="url(#paint0_linear_1158_2428)" stroke-width="0.956452" stroke-linecap="round" stroke-linejoin="round"/>
<path d="M20.7192 1.95746H5.36928C3.49674 1.95746 1.97876 3.47545 1.97876 5.34798V15.0329C1.97876 16.9055 3.49674 18.4235 5.36928 18.4235H20.7192C22.5917 18.4235 24.1097 16.9055 24.1097 15.0329V5.34798C24.1097 3.47545 22.5917 1.95746 20.7192 1.95746Z" fill="url(#paint1_linear_1158_2428)"/>
<path d="M16.1172 18.3811H9.96558V19.6559H16.1172V18.3811Z" fill="url(#paint2_linear_1158_2428)"/>
<path d="M20.0475 19.6506H6.04635C5.6958 19.6506 5.41162 19.9348 5.41162 20.2853V20.2906C5.41162 20.6411 5.6958 20.9253 6.04635 20.9253H20.0475C20.398 20.9253 20.6822 20.6411 20.6822 20.2906V20.2853C20.6822 19.9348 20.398 19.6506 20.0475 19.6506Z" fill="url(#paint3_linear_1158_2428)"/>
<path d="M20.4917 2.93597H5.59133C4.14238 2.93597 2.96777 4.11058 2.96777 5.55953V14.8213C2.96777 16.2703 4.14238 17.4449 5.59133 17.4449H20.4917C21.9406 17.4449 23.1152 16.2703 23.1152 14.8213V5.55953C23.1152 4.11058 21.9406 2.93597 20.4917 2.93597Z" fill="url(#paint4_linear_1158_2428)"/>
<path d="M13.0442 14.3453C15.3228 14.3453 17.17 12.4981 17.17 10.2195C17.17 7.94091 15.3228 6.09375 13.0442 6.09375C10.7656 6.09375 8.91846 7.94091 8.91846 10.2195C8.91846 12.4981 10.7656 14.3453 13.0442 14.3453Z" fill="url(#paint5_linear_1158_2428)"/>
<path d="M18.9049 8.93935C18.89 8.74199 18.7988 8.55819 18.6507 8.42687C18.5027 8.29556 18.3092 8.22707 18.1115 8.23588L17.3234 8.28876C17.1095 7.80931 16.8162 7.36939 16.4559 6.98755L16.805 6.27879C16.8934 6.10122 16.908 5.89587 16.8456 5.70758C16.7832 5.5193 16.6488 5.36334 16.4718 5.27378L14.885 4.49096C14.7068 4.40291 14.5009 4.38912 14.3125 4.45257C14.1241 4.51602 13.9686 4.65156 13.88 4.82949L13.5362 5.54884C13.0164 5.49105 12.4907 5.52144 11.9811 5.63875L11.542 4.98287C11.4871 4.89869 11.4159 4.82639 11.3325 4.77025C11.2492 4.71411 11.1554 4.67526 11.0567 4.65603C10.9581 4.63679 10.8566 4.63755 10.7582 4.65825C10.6599 4.67896 10.5667 4.71919 10.4842 4.77657L9.01899 5.74984C8.93423 5.80425 8.86137 5.87526 8.8048 5.95859C8.74824 6.04193 8.70914 6.13586 8.68986 6.23472C8.67059 6.33358 8.67153 6.43532 8.69264 6.5338C8.71375 6.63228 8.7546 6.72546 8.8127 6.80773L9.24643 7.46361C9.09645 7.6786 8.96041 7.90299 8.83914 8.13538C8.72394 8.37221 8.62841 8.61813 8.55352 8.87062L7.76539 8.91821C7.66692 8.92359 7.5705 8.94847 7.4817 8.99136C7.39291 9.03426 7.3135 9.09433 7.24808 9.16812C7.18265 9.24191 7.1325 9.32793 7.10055 9.42123C7.06859 9.51452 7.05545 9.61322 7.0619 9.71162L7.16769 11.4677C7.18262 11.666 7.27453 11.8507 7.42378 11.9821C7.57302 12.1136 7.76777 12.1814 7.96639 12.1712L8.74923 12.1183C8.96745 12.5982 9.26222 13.0395 9.62199 13.4248L9.26759 14.1283C9.22328 14.2164 9.19689 14.3124 9.18994 14.4108C9.18299 14.5092 9.19562 14.608 9.2271 14.7015C9.25859 14.7949 9.30829 14.8812 9.37335 14.9553C9.43841 15.0295 9.51753 15.0899 9.60612 15.1333L11.1929 15.9161C11.3713 16.0048 11.5774 16.0195 11.7666 15.9571C11.9557 15.8947 12.1126 15.7602 12.2032 15.5829L12.5523 14.8741C13.0832 14.9289 13.6195 14.8949 14.1392 14.7736L14.5729 15.4348C14.6283 15.5184 14.6998 15.5902 14.7832 15.6459C14.8666 15.7016 14.9602 15.7402 15.0586 15.7594C15.1571 15.7786 15.2584 15.778 15.3566 15.7577C15.4548 15.7374 15.548 15.6978 15.6308 15.6411L17.1012 14.6678C17.186 14.6134 17.2589 14.5424 17.3154 14.4591C17.372 14.3757 17.4111 14.2818 17.4304 14.1829C17.4496 14.0841 17.4487 13.9823 17.4276 13.8839C17.4065 13.7854 17.3656 13.6922 17.3075 13.6099L16.8738 12.954C17.0251 12.7409 17.1595 12.5163 17.2758 12.2823C17.3949 12.0466 17.4923 11.8005 17.5667 11.5471L18.3548 11.5047C18.5532 11.4912 18.7382 11.3995 18.8691 11.2497C18.9999 11.1 19.0661 10.9045 19.053 10.706L18.9049 8.93935ZM16.4136 11.8591C16.0825 12.5253 15.5614 13.0783 14.916 13.4482C14.2706 13.8181 13.53 13.9883 12.7879 13.9373C12.0457 13.8863 11.3354 13.6163 10.7467 13.1616C10.158 12.7068 9.71744 12.0877 9.48065 11.3825C9.24386 10.6773 9.22151 9.91774 9.41645 9.19985C9.61139 8.48197 10.0148 7.83803 10.5758 7.34946C11.1367 6.86089 11.83 6.54964 12.5678 6.45509C13.3057 6.36054 14.055 6.48697 14.721 6.81832C15.6127 7.26354 16.2916 8.0441 16.6089 8.98897C16.9262 9.93384 16.8559 10.9659 16.4136 11.8591Z" fill="white"/>
<path d="M12.3459 6.9137C11.9915 7.29958 11.7452 7.77212 11.6319 8.28364C11.266 8.21469 10.9105 8.09916 10.574 7.93985C11.0452 7.4239 11.6639 7.0656 12.3459 6.9137Z" fill="white"/>
<path d="M13.9486 8.35229C13.6366 8.39389 13.3219 8.41333 13.0071 8.41046C12.7173 8.41116 12.4277 8.39528 12.1396 8.36288C12.3671 7.58004 12.7162 7.09869 13.0441 7.09869C13.3721 7.09869 13.7212 7.58003 13.9486 8.35229Z" fill="white"/>
<path d="M15.4879 7.91337C15.1548 8.08344 14.7983 8.20291 14.43 8.26779C14.3151 7.76262 14.0708 7.296 13.7212 6.9137C14.3997 7.05509 15.0173 7.40452 15.4879 7.91337Z" fill="white"/>
<path d="M11.4203 9.93931H9.73828C9.77327 9.3733 9.95561 8.82627 10.2672 8.35248C10.6649 8.55754 11.091 8.70196 11.5314 8.78092C11.4629 9.16338 11.4258 9.5508 11.4203 9.93931Z" fill="white"/>
<path d="M11.5207 11.6C11.0803 11.679 10.6541 11.8234 10.2565 12.0285C9.94397 11.5551 9.76155 11.0078 9.72754 10.4417H11.4202C11.4218 10.8299 11.4554 11.2173 11.5207 11.6Z" fill="white"/>
<path d="M12.3407 13.4513C11.6585 13.3037 11.0402 12.9446 10.574 12.4251C10.9114 12.2681 11.2666 12.1527 11.6319 12.0813C11.743 12.5925 11.9876 13.0652 12.3407 13.4513Z" fill="white"/>
<path d="M13.0071 11.965C13.3219 11.9647 13.6363 11.9842 13.9486 12.0231C13.7212 12.7954 13.3721 13.2767 13.0441 13.2767C12.7162 13.2767 12.3671 12.7901 12.1396 12.0126C12.4147 11.9861 12.7056 11.965 13.0071 11.965Z" fill="white"/>
<path d="M14.1869 10.4417C14.1744 10.797 14.1337 11.1507 14.0652 11.4996C13.7143 11.4561 13.361 11.4349 13.0073 11.4361C12.6767 11.4334 12.3463 11.4528 12.0182 11.4943C11.9539 11.1449 11.915 10.7914 11.9019 10.4364L14.1869 10.4417Z" fill="white"/>
<path d="M14.4511 12.1079C14.8188 12.1753 15.175 12.2947 15.509 12.4623C15.0466 12.9659 14.438 13.3118 13.7688 13.4514C14.1079 13.0696 14.3429 12.6069 14.4511 12.1079Z" fill="white"/>
<path d="M16.3766 10.4417C16.3304 11.0201 16.1374 11.5772 15.8159 12.0602C15.4249 11.8482 15.004 11.6966 14.5676 11.6106C14.6399 11.2249 14.6806 10.834 14.6893 10.4417H16.3766Z" fill="white"/>
<path d="M14.0652 8.84949C14.1354 9.20878 14.1761 9.57319 14.1869 9.93911H11.9019C11.9149 9.58412 11.9538 9.23056 12.0182 8.88122C12.3463 8.92268 12.6767 8.94211 13.0073 8.9394C13.3615 8.93186 13.7149 8.90184 14.0652 8.84949Z" fill="white"/>
<path d="M16.3766 9.93929H14.6893C14.6806 9.54522 14.6399 9.15253 14.5676 8.76505C15.004 8.67905 15.4249 8.52745 15.8159 8.31543C16.1398 8.79928 16.3329 9.3587 16.3766 9.93929Z" fill="white"/>
<defs>
<linearGradient id="paint0_linear_1158_2428" x1="0.587424" y1="9.23035" x2="23.5435" y2="9.23035" gradientUnits="userSpaceOnUse">
<stop stop-color="#00DDFF"/>
<stop offset="1" stop-color="#00FFFF"/>
</linearGradient>
<linearGradient id="paint1_linear_1158_2428" x1="13.0442" y1="21.6606" x2="13.0442" y2="8.84959" gradientUnits="userSpaceOnUse">
<stop stop-color="#3B3AEF"/>
<stop offset="0.96" stop-color="#0093FF"/>
</linearGradient>
<linearGradient id="paint2_linear_1158_2428" x1="13.044" y1="21.6605" x2="13.044" y2="8.84955" gradientUnits="userSpaceOnUse">
<stop stop-color="#3B3AEF"/>
<stop offset="0.96" stop-color="#0093FF"/>
</linearGradient>
<linearGradient id="paint3_linear_1158_2428" x1="13.0443" y1="21.6606" x2="13.0443" y2="8.84956" gradientUnits="userSpaceOnUse">
<stop stop-color="#3B3AEF"/>
<stop offset="0.96" stop-color="#0093FF"/>
</linearGradient>
<linearGradient id="paint4_linear_1158_2428" x1="13.0441" y1="18.0373" x2="13.0441" y2="5.06232" gradientUnits="userSpaceOnUse">
<stop stop-color="#00BFFF"/>
<stop offset="1" stop-color="#00FFFF"/>
</linearGradient>
<linearGradient id="paint5_linear_1158_2428" x1="13.0442" y1="15.2921" x2="13.0442" y2="7.72818" gradientUnits="userSpaceOnUse">
<stop stop-color="#3B3AEF"/>
<stop offset="0.96" stop-color="#0093FF"/>
</linearGradient>
</defs>
</svg>
