<svg width="25" height="22" viewBox="0 0 25 22" fill="none" xmlns="http://www.w3.org/2000/svg">
<path opacity="0.64" d="M18.7143 4.16272H5.41667C2.97741 4.16272 1 6.14013 1 8.57939V16.212C1 18.6513 2.97741 20.6287 5.41667 20.6287H18.7143C21.1536 20.6287 23.131 18.6513 23.131 16.212V8.57939C23.131 6.14013 21.1536 4.16272 18.7143 4.16272Z" stroke="url(#paint0_linear_1158_2402)" stroke-width="0.956452" stroke-linecap="round" stroke-linejoin="round"/>
<path d="M20.719 3.18414H5.36904C3.49651 3.18414 1.97852 4.70213 1.97852 6.57467V16.2596C1.97852 18.1322 3.49651 19.6501 5.36904 19.6501H20.719C22.5915 19.6501 24.1095 18.1322 24.1095 16.2596V6.57467C24.1095 4.70213 22.5915 3.18414 20.719 3.18414Z" fill="url(#paint1_linear_1158_2402)"/>
<path d="M14.9004 7.97647H10.9757C10.2396 7.97507 9.5341 7.68203 9.01362 7.16155C8.49315 6.64108 8.20013 5.93558 8.19873 5.19952V2.77695C8.20013 2.04089 8.49315 1.33536 9.01362 0.814884C9.5341 0.294407 10.2396 0.00139804 10.9757 0H14.9004C15.6365 0.00139804 16.342 0.294407 16.8625 0.814884C17.383 1.33536 17.676 2.04089 17.6774 2.77695V5.19952C17.676 5.93558 17.383 6.64108 16.8625 7.16155C16.342 7.68203 15.6365 7.97507 14.9004 7.97647ZM10.9757 1.05789C10.5198 1.05789 10.0825 1.239 9.76012 1.56139C9.43773 1.88378 9.25662 2.32103 9.25662 2.77695V5.19952C9.25662 5.65544 9.43773 6.09269 9.76012 6.41508C10.0825 6.73747 10.5198 6.91858 10.9757 6.91858H14.9004C15.3559 6.91719 15.7924 6.73562 16.1145 6.41353C16.4365 6.09145 16.6181 5.65501 16.6195 5.19952V2.77695C16.6181 2.32146 16.4365 1.88502 16.1145 1.56294C15.7924 1.24085 15.3559 1.05928 14.9004 1.05789H10.9757Z" fill="url(#paint2_linear_1158_2402)"/>
<path d="M13.0441 2.79254H5.14172C4.98727 2.79513 4.83525 2.83152 4.69636 2.89914C4.55747 2.96677 4.43507 3.064 4.33777 3.18399C4.24048 3.30397 4.17064 3.44381 4.13316 3.59367C4.09569 3.74354 4.09149 3.89977 4.12086 4.05143L5.3004 9.55774C5.48318 10.4111 5.95311 11.176 6.63176 11.7247C7.31042 12.2734 8.15673 12.5727 9.02945 12.5727H17.0588C17.927 12.5667 18.7671 12.2646 19.4403 11.7164C20.1136 11.1682 20.5796 10.4067 20.7614 9.55774L21.9409 4.05143C21.9703 3.89977 21.9661 3.74354 21.9286 3.59367C21.8912 3.44381 21.8213 3.30397 21.724 3.18399C21.6267 3.064 21.5043 2.96677 21.3655 2.89914C21.2266 2.83152 21.0745 2.79513 20.9201 2.79254H13.0441Z" fill="url(#paint3_linear_1158_2402)"/>
<path d="M14.615 9.11371H11.2615C10.6334 9.11371 10.1243 9.62286 10.1243 10.2509C10.1243 10.879 10.6334 11.3882 11.2615 11.3882H14.615C15.2431 11.3882 15.7522 10.879 15.7522 10.2509C15.7522 9.62286 15.2431 9.11371 14.615 9.11371Z" fill="white"/>
<path d="M5.60189 19.0576H5.25807C4.89251 19.0583 4.5304 18.9868 4.19253 18.8473C3.85466 18.7077 3.54767 18.5028 3.28918 18.2443C3.03068 17.9858 2.82577 17.6788 2.6862 17.3409C2.54662 17.0031 2.47514 16.641 2.47584 16.2754V16.0744C2.47582 16.0136 2.49961 15.9552 2.54212 15.9117C2.58463 15.8682 2.64248 15.8431 2.70328 15.8417H3.30628C3.36708 15.8431 3.42492 15.8682 3.46743 15.9117C3.50994 15.9552 3.53374 16.0136 3.53372 16.0744V16.2754C3.53372 16.7327 3.71539 17.1713 4.03877 17.4947C4.36215 17.8181 4.80075 17.9997 5.25807 17.9997H5.60189C5.66221 17.9997 5.72006 18.0237 5.76271 18.0664C5.80537 18.109 5.82933 18.1669 5.82933 18.2272V18.8302C5.82933 18.8601 5.82345 18.8896 5.81202 18.9172C5.80059 18.9448 5.78383 18.9699 5.76271 18.991C5.74159 19.0121 5.71652 19.0289 5.68893 19.0403C5.66133 19.0518 5.63175 19.0576 5.60189 19.0576Z" fill="url(#paint4_linear_1158_2402)"/>
<path d="M20.4862 19.0576H20.83C21.1956 19.0583 21.5577 18.9868 21.8956 18.8473C22.2335 18.7077 22.5405 18.5028 22.7989 18.2443C23.0574 17.9858 23.2623 17.6788 23.4019 17.3409C23.5415 17.0031 23.613 16.641 23.6123 16.2754V16.0744C23.6123 16.0136 23.5885 15.9552 23.546 15.9117C23.5035 15.8682 23.4456 15.8431 23.3848 15.8417H22.7818C22.721 15.8431 22.6632 15.8682 22.6207 15.9117C22.5782 15.9552 22.5544 16.0136 22.5544 16.0744V16.2754C22.5544 16.7327 22.3727 17.1713 22.0494 17.4947C21.726 17.8181 21.2874 17.9997 20.83 17.9997H20.4862C20.4259 17.9997 20.3681 18.0237 20.3254 18.0664C20.2828 18.109 20.2588 18.1669 20.2588 18.2272V18.8302C20.2588 18.8601 20.2647 18.8896 20.2761 18.9172C20.2875 18.9448 20.3043 18.9699 20.3254 18.991C20.3465 19.0121 20.3716 19.0289 20.3992 19.0403C20.4268 19.0518 20.4564 19.0576 20.4862 19.0576Z" fill="url(#paint5_linear_1158_2402)"/>
<defs>
<linearGradient id="paint0_linear_1158_2402" x1="0.587424" y1="12.3931" x2="23.5383" y2="12.3931" gradientUnits="userSpaceOnUse">
<stop stop-color="#00DDFF"/>
<stop offset="1" stop-color="#00FFFF"/>
</linearGradient>
<linearGradient id="paint1_linear_1158_2402" x1="13.044" y1="20.3272" x2="13.044" y2="5.59612" gradientUnits="userSpaceOnUse">
<stop stop-color="#3B3AEF"/>
<stop offset="0.96" stop-color="#0093FF"/>
</linearGradient>
<linearGradient id="paint2_linear_1158_2402" x1="12.9381" y1="8.21978" x2="12.9381" y2="0.18513" gradientUnits="userSpaceOnUse">
<stop stop-color="#3B3AEF"/>
<stop offset="0.96" stop-color="#0093FF"/>
</linearGradient>
<linearGradient id="paint3_linear_1158_2402" x1="13.0441" y1="14.4822" x2="13.0441" y2="5.1675" gradientUnits="userSpaceOnUse">
<stop stop-color="#00BFFF"/>
<stop offset="1" stop-color="#00FFFF"/>
</linearGradient>
<linearGradient id="paint4_linear_1158_2402" x1="2.15847" y1="19.5231" x2="4.82432" y2="16.7514" gradientUnits="userSpaceOnUse">
<stop stop-color="#00BFFF"/>
<stop offset="1" stop-color="#00FFFF"/>
</linearGradient>
<linearGradient id="paint5_linear_1158_2402" x1="23.9244" y1="19.5231" x2="21.2585" y2="16.7514" gradientUnits="userSpaceOnUse">
<stop stop-color="#00BFFF"/>
<stop offset="1" stop-color="#00FFFF"/>
</linearGradient>
</defs>
</svg>
