<svg width="21" height="20" viewBox="0 0 21 20" fill="none" xmlns="http://www.w3.org/2000/svg">
<path opacity="0.64" d="M5.61095 10.441C5.61226 11.1564 5.89737 11.8421 6.40373 12.3476C6.91008 12.853 7.5963 13.1369 8.31174 13.1369H12.2402V15.4301C12.2414 15.9387 12.0745 16.4336 11.7654 16.8376C11.4564 17.2417 11.0226 17.5323 10.5313 17.6644L3.91193 19.4322C3.56921 19.5241 3.20991 19.5359 2.86189 19.4667C2.51386 19.3975 2.18644 19.2492 1.90493 19.0332C1.62341 18.8172 1.39537 18.5393 1.23845 18.221C1.08153 17.9028 0.999944 17.5527 1 17.1979V3.67428C1.00092 3.31977 1.08313 2.97021 1.24034 2.65246C1.39755 2.33472 1.62556 2.05727 1.90682 1.84147C2.18807 1.62566 2.51511 1.47726 2.86272 1.40766C3.21034 1.33806 3.56927 1.34912 3.91193 1.44L10.5461 3.22744C11.0373 3.35947 11.4712 3.65012 11.7802 4.05417C12.0892 4.45822 12.2561 4.95303 12.2549 5.46172V6.49783H7.83543C6.36228 6.48801 5.61095 8.9531 5.61095 10.441Z" stroke="url(#paint0_linear_1158_2503)" stroke-width="0.93794" stroke-linecap="round" stroke-linejoin="round"/>
<path d="M6.40657 9.72913C6.40786 10.419 6.6825 11.0802 7.1703 11.568C7.65809 12.0558 8.31932 12.3304 9.00917 12.3317H12.8148V14.5218C12.8155 15.0126 12.6541 15.49 12.3558 15.8798C12.0575 16.2695 11.6388 16.55 11.1649 16.6775L4.78118 18.3913C4.45085 18.4794 4.10468 18.4904 3.76944 18.4233C3.4342 18.3563 3.11888 18.213 2.84785 18.0046C2.57681 17.7963 2.35732 17.5283 2.20637 17.2216C2.05542 16.9148 1.97704 16.5775 1.9773 16.2356V3.22761C1.97682 2.88581 2.05509 2.54852 2.20607 2.24188C2.35705 1.93524 2.57668 1.6675 2.84788 1.45947C3.11907 1.25145 3.43454 1.1087 3.76983 1.04233C4.10512 0.975967 4.45119 0.987766 4.78118 1.0768L11.1649 2.79057C11.6384 2.91717 12.0569 3.19667 12.3553 3.58562C12.6537 3.97456 12.8152 4.45117 12.8148 4.94138V7.15111H8.99933C8.31542 7.15493 7.66038 7.4273 7.17539 7.90954C6.69041 8.39177 6.41428 9.04525 6.40657 9.72913Z" fill="url(#paint1_linear_1158_2503)"/>
<mask id="mask0_1158_2503" style="mask-type:luminance" maskUnits="userSpaceOnUse" x="7" y="4" width="14" height="11">
<path d="M15.0833 5.04429C14.7688 5.3377 14.5834 5.7438 14.5677 6.17364C14.5521 6.60348 14.7074 7.02199 14.9998 7.33749L15.7216 8.10845H8.99913C8.56935 8.10845 8.15719 8.27918 7.85329 8.58307C7.54939 8.88697 7.37866 9.29914 7.37866 9.72891C7.37866 10.1587 7.54939 10.5709 7.85329 10.8748C8.15719 11.1786 8.56935 11.3494 8.99913 11.3494H15.7118L14.99 12.1252C14.6969 12.4404 14.5411 12.8591 14.5568 13.2892C14.5724 13.7192 14.7583 14.1254 15.0734 14.4185C15.3886 14.7115 15.8073 14.8673 16.2373 14.8517C16.6674 14.836 17.0736 14.6502 17.3666 14.335L20.6223 10.8338L20.6812 10.7503C20.7107 10.7159 20.7402 10.6865 20.7647 10.6521L20.7942 10.603L20.8629 10.4802C20.8828 10.4469 20.9009 10.4125 20.917 10.3771C20.919 10.3592 20.919 10.341 20.917 10.3231C20.917 10.2789 20.9464 10.2347 20.9611 10.1905C20.9759 10.1463 20.9857 10.1169 20.9955 10.0776C21.0053 10.0383 20.9955 10.0383 20.9955 10.0186C20.9979 9.97448 20.9979 9.93021 20.9955 9.88605C20.998 9.84353 20.998 9.8009 20.9955 9.75837C20.9955 9.75837 20.9955 9.75838 20.9955 9.72891C20.9955 9.72891 20.9955 9.72891 20.9955 9.69945C20.9979 9.65857 20.9979 9.61757 20.9955 9.57669C20.9979 9.53089 20.9979 9.48501 20.9955 9.43921C20.9955 9.43921 20.9955 9.3999 20.9955 9.38517C20.9955 9.37044 20.9955 9.30661 20.9611 9.27224C20.9268 9.23786 20.9612 9.18384 20.917 9.13964C20.9191 9.12006 20.9191 9.10031 20.917 9.08072C20.9009 9.04537 20.8828 9.01096 20.8629 8.97762L20.7942 8.85974L20.7647 8.80573C20.7402 8.77136 20.7107 8.74189 20.6812 8.70752L20.6223 8.62405L17.3666 5.12776C17.0743 4.81504 16.67 4.63074 16.2422 4.6151C15.8143 4.59946 15.3977 4.75375 15.0833 5.04429Z" fill="white"/>
</mask>
<g mask="url(#mask0_1158_2503)">
<path d="M7.5554 4.43518H7.38843V15.0272H7.5554V4.43518Z" fill="#186FF8"/>
<path d="M7.75182 4.43506H7.55542V15.027H7.75182V4.43506Z" fill="#1770F9"/>
<path d="M7.94814 4.43506H7.75171V15.027H7.94814V4.43506Z" fill="#1771F9"/>
<path d="M8.14467 4.43506H7.94824V15.027H8.14467V4.43506Z" fill="#1672F9"/>
<path d="M8.34585 4.43506H8.14941V15.027H8.34585V4.43506Z" fill="#1573F9"/>
<path d="M8.54214 4.43506H8.3457V15.027H8.54214V4.43506Z" fill="#1574F9"/>
<path d="M8.74377 4.43506H8.54736V15.027H8.74377V4.43506Z" fill="#1475FA"/>
<path d="M8.93984 4.43506H8.74341V15.027H8.93984V4.43506Z" fill="#1376FA"/>
<path d="M9.13634 4.43506H8.93994V15.027H9.13634V4.43506Z" fill="#1377FA"/>
<path d="M9.33779 4.43506H9.14136V15.027H9.33779V4.43506Z" fill="#1278FA"/>
<path d="M9.53454 4.43506H9.33813V15.027H9.53454V4.43506Z" fill="#1179FA"/>
<path d="M9.73574 4.43506H9.53931V15.027H9.73574V4.43506Z" fill="#117AFA"/>
<path d="M9.932 4.43506H9.7356V15.027H9.932V4.43506Z" fill="#107BFB"/>
<path d="M10.1283 4.43506H9.93188V15.027H10.1283V4.43506Z" fill="#0F7CFB"/>
<path d="M10.3299 4.43506H10.1335V15.027H10.3299V4.43506Z" fill="#0F7DFB"/>
<path d="M10.526 4.43506H10.3296V15.027H10.526V4.43506Z" fill="#0E7EFB"/>
<path d="M10.7272 4.43506H10.5308V15.027H10.7272V4.43506Z" fill="#0D7FFB"/>
<path d="M10.9237 4.43506H10.7273V15.027H10.9237V4.43506Z" fill="#0D80FC"/>
<path d="M11.1203 4.43506H10.9238V15.027H11.1203V4.43506Z" fill="#0C81FC"/>
<path d="M11.3216 4.43506H11.1252V15.027H11.3216V4.43506Z" fill="#0B82FC"/>
<path d="M11.518 4.43506H11.3215V15.027H11.518V4.43506Z" fill="#0B83FC"/>
<path d="M11.7196 4.43506H11.5232V15.027H11.7196V4.43506Z" fill="#0A84FC"/>
<path d="M11.9159 4.43506H11.7195V15.027H11.9159V4.43506Z" fill="#0985FC"/>
<path d="M12.1124 4.43506H11.916V15.027H12.1124V4.43506Z" fill="#0986FD"/>
<path d="M12.3136 4.43506H12.1172V15.027H12.3136V4.43506Z" fill="#0887FD"/>
<path d="M12.5099 4.43506H12.3135V15.027H12.5099V4.43506Z" fill="#0788FD"/>
<path d="M12.7111 4.43506H12.5146V15.027H12.7111V4.43506Z" fill="#0789FD"/>
<path d="M12.9076 4.43506H12.7112V15.027H12.9076V4.43506Z" fill="#068AFD"/>
<path d="M13.1041 4.43506H12.9077V15.027H13.1041V4.43506Z" fill="#058BFE"/>
<path d="M13.3055 4.43506H13.1091V15.027H13.3055V4.43506Z" fill="#058CFE"/>
<path d="M13.5019 4.43506H13.3054V15.027H13.5019V4.43506Z" fill="#048DFE"/>
<path d="M13.6981 4.43506H13.5017V15.027H13.6981V4.43506Z" fill="#038EFE"/>
<path d="M13.8998 4.43506H13.7034V15.027H13.8998V4.43506Z" fill="#038FFE"/>
<path d="M14.0963 4.43506H13.8999V15.027H14.0963V4.43506Z" fill="#0290FE"/>
<path d="M14.2975 4.43506H14.1011V15.027H14.2975V4.43506Z" fill="#0191FF"/>
<path d="M14.4938 4.43506H14.2974V15.027H14.4938V4.43506Z" fill="#0192FF"/>
<path d="M14.6905 4.43506H14.4941V15.027H14.6905V4.43506Z" fill="#0093FF"/>
<path d="M21.0643 4.43506H14.6953V15.027H21.0643V4.43506Z" fill="#0093FF"/>
</g>
<path d="M15.0833 5.04429C14.7688 5.3377 14.5834 5.7438 14.5677 6.17364C14.5521 6.60348 14.7074 7.02199 14.9998 7.33749L15.7216 8.10845H8.99913C8.56935 8.10845 8.15719 8.27918 7.85329 8.58307C7.54939 8.88697 7.37866 9.29914 7.37866 9.72891C7.37866 10.1587 7.54939 10.5709 7.85329 10.8748C8.15719 11.1786 8.56935 11.3494 8.99913 11.3494H15.7118L14.99 12.1252C14.6969 12.4404 14.5411 12.8591 14.5568 13.2892C14.5724 13.7192 14.7583 14.1254 15.0734 14.4185C15.3886 14.7115 15.8073 14.8673 16.2373 14.8517C16.6674 14.836 17.0736 14.6502 17.3666 14.335L20.6223 10.8338L20.6812 10.7503C20.7107 10.7159 20.7402 10.6865 20.7647 10.6521L20.7942 10.603L20.8629 10.4802C20.8828 10.4469 20.9009 10.4125 20.917 10.3771C20.919 10.3592 20.919 10.341 20.917 10.3231C20.917 10.2789 20.9464 10.2347 20.9611 10.1905C20.9759 10.1463 20.9857 10.1169 20.9955 10.0776C21.0053 10.0383 20.9955 10.0383 20.9955 10.0186C20.9979 9.97448 20.9979 9.93021 20.9955 9.88605C20.998 9.84353 20.998 9.8009 20.9955 9.75837C20.9955 9.75837 20.9955 9.75838 20.9955 9.72891C20.9955 9.72891 20.9955 9.72891 20.9955 9.69945C20.9979 9.65857 20.9979 9.61757 20.9955 9.57669C20.9979 9.53089 20.9979 9.48501 20.9955 9.43921C20.9955 9.43921 20.9955 9.3999 20.9955 9.38517C20.9955 9.37044 20.9955 9.30661 20.9611 9.27224C20.9268 9.23786 20.9612 9.18384 20.917 9.13964C20.9191 9.12006 20.9191 9.10031 20.917 9.08072C20.9009 9.04537 20.8828 9.01096 20.8629 8.97762L20.7942 8.85974L20.7647 8.80573C20.7402 8.77136 20.7107 8.74189 20.6812 8.70752L20.6223 8.62405L17.3666 5.12776C17.0743 4.81504 16.67 4.63074 16.2422 4.6151C15.8143 4.59946 15.3977 4.75375 15.0833 5.04429Z" fill="url(#paint2_linear_1158_2503)"/>
<defs>
<linearGradient id="paint0_linear_1158_2503" x1="0.631711" y1="10.441" x2="12.6281" y2="10.441" gradientUnits="userSpaceOnUse">
<stop stop-color="#00DDFF"/>
<stop offset="1" stop-color="#00FFFF"/>
</linearGradient>
<linearGradient id="paint1_linear_1158_2503" x1="7.38869" y1="20.2573" x2="7.38869" y2="3.81195" gradientUnits="userSpaceOnUse">
<stop stop-color="#3B3AEF"/>
<stop offset="0.96" stop-color="#0093FF"/>
</linearGradient>
<linearGradient id="paint2_linear_1158_2503" x1="2.32083" y1="9.72892" x2="20.9071" y2="9.72892" gradientUnits="userSpaceOnUse">
<stop stop-color="#00BFFF"/>
<stop offset="1" stop-color="#00FFFF"/>
</linearGradient>
</defs>
</svg>
