<svg width="25" height="17" viewBox="0 0 25 17" fill="none" xmlns="http://www.w3.org/2000/svg">
<path opacity="0.64" d="M20.7553 6.04663C20.7501 4.89463 20.3771 3.77441 19.6908 2.84915C19.0045 1.9239 18.0407 1.24195 16.9398 0.902692C15.8389 0.563435 14.6584 0.584601 13.5703 0.963069C12.4823 1.34154 11.5435 2.05755 10.8907 3.00679C10.4749 2.39076 9.9365 1.86705 9.30922 1.46837C8.68194 1.06969 7.97922 0.804598 7.24491 0.689619C6.5106 0.574639 5.76047 0.612246 5.04135 0.800099C4.32223 0.987952 3.64955 1.32203 3.06529 1.78145C2.48104 2.24088 1.99775 2.81579 1.6456 3.47032C1.29344 4.12485 1.07996 4.84494 1.01852 5.58565C0.957067 6.32635 1.04896 7.07177 1.28844 7.77538C1.52793 8.47899 1.90987 9.12571 2.41044 9.67513C2.43803 9.70732 2.46102 9.7395 2.49322 9.77169C4.63844 11.9946 7.02818 13.9678 9.61686 15.6536C9.99771 15.9047 10.4438 16.0384 10.8999 16.0384C11.3561 16.0384 11.8022 15.9047 12.183 15.6536C14.6718 14.078 16.9603 12.2064 18.9985 10.0798C19.069 10.0032 19.1334 9.925 19.1917 9.84529C20.1947 8.83568 20.757 7.4698 20.7553 6.04663Z" stroke="url(#paint0_linear_1158_2451)" stroke-width="0.956452" stroke-linecap="round" stroke-linejoin="round"/>
<path d="M21.8637 5.43949C21.8642 4.28241 21.4936 3.15567 20.8064 2.22481C20.1191 1.29395 19.1514 0.608051 18.0455 0.267879C16.9395 -0.0722926 15.7536 -0.0487949 14.662 0.334908C13.5704 0.718612 12.6307 1.44231 11.9808 2.39965C11.5664 1.78068 11.0287 1.25398 10.4012 0.852561C9.77378 0.451142 9.07017 0.183653 8.33452 0.0668756C7.59886 -0.0499021 6.84703 -0.0134493 6.12612 0.173932C5.40521 0.361312 4.73077 0.695571 4.14509 1.15579C3.55941 1.61601 3.07512 2.19228 2.72256 2.84842C2.37 3.50457 2.15677 4.22645 2.09625 4.96885C2.03573 5.71126 2.12922 6.45816 2.37086 7.16274C2.6125 7.86732 2.99708 8.51439 3.50049 9.06339L3.58327 9.16455C5.72972 11.3861 8.1193 13.3592 10.7069 15.0465C11.0878 15.2975 11.5339 15.4313 11.99 15.4313C12.4461 15.4313 12.8922 15.2975 13.2731 15.0465C15.7622 13.4732 18.0508 11.6031 20.0886 9.4773C20.157 9.40411 20.2214 9.32735 20.2817 9.24736C20.7826 8.74769 21.1802 8.15421 21.4516 7.50084C21.7231 6.84747 21.8631 6.147 21.8637 5.43949Z" fill="url(#paint1_linear_1158_2451)"/>
<path opacity="0.64" d="M25 7.6653C25.0009 6.6522 24.6768 5.66551 24.0751 4.8504C23.4735 4.0353 22.6261 3.4348 21.6577 3.13723C20.6893 2.83965 19.651 2.86072 18.6954 3.19733C17.7399 3.53393 16.9176 4.16831 16.3495 5.00714C15.9875 4.46423 15.5171 4.00207 14.9678 3.64969C14.4186 3.29731 13.8024 3.06231 13.158 2.95949C12.5136 2.85668 11.8549 2.88827 11.2233 3.05224C10.5917 3.2162 10.0008 3.50902 9.48781 3.9123C8.97479 4.31559 8.55073 4.82061 8.24227 5.39565C7.9338 5.97069 7.7476 6.60332 7.69536 7.25377C7.64312 7.90423 7.72597 8.55846 7.93871 9.17536C8.15145 9.79226 8.48947 10.3585 8.93155 10.8385C8.95355 10.8697 8.97817 10.8989 9.00513 10.9259C10.88 12.8724 12.9707 14.5989 15.2366 16.072C15.5694 16.2923 15.9596 16.4098 16.3587 16.4098C16.7578 16.4098 17.1481 16.2923 17.4808 16.072C19.6654 14.6957 21.6731 13.057 23.4593 11.1926C23.5191 11.1282 23.5743 11.0592 23.6295 10.9903C24.5078 10.1066 25.0005 8.91118 25 7.6653Z" fill="url(#paint2_linear_1158_2451)"/>
<path d="M10.9552 6.76392C11.6638 6.76392 12.2383 6.18946 12.2383 5.48084C12.2383 4.77221 11.6638 4.19775 10.9552 4.19775C10.2466 4.19775 9.67212 4.77221 9.67212 5.48084C9.67212 6.18946 10.2466 6.76392 10.9552 6.76392Z" fill="white"/>
<defs>
<linearGradient id="paint0_linear_1158_2451" x1="0.630679" y1="8.34605" x2="21.114" y2="8.34605" gradientUnits="userSpaceOnUse">
<stop stop-color="#00DDFF"/>
<stop offset="1" stop-color="#00FFFF"/>
</linearGradient>
<linearGradient id="paint1_linear_1158_2451" x1="11.9808" y1="17.7552" x2="11.9808" y2="2.34446" gradientUnits="userSpaceOnUse">
<stop stop-color="#3B3AEF"/>
<stop offset="0.96" stop-color="#0093FF"/>
</linearGradient>
<linearGradient id="paint2_linear_1158_2451" x1="16.3495" y1="18.4542" x2="16.3495" y2="4.97035" gradientUnits="userSpaceOnUse">
<stop stop-color="#00BFFF"/>
<stop offset="1" stop-color="#00FFFF"/>
</linearGradient>
</defs>
</svg>
