<svg width="25" height="23" viewBox="0 0 25 23" fill="none" xmlns="http://www.w3.org/2000/svg">
<path opacity="0.64" d="M13.2967 3.58793L14.7538 6.53523C14.9107 6.85885 15.1439 7.13943 15.4335 7.35274C15.7231 7.56605 16.0602 7.70569 16.4158 7.75959L19.6733 8.23602C20.0808 8.29705 20.4631 8.47044 20.7775 8.73673C21.0918 9.00303 21.3257 9.3517 21.4529 9.74357C21.58 10.1354 21.5954 10.555 21.4974 10.9551C21.3993 11.3553 21.1916 11.7201 20.8977 12.0088L18.5431 14.2913C18.2806 14.5432 18.0841 14.856 17.971 15.2019C17.858 15.5478 17.8319 15.9162 17.895 16.2746L18.449 19.5155C18.519 19.9229 18.4737 20.3418 18.3181 20.7248C18.1626 21.1077 17.903 21.4396 17.5688 21.6828C17.2345 21.926 16.8389 22.0709 16.4266 22.101C16.0143 22.1312 15.6018 22.0454 15.2358 21.8534L12.3217 20.3188C12.0011 20.1481 11.6434 20.0588 11.2802 20.0588C10.9169 20.0588 10.5593 20.1481 10.2386 20.3188L7.32458 21.8534C6.9585 22.0454 6.54604 22.1312 6.13376 22.101C5.72149 22.0709 5.32587 21.926 4.99161 21.6828C4.65735 21.4396 4.39778 21.1077 4.24223 20.7248C4.08668 20.3418 4.04134 19.9229 4.11137 19.5155L4.66537 16.2746C4.7258 15.9167 4.69894 15.5495 4.58706 15.2042C4.47518 14.8589 4.28159 14.5457 4.02274 14.2913L1.66269 12.0088C1.36862 11.7198 1.16103 11.3544 1.06324 10.9539C0.965443 10.5534 0.981332 10.1335 1.10912 9.74147C1.23691 9.34947 1.47151 9.0009 1.78658 8.73494C2.10165 8.46899 2.48466 8.2962 2.89256 8.23602L6.1501 7.75959C6.50568 7.70569 6.84282 7.56605 7.13238 7.35274C7.42194 7.13943 7.65522 6.85885 7.81211 6.53523L9.26914 3.58793C9.4461 3.2026 9.7299 2.87613 10.0869 2.64727C10.4438 2.4184 10.8589 2.29675 11.2829 2.29675C11.707 2.29675 12.1221 2.4184 12.479 2.64727C12.836 2.87613 13.1198 3.2026 13.2967 3.58793Z" stroke="url(#paint0_linear_1158_2496)" stroke-width="0.982377" stroke-linecap="round" stroke-linejoin="round"/>
<path d="M14.5488 2.61304L16.0003 5.56588C16.1591 5.8881 16.3929 6.1675 16.6822 6.38055C16.9714 6.59361 17.3075 6.73411 17.6623 6.79024L20.9199 7.26113C21.3284 7.32139 21.712 7.4946 22.0274 7.76127C22.3427 8.02793 22.5773 8.37742 22.7046 8.7703C22.8319 9.16318 22.8469 9.58381 22.7479 9.98475C22.6489 10.3857 22.4398 10.751 22.1442 11.0394L19.7897 13.3386C19.5289 13.5905 19.334 13.9025 19.222 14.2474C19.1099 14.5922 19.0842 14.9592 19.147 15.3163L19.701 18.5628C19.7698 18.9698 19.7236 19.3879 19.5675 19.77C19.4114 20.1521 19.1518 20.483 18.8178 20.7255C18.4837 20.968 18.0886 21.1123 17.677 21.1423C17.2653 21.1723 16.8535 21.0866 16.4878 20.8951L13.5738 19.3661C13.2532 19.1954 12.8955 19.1061 12.5322 19.1061C12.169 19.1061 11.8113 19.1954 11.4907 19.3661L8.57665 20.8951C8.21119 21.0851 7.80003 21.1695 7.38928 21.1388C6.97854 21.108 6.58446 20.9635 6.25132 20.7212C5.91818 20.479 5.65915 20.1487 5.50329 19.7675C5.34744 19.3862 5.30093 18.969 5.36899 18.5628L5.92299 15.3163C5.98584 14.9592 5.9601 14.5922 5.84806 14.2474C5.73601 13.9025 5.5411 13.5905 5.28036 13.3386L2.9203 11.0394C2.62462 10.7506 2.41561 10.3849 2.31686 9.98353C2.21812 9.58219 2.23357 9.16122 2.3615 8.7682C2.48943 8.37519 2.72474 8.02579 3.04081 7.75948C3.35689 7.49316 3.74115 7.32054 4.15017 7.26113L7.40771 6.79024C7.76252 6.73411 8.09865 6.59361 8.38787 6.38055C8.67709 6.1675 8.91093 5.8881 9.06972 5.56588L10.5268 2.61304C10.7044 2.22926 10.9881 1.90433 11.3445 1.6766C11.7008 1.44888 12.1149 1.32788 12.5378 1.32788C12.9607 1.32788 13.3748 1.44888 13.7311 1.6766C14.0874 1.90433 14.3712 2.22926 14.5488 2.61304Z" fill="url(#paint1_linear_1158_2496)"/>
<path opacity="0.64" d="M16.028 1.25581L17.485 4.20865C17.6419 4.53228 17.8752 4.81285 18.1647 5.02616C18.4543 5.23947 18.7914 5.37912 19.147 5.43301L22.4046 5.90944C22.812 5.97047 23.1944 6.14386 23.5087 6.41016C23.8231 6.67646 24.0569 7.02513 24.1841 7.41699C24.3113 7.80886 24.3267 8.2284 24.2286 8.62854C24.1305 9.02868 23.9229 9.39356 23.6289 9.6822L21.2744 11.9813C21.0128 12.2338 20.8173 12.5468 20.7053 12.8927C20.5932 13.2386 20.568 13.6067 20.6318 13.9646L21.1858 17.2056C21.2538 17.6118 21.2073 18.0289 21.0515 18.4102C20.8956 18.7915 20.6366 19.1218 20.3034 19.364C19.9703 19.6062 19.5762 19.7508 19.1655 19.7816C18.7547 19.8123 18.3436 19.7279 17.9781 19.5379L15.064 18.0089C14.742 17.8395 14.3836 17.751 14.0197 17.751C13.6559 17.751 13.2975 17.8395 12.9754 18.0089L10.0669 19.5379C9.70129 19.7294 9.28945 19.815 8.87779 19.785C8.46613 19.7551 8.07102 19.6107 7.73699 19.3683C7.40296 19.1258 7.1433 18.7949 6.98724 18.4128C6.83118 18.0306 6.78492 17.6126 6.85371 17.2056L7.40771 13.9646C7.47151 13.6067 7.44627 13.2386 7.3342 12.8927C7.22213 12.5468 7.02668 12.2338 6.76508 11.9813L4.43272 9.6822C4.13875 9.39356 3.93107 9.02868 3.833 8.62854C3.73492 8.2284 3.75033 7.80886 3.8775 7.41699C4.00466 7.02513 4.23857 6.67646 4.55292 6.41016C4.86727 6.14386 5.24964 5.97047 5.65707 5.90944L8.91462 5.43301C9.2702 5.37912 9.60731 5.23947 9.89687 5.02616C10.1864 4.81285 10.4197 4.53228 10.5766 4.20865L12.0336 1.25581C12.2145 0.879645 12.4979 0.562236 12.8512 0.340064C13.2046 0.117892 13.6134 0 14.0308 0C14.4482 0 14.8571 0.117892 15.2104 0.340064C15.5637 0.562236 15.8471 0.879645 16.028 1.25581Z" fill="url(#paint2_linear_1158_2496)"/>
<defs>
<linearGradient id="paint0_linear_1158_2496" x1="0.582388" y1="12.2415" x2="21.989" y2="12.2415" gradientUnits="userSpaceOnUse">
<stop stop-color="#00DDFF"/>
<stop offset="1" stop-color="#00FFFF"/>
</linearGradient>
<linearGradient id="paint1_linear_1158_2496" x1="12.5599" y1="27.8701" x2="12.5599" y2="7.2556" gradientUnits="userSpaceOnUse">
<stop stop-color="#3B3AEF"/>
<stop offset="0.96" stop-color="#0093FF"/>
</linearGradient>
<linearGradient id="paint2_linear_1158_2496" x1="14.0447" y1="26.5184" x2="14.0447" y2="5.9039" gradientUnits="userSpaceOnUse">
<stop stop-color="#00BFFF"/>
<stop offset="1" stop-color="#00FFFF"/>
</linearGradient>
</defs>
</svg>
