<svg width="22" height="20" viewBox="0 0 22 20" fill="none" xmlns="http://www.w3.org/2000/svg">
<path d="M13.2035 15.5791L12.6402 14.7297C12.8395 14.4461 13.0159 14.1471 13.1678 13.8356C13.3174 13.5314 13.443 13.216 13.5433 12.8923L14.5626 12.8252C14.8173 12.8069 15.0544 12.6884 15.222 12.4957C15.3895 12.303 15.4739 12.0518 15.4567 11.797L15.3181 9.52143C15.2987 9.26634 15.1792 9.02927 14.9858 8.86181C14.7924 8.69436 14.5407 8.61007 14.2854 8.62732L13.2661 8.68991C12.9898 8.06751 12.6104 7.49621 12.144 7.00005L12.5911 6.08355C12.6475 5.96884 12.6807 5.84413 12.6887 5.71655C12.6968 5.58897 12.6795 5.46106 12.638 5.34017C12.5965 5.21927 12.5314 5.10778 12.4466 5.0121C12.3619 4.91642 12.259 4.83843 12.144 4.78263L10.1009 3.7678C9.98624 3.71138 9.8615 3.67819 9.73392 3.67014C9.60634 3.66209 9.47843 3.67935 9.35753 3.72089C9.23664 3.76244 9.12515 3.82745 9.02947 3.91222C8.93379 3.997 8.85582 4.09984 8.80002 4.21485L8.35296 5.10897C7.67543 5.03748 6.99066 5.08134 6.32778 5.23863L5.76448 4.38474C5.62085 4.1731 5.40012 4.02608 5.14947 3.97512C4.89883 3.92415 4.63818 3.9733 4.4233 4.11204L2.52331 5.37275C2.41748 5.44306 2.32657 5.53357 2.25579 5.63909C2.18501 5.74461 2.13574 5.86305 2.11082 5.98764C2.0859 6.11224 2.08582 6.24055 2.11057 6.36518C2.13533 6.4898 2.18444 6.60831 2.25508 6.71392L2.81838 7.56779C2.61748 7.85032 2.441 8.14944 2.29085 8.46191C2.1404 8.76722 2.01481 9.08417 1.91531 9.40967L0.896035 9.47226C0.641769 9.49174 0.405386 9.61054 0.238054 9.80297C0.0707212 9.9954 -0.0141034 10.246 0.00191837 10.5005L0.14498 12.776C0.16668 13.0302 0.286733 13.2659 0.479619 13.4329C0.672505 13.5999 0.922984 13.6851 1.17768 13.6701L2.19696 13.6031C2.47328 14.2255 2.85265 14.7968 3.31908 15.293L2.87202 16.2094C2.81561 16.3241 2.78242 16.4489 2.77437 16.5765C2.76631 16.704 2.78355 16.832 2.82509 16.9528C2.86664 17.0737 2.93168 17.1852 3.01645 17.2809C3.10122 17.3766 3.20407 17.4546 3.31908 17.5104L5.36214 18.5252C5.47685 18.5816 5.60159 18.6148 5.72917 18.6228C5.85675 18.6309 5.98466 18.6137 6.10556 18.5721C6.22645 18.5306 6.33794 18.4655 6.43362 18.3808C6.5293 18.296 6.60727 18.1931 6.66307 18.0781L7.11013 17.184C7.78766 17.2555 8.47242 17.2117 9.13531 17.0544L9.69861 17.9082C9.84224 18.1199 10.063 18.2669 10.3136 18.3179C10.5643 18.3688 10.8249 18.3197 11.0398 18.1809L12.9353 16.9203C13.1481 16.7775 13.2957 16.5563 13.346 16.305C13.3963 16.0537 13.345 15.7927 13.2035 15.5791ZM6.35012 13.9473C5.79345 13.674 5.33056 13.2414 5.02019 12.7045C4.70982 12.1675 4.56599 11.5505 4.60694 10.9317C4.64789 10.3129 4.87175 9.72018 5.25016 9.22884C5.62857 8.7375 6.14446 8.36967 6.73229 8.17204C7.32013 7.97442 7.95342 7.95591 8.5518 8.11886C9.15017 8.28182 9.68663 8.6189 10.0931 9.08731C10.4995 9.55571 10.7577 10.1343 10.8347 10.7497C10.9117 11.3651 10.8041 11.9894 10.5257 12.5436C10.1552 13.2807 9.50869 13.8417 8.72673 14.1046C7.94477 14.3675 7.09063 14.3109 6.35012 13.9473Z" fill="url(#paint0_linear_1158_2552)"/>
<path d="M9.9444 6.7139C9.06545 6.27662 8.07653 6.10989 7.10278 6.23478C6.12904 6.35967 5.21423 6.77057 4.47408 7.41551C3.73393 8.06045 3.2017 8.91041 2.94474 9.85791C2.68778 10.8054 2.71761 11.8078 3.0305 12.7384C3.34339 13.6689 3.92525 14.4857 4.70247 15.0854C5.47968 15.6852 6.41734 16.0409 7.39679 16.1077C8.37624 16.1744 9.35347 15.9491 10.2049 15.4603C11.0562 14.9715 11.7435 14.2411 12.1797 13.3617C12.4702 12.7785 12.6428 12.1438 12.6877 11.4939C12.7326 10.844 12.6488 10.1916 12.4412 9.57405C12.2335 8.95654 11.9061 8.38605 11.4777 7.89526C11.0492 7.40447 10.5282 7.00303 9.9444 6.7139ZM5.87616 14.904C5.13455 14.5363 4.51869 13.9568 4.10645 13.239C3.69421 12.5212 3.50411 11.6973 3.56024 10.8714C3.61636 10.0455 3.91618 9.25485 4.42174 8.59941C4.92731 7.94396 5.61592 7.45322 6.40046 7.1892C7.185 6.92518 8.03021 6.89977 8.82919 7.11621C9.62816 7.33265 10.345 7.78119 10.889 8.4051C11.433 9.02901 11.7797 9.80026 11.8854 10.6213C11.991 11.4423 11.8507 12.2761 11.4823 13.0174C10.9887 14.0106 10.1209 14.7673 9.06969 15.121C8.01848 15.4748 6.86984 15.3967 5.87616 14.904Z" fill="white"/>
<path opacity="0.64" d="M21.4786 5.34151L20.893 5.08221C20.9108 4.86949 20.9108 4.65565 20.893 4.44292C20.8709 4.23267 20.8305 4.02474 20.7723 3.8215L21.2909 3.44599C21.4203 3.35041 21.507 3.20773 21.5321 3.04878C21.5572 2.88984 21.5187 2.72738 21.425 2.59657L20.5845 1.44763C20.4898 1.31847 20.3479 1.23194 20.1896 1.20682C20.0314 1.18171 19.8697 1.22005 19.7396 1.31351L19.221 1.68906C18.8677 1.45499 18.4779 1.28124 18.0676 1.17493L18.0005 0.540112C17.9826 0.38013 17.9019 0.233816 17.7761 0.133247C17.6504 0.0326775 17.49 -0.0139423 17.33 0.00363699L15.9172 0.151174C15.8376 0.159531 15.7605 0.183533 15.6901 0.221791C15.6198 0.260049 15.5577 0.311797 15.5075 0.374103C15.4572 0.436408 15.4198 0.508043 15.3972 0.584862C15.3747 0.66168 15.3676 0.742183 15.3763 0.821761L15.4434 1.45658C15.0626 1.64431 14.7165 1.89522 14.4196 2.19868L13.8384 1.93941C13.6913 1.87462 13.5246 1.87069 13.3746 1.92849C13.2247 1.9863 13.1037 2.10114 13.0382 2.24788L12.4615 3.54881C12.4282 3.62145 12.4097 3.70004 12.4073 3.77992C12.4048 3.8598 12.4183 3.93936 12.4471 4.01393C12.4758 4.0885 12.5192 4.15658 12.5746 4.21413C12.6301 4.27168 12.6965 4.31756 12.77 4.34906L13.3511 4.60833C13.3333 4.81956 13.3333 5.03194 13.3511 5.24317C13.375 5.45463 13.4153 5.66388 13.4718 5.86904L12.9577 6.24458C12.8933 6.29113 12.8387 6.34994 12.797 6.41766C12.7554 6.48537 12.7275 6.56065 12.7151 6.63917C12.7026 6.71768 12.7058 6.79788 12.7244 6.87516C12.743 6.95245 12.7767 7.02528 12.8236 7.0895L13.6596 8.24292C13.7551 8.37265 13.8982 8.45919 14.0575 8.4835C14.2168 8.50781 14.3791 8.46792 14.509 8.37258L15.0231 7.99704C15.3771 8.2329 15.7687 8.40677 16.181 8.51117L16.2481 9.14598C16.265 9.30591 16.3446 9.45264 16.4694 9.55402C16.5942 9.6554 16.7542 9.70317 16.9142 9.6869L18.3314 9.53492C18.4905 9.51692 18.6361 9.43685 18.7365 9.31213C18.837 9.18741 18.8841 9.02811 18.8678 8.86881L18.8008 8.23397C19.1817 8.04467 19.5278 7.79224 19.8245 7.48739L20.4102 7.74669C20.4826 7.77929 20.5608 7.79716 20.6402 7.79927C20.7196 7.80138 20.7986 7.7877 20.8726 7.75899C20.9467 7.73029 21.0143 7.68716 21.0715 7.63209C21.1287 7.57702 21.1744 7.51111 21.2059 7.43822L21.7871 6.13729C21.8517 5.99086 21.8555 5.82476 21.7977 5.67552C21.7398 5.52629 21.6251 5.40614 21.4786 5.34151ZM17.321 6.77658C16.9385 6.81693 16.5525 6.74289 16.2121 6.56388C15.8716 6.38488 15.5918 6.10893 15.4082 5.77092C15.2246 5.43291 15.1453 5.04801 15.1805 4.66495C15.2156 4.28189 15.3636 3.91787 15.6056 3.6189C15.8477 3.31994 16.1729 3.09945 16.5403 2.98537C16.9077 2.87129 17.3006 2.86874 17.6694 2.978C18.0383 3.08727 18.3664 3.30346 18.6123 3.59923C18.8583 3.895 19.011 4.25706 19.0511 4.63963C19.1011 5.14926 18.947 5.65791 18.6228 6.05423C18.2985 6.45055 17.8304 6.70225 17.321 6.75421V6.77658Z" fill="url(#paint1_linear_1158_2552)"/>
<g opacity="0.64">
<path d="M16.9229 19.4818C16.7582 19.4818 16.5993 19.4212 16.4765 19.3115C16.3536 19.2019 16.2754 19.0509 16.2568 18.8872L16.2255 18.5743C16.0058 18.5035 15.7945 18.409 15.5951 18.2927L15.3403 18.4804C15.1963 18.5832 15.0177 18.6253 14.843 18.5977C14.6682 18.5701 14.5113 18.475 14.406 18.3329L13.7935 17.488C13.6898 17.345 13.6472 17.1668 13.6748 16.9925C13.7025 16.8181 13.7982 16.6619 13.941 16.5581L14.1959 16.3703C14.17 16.2583 14.1506 16.1448 14.1377 16.0305C14.1377 15.9188 14.1377 15.8026 14.1377 15.6863L13.8471 15.5567C13.7652 15.5214 13.6912 15.47 13.6295 15.4055C13.5678 15.3411 13.5197 15.2649 13.488 15.1815C13.4563 15.0981 13.4417 15.0092 13.445 14.9201C13.4484 14.8309 13.4696 14.7433 13.5074 14.6625L13.9321 13.7103C13.9673 13.6284 14.0187 13.5544 14.0833 13.4928C14.1478 13.4312 14.2241 13.3834 14.3076 13.352C14.3912 13.3207 14.4802 13.3066 14.5693 13.3106C14.6584 13.3145 14.7458 13.3364 14.8262 13.375L15.1123 13.5002C15.283 13.3444 15.4704 13.2079 15.6711 13.0934L15.6398 12.7804C15.6291 12.6938 15.6363 12.6058 15.6609 12.522C15.6855 12.4382 15.727 12.3603 15.7829 12.2931C15.8374 12.2246 15.905 12.1676 15.9818 12.1254C16.0585 12.0832 16.1429 12.0566 16.23 12.0473L17.2671 11.9355C17.444 11.9185 17.6206 11.9714 17.7589 12.083C17.8272 12.1375 17.8837 12.2051 17.9252 12.2819C17.9667 12.3587 17.9923 12.4432 18.0003 12.5301L18.0361 12.843C18.2554 12.9147 18.4667 13.0091 18.6664 13.1247L18.9213 12.9369C19.0651 12.8348 19.2432 12.7931 19.4175 12.8207C19.5061 12.8317 19.5915 12.8608 19.6684 12.9062C19.7453 12.9516 19.812 13.0122 19.8645 13.0844L20.477 13.9249C20.5814 14.068 20.6249 14.2465 20.5981 14.4216C20.5713 14.5966 20.4763 14.754 20.334 14.8593L20.0747 15.047C20.1009 15.159 20.1203 15.2724 20.1328 15.3868C20.1396 15.5014 20.1396 15.6164 20.1328 15.731L20.4189 15.8607C20.4995 15.8948 20.5723 15.9448 20.633 16.0078C20.6937 16.0708 20.741 16.1455 20.7721 16.2272C20.8389 16.3921 20.8389 16.5765 20.7721 16.7414L20.3518 17.6936C20.3161 17.7752 20.2644 17.8487 20.1998 17.9099C20.1352 17.9712 20.0589 18.0188 19.9756 18.0501C19.8922 18.0813 19.8034 18.0955 19.7145 18.0919C19.6256 18.0883 19.5382 18.0669 19.4577 18.0289L19.1671 17.9037C18.9975 18.0595 18.8099 18.1946 18.6083 18.3061L18.6441 18.6235C18.6613 18.7991 18.6083 18.9743 18.4965 19.1108C18.4424 19.1797 18.3749 19.237 18.298 19.2792C18.2212 19.3215 18.1367 19.3478 18.0495 19.3567L17.0123 19.464L16.9229 19.4818ZM15.5817 17.8009C15.6247 17.7996 15.6671 17.8121 15.7024 17.8367C15.9404 17.9946 16.2034 18.1109 16.4803 18.1809C16.5249 18.1916 16.5652 18.2158 16.5956 18.2502C16.626 18.2846 16.645 18.3275 16.6502 18.3731L16.6994 18.8202C16.7022 18.849 16.7106 18.877 16.7243 18.9025C16.738 18.9281 16.7566 18.9506 16.779 18.9689C16.8015 18.9872 16.8273 19.0009 16.8551 19.0091C16.8829 19.0173 16.912 19.02 16.9408 19.0169L17.9735 18.9051C18.0025 18.903 18.0308 18.8949 18.0567 18.8814C18.0825 18.8679 18.1053 18.8493 18.1237 18.8267C18.1421 18.8041 18.1557 18.778 18.1637 18.75C18.1717 18.722 18.1739 18.6926 18.1702 18.6637L18.121 18.2167C18.1177 18.1712 18.1278 18.1258 18.15 18.0861C18.1723 18.0464 18.2057 18.014 18.2462 17.9931C18.5025 17.8665 18.7353 17.6972 18.9347 17.4924C18.9665 17.4599 19.0078 17.438 19.0527 17.43C19.0976 17.422 19.1438 17.4282 19.185 17.4477L19.6097 17.6355C19.6361 17.6474 19.6646 17.6539 19.6935 17.6547C19.7225 17.6555 19.7513 17.6506 19.7783 17.6402C19.8053 17.6298 19.83 17.6142 19.851 17.5942C19.8719 17.5742 19.8887 17.5502 19.9003 17.5237L20.3474 16.5715C20.3676 16.5167 20.3676 16.4564 20.3474 16.4016C20.3262 16.3476 20.2843 16.3041 20.2311 16.2809L19.7841 16.0931C19.7427 16.0738 19.7079 16.0428 19.684 16.0038C19.6602 15.9649 19.6483 15.9197 19.6499 15.8741C19.6645 15.7254 19.6645 15.5757 19.6499 15.427C19.6361 15.2848 19.6092 15.1441 19.5695 15.0068C19.5582 14.9633 19.5603 14.9175 19.5754 14.8752C19.5906 14.833 19.6181 14.7963 19.6544 14.7699L20.0344 14.4927C20.0798 14.4574 20.1101 14.4063 20.1194 14.3496C20.124 14.3208 20.1229 14.2912 20.116 14.2628C20.1091 14.2344 20.0965 14.2077 20.0791 14.1842L19.4667 13.3437C19.4502 13.3202 19.4292 13.3002 19.4049 13.2849C19.3806 13.2697 19.3534 13.2594 19.3251 13.2548C19.2967 13.2503 19.2677 13.2514 19.2398 13.2582C19.2119 13.265 19.1857 13.2774 19.1627 13.2945L18.7827 13.5717C18.745 13.5971 18.7006 13.6107 18.6552 13.6107C18.6098 13.6107 18.5655 13.5971 18.5278 13.5717C18.2913 13.4112 18.0278 13.2947 17.7499 13.2275C17.7058 13.2151 17.6664 13.1898 17.6369 13.1547C17.6074 13.1196 17.5891 13.0764 17.5845 13.0308L17.5354 12.5837C17.5332 12.5547 17.5251 12.5264 17.5116 12.5005C17.4981 12.4747 17.4795 12.4519 17.4569 12.4335C17.4344 12.4151 17.4083 12.4015 17.3802 12.3935C17.3522 12.3855 17.3229 12.3833 17.294 12.387L16.2568 12.4943C16.1993 12.5018 16.1467 12.5305 16.1092 12.5748C16.073 12.622 16.0555 12.6809 16.0601 12.7402L16.1092 13.1873C16.1136 13.2323 16.1044 13.2776 16.0829 13.3174C16.0614 13.3572 16.0286 13.3897 15.9886 13.4108C15.7324 13.5394 15.4996 13.7102 15.3001 13.916C15.2682 13.9485 15.2269 13.9704 15.1821 13.9784C15.1372 13.9864 15.0909 13.9802 15.0497 13.9607L14.6027 13.7729C14.5763 13.761 14.5478 13.7545 14.5188 13.7537C14.4899 13.7529 14.4611 13.7578 14.4341 13.7682C14.407 13.7786 14.3823 13.7942 14.3614 13.8142C14.3405 13.8342 14.3237 13.8582 14.3121 13.8847L13.8919 14.8369C13.8798 14.8628 13.8736 14.891 13.8736 14.9196C13.8736 14.9482 13.8798 14.9764 13.8919 15.0023C13.9016 15.03 13.917 15.0554 13.937 15.077C13.957 15.0985 13.9812 15.1157 14.0081 15.1275L14.4551 15.3153C14.4965 15.3346 14.5313 15.3656 14.5552 15.4046C14.579 15.4436 14.5909 15.4887 14.5893 15.5343C14.5771 15.6831 14.5771 15.8326 14.5893 15.9814C14.6035 16.1221 14.6305 16.2612 14.6697 16.3971C14.6827 16.4412 14.6814 16.4882 14.6662 16.5315C14.6509 16.5749 14.6225 16.6123 14.5848 16.6386L14.2092 16.9157C14.1624 16.9506 14.131 17.0023 14.1219 17.0599C14.1127 17.1176 14.1264 17.1765 14.1601 17.2242L14.7725 18.0647C14.8074 18.1115 14.8591 18.1429 14.9168 18.1521C14.9744 18.1613 15.0334 18.1475 15.081 18.1138L15.4566 17.8367C15.4954 17.8125 15.5404 17.8 15.5862 17.8009H15.5817ZM17.1062 17.3538C16.7317 17.3522 16.369 17.2229 16.0779 16.9873C15.9086 16.852 15.768 16.6842 15.6643 16.4938C15.5607 16.3034 15.4961 16.0942 15.4744 15.8786C15.4409 15.5551 15.504 15.229 15.6557 14.9414C15.8075 14.6537 16.041 14.4175 16.3269 14.2626C16.6128 14.1076 16.9382 14.0409 17.262 14.0708C17.5858 14.1006 17.8935 14.2258 18.1462 14.4305C18.399 14.6352 18.5854 14.9101 18.6819 15.2207C18.7784 15.5312 18.7807 15.8634 18.6886 16.1752C18.5964 16.4871 18.4139 16.7646 18.1641 16.9728C17.9143 17.181 17.6084 17.3105 17.285 17.3449L17.1062 17.3538ZM17.1062 14.5061H16.981C16.7442 14.5291 16.5196 14.6224 16.3362 14.774C16.1528 14.9255 16.0189 15.1284 15.9516 15.3567C15.8843 15.5849 15.8868 15.828 15.9587 16.0549C16.0306 16.2817 16.1686 16.4818 16.3551 16.6296C16.4785 16.7317 16.6215 16.8073 16.7753 16.8519C16.9291 16.8965 17.0904 16.9091 17.2492 16.8889C17.4073 16.8729 17.5606 16.8251 17.6996 16.7483C17.8387 16.6714 17.9607 16.5672 18.0584 16.4419C18.2015 16.2658 18.2916 16.0528 18.3183 15.8275C18.3451 15.6022 18.3073 15.374 18.2094 15.1694C18.1115 14.9647 17.9576 14.7921 17.7655 14.6715C17.5733 14.5509 17.3509 14.4874 17.1241 14.4882L17.1062 14.5061Z" fill="url(#paint2_linear_1158_2552)"/>
</g>
<defs>
<linearGradient id="paint0_linear_1158_2552" x1="7.73603" y1="20.5414" x2="7.73603" y2="8.40826" gradientUnits="userSpaceOnUse">
<stop stop-color="#3B3AEF"/>
<stop offset="0.96" stop-color="#0093FF"/>
</linearGradient>
<linearGradient id="paint1_linear_1158_2552" x1="20.2601" y1="9.78638" x2="16.1933" y2="3.39782" gradientUnits="userSpaceOnUse">
<stop stop-color="#00BFFF"/>
<stop offset="1" stop-color="#00FFFF"/>
</linearGradient>
<linearGradient id="paint2_linear_1158_2552" x1="13.4359" y1="15.7131" x2="20.7944" y2="15.7131" gradientUnits="userSpaceOnUse">
<stop stop-color="#00DDFF"/>
<stop offset="1" stop-color="#00FFFF"/>
</linearGradient>
</defs>
</svg>
