<svg width="25" height="22" viewBox="0 0 25 22" fill="none" xmlns="http://www.w3.org/2000/svg">
<path d="M14.9057 7.97647H10.9757C10.2396 7.97507 9.5341 7.68203 9.01362 7.16155C8.49315 6.64108 8.20013 5.93558 8.19873 5.19952V2.77695C8.20013 2.04089 8.49315 1.33536 9.01362 0.814884C9.5341 0.294407 10.2396 0.00139804 10.9757 0H14.9057C15.6418 0.00139804 16.3473 0.294407 16.8678 0.814884C17.3883 1.33536 17.6813 2.04089 17.6827 2.77695V5.19952C17.6813 5.93558 17.3883 6.64108 16.8678 7.16155C16.3473 7.68203 15.6418 7.97507 14.9057 7.97647ZM10.9757 1.05789C10.5202 1.05928 10.0837 1.24085 9.76166 1.56294C9.43958 1.88502 9.25801 2.32146 9.25662 2.77695V5.19952C9.25801 5.65501 9.43958 6.09145 9.76166 6.41353C10.0837 6.73562 10.5202 6.91719 10.9757 6.91858H14.9057C15.3612 6.91719 15.7977 6.73562 16.1197 6.41353C16.4418 6.09145 16.6234 5.65501 16.6248 5.19952V2.77695C16.6234 2.32146 16.4418 1.88502 16.1197 1.56294C15.7977 1.24085 15.3612 1.05928 14.9057 1.05789H10.9757Z" fill="url(#paint0_linear_1158_2413)"/>
<path opacity="0.64" d="M18.7143 4.16272H5.41667C2.97741 4.16272 1 6.14013 1 8.57939V16.212C1 18.6513 2.97741 20.6287 5.41667 20.6287H18.7143C21.1536 20.6287 23.131 18.6513 23.131 16.212V8.57939C23.131 6.14013 21.1536 4.16272 18.7143 4.16272Z" stroke="url(#paint1_linear_1158_2413)" stroke-width="0.956452" stroke-linecap="round" stroke-linejoin="round"/>
<path d="M20.719 3.18414H5.36904C3.49651 3.18414 1.97852 4.70213 1.97852 6.57467V16.2596C1.97852 18.1322 3.49651 19.6501 5.36904 19.6501H20.719C22.5915 19.6501 24.1095 18.1322 24.1095 16.2596V6.57467C24.1095 4.70213 22.5915 3.18414 20.719 3.18414Z" fill="url(#paint2_linear_1158_2413)"/>
<path d="M5.60189 19.0576H5.25279C4.88767 19.0576 4.52613 18.9856 4.18887 18.8457C3.85161 18.7059 3.54525 18.5008 3.28731 18.2424C3.02938 17.984 2.82494 17.6772 2.6857 17.3397C2.54645 17.0022 2.47514 16.6405 2.47584 16.2754V16.0744C2.47582 16.0136 2.49961 15.9552 2.54212 15.9117C2.58463 15.8682 2.64248 15.8431 2.70328 15.8417H3.30628C3.36708 15.8431 3.42492 15.8682 3.46743 15.9117C3.50994 15.9552 3.53374 16.0136 3.53372 16.0744V16.2754C3.53303 16.5016 3.57698 16.7257 3.66306 16.9349C3.74914 17.1441 3.87565 17.3342 4.03535 17.4944C4.19505 17.6546 4.38479 17.7817 4.59371 17.8684C4.80262 17.9551 5.02659 17.9997 5.25279 17.9997H5.60189C5.66221 17.9997 5.72007 18.0237 5.76272 18.0664C5.80538 18.109 5.82933 18.1669 5.82933 18.2272V18.8302C5.82933 18.8905 5.80538 18.9484 5.76272 18.991C5.72007 19.0337 5.66221 19.0576 5.60189 19.0576Z" fill="url(#paint3_linear_1158_2413)"/>
<path d="M20.4915 19.0576H20.8353C21.2005 19.0576 21.562 18.9856 21.8993 18.8457C22.2365 18.7059 22.5429 18.5008 22.8008 18.2424C23.0587 17.984 23.2632 17.6772 23.4024 17.3397C23.5417 17.0022 23.613 16.6405 23.6123 16.2754V16.0744C23.6123 16.0136 23.5885 15.9552 23.546 15.9117C23.5035 15.8682 23.4456 15.8431 23.3848 15.8417H22.7871C22.7254 15.8417 22.6662 15.8662 22.6226 15.9098C22.5789 15.9535 22.5544 16.0127 22.5544 16.0744V16.2754C22.5551 16.5016 22.5111 16.7257 22.4251 16.9349C22.339 17.1441 22.2125 17.3342 22.0528 17.4944C21.8931 17.6546 21.7033 17.7817 21.4944 17.8684C21.2855 17.9551 21.0615 17.9997 20.8353 17.9997H20.4915C20.4307 17.9997 20.3723 18.0235 20.3288 18.0661C20.2853 18.1086 20.2602 18.1664 20.2588 18.2272V18.8302C20.2602 18.891 20.2853 18.9488 20.3288 18.9913C20.3723 19.0339 20.4307 19.0576 20.4915 19.0576Z" fill="url(#paint4_linear_1158_2413)"/>
<path d="M20.4915 3.70251H20.8353C21.5723 3.70392 22.2786 3.99765 22.7993 4.51927C23.3199 5.04089 23.6123 5.74778 23.6123 6.48476V6.69102C23.6123 6.75135 23.5883 6.80921 23.5457 6.85186C23.503 6.89452 23.4452 6.9185 23.3848 6.9185H22.7871C22.7263 6.91851 22.6679 6.89469 22.6244 6.85219C22.5809 6.80968 22.5558 6.75183 22.5544 6.69102V6.48476C22.5551 6.25856 22.5111 6.03444 22.4251 5.82526C22.339 5.61608 22.2125 5.42597 22.0528 5.26578C21.8931 5.10559 21.7033 4.97849 21.4944 4.89176C21.2855 4.80504 21.0615 4.7604 20.8353 4.7604H20.4915C20.4307 4.76042 20.3723 4.73663 20.3288 4.69412C20.2853 4.65161 20.2602 4.59376 20.2588 4.53296V3.93525C20.2588 3.90469 20.2648 3.87442 20.2765 3.84618C20.2882 3.81794 20.3053 3.79228 20.3269 3.77067C20.3486 3.74905 20.3742 3.73193 20.4025 3.72024C20.4307 3.70854 20.461 3.70251 20.4915 3.70251Z" fill="url(#paint5_linear_1158_2413)"/>
<path d="M5.60189 3.70251H5.25278C4.5158 3.70392 3.80948 3.99765 3.28886 4.51927C2.76823 5.04089 2.47583 5.74778 2.47583 6.48476V6.69102C2.47583 6.75135 2.49979 6.80921 2.54245 6.85186C2.5851 6.89452 2.64296 6.9185 2.70328 6.9185H3.30627C3.3666 6.9185 3.42444 6.89452 3.4671 6.85186C3.50975 6.80921 3.53372 6.75135 3.53372 6.69102V6.48476C3.53302 6.25856 3.57697 6.03444 3.66305 5.82526C3.74913 5.61608 3.87565 5.42597 4.03535 5.26578C4.19505 5.10559 4.38479 4.97849 4.5937 4.89176C4.80261 4.80504 5.02658 4.7604 5.25278 4.7604H5.60189C5.66221 4.7604 5.72006 4.73642 5.76272 4.69377C5.80537 4.65111 5.82933 4.59328 5.82933 4.53296V3.93525C5.82934 3.87443 5.80556 3.816 5.76305 3.77251C5.72054 3.72901 5.66269 3.7039 5.60189 3.70251Z" fill="url(#paint6_linear_1158_2413)"/>
<path d="M13.044 11.5891C15.0947 11.5891 16.7572 9.92663 16.7572 7.8759C16.7572 5.82517 15.0947 4.16272 13.044 4.16272C10.9933 4.16272 9.33081 5.82517 9.33081 7.8759C9.33081 9.92663 10.9933 11.5891 13.044 11.5891Z" fill="url(#paint7_linear_1158_2413)"/>
<path d="M13.044 17.5767C16.1785 17.5767 18.7195 16.3476 18.7195 14.8315C18.7195 13.3153 16.1785 12.0862 13.044 12.0862C9.90944 12.0862 7.36841 13.3153 7.36841 14.8315C7.36841 16.3476 9.90944 17.5767 13.044 17.5767Z" fill="url(#paint8_linear_1158_2413)"/>
<path d="M13.4726 12.0492H12.6157C12.4755 12.0492 12.3618 12.1629 12.3618 12.3031V12.8532C12.3618 12.9934 12.4755 13.1071 12.6157 13.1071H13.4726C13.6128 13.1071 13.7265 12.9934 13.7265 12.8532V12.3031C13.7265 12.1629 13.6128 12.0492 13.4726 12.0492Z" fill="white"/>
<path d="M14.1442 15.8576L13.2715 16.4818C13.2062 16.5295 13.1275 16.5552 13.0467 16.5552C12.9658 16.5552 12.8871 16.5295 12.8219 16.4818L11.9491 15.8576C11.8849 15.8125 11.8363 15.7487 11.8097 15.6748C11.7832 15.601 11.7802 15.5207 11.801 15.4451L12.2929 13.5091C12.3045 13.4644 12.3304 13.4246 12.3667 13.396C12.403 13.3673 12.4477 13.3513 12.4939 13.3505H13.5941C13.6404 13.3513 13.6851 13.3673 13.7214 13.396C13.7577 13.4246 13.7836 13.4644 13.7951 13.5091L14.287 15.4451C14.3062 15.5203 14.3029 15.5995 14.2775 15.6728C14.2521 15.7461 14.2058 15.8104 14.1442 15.8576Z" fill="white"/>
<defs>
<linearGradient id="paint0_linear_1158_2413" x1="12.9433" y1="8.21978" x2="12.9433" y2="0.18513" gradientUnits="userSpaceOnUse">
<stop stop-color="#3B3AEF"/>
<stop offset="0.96" stop-color="#0093FF"/>
</linearGradient>
<linearGradient id="paint1_linear_1158_2413" x1="0.592714" y1="12.3931" x2="23.5435" y2="12.3931" gradientUnits="userSpaceOnUse">
<stop stop-color="#00DDFF"/>
<stop offset="1" stop-color="#00FFFF"/>
</linearGradient>
<linearGradient id="paint2_linear_1158_2413" x1="13.044" y1="20.3272" x2="13.044" y2="5.59612" gradientUnits="userSpaceOnUse">
<stop stop-color="#3B3AEF"/>
<stop offset="0.96" stop-color="#0093FF"/>
</linearGradient>
<linearGradient id="paint3_linear_1158_2413" x1="2.16376" y1="19.5231" x2="4.82961" y2="16.7514" gradientUnits="userSpaceOnUse">
<stop stop-color="#00BFFF"/>
<stop offset="1" stop-color="#00FFFF"/>
</linearGradient>
<linearGradient id="paint4_linear_1158_2413" x1="23.9297" y1="19.5231" x2="21.2638" y2="16.7514" gradientUnits="userSpaceOnUse">
<stop stop-color="#00BFFF"/>
<stop offset="1" stop-color="#00FFFF"/>
</linearGradient>
<linearGradient id="paint5_linear_1158_2413" x1="23.9297" y1="3.23704" x2="21.2638" y2="6.0087" gradientUnits="userSpaceOnUse">
<stop stop-color="#00BFFF"/>
<stop offset="1" stop-color="#00FFFF"/>
</linearGradient>
<linearGradient id="paint6_linear_1158_2413" x1="2.16375" y1="3.23704" x2="4.82963" y2="6.0087" gradientUnits="userSpaceOnUse">
<stop stop-color="#00BFFF"/>
<stop offset="1" stop-color="#00FFFF"/>
</linearGradient>
<linearGradient id="paint7_linear_1158_2413" x1="13.044" y1="19.5814" x2="13.044" y2="9.90704" gradientUnits="userSpaceOnUse">
<stop stop-color="#00BFFF"/>
<stop offset="1" stop-color="#00FFFF"/>
</linearGradient>
<linearGradient id="paint8_linear_1158_2413" x1="13.044" y1="19.5814" x2="13.044" y2="9.907" gradientUnits="userSpaceOnUse">
<stop stop-color="#00BFFF"/>
<stop offset="1" stop-color="#00FFFF"/>
</linearGradient>
</defs>
</svg>
