<svg width="23" height="20" viewBox="0 0 23 20" fill="none" xmlns="http://www.w3.org/2000/svg">
<path opacity="0.64" d="M13.7687 2.13696H4.78723C2.6956 2.13696 1 3.83256 1 5.92419V14.9056C1 16.9973 2.6956 18.6929 4.78723 18.6929H13.7687C15.8603 18.6929 17.5559 16.9973 17.5559 14.9056V5.92419C17.5559 3.83256 15.8603 2.13696 13.7687 2.13696Z" stroke="url(#paint0_linear_1158_2470)" stroke-width="0.93794" stroke-linecap="round" stroke-linejoin="round"/>
<path d="M15.6253 0H6.42697C4.28567 0 2.5498 1.73586 2.5498 3.87715V13.0755C2.5498 15.2168 4.28567 16.9526 6.42697 16.9526H15.6253C17.7666 16.9526 19.5024 15.2168 19.5024 13.0755V3.87715C19.5024 1.73586 17.7666 0 15.6253 0Z" fill="url(#paint1_linear_1158_2470)"/>
<path opacity="0.64" d="M18.2647 2.18457H9.06635C6.92506 2.18457 5.18921 3.92043 5.18921 6.06172V15.26C5.18921 17.4013 6.92506 19.1372 9.06635 19.1372H18.2647C20.406 19.1372 22.1418 17.4013 22.1418 15.26V6.06172C22.1418 3.92043 20.406 2.18457 18.2647 2.18457Z" fill="url(#paint2_linear_1158_2470)"/>
<path d="M9.6959 4.76587H7.8922C7.48615 4.76587 7.15698 5.09504 7.15698 5.5011V6.53783C7.15698 6.94388 7.48615 7.27306 7.8922 7.27306H9.6959C10.102 7.27306 10.4311 6.94388 10.4311 6.53783V5.5011C10.4311 5.09504 10.102 4.76587 9.6959 4.76587Z" fill="white"/>
<path d="M13.8905 4.76587H12.0868C11.6807 4.76587 11.3516 5.09504 11.3516 5.5011V6.53783C11.3516 6.94388 11.6807 7.27306 12.0868 7.27306H13.8905C14.2965 7.27306 14.6257 6.94388 14.6257 6.53783V5.5011C14.6257 5.09504 14.2965 4.76587 13.8905 4.76587Z" fill="white"/>
<path d="M18.0848 4.76587H16.2811C15.8751 4.76587 15.5459 5.09504 15.5459 5.5011V6.53783C15.5459 6.94388 15.8751 7.27306 16.2811 7.27306H18.0848C18.4909 7.27306 18.8201 6.94388 18.8201 6.53783V5.5011C18.8201 5.09504 18.4909 4.76587 18.0848 4.76587Z" fill="white"/>
<path d="M9.6959 8.74878H7.8922C7.48615 8.74878 7.15698 9.07795 7.15698 9.48401V10.5207C7.15698 10.9268 7.48615 11.256 7.8922 11.256H9.6959C10.102 11.256 10.4311 10.9268 10.4311 10.5207V9.48401C10.4311 9.07795 10.102 8.74878 9.6959 8.74878Z" fill="white"/>
<path d="M13.8905 8.74878H12.0868C11.6807 8.74878 11.3516 9.07795 11.3516 9.48401V10.5207C11.3516 10.9268 11.6807 11.256 12.0868 11.256H13.8905C14.2965 11.256 14.6257 10.9268 14.6257 10.5207V9.48401C14.6257 9.07795 14.2965 8.74878 13.8905 8.74878Z" fill="white"/>
<path d="M18.0848 8.74878H16.2811C15.8751 8.74878 15.5459 9.07795 15.5459 9.48401V10.5207C15.5459 10.9268 15.8751 11.256 16.2811 11.256H18.0848C18.4909 11.256 18.8201 10.9268 18.8201 10.5207V9.48401C18.8201 9.07795 18.4909 8.74878 18.0848 8.74878Z" fill="white"/>
<path d="M9.6959 12.7264H7.8922C7.48615 12.7264 7.15698 13.0556 7.15698 13.4617V14.4984C7.15698 14.9045 7.48615 15.2336 7.8922 15.2336H9.6959C10.102 15.2336 10.4311 14.9045 10.4311 14.4984V13.4617C10.4311 13.0556 10.102 12.7264 9.6959 12.7264Z" fill="white"/>
<path d="M13.8905 12.7264H12.0868C11.6807 12.7264 11.3516 13.0556 11.3516 13.4617V14.4984C11.3516 14.9045 11.6807 15.2336 12.0868 15.2336H13.8905C14.2965 15.2336 14.6257 14.9045 14.6257 14.4984V13.4617C14.6257 13.0556 14.2965 12.7264 13.8905 12.7264Z" fill="white"/>
<path d="M18.0848 12.7264H16.2811C15.8751 12.7264 15.5459 13.0556 15.5459 13.4617V14.4984C15.5459 14.9045 15.8751 15.2336 16.2811 15.2336H18.0848C18.4909 15.2336 18.8201 14.9045 18.8201 14.4984V13.4617C18.8201 13.0556 18.4909 12.7264 18.0848 12.7264Z" fill="white"/>
<path d="M20.428 5.0515C20.428 4.89375 20.3013 4.76587 20.145 4.76587C19.9888 4.76587 19.8621 4.89375 19.8621 5.0515V14.948C19.8621 15.1058 19.9888 15.2336 20.145 15.2336C20.3013 15.2336 20.428 15.1058 20.428 14.948V5.0515Z" fill="white"/>
<path d="M20.1635 8.3467C20.4556 8.3467 20.6924 8.10989 20.6924 7.81776C20.6924 7.52563 20.4556 7.28882 20.1635 7.28882C19.8713 7.28882 19.6345 7.52563 19.6345 7.81776C19.6345 8.10989 19.8713 8.3467 20.1635 8.3467Z" fill="url(#paint3_linear_1158_2470)"/>
<defs>
<linearGradient id="paint0_linear_1158_2470" x1="0.598003" y1="10.4149" x2="17.9579" y2="10.4149" gradientUnits="userSpaceOnUse">
<stop stop-color="#00DDFF"/>
<stop offset="1" stop-color="#00FFFF"/>
</linearGradient>
<linearGradient id="paint1_linear_1158_2470" x1="11.0288" y1="18.3173" x2="11.0288" y2="2.0523" gradientUnits="userSpaceOnUse">
<stop stop-color="#3B3AEF"/>
<stop offset="0.96" stop-color="#0093FF"/>
</linearGradient>
<linearGradient id="paint2_linear_1158_2470" x1="13.6682" y1="20.5019" x2="13.6682" y2="4.23158" gradientUnits="userSpaceOnUse">
<stop stop-color="#00BFFF"/>
<stop offset="1" stop-color="#00FFFF"/>
</linearGradient>
<linearGradient id="paint3_linear_1158_2470" x1="20.1635" y1="8.42076" x2="20.1635" y2="7.33642" gradientUnits="userSpaceOnUse">
<stop stop-color="#3B3AEF"/>
<stop offset="0.96" stop-color="#0093FF"/>
</linearGradient>
</defs>
</svg>
