<svg width="24" height="24" viewBox="0 0 24 24" fill="none" xmlns="http://www.w3.org/2000/svg">
<g clip-path="url(#clip0_1158_2560)">
<path opacity="0.64" d="M21.0485 9.99996V20.7096C21.0471 21.2111 20.8472 21.6917 20.4926 22.0463C20.138 22.4009 19.6575 22.6007 19.156 22.6021H14.6775V17.7634C14.6761 17.2619 14.4762 16.7814 14.1216 16.4268C13.767 16.0722 13.2865 15.8723 12.785 15.8709H9.92482C9.42334 15.8723 8.94281 16.0722 8.58821 16.4268C8.23361 16.7814 8.03376 17.2619 8.03234 17.7634V22.6021H3.55385C3.05237 22.6007 2.57184 22.4009 2.21724 22.0463C1.86264 21.6917 1.6628 21.2111 1.66138 20.7096V9.99996C1.66168 9.37255 1.81512 8.75471 2.10838 8.20005C2.40163 7.64539 2.82584 7.1707 3.34418 6.81718L10.6668 1.82791C10.8693 1.68875 11.1092 1.61426 11.3549 1.61426C11.6006 1.61426 11.8406 1.68875 12.0431 1.82791L19.3657 6.81718C19.8847 7.17003 20.3094 7.64458 20.6027 8.19939C20.8961 8.7542 21.0491 9.37238 21.0485 9.99996Z" stroke="url(#paint0_linear_1158_2560)" stroke-width="0.833333" stroke-linecap="round" stroke-linejoin="round"/>
<path d="M21.6935 9.80104V20.5107C21.6942 20.759 21.6459 21.005 21.5514 21.2345C21.4569 21.4641 21.318 21.6728 21.1427 21.8486C20.9674 22.0244 20.7591 22.1639 20.5298 22.259C20.3005 22.3542 20.0547 22.4032 19.8064 22.4032H15.3225V17.5645C15.3225 17.0635 15.1239 16.583 14.7701 16.2282C14.4164 15.8735 13.9364 15.6734 13.4354 15.672H10.5698C10.0684 15.6734 9.58782 15.8733 9.23322 16.2279C8.87862 16.5825 8.67878 17.063 8.67736 17.5645V22.4032H4.19887C3.69739 22.4018 3.21686 22.2019 2.86226 21.8473C2.50765 21.4927 2.30782 21.0122 2.3064 20.5107V9.80104C2.30757 9.17454 2.46143 8.55776 2.75465 8.00411C3.04787 7.45047 3.47161 6.97661 3.98919 6.6236L11.3118 1.62899C11.5154 1.49262 11.7549 1.4198 11.9999 1.4198C12.245 1.4198 12.4845 1.49262 12.6881 1.62899L20.0161 6.6236C20.533 6.97688 20.9559 7.45092 21.2482 8.00461C21.5405 8.55829 21.6934 9.17494 21.6935 9.80104Z" fill="url(#paint1_linear_1158_2560)"/>
<path opacity="0.64" d="M11.1183 0.279764L0.655976 7.66686C0.390711 7.85567 0.192229 8.12384 0.0891286 8.43268C-0.0139715 8.74153 -0.016367 9.07512 0.0822827 9.38542C0.180932 9.69572 0.375536 9.96671 0.638059 10.1593C0.900582 10.3519 1.21747 10.4562 1.54307 10.4572H22.4624C22.788 10.4562 23.1049 10.3519 23.3674 10.1593C23.63 9.96671 23.8246 9.69572 23.9232 9.38542C24.0219 9.07512 24.0195 8.74153 23.9164 8.43268C23.8133 8.12384 23.6148 7.85567 23.3495 7.66686L12.8872 0.279764C12.6288 0.0961794 12.3197 -0.00244141 12.0027 -0.00244141C11.6858 -0.00244141 11.3767 0.0961794 11.1183 0.279764Z" fill="url(#paint2_linear_1158_2560)"/>
<path d="M13.0915 13.7471H10.7743C10.4447 13.7471 10.1775 14.0143 10.1775 14.3439V14.3493C10.1775 14.6789 10.4447 14.9461 10.7743 14.9461H13.0915C13.4211 14.9461 13.6882 14.6789 13.6882 14.3493V14.3439C13.6882 14.0143 13.4211 13.7471 13.0915 13.7471Z" fill="white"/>
</g>
<defs>
<linearGradient id="paint0_linear_1158_2560" x1="1.24202" y1="12.1075" x2="21.4678" y2="12.1075" gradientUnits="userSpaceOnUse">
<stop stop-color="#00DDFF"/>
<stop offset="1" stop-color="#00FFFF"/>
</linearGradient>
<linearGradient id="paint1_linear_1158_2560" x1="11.9999" y1="22.1236" x2="11.9999" y2="9.04297" gradientUnits="userSpaceOnUse">
<stop stop-color="#3B3AEF"/>
<stop offset="0.96" stop-color="#0093FF"/>
</linearGradient>
<linearGradient id="paint2_linear_1158_2560" x1="-8.89241" y1="5.23138" x2="23.7259" y2="5.23138" gradientUnits="userSpaceOnUse">
<stop stop-color="#00BFFF"/>
<stop offset="1" stop-color="#00FFFF"/>
</linearGradient>
<clipPath id="clip0_1158_2560">
<rect width="24" height="23.0161" fill="white"/>
</clipPath>
</defs>
</svg>
