<svg width="24" height="20" viewBox="0 0 24 20" fill="none" xmlns="http://www.w3.org/2000/svg">
<path d="M7.83002 7.19495H2.41067C1.0793 7.19495 0 8.27424 0 9.60561V15.025C0 16.3563 1.0793 17.4356 2.41067 17.4356H7.83002C9.16139 17.4356 10.2407 16.3563 10.2407 15.025V9.60561C10.2407 8.27424 9.16139 7.19495 7.83002 7.19495Z" fill="#00D9FF"/>
<path d="M13.0455 13.7037C16.8296 13.7037 19.8973 10.636 19.8973 6.85184C19.8973 3.06767 16.8296 0 13.0455 0C9.26129 0 6.1936 3.06767 6.1936 6.85184C6.1936 10.636 9.26129 13.7037 13.0455 13.7037Z" fill="url(#paint0_linear_1158_2459)"/>
<path d="M10.0598 12.1785L12.4937 15.4236C12.5319 15.4752 12.5854 15.5134 12.6466 15.5328C12.7078 15.5523 12.7736 15.552 12.8347 15.532C12.8957 15.512 12.9489 15.4733 12.9867 15.4214C13.0245 15.3695 13.045 15.307 13.0453 15.2428V12.7811L10.0598 12.1785Z" fill="url(#paint1_linear_1158_2459)"/>
<path d="M16.0865 8.23329C16.0952 8.53304 16.0383 8.83107 15.9198 9.10654C15.8013 9.382 15.624 9.62825 15.4004 9.82804C14.9374 10.2453 14.3312 10.4678 13.7083 10.4493H10.4631V2.80468H13.4765C14.0847 2.78961 14.6755 3.00864 15.1268 3.4166C15.3457 3.60774 15.5198 3.84474 15.6368 4.11073C15.7538 4.37673 15.8107 4.66522 15.8037 4.95571C15.8137 5.24941 15.7538 5.54127 15.6288 5.80726C15.5039 6.07324 15.3175 6.30573 15.0851 6.48555C15.3986 6.65423 15.6586 6.9074 15.8356 7.2163C16.0126 7.52521 16.0995 7.87751 16.0865 8.23329ZM11.9698 4.21398V5.89681H13.4765C13.6888 5.88104 13.8874 5.78554 14.0323 5.62948C14.1772 5.47342 14.2577 5.26835 14.2577 5.0554C14.2577 4.84245 14.1772 4.63737 14.0323 4.48132C13.8874 4.32526 13.6888 4.22976 13.4765 4.21398H11.9698ZM13.7083 9.03993C13.9468 9.03993 14.1755 8.94519 14.3442 8.77653C14.5129 8.60787 14.6076 8.37909 14.6076 8.14057C14.6076 7.90204 14.5129 7.6733 14.3442 7.50463C14.1755 7.33597 13.9468 7.2412 13.7083 7.2412H11.9605V9.03993H13.7083Z" fill="white"/>
<path d="M6.84278 15.3632L6.43946 14.1625H3.78773L3.38904 15.3632H1.9751L4.29304 8.70605H5.92024L8.23819 15.3632H6.84278ZM4.20496 12.9386H6.0315L5.10432 10.2174L4.20496 12.9386Z" fill="white"/>
<path opacity="0.68" d="M21.5059 9.02136H15.9104C14.5329 9.02136 13.4163 10.138 13.4163 11.5155V17.111C13.4163 18.4884 14.5329 19.6051 15.9104 19.6051H21.5059C22.8833 19.6051 24 18.4884 24 17.111V11.5155C24 10.138 22.8833 9.02136 21.5059 9.02136Z" fill="#00D9FF"/>
<path d="M16.5501 16.499C16.059 16.0133 15.7244 15.3917 15.5893 14.7143C15.4542 14.0369 15.5248 13.3346 15.792 12.6976C16.0591 12.0607 16.5107 11.5181 17.0886 11.1397C17.6664 10.7614 18.3443 10.5645 19.035 10.5743C19.6065 10.5659 20.1705 10.7058 20.6718 10.9805C21.1732 11.2551 21.5947 11.655 21.8953 12.1413L20.7641 12.7996C20.5893 12.4991 20.336 12.2519 20.0314 12.0845C19.7268 11.9171 19.3823 11.8357 19.035 11.8492C18.7476 11.8387 18.4611 11.8871 18.1932 11.9916C17.9253 12.096 17.6817 12.2542 17.4773 12.4565C17.0974 12.8928 16.8881 13.4519 16.8881 14.0304C16.8881 14.6089 17.0974 15.168 17.4773 15.6043C17.6833 15.8083 17.9292 15.9675 18.1997 16.072C18.4701 16.1765 18.7592 16.2241 19.0489 16.2116C19.3938 16.2264 19.7363 16.1481 20.0405 15.985C20.3448 15.8219 20.5995 15.5799 20.7781 15.2844L21.9092 15.9427C21.6093 16.4296 21.1879 16.83 20.6864 17.1047C20.1849 17.3794 19.6206 17.519 19.0489 17.5096C18.5851 17.5233 18.1236 17.4405 17.6934 17.2666C17.2633 17.0926 16.874 16.8312 16.5501 16.499Z" fill="white"/>
<defs>
<linearGradient id="paint0_linear_1158_2459" x1="13.0455" y1="16.8005" x2="13.0455" y2="4.68225" gradientUnits="userSpaceOnUse">
<stop stop-color="#3B3AEF"/>
<stop offset="0.96" stop-color="#0093FF"/>
</linearGradient>
<linearGradient id="paint1_linear_1158_2459" x1="11.5572" y1="16.8004" x2="11.5572" y2="4.68223" gradientUnits="userSpaceOnUse">
<stop stop-color="#3B3AEF"/>
<stop offset="0.96" stop-color="#0093FF"/>
</linearGradient>
</defs>
</svg>
