<svg width="30" height="26" viewBox="0 0 30 26" fill="none" xmlns="http://www.w3.org/2000/svg">
<path d="M14.3079 2.46653C16.8584 2.46422 19.3212 3.39782 21.2292 5.09036C21.3881 5.23192 21.5929 5.31105 21.8057 5.31301C21.9796 5.31301 22.1494 5.2602 22.2927 5.16158C22.4359 5.06295 22.5458 4.92317 22.6079 4.7607C22.6699 4.59824 22.6812 4.42076 22.6402 4.25175C22.5992 4.08275 22.5078 3.93018 22.3782 3.81424C20.1536 1.83969 17.2823 0.749207 14.3079 0.749207C11.3334 0.749207 8.46213 1.83969 6.23758 3.81424C6.10769 3.9304 6.01622 4.08334 5.97531 4.25272C5.93441 4.42211 5.946 4.59993 6.00856 4.76257C6.07111 4.92521 6.18167 5.06496 6.32554 5.16328C6.46941 5.26159 6.63978 5.31382 6.81403 5.31301C7.0268 5.31105 7.23163 5.23192 7.39048 5.09036C9.29712 3.39809 11.7585 2.46445 14.3079 2.46653ZM14.3079 23.3738C11.7585 23.3758 9.29712 22.4422 7.39048 20.7499C7.23163 20.6083 7.0268 20.5292 6.81403 20.5273C6.63978 20.5265 6.46941 20.5787 6.32554 20.677C6.18167 20.7753 6.07111 20.9151 6.00856 21.0777C5.946 21.2404 5.93441 21.4182 5.97531 21.5876C6.01622 21.7569 6.10769 21.9099 6.23758 22.0261C8.46213 24.0006 11.3334 25.0911 14.3079 25.0911C17.2823 25.0911 20.1536 24.0006 22.3782 22.0261C22.5078 21.9101 22.5992 21.7575 22.6402 21.5885C22.6812 21.4195 22.6699 21.2421 22.6079 21.0796C22.5458 20.9171 22.4359 20.7773 22.2927 20.6787C22.1494 20.5801 21.9796 20.5273 21.8057 20.5273C21.5929 20.5292 21.3881 20.6083 21.2292 20.7499C19.3235 22.4482 16.8605 23.3876 14.3079 23.3896V23.3738Z" fill="url(#paint0_linear_1095_3467)"/>
<path d="M6.75837 6.32677H6.75439C3.02404 6.32677 0 9.35081 0 13.0812V13.0851C0 16.8155 3.02404 19.8395 6.75439 19.8395H6.75837C10.4887 19.8395 13.5128 16.8155 13.5128 13.0851V13.0812C13.5128 9.35081 10.4887 6.32677 6.75837 6.32677Z" fill="url(#paint1_linear_1095_3467)"/>
<path d="M3.50244 13.5026C4.20503 13.5026 4.7746 12.933 4.7746 12.2304C4.7746 11.5278 4.20503 10.9583 3.50244 10.9583C2.79984 10.9583 2.23027 11.5278 2.23027 12.2304C2.23027 12.933 2.79984 13.5026 3.50244 13.5026Z" fill="white"/>
<path d="M9.97061 13.5026C10.6732 13.5026 11.2428 12.933 11.2428 12.2304C11.2428 11.5278 10.6732 10.9583 9.97061 10.9583C9.26802 10.9583 8.69845 11.5278 8.69845 12.2304C8.69845 12.933 9.26802 13.5026 9.97061 13.5026Z" fill="white"/>
<path d="M8.47976 15.0411C8.44987 15.4836 8.25301 15.8982 7.929 16.2011C7.60499 16.5039 7.17802 16.6724 6.7345 16.6724C6.29098 16.6724 5.86403 16.5039 5.54002 16.2011C5.21601 15.8982 5.01915 15.4836 4.98926 15.0411H8.47976Z" fill="white"/>
<path d="M23.0142 6.32677H23.0103C19.2799 6.32677 16.2559 9.35081 16.2559 13.0812V13.0851C16.2559 16.8155 19.2799 19.8395 23.0103 19.8395H23.0142C26.7446 19.8395 29.7686 16.8155 29.7686 13.0851V13.0812C29.7686 9.35081 26.7446 6.32677 23.0142 6.32677Z" fill="url(#paint2_linear_1095_3467)"/>
<path d="M19.7583 13.5026C20.4609 13.5026 21.0304 12.933 21.0304 12.2304C21.0304 11.5278 20.4609 10.9583 19.7583 10.9583C19.0557 10.9583 18.4861 11.5278 18.4861 12.2304C18.4861 12.933 19.0557 13.5026 19.7583 13.5026Z" fill="white"/>
<path d="M26.2225 13.5026C26.9251 13.5026 27.4946 12.933 27.4946 12.2304C27.4946 11.5278 26.9251 10.9583 26.2225 10.9583C25.5199 10.9583 24.9503 11.5278 24.9503 12.2304C24.9503 12.933 25.5199 13.5026 26.2225 13.5026Z" fill="white"/>
<path d="M25.6222 14.5998C25.5852 15.2728 25.2918 15.906 24.8023 16.3693C24.3128 16.8326 23.6644 17.0908 22.9904 17.0908C22.3164 17.0908 21.668 16.8326 21.1785 16.3693C20.689 15.906 20.3956 15.2728 20.3586 14.5998H25.6222Z" fill="white"/>
<defs>
<linearGradient id="paint0_linear_1095_3467" x1="5.95134" y1="12.9221" x2="22.6644" y2="12.9221" gradientUnits="userSpaceOnUse">
<stop stop-color="#00DDFF"/>
<stop offset="1" stop-color="#00FFFF"/>
</linearGradient>
<linearGradient id="paint1_linear_1095_3467" x1="6.75439" y1="3.44055" x2="6.75439" y2="19.9667" gradientUnits="userSpaceOnUse">
<stop stop-color="#0093FF"/>
<stop offset="1" stop-color="#3B3AEF"/>
</linearGradient>
<linearGradient id="paint2_linear_1095_3467" x1="23.0103" y1="21.6047" x2="23.0103" y2="8.15948" gradientUnits="userSpaceOnUse">
<stop stop-color="#00BFFF"/>
<stop offset="1" stop-color="#00FFFF"/>
</linearGradient>
</defs>
</svg>
