<svg width="25" height="25" viewBox="0 0 25 25" fill="none" xmlns="http://www.w3.org/2000/svg">
<path d="M17.0859 24.7957H7.53852C5.53993 24.7933 3.62387 24.0106 2.21065 22.6192C0.79743 21.2277 0.00243484 19.3412 0 17.3735V7.97331C0.00243484 6.00554 0.79743 4.11904 2.21065 2.72761C3.62387 1.33619 5.53993 0.553423 7.53852 0.551025H17.0859C19.0845 0.553423 21.0006 1.33619 22.4138 2.72761C23.827 4.11904 24.622 6.00554 24.6244 7.97331V17.3735C24.622 19.3412 23.827 21.2277 22.4138 22.6192C21.0006 24.0106 19.0845 24.7933 17.0859 24.7957ZM7.53852 3.57067C6.35308 3.57227 5.21664 4.03663 4.3784 4.86194C3.54016 5.68725 3.06856 6.80615 3.06694 7.97331V17.3735C3.06856 18.5406 3.54016 19.6595 4.3784 20.4848C5.21664 21.3101 6.35308 21.7745 7.53852 21.7761H17.0859C18.2713 21.7745 19.4078 21.3101 20.246 20.4848C21.0842 19.6595 21.5559 18.5406 21.5575 17.3735V7.97331C21.5559 6.80615 21.0842 5.68725 20.246 4.86194C19.4078 4.03663 18.2713 3.57227 17.0859 3.57067H7.53852Z" fill="#0290FF"/>
<path d="M12.0991 5.46997C10.6122 5.46997 9.15878 5.90412 7.92254 6.7175C6.68629 7.53088 5.7228 8.68696 5.15394 10.0395C4.58508 11.3921 4.4364 12.8804 4.7267 14.3161C5.01699 15.7519 5.73324 17.0706 6.78483 18.1056C7.83641 19.1405 9.17612 19.8452 10.6345 20.1304C12.0929 20.4157 13.6044 20.2687 14.9779 19.708C16.3514 19.1474 17.5252 18.1983 18.3508 16.9808C19.1764 15.7633 19.6168 14.332 19.6162 12.8681C19.6162 11.8963 19.4217 10.934 19.0439 10.0363C18.6661 9.13848 18.1124 8.32279 17.4143 7.63577C16.7162 6.94875 15.8875 6.40387 14.9755 6.03226C14.0635 5.66064 13.0861 5.46957 12.0991 5.46997ZM16.1567 14.1122L11.3753 16.8299C11.119 16.9756 10.8281 17.0523 10.5321 17.0524C10.2361 17.0524 9.94531 16.9758 9.68891 16.8301C9.43251 16.6845 9.21956 16.4749 9.07144 16.2226C8.92332 15.9703 8.84526 15.684 8.84509 15.3925V9.95717C8.84526 9.66571 8.92332 9.37944 9.07144 9.1271C9.21956 8.87475 9.43251 8.66523 9.68891 8.51957C9.94531 8.37392 10.2361 8.29727 10.5321 8.29731C10.8281 8.29735 11.119 8.37409 11.3753 8.51981L16.1567 11.2375C16.4134 11.3828 16.6267 11.5921 16.7751 11.8445C16.9234 12.0969 17.0015 12.3833 17.0015 12.6748C17.0015 12.9664 16.9234 13.2528 16.7751 13.5052C16.6267 13.7575 16.4134 13.9669 16.1567 14.1122Z" fill="#0290FF"/>
</svg>
