<svg width="22" height="22" viewBox="0 0 22 22" fill="none" xmlns="http://www.w3.org/2000/svg">
<rect width="22" height="22" rx="6" fill="white"/>
<g clip-path="url(#clip0_633_18651)">
<path d="M15.6161 11.5484H15.1094C14.8748 10.9319 14.5001 10.3724 14.012 9.91001C13.524 9.44763 12.9347 9.09378 12.2863 8.87378V10.4492C12.6692 10.6594 13.0019 10.9433 13.2633 11.2829C13.5246 11.6224 13.7088 12.0101 13.8041 12.4212C13.8382 12.5828 13.9302 12.7281 14.0643 12.8323C14.1984 12.9365 14.3663 12.993 14.5393 12.9923H15.6161C16.1123 12.9923 16.5881 13.1801 16.9389 13.5143C17.2898 13.8486 17.4869 14.3019 17.4869 14.7746C17.4869 15.2473 17.2898 15.7007 16.9389 16.0349C16.5881 16.3692 16.1123 16.557 15.6161 16.557H6.39117C5.89501 16.557 5.41917 16.3692 5.06833 16.0349C4.71749 15.7007 4.52039 15.2473 4.52039 14.7746C4.52039 14.3019 4.71749 13.8486 5.06833 13.5143C5.41917 13.1801 5.89501 12.9923 6.39117 12.9923H6.92955C7.10347 12.9926 7.27222 12.9361 7.40766 12.8321C7.5431 12.7282 7.63704 12.5831 7.67379 12.4212C7.77302 11.9819 7.97455 11.5695 8.26351 11.2144C8.55246 10.8593 8.92145 10.5705 9.34324 10.3695V8.82422C8.66023 9.03062 8.03616 9.38382 7.5192 9.85653C7.00225 10.3292 6.60624 10.9088 6.36176 11.5505C5.50083 11.6059 4.6944 11.9717 4.10654 12.5735C3.51868 13.1753 3.19355 13.9679 3.1973 14.79C3.20104 15.612 3.53338 16.4019 4.12671 16.9988C4.72003 17.5957 5.52977 17.9548 6.39117 18.0031H15.6161C16.4772 17.9511 17.2851 17.5886 17.8756 16.9893C18.4661 16.3899 18.7948 15.5988 18.7948 14.7768C18.7948 13.9548 18.4661 13.1637 17.8756 12.5643C17.2851 11.965 16.4772 11.6025 15.6161 11.5505V11.5484Z" fill="#7CCE63"/>
<path d="M8.53285 7.85746L10.0213 6.45013V11.9437C10.0157 12.0419 10.0311 12.1403 10.0667 12.2327C10.1023 12.325 10.1573 12.4096 10.2284 12.481C10.2994 12.5525 10.385 12.6094 10.4799 12.6483C10.5748 12.6872 10.677 12.7073 10.7803 12.7073C10.8836 12.7073 10.9858 12.6872 11.0807 12.6483C11.1756 12.6094 11.2612 12.5525 11.3322 12.481C11.4032 12.4096 11.4582 12.325 11.4938 12.2327C11.5294 12.1403 11.5448 12.0419 11.5392 11.9437V6.45228L13.0277 7.85962C13.1731 7.98285 13.3626 8.04825 13.5571 8.04235C13.7516 8.03646 13.9363 7.9597 14.0732 7.82791C14.21 7.69613 14.2886 7.51934 14.2928 7.33398C14.2969 7.14862 14.2263 6.96881 14.0954 6.83159L11.313 4.20443L11.2859 4.18719C11.2582 4.1626 11.2279 4.14091 11.1954 4.12253C11.165 4.10253 11.1333 4.08453 11.1004 4.06865C11.0909 4.06242 11.0811 4.05668 11.071 4.05142C11.0472 4.04441 11.023 4.03866 10.9986 4.03419C10.9632 4.02254 10.9269 4.01389 10.89 4.00832C10.8531 4.00504 10.816 4.00504 10.7791 4.00832C10.743 4.00511 10.7067 4.00511 10.6706 4.00832C10.6336 4.01389 10.5973 4.02254 10.562 4.03419C10.5371 4.03419 10.5122 4.03418 10.4873 4.05142C10.4624 4.06866 10.4692 4.06434 10.4579 4.06865C10.4257 4.08453 10.3947 4.10254 10.3652 4.12253C10.3323 4.14142 10.3013 4.16306 10.2724 4.18719L10.2453 4.20443L7.46513 6.83159C7.33426 6.96881 7.26361 7.14862 7.26775 7.33398C7.27189 7.51934 7.3505 7.69613 7.48738 7.82791C7.62426 7.9597 7.80897 8.03646 8.00348 8.04235C8.19798 8.04825 8.38745 7.98285 8.53285 7.85962V7.85746Z" fill="#7CCE63"/>
</g>
<defs>
<clipPath id="clip0_633_18651">
<rect width="16" height="14" fill="white" transform="translate(3 4)"/>
</clipPath>
</defs>
</svg>
