<svg width="26" height="26" viewBox="0 0 26 26" fill="none" xmlns="http://www.w3.org/2000/svg">
<circle cx="13" cy="13" r="13" fill="#0290FF"/>
<path fill-rule="evenodd" clip-rule="evenodd" d="M11.0205 11.7198C10.241 12.1489 9.61541 12.824 9.24856 13.6413L9.24061 13.6591L9.2406 13.6591C9.14317 13.8762 9.05823 14.0654 8.98333 14.2125C8.91293 14.3507 8.80972 14.539 8.65202 14.6908C8.49149 14.8453 8.352 14.9356 8.14532 15.0188C7.95825 15.0941 7.77511 15.1155 7.62685 15.1246C7.48617 15.1333 7.31778 15.1333 7.13915 15.1333H7.13914L7.11874 15.1333C5.93198 15.1333 4.96993 16.0954 4.96993 17.2821C4.96993 18.4689 5.93198 19.4309 7.11874 19.4309H12.9997H18.8806C20.0674 19.4309 21.0295 18.4689 21.0295 17.2821C21.0295 16.0954 20.0674 15.1333 18.8806 15.1333L18.8602 15.1333H18.8602C18.6816 15.1333 18.5132 15.1333 18.3725 15.1246C18.2243 15.1155 18.0411 15.0941 17.8541 15.0188C17.6474 14.9356 17.5079 14.8453 17.3474 14.6908C17.1897 14.539 17.0865 14.3507 17.0161 14.2125C16.9411 14.0654 16.8562 13.8762 16.7588 13.659L16.7508 13.6413C16.384 12.824 15.7584 12.1489 14.9789 11.7198V9.98285C16.4127 10.5146 17.5735 11.6074 18.1953 12.993C18.3031 13.233 18.3719 13.3859 18.4269 13.4938C18.4372 13.5139 18.4458 13.5302 18.4529 13.5431L18.4701 13.5443C18.5559 13.5496 18.6744 13.55 18.8806 13.55C20.9419 13.55 22.6128 15.2209 22.6128 17.2821C22.6128 19.3433 20.9418 21.0143 18.8806 21.0143H12.9997H7.11874C5.05753 21.0143 3.3866 19.3433 3.3866 17.2821C3.3866 15.2209 5.05753 13.55 7.11874 13.55C7.325 13.55 7.44347 13.5496 7.52924 13.5443L7.54645 13.5431C7.55355 13.5302 7.56223 13.5139 7.57252 13.4938C7.62746 13.3859 7.69632 13.233 7.80405 12.993C8.42593 11.6074 9.58671 10.5146 11.0205 9.98285V11.7198Z" fill="white"/>
<path d="M13 3.55954L12.4402 2.99975L13 2.43995L13.5598 2.99975L13 3.55954ZM13.7916 13.3611C13.7916 13.7984 13.4372 14.1528 13 14.1528C12.5628 14.1528 12.2083 13.7984 12.2083 13.3611L13.7916 13.3611ZM8.51955 6.92038L12.4402 2.99975L13.5598 4.11933L9.63914 8.03997L8.51955 6.92038ZM13.5598 2.99975L17.4804 6.92038L16.3608 8.03997L12.4402 4.11933L13.5598 2.99975ZM13.7916 3.55954L13.7916 13.3611L12.2083 13.3611L12.2083 3.55954L13.7916 3.55954Z" fill="white"/>
</svg>
