<svg width="25" height="25" viewBox="0 0 25 25" fill="none" xmlns="http://www.w3.org/2000/svg">
<path d="M17.0859 24.7957H7.53852C5.53993 24.7933 3.62391 24.0106 2.21069 22.6192C0.797467 21.2277 0.00243484 19.3412 0 17.3735V7.97331C0.00243484 6.00554 0.797467 4.11904 2.21069 2.72761C3.62391 1.33619 5.53993 0.553423 7.53852 0.551025H17.0859C19.085 0.552624 21.0019 1.33503 22.4158 2.72655C23.8296 4.11806 24.6251 6.00502 24.6275 7.97331V17.3735C24.6251 19.3418 23.8296 21.2287 22.4158 22.6202C21.0019 24.0117 19.085 24.7941 17.0859 24.7957ZM7.53852 3.57067C6.35308 3.57227 5.21667 4.03663 4.37844 4.86194C3.5402 5.68725 3.06856 6.80615 3.06694 7.97331V17.3735C3.06856 18.5406 3.5402 19.6595 4.37844 20.4848C5.21667 21.3101 6.35308 21.7745 7.53852 21.7761H17.0859C18.2719 21.7753 19.4091 21.3113 20.248 20.4859C21.0869 19.6605 21.5589 18.5412 21.5606 17.3735V7.97331C21.5589 6.80563 21.0869 5.68627 20.248 4.86087C19.4091 4.03548 18.2719 3.57147 17.0859 3.57067H7.53852Z" fill="#0290FF"/>
<path d="M1.95068 16.6789L5.90704 12.6145C6.1071 12.4095 6.34748 12.2468 6.6135 12.1363C6.87953 12.0258 7.16561 11.9699 7.45433 11.9719C7.74304 11.9738 8.02832 12.0337 8.29276 12.1478C8.55719 12.2619 8.79523 12.4279 8.99236 12.6356L12.1452 15.9572C12.5023 16.3351 12.989 16.5693 13.5113 16.6145C14.0336 16.6597 14.5543 16.5126 14.9729 16.2018L16.58 15.0121C16.9604 14.7297 17.4264 14.5818 17.9027 14.5922C18.3791 14.6026 18.8379 14.7707 19.2053 15.0694L21.2479 16.7242C21.5786 16.9917 21.8194 17.3515 21.9387 17.7562C22.058 18.1609 22.0503 18.5917 21.9164 18.992L21.7048 19.6231C21.6225 19.8655 21.4968 20.0915 21.3337 20.2904C20.8645 20.8581 19.88 22.0388 19.7635 22.1022C19.6469 22.1656 16.2181 23.2708 16.0372 23.2708C15.8562 23.2708 10.5535 23.6241 10.4032 23.6241C10.2529 23.6241 7.16141 22.8178 6.88845 22.7182C6.61549 22.6185 3.91353 22.069 3.79699 21.9754C3.68044 21.8818 2.69594 20.0971 2.2083 19.2214C2.04571 18.9252 1.95739 18.5949 1.95068 18.2582V16.694V16.6789Z" fill="#0290FF"/>
<path d="M16.6902 12.1826C18.3993 12.1826 19.7848 10.8185 19.7848 9.13581C19.7848 7.4531 18.3993 6.08899 16.6902 6.08899C14.9812 6.08899 13.5957 7.4531 13.5957 9.13581C13.5957 10.8185 14.9812 12.1826 16.6902 12.1826Z" fill="#0290FF"/>
</svg>
