<svg width="24" height="24" viewBox="0 0 24 24" fill="none" xmlns="http://www.w3.org/2000/svg">
<path d="M11.592 0.329957C9.29933 0.329957 7.05815 1.00982 5.15185 2.28356C3.24556 3.55731 1.75978 5.36773 0.882405 7.48589C0.00503342 9.60405 -0.224541 11.9348 0.222739 14.1835C0.670018 16.4321 1.77406 18.4976 3.39523 20.1187C5.0164 21.7399 7.08189 22.844 9.33052 23.2912C11.5791 23.7385 13.9099 23.5089 16.0281 22.6316C18.1462 21.7542 19.9567 20.2684 21.2304 18.3621C22.5042 16.4558 23.184 14.2146 23.184 11.922C23.1845 10.3995 22.885 8.89194 22.3026 7.48531C21.7203 6.07868 20.8664 4.80058 19.7899 3.72406C18.7134 2.64755 17.4353 1.79371 16.0287 1.21133C14.622 0.628953 13.1144 0.329459 11.592 0.329957ZM11.592 20.7731C9.84111 20.7738 8.12932 20.2553 6.67318 19.283C5.21705 18.3107 4.08198 16.9284 3.41159 15.3109C2.7412 13.6934 2.56561 11.9134 2.90702 10.1961C3.24842 8.47884 4.09146 6.90135 5.32954 5.66327C6.56762 4.4252 8.14508 3.58215 9.86238 3.24075C11.5797 2.89934 13.3597 3.07493 14.9772 3.74532C16.5946 4.41571 17.9769 5.55078 18.9492 7.00691C19.9215 8.46305 20.4401 10.1748 20.4393 11.9257C20.4343 14.2689 19.5 16.5144 17.8413 18.1695C16.1827 19.8246 13.9352 20.7542 11.592 20.7541V20.7731Z" fill="url(#paint0_linear_1095_3466)"/>
<path d="M15.6655 10.26L10.6153 7.34496C10.3241 7.17687 9.99385 7.08835 9.65766 7.08832C9.32147 7.08828 8.9912 7.17672 8.70001 7.34475C8.40883 7.51279 8.16699 7.7545 7.9988 8.0456C7.83062 8.33669 7.74202 8.66694 7.74188 9.00313V14.837C7.74202 15.1732 7.83062 15.5034 7.9988 15.7945C8.16699 16.0856 8.40883 16.3273 8.70001 16.4953C8.9912 16.6634 9.32147 16.7518 9.65766 16.7518C9.99385 16.7517 10.3241 16.6632 10.6153 16.4951L15.6655 13.5801C15.9572 13.4121 16.1995 13.1702 16.368 12.8788C16.5365 12.5874 16.6252 12.2567 16.6252 11.92C16.6252 11.5834 16.5365 11.2527 16.368 10.9613C16.1995 10.6698 15.9572 10.428 15.6655 10.26Z" fill="url(#paint1_linear_1095_3466)"/>
<defs>
<linearGradient id="paint0_linear_1095_3466" x1="11.592" y1="26.8947" x2="11.592" y2="-2.14593" gradientUnits="userSpaceOnUse">
<stop stop-color="#00BFFF"/>
<stop offset="1" stop-color="#00FFFF"/>
</linearGradient>
<linearGradient id="paint1_linear_1095_3466" x1="12.1826" y1="3.28662" x2="12.1826" y2="18.0814" gradientUnits="userSpaceOnUse">
<stop stop-color="#0093FF"/>
<stop offset="1" stop-color="#3B3AEF"/>
</linearGradient>
</defs>
</svg>
