<svg width="22" height="18" viewBox="0 0 22 18" fill="none" xmlns="http://www.w3.org/2000/svg">
<g clip-path="url(#clip0_1_580)">
<path d="M21.4603 12.5997L16.9916 4.71854C16.6852 4.16642 16.2397 3.70737 15.701 3.38865C15.1624 3.06992 14.55 2.90302 13.927 2.90512C13.3038 2.90264 12.6913 3.06938 12.1526 3.38815C11.6139 3.70691 11.1685 4.16616 10.8623 4.71854L9.03779 7.95368L8.05425 6.22005C7.89716 5.94693 7.67257 5.72041 7.40282 5.563C7.13306 5.4056 6.82753 5.32278 6.51658 5.32278C6.20563 5.32278 5.9001 5.4056 5.63034 5.563C5.36058 5.72041 5.136 5.94693 4.97891 6.22005L1.19798 12.8934C1.04366 13.1684 0.962764 13.4797 0.963344 13.7963C0.963924 14.1129 1.04596 14.4239 1.20129 14.6983C1.35661 14.9726 1.57982 15.2008 1.8487 15.3601C2.11758 15.5194 2.42275 15.6043 2.73387 15.6063H6.1335C6.20538 15.8139 6.29604 16.0142 6.40433 16.2047C6.7105 16.7571 7.15591 17.2164 7.69462 17.5351C8.23333 17.8539 8.84584 18.0206 9.46898 18.0182H18.4099C19.0331 18.021 19.6458 17.8544 20.1846 17.5356C20.7233 17.2168 21.1687 16.7574 21.4746 16.2047C21.7879 15.657 21.9518 15.034 21.9493 14.4002C21.9468 13.7664 21.778 13.1448 21.4603 12.5997ZM18.3957 16.5493H9.45472C9.10892 16.551 8.7681 16.4654 8.46275 16.3002C8.15741 16.135 7.89706 15.8954 7.70502 15.6027C7.48067 15.27 7.35386 14.8792 7.33934 14.476C7.32483 14.0727 7.42323 13.6735 7.62306 13.325L9.85028 9.40079L12.0953 5.4439C12.2776 5.11285 12.5436 4.83741 12.8656 4.64611C13.1877 4.45481 13.5541 4.3546 13.927 4.35585C14.2993 4.35524 14.665 4.45576 14.9863 4.64703C15.3077 4.8383 15.5731 5.11339 15.7551 5.4439L20.2273 13.325C20.4124 13.652 20.5097 14.0229 20.5094 14.4003C20.5091 14.7777 20.4113 15.1484 20.2257 15.4751C20.04 15.8018 19.7732 16.0731 19.452 16.2616C19.1308 16.4502 18.7665 16.5494 18.3957 16.5493Z" fill="white"/>
<path d="M6.50411 4.0947C7.03748 4.0947 7.54906 3.87931 7.92654 3.4958C8.30403 3.11229 8.51657 2.59201 8.51751 2.04916C8.51751 1.50569 8.30538 0.984479 7.9278 0.600186C7.55021 0.215893 7.03809 0 6.50411 0C6.23987 -4.22715e-07 5.97823 0.053029 5.73415 0.156054C5.49007 0.259078 5.26835 0.410076 5.08167 0.600406C4.89499 0.790736 4.74703 1.01666 4.64623 1.26526C4.54544 1.51385 4.4938 1.78024 4.49426 2.04916C4.49322 2.31852 4.54465 2.58542 4.64558 2.83443C4.7465 3.08344 4.89492 3.30962 5.08225 3.4999C5.26908 3.68947 5.49087 3.8396 5.73487 3.94168C5.97888 4.04375 6.24029 4.09576 6.50411 4.0947Z" fill="white"/>
</g>
<defs>
<clipPath id="clip0_1_580">
<rect width="21" height="18" fill="white" transform="translate(0.941406)"/>
</clipPath>
</defs>
</svg>
