<svg width="19" height="16" viewBox="0 0 19 16" fill="none" xmlns="http://www.w3.org/2000/svg">
<path d="M18.9326 9.07854C18.9326 9.52423 18.8434 9.96554 18.6701 10.3773C18.4969 10.7891 18.2429 11.1632 17.9228 11.4784C17.6027 11.7935 17.2226 12.0435 16.8043 12.2141C16.386 12.3846 15.9378 12.4724 15.485 12.4724H14.5231C14.5458 12.1559 14.4967 11.8384 14.3794 11.5428C14.2621 11.2473 14.0796 10.9811 13.845 10.7635C13.6105 10.5459 13.3297 10.3823 13.023 10.2846C12.7164 10.1869 12.3915 10.1575 12.0719 10.1985V7.35782C12.0719 6.79074 11.8431 6.24692 11.4358 5.84594C11.0285 5.44496 10.476 5.21965 9.89997 5.21965C9.32393 5.21965 8.7715 5.44496 8.36418 5.84594C7.95686 6.24692 7.72804 6.79074 7.72804 7.35782V10.1985C7.40834 10.1561 7.08304 10.1846 6.77596 10.2819C6.46888 10.3791 6.18779 10.5427 5.95317 10.7607C5.71856 10.9786 5.53639 11.2454 5.41996 11.5416C5.30354 11.8378 5.25583 12.1558 5.28029 12.4724H4.31496C3.48115 12.455 2.68202 12.1407 2.06563 11.5876C1.44925 11.0346 1.05741 10.2803 0.962728 9.46458C0.868043 8.64887 1.07693 7.82706 1.55069 7.15137C2.02444 6.47569 2.73093 5.99196 3.53926 5.78984C3.31069 5.27428 3.21588 4.71086 3.26335 4.15028C3.31083 3.5897 3.49911 3.04955 3.81125 2.57837C4.12339 2.10718 4.5496 1.71976 5.05156 1.45095C5.55351 1.18215 6.11546 1.04038 6.68687 1.0384C7.5502 1.03767 8.38173 1.35905 9.01397 1.93779C9.57393 1.05146 10.4557 0.408282 11.4801 0.139012C12.5045 -0.130257 13.5946 -0.00542578 14.5288 0.488137C15.4631 0.9817 16.1713 1.80696 16.5097 2.79616C16.848 3.78536 16.7911 4.86425 16.3504 5.81358C17.0862 6.0014 17.7384 6.4234 18.2054 7.01387C18.6724 7.60434 18.928 8.33022 18.9326 9.07854Z" fill="#149CBE"/>
<path d="M13.189 11.5499C13.0875 11.442 12.9654 11.3549 12.8297 11.2935C12.6939 11.2322 12.5472 11.1978 12.3979 11.1925C12.2486 11.1871 12.0997 11.2108 11.9598 11.2623C11.8199 11.3137 11.6916 11.3919 11.5824 11.4922L11.0377 11.9877V7.35165C11.0377 7.05461 10.9179 6.76976 10.7045 6.55973C10.4911 6.34969 10.2018 6.23169 9.90002 6.23169C9.59829 6.23169 9.30894 6.34969 9.09558 6.55973C8.88222 6.76976 8.76236 7.05461 8.76236 7.35165V11.9877L8.21762 11.4922C8.10967 11.3851 7.98087 11.3006 7.8389 11.2437C7.69694 11.1868 7.54475 11.1587 7.3915 11.1612C7.23825 11.1636 7.0871 11.1966 6.94709 11.258C6.80709 11.3194 6.68111 11.408 6.57675 11.5185C6.4724 11.629 6.39182 11.7591 6.33982 11.9011C6.28782 12.043 6.26549 12.1938 6.27416 12.3445C6.28284 12.4951 6.32235 12.6424 6.39032 12.7777C6.45829 12.9129 6.55329 13.0333 6.66967 13.1314L9.12433 15.3816C9.12433 15.3816 9.16571 15.4087 9.18295 15.4257L9.25188 15.4834L9.28639 15.5038L9.37258 15.5479C9.39596 15.5627 9.42011 15.5763 9.44497 15.5886H9.48288C9.51436 15.6008 9.54662 15.611 9.57943 15.6192L9.65526 15.6395H9.69663H9.79317H9.87936H9.92073H10.0069H10.1035H10.1448L10.2207 15.6192C10.2535 15.611 10.2857 15.6008 10.3172 15.5886H10.3551L10.4275 15.5479L10.5137 15.5038L10.5482 15.4834L10.6171 15.4257C10.6171 15.4257 10.6585 15.3986 10.6757 15.3816L13.1304 13.1314C13.24 13.0316 13.3285 12.9114 13.3908 12.7777C13.4531 12.6441 13.488 12.4996 13.4935 12.3527C13.4989 12.2057 13.4748 12.0591 13.4226 11.9214C13.3703 11.7836 13.2909 11.6574 13.189 11.5499Z" fill="#149CBE"/>
</svg>
