<svg width="26" height="20" viewBox="0 0 26 20" fill="none" xmlns="http://www.w3.org/2000/svg">
<g clip-path="url(#clip0_1_587)">
<path d="M15.3907 13.3553C15.9227 14.1084 16.6339 14.724 17.4633 15.1491C18.2926 15.5742 19.2153 15.796 20.1518 15.7955C20.9129 15.7974 21.6669 15.6518 22.3701 15.367C23.0732 15.0823 23.7115 14.664 24.2481 14.1365C24.7877 13.6111 25.2155 12.9865 25.5069 12.2988C25.7983 11.6111 25.9475 10.8738 25.9459 10.1294C25.9474 9.38577 25.7982 8.64917 25.5068 7.96217C25.2154 7.27517 24.7876 6.65138 24.2481 6.12681C23.7109 5.60006 23.0725 5.18231 22.3695 4.8976C21.6665 4.61288 20.9128 4.46682 20.1518 4.46783C19.391 4.465 18.6372 4.60892 17.9335 4.89134C17.2298 5.17377 16.5901 5.58914 16.051 6.11365C15.8054 6.35357 15.5828 6.61508 15.3863 6.89486C14.79 5.69513 13.8755 4.67351 12.7379 3.93636C11.6004 3.19922 10.2815 2.77349 8.91841 2.70351C10.3118 1.84542 11.9247 1.38904 13.5717 1.38685C15.7226 1.38137 17.8005 2.14827 19.4107 3.54178C19.5413 3.66038 19.713 3.72624 19.8913 3.72611C20.0377 3.72716 20.181 3.68448 20.3019 3.60379C20.4228 3.52309 20.5156 3.40823 20.5679 3.27458C20.6201 3.14093 20.6294 2.99486 20.5943 2.85594C20.5593 2.71702 20.4817 2.59186 20.3719 2.49723C18.5044 0.872219 16.0903 -0.0244876 13.5896 -0.0219674C11.0878 -0.0235131 8.67263 0.872995 6.80289 2.49723C6.67202 2.60961 6.59006 2.76662 6.57381 2.93611C4.96293 3.36258 3.54024 4.29476 2.5249 5.58905C1.50955 6.88334 0.957885 8.46793 0.95488 10.0987C0.957463 11.7462 1.51997 13.3461 2.55407 14.6473C3.58817 15.9485 5.03528 16.8773 6.66814 17.2877C6.70522 17.3476 6.75057 17.4022 6.80289 17.4501C8.67263 19.0743 11.0878 19.9708 13.5896 19.9693C16.0903 19.9718 18.5044 19.0751 20.3719 17.4501C20.4809 17.3547 20.5578 17.2293 20.5924 17.0904C20.627 16.9515 20.6176 16.8056 20.5656 16.6719C20.5135 16.5383 20.4212 16.4233 20.3008 16.342C20.1804 16.2607 20.0376 16.2171 19.8913 16.2168C19.7133 16.2184 19.5422 16.284 19.4107 16.4011C17.8005 17.7946 15.7226 18.5615 13.5717 18.556C12.0932 18.5556 10.639 18.1886 9.34511 17.4896C10.6282 17.3557 11.8557 16.9064 12.913 16.1834C13.9702 15.4604 14.8227 14.4874 15.3907 13.3553ZM22.9096 8.35196C23.1991 8.35196 23.4767 8.46433 23.6814 8.66433C23.8861 8.86434 24.0011 9.1356 24.0011 9.41845C24.0011 9.7013 23.8861 9.97257 23.6814 10.1726C23.4767 10.3726 23.1991 10.4849 22.9096 10.4849C22.6201 10.4849 22.3425 10.3726 22.1378 10.1726C21.9331 9.97257 21.8182 9.7013 21.8182 9.41845C21.8182 9.1356 21.9331 8.86434 22.1378 8.66433C22.3425 8.46433 22.6201 8.35196 22.9096 8.35196ZM21.9349 11.4242C21.9936 11.4225 22.0519 11.4342 22.1052 11.4581C22.1585 11.4821 22.2055 11.5178 22.2424 11.5623C22.2794 11.6069 22.3053 11.6592 22.3182 11.7152C22.331 11.7711 22.3306 11.8292 22.3167 11.885C22.1885 12.3541 21.9047 12.7685 21.5097 13.0631C21.1146 13.3578 20.6308 13.5161 20.1338 13.5133C19.6376 13.5151 19.1548 13.3564 18.7607 13.0618C18.3666 12.7672 18.0834 12.3534 17.9554 11.885C17.9416 11.8292 17.9411 11.7711 17.954 11.7152C17.9669 11.6592 17.9928 11.6069 18.0297 11.5623C18.0666 11.5178 18.1136 11.4821 18.1669 11.4581C18.2203 11.4342 18.2785 11.4225 18.3372 11.4242H21.9349ZM17.3625 8.35196C17.652 8.35196 17.9296 8.46433 18.1343 8.66433C18.339 8.86434 18.454 9.1356 18.454 9.41845C18.454 9.7013 18.339 9.97257 18.1343 10.1726C17.9296 10.3726 17.652 10.4849 17.3625 10.4849C17.0731 10.4849 16.7955 10.3726 16.5908 10.1726C16.3861 9.97257 16.2711 9.7013 16.2711 9.41845C16.2711 9.1356 16.3861 8.86434 16.5908 8.66433C16.7955 8.46433 17.0731 8.35196 17.3625 8.35196ZM8.54561 15.813C7.78278 15.8136 7.02732 15.6672 6.32244 15.3822C5.61757 15.0972 4.97711 14.6793 4.43771 14.1522C3.89831 13.6251 3.47055 12.9993 3.1789 12.3106C2.88725 11.6218 2.73744 10.8836 2.73803 10.1382C2.73803 8.63318 3.3499 7.18978 4.43903 6.12555C5.52816 5.06132 7.00534 4.46344 8.54561 4.46344C10.0859 4.46344 11.5631 5.06132 12.6522 6.12555C13.7413 7.18978 14.3532 8.63318 14.3532 10.1382C14.3526 10.8829 14.2019 11.6201 13.9097 12.3079C13.6176 12.9956 13.1896 13.6204 12.6503 14.1465C12.111 14.6727 11.471 15.0898 10.7667 15.3743C10.0624 15.6587 9.30768 15.8048 8.54561 15.8042V15.813Z" fill="white"/>
<path d="M5.9495 10.4367C6.63663 10.4367 7.19366 9.89238 7.19366 9.22096C7.19366 8.54954 6.63663 8.00525 5.9495 8.00525C5.26237 8.00525 4.70534 8.54954 4.70534 9.22096C4.70534 9.89238 5.26237 10.4367 5.9495 10.4367Z" fill="white"/>
<path d="M11.1103 10.4367C11.7974 10.4367 12.3545 9.89238 12.3545 9.22096C12.3545 8.54954 11.7974 8.00525 11.1103 8.00525C10.4232 8.00525 9.86613 8.54954 9.86613 9.22096C9.86613 9.89238 10.4232 10.4367 11.1103 10.4367Z" fill="white"/>
<path d="M8.52764 13.465C8.96562 13.4656 9.38719 13.3022 9.70553 13.0083C10.0239 12.7143 10.2148 12.3123 10.2389 11.885H6.82085C6.84494 12.3116 7.03521 12.7129 7.3526 13.0068C7.66999 13.3006 8.09043 13.4645 8.52764 13.465Z" fill="white"/>
</g>
<defs>
<clipPath id="clip0_1_587">
<rect width="25" height="20" fill="white" transform="translate(0.941406)"/>
</clipPath>
</defs>
</svg>
