<svg width="18" height="21" viewBox="0 0 18 21" fill="none" xmlns="http://www.w3.org/2000/svg">
<g clip-path="url(#clip0_1_790)">
<path d="M9.42811 2.03516C8.80554 2.03456 8.18894 2.15668 7.61381 2.39454C7.03869 2.63241 6.51633 2.98131 6.07674 3.4212C5.63715 3.8611 5.289 4.3833 5.05227 4.95786C4.81554 5.53241 4.69491 6.14799 4.6973 6.7692V9.48472C4.73536 10.7108 5.25021 11.8739 6.13283 12.7277C7.01544 13.5816 8.19652 14.059 9.42584 14.059C10.6552 14.059 11.8362 13.5816 12.7188 12.7277C13.6014 11.8739 14.1163 10.7108 14.1543 9.48472V6.7692C14.1567 6.14837 14.0363 5.53316 13.7998 4.95891C13.5634 4.38465 13.2156 3.86264 12.7765 3.42281C12.3374 2.98297 11.8156 2.634 11.241 2.39587C10.6664 2.15774 10.0503 2.03515 9.42811 2.03516ZM11.8366 8.90992C11.8366 10.4668 10.7571 11.7295 9.42811 11.7295C8.09914 11.7295 7.0196 10.4668 7.0196 8.90992V7.29421C7.0196 5.73731 8.0946 4.47461 9.42811 4.47461C10.7616 4.47461 11.8366 5.73731 11.8366 7.29421V8.90992Z" fill="white"/>
<path d="M14.9057 12.2229C14.7428 12.219 14.5819 12.259 14.4398 12.3387C14.2978 12.4183 14.1798 12.5347 14.0984 12.6755C13.6261 13.4953 12.9456 14.1764 12.1254 14.65C11.3051 15.1236 10.3742 15.373 9.42657 15.373C8.47891 15.373 7.548 15.1236 6.72777 14.65C5.90753 14.1764 5.22695 13.4953 4.75472 12.6755C4.67329 12.5347 4.55534 12.4183 4.41327 12.3387C4.2712 12.259 4.11025 12.219 3.94735 12.2229C3.78169 12.2219 3.61869 12.2644 3.47473 12.3462C3.33076 12.428 3.21091 12.5461 3.12724 12.6888C3.04356 12.8314 2.99901 12.9936 2.99806 13.1589C2.99712 13.3242 3.03983 13.4868 3.12187 13.6305C3.68215 14.5939 4.45636 15.4163 5.38498 16.0346C6.3136 16.6529 7.37188 17.0505 8.47856 17.1968V19.0072H6.28781C6.15811 18.9982 6.02797 19.0159 5.90544 19.0593C5.78291 19.1026 5.67061 19.1707 5.57556 19.2592C5.4805 19.3477 5.40469 19.4548 5.35287 19.5737C5.30104 19.6927 5.2743 19.8211 5.2743 19.9508C5.2743 20.0805 5.30104 20.2089 5.35287 20.3279C5.40469 20.4468 5.4805 20.5539 5.57556 20.6424C5.67061 20.7309 5.78291 20.799 5.90544 20.8423C6.02797 20.8857 6.15811 20.9034 6.28781 20.8944H12.5789C12.8184 20.8779 13.0427 20.7713 13.2064 20.5962C13.3702 20.421 13.4614 20.1904 13.4614 19.9508C13.4614 19.7113 13.3702 19.4806 13.2064 19.3055C13.0427 19.1303 12.8184 19.0237 12.5789 19.0072H10.37V17.1968C11.4773 17.0505 12.5362 16.6529 13.4656 16.0347C14.3949 15.4165 15.17 14.594 15.7312 13.6305C15.8133 13.4868 15.856 13.3242 15.855 13.1589C15.8541 12.9936 15.8095 12.8314 15.7259 12.6888C15.6422 12.5461 15.5223 12.428 15.3784 12.3462C15.2344 12.2644 15.0714 12.2219 14.9057 12.2229Z" fill="white"/>
<path d="M14.4318 0.0802561C14.36 0.0377905 14.2797 0.0114176 14.1967 0.00296498C14.1136 -0.0054876 14.0297 0.00418506 13.9507 0.0313069C13.8718 0.0584287 13.7997 0.102347 13.7394 0.160033C13.6792 0.217719 13.6322 0.287793 13.6018 0.365388C13.5511 0.491205 13.547 0.630959 13.5902 0.759523C13.6335 0.888086 13.7212 0.997066 13.8377 1.06692C14.9229 1.73719 15.7755 2.72398 16.2801 3.89371C16.7847 5.06343 16.9169 6.35958 16.6589 7.60677C16.6264 7.75621 16.6547 7.91243 16.7377 8.04102C16.8206 8.16961 16.9513 8.26004 17.1011 8.29245C17.2509 8.32486 17.4074 8.29659 17.5363 8.21383C17.6652 8.13108 17.7558 8.00063 17.7883 7.85119C18.0961 6.36875 17.9391 4.82771 17.3386 3.43742C16.7381 2.04713 15.7232 0.874968 14.4318 0.0802561Z" fill="white"/>
<path d="M13.7998 1.81501C13.7281 1.76413 13.6457 1.73002 13.559 1.71529C13.4722 1.70057 13.3832 1.70557 13.2986 1.72993C13.214 1.75429 13.1361 1.7974 13.0705 1.85601C13.0049 1.91461 12.9534 1.98722 12.9199 2.06843C12.8718 2.18864 12.8659 2.32153 12.9029 2.44555C12.9399 2.56958 13.0178 2.67749 13.124 2.75184C13.7855 3.2187 14.305 3.85877 14.6251 4.60147C14.9453 5.34417 15.0536 6.16067 14.9383 6.96092C14.92 7.08877 14.9455 7.21903 15.0105 7.33069C15.0755 7.44236 15.1763 7.52891 15.2966 7.57643C15.3777 7.60885 15.465 7.62248 15.5521 7.61627C15.6392 7.61005 15.7237 7.58417 15.7993 7.54058C15.8748 7.49698 15.9395 7.43681 15.9884 7.36461C16.0373 7.29242 16.069 7.21009 16.0813 7.12385C16.2231 6.11543 16.0855 5.08752 15.6833 4.15165C15.2811 3.21577 14.6297 2.40768 13.7998 1.81501Z" fill="white"/>
<path d="M5.05131 1.06692C5.1678 0.997066 5.25553 0.888086 5.29875 0.759523C5.34198 0.630959 5.33788 0.491205 5.28718 0.365388C5.25676 0.287793 5.20979 0.217719 5.14953 0.160033C5.08928 0.102347 5.01715 0.0584287 4.93819 0.0313069C4.85924 0.00418506 4.77532 -0.0054876 4.69225 0.00296498C4.60918 0.0114176 4.52894 0.0377905 4.4571 0.0802561C3.16431 0.873542 2.14825 2.04549 1.54756 3.4362C0.946879 4.82692 0.790804 6.3687 1.10063 7.85119C1.13791 7.99506 1.2296 8.11893 1.35643 8.19682C1.48327 8.27471 1.63542 8.30058 1.78094 8.26897C1.92646 8.23735 2.05401 8.15072 2.1369 8.02726C2.2198 7.90381 2.2516 7.75309 2.22555 7.60677C1.96864 6.35913 2.10188 5.06284 2.60725 3.89321C3.11263 2.72358 3.96577 1.73704 5.05131 1.06692Z" fill="white"/>
<path d="M3.57984 7.58425C3.70018 7.53673 3.80097 7.45011 3.86598 7.33845C3.93099 7.22678 3.95638 7.09653 3.93812 6.96868C3.82384 6.16849 3.93273 5.35239 4.25278 4.60989C4.57283 3.86739 5.09168 3.22722 5.75242 2.75966C5.86002 2.6865 5.93939 2.57886 5.97733 2.45458C6.01527 2.3303 6.00955 2.19684 5.96111 2.07625C5.92757 1.99503 5.87608 1.92243 5.81051 1.86382C5.74494 1.80521 5.66697 1.76211 5.58239 1.73775C5.49781 1.71339 5.40883 1.70838 5.32205 1.72311C5.23526 1.73783 5.1529 1.77189 5.08114 1.82277C4.25377 2.41707 3.60508 3.2259 3.20533 4.16167C2.80558 5.09743 2.67001 6.12452 2.81327 7.13166C2.82623 7.21567 2.85773 7.29577 2.90545 7.36618C2.95318 7.4366 3.01596 7.49554 3.08928 7.53883C3.16259 7.58212 3.24458 7.60866 3.32941 7.61651C3.41423 7.62436 3.49979 7.61335 3.57984 7.58425Z" fill="white"/>
</g>
<defs>
<clipPath id="clip0_1_790">
<rect width="17" height="20.9231" fill="white" transform="translate(0.941406)"/>
</clipPath>
</defs>
</svg>
