<svg width="10" height="16" viewBox="0 0 10 16" fill="none" xmlns="http://www.w3.org/2000/svg">
<g clip-path="url(#clip0_41_17890)">
<path d="M6.2713 0H3.72865C2.74044 -5.75819e-07 1.79267 0.385244 1.09353 1.07113C0.39438 1.75701 0.00107647 2.6874 0 3.65791V12.342C0.00107647 13.3125 0.39438 14.243 1.09353 14.9289C1.79267 15.6147 2.74044 16 3.72865 16H6.2713C7.2595 16 8.20732 15.6147 8.90647 14.9289C9.60562 14.243 9.99892 13.3125 10 12.342V3.65791C9.99892 2.6874 9.60562 1.75701 8.90647 1.07113C8.20732 0.385244 7.2595 -5.75819e-07 6.2713 0ZM5.01217 14.2209C4.65647 14.2201 4.30901 14.1158 4.01364 13.9211C3.71828 13.7265 3.48828 13.4502 3.35272 13.1272C3.21715 12.8043 3.18208 12.4491 3.25197 12.1065C3.32185 11.764 3.49355 11.4495 3.74536 11.2028C3.99716 10.956 4.31776 10.7881 4.66669 10.7203C5.01561 10.6524 5.37722 10.6876 5.70577 10.8215C6.03432 10.9554 6.31508 11.1819 6.51261 11.4724C6.71015 11.7629 6.81561 12.1044 6.81561 12.4537C6.81561 12.6861 6.7689 12.9163 6.67822 13.1309C6.58754 13.3456 6.45463 13.5405 6.28712 13.7047C6.1196 13.8688 5.92078 13.999 5.702 14.0875C5.48323 14.1761 5.24881 14.2214 5.01217 14.2209ZM5.01217 9.63751C4.65532 9.63751 4.30648 9.53351 4.00983 9.33872C3.71317 9.14393 3.48205 8.86707 3.34568 8.5432C3.2093 8.21934 3.17382 7.86303 3.24374 7.51936C3.31365 7.17569 3.4858 6.86011 3.73842 6.61258C3.99103 6.36504 4.31277 6.19669 4.66287 6.1288C5.01296 6.06091 5.37567 6.09654 5.70513 6.2312C6.03458 6.36587 6.31598 6.59348 6.51366 6.88526C6.71133 7.17705 6.81641 7.51988 6.81561 7.87035C6.81561 8.10275 6.7689 8.33288 6.67822 8.54754C6.58754 8.7622 6.45463 8.95716 6.28712 9.1213C6.1196 9.28545 5.92078 9.41556 5.702 9.50414C5.48323 9.59271 5.24881 9.63803 5.01217 9.63751ZM5.01217 5.05407C4.65549 5.05407 4.30684 4.95024 4.01027 4.75562C3.7137 4.56101 3.48252 4.28437 3.34603 3.96074C3.20953 3.63711 3.17386 3.281 3.24344 2.93743C3.31303 2.59386 3.48477 2.27829 3.73698 2.0306C3.98919 1.7829 4.31051 1.61419 4.66034 1.54585C5.01017 1.47751 5.37277 1.51259 5.7023 1.64664C6.03183 1.7807 6.31351 2.00774 6.51167 2.299C6.70983 2.59026 6.81561 2.93267 6.81561 3.28296C6.81561 3.7527 6.62557 4.20318 6.28736 4.53533C5.94916 4.86748 5.49047 5.05407 5.01217 5.05407Z" fill="white"/>
</g>
<defs>
<clipPath id="clip0_41_17890">
<rect width="10" height="16" fill="white"/>
</clipPath>
</defs>
</svg>
