<svg width="21" height="20" viewBox="0 0 21 20" fill="none" xmlns="http://www.w3.org/2000/svg">
<path d="M8.44141 15V4.16667L18.4414 2.5V13.3333" stroke="white" stroke-width="2.5" stroke-linecap="round" stroke-linejoin="round"/>
<path d="M5.94141 17.5C7.32212 17.5 8.44141 16.3807 8.44141 15C8.44141 13.6193 7.32212 12.5 5.94141 12.5C4.56069 12.5 3.44141 13.6193 3.44141 15C3.44141 16.3807 4.56069 17.5 5.94141 17.5Z" stroke="white" stroke-width="2.5" stroke-linecap="round" stroke-linejoin="round"/>
<path d="M15.9414 15.8333C17.3221 15.8333 18.4414 14.714 18.4414 13.3333C18.4414 11.9526 17.3221 10.8333 15.9414 10.8333C14.5607 10.8333 13.4414 11.9526 13.4414 13.3333C13.4414 14.714 14.5607 15.8333 15.9414 15.8333Z" stroke="white" stroke-width="2.5" stroke-linecap="round" stroke-linejoin="round"/>
</svg>
