<svg width="21" height="17" viewBox="0 0 21 17" fill="none" xmlns="http://www.w3.org/2000/svg">
<path d="M19.7889 3.2236L17.286 1.38028C17.1125 1.25394 16.8953 1.20035 16.6818 1.23117C16.4683 1.262 16.2759 1.37476 16.1466 1.54482L14.7793 3.34697L18.5774 6.15117L19.9446 4.34902C20.0754 4.17939 20.1325 3.96559 20.1033 3.75459C20.0741 3.54359 19.961 3.35263 19.7889 3.2236Z" fill="#149CBE"/>
<path d="M9.77573 10.1697L9.46811 12.7122C9.4431 12.9003 9.46971 13.0916 9.54521 13.2661C9.62071 13.4406 9.74231 13.592 9.89739 13.7046C10.0525 13.8172 10.2354 13.8869 10.427 13.9063C10.6187 13.9258 10.8122 13.8943 10.9873 13.8152L13.3763 12.8057C13.508 12.7501 13.627 12.6687 13.7257 12.5664L9.92766 9.77344C9.84922 9.89353 9.79744 10.0286 9.77573 10.1697Z" fill="#149CBE"/>
<path d="M14.4834 3.68803L10.1887 9.3457L14.0008 12.1501L18.2955 6.49241L14.4834 3.68803Z" fill="#149CBE"/>
<path d="M19.7889 3.2236L17.286 1.38028C17.1125 1.25394 16.8953 1.20035 16.6818 1.23117C16.4683 1.262 16.2759 1.37476 16.1466 1.54482L14.7793 3.34697L18.5774 6.15117L19.9446 4.34902C20.0754 4.17939 20.1325 3.96559 20.1033 3.75459C20.0741 3.54359 19.961 3.35263 19.7889 3.2236Z" fill="#149CBE"/>
<path d="M9.77573 10.1697L9.46811 12.7122C9.4431 12.9003 9.46971 13.0916 9.54521 13.2661C9.62071 13.4406 9.74231 13.592 9.89739 13.7046C10.0525 13.8172 10.2354 13.8869 10.427 13.9063C10.6187 13.9258 10.8122 13.8943 10.9873 13.8152L13.3763 12.8057C13.508 12.7501 13.627 12.6687 13.7257 12.5664L9.92766 9.77344C9.84922 9.89353 9.79744 10.0286 9.77573 10.1697Z" fill="#149CBE"/>
<path d="M14.4834 3.68803L10.1887 9.3457L14.0008 12.1501L18.2955 6.49241L14.4834 3.68803Z" fill="#149CBE"/>
<path d="M14.9135 12.862C14.791 12.9629 14.6947 13.091 14.6324 13.2359C14.6001 13.2795 14.5645 13.3207 14.5261 13.3592C14.3183 13.5736 14.0673 13.743 13.7893 13.8565L11.4155 14.8623C11.1371 14.98 10.8373 15.041 10.5343 15.0418C10.221 15.0407 9.91153 14.9745 9.62608 14.8475C9.34062 14.7204 9.08568 14.5353 8.87801 14.3044C8.67034 14.0735 8.51464 13.8019 8.4211 13.5076C8.32756 13.2132 8.29833 12.9027 8.33528 12.5965L8.6429 10.0615C8.67432 9.76857 8.76883 9.48555 8.92015 9.23143C8.98113 9.12491 9.05939 9.02892 9.15183 8.94726C9.18315 8.86958 9.22536 8.79661 9.2772 8.73042L13.5728 3.0734C13.6215 3.00874 13.6776 2.94979 13.7399 2.89768C13.7706 2.8228 13.8115 2.75235 13.8614 2.68828L15.1566 0.98709C14.4741 0.351944 13.5701 -0.00134445 12.6309 3.84505e-06H4.62457C3.64749 3.84505e-06 2.71039 0.382109 2.01948 1.06226C1.32858 1.74241 0.94043 2.66488 0.94043 3.62676V12.5741C0.94043 13.5359 1.32858 14.4584 2.01948 15.1386C2.71039 15.8187 3.64749 16.2008 4.62457 16.2008H12.6309C13.6083 16.2008 14.5457 15.8188 15.2373 15.1388C15.9288 14.4587 16.3178 13.5363 16.3188 12.5741V11.0261L14.9135 12.862ZM6.03744 2.36674C6.19594 2.36674 6.35088 2.413 6.48266 2.49969C6.61445 2.58638 6.71716 2.70962 6.77781 2.85378C6.83847 2.99793 6.85435 3.15652 6.82343 3.30955C6.79251 3.46259 6.71617 3.60319 6.60409 3.71352C6.49201 3.82385 6.34923 3.89897 6.19378 3.92941C6.03832 3.95985 5.87718 3.94425 5.73075 3.88454C5.58431 3.82483 5.45917 3.72368 5.37111 3.59394C5.28305 3.46421 5.23606 3.31168 5.23606 3.15565C5.23606 2.94641 5.32046 2.74577 5.47075 2.59782C5.62104 2.44987 5.8249 2.36674 6.03744 2.36674ZM3.75861 2.36674C3.91727 2.366 4.07256 2.41163 4.20485 2.49786C4.33714 2.5841 4.44047 2.70709 4.50171 2.85117C4.56295 2.99526 4.57935 3.15399 4.54886 3.30727C4.51837 3.46055 4.44232 3.60145 4.3304 3.71215C4.21848 3.82286 4.07569 3.89839 3.92013 3.92913C3.76458 3.95988 3.60325 3.94446 3.4566 3.88486C3.30994 3.82526 3.18458 3.72417 3.09636 3.59435C3.00813 3.46454 2.96102 3.31184 2.96102 3.15565C2.961 2.94834 3.04384 2.74938 3.19168 2.60174C3.33951 2.45411 3.54044 2.36968 3.751 2.36674H3.75861ZM3.1927 4.74844C3.26645 4.67446 3.35456 4.61583 3.45178 4.57601C3.54899 4.53619 3.65332 4.51599 3.75861 4.51663H9.0037C9.11333 4.50919 9.22334 4.52403 9.3269 4.56022C9.43045 4.5964 9.52535 4.65313 9.60568 4.72694C9.68601 4.80076 9.75007 4.89008 9.79387 4.98929C9.83766 5.0885 9.86026 5.19549 9.86026 5.30367C9.86026 5.41184 9.83766 5.51888 9.79387 5.61809C9.75007 5.7173 9.68601 5.80658 9.60568 5.88039C9.52535 5.95421 9.43045 6.01098 9.3269 6.04717C9.22334 6.08335 9.11333 6.09815 9.0037 6.09071H3.75861C3.6011 6.08969 3.44738 6.04304 3.31667 5.95652C3.18597 5.87 3.08408 5.74747 3.02371 5.60426C2.96333 5.46105 2.94715 5.30348 2.9772 5.15127C3.00726 4.99906 3.08222 4.85895 3.1927 4.74844ZM6.71351 13.0975C6.63906 13.1703 6.55075 13.2279 6.45364 13.267C6.35653 13.3062 6.25253 13.3261 6.1476 13.3256H3.75861C3.55609 13.3118 3.3664 13.2229 3.22789 13.0768C3.08937 12.9308 3.01235 12.7384 3.01235 12.5386C3.01235 12.3387 3.08937 12.1463 3.22789 12.0002C3.3664 11.8541 3.55609 11.7652 3.75861 11.7515H6.1476C6.30588 11.7518 6.46053 11.7982 6.59204 11.8849C6.72355 11.9716 6.826 12.0947 6.88653 12.2387C6.94706 12.3827 6.96295 12.5411 6.93215 12.6939C6.90136 12.8468 6.82528 12.9872 6.71351 13.0975ZM6.71351 10.6784C6.63975 10.7524 6.55164 10.811 6.45443 10.8508C6.35722 10.8906 6.25289 10.9108 6.1476 10.9102H3.75861C3.54606 10.9102 3.3422 10.8271 3.19191 10.6792C3.04162 10.5312 2.95722 10.3305 2.95722 10.1213C2.95722 9.91206 3.04162 9.71142 3.19191 9.56347C3.3422 9.41552 3.54606 9.33239 3.75861 9.33239H6.1476C6.30588 9.33268 6.46053 9.37913 6.59204 9.46584C6.72355 9.55255 6.826 9.67564 6.88653 9.81961C6.94706 9.96358 6.96295 10.122 6.93215 10.2748C6.90136 10.4276 6.82528 10.5681 6.71351 10.6784ZM7.59464 8.25931C7.44466 8.40735 7.24112 8.49073 7.02873 8.49112H3.75861C3.54606 8.49112 3.3422 8.40799 3.19191 8.26004C3.04162 8.11209 2.95722 7.91145 2.95722 7.70221C2.95722 7.49298 3.04162 7.29233 3.19191 7.14438C3.3422 6.99643 3.54606 6.9133 3.75861 6.9133H7.02873C7.18701 6.9136 7.34165 6.96 7.47316 7.04671C7.60467 7.13342 7.70718 7.25655 7.76771 7.40052C7.82824 7.5445 7.84408 7.70287 7.81328 7.8557C7.78249 8.00854 7.70641 8.14899 7.59464 8.25931Z" fill="#149CBE"/>
<mask id="mask0_6_412" style="mask-type:luminance" maskUnits="userSpaceOnUse" x="14" y="1" width="7" height="6">
<path d="M19.7896 3.2236L17.2867 1.38028C17.1133 1.25394 16.896 1.20035 16.6825 1.23117C16.469 1.262 16.2766 1.37476 16.1473 1.54482L14.78 3.34697L18.5781 6.15117L19.9454 4.34902C20.0761 4.17939 20.1332 3.96559 20.104 3.75459C20.0748 3.54359 19.9617 3.35263 19.7896 3.2236Z" fill="white"/>
</mask>
<g mask="url(#mask0_6_412)">
<path d="M14.7734 6.08795L14.8684 6.15151H14.7734V6.08795Z" fill="#149CBE"/>
<path d="M14.7734 5.91583L15.1077 6.15139H14.8684L14.7734 6.08782V5.91583Z" fill="#149CBE"/>
<path d="M14.7734 5.74805L15.3431 6.15185H15.1077L14.7734 5.9163V5.74805Z" fill="#149CBE"/>
<path d="M14.7734 5.58008L15.5824 6.15214H15.3431L14.7734 5.74833V5.58008Z" fill="#149CBE"/>
<path d="M14.7734 5.4082L15.8217 6.15225H15.5824L14.7734 5.58019V5.4082Z" fill="#149CBE"/>
<path d="M14.7734 5.23828L16.061 6.15058H15.8217L14.7734 5.40653V5.23828Z" fill="#149CBE"/>
<path d="M14.7734 5.07031L16.3003 6.15087H16.061L14.7734 5.23857V5.07031Z" fill="#149CBE"/>
<path d="M14.7734 4.89844L16.5357 6.15098H16.3003L14.7734 5.07043V4.89844Z" fill="#149CBE"/>
<path d="M14.7734 4.73047L16.775 6.15127H16.5357L14.7734 4.89872V4.73047Z" fill="#149CBE"/>
<path d="M14.7734 4.56238L17.0143 6.15143H16.775L14.7734 4.73063V4.56238Z" fill="#149CBE"/>
<path d="M14.7734 4.3905L17.2536 6.15154H17.0143L14.7734 4.56249V4.3905Z" fill="#149CBE"/>
<path d="M14.7734 4.22266L17.4928 6.15195H17.2536L14.7734 4.39091V4.22266Z" fill="#149CBE"/>
<path d="M14.7734 4.05469L17.7321 6.15223H17.4928L14.7734 4.22294V4.05469Z" fill="#149CBE"/>
<path d="M14.7734 3.88281L17.9714 6.15235H17.7321L14.7734 4.0548V3.88281Z" fill="#149CBE"/>
<path d="M14.7734 3.71289L18.2069 6.15068H17.9714L14.7734 3.88114V3.71289Z" fill="#149CBE"/>
<path d="M14.7734 3.54492L18.4462 6.15096H18.2069L14.7734 3.71317V3.54492Z" fill="#149CBE"/>
<path d="M14.7734 3.37305L18.6854 6.15108H18.4462L14.7734 3.54504V3.37305Z" fill="#149CBE"/>
<path d="M14.7734 3.20514L18.9247 6.15142H18.6854L14.7734 3.37339V3.20514Z" fill="#149CBE"/>
<path d="M14.7732 2.06866L15.472 1.11523H20.2272V5.27294L19.5815 6.15159H18.9245L14.7732 3.2053V2.06866Z" fill="#149CBE"/>
</g>
<mask id="mask1_6_412" style="mask-type:luminance" maskUnits="userSpaceOnUse" x="9" y="9" width="5" height="5">
<path d="M9.77487 10.1699L9.46726 12.7124C9.44225 12.9005 9.46886 13.0918 9.54436 13.2663C9.61985 13.4408 9.74145 13.5922 9.89653 13.7048C10.0516 13.8174 10.2345 13.887 10.4262 13.9065C10.6179 13.9259 10.8113 13.8945 10.9865 13.8154L13.3754 12.8059C13.5072 12.7503 13.6261 12.6689 13.7249 12.5666L9.92681 9.77362C9.84837 9.89372 9.79658 10.0288 9.77487 10.1699Z" fill="white"/>
</mask>
<g mask="url(#mask1_6_412)">
<path d="M9.36926 13.7736L9.8858 14.1363H9.64652L9.36926 13.9419V13.7736Z" fill="#149CBE"/>
<path d="M9.36926 13.6017L10.1251 14.1364H9.8858L9.36926 13.7737V13.6017Z" fill="#149CBE"/>
<path d="M9.36926 13.4338L10.3606 14.1367H10.1251L9.36926 13.602V13.4338Z" fill="#149CBE"/>
<path d="M9.36926 13.2659L10.5998 14.1371H10.3606L9.36926 13.4342V13.2659Z" fill="#149CBE"/>
<path d="M9.36926 13.0938L10.8391 14.1369H10.5998L9.36926 13.2657V13.0938Z" fill="#149CBE"/>
<path d="M9.36926 12.926L11.0784 14.1374H10.8391L9.36926 13.0942V12.926Z" fill="#149CBE"/>
<path d="M9.36926 12.758L11.3177 14.1377H11.0784L9.36926 12.9262V12.758Z" fill="#149CBE"/>
<path d="M9.36926 12.5861L11.5569 14.1378H11.3177L9.36926 12.7581V12.5861Z" fill="#149CBE"/>
<path d="M9.36926 12.4182L11.7924 14.1381H11.5569L9.36926 12.5864V12.4182Z" fill="#149CBE"/>
<path d="M9.36926 12.2482L12.0317 14.1364H11.7924L9.36926 12.4165V12.2482Z" fill="#149CBE"/>
<path d="M9.36926 12.0764L12.271 14.1365H12.0317L9.36926 12.2483V12.0764Z" fill="#149CBE"/>
<path d="M9.36926 11.9084L12.5103 14.1368H12.271L9.36926 12.0766V11.9084Z" fill="#149CBE"/>
<path d="M9.36926 11.7403L12.7495 14.137H12.5103L9.36926 11.9085V11.7403Z" fill="#149CBE"/>
<path d="M9.36926 11.5684L12.9888 14.1371H12.7495L9.36926 11.7404V11.5684Z" fill="#149CBE"/>
<path d="M9.36926 11.4006L13.2243 14.1375H12.9888L9.36926 11.5688V11.4006Z" fill="#149CBE"/>
<path d="M9.36926 11.2326L13.4636 14.1378H13.2243L9.36926 11.4009V11.2326Z" fill="#149CBE"/>
<path d="M9.36926 11.0607L13.5623 14.0407L13.4902 14.1379H13.4636L9.36926 11.2327V11.0607Z" fill="#149CBE"/>
<path d="M9.36926 10.8908L13.6459 13.9268L13.5623 14.039L9.36926 11.0591V10.8908Z" fill="#149CBE"/>
<path d="M9.36926 10.7228L13.7066 13.8V13.8449L13.6459 13.9271L9.36926 10.8911V10.7228Z" fill="#149CBE"/>
<path d="M9.36926 10.551L13.7066 13.6319V13.8001L9.36926 10.723V10.551Z" fill="#149CBE"/>
<path d="M9.36926 10.3831L13.7066 13.464V13.6323L9.36926 10.5514V10.3831Z" fill="#149CBE"/>
<path d="M9.36926 10.215L13.7066 13.2921V13.4641L9.36926 10.3832V10.215Z" fill="#149CBE"/>
<path d="M9.36926 10.0432L13.7066 13.124V13.2923L9.36926 10.2151V10.0432Z" fill="#149CBE"/>
<path d="M9.36926 9.87518L13.7066 12.9561V13.1243L9.36926 10.0434V9.87518Z" fill="#149CBE"/>
<path d="M9.46421 9.77362L13.7066 12.7835V12.9555L9.36926 9.87457V9.77362H9.46421Z" fill="#149CBE"/>
<path d="M9.70229 9.77362L13.7054 12.6152V12.7835L9.46301 9.77362H9.70229Z" fill="#149CBE"/>
<path d="M9.94375 9.77368L13.7076 12.447V12.6153L9.70447 9.77368H9.94375Z" fill="#149CBE"/>
<path d="M10.1828 9.77362L13.7074 12.275V12.447L9.94348 9.77362H10.1828Z" fill="#149CBE"/>
<path d="M10.4212 9.77368L13.7065 12.1068V12.275L10.1819 9.77368H10.4212Z" fill="#149CBE"/>
<path d="M10.6603 9.77362L13.7063 11.9385V12.1067L10.421 9.77362H10.6603Z" fill="#149CBE"/>
<path d="M10.8967 9.77362L13.7073 11.7665V11.9385L10.6613 9.77362H10.8967Z" fill="#149CBE"/>
<path d="M11.135 9.77368L13.7063 11.5983V11.7665L10.8958 9.77368H11.135Z" fill="#149CBE"/>
<path d="M11.3742 9.77362L13.7062 11.43V11.5982L11.1349 9.77362H11.3742Z" fill="#149CBE"/>
<path d="M11.6144 9.77362L13.7071 11.258V11.43L11.3751 9.77362H11.6144Z" fill="#149CBE"/>
<path d="M11.8535 9.77368L13.707 11.0898V11.258L11.6143 9.77368H11.8535Z" fill="#149CBE"/>
<path d="M12.0919 9.77362L13.7061 10.9215V11.0897L11.8527 9.77362H12.0919Z" fill="#149CBE"/>
<path d="M12.3272 9.77368L13.7058 10.7495V10.9215L12.0917 9.77368H12.3272Z" fill="#149CBE"/>
<path d="M12.5674 9.77368L13.7068 10.5813V10.7495L12.3281 9.77368H12.5674Z" fill="#149CBE"/>
<path d="M12.8058 9.77362L13.7059 10.413V10.5812L12.5665 9.77362H12.8058Z" fill="#149CBE"/>
<path d="M13.0449 9.77368L13.7058 10.241V10.413L12.8057 9.77368H13.0449Z" fill="#149CBE"/>
<path d="M13.2863 9.77362L13.7079 10.0727V10.241L13.047 9.77362H13.2863Z" fill="#149CBE"/>
<path d="M13.5247 9.77368L13.707 9.90454V10.0728L13.2854 9.77368H13.5247Z" fill="#149CBE"/>
<path d="M13.7068 9.90448L13.5245 9.77362H13.7068V9.90448Z" fill="#149CBE"/>
</g>
<mask id="mask2_6_412" style="mask-type:luminance" maskUnits="userSpaceOnUse" x="10" y="3" width="9" height="10">
<path d="M14.4837 3.68998L10.189 9.34766L14.0011 12.152L18.2958 6.49436L14.4837 3.68998Z" fill="white"/>
</mask>
<g mask="url(#mask2_6_412)">
<path d="M10.1892 11.9841L10.4817 12.1898H10.2424L10.1892 12.1524V11.9841Z" fill="#149CBE"/>
<path d="M10.1892 11.8164L10.7209 12.1903H10.4817L10.1892 11.9847V11.8164Z" fill="#149CBE"/>
<path d="M10.1892 11.6445L10.9602 12.1904H10.7209L10.1892 11.8165V11.6445Z" fill="#149CBE"/>
<path d="M10.1892 11.4766L11.1995 12.1907H10.9602L10.1892 11.6448V11.4766Z" fill="#149CBE"/>
<path d="M10.1892 11.3066L11.4388 12.189H11.1995L10.1892 11.4749V11.3066Z" fill="#149CBE"/>
<path d="M10.1892 11.1348L11.6742 12.1891H11.4388L10.1892 11.3068V11.1348Z" fill="#149CBE"/>
<path d="M10.1892 10.9668L11.9135 12.1894H11.6742L10.1892 11.135V10.9668Z" fill="#149CBE"/>
<path d="M10.1892 10.7988L12.1528 12.1897H11.9135L10.1892 10.9671V10.7988Z" fill="#149CBE"/>
<path d="M10.1892 10.627L12.3921 12.1898H12.1528L10.1892 10.7989V10.627Z" fill="#149CBE"/>
<path d="M10.1892 10.459L12.6314 12.1901H12.3921L10.1892 10.6272V10.459Z" fill="#149CBE"/>
<path d="M10.1892 10.291L12.8706 12.1904H12.6314L10.1892 10.4593V10.291Z" fill="#149CBE"/>
<path d="M10.1892 10.1191L13.1061 12.1905H12.8706L10.1892 10.2911V10.1191Z" fill="#149CBE"/>
<path d="M10.1892 9.94922L13.3454 12.1888H13.1061L10.1892 10.1175V9.94922Z" fill="#149CBE"/>
<path d="M10.1892 9.78125L13.5847 12.1891H13.3454L10.1892 9.9495V9.78125Z" fill="#149CBE"/>
<path d="M10.1892 9.60938L13.824 12.1892H13.5847L10.1892 9.78137V9.60938Z" fill="#149CBE"/>
<path d="M10.1892 9.44165L14.0632 12.1898H13.824L10.1892 9.6099V9.44165Z" fill="#149CBE"/>
<path d="M10.1892 9.2735L14.2987 12.1899H14.0632L10.1892 9.44175V9.2735Z" fill="#149CBE"/>
<path d="M10.1892 9.10132L14.538 12.1897H14.2987L10.1892 9.27331V9.10132Z" fill="#149CBE"/>
<path d="M10.1892 8.93359L14.7773 12.1902H14.538L10.1892 9.10185V8.93359Z" fill="#149CBE"/>
<path d="M10.1892 8.76562L15.0165 12.1905H14.7773L10.1892 8.93388V8.76562Z" fill="#149CBE"/>
<path d="M10.1892 8.59375L15.1457 12.1121L15.0887 12.1906H15.0165L10.1892 8.76574V8.59375Z" fill="#149CBE"/>
<path d="M10.1892 8.42383L15.2254 12.002L15.1457 12.1104L10.1892 8.59208V8.42383Z" fill="#149CBE"/>
<path d="M10.1892 8.25586L15.309 11.8901L15.2254 12.0023L10.1892 8.42411V8.25586Z" fill="#149CBE"/>
<path d="M10.1892 8.11061L10.2006 8.09192L15.3888 11.7785L15.309 11.8907L10.1892 8.25643V8.11061Z" fill="#149CBE"/>
<path d="M10.2849 7.98547L10.2026 8.09766L15.3895 11.7817L15.4717 11.6695L10.2849 7.98547Z" fill="#149CBE"/>
<path d="M10.3633 7.8741L10.281 7.98633L15.4679 11.6703L15.5501 11.5581L10.3633 7.8741Z" fill="#149CBE"/>
<path d="M11.9982 10.47L11.9153 10.582L17.096 14.2969L17.1789 14.1848L11.9982 10.47Z" fill="#149CBE"/>
<path d="M10.528 7.65344L10.4458 7.76562L15.6326 11.4496L15.7149 11.3374L10.528 7.65344Z" fill="#149CBE"/>
<path d="M10.611 7.54016L10.5288 7.65234L15.7157 11.3364L15.7979 11.2242L10.611 7.54016Z" fill="#149CBE"/>
<path d="M10.696 7.42492L10.6138 7.53711L15.8006 11.2211L15.8828 11.1089L10.696 7.42492Z" fill="#149CBE"/>
<path d="M10.7761 7.31945L10.6938 7.43164L15.8807 11.1156L15.9629 11.0035L10.7761 7.31945Z" fill="#149CBE"/>
<path d="M12.4115 9.90943L12.3286 10.0215L17.5093 13.7363L17.5922 13.6243L12.4115 9.90943Z" fill="#149CBE"/>
<path d="M10.9394 7.09686L10.8572 7.20905L16.044 10.893L16.1262 10.7809L10.9394 7.09686Z" fill="#149CBE"/>
<path d="M11.0219 6.98352L10.9397 7.0957L16.1266 10.7797L16.2088 10.6675L11.0219 6.98352Z" fill="#149CBE"/>
<path d="M11.1022 6.87219L11.02 6.98438L16.2069 10.6684L16.2891 10.5562L11.1022 6.87219Z" fill="#149CBE"/>
<path d="M11.1823 6.75891L11.1001 6.87109L16.2869 10.5551L16.3692 10.4429L11.1823 6.75891Z" fill="#149CBE"/>
<path d="M11.2634 6.64758L11.1812 6.75977L16.368 10.4438L16.4503 10.3316L11.2634 6.64758Z" fill="#149CBE"/>
<path d="M12.9027 9.23951L12.8198 9.35156L18.0005 13.0664L18.0834 12.9544L12.9027 9.23951Z" fill="#149CBE"/>
<path d="M11.4306 6.42687L11.3484 6.53906L16.5352 10.2231L16.6175 10.1109L11.4306 6.42687Z" fill="#149CBE"/>
<path d="M11.5131 6.31359L11.4309 6.42578L16.6178 10.1098L16.7 9.99759L11.5131 6.31359Z" fill="#149CBE"/>
<path d="M11.5935 6.20227L11.5112 6.31445L16.6981 9.99845L16.7803 9.88626L11.5935 6.20227Z" fill="#149CBE"/>
<path d="M11.6735 6.08898L11.5913 6.20117L16.7782 9.8852L16.8604 9.77301L11.6735 6.08898Z" fill="#149CBE"/>
<path d="M11.7546 5.97766L11.6724 6.08984L16.8592 9.77384L16.9414 9.66165L11.7546 5.97766Z" fill="#149CBE"/>
<path d="M13.3988 8.56763L13.3159 8.67969L18.4966 12.3945L18.5795 12.2825L13.3988 8.56763Z" fill="#149CBE"/>
<path d="M11.9196 5.75891L11.8374 5.87109L17.0243 9.55512L17.1065 9.44293L11.9196 5.75891Z" fill="#149CBE"/>
<path d="M11.9998 5.64581L11.9176 5.758L17.1044 9.44199L17.1867 9.32981L11.9998 5.64581Z" fill="#149CBE"/>
<path d="M12.0798 5.5343L11.9976 5.64648L17.1844 9.33051L17.2667 9.21832L12.0798 5.5343Z" fill="#149CBE"/>
<path d="M12.1628 5.42102L12.0806 5.5332L17.2674 9.2172L17.3496 9.10501L12.1628 5.42102Z" fill="#149CBE"/>
<path d="M13.807 8.00904L13.7241 8.12109L18.9048 11.8359L18.9877 11.7239L13.807 8.00904Z" fill="#149CBE"/>
<path d="M12.3308 5.19836L12.2485 5.31055L17.4354 8.99457L17.5176 8.88238L12.3308 5.19836Z" fill="#149CBE"/>
<path d="M12.4107 5.08886L12.3285 5.20105L17.5153 8.88505L17.5976 8.77286L12.4107 5.08886Z" fill="#149CBE"/>
<path d="M12.4912 4.9757L12.4089 5.08789L17.5958 8.77189L17.678 8.6597L12.4912 4.9757Z" fill="#149CBE"/>
<path d="M12.571 4.86437L12.4888 4.97656L17.6756 8.66056L17.7578 8.54837L12.571 4.86437Z" fill="#149CBE"/>
<path d="M12.654 4.75085L12.5718 4.86304L17.7586 8.54703L17.8408 8.43485L12.654 4.75085Z" fill="#149CBE"/>
<path d="M14.3002 7.33912L14.2173 7.45117L19.398 11.1661L19.4809 11.054L14.3002 7.33912Z" fill="#149CBE"/>
<path d="M12.8171 4.52844L12.7349 4.64062L17.9217 8.32462L18.0039 8.21244L12.8171 4.52844Z" fill="#149CBE"/>
<path d="M12.8974 4.41906L12.8152 4.53125L18.002 8.21525L18.0843 8.10306L12.8974 4.41906Z" fill="#149CBE"/>
<path d="M12.9772 4.30773L12.895 4.41992L18.0819 8.10392L18.1641 7.99173L12.9772 4.30773Z" fill="#149CBE"/>
<path d="M13.0622 4.19836L12.98 4.31055L18.1668 7.99454L18.249 7.88236L13.0622 4.19836Z" fill="#149CBE"/>
<path d="M13.061 4.19225L13.1446 4.08008L18.2986 7.7405V7.81154L18.2492 7.87884L13.061 4.19225Z" fill="#149CBE"/>
<path d="M13.1431 4.07897L13.2228 3.9668L18.297 7.57114V7.73939L13.1431 4.07897Z" fill="#149CBE"/>
<path d="M13.2241 3.9678L13.3077 3.85938L18.2983 7.40389V7.57214L13.2241 3.9678Z" fill="#149CBE"/>
<path d="M13.3064 3.86022L13.3862 3.74805L18.297 7.23274V7.40473L13.3064 3.86022Z" fill="#149CBE"/>
<path d="M13.3872 3.74721L13.4024 3.72852H13.6037L18.2981 7.06365V7.2319L13.3872 3.74721Z" fill="#149CBE"/>
<path d="M13.8413 3.72852L18.2965 6.8954V7.06365L13.6021 3.72852H13.8413Z" fill="#149CBE"/>
<path d="M14.0787 3.72852L18.2984 6.72341V6.8954L13.8433 3.72852H14.0787Z" fill="#149CBE"/>
<path d="M14.3169 3.72852L18.2973 6.55515V6.72341L14.0776 3.72852H14.3169Z" fill="#149CBE"/>
<path d="M14.558 3.72852L18.2991 6.3869V6.55515L14.3187 3.72852H14.558Z" fill="#149CBE"/>
<path d="M14.7964 3.72852L18.2982 6.21491V6.3869L14.5571 3.72852H14.7964Z" fill="#149CBE"/>
<path d="M15.0357 3.72852L18.2982 6.04666V6.21491L14.7964 3.72852H15.0357Z" fill="#149CBE"/>
<path d="M15.2742 3.72852L18.2974 5.87841V6.04666L15.0349 3.72852H15.2742Z" fill="#149CBE"/>
<path d="M15.5114 3.72852L18.2991 5.70642V5.87841L15.2759 3.72852H15.5114Z" fill="#149CBE"/>
<path d="M18.2978 5.70642L15.51 3.72852H18.2978V5.70642Z" fill="#149CBE"/>
</g>
</svg>
