<svg width="17" height="17" viewBox="0 0 17 17" fill="none" xmlns="http://www.w3.org/2000/svg">
<path d="M12.817 0.0486081C12.6083 0.0172718 12.3976 0.00102446 12.1865 0H4.80688C3.78144 0 2.79799 0.401027 2.07289 1.11484C1.3478 1.82864 0.940432 2.79678 0.940432 3.80626V12.5367C0.939932 13.0367 1.0396 13.5318 1.23372 13.9938C1.42785 14.4558 1.71265 14.8757 2.07178 15.2292C2.43091 15.5827 2.85732 15.8631 3.32664 16.0542C3.79597 16.2453 4.29899 16.3434 4.80688 16.3429H12.1865C12.6937 16.3425 13.1959 16.2436 13.6643 16.052C14.1328 15.8605 14.5583 15.58 14.9167 15.2266C15.275 14.8731 15.5591 14.4537 15.7528 13.9921C15.9464 13.5306 16.0458 13.036 16.0453 12.5367V3.79878C16.0451 2.89866 15.7206 2.02777 15.1295 1.34108C14.5383 0.654388 13.7189 0.196414 12.817 0.0486081ZM9.26199 4.80083C9.26234 4.63901 9.31094 4.48084 9.40178 4.34597C9.49261 4.2111 9.62168 4.10545 9.77296 4.04214C9.92423 3.97883 10.091 3.96065 10.2527 3.98983C10.4144 4.01902 10.5638 4.09428 10.6825 4.20631L13.3829 6.76378C13.464 6.84085 13.5284 6.93316 13.5725 7.0353C13.6166 7.13744 13.6393 7.24729 13.6393 7.35826C13.6393 7.46922 13.6166 7.57903 13.5725 7.68117C13.5284 7.78331 13.464 7.87567 13.3829 7.95273L10.6825 10.5102C10.5638 10.6222 10.4144 10.6975 10.2527 10.7267C10.091 10.7559 9.92423 10.7376 9.77296 10.6743C9.62168 10.611 9.49261 10.5054 9.40178 10.3705C9.31094 10.2357 9.26234 10.0775 9.26199 9.91568V4.80083ZM8.12257 5.30932C8.19392 5.30524 8.26537 5.31558 8.33251 5.33967C8.39965 5.36377 8.46106 5.40112 8.513 5.44944C8.56493 5.49777 8.60625 5.55601 8.63447 5.62064C8.66269 5.68528 8.6772 5.75495 8.67708 5.8253V8.92111C8.67813 9.05505 8.62583 9.18408 8.5314 9.28053C8.43698 9.37698 8.30796 9.43318 8.17195 9.43708C7.23763 9.45952 5.25884 9.72871 4.42327 11.486C4.37526 11.5817 4.29809 11.6602 4.20258 11.7106C4.10707 11.761 3.998 11.7808 3.89051 11.7672C3.78302 11.7536 3.68249 11.7073 3.60301 11.6348C3.52354 11.5623 3.46904 11.4671 3.44714 11.3626C2.58878 7.21242 4.84104 5.48131 8.11117 5.30932H8.12257Z" fill="#149CBE"/>
</svg>
