<svg width="18" height="18" viewBox="0 0 18 18" fill="none" xmlns="http://www.w3.org/2000/svg">
<path d="M12.7419 17.4989H6.15149C4.77079 17.4989 3.44655 16.9509 2.46965 15.9752C1.49275 14.9995 0.943089 13.6759 0.941406 12.2952V5.70476C0.943087 4.32516 1.49187 3.00254 2.4674 2.02702C3.44292 1.05149 4.76555 0.502718 6.14515 0.501038H12.7356C14.1155 0.502158 15.4387 1.05068 16.4147 2.02627C17.3906 3.00185 17.9397 4.3248 17.9414 5.70476V12.2952C17.9397 13.674 17.3915 14.996 16.4169 15.9714C15.4423 16.9468 14.1208 17.4961 12.7419 17.4989ZM6.15149 2.6181C5.3321 2.61754 4.54602 2.94235 3.96602 3.52116C3.38603 4.09996 3.05959 4.88537 3.05847 5.70476V12.2952C3.05959 13.1135 3.38515 13.8979 3.96377 14.4766C4.5424 15.0552 5.32685 15.3807 6.14515 15.3818H12.7356C13.5542 15.3813 14.3392 15.056 14.9183 14.4773C15.4974 13.8986 15.8232 13.1138 15.8243 12.2952V5.70476C15.8232 4.88611 15.4974 4.10134 14.9183 3.52266C14.3392 2.94397 13.5542 2.61866 12.7356 2.6181H6.15149Z" fill="white"/>
<path d="M9.30083 3.94959C8.27447 3.94959 7.27116 4.25398 6.4178 4.82424C5.56445 5.3945 4.89937 6.20502 4.5067 7.15329C4.11402 8.10157 4.01138 9.14499 4.21177 10.1516C4.41215 11.1582 4.90657 12.0828 5.63246 12.8084C6.35836 13.534 7.28313 14.028 8.28982 14.228C9.29651 14.428 10.3399 14.3249 11.288 13.9318C12.2361 13.5388 13.0464 12.8734 13.6163 12.0198C14.1862 11.1662 14.4902 10.1627 14.4897 9.13639C14.4897 8.45507 14.3555 7.78042 14.0947 7.15099C13.8339 6.52156 13.4517 5.94969 12.9698 5.46802C12.488 4.98635 11.9159 4.60436 11.2864 4.34382C10.6569 4.08328 9.98215 3.94931 9.30083 3.94959ZM12.1017 10.0086L8.80121 11.914C8.62425 12.0161 8.42352 12.07 8.21918 12.07C8.01485 12.07 7.81409 12.0163 7.63711 11.9142C7.46012 11.812 7.31312 11.6651 7.21088 11.4882C7.10863 11.3113 7.05475 11.1106 7.05463 10.9062V7.09554C7.05475 6.8912 7.10863 6.69049 7.21088 6.51358C7.31312 6.33666 7.46012 6.18977 7.63711 6.08766C7.81409 5.98554 8.01485 5.93179 8.21918 5.93182C8.42352 5.93185 8.62425 5.98567 8.80121 6.08784L12.1017 7.99319C12.2789 8.09505 12.4262 8.24182 12.5286 8.41875C12.6309 8.59568 12.6849 8.79647 12.6849 9.00089C12.6849 9.20531 12.6309 9.40613 12.5286 9.58306C12.4262 9.75998 12.2789 9.90676 12.1017 10.0086Z" fill="white"/>
</svg>
