<svg width="31" height="30" viewBox="0 0 31 30" fill="none" xmlns="http://www.w3.org/2000/svg">
<path d="M22.9429 10.1724H17.9807C17.7444 10.1724 17.5178 10.0785 17.3508 9.91144C17.1837 9.74437 17.0898 9.51778 17.0898 9.28151C17.0898 9.04523 17.1837 8.81862 17.3508 8.65154C17.5178 8.48447 17.7444 8.39062 17.9807 8.39062H22.9429C23.1792 8.39062 23.4058 8.48447 23.5729 8.65154C23.74 8.81862 23.8338 9.04523 23.8338 9.28151C23.8338 9.51778 23.74 9.74437 23.5729 9.91144C23.4058 10.0785 23.1792 10.1724 22.9429 10.1724Z" fill="#149CBE"/>
<path d="M15.1935 10.1724H8.22682C7.99054 10.1724 7.76394 10.0785 7.59687 9.91144C7.4298 9.74437 7.33594 9.51778 7.33594 9.28151C7.33594 9.04523 7.4298 8.81862 7.59687 8.65154C7.76394 8.48447 7.99054 8.39062 8.22682 8.39062H15.1935C15.4298 8.39062 15.6564 8.48447 15.8235 8.65154C15.9905 8.81862 16.0844 9.04523 16.0844 9.28151C16.0844 9.51778 15.9905 9.74437 15.8235 9.91144C15.6564 10.0785 15.4298 10.1724 15.1935 10.1724Z" fill="#149CBE"/>
<path d="M17.7737 12.3385C17.5374 12.3385 17.3108 12.2446 17.1437 12.0776C16.9767 11.9105 16.8828 11.6839 16.8828 11.4476V7.08229C16.8828 6.84601 16.9767 6.61943 17.1437 6.45235C17.3108 6.28528 17.5374 6.19141 17.7737 6.19141C18.01 6.19141 18.2366 6.28528 18.4036 6.45235C18.5707 6.61943 18.6646 6.84601 18.6646 7.08229V11.4476C18.6646 11.6839 18.5707 11.9105 18.4036 12.0776C18.2366 12.2446 18.01 12.3385 17.7737 12.3385Z" fill="#149CBE"/>
<path d="M22.9429 20.731H17.9807C17.7444 20.731 17.5178 20.6371 17.3508 20.47C17.1837 20.303 17.0898 20.0764 17.0898 19.8401C17.0898 19.6038 17.1837 19.3772 17.3508 19.2101C17.5178 19.0431 17.7444 18.9492 17.9807 18.9492H22.9429C23.1792 18.9492 23.4058 19.0431 23.5729 19.2101C23.74 19.3772 23.8338 19.6038 23.8338 19.8401C23.8338 20.0764 23.74 20.303 23.5729 20.47C23.4058 20.6371 23.1792 20.731 22.9429 20.731Z" fill="#149CBE"/>
<path d="M15.1935 20.731H8.22682C7.99054 20.731 7.76394 20.6371 7.59687 20.47C7.4298 20.303 7.33594 20.0764 7.33594 19.8401C7.33594 19.6038 7.4298 19.3772 7.59687 19.2101C7.76394 19.0431 7.99054 18.9492 8.22682 18.9492H15.1935C15.4298 18.9492 15.6564 19.0431 15.8235 19.2101C15.9905 19.3772 16.0844 19.6038 16.0844 19.8401C16.0844 20.0764 15.9905 20.303 15.8235 20.47C15.6564 20.6371 15.4298 20.731 15.1935 20.731Z" fill="#149CBE"/>
<path d="M17.7737 22.8971C17.5374 22.8971 17.3108 22.8032 17.1437 22.6361C16.9767 22.4691 16.8828 22.2425 16.8828 22.0062V17.6409C16.8828 17.4046 16.9767 17.178 17.1437 17.0109C17.3108 16.8438 17.5374 16.75 17.7737 16.75C18.01 16.75 18.2366 16.8438 18.4036 17.0109C18.5707 17.178 18.6646 17.4046 18.6646 17.6409V22.0062C18.6646 22.2425 18.5707 22.4691 18.4036 22.6361C18.2366 22.8032 18.01 22.8971 17.7737 22.8971Z" fill="#149CBE"/>
<path d="M11.7102 15.4732H8.22682C7.99054 15.4732 7.76394 15.3793 7.59687 15.2122C7.4298 15.0452 7.33594 14.8186 7.33594 14.5823C7.33594 14.346 7.4298 14.1194 7.59687 13.9523C7.76394 13.7853 7.99054 13.6914 8.22682 13.6914H11.7102C11.9464 13.6914 12.173 13.7853 12.3401 13.9523C12.5072 14.1194 12.6011 14.346 12.6011 14.5823C12.6011 14.8186 12.5072 15.0452 12.3401 15.2122C12.173 15.3793 11.9464 15.4732 11.7102 15.4732Z" fill="#149CBE"/>
<path d="M22.9451 15.4732H14.4104C14.1741 15.4732 13.9475 15.3793 13.7805 15.2122C13.6134 15.0452 13.5195 14.8186 13.5195 14.5823C13.5195 14.346 13.6134 14.1194 13.7805 13.9523C13.9475 13.7853 14.1741 13.6914 14.4104 13.6914H22.9451C23.1813 13.6914 23.4079 13.7853 23.575 13.9523C23.7421 14.1194 23.8359 14.346 23.8359 14.5823C23.8359 14.8186 23.7421 15.0452 23.575 15.2122C23.4079 15.3793 23.1813 15.4732 22.9451 15.4732Z" fill="#149CBE"/>
<path d="M11.8245 17.6377C11.5882 17.6377 11.3616 17.5438 11.1945 17.3768C11.0275 17.2097 10.9336 16.9831 10.9336 16.7468V12.426C10.9336 12.1898 11.0275 11.9632 11.1945 11.7961C11.3616 11.629 11.5882 11.5352 11.8245 11.5352C12.0608 11.5352 12.2873 11.629 12.4544 11.7961C12.6215 11.9632 12.7154 12.1898 12.7154 12.426V16.7914C12.7039 17.0198 12.605 17.2352 12.4392 17.3927C12.2733 17.5503 12.0532 17.638 11.8245 17.6377Z" fill="#149CBE"/>
<path d="M15.5846 29.4347C12.6734 29.4347 9.82756 28.5714 7.40711 26.9538C4.98666 25.3362 3.10029 23.0372 1.98663 20.3474C0.872968 17.6576 0.582043 14.698 1.15064 11.8429C1.71923 8.98773 3.12181 6.36539 5.18096 4.30748C7.24012 2.24957 9.86333 0.848576 12.7188 0.281709C15.5743 -0.285157 18.5337 0.00757588 21.2228 1.12286C23.9119 2.23815 26.2098 4.1259 27.8259 6.54733C29.442 8.96876 30.3037 11.8151 30.3019 14.7263C30.2972 18.6273 28.7448 22.3671 25.9856 25.1247C23.2263 27.8823 19.4856 29.4324 15.5846 29.4347ZM15.5846 1.8174C13.0261 1.8174 10.5252 2.57605 8.39792 3.99743C6.27067 5.41882 4.61269 7.43909 3.63362 9.80276C2.65456 12.1664 2.39838 14.7674 2.89751 17.2766C3.39663 19.7859 4.62863 22.0908 6.43771 23.8999C8.24678 25.7089 10.5517 26.9409 13.061 27.4401C15.5702 27.9392 18.1711 27.683 20.5348 26.7039C22.8985 25.7249 24.9187 24.0669 26.3401 21.9396C27.7615 19.8124 28.5202 17.3114 28.5202 14.753C28.5225 13.0523 28.1897 11.3679 27.5408 9.79594C26.8919 8.22396 25.9396 6.79527 24.7383 5.59149C23.537 4.38771 22.1102 3.43243 20.5396 2.78027C18.969 2.12811 17.2852 1.79184 15.5846 1.79067V1.8174Z" fill="#149CBE"/>
</svg>
