<svg width="38" height="36" viewBox="0 0 38 36" fill="none" xmlns="http://www.w3.org/2000/svg">
<g opacity="0.51">
<path d="M6.86269 9.00411L1.27538 19.0612C0.877889 19.7881 0.771581 20.639 0.977916 21.4414C1.18425 22.2438 1.68784 22.9378 2.38669 23.3829L13.9934 30.742C14.3754 30.9849 14.8234 31.1032 15.2755 31.0806C15.7277 31.0579 16.1616 30.8954 16.5174 30.6155C16.8732 30.3356 17.1333 29.9521 17.2618 29.5181C17.3903 29.084 17.3808 28.6207 17.2346 28.1922L10.8448 9.35602C10.7083 8.95517 10.4582 8.60258 10.1251 8.34117C9.79198 8.07975 9.39008 7.92076 8.96828 7.88349C8.54647 7.84621 8.12293 7.93227 7.74912 8.13121C7.37531 8.33015 7.06737 8.63341 6.86269 9.00411Z" fill="url(#paint0_linear_45_61409)"/>
</g>
<g opacity="0.51">
<path d="M31.1019 9.00755L36.6583 19.0461C37.0558 19.773 37.1621 20.6239 36.9558 21.4263C36.7495 22.2287 36.2459 22.9227 35.547 23.3678L23.9403 30.7269C23.5583 30.9699 23.1103 31.0881 22.6582 31.0655C22.2061 31.0428 21.7721 30.8803 21.4163 30.6004C21.0605 30.3205 20.8004 29.937 20.6719 29.503C20.5434 29.0689 20.5529 28.6056 20.699 28.1772L27.089 9.34092C27.2228 8.93257 27.474 8.57275 27.8112 8.3064C28.1484 8.04006 28.5567 7.87902 28.9849 7.84344C29.4131 7.80787 29.8424 7.8993 30.2189 8.10635C30.5954 8.3134 30.9026 8.62688 31.1019 9.00755Z" fill="url(#paint1_linear_45_61409)"/>
</g>
<path d="M27.9529 28.3253L22.9707 31.5666C21.7947 32.373 20.4022 32.8046 18.9762 32.8046C17.5503 32.8046 16.1578 32.373 14.9818 31.5666L10.0428 28.3315C8.30795 27.1955 7.77699 24.0839 8.95001 21.9601L15.9449 9.32236C16.7228 7.91474 17.8711 7.21094 19.0318 7.21094C20.1925 7.21094 21.3223 7.91474 22.1187 9.32236L29.1136 21.9601C30.2187 24.0839 29.6877 27.1955 27.9529 28.3253Z" fill="white"/>
<path d="M18.9564 7.2117C20.0985 7.2117 21.2468 7.91551 22.0432 9.32313L29.0381 21.9609C30.2112 24.0847 29.6556 27.1963 27.9454 28.3323L22.9631 31.5735C21.7872 32.38 20.3946 32.8115 18.9687 32.8115C17.5428 32.8115 16.1503 32.38 14.9743 31.5735L10.0353 28.3384C8.30042 27.2025 7.76946 24.0909 8.94248 21.9671L15.9374 9.32931C16.7153 7.92169 17.8636 7.21788 19.0243 7.21788M19.0243 4.74837C17.9288 4.78919 16.8646 5.1251 15.9442 5.7206C15.0238 6.31609 14.2813 7.14906 13.7951 8.13159L6.80019 20.7755C4.98509 24.0538 5.8741 28.5545 8.70787 30.4067L13.6469 33.6417C15.224 34.7103 17.0853 35.2815 18.9903 35.2815C20.8954 35.2815 22.7566 34.7103 24.3337 33.6417L29.316 30.4005C32.1498 28.5483 33.0203 24.0477 31.2237 20.7694L24.2288 8.12545C23.7426 7.14292 23.0001 6.30991 22.0796 5.71442C21.1592 5.11892 20.095 4.78301 18.9995 4.74219L19.0243 4.74837Z" fill="url(#paint2_linear_45_61409)"/>
<g opacity="0.51">
<path d="M6.75706 5.67989C6.21285 5.1353 5.8743 4.41886 5.79911 3.65264C5.72393 2.88643 5.91677 2.11786 6.34475 1.47787C6.77272 0.83789 7.40933 0.366115 8.14616 0.142918C8.883 -0.0802793 9.67443 -0.0411048 10.3856 0.253816C11.0968 0.548736 11.6837 1.08115 12.0463 1.7603C12.4089 2.43944 12.5249 3.22329 12.3744 3.97833C12.2238 4.73336 11.8161 5.41283 11.2208 5.90097C10.6254 6.3891 9.87921 6.65573 9.10931 6.65536C8.67234 6.65548 8.2396 6.56937 7.83597 6.40198C7.43233 6.2346 7.0657 5.98921 6.75706 5.67989Z" fill="url(#paint3_linear_45_61409)"/>
</g>
<g opacity="0.51">
<path d="M27.9529 28.3253L22.9707 31.5666C21.79 32.3581 20.4038 32.7873 18.9824 32.8013V7.21094C20.1246 7.21094 21.2729 7.91474 22.0693 9.32236L29.0642 21.9601C30.2187 24.0839 29.6877 27.1955 27.9529 28.3253Z" fill="url(#paint4_linear_45_61409)"/>
</g>
<defs>
<linearGradient id="paint0_linear_45_61409" x1="0.86176" y1="19.4934" x2="17.3581" y2="19.4934" gradientUnits="userSpaceOnUse">
<stop stop-color="#FF6E11"/>
<stop offset="0.24" stop-color="#FF7311"/>
<stop offset="0.54" stop-color="#FF8211"/>
<stop offset="0.85" stop-color="#FF9A11"/>
<stop offset="1" stop-color="#FFA811"/>
</linearGradient>
<linearGradient id="paint1_linear_45_61409" x1="20.6064" y1="19.4968" x2="37.1028" y2="19.4968" gradientUnits="userSpaceOnUse">
<stop stop-color="#FF6E11"/>
<stop offset="0.24" stop-color="#FF7311"/>
<stop offset="0.54" stop-color="#FF8211"/>
<stop offset="0.85" stop-color="#FF9A11"/>
<stop offset="1" stop-color="#FFA811"/>
</linearGradient>
<linearGradient id="paint2_linear_45_61409" x1="5.81238" y1="20.01" x2="32.1498" y2="20.01" gradientUnits="userSpaceOnUse">
<stop stop-color="#FF6E11"/>
<stop offset="0.24" stop-color="#FF7311"/>
<stop offset="0.54" stop-color="#FF8211"/>
<stop offset="0.85" stop-color="#FF9A11"/>
<stop offset="1" stop-color="#FFA811"/>
</linearGradient>
<linearGradient id="paint3_linear_45_61409" x1="5.7816" y1="3.32768" x2="12.437" y2="3.32768" gradientUnits="userSpaceOnUse">
<stop stop-color="#FF6E11"/>
<stop offset="0.24" stop-color="#FF7311"/>
<stop offset="0.54" stop-color="#FF8211"/>
<stop offset="0.85" stop-color="#FF9A11"/>
<stop offset="1" stop-color="#FFA811"/>
</linearGradient>
<linearGradient id="paint4_linear_45_61409" x1="18.9824" y1="20.0092" x2="29.6754" y2="20.0092" gradientUnits="userSpaceOnUse">
<stop stop-color="#FF6E11"/>
<stop offset="0.24" stop-color="#FF7311"/>
<stop offset="0.54" stop-color="#FF8211"/>
<stop offset="0.85" stop-color="#FF9A11"/>
<stop offset="1" stop-color="#FFA811"/>
</linearGradient>
</defs>
</svg>
