<svg width="26" height="26" viewBox="0 0 26 26" fill="none" xmlns="http://www.w3.org/2000/svg">
<circle cx="13" cy="13" r="13" fill="#149CBE"/>
<path d="M5 10.2036C5 9.29343 5.73788 8.55556 6.64809 8.55556V8.55556C7.27234 8.55556 7.84301 8.20286 8.12219 7.64451L8.85185 6.18518C8.94959 5.9897 8.99846 5.89196 9.05388 5.80695C9.34302 5.36339 9.81483 5.0718 10.3409 5.01155C10.4417 5 10.551 5 10.7695 5H15.2305C15.449 5 15.5583 5 15.6591 5.01155C16.1852 5.0718 16.657 5.36339 16.9461 5.80695C17.0015 5.89196 17.0504 5.9897 17.1481 6.18519L17.8778 7.64451C18.157 8.20286 18.7277 8.55556 19.3519 8.55556V8.55556C20.2621 8.55556 21 9.29343 21 10.2036V14.6508C21 16.4328 21 17.3238 20.5913 17.9743C20.3781 18.3135 20.0913 18.6003 19.7521 18.8135C19.1016 19.2222 18.2106 19.2222 16.4286 19.2222H9.57143C7.78942 19.2222 6.89841 19.2222 6.24792 18.8135C5.9087 18.6003 5.62188 18.3135 5.40874 17.9743C5 17.3238 5 16.4328 5 14.6508V10.2036Z" stroke="white" stroke-width="1.77778"/>
<circle cx="13.0009" cy="12.9999" r="2.66667" stroke="white" stroke-width="1.77778"/>
</svg>
