<svg width="26" height="26" viewBox="0 0 26 26" fill="none" xmlns="http://www.w3.org/2000/svg">
<path d="M12.7979 0.916504C19.363 0.916568 24.6854 6.23881 24.6855 12.8042C24.6855 19.3697 19.3631 24.6918 12.7979 24.6919C6.23256 24.6919 0.910156 19.3697 0.910156 12.8042C0.910293 6.23877 6.23264 0.916504 12.7979 0.916504Z" fill="#149CBE"/>
<path d="M12.7979 0.916504C19.363 0.916568 24.6854 6.23881 24.6855 12.8042C24.6855 19.3697 19.3631 24.6918 12.7979 24.6919C6.23256 24.6919 0.910156 19.3697 0.910156 12.8042C0.910293 6.23877 6.23264 0.916504 12.7979 0.916504Z" stroke="#FFA411" stroke-width="1.82035"/>
<path d="M12.7979 0.916504C19.363 0.916568 24.6854 6.23881 24.6855 12.8042C24.6855 19.3697 19.3631 24.6918 12.7979 24.6919C6.23256 24.6919 0.910156 19.3697 0.910156 12.8042C0.910293 6.23877 6.23264 0.916504 12.7979 0.916504Z" stroke="#D4D4D4" stroke-width="1.82035"/>
<path d="M12.7979 0.911621C19.363 0.911686 24.6854 6.23392 24.6855 12.7993C24.6855 19.3648 19.3631 24.6869 12.7979 24.687C6.23256 24.687 0.910156 19.3649 0.910156 12.7993C0.910293 6.23389 6.23264 0.911621 12.7979 0.911621Z" fill="#149CBE"/>
<path d="M12.7979 0.911621C19.363 0.911686 24.6854 6.23392 24.6855 12.7993C24.6855 19.3648 19.3631 24.6869 12.7979 24.687C6.23256 24.687 0.910156 19.3649 0.910156 12.7993C0.910293 6.23389 6.23264 0.911621 12.7979 0.911621Z" stroke="#FFA411" stroke-width="1.82035"/>
<path d="M12.7979 0.911621C19.363 0.911686 24.6854 6.23392 24.6855 12.7993C24.6855 19.3648 19.3631 24.6869 12.7979 24.687C6.23256 24.687 0.910156 19.3649 0.910156 12.7993C0.910293 6.23389 6.23264 0.911621 12.7979 0.911621Z" stroke="#FFA411" stroke-width="1.82035"/>
<ellipse cx="12.7998" cy="12.8037" rx="7.9224" ry="7.92264" fill="#FFA411"/>
<ellipse cx="12.7977" cy="12.7981" rx="12.7977" ry="12.7981" fill="#149CBE"/>
<path d="M7.31201 11.9448L12.1112 17.0641L18.2815 8.53198" stroke="white" stroke-width="3" stroke-linecap="round" stroke-linejoin="round"/>
</svg>
