<svg width="21" height="18" viewBox="0 0 21 18" fill="none" xmlns="http://www.w3.org/2000/svg">
<path d="M20.4034 10.4117C20.4034 10.9027 20.3052 11.3889 20.1143 11.8425C19.9234 12.2961 19.6437 12.7083 19.291 13.0555C18.9383 13.4027 18.5196 13.6781 18.0588 13.866C17.598 14.0539 17.1041 14.1506 16.6054 14.1506H15.5457C15.5706 13.802 15.5165 13.4521 15.3873 13.1265C15.2581 12.801 15.0571 12.5077 14.7986 12.268C14.5402 12.0283 14.2309 11.8481 13.8931 11.7404C13.5553 11.6328 13.1974 11.6003 12.8453 11.6455V8.51604C12.8453 7.89131 12.5932 7.29219 12.1445 6.85045C11.6957 6.4087 11.0871 6.16049 10.4525 6.16049C9.81787 6.16049 9.20929 6.4087 8.76055 6.85045C8.31182 7.29219 8.05973 7.89131 8.05973 8.51604V11.6455C7.70753 11.5988 7.34916 11.6302 7.01086 11.7374C6.67256 11.8445 6.36288 12.0247 6.10442 12.2648C5.84595 12.5049 5.64525 12.7989 5.517 13.1252C5.38874 13.4514 5.33617 13.8018 5.36312 14.1506H4.29964C3.38106 14.1315 2.50068 13.7852 1.82163 13.1759C1.14258 12.5666 0.710909 11.7356 0.606597 10.837C0.502285 9.93835 0.732413 9.03299 1.25433 8.28861C1.77626 7.54422 2.55457 7.01131 3.44508 6.78865C3.19327 6.22067 3.08882 5.59996 3.14112 4.98239C3.19343 4.36482 3.40085 3.76975 3.74472 3.25067C4.0886 2.73158 4.55815 2.30476 5.11113 2.00863C5.66412 1.71249 6.2832 1.55631 6.91271 1.55413C7.86381 1.55332 8.77988 1.90738 9.4764 2.54496C10.0933 1.56852 11.0647 0.859947 12.1933 0.563302C13.3218 0.266656 14.5227 0.404179 15.5519 0.947922C16.5812 1.49166 17.3615 2.40083 17.7342 3.4906C18.107 4.58037 18.0442 5.76896 17.5587 6.8148C18.3693 7.02171 19.0878 7.48662 19.6023 8.13712C20.1167 8.78763 20.3984 9.5873 20.4034 10.4117Z" fill="white"/>
<path d="M14.0769 13.1323C13.9651 13.0134 13.8306 12.9175 13.6811 12.8499C13.5315 12.7823 13.3698 12.7445 13.2054 12.7386C13.0409 12.7327 12.8769 12.7588 12.7227 12.8155C12.5686 12.8722 12.4273 12.9582 12.307 13.0688L11.7069 13.6147V8.50726C11.7069 8.18002 11.5749 7.86622 11.3398 7.63483C11.1048 7.40343 10.786 7.27344 10.4535 7.27344C10.1211 7.27344 9.80236 7.40343 9.56731 7.63483C9.33226 7.86622 9.20021 8.18002 9.20021 8.50726V13.6147L8.60009 13.0688C8.48116 12.9508 8.33926 12.8577 8.18287 12.795C8.02647 12.7323 7.85881 12.7014 7.68998 12.7041C7.52115 12.7068 7.35463 12.7431 7.20039 12.8107C7.04614 12.8784 6.90736 12.976 6.79239 13.0977C6.67743 13.2195 6.58866 13.3629 6.53137 13.5192C6.47408 13.6756 6.44948 13.8417 6.45904 14.0077C6.4686 14.1736 6.51213 14.336 6.587 14.485C6.66188 14.6339 6.76655 14.7665 6.89476 14.8747L9.59898 17.3536C9.59898 17.3536 9.64457 17.3835 9.66356 17.4022L9.7395 17.4658L9.77752 17.4882L9.87247 17.5368C9.89822 17.5532 9.92483 17.5681 9.95222 17.5817H9.99399C10.0287 17.5951 10.0642 17.6064 10.1003 17.6153L10.1839 17.6378H10.2295H10.3358H10.4308H10.4764H10.5713H10.6777H10.7232L10.8068 17.6153C10.8429 17.6064 10.8785 17.5951 10.9131 17.5817H10.9549L11.0347 17.5368L11.1296 17.4882L11.1676 17.4658L11.2436 17.4022C11.2436 17.4022 11.2891 17.3723 11.3081 17.3536L14.0123 14.8747C14.1331 14.7647 14.2306 14.6322 14.2993 14.485C14.3679 14.3378 14.4063 14.1786 14.4123 14.0167C14.4183 13.8548 14.3918 13.6934 14.3342 13.5416C14.2767 13.3898 14.1892 13.2507 14.0769 13.1323Z" fill="white"/>
</svg>
