<svg width="35" height="29" viewBox="0 0 35 29" fill="none" xmlns="http://www.w3.org/2000/svg">
<g opacity="0.57">
<path d="M34.7096 14.2454C34.7096 9.84694 31.144 6.28125 26.7454 6.28125C22.3469 6.28125 18.7812 9.84694 18.7812 14.2454C18.7812 18.6439 22.3469 22.2096 26.7454 22.2096C31.144 22.2096 34.7096 18.6439 34.7096 14.2454Z" fill="url(#paint0_linear_45_61431)"/>
</g>
<path d="M22.9123 14.7505C23.7409 14.7505 24.4126 14.0788 24.4126 13.2502C24.4126 12.4217 23.7409 11.75 22.9123 11.75C22.0838 11.75 21.4121 12.4217 21.4121 13.2502C21.4121 14.0788 22.0838 14.7505 22.9123 14.7505Z" fill="white"/>
<path d="M30.5354 14.7505C31.3639 14.7505 32.0356 14.0788 32.0356 13.2502C32.0356 12.4217 31.3639 11.75 30.5354 11.75C29.7068 11.75 29.0352 12.4217 29.0352 13.2502C29.0352 14.0788 29.7068 14.7505 30.5354 14.7505Z" fill="white"/>
<path d="M29.2033 16.0391C29.2839 16.039 29.3634 16.0571 29.436 16.0919C29.5087 16.1267 29.5725 16.1774 29.6229 16.2402C29.6733 16.3031 29.709 16.3764 29.7272 16.4549C29.7454 16.5334 29.7457 16.6149 29.7281 16.6935C29.563 17.3638 29.1781 17.9594 28.6348 18.3852C28.0914 18.811 27.421 19.0424 26.7307 19.0424C26.0404 19.0424 25.37 18.811 24.8266 18.3852C24.2833 17.9594 23.8984 17.3638 23.7333 16.6935C23.7145 16.6148 23.7139 16.5328 23.7316 16.4539C23.7493 16.3749 23.7848 16.301 23.8355 16.2379C23.8861 16.1747 23.9505 16.124 24.0238 16.0895C24.097 16.0551 24.1772 16.0378 24.2581 16.0391H29.2033Z" fill="white"/>
<path d="M17.7132 1.98892C20.6699 1.98006 23.5266 3.05898 25.7391 5.02024C25.9211 5.18306 26.1555 5.27511 26.3997 5.27956C26.6014 5.2804 26.7985 5.21988 26.9649 5.10604C27.1314 4.9922 27.2593 4.83041 27.3316 4.64218C27.404 4.45394 27.4174 4.24817 27.37 4.05215C27.3226 3.85614 27.2167 3.67917 27.0664 3.54473C24.4968 1.26128 21.1786 0 17.7409 0C14.3033 0 10.9851 1.26128 8.41544 3.54473C8.26553 3.67882 8.15986 3.85522 8.11232 4.05065C8.06479 4.24608 8.0776 4.45131 8.14918 4.63928C8.22075 4.82724 8.3477 4.98909 8.51318 5.1034C8.67867 5.21772 8.87495 5.27915 9.07607 5.27956C9.32226 5.27603 9.55892 5.18396 9.74282 5.02024C11.9411 3.07169 14.7757 1.99366 17.7132 1.98892ZM17.7132 26.1532C14.7565 26.162 11.8999 25.0831 9.68727 23.1218C9.5049 22.9556 9.26719 22.8632 9.02046 22.8625C8.81919 22.861 8.62233 22.9211 8.45613 23.0346C8.28993 23.1481 8.16231 23.3097 8.09047 23.4977C8.01862 23.6857 8.00592 23.8911 8.05407 24.0866C8.10221 24.282 8.20894 24.458 8.35989 24.5912C10.9296 26.8746 14.2477 28.1359 17.6854 28.1359C21.123 28.1359 24.4412 26.8746 27.0109 24.5912C27.1589 24.4563 27.2628 24.2798 27.3088 24.0849C27.3548 23.8899 27.3409 23.6856 27.2688 23.4988C27.1967 23.3119 27.0699 23.1512 26.9049 23.0377C26.7399 22.9241 26.5444 22.8631 26.3442 22.8625C26.0994 22.8641 25.864 22.9565 25.6835 23.1218C23.4843 25.0681 20.6499 26.1439 17.7132 26.147V26.1532Z" fill="url(#paint1_linear_45_61431)"/>
<path d="M10.8043 23.4662C8.98051 23.4698 7.19657 22.9324 5.67833 21.9218C4.16009 20.9112 2.97585 19.4729 2.27536 17.7889C1.57487 16.105 1.38965 14.2511 1.74321 12.4619C2.09678 10.6726 2.97322 9.02847 4.26157 7.73753C5.54991 6.44659 7.19225 5.56688 8.98076 5.20972C10.7693 4.85256 12.6235 5.03402 14.3089 5.73113C15.9943 6.42823 17.4349 7.60964 18.4486 9.12584C19.4622 10.642 20.0033 12.4249 20.0033 14.2487C19.992 16.6866 19.0198 19.0218 17.2976 20.7474C15.5754 22.473 13.2422 23.4499 10.8043 23.4662Z" fill="white"/>
<path d="M10.8047 6.26641C12.3833 6.26763 13.926 6.73685 15.238 7.61474C16.5499 8.49263 17.5721 9.73979 18.1754 11.1985C18.7786 12.6573 18.9359 14.2622 18.6272 15.8103C18.3185 17.3584 17.5577 18.7801 16.441 19.8959C15.3244 21.0117 13.902 21.7714 12.3537 22.0789C10.8053 22.3864 9.2006 22.228 7.74231 21.6236C6.28402 21.0192 5.03761 19.9961 4.16073 18.6834C3.28385 17.3708 2.81586 15.8277 2.81586 14.2491C2.81586 13.2003 3.02249 12.1618 3.42405 11.1929C3.8256 10.2239 4.41421 9.34365 5.15613 8.60231C5.89805 7.86096 6.77874 7.2731 7.74796 6.87229C8.71719 6.47149 9.75589 6.2656 10.8047 6.26641ZM10.8047 3.79689C8.73667 3.79323 6.71404 4.40312 4.99274 5.5494C3.27145 6.69567 1.9289 8.32681 1.13495 10.2364C0.341006 12.1459 0.131362 14.2481 0.53257 16.2769C0.933778 18.3056 1.92775 20.1698 3.38878 21.6334C4.84981 23.097 6.71224 24.0943 8.74028 24.4991C10.7683 24.9039 12.8708 24.6981 14.7818 23.9075C16.6928 23.1169 18.3263 21.7773 19.4756 20.058C20.6249 18.3387 21.2384 16.3172 21.2384 14.2491C21.2271 11.4805 20.1222 8.82858 18.1645 6.87086C16.2068 4.91315 13.5548 3.80827 10.7862 3.79689H10.8047Z" fill="url(#paint2_linear_45_61431)"/>
<path d="M7.22967 14.6859C8.17416 14.6859 8.93981 13.9203 8.93981 12.9758C8.93981 12.0313 8.17416 11.2656 7.22967 11.2656C6.28519 11.2656 5.51953 12.0313 5.51953 12.9758C5.51953 13.9203 6.28519 14.6859 7.22967 14.6859Z" fill="url(#paint3_linear_45_61431)"/>
<path d="M14.3234 14.6859C15.2679 14.6859 16.0336 13.9203 16.0336 12.9758C16.0336 12.0313 15.2679 11.2656 14.3234 11.2656C13.3789 11.2656 12.6133 12.0313 12.6133 12.9758C12.6133 13.9203 13.3789 14.6859 14.3234 14.6859Z" fill="url(#paint4_linear_45_61431)"/>
<path d="M13.1257 16.7188C13.0826 17.3116 12.8167 17.8661 12.3815 18.2709C11.9463 18.6756 11.374 18.9007 10.7797 18.9007C10.1853 18.9007 9.61296 18.6756 9.17773 18.2709C8.74251 17.8661 8.47663 17.3116 8.43359 16.7188H13.1257Z" fill="url(#paint5_linear_45_61431)"/>
<defs>
<linearGradient id="paint0_linear_45_61431" x1="18.7812" y1="14.2454" x2="34.7158" y2="14.2454" gradientUnits="userSpaceOnUse">
<stop stop-color="#FF6E11"/>
<stop offset="0.24" stop-color="#FF7311"/>
<stop offset="0.54" stop-color="#FF8211"/>
<stop offset="0.85" stop-color="#FF9A11"/>
<stop offset="1" stop-color="#FFA811"/>
</linearGradient>
<linearGradient id="paint1_linear_45_61431" x1="6.5571" y1="14.0649" x2="25.2143" y2="14.0649" gradientUnits="userSpaceOnUse">
<stop stop-color="#FF6E11"/>
<stop offset="0.24" stop-color="#FF7311"/>
<stop offset="0.54" stop-color="#FF8211"/>
<stop offset="0.85" stop-color="#FF9A11"/>
<stop offset="1" stop-color="#FFA811"/>
</linearGradient>
<linearGradient id="paint2_linear_45_61431" x1="0.346337" y1="14.2491" x2="21.257" y2="14.2491" gradientUnits="userSpaceOnUse">
<stop stop-color="#FF6E11"/>
<stop offset="0.24" stop-color="#FF7311"/>
<stop offset="0.54" stop-color="#FF8211"/>
<stop offset="0.85" stop-color="#FF9A11"/>
<stop offset="1" stop-color="#FFA811"/>
</linearGradient>
<linearGradient id="paint3_linear_45_61431" x1="5.51953" y1="12.9758" x2="8.93981" y2="12.9758" gradientUnits="userSpaceOnUse">
<stop stop-color="#FF6E11"/>
<stop offset="0.24" stop-color="#FF7311"/>
<stop offset="0.54" stop-color="#FF8211"/>
<stop offset="0.85" stop-color="#FF9A11"/>
<stop offset="1" stop-color="#FFA811"/>
</linearGradient>
<linearGradient id="paint4_linear_45_61431" x1="12.6133" y1="12.9758" x2="16.0336" y2="12.9758" gradientUnits="userSpaceOnUse">
<stop stop-color="#FF6E11"/>
<stop offset="0.24" stop-color="#FF7311"/>
<stop offset="0.54" stop-color="#FF8211"/>
<stop offset="0.85" stop-color="#FF9A11"/>
<stop offset="1" stop-color="#FFA811"/>
</linearGradient>
<linearGradient id="paint5_linear_45_61431" x1="8.43359" y1="17.83" x2="13.1257" y2="17.83" gradientUnits="userSpaceOnUse">
<stop stop-color="#FF6E11"/>
<stop offset="0.24" stop-color="#FF7311"/>
<stop offset="0.54" stop-color="#FF8211"/>
<stop offset="0.85" stop-color="#FF9A11"/>
<stop offset="1" stop-color="#FFA811"/>
</linearGradient>
</defs>
</svg>
