<svg width="25" height="25" viewBox="0 0 25 25" fill="none" xmlns="http://www.w3.org/2000/svg">
<circle cx="12.3171" cy="12.3171" r="12.3171" fill="white"/>
<path d="M3.78906 9.33565C3.78906 8.36545 4.57557 7.57894 5.54577 7.57894C6.21116 7.57894 6.81944 7.203 7.11701 6.60786L7.89477 5.05236C8.05525 4.7314 8.13549 4.57092 8.23795 4.43921C8.48609 4.12023 8.84065 3.9011 9.23692 3.82181C9.40055 3.78906 9.57997 3.78906 9.93882 3.78906H14.6938C15.0526 3.78906 15.232 3.78906 15.3957 3.82181C15.7919 3.9011 16.1465 4.12023 16.3946 4.43921C16.4971 4.57092 16.5773 4.7314 16.7378 5.05236L17.5156 6.60786C17.8131 7.203 18.4214 7.57894 19.0868 7.57894C20.057 7.57894 20.8435 8.36545 20.8435 9.33565V14.0759C20.8435 16.2829 20.8435 17.3864 20.2009 18.1056C20.1379 18.1761 20.071 18.2429 20.0005 18.3059C19.2814 18.9486 18.1779 18.9486 15.9708 18.9486H8.66177C6.45472 18.9486 5.3512 18.9486 4.63207 18.3059C4.56159 18.2429 4.4947 18.1761 4.43172 18.1056C3.78906 17.3864 3.78906 16.2829 3.78906 14.0759V9.33565Z" stroke="#207A91" stroke-width="1.2763"/>
<path d="M14.2711 16.1064H12.4235L11.9062 14.5544H8.46976L7.95244 16.1064H6.11719L9.13488 7.48438H11.2411L14.2711 16.1064ZM10.1942 9.4428L9.01171 12.9655H11.3766L10.1942 9.4428Z" fill="#207A91"/>
<path d="M15.1083 16.1064V7.48438H16.8081V16.1064H15.1083Z" fill="#207A91"/>
</svg>
