<svg width="32" height="27" viewBox="0 0 32 27" fill="none" xmlns="http://www.w3.org/2000/svg">
<g clip-path="url(#clip0_45_61565)">
<path d="M7.99586 5.54642C8.8905 5.54642 9.61575 4.82117 9.61575 3.92653C9.61575 3.03189 8.8905 2.30664 7.99586 2.30664C7.10122 2.30664 6.37598 3.03189 6.37598 3.92653C6.37598 4.82117 7.10122 5.54642 7.99586 5.54642Z" fill="white"/>
<path d="M7.99588 2.30589C8.31789 2.30475 8.63301 2.3993 8.90123 2.57749C9.16945 2.75568 9.37868 3.00949 9.50244 3.30677C9.62619 3.60405 9.65889 3.93142 9.59634 4.2473C9.5338 4.56319 9.37885 4.85335 9.15115 5.08105C8.92345 5.30875 8.63325 5.4637 8.31737 5.52625C8.00148 5.58879 7.67415 5.55613 7.37687 5.43237C7.07959 5.30862 6.82578 5.09935 6.64759 4.83113C6.4694 4.56291 6.37485 4.24779 6.37599 3.92578C6.37599 3.49616 6.54668 3.08415 6.85046 2.78037C7.15425 2.47658 7.56626 2.30589 7.99588 2.30589ZM7.99588 4.22152e-06C7.2178 -0.00113582 6.4569 0.228652 5.80948 0.660217C5.16206 1.09178 4.65726 1.70573 4.35897 2.42436C4.06069 3.14299 3.98234 3.93396 4.13386 4.69714C4.28537 5.46033 4.65992 6.16141 5.2101 6.7116C5.76028 7.26178 6.46137 7.63632 7.22455 7.78784C7.98773 7.93936 8.7787 7.86101 9.49733 7.56273C10.216 7.26444 10.8299 6.75964 11.2615 6.11222C11.693 5.4648 11.9228 4.70386 11.9217 3.92578C11.9201 2.88507 11.5061 1.88744 10.7702 1.15154C10.0343 0.415646 9.03659 0.00152908 7.99588 4.22152e-06Z" fill="url(#paint0_linear_45_61565)"/>
<path d="M15.5014 5.20602C16.2082 5.20602 16.7812 4.63305 16.7812 3.92625C16.7812 3.21946 16.2082 2.64648 15.5014 2.64648C14.7947 2.64648 14.2217 3.21946 14.2217 3.92625C14.2217 4.63305 14.7947 5.20602 15.5014 5.20602Z" fill="white"/>
<path d="M15.5016 2.6516C15.7549 2.6516 16.0026 2.72679 16.2132 2.86767C16.4237 3.00855 16.5878 3.20876 16.6845 3.44295C16.7812 3.67713 16.8062 3.93476 16.7563 4.18317C16.7065 4.43158 16.584 4.65961 16.4045 4.83835C16.2249 5.0171 15.9963 5.13852 15.7477 5.18725C15.4991 5.23598 15.2416 5.2098 15.0078 5.11206C14.7741 5.01431 14.5746 4.84936 14.4347 4.63815C14.2948 4.42694 14.2207 4.17894 14.2218 3.92558C14.2218 3.75779 14.2549 3.59167 14.3193 3.43672C14.3837 3.28177 14.4781 3.14107 14.597 3.0227C14.7159 2.90432 14.857 2.8106 15.0123 2.74692C15.1675 2.68323 15.3338 2.65084 15.5016 2.6516ZM15.5016 0.345708C14.7919 0.344568 14.0979 0.554025 13.5073 0.947584C12.9168 1.34114 12.4563 1.9011 12.1842 2.55653C11.9121 3.21196 11.8406 3.93337 11.9788 4.62946C12.1169 5.32555 12.4586 5.96498 12.9604 6.46679C13.4622 6.9686 14.1016 7.31025 14.7977 7.44842C15.4938 7.58659 16.2152 7.51508 16.8707 7.24297C17.5261 6.97087 18.086 6.51038 18.4796 5.91984C18.8731 5.3293 19.0826 4.63525 19.0815 3.92558C19.08 2.9766 18.7023 2.06694 18.0312 1.39591C17.3602 0.724882 16.4506 0.347232 15.5016 0.345708Z" fill="url(#paint1_linear_45_61565)"/>
<path d="M15.9508 6.15039H7.51121C4.63627 6.15039 2.30566 8.48099 2.30566 11.3559V18.9308C2.30566 21.8057 4.63627 24.1363 7.51121 24.1363H15.9508C18.8257 24.1363 21.1563 21.8057 21.1563 18.9308V11.3559C21.1563 8.48099 18.8257 6.15039 15.9508 6.15039Z" fill="white"/>
<path d="M15.9508 6.1519C17.3268 6.1519 18.6465 6.69852 19.6194 7.67151C20.5924 8.64449 21.139 9.96414 21.139 11.3402V18.9323C21.139 20.3083 20.5924 21.6279 19.6194 22.6009C18.6465 23.5739 17.3268 24.1205 15.9508 24.1205H7.51123C6.13522 24.1205 4.81558 23.5739 3.84259 22.6009C2.8696 21.6279 2.32298 20.3083 2.32298 18.9323V11.3574C2.32298 9.98142 2.8696 8.66177 3.84259 7.68878C4.81558 6.7158 6.13522 6.16917 7.51123 6.16917H15.9508M15.9508 3.86328H7.51123C5.52366 3.86328 3.6175 4.65284 2.21208 6.05827C0.806652 7.46369 0.0170898 9.36986 0.0170898 11.3574V18.9323C0.0170898 20.9199 0.806652 22.826 2.21208 24.2314C3.6175 25.6369 5.52366 26.4264 7.51123 26.4264H15.9508C17.936 26.4188 19.8378 25.6269 21.2416 24.2231C22.6453 22.8193 23.4373 20.9175 23.4449 18.9323V11.3574C23.4449 9.36986 22.6554 7.46369 21.25 6.05827C19.8445 4.65284 17.9383 3.86328 15.9508 3.86328Z" fill="url(#paint2_linear_45_61565)"/>
<path d="M20.2977 16.1002L28.034 20.5678C28.2021 20.6649 28.3928 20.716 28.587 20.7161C28.7811 20.7162 28.9719 20.6652 29.1401 20.5682C29.3083 20.4713 29.4481 20.3318 29.5453 20.1637C29.6426 19.9957 29.6939 19.805 29.6942 19.6109V10.6755C29.6939 10.4814 29.6426 10.2907 29.5453 10.1227C29.4481 9.95465 29.3083 9.81515 29.1401 9.7182C28.9719 9.62124 28.7811 9.57024 28.587 9.57031C28.3928 9.57038 28.2021 9.62154 28.034 9.71862L20.2977 14.1863C20.1302 14.2836 19.9912 14.4233 19.8945 14.5912C19.7979 14.7591 19.7471 14.9495 19.7471 15.1432C19.7471 15.337 19.7979 15.5273 19.8945 15.6953C19.9912 15.8632 20.1302 16.0028 20.2977 16.1002Z" fill="white"/>
<path d="M28.5872 9.5696C28.8807 9.5696 29.1622 9.68619 29.3698 9.89376C29.5774 10.1013 29.694 10.3829 29.694 10.6764V19.6117C29.694 19.9053 29.5774 20.1868 29.3698 20.3944C29.1622 20.602 28.8807 20.7186 28.5872 20.7186C28.3852 20.72 28.1864 20.6683 28.0107 20.5687L20.2744 16.101C20.1069 16.0037 19.9679 15.8641 19.8713 15.6961C19.7746 15.5282 19.7238 15.3378 19.7238 15.1441C19.7238 14.9503 19.7746 14.76 19.8713 14.5921C19.9679 14.4241 20.1069 14.2845 20.2744 14.1872L28.0107 9.71949C28.1853 9.61724 28.3849 9.56535 28.5872 9.5696ZM28.5872 7.26371C27.9799 7.26084 27.3829 7.42003 26.8578 7.72488L19.1215 12.1868C18.6032 12.4864 18.1728 12.9172 17.8737 13.4358C17.5745 13.9544 17.417 14.5425 17.417 15.1412C17.417 15.7399 17.5745 16.328 17.8737 16.8466C18.1728 17.3652 18.6032 17.7959 19.1215 18.0956L26.8578 22.5633C27.376 22.8645 27.9645 23.0237 28.5639 23.0247C29.1633 23.0258 29.7523 22.8687 30.2716 22.5693C30.7909 22.2699 31.222 21.8388 31.5214 21.3195C31.8208 20.8002 31.9779 20.2112 31.9768 19.6117V10.6764C31.9753 9.77178 31.6153 8.90462 30.9756 8.26494C30.3359 7.62526 29.4687 7.26523 28.5641 7.26371H28.5872Z" fill="url(#paint3_linear_45_61565)"/>
<path d="M16.5158 16.1015L10.9874 19.2894C10.8193 19.3865 10.6285 19.4377 10.4344 19.4377C10.2402 19.4378 10.0495 19.3868 9.88128 19.2898C9.71307 19.1929 9.57331 19.0534 9.47605 18.8853C9.37879 18.7173 9.32743 18.5266 9.32715 18.3325V11.9509C9.32743 11.7568 9.37879 11.5661 9.47605 11.3981C9.57331 11.23 9.71307 11.0905 9.88128 10.9936C10.0495 10.8966 10.2402 10.8456 10.4344 10.8457C10.6285 10.8458 10.8193 10.8969 10.9874 10.994L16.5158 14.1877C16.6833 14.285 16.8223 14.4246 16.9189 14.5926C17.0156 14.7605 17.0664 14.9508 17.0664 15.1446C17.0664 15.3383 17.0156 15.5287 16.9189 15.6966C16.8223 15.8646 16.6833 16.0042 16.5158 16.1015Z" fill="white"/>
<path d="M10.4341 10.8603C10.6364 10.8561 10.8359 10.9079 11.0106 11.0102L16.5389 14.2038C16.7064 14.3012 16.8455 14.4408 16.9421 14.6088C17.0387 14.7767 17.0896 14.9671 17.0896 15.1608C17.0896 15.3546 17.0387 15.5449 16.9421 15.7128C16.8455 15.8808 16.7064 16.0204 16.5389 16.1177L11.0106 19.3057C10.8424 19.4027 10.6517 19.4538 10.4575 19.4539C10.2634 19.454 10.0726 19.403 9.90442 19.306C9.73621 19.2091 9.59645 19.0696 9.49919 18.9015C9.40193 18.7335 9.35061 18.5428 9.35033 18.3487V11.9499C9.35033 11.6563 9.46692 11.3748 9.67449 11.1672C9.88206 10.9596 10.1636 10.843 10.4571 10.843M10.4571 8.53711C9.5525 8.53863 8.68534 8.89869 8.04566 9.53837C7.40598 10.1781 7.04596 11.0452 7.04443 11.9499V18.3545C7.04412 18.9537 7.20156 19.5424 7.50096 20.0615C7.80036 20.5805 8.23114 21.0116 8.75 21.3113C9.26885 21.611 9.85748 21.7689 10.4567 21.769C11.0559 21.7691 11.6446 21.6114 12.1635 21.3118L17.6919 18.1181C18.2087 17.8173 18.6376 17.3861 18.9357 16.8677C19.2338 16.3492 19.3906 15.7617 19.3906 15.1637C19.3906 14.5657 19.2338 13.9781 18.9357 13.4597C18.6376 12.9413 18.2087 12.5101 17.6919 12.2093L12.1635 9.02136C11.6375 8.71856 11.041 8.55952 10.4341 8.56019L10.4571 8.53711Z" fill="url(#paint4_linear_45_61565)"/>
<path opacity="0.51" d="M16.5158 16.1015L10.9874 19.2894C10.8193 19.3865 10.6285 19.4377 10.4344 19.4377C10.2402 19.4378 10.0495 19.3868 9.88128 19.2898C9.71307 19.1929 9.57331 19.0534 9.47605 18.8853C9.37879 18.7173 9.32743 18.5266 9.32715 18.3325V11.9509C9.32743 11.7568 9.37879 11.5661 9.47605 11.3981C9.57331 11.23 9.71307 11.0905 9.88128 10.9936C10.0495 10.8966 10.2402 10.8456 10.4344 10.8457C10.6285 10.8458 10.8193 10.8969 10.9874 10.994L16.5158 14.1877C16.6833 14.285 16.8223 14.4246 16.9189 14.5926C17.0156 14.7605 17.0664 14.9508 17.0664 15.1446C17.0664 15.3383 17.0156 15.5287 16.9189 15.6966C16.8223 15.8646 16.6833 16.0042 16.5158 16.1015Z" fill="url(#paint5_linear_45_61565)"/>
</g>
<defs>
<linearGradient id="paint0_linear_45_61565" x1="4.07012" y1="3.92579" x2="11.9217" y2="3.92579" gradientUnits="userSpaceOnUse">
<stop stop-color="#FF6E11"/>
<stop offset="0.24" stop-color="#FF7311"/>
<stop offset="0.54" stop-color="#FF8211"/>
<stop offset="0.85" stop-color="#FF9A11"/>
<stop offset="1" stop-color="#FFA811"/>
</linearGradient>
<linearGradient id="paint1_linear_45_61565" x1="11.9159" y1="3.92561" x2="19.0815" y2="3.92561" gradientUnits="userSpaceOnUse">
<stop stop-color="#FF6E11"/>
<stop offset="0.24" stop-color="#FF7311"/>
<stop offset="0.54" stop-color="#FF8211"/>
<stop offset="0.85" stop-color="#FF9A11"/>
<stop offset="1" stop-color="#FFA811"/>
</linearGradient>
<linearGradient id="paint2_linear_45_61565" x1="-0.000204317" y1="15.1449" x2="23.4622" y2="15.1449" gradientUnits="userSpaceOnUse">
<stop stop-color="#FF6E11"/>
<stop offset="0.24" stop-color="#FF7311"/>
<stop offset="0.54" stop-color="#FF8211"/>
<stop offset="0.85" stop-color="#FF9A11"/>
<stop offset="1" stop-color="#FFA811"/>
</linearGradient>
<linearGradient id="paint3_linear_45_61565" x1="24.719" y1="23.0245" x2="24.719" y2="7.26371" gradientUnits="userSpaceOnUse">
<stop stop-color="#FF6E11"/>
<stop offset="0.24" stop-color="#FF7311"/>
<stop offset="0.54" stop-color="#FF8211"/>
<stop offset="0.85" stop-color="#FF9A11"/>
<stop offset="1" stop-color="#FFA811"/>
</linearGradient>
<linearGradient id="paint4_linear_45_61565" x1="13.1954" y1="21.7441" x2="13.1954" y2="8.53711" gradientUnits="userSpaceOnUse">
<stop stop-color="#FF6E11"/>
<stop offset="0.24" stop-color="#FF7311"/>
<stop offset="0.54" stop-color="#FF8211"/>
<stop offset="0.85" stop-color="#FF9A11"/>
<stop offset="1" stop-color="#FFA811"/>
</linearGradient>
<linearGradient id="paint5_linear_45_61565" x1="9.32715" y1="15.1446" x2="17.0634" y2="15.1446" gradientUnits="userSpaceOnUse">
<stop stop-color="#FF6E11"/>
<stop offset="0.24" stop-color="#FF7311"/>
<stop offset="0.54" stop-color="#FF8211"/>
<stop offset="0.85" stop-color="#FF9A11"/>
<stop offset="1" stop-color="#FFA811"/>
</linearGradient>
<clipPath id="clip0_45_61565">
<rect width="32" height="26.4428" fill="white"/>
</clipPath>
</defs>
</svg>
