<svg width="17" height="21" viewBox="0 0 17 21" fill="none" xmlns="http://www.w3.org/2000/svg">
<g clip-path="url(#clip0_16_40327)">
<path d="M8.48476 2.03516C7.86218 2.03456 7.24558 2.15668 6.67045 2.39454C6.09533 2.63241 5.57297 2.98131 5.13338 3.4212C4.69379 3.8611 4.34564 4.3833 4.10891 4.95786C3.87218 5.53241 3.75155 6.14799 3.75394 6.7692V9.48472C3.792 10.7108 4.30685 11.8739 5.18947 12.7277C6.07208 13.5816 7.25316 14.059 8.48249 14.059C9.71181 14.059 10.8928 13.5816 11.7754 12.7277C12.6581 11.8739 13.1729 10.7108 13.211 9.48472V6.7692C13.2134 6.14837 13.0929 5.53316 12.8565 4.95891C12.62 4.38465 12.2723 3.86264 11.8331 3.42281C11.394 2.98297 10.8722 2.634 10.2976 2.39587C9.72302 2.15774 9.10695 2.03515 8.48476 2.03516ZM10.8932 8.90992C10.8932 10.4668 9.81373 11.7295 8.48476 11.7295C7.15578 11.7295 6.07624 10.4668 6.07624 8.90992V7.29421C6.07624 5.73731 7.15124 4.47461 8.48476 4.47461C9.81827 4.47461 10.8932 5.73731 10.8932 7.29421V8.90992Z" fill="white"/>
<path d="M13.9624 12.2229C13.7995 12.219 13.6385 12.259 13.4965 12.3387C13.3544 12.4183 13.2364 12.5347 13.155 12.6755C12.6828 13.4953 12.0023 14.1764 11.182 14.65C10.3618 15.1236 9.43088 15.373 8.48321 15.373C7.53555 15.373 6.60464 15.1236 5.78441 14.65C4.96417 14.1764 4.28359 13.4953 3.81137 12.6755C3.72994 12.5347 3.61198 12.4183 3.46991 12.3387C3.32784 12.259 3.16689 12.219 3.00399 12.2229C2.83833 12.2219 2.67533 12.2644 2.53137 12.3462C2.3874 12.428 2.26755 12.5461 2.18388 12.6888C2.1002 12.8314 2.05565 12.9936 2.0547 13.1589C2.05376 13.3242 2.09647 13.4868 2.17851 13.6305C2.73879 14.5939 3.513 15.4163 4.44162 16.0346C5.37024 16.6529 6.42852 17.0505 7.5352 17.1968V19.0072H5.34445C5.21475 18.9982 5.08461 19.0159 4.96208 19.0593C4.83955 19.1026 4.72725 19.1707 4.6322 19.2592C4.53714 19.3477 4.46133 19.4548 4.40951 19.5737C4.35768 19.6927 4.33094 19.8211 4.33094 19.9508C4.33094 20.0805 4.35768 20.2089 4.40951 20.3279C4.46133 20.4468 4.53714 20.5539 4.6322 20.6424C4.72725 20.7309 4.83955 20.799 4.96208 20.8423C5.08461 20.8857 5.21475 20.9034 5.34445 20.8944H11.6355C11.875 20.8779 12.0993 20.7713 12.2631 20.5962C12.4269 20.421 12.518 20.1904 12.518 19.9508C12.518 19.7113 12.4269 19.4806 12.2631 19.3055C12.0993 19.1303 11.875 19.0237 11.6355 19.0072H9.42663V17.1968C10.5339 17.0505 11.5928 16.6529 12.5222 16.0347C13.4516 15.4165 14.2266 14.594 14.7879 13.6305C14.8699 13.4868 14.9126 13.3242 14.9117 13.1589C14.9107 12.9936 14.8662 12.8314 14.7825 12.6888C14.6988 12.5461 14.579 12.428 14.435 12.3462C14.291 12.2644 14.128 12.2219 13.9624 12.2229Z" fill="white"/>
<path d="M13.4885 0.0802561C13.4166 0.0377905 13.3364 0.0114176 13.2533 0.00296498C13.1702 -0.0054876 13.0863 0.00418506 13.0074 0.0313069C12.9284 0.0584287 12.8563 0.102347 12.7961 0.160033C12.7358 0.217719 12.6889 0.287793 12.6584 0.365388C12.6077 0.491205 12.6036 0.630959 12.6469 0.759523C12.6901 0.888086 12.7778 0.997066 12.8943 1.06692C13.9795 1.73719 14.8321 2.72398 15.3367 3.89371C15.8413 5.06343 15.9735 6.35958 15.7155 7.60677C15.6831 7.75621 15.7114 7.91243 15.7943 8.04102C15.8773 8.16961 16.008 8.26004 16.1578 8.29245C16.3075 8.32486 16.4641 8.29659 16.5929 8.21383C16.7218 8.13108 16.8125 8.00063 16.8449 7.85119C17.1527 6.36875 16.9957 4.82771 16.3952 3.43742C15.7947 2.04713 14.7798 0.874968 13.4885 0.0802561Z" fill="white"/>
<path d="M12.8584 1.81501C12.7866 1.76413 12.7043 1.73002 12.6175 1.71529C12.5308 1.70057 12.4418 1.70557 12.3572 1.72993C12.2726 1.75429 12.1947 1.7974 12.1291 1.85601C12.0635 1.91461 12.012 1.98722 11.9785 2.06843C11.9304 2.18864 11.9245 2.32153 11.9615 2.44555C11.9985 2.56958 12.0764 2.67749 12.1826 2.75184C12.8441 3.2187 13.3636 3.85877 13.6837 4.60147C14.0039 5.34417 14.1122 6.16067 13.9969 6.96092C13.9786 7.08877 14.0041 7.21903 14.0691 7.33069C14.1341 7.44236 14.2349 7.52891 14.3552 7.57643C14.4363 7.60885 14.5236 7.62248 14.6107 7.61627C14.6978 7.61005 14.7823 7.58417 14.8579 7.54058C14.9334 7.49698 14.9981 7.43681 15.047 7.36461C15.0958 7.29242 15.1276 7.21009 15.1399 7.12385C15.2817 6.11543 15.144 5.08752 14.7419 4.15165C14.3397 3.21577 13.6883 2.40768 12.8584 1.81501Z" fill="white"/>
<path d="M4.10991 1.06692C4.22639 0.997066 4.31412 0.888086 4.35735 0.759523C4.40057 0.630959 4.39647 0.491205 4.34577 0.365388C4.31535 0.287793 4.26838 0.217719 4.20813 0.160033C4.14788 0.102347 4.07574 0.0584287 3.99679 0.0313069C3.91783 0.00418506 3.83392 -0.0054876 3.75084 0.00296498C3.66777 0.0114176 3.58754 0.0377905 3.5157 0.0802561C2.2229 0.873542 1.20684 2.04549 0.606159 3.4362C0.00547256 4.82692 -0.150603 6.3687 0.159227 7.85119C0.196503 7.99506 0.288196 8.11893 0.415028 8.19682C0.54186 8.27471 0.694016 8.30058 0.839535 8.26897C0.985054 8.23735 1.1126 8.15072 1.1955 8.02726C1.27839 7.90381 1.31019 7.75309 1.28414 7.60677C1.02723 6.35913 1.16047 5.06284 1.66585 3.89321C2.17123 2.72358 3.02436 1.73704 4.10991 1.06692Z" fill="white"/>
<path d="M2.63843 7.58425C2.75877 7.53673 2.85957 7.45011 2.92457 7.33845C2.98958 7.22678 3.01497 7.09653 2.99672 6.96868C2.88243 6.16849 2.99132 5.35239 3.31137 4.60989C3.63143 3.86739 4.15027 3.22722 4.81102 2.75966C4.91861 2.6865 4.99798 2.57886 5.03592 2.45458C5.07387 2.3303 5.06814 2.19684 5.0197 2.07625C4.98616 1.99503 4.93467 1.92243 4.8691 1.86382C4.80353 1.80521 4.72556 1.76211 4.64098 1.73775C4.55641 1.71339 4.46743 1.70838 4.38064 1.72311C4.29386 1.73783 4.21149 1.77189 4.13974 1.82277C3.31236 2.41707 2.66367 3.2259 2.26392 4.16167C1.86417 5.09743 1.7286 6.12452 1.87186 7.13166C1.88482 7.21567 1.91632 7.29577 1.96405 7.36618C2.01177 7.4366 2.07455 7.49554 2.14787 7.53883C2.22119 7.58212 2.30317 7.60866 2.388 7.61651C2.47283 7.62436 2.55839 7.61335 2.63843 7.58425Z" fill="white"/>
</g>
<defs>
<clipPath id="clip0_16_40327">
<rect width="17" height="20.9231" fill="white"/>
</clipPath>
</defs>
</svg>
