<svg width="18" height="18" viewBox="0 0 18 18" fill="none" xmlns="http://www.w3.org/2000/svg">
<circle cx="9" cy="9" r="9" fill="#D4D4D4"/>
<path d="M12.4322 4.922C12.4322 2.91343 10.8616 1.28516 8.9241 1.28516C6.98664 1.28516 5.41602 2.91343 5.41602 4.922V7.00319C5.41602 9.01177 6.98664 10.64 8.9241 10.64C10.8616 10.64 12.4322 9.01177 12.4322 7.00319V4.922Z" fill="white"/>
<path d="M13.2449 8.99614C13.1168 8.99491 12.9905 9.02801 12.8788 9.09214C12.7671 9.15626 12.6738 9.24917 12.6083 9.36158C12.2356 10.0222 11.6988 10.571 11.0521 10.9525C10.4054 11.3341 9.67164 11.535 8.92465 11.535C8.17766 11.535 7.44386 11.3341 6.79716 10.9525C6.15047 10.571 5.61372 10.0222 5.24099 9.36158C5.17559 9.24905 5.08234 9.15605 4.9706 9.09191C4.85887 9.02777 4.73257 8.99474 4.60438 8.99614C4.47384 8.99597 4.34553 9.03076 4.23229 9.09704C4.11904 9.16333 4.02482 9.25878 3.95905 9.37386C3.89327 9.48893 3.85823 9.61962 3.85744 9.75284C3.85664 9.88607 3.89012 10.0172 3.95452 10.1331C4.39592 10.9105 5.00631 11.574 5.73867 12.0727C6.47102 12.5714 7.30579 12.8918 8.17863 13.0092V14.4896H6.44953C6.25168 14.4896 6.06192 14.5698 5.92201 14.7126C5.78211 14.8554 5.70352 15.049 5.70352 15.2509C5.70352 15.4528 5.78211 15.6465 5.92201 15.7893C6.06192 15.932 6.25168 16.0123 6.44953 16.0123H11.4097C11.6076 16.0123 11.7973 15.932 11.9372 15.7893C12.0771 15.6465 12.1557 15.4528 12.1557 15.2509C12.1557 15.049 12.0771 14.8554 11.9372 14.7126C11.7973 14.5698 11.6076 14.4896 11.4097 14.4896H9.67066V13.0092C10.5434 12.8914 11.378 12.5708 12.1103 12.0722C12.8426 11.5736 13.4531 10.9102 13.8948 10.1331C13.9592 10.0172 13.9927 9.88607 13.9919 9.75284C13.9911 9.61962 13.956 9.48893 13.8903 9.37386C13.8245 9.25878 13.7303 9.16333 13.617 9.09704C13.5038 9.03076 13.3755 8.99597 13.2449 8.99614Z" fill="white"/>
</svg>
