<svg width="18" height="18" viewBox="0 0 18 18" fill="none" xmlns="http://www.w3.org/2000/svg">
<circle cx="9" cy="9" r="9" fill="#D4D4D4"/>
<path d="M12.4341 4.922C12.4341 2.91343 10.8635 1.28516 8.92605 1.28516C6.98859 1.28516 5.41797 2.91343 5.41797 4.922V7.00319C5.41797 9.01177 6.98859 10.64 8.92605 10.64C10.8635 10.64 12.4341 9.01177 12.4341 7.00319V4.922Z" fill="white"/>
<path d="M13.2469 8.99614C13.1187 8.99491 12.9925 9.02801 12.8808 9.09214C12.7691 9.15626 12.6758 9.24917 12.6103 9.36158C12.2375 10.0222 11.7008 10.571 11.0541 10.9525C10.4074 11.3341 9.67359 11.535 8.9266 11.535C8.17961 11.535 7.44581 11.3341 6.79912 10.9525C6.15242 10.571 5.61567 10.0222 5.24294 9.36158C5.17754 9.24905 5.08429 9.15605 4.97256 9.09191C4.86082 9.02777 4.73453 8.99474 4.60634 8.99614C4.47579 8.99597 4.34748 9.03076 4.23424 9.09704C4.12099 9.16333 4.02678 9.25878 3.961 9.37386C3.89522 9.48893 3.86018 9.61962 3.85939 9.75284C3.8586 9.88607 3.89207 10.0172 3.95648 10.1331C4.39787 10.9105 5.00826 11.574 5.74062 12.0727C6.47298 12.5714 7.30774 12.8918 8.18058 13.0092V14.4896H6.45148C6.25363 14.4896 6.06387 14.5698 5.92397 14.7126C5.78406 14.8554 5.70547 15.049 5.70547 15.2509C5.70547 15.4528 5.78406 15.6465 5.92397 15.7893C6.06387 15.932 6.25363 16.0123 6.45148 16.0123H11.4117C11.6095 16.0123 11.7993 15.932 11.9392 15.7893C12.0791 15.6465 12.1577 15.4528 12.1577 15.2509C12.1577 15.049 12.0791 14.8554 11.9392 14.7126C11.7993 14.5698 11.6095 14.4896 11.4117 14.4896H9.67262V13.0092C10.5453 12.8914 11.38 12.5708 12.1123 12.0722C12.8446 11.5736 13.455 10.9102 13.8967 10.1331C13.9611 10.0172 13.9946 9.88607 13.9938 9.75284C13.993 9.61962 13.958 9.48893 13.8922 9.37386C13.8264 9.25878 13.7322 9.16333 13.619 9.09704C13.5057 9.03076 13.3774 8.99597 13.2469 8.99614Z" fill="white"/>
</svg>
