<svg width="15" height="24" viewBox="0 0 15 24" fill="none" xmlns="http://www.w3.org/2000/svg">
<g clip-path="url(#clip0_10_7803)">
<path d="M9.03067 0.757813H5.36925C3.94624 0.757812 2.58145 1.31256 1.57468 2.30023C0.567907 3.28791 0.00155012 4.62766 0 6.0252V18.5303C0.00155012 19.9279 0.567907 21.2677 1.57468 22.2554C2.58145 23.243 3.94624 23.7978 5.36925 23.7978H9.03067C10.4537 23.7978 11.8185 23.243 12.8253 22.2554C13.8321 21.2677 14.3984 19.9279 14.4 18.5303V6.0252C14.3984 4.62766 13.8321 3.28791 12.8253 2.30023C11.8185 1.31256 10.4537 0.757812 9.03067 0.757813ZM7.21753 21.2359C6.70531 21.2348 6.20498 21.0846 5.77965 20.8043C5.35432 20.524 5.02313 20.1261 4.82792 19.661C4.6327 19.1959 4.5822 18.6845 4.68284 18.1912C4.78347 17.698 5.03072 17.2451 5.39331 16.8898C5.75591 16.5345 6.21757 16.2927 6.72003 16.195C7.22248 16.0973 7.7432 16.148 8.21631 16.3408C8.68942 16.5336 9.09371 16.8597 9.37817 17.2781C9.66262 17.6964 9.81448 18.1882 9.81448 18.6912C9.81448 19.0259 9.74721 19.3572 9.61663 19.6664C9.48605 19.9755 9.29467 20.2562 9.05345 20.4926C8.81223 20.7289 8.52592 20.9163 8.21088 21.0439C7.89585 21.1714 7.55828 21.2367 7.21753 21.2359ZM7.21753 14.6358C6.70366 14.6358 6.20134 14.4861 5.77415 14.2056C5.34696 13.9251 5.01416 13.5264 4.81778 13.06C4.6214 12.5937 4.57031 12.0806 4.67098 11.5857C4.77166 11.0908 5.01955 10.6364 5.38332 10.2799C5.74709 9.92347 6.21039 9.68104 6.71453 9.58328C7.21867 9.48552 7.74096 9.53683 8.21538 9.73075C8.6898 9.92466 9.09502 10.2524 9.37966 10.6726C9.66431 11.0928 9.81563 11.5864 9.81448 12.0911C9.81448 12.4258 9.74721 12.7572 9.61663 13.0663C9.48605 13.3754 9.29467 13.6561 9.05345 13.8925C8.81223 14.1289 8.52592 14.3162 8.21088 14.4438C7.89585 14.5713 7.55828 14.6366 7.21753 14.6358ZM7.21753 8.03567C6.70391 8.03567 6.20185 7.88615 5.77479 7.60591C5.34773 7.32566 5.01483 6.92731 4.81828 6.46128C4.62172 5.99525 4.57035 5.48245 4.67055 4.98771C4.77076 4.49298 5.01806 4.03856 5.38125 3.68187C5.74443 3.32519 6.20714 3.08224 6.71089 2.98383C7.21464 2.88542 7.73679 2.93594 8.21131 3.12898C8.68583 3.32201 9.09146 3.64896 9.37681 4.06837C9.66216 4.48779 9.81448 4.98085 9.81448 5.48528C9.81448 6.1617 9.54082 6.81039 9.05381 7.28869C8.56679 7.76699 7.90627 8.03567 7.21753 8.03567Z" fill="white"/>
</g>
<defs>
<clipPath id="clip0_10_7803">
<rect width="14.4" height="23.04" fill="white" transform="translate(0 0.757812)"/>
</clipPath>
</defs>
</svg>
