<svg width="28" height="27" viewBox="0 0 28 27" fill="none" xmlns="http://www.w3.org/2000/svg">
<g clip-path="url(#clip0_45_61480)">
<g opacity="0.22">
<path d="M14.6562 2.17969H7.10163C4.38331 2.17969 2.17969 4.38331 2.17969 7.10163V18.0847C2.17969 20.803 4.38331 23.0066 7.10163 23.0066H14.6562C17.3745 23.0066 19.5782 20.803 19.5782 18.0847V7.10163C19.5782 4.38331 17.3745 2.17969 14.6562 2.17969Z" fill="url(#paint0_linear_45_61480)"/>
</g>
<path d="M14.6561 2.17952C15.9571 2.17952 17.2049 2.69636 18.1248 3.61634C19.0448 4.53631 19.5617 5.78406 19.5617 7.0851V18.0682C19.5617 19.3692 19.0448 20.617 18.1248 21.537C17.2049 22.4569 15.9571 22.9738 14.6561 22.9738H7.10147C5.80043 22.9738 4.55268 22.4569 3.6327 21.537C2.71273 20.617 2.19589 19.3692 2.19589 18.0682V7.10147C2.19589 5.80043 2.71273 4.55268 3.6327 3.6327C4.55268 2.71273 5.80043 2.19589 7.10147 2.19589H14.6561M14.6561 0.015625H7.10147C5.22219 0.015625 3.41988 0.76217 2.09102 2.09102C0.76217 3.41988 0.015625 5.22219 0.015625 7.10147V18.0845C0.0228032 19.9616 0.771641 21.7597 2.09894 23.087C3.42624 24.4143 5.2244 25.1632 7.10147 25.1704H14.6561C16.5354 25.1704 18.3377 24.4238 19.6665 23.095C20.9954 21.7661 21.7419 19.9638 21.7419 18.0845V7.10147C21.7419 5.22219 20.9954 3.41988 19.6665 2.09102C18.3377 0.76217 16.5354 0.015625 14.6561 0.015625Z" fill="url(#paint1_linear_45_61480)"/>
<path d="M28 14.2104C28.0142 15.9663 27.5344 17.6907 26.6155 19.1869C26.3822 19.5724 26.0535 19.8913 25.6611 20.1128C25.2687 20.3343 24.8259 20.4509 24.3753 20.4514C24.049 20.4503 23.7257 20.3893 23.4214 20.2716V21.3999C23.428 21.4815 23.428 21.5635 23.4214 21.6451C23.3036 22.6313 22.9282 23.569 22.3331 24.3641C21.738 25.1592 20.944 25.7836 20.0311 26.1746C19.179 26.5778 18.2485 26.7882 17.3058 26.7906C16.425 26.8275 15.5521 26.6109 14.7907 26.1664C14.0294 25.722 13.4116 25.0684 13.0107 24.2832C11.9205 21.9068 13.2233 19.0125 16.0303 17.6989C16.4878 17.4823 16.9689 17.3195 17.4639 17.2138V5.71832C17.4653 4.93669 17.7764 4.1875 18.3291 3.6348C18.8818 3.08211 19.631 2.77097 20.4127 2.76953H20.4617C21.2387 2.77092 21.9838 3.0783 22.5357 3.62512C23.0876 4.17194 23.4019 4.91418 23.4105 5.69107C23.7569 6.29176 24.1843 6.84198 24.6805 7.32627C26.0868 8.90151 28 11.0436 28 14.2104Z" fill="white"/>
<path d="M24.6918 7.34193C24.1956 6.85764 23.7682 6.30742 23.4218 5.70673C23.4132 4.92984 23.0989 4.1876 22.547 3.64078C21.9951 3.09396 21.25 2.78654 20.473 2.78516H20.424C19.6423 2.7866 18.8932 3.09776 18.3405 3.65046C17.7878 4.20316 17.4766 4.95235 17.4752 5.73398V17.2403C16.9802 17.346 16.4991 17.5088 16.0416 17.7254C13.2345 19.039 11.9046 21.9333 13.022 24.3098C13.4229 25.095 14.0407 25.7486 14.802 26.193C15.5634 26.6375 16.4363 26.8541 17.3171 26.8171C18.2598 26.8147 19.1903 26.6044 20.0424 26.2012C20.9554 25.8102 21.7493 25.1857 22.3444 24.3907C22.9395 23.5956 23.3149 22.6578 23.4327 21.6717C23.4393 21.5901 23.4393 21.508 23.4327 21.4264V20.2872C23.737 20.4049 24.0603 20.4659 24.3866 20.4671C24.8372 20.4666 25.2801 20.35 25.6725 20.1285C26.0649 19.907 26.3936 19.588 26.6268 19.2025C27.5457 17.7063 28.0255 15.9819 28.0113 14.2261C28.0004 11.0429 26.0872 8.90081 24.6918 7.34193ZM24.7573 18.047C24.7189 18.1145 24.6635 18.1707 24.5965 18.2099C24.5295 18.2492 24.4533 18.2701 24.3757 18.2705C24.3022 18.2714 24.2295 18.2552 24.1634 18.2233C24.0972 18.1913 24.0394 18.1444 23.9945 18.0863C23.9496 18.0281 23.9188 17.9603 23.9045 17.8883C23.8903 17.8162 23.8929 17.7417 23.9124 17.6709C24.0694 17.0746 24.1536 16.4615 24.1631 15.8449C24.1631 13.9263 22.3045 12.7871 21.2416 11.4408V21.3991C21.2416 21.3991 21.2416 21.4318 21.2416 21.4536C21.1536 22.0562 20.9088 22.625 20.532 23.1033C20.1551 23.5816 19.6593 23.9525 19.094 24.179C18.5408 24.4439 17.9359 24.5835 17.3226 24.5878C16.8562 24.6225 16.3896 24.5229 15.9781 24.3007C15.5666 24.0785 15.2274 23.7431 15.0006 23.3341C14.4119 22.0859 15.2949 20.4344 16.9737 19.6495C17.525 19.3847 18.1281 19.2451 18.7397 19.2407C19.0511 19.2395 19.3611 19.2818 19.6609 19.3661V5.68491C19.6609 5.48108 19.7418 5.2856 19.886 5.14147C20.0301 4.99734 20.2256 4.91638 20.4294 4.91638H20.4785C20.6823 4.91638 20.8778 4.99734 21.0219 5.14147C21.166 5.2856 21.247 5.48108 21.247 5.68491C21.247 8.08864 25.8256 10.0454 25.8256 14.177C25.843 15.5421 25.4725 16.8841 24.7573 18.047Z" fill="url(#paint2_linear_45_61480)"/>
<path d="M12.4484 6.37891H5.53699C4.93191 6.37891 4.44141 6.86819 4.44141 7.47176C4.44141 8.07533 4.93191 8.56462 5.53699 8.56462H12.4484C13.0535 8.56462 13.544 8.07533 13.544 7.47176C13.544 6.86819 13.0535 6.37891 12.4484 6.37891Z" fill="url(#paint3_linear_45_61480)"/>
<path d="M12.4484 11.418H5.53699C4.93191 11.418 4.44141 11.9073 4.44141 12.5108C4.44141 13.1144 4.93191 13.6037 5.53699 13.6037H12.4484C13.0535 13.6037 13.544 13.1144 13.544 12.5108C13.544 11.9073 13.0535 11.418 12.4484 11.418Z" fill="url(#paint4_linear_45_61480)"/>
<path d="M9.16712 16.4648H5.53699C4.93191 16.4648 4.44141 16.9541 4.44141 17.5577C4.44141 18.1613 4.93191 18.6506 5.53699 18.6506H9.16712C9.77219 18.6506 10.2627 18.1613 10.2627 17.5577C10.2627 16.9541 9.77219 16.4648 9.16712 16.4648Z" fill="url(#paint5_linear_45_61480)"/>
</g>
<defs>
<linearGradient id="paint0_linear_45_61480" x1="2.17969" y1="12.5904" x2="19.5782" y2="12.5904" gradientUnits="userSpaceOnUse">
<stop stop-color="#1E405A"/>
<stop offset="0.24" stop-color="#1E405A"/>
<stop offset="0.54" stop-color="#1E405A"/>
<stop offset="0.85" stop-color="#207A91"/>
<stop offset="1" stop-color="#207A91"/>
</linearGradient>
<linearGradient id="paint1_linear_45_61480" x1="-0.00072695" y1="12.5903" x2="21.7583" y2="12.5903" gradientUnits="userSpaceOnUse">
<stop stop-color="#1E405A"/>
<stop offset="0.24" stop-color="#1E405A"/>
<stop offset="0.54" stop-color="#1E405A"/>
<stop offset="0.85" stop-color="#207A91"/>
<stop offset="1" stop-color="#207A91"/>
</linearGradient>
<linearGradient id="paint2_linear_45_61480" x1="12.6241" y1="14.782" x2="28.0004" y2="14.782" gradientUnits="userSpaceOnUse">
<stop stop-color="#1E405A"/>
<stop offset="0.24" stop-color="#1E405A"/>
<stop offset="0.54" stop-color="#1E405A"/>
<stop offset="0.85" stop-color="#207A91"/>
<stop offset="1" stop-color="#207A91"/>
</linearGradient>
<linearGradient id="paint3_linear_45_61480" x1="4.44141" y1="7.46904" x2="13.544" y2="7.46904" gradientUnits="userSpaceOnUse">
<stop stop-color="#1E405A"/>
<stop offset="0.24" stop-color="#1E405A"/>
<stop offset="0.54" stop-color="#1E405A"/>
<stop offset="0.85" stop-color="#207A91"/>
<stop offset="1" stop-color="#207A91"/>
</linearGradient>
<linearGradient id="paint4_linear_45_61480" x1="4.44141" y1="12.5081" x2="13.544" y2="12.5081" gradientUnits="userSpaceOnUse">
<stop stop-color="#1E405A"/>
<stop offset="0.24" stop-color="#1E405A"/>
<stop offset="0.54" stop-color="#1E405A"/>
<stop offset="0.85" stop-color="#207A91"/>
<stop offset="1" stop-color="#207A91"/>
</linearGradient>
<linearGradient id="paint5_linear_45_61480" x1="4.44141" y1="17.5604" x2="10.2627" y2="17.5604" gradientUnits="userSpaceOnUse">
<stop stop-color="#1E405A"/>
<stop offset="0.24" stop-color="#1E405A"/>
<stop offset="0.54" stop-color="#1E405A"/>
<stop offset="0.85" stop-color="#207A91"/>
<stop offset="1" stop-color="#207A91"/>
</linearGradient>
<clipPath id="clip0_45_61480">
<rect width="28" height="26.8009" fill="white"/>
</clipPath>
</defs>
</svg>
