<svg width="30" height="30" viewBox="0 0 30 30" fill="none" xmlns="http://www.w3.org/2000/svg">
<path d="M14.2263 1.32637V1.28999L14.727 1.29068C16.4925 1.29311 18.2403 1.64326 19.8706 2.32116C21.5008 2.99905 22.9815 3.9914 24.2283 5.24156C25.475 6.49172 26.4633 7.97521 27.1367 9.6073C27.8101 11.2394 28.1554 12.9881 28.153 14.7537M14.2263 1.32637C11.7438 1.41715 9.33143 2.19472 7.25969 3.57721C5.04899 5.05242 3.32548 7.15014 2.30715 9.60502C1.28882 12.0599 1.02143 14.7616 1.5388 17.3685C2.05617 19.9754 3.33506 22.3702 5.2137 24.2501C7.09233 26.1301 9.48631 27.4106 12.0928 27.9298C14.6993 28.449 17.4012 28.1834 19.8568 27.1668C22.3124 26.1501 24.4113 24.4281 25.888 22.2184C27.3646 20.0089 28.1528 17.4111 28.153 14.7537M14.2263 1.32637V1.79068V1.8174H14.7085L14.2263 1.32637ZM28.153 14.7537L27.653 14.753H28.153C28.153 14.7532 28.153 14.7535 28.153 14.7537ZM6.82399 26.5423C9.16318 28.1037 11.9129 28.9363 14.7254 28.9347L6.82399 26.5423ZM6.82399 26.5423C4.48464 24.9807 2.66103 22.7603 1.58388 20.1621M6.82399 26.5423L1.58388 20.1621M1.58388 20.1621C0.506739 17.5639 0.224464 14.7045 0.77277 11.9458M1.58388 20.1621L0.77277 11.9458M0.77277 11.9458C1.32108 9.1871 2.67533 6.65304 4.66418 4.66419M0.77277 11.9458L4.66418 4.66419M4.66418 4.66419C6.65303 2.67534 9.18711 1.32108 11.9458 0.772772M4.66418 4.66419L11.9458 0.772772M11.9458 0.772772C14.7045 0.224466 17.5639 0.506735 20.1621 1.58388M11.9458 0.772772L20.1621 1.58388M20.1621 1.58388C22.7603 2.66103 24.9807 4.48465 26.5423 6.824M20.1621 1.58388L26.5423 6.824M26.5423 6.824C28.1037 9.16319 28.9363 11.9129 28.9347 14.7254M26.5423 6.824L28.9347 14.7254M28.9347 14.7254C28.9279 18.4918 27.4287 22.1021 24.7654 24.7654M28.9347 14.7254L24.7654 24.7654M24.7654 24.7654C22.1022 27.4285 18.4922 28.9278 14.726 28.9347L24.7654 24.7654Z" fill="#149CBE" stroke="#149CBE"/>
<path d="M11 20V9" stroke="#149CBE" stroke-width="3" stroke-linecap="round" stroke-linejoin="round"/>
<path d="M19 20V9" stroke="#149CBE" stroke-width="3" stroke-linecap="round" stroke-linejoin="round"/>
</svg>
