<svg width="30" height="30" viewBox="0 0 30 30" fill="none" xmlns="http://www.w3.org/2000/svg">
<path d="M14.7263 29.4347C11.8147 29.4365 8.96802 28.5746 6.5464 26.9581C4.12477 25.3417 2.23703 23.0432 1.122 20.3536C0.00697616 17.664 -0.285226 14.7041 0.282363 11.8483C0.849952 8.99261 2.25183 6.36943 4.31063 4.31064C6.36942 2.25184 8.99262 0.849954 11.8483 0.282365C14.7041 -0.285224 17.664 0.00697117 20.3536 1.122C23.0432 2.23703 25.3416 4.12478 26.9581 6.54641C28.5746 8.96803 29.4365 11.8147 29.4347 14.7263C29.4277 18.625 27.8758 22.3621 25.1189 25.1189C22.3621 27.8758 18.625 29.4277 14.7263 29.4347ZM14.7263 1.8174C12.1675 1.81564 9.66564 2.5728 7.53722 3.99311C5.4088 5.41342 3.74942 7.43308 2.76899 9.7966C1.78856 12.1601 1.53112 14.7613 2.02924 17.2712C2.52735 19.781 3.75865 22.0867 5.56737 23.8967C7.37609 25.7067 9.68098 26.9396 12.1905 27.4394C14.7 27.9393 17.3014 27.6836 19.6656 26.7048C22.0297 25.726 24.0505 24.068 25.4723 21.9406C26.8941 19.8131 27.653 17.3118 27.653 14.753C27.6553 13.0531 27.3228 11.3694 26.6745 9.79801C26.0261 8.22661 25.0746 6.79829 23.8742 5.59462C22.6739 4.39096 21.2482 3.43552 19.6786 2.78283C18.109 2.13015 16.4262 1.79301 14.7263 1.79068V1.8174Z" fill="#149CBE"/>
<path d="M21.5579 13.9533L11.7582 8.28732C11.6225 8.20898 11.4686 8.16781 11.3119 8.16797C11.1552 8.16812 11.0013 8.20958 10.8658 8.28819C10.7303 8.3668 10.6178 8.47977 10.5399 8.61569C10.462 8.75162 10.4213 8.9057 10.4219 9.06239V20.3855C10.4213 20.5422 10.462 20.6963 10.5399 20.8322C10.6178 20.9681 10.7303 21.0811 10.8658 21.1597C11.0013 21.2383 11.1552 21.2798 11.3119 21.2799C11.4686 21.2801 11.6225 21.2389 11.7582 21.1605L21.5579 15.5035C21.695 15.4258 21.809 15.3131 21.8884 15.1769C21.9677 15.0408 22.0095 14.886 22.0095 14.7284C22.0095 14.5708 21.9677 14.416 21.8884 14.2799C21.809 14.1437 21.695 14.031 21.5579 13.9533Z" fill="#149CBE"/>
</svg>
