<svg width="20" height="17" viewBox="0 0 20 17" fill="none" xmlns="http://www.w3.org/2000/svg">
<path d="M19.1776 3.89547L16.6747 2.05216C16.5012 1.92581 16.284 1.87222 16.0705 1.90305C15.857 1.93387 15.6646 2.04663 15.5353 2.21669L14.168 4.01884L17.966 6.82305L19.3333 5.0209C19.4641 4.85126 19.5211 4.63746 19.4919 4.42647C19.4627 4.21547 19.3497 4.0245 19.1776 3.89547Z" fill="white"/>
<path d="M9.1644 10.8416L8.85678 13.3841C8.83177 13.5722 8.85839 13.7634 8.93388 13.938C9.00938 14.1125 9.13098 14.2639 9.28606 14.3765C9.44113 14.4891 9.62403 14.5587 9.81571 14.5782C10.0074 14.5976 10.2009 14.5662 10.376 14.4871L12.765 13.4776C12.8967 13.422 13.0156 13.3406 13.1144 13.2383L9.31633 10.4453C9.23789 10.5654 9.18611 10.7004 9.1644 10.8416Z" fill="white"/>
<path d="M13.8728 4.35795L9.57812 10.0156L13.3902 12.82L17.685 7.16233L13.8728 4.35795Z" fill="white"/>
<path d="M19.1776 3.89547L16.6747 2.05216C16.5012 1.92581 16.284 1.87222 16.0705 1.90305C15.857 1.93387 15.6646 2.04663 15.5353 2.21669L14.168 4.01884L17.966 6.82305L19.3333 5.0209C19.4641 4.85126 19.5211 4.63746 19.4919 4.42647C19.4627 4.21547 19.3497 4.0245 19.1776 3.89547Z" fill="white"/>
<path d="M9.1644 10.8416L8.85678 13.3841C8.83177 13.5722 8.85839 13.7634 8.93388 13.938C9.00938 14.1125 9.13098 14.2639 9.28606 14.3765C9.44113 14.4891 9.62403 14.5587 9.81571 14.5782C10.0074 14.5976 10.2009 14.5662 10.376 14.4871L12.765 13.4776C12.8967 13.422 13.0156 13.3406 13.1144 13.2383L9.31633 10.4453C9.23789 10.5654 9.18611 10.7004 9.1644 10.8416Z" fill="white"/>
<path d="M13.8728 4.35795L9.57812 10.0156L13.3902 12.82L17.685 7.16233L13.8728 4.35795Z" fill="white"/>
<path d="M14.3031 13.5338C14.1807 13.6348 14.0843 13.7629 14.0221 13.9077C13.9897 13.9513 13.9542 13.9926 13.9157 14.0311C13.7079 14.2455 13.457 14.4148 13.1789 14.5284L10.8052 15.5342C10.5267 15.6518 10.227 15.7129 9.92398 15.7136C9.61069 15.7126 9.30118 15.6464 9.01573 15.5193C8.73027 15.3923 8.47533 15.2072 8.26766 14.9762C8.05999 14.7453 7.90429 14.4738 7.81075 14.1794C7.71721 13.8851 7.68798 13.5746 7.72493 13.2683L8.03255 10.7334C8.06397 10.4404 8.15848 10.1574 8.3098 9.9033C8.37078 9.79678 8.44903 9.7008 8.54148 9.61914C8.57279 9.54146 8.61501 9.46848 8.66684 9.4023L12.9624 3.74528C13.0111 3.68061 13.0672 3.62166 13.1296 3.56956C13.1603 3.49468 13.2011 3.42422 13.2511 3.36016L14.5462 1.65896C13.8637 1.02382 12.9597 0.670531 12.0205 0.671879H4.01422C3.03713 0.671879 2.10004 1.05398 1.40913 1.73414C0.718225 2.41429 0.330078 3.33675 0.330078 4.29863V13.2459C0.330078 14.2078 0.718225 15.1303 1.40913 15.8104C2.10004 16.4906 3.03713 16.8727 4.01422 16.8727H12.0205C12.998 16.8727 13.9354 16.4907 14.6269 15.8107C15.3184 15.1306 15.7074 14.2082 15.7084 13.2459V11.698L14.3031 13.5338ZM5.42709 3.03861C5.58559 3.03861 5.74053 3.08488 5.87231 3.17157C6.0041 3.25825 6.1068 3.3815 6.16746 3.52565C6.22812 3.66981 6.244 3.82839 6.21308 3.98143C6.18216 4.13446 6.10581 4.27507 5.99374 4.3854C5.88166 4.49573 5.73888 4.57084 5.58343 4.60128C5.42797 4.63172 5.26683 4.61613 5.1204 4.55642C4.97396 4.4967 4.84882 4.39555 4.76076 4.26582C4.6727 4.13608 4.6257 3.98356 4.6257 3.82752C4.6257 3.61829 4.7101 3.41764 4.86039 3.26969C5.01068 3.12174 5.21455 3.03861 5.42709 3.03861ZM3.14825 3.03861C3.30691 3.03787 3.46221 3.0835 3.5945 3.16974C3.72678 3.25598 3.83012 3.37896 3.89136 3.52305C3.9526 3.66714 3.969 3.82586 3.93851 3.97914C3.90802 4.13242 3.83197 4.27332 3.72005 4.38403C3.60813 4.49473 3.46534 4.57026 3.30978 4.60101C3.15423 4.63175 2.9929 4.61634 2.84625 4.55674C2.69959 4.49714 2.57423 4.39604 2.486 4.26623C2.39778 4.13641 2.35067 3.98372 2.35067 3.82752C2.35065 3.62022 2.43349 3.42125 2.58133 3.27362C2.72916 3.12599 2.93009 3.04156 3.14065 3.03861H3.14825ZM2.58235 5.42032C2.6561 5.34634 2.74421 5.2877 2.84142 5.24788C2.93864 5.20806 3.04296 5.18787 3.14825 5.1885H8.39335C8.50297 5.18106 8.61299 5.19591 8.71655 5.23209C8.8201 5.26827 8.915 5.32501 8.99533 5.39882C9.07565 5.47263 9.13972 5.56195 9.18351 5.66117C9.22731 5.76038 9.24991 5.86737 9.24991 5.97554C9.24991 6.08372 9.22731 6.19075 9.18351 6.28997C9.13972 6.38918 9.07565 6.47845 8.99533 6.55227C8.915 6.62608 8.8201 6.68286 8.71655 6.71904C8.61299 6.75522 8.50297 6.77002 8.39335 6.76258H3.14825C2.99075 6.76156 2.83703 6.71492 2.70632 6.6284C2.57562 6.54188 2.47373 6.41935 2.41335 6.27614C2.35298 6.13293 2.33679 5.97535 2.36685 5.82315C2.39691 5.67094 2.47186 5.53083 2.58235 5.42032ZM6.10315 13.7694C6.0287 13.8422 5.9404 13.8998 5.84329 13.9389C5.74618 13.9781 5.64218 13.998 5.53725 13.9975H3.14825C2.94574 13.9837 2.75605 13.8948 2.61754 13.7487C2.47902 13.6026 2.40199 13.4103 2.40199 13.2104C2.40199 13.0106 2.47902 12.8182 2.61754 12.6721C2.75605 12.526 2.94574 12.4371 3.14825 12.4233H5.53725C5.69553 12.4236 5.85017 12.4701 5.98168 12.5568C6.11319 12.6435 6.21565 12.7666 6.27618 12.9106C6.33671 13.0545 6.3526 13.213 6.3218 13.3658C6.29101 13.5186 6.21493 13.6591 6.10315 13.7694ZM6.10315 11.3503C6.0294 11.4242 5.94129 11.4829 5.84408 11.5227C5.74687 11.5625 5.64254 11.5827 5.53725 11.5821H3.14825C2.93571 11.5821 2.73185 11.499 2.58156 11.351C2.43127 11.2031 2.34687 11.0024 2.34687 10.7932C2.34687 10.5839 2.43127 10.3833 2.58156 10.2353C2.73185 10.0874 2.93571 10.0043 3.14825 10.0043H5.53725C5.69553 10.0046 5.85017 10.051 5.98168 10.1377C6.11319 10.2244 6.21565 10.3475 6.27618 10.4915C6.33671 10.6355 6.3526 10.7938 6.3218 10.9467C6.29101 11.0995 6.21493 11.2399 6.10315 11.3503ZM6.98428 8.93119C6.8343 9.07923 6.63076 9.1626 6.41838 9.163H3.14825C2.93571 9.163 2.73185 9.07987 2.58156 8.93192C2.43127 8.78397 2.34687 8.58332 2.34687 8.37409C2.34687 8.16485 2.43127 7.96421 2.58156 7.81626C2.73185 7.66831 2.93571 7.58518 3.14825 7.58518H6.41838C6.57666 7.58547 6.7313 7.63188 6.86281 7.71859C6.99432 7.80529 7.09683 7.92843 7.15736 8.0724C7.21789 8.21637 7.23373 8.37474 7.20293 8.52758C7.17213 8.68042 7.09606 8.82086 6.98428 8.93119Z" fill="white"/>
<mask id="mask0_10_7629" style="mask-type:luminance" maskUnits="userSpaceOnUse" x="14" y="1" width="6" height="6">
<path d="M19.1795 3.89547L16.6766 2.05216C16.5032 1.92581 16.2859 1.87222 16.0724 1.90305C15.8589 1.93387 15.6665 2.04663 15.5372 2.21669L14.1699 4.01884L17.968 6.82305L19.3353 5.0209C19.466 4.85126 19.5231 4.63746 19.4939 4.42647C19.4647 4.21547 19.3516 4.0245 19.1795 3.89547Z" fill="white"/>
</mask>
<g mask="url(#mask0_10_7629)">
<path d="M14.1641 6.76172L14.259 6.82528H14.1641V6.76172Z" fill="white"/>
<path d="M14.1641 6.58984L14.4983 6.8254H14.259L14.1641 6.76183V6.58984Z" fill="white"/>
<path d="M14.1641 6.42188L14.7338 6.82568H14.4983L14.1641 6.59013V6.42188Z" fill="white"/>
<path d="M14.1641 6.25391L14.973 6.82596H14.7338L14.1641 6.42216V6.25391Z" fill="white"/>
<path d="M14.1641 6.08203L15.2123 6.82608H14.973L14.1641 6.25402V6.08203Z" fill="white"/>
<path d="M14.1641 5.91406L15.4516 6.82636H15.2123L14.1641 6.08231V5.91406Z" fill="white"/>
<path d="M14.1641 5.74219L15.6909 6.82274H15.4516L14.1641 5.91044V5.74219Z" fill="white"/>
<path d="M14.1641 5.57031L15.9264 6.82286H15.6909L14.1641 5.7423V5.57031Z" fill="white"/>
<path d="M14.1641 5.40625L16.1656 6.82705H15.9264L14.1641 5.5745V5.40625Z" fill="white"/>
<path d="M14.1641 5.23438L16.4049 6.82342H16.1656L14.1641 5.40263V5.23438Z" fill="white"/>
<path d="M14.1641 5.0625L16.6442 6.82354H16.4049L14.1641 5.23449V5.0625Z" fill="white"/>
<path d="M14.1641 4.89844L16.8835 6.82773H16.6442L14.1641 5.06669V4.89844Z" fill="white"/>
<path d="M14.1641 4.72656L17.1228 6.82411H16.8835L14.1641 4.89481V4.72656Z" fill="white"/>
<path d="M14.1641 4.55469L17.362 6.82422H17.1228L14.1641 4.72668V4.55469Z" fill="white"/>
<path d="M14.1641 4.38672L17.5975 6.82451H17.362L14.1641 4.55497V4.38672Z" fill="white"/>
<path d="M14.1641 4.21875L17.8368 6.82479H17.5975L14.1641 4.387V4.21875Z" fill="white"/>
<path d="M14.1641 4.04688L18.0761 6.82491H17.8368L14.1641 4.21887V4.04688Z" fill="white"/>
<path d="M14.1641 3.87891L18.3153 6.82519H18.0761L14.1641 4.04716V3.87891Z" fill="white"/>
<path d="M14.1641 2.74249L14.8629 1.78906H19.6181V5.94676L18.9724 6.82542H18.3153L14.1641 3.87913V2.74249Z" fill="white"/>
</g>
<mask id="mask1_10_7629" style="mask-type:luminance" maskUnits="userSpaceOnUse" x="8" y="10" width="6" height="5">
<path d="M9.1644 10.8416L8.85678 13.3841C8.83177 13.5722 8.85839 13.7634 8.93388 13.938C9.00938 14.1125 9.13098 14.2639 9.28606 14.3765C9.44113 14.4891 9.62403 14.5587 9.81571 14.5782C10.0074 14.5976 10.2009 14.5662 10.376 14.4871L12.765 13.4776C12.8967 13.422 13.0156 13.3406 13.1144 13.2383L9.31633 10.4453C9.23789 10.5654 9.18611 10.7004 9.1644 10.8416Z" fill="white"/>
</mask>
<g mask="url(#mask1_10_7629)">
<path d="M8.75781 14.4453L9.27435 14.808H9.03507L8.75781 14.6136V14.4453Z" fill="white"/>
<path d="M8.75781 14.2734L9.51363 14.8081H9.27435L8.75781 14.4454V14.2734Z" fill="white"/>
<path d="M8.75781 14.1055L9.74911 14.8084H9.51363L8.75781 14.2737V14.1055Z" fill="white"/>
<path d="M8.75781 13.9375L9.98838 14.8087H9.74911L8.75781 14.1058V13.9375Z" fill="white"/>
<path d="M8.75781 13.7656L10.2277 14.8088H9.98838L8.75781 13.9376V13.7656Z" fill="white"/>
<path d="M8.75781 13.5977L10.4669 14.8091H10.2277L8.75781 13.7659V13.5977Z" fill="white"/>
<path d="M8.75781 13.4297L10.7062 14.8094H10.4669L8.75781 13.5979V13.4297Z" fill="white"/>
<path d="M8.75781 13.2578L10.9455 14.8095H10.7062L8.75781 13.4298V13.2578Z" fill="white"/>
<path d="M8.75781 13.0898L11.181 14.8098H10.9455L8.75781 13.2581V13.0898Z" fill="white"/>
<path d="M8.75781 12.9219L11.4203 14.81H11.181L8.75781 13.0901V12.9219Z" fill="white"/>
<path d="M8.75781 12.75L11.6595 14.8102H11.4203L8.75781 12.922V12.75Z" fill="white"/>
<path d="M8.75781 12.5781L11.8988 14.8065H11.6595L8.75781 12.7464V12.5781Z" fill="white"/>
<path d="M8.75781 12.4102L12.1381 14.8068H11.8988L8.75781 12.5784V12.4102Z" fill="white"/>
<path d="M8.75781 12.2383L12.3774 14.8069H12.1381L8.75781 12.4103V12.2383Z" fill="white"/>
<path d="M8.75781 12.0703L12.6128 14.8072H12.3774L8.75781 12.2386V12.0703Z" fill="white"/>
<path d="M8.75781 11.9062L12.8521 14.8114H12.6128L8.75781 12.0745V11.9062Z" fill="white"/>
<path d="M8.75781 11.7344L12.9509 14.7143L12.8787 14.8115H12.8521L8.75781 11.9064V11.7344Z" fill="white"/>
<path d="M8.75781 11.5625L13.0344 14.5985L12.9509 14.7107L8.75781 11.7308V11.5625Z" fill="white"/>
<path d="M8.75781 11.3945L13.0952 14.4717V14.5165L13.0344 14.5988L8.75781 11.5628V11.3945Z" fill="white"/>
<path d="M8.75781 11.2227L13.0952 14.3035V14.4718L8.75781 11.3946V11.2227Z" fill="white"/>
<path d="M8.75781 11.0547L13.0952 14.1356V14.3038L8.75781 11.2229V11.0547Z" fill="white"/>
<path d="M8.75781 10.8867L13.0952 13.9639V14.1359L8.75781 11.055V10.8867Z" fill="white"/>
<path d="M8.75781 10.7148L13.0952 13.7957V13.964L8.75781 10.8868V10.7148Z" fill="white"/>
<path d="M8.75781 10.5469L13.0952 13.6278V13.796L8.75781 10.7151V10.5469Z" fill="white"/>
<path d="M8.85276 10.4453L13.0952 13.4552V13.6272L8.75781 10.5463V10.4453H8.85276Z" fill="white"/>
<path d="M9.09084 10.4453L13.094 13.2869V13.4552L8.85156 10.4453H9.09084Z" fill="white"/>
<path d="M9.33303 10.4453L13.0969 13.1187V13.2869L9.09375 10.4453H9.33303Z" fill="white"/>
<path d="M9.57131 10.4453L13.0959 12.9467V13.1187L9.33203 10.4453H9.57131Z" fill="white"/>
<path d="M9.80959 10.4453L13.0949 12.7784V12.9467L9.57031 10.4453H9.80959Z" fill="white"/>
<path d="M10.0479 10.4453L13.0939 12.6102V12.7784L9.80859 10.4453H10.0479Z" fill="white"/>
<path d="M10.2863 10.4453L13.0968 12.4382V12.6102L10.0508 10.4453H10.2863Z" fill="white"/>
<path d="M10.5244 10.4453L13.0957 12.2699V12.4382L10.2852 10.4453H10.5244Z" fill="white"/>
<path d="M10.7627 10.4453L13.0947 12.1017V12.2699L10.5234 10.4453H10.7627Z" fill="white"/>
<path d="M11.0029 10.4453L13.0957 11.9297V12.1017L10.7637 10.4453H11.0029Z" fill="white"/>
<path d="M11.2412 10.4453L13.0947 11.7614V11.9297L11.002 10.4453H11.2412Z" fill="white"/>
<path d="M11.4815 10.4453L13.0956 11.5932V11.7614L11.2422 10.4453H11.4815Z" fill="white"/>
<path d="M11.7159 10.4453L13.0946 11.4212V11.5932L11.4805 10.4453H11.7159Z" fill="white"/>
<path d="M11.9561 10.4453L13.0955 11.2529V11.4212L11.7168 10.4453H11.9561Z" fill="white"/>
<path d="M12.1944 10.4453L13.0945 11.0847V11.2529L11.9551 10.4453H12.1944Z" fill="white"/>
<path d="M12.4326 10.4453L13.0935 10.9127V11.0847L12.1934 10.4453H12.4326Z" fill="white"/>
<path d="M12.6748 10.4453L13.0964 10.7444V10.9127L12.4355 10.4453H12.6748Z" fill="white"/>
<path d="M12.9131 10.4453L13.0954 10.5762V10.7444L12.6738 10.4453H12.9131Z" fill="white"/>
<path d="M13.0964 10.5762L12.9141 10.4453H13.0964V10.5762Z" fill="white"/>
</g>
<mask id="mask2_10_7629" style="mask-type:luminance" maskUnits="userSpaceOnUse" x="9" y="4" width="9" height="9">
<path d="M13.8728 4.36186L9.57812 10.0195L13.3902 12.8239L17.685 7.16624L13.8728 4.36186Z" fill="white"/>
</mask>
<g mask="url(#mask2_10_7629)">
<path d="M9.57812 12.6562L9.87058 12.8619H9.6313L9.57812 12.8245V12.6562Z" fill="white"/>
<path d="M9.57812 12.4922L10.1099 12.8661H9.87058L9.57812 12.6604V12.4922Z" fill="white"/>
<path d="M9.57812 12.3203L10.3491 12.8662H10.1099L9.57812 12.4923V12.3203Z" fill="white"/>
<path d="M9.57812 12.1484L10.5884 12.8626H10.3491L9.57812 12.3167V12.1484Z" fill="white"/>
<path d="M9.57812 11.9805L10.8277 12.8629H10.5884L9.57812 12.1487V11.9805Z" fill="white"/>
<path d="M9.57812 11.8086L11.0632 12.863H10.8277L9.57812 11.9806V11.8086Z" fill="white"/>
<path d="M9.57812 11.6406L11.3024 12.8633H11.0632L9.57812 11.8089V11.6406Z" fill="white"/>
<path d="M9.57812 11.4727L11.5417 12.8635H11.3024L9.57812 11.6409V11.4727Z" fill="white"/>
<path d="M9.57812 11.3008L11.781 12.8637H11.5417L9.57812 11.4728V11.3008Z" fill="white"/>
<path d="M9.57812 11.1328L12.0203 12.8639H11.781L9.57812 11.3011V11.1328Z" fill="white"/>
<path d="M9.57812 10.9648L12.2596 12.8642H12.0203L9.57812 11.1331V10.9648Z" fill="white"/>
<path d="M9.57812 10.793L12.495 12.8643H12.2596L9.57812 10.965V10.793Z" fill="white"/>
<path d="M9.57812 10.625L12.7343 12.8646H12.495L9.57812 10.7933V10.625Z" fill="white"/>
<path d="M9.57812 10.4531L12.9736 12.861H12.7343L9.57812 10.6214V10.4531Z" fill="white"/>
<path d="M9.57812 10.2812L13.2129 12.8611H12.9736L9.57812 10.4532V10.2812Z" fill="white"/>
<path d="M9.57812 10.1172L13.4521 12.8653H13.2129L9.57812 10.2854V10.1172Z" fill="white"/>
<path d="M9.57812 9.94922L13.6876 12.8656H13.4521L9.57812 10.1175V9.94922Z" fill="white"/>
<path d="M9.57812 9.77344L13.9269 12.8618H13.6876L9.57812 9.94543V9.77344Z" fill="white"/>
<path d="M9.57812 9.60938L14.1662 12.866H13.9269L9.57812 9.77763V9.60938Z" fill="white"/>
<path d="M9.57812 9.4375L14.4055 12.8624H14.1662L9.57812 9.60575V9.4375Z" fill="white"/>
<path d="M9.57812 9.26562L14.5346 12.784L14.4776 12.8625H14.4055L9.57812 9.43762V9.26562Z" fill="white"/>
<path d="M9.57812 9.09766L14.6144 12.6758L14.5346 12.7843L9.57812 9.26591V9.09766Z" fill="white"/>
<path d="M9.57812 8.92969L14.6979 12.5639L14.6144 12.6761L9.57812 9.09794V8.92969Z" fill="white"/>
<path d="M9.57812 8.78432L9.58952 8.76562L14.7777 12.4522L14.6979 12.5644L9.57812 8.93014V8.78432Z" fill="white"/>
<path d="M9.67402 8.66125L9.5918 8.77344L14.7786 12.4574L14.8609 12.3452L9.67402 8.66125Z" fill="white"/>
<path d="M9.75217 8.54793L9.66992 8.66016L14.8568 12.3442L14.939 12.2319L9.75217 8.54793Z" fill="white"/>
<path d="M11.3876 11.1458L11.3047 11.2578L16.4854 14.9727L16.5683 14.8606L11.3876 11.1458Z" fill="white"/>
<path d="M9.91816 8.32531L9.83594 8.4375L15.0228 12.1215L15.105 12.0093L9.91816 8.32531Z" fill="white"/>
<path d="M10.0002 8.21594L9.91797 8.32812L15.1049 12.0121L15.1871 11.9L10.0002 8.21594Z" fill="white"/>
<path d="M10.0861 8.09875L10.0039 8.21094L15.1908 11.8949L15.273 11.7827L10.0861 8.09875Z" fill="white"/>
<path d="M10.1643 7.99328L10.082 8.10547L15.2689 11.7895L15.3511 11.6773L10.1643 7.99328Z" fill="white"/>
<path d="M11.8017 10.5833L11.7188 10.6953L16.8994 14.4102L16.9824 14.2981L11.8017 10.5833Z" fill="white"/>
<path d="M10.3283 7.77062L10.2461 7.88281L15.4329 11.5668L15.5152 11.4546L10.3283 7.77062Z" fill="white"/>
<path d="M10.4103 7.65734L10.3281 7.76953L15.515 11.4536L15.5972 11.3414L10.4103 7.65734Z" fill="white"/>
<path d="M10.4924 7.54406L10.4102 7.65625L15.597 11.3402L15.6792 11.2281L10.4924 7.54406Z" fill="white"/>
<path d="M10.5705 7.43469L10.4883 7.54688L15.6751 11.2309L15.7573 11.1187L10.5705 7.43469Z" fill="white"/>
<path d="M10.6525 7.32141L10.5703 7.43359L15.7572 11.1176L15.8394 11.0054L10.6525 7.32141Z" fill="white"/>
<path d="M12.2919 9.91138L12.209 10.0234L17.3897 13.7383L17.4726 13.6262L12.2919 9.91138Z" fill="white"/>
<path d="M10.8205 7.09875L10.7383 7.21094L15.9251 10.8949L16.0073 10.7827L10.8205 7.09875Z" fill="white"/>
<path d="M10.9025 6.98937L10.8203 7.10156L16.0072 10.7856L16.0894 10.6734L10.9025 6.98937Z" fill="white"/>
<path d="M10.9826 6.87609L10.9004 6.98828L16.0872 10.6723L16.1695 10.5601L10.9826 6.87609Z" fill="white"/>
<path d="M11.0627 6.76281L10.9805 6.875L16.1674 10.559L16.2496 10.4468L11.0627 6.76281Z" fill="white"/>
<path d="M11.1447 6.65344L11.0625 6.76562L16.2493 10.4496L16.3316 10.3374L11.1447 6.65344Z" fill="white"/>
<path d="M12.788 9.23951L12.7051 9.35156L17.8858 13.0664L17.9687 12.9544L12.788 9.23951Z" fill="white"/>
<path d="M11.3088 6.43469L11.2266 6.54688L16.4134 10.2309L16.4957 10.1187L11.3088 6.43469Z" fill="white"/>
<path d="M11.3889 6.32141L11.3066 6.43359L16.4935 10.1176L16.5757 10.0054L11.3889 6.32141Z" fill="white"/>
<path d="M11.4689 6.20812L11.3867 6.32031L16.5736 10.0043L16.6558 9.89215L11.4689 6.20812Z" fill="white"/>
<path d="M11.551 6.09484L11.4688 6.20703L16.6556 9.89103L16.7378 9.77884L11.551 6.09484Z" fill="white"/>
<path d="M13.1962 8.68482L13.1133 8.79688L18.294 12.5117L18.3769 12.3997L13.1962 8.68482Z" fill="white"/>
<path d="M11.7189 5.87219L11.6367 5.98438L16.8236 9.6684L16.9058 9.55621L11.7189 5.87219Z" fill="white"/>
<path d="M11.799 5.76281L11.7168 5.875L16.9036 9.559L16.9859 9.44681L11.799 5.76281Z" fill="white"/>
<path d="M11.8791 5.64953L11.7969 5.76172L16.9837 9.44572L17.0659 9.33353L11.8791 5.64953Z" fill="white"/>
<path d="M11.9611 5.53625L11.8789 5.64844L17.0658 9.33244L17.148 9.22025L11.9611 5.53625Z" fill="white"/>
<path d="M12.0432 5.42297L11.9609 5.53516L17.1478 9.21915L17.23 9.10697L12.0432 5.42297Z" fill="white"/>
<path d="M13.6884 8.01295L13.6055 8.125L18.7862 11.8399L18.8691 11.7278L13.6884 8.01295Z" fill="white"/>
<path d="M12.2072 5.20031L12.125 5.3125L17.3118 8.9965L17.3941 8.88431L12.2072 5.20031Z" fill="white"/>
<path d="M12.2853 5.09094L12.2031 5.20312L17.39 8.88712L17.4722 8.77494L12.2853 5.09094Z" fill="white"/>
<path d="M12.3674 4.98156L12.2852 5.09375L17.472 8.77775L17.5542 8.66556L12.3674 4.98156Z" fill="white"/>
<path d="M12.4514 4.87219L12.3691 4.98438L17.556 8.66837L17.6382 8.55619L12.4514 4.87219Z" fill="white"/>
<path d="M12.4492 4.86607L12.5328 4.75391L17.6867 8.41433V8.48537L17.6374 8.55267L12.4492 4.86607Z" fill="white"/>
<path d="M12.5312 4.75279L12.611 4.64062L17.6852 8.24496V8.41322L12.5312 4.75279Z" fill="white"/>
<path d="M12.6133 4.63968L12.6968 4.53125L17.6875 8.07577V8.24402L12.6133 4.63968Z" fill="white"/>
<path d="M12.6953 4.53404L12.7751 4.42188L17.686 7.90657V8.07856L12.6953 4.53404Z" fill="white"/>
<path d="M12.7773 4.42104L12.7925 4.40234H12.9938L17.6882 7.73748V7.90573L12.7773 4.42104Z" fill="white"/>
<path d="M13.2315 4.40234L17.6866 7.56923V7.73748L12.9922 4.40234H13.2315Z" fill="white"/>
<path d="M13.4679 4.40234L17.6875 7.39724V7.56923L13.2324 4.40234H13.4679Z" fill="white"/>
<path d="M13.7061 4.40234L17.6864 7.22898V7.39724L13.4668 4.40234H13.7061Z" fill="white"/>
<path d="M13.9463 4.40234L17.6874 7.06073V7.22898L13.707 4.40234H13.9463Z" fill="white"/>
<path d="M14.1846 4.40234L17.6864 6.88874V7.06073L13.9453 4.40234H14.1846Z" fill="white"/>
<path d="M14.4248 4.40234L17.6874 6.72049V6.88874L14.1855 4.40234H14.4248Z" fill="white"/>
<path d="M14.6631 4.40234L17.6864 6.55223V6.72049L14.4238 4.40234H14.6631Z" fill="white"/>
<path d="M14.9015 4.40234L17.6893 6.38024V6.55223L14.666 4.40234H14.9015Z" fill="white"/>
<path d="M17.6862 6.38024L14.8984 4.40234H17.6862V6.38024Z" fill="white"/>
</g>
</svg>
