<svg width="30" height="30" viewBox="0 0 30 30" fill="none" xmlns="http://www.w3.org/2000/svg">
<path d="M15.031 29.4347C12.1194 29.4365 9.27271 28.5746 6.85108 26.9581C4.42946 25.3417 2.54172 23.0432 1.42669 20.3536C0.311664 17.664 0.0194616 14.7041 0.58705 11.8483C1.15464 8.99261 2.55652 6.36943 4.61532 4.31064C6.67411 2.25184 9.29731 0.849954 12.153 0.282365C15.0088 -0.285224 17.9687 0.00697112 20.6583 1.122C23.3479 2.23703 25.6463 4.12478 27.2628 6.54641C28.8793 8.96803 29.7412 11.8147 29.7394 14.7263C29.7324 18.625 28.1805 22.3621 25.4236 25.1189C22.6668 27.8758 18.9297 29.4277 15.031 29.4347ZM15.031 1.8174C12.4722 1.81564 9.97033 2.5728 7.84191 3.99311C5.71349 5.41342 4.05411 7.43308 3.07368 9.7966C2.09325 12.1601 1.83581 14.7613 2.33393 17.2712C2.83204 19.781 4.06334 22.0867 5.87206 23.8967C7.68078 25.7067 9.98567 26.9396 12.4952 27.4394C15.0047 27.9393 17.6061 27.6836 19.9702 26.7048C22.3344 25.726 24.3552 24.068 25.777 21.9406C27.1988 19.8131 27.9577 17.3118 27.9577 14.753C27.96 13.0531 27.6275 11.3694 26.9792 9.79801C26.3308 8.22661 25.3793 6.79829 24.1789 5.59462C22.9786 4.39096 21.5529 3.43552 19.9833 2.78283C18.4137 2.13015 16.7309 1.79301 15.031 1.79068V1.8174Z" fill="#149CBE"/>
<path fill-rule="evenodd" clip-rule="evenodd" d="M7 10.1984C7 9.75661 7.35817 9.39844 7.8 9.39844H22.2C22.6418 9.39844 23 9.75661 23 10.1984C23 10.6403 22.6418 10.9984 22.2 10.9984H7.8C7.35817 10.9984 7 10.6403 7 10.1984Z" fill="#149CBE"/>
<path fill-rule="evenodd" clip-rule="evenodd" d="M13.4016 7.79922C13.1894 7.79922 12.9859 7.8835 12.8359 8.03353C12.6858 8.18356 12.6016 8.38705 12.6016 8.59922V10.1992C12.6016 10.641 12.2434 10.9992 11.8016 10.9992C11.3597 10.9992 11.0016 10.641 11.0016 10.1992V8.59922C11.0016 7.9627 11.2544 7.35225 11.7045 6.90216C12.1546 6.45208 12.765 6.19922 13.4016 6.19922H16.6016C17.2381 6.19922 17.8485 6.45208 18.2986 6.90216C18.7487 7.35225 19.0016 7.9627 19.0016 8.59922V10.1992C19.0016 10.641 18.6434 10.9992 18.2016 10.9992C17.7597 10.9992 17.4016 10.641 17.4016 10.1992V8.59922C17.4016 8.38705 17.3173 8.18356 17.1672 8.03353C17.0172 7.8835 16.8137 7.79922 16.6016 7.79922H13.4016ZM9.40156 9.39922C9.84339 9.39922 10.2016 9.75739 10.2016 10.1992V21.3992C10.2016 21.6114 10.2858 21.8149 10.4359 21.9649C10.5859 22.1149 10.7894 22.1992 11.0016 22.1992H19.0016C19.2137 22.1992 19.4172 22.1149 19.5672 21.9649C19.7173 21.8149 19.8016 21.6114 19.8016 21.3992V10.1992C19.8016 9.75739 20.1597 9.39922 20.6016 9.39922C21.0434 9.39922 21.4016 9.75739 21.4016 10.1992V21.3992C21.4016 22.0357 21.1487 22.6462 20.6986 23.0963C20.2485 23.5464 19.6381 23.7992 19.0016 23.7992H11.0016C10.365 23.7992 9.75459 23.5464 9.30451 23.0963C8.85442 22.6462 8.60156 22.0357 8.60156 21.3992V10.1992C8.60156 9.75739 8.95973 9.39922 9.40156 9.39922Z" fill="#149CBE"/>
<path fill-rule="evenodd" clip-rule="evenodd" d="M13.4016 13.3984C13.8434 13.3984 14.2016 13.7566 14.2016 14.1984V18.9984C14.2016 19.4403 13.8434 19.7984 13.4016 19.7984C12.9597 19.7984 12.6016 19.4403 12.6016 18.9984V14.1984C12.6016 13.7566 12.9597 13.3984 13.4016 13.3984Z" fill="#149CBE"/>
<path fill-rule="evenodd" clip-rule="evenodd" d="M16.6008 13.3984C17.0426 13.3984 17.4008 13.7566 17.4008 14.1984V18.9984C17.4008 19.4403 17.0426 19.7984 16.6008 19.7984C16.159 19.7984 15.8008 19.4403 15.8008 18.9984V14.1984C15.8008 13.7566 16.159 13.3984 16.6008 13.3984Z" fill="#149CBE"/>
</svg>
