<svg width="16" height="17" viewBox="0 0 16 17" fill="none" xmlns="http://www.w3.org/2000/svg">
<path d="M11.8863 0.450952C11.6776 0.419616 11.4669 0.403368 11.2558 0.402344H3.87621C2.85077 0.402344 1.86733 0.803371 1.14223 1.51718C0.417136 2.23099 0.00976749 3.19913 0.00976749 4.20861V12.939C0.00926785 13.439 0.108931 13.9342 0.30306 14.3962C0.497189 14.8582 0.781988 15.278 1.14112 15.6315C1.50025 15.9851 1.92666 16.2654 2.39598 16.4565C2.8653 16.6476 3.36832 16.7458 3.87621 16.7453H11.2558C11.7631 16.7448 12.2652 16.6459 12.7337 16.4544C13.2021 16.2628 13.6277 15.9823 13.986 15.6289C14.3443 15.2755 14.6284 14.856 14.8221 14.3945C15.0158 13.933 15.1152 13.4384 15.1147 12.939V4.20112C15.1145 3.30101 14.7899 2.43012 14.1988 1.74342C13.6077 1.05673 12.7882 0.598758 11.8863 0.450952ZM8.33133 5.20318C8.33168 5.04136 8.38028 4.88318 8.47111 4.74831C8.56195 4.61345 8.69102 4.50779 8.84229 4.44448C8.99357 4.38117 9.16038 4.36299 9.32206 4.39218C9.48374 4.42136 9.63318 4.49662 9.7518 4.60865L12.4522 7.16612C12.5333 7.24319 12.5978 7.3355 12.6418 7.43764C12.6859 7.53978 12.7086 7.64964 12.7086 7.7606C12.7086 7.87156 12.6859 7.98137 12.6418 8.08351C12.5978 8.18565 12.5333 8.27801 12.4522 8.35508L9.7518 10.9125C9.63318 11.0245 9.48374 11.0998 9.32206 11.129C9.16038 11.1582 8.99357 11.14 8.84229 11.0767C8.69102 11.0134 8.56195 10.9078 8.47111 10.7729C8.38028 10.638 8.33168 10.4798 8.33133 10.318V5.20318ZM7.19191 5.71167C7.26325 5.70759 7.3347 5.71792 7.40184 5.74202C7.46898 5.76612 7.5304 5.80346 7.58233 5.85179C7.63427 5.90011 7.67558 5.95835 7.7038 6.02299C7.73202 6.08762 7.74653 6.15729 7.74641 6.22764V9.32345C7.74746 9.4574 7.69516 9.58643 7.60074 9.68288C7.50631 9.77933 7.3773 9.83552 7.24129 9.83943C6.30696 9.86186 4.32818 10.1311 3.4926 11.8884C3.4446 11.984 3.36743 12.0626 3.27192 12.113C3.1764 12.1634 3.06733 12.1831 2.95985 12.1696C2.85236 12.156 2.75183 12.1097 2.67235 12.0372C2.59287 11.9646 2.53838 11.8695 2.51648 11.765C1.65812 7.61477 3.91038 5.88366 7.1805 5.71167H7.19191Z" fill="white"/>
</svg>
