<svg width="50" height="50" viewBox="0 0 50 50" fill="none" xmlns="http://www.w3.org/2000/svg">
<circle cx="25" cy="25" r="25" fill="#149CBE"/>
<g clip-path="url(#clip0_10_7559)">
<path d="M35.5398 24.4632H34.4228C33.9058 23.0368 33.0797 21.7423 32.0039 20.6724C30.928 19.6026 29.6289 18.7839 28.1996 18.2748V21.92C29.0437 22.4064 29.7772 23.0633 30.3533 23.8489C30.9294 24.6345 31.3355 25.5315 31.5456 26.4827C31.6207 26.8567 31.8234 27.1929 32.119 27.4339C32.4146 27.675 32.7848 27.8059 33.1662 27.8042H35.5398C36.6335 27.8042 37.6825 28.2386 38.4559 29.012C39.2292 29.7854 39.6637 30.8343 39.6637 31.9281C39.6637 33.0218 39.2292 34.0707 38.4559 34.8441C37.6825 35.6175 36.6335 36.052 35.5398 36.052H15.2046C14.1109 36.052 13.062 35.6175 12.2886 34.8441C11.5152 34.0707 11.0807 33.0218 11.0807 31.9281C11.0807 30.8343 11.5152 29.7854 12.2886 29.012C13.062 28.2386 14.1109 27.8042 15.2046 27.8042H16.3914C16.7748 27.8048 17.1468 27.674 17.4453 27.4335C17.7439 27.193 17.951 26.8574 18.032 26.4827C18.2507 25.4663 18.695 24.5122 19.332 23.6905C19.9689 22.8688 20.7823 22.2007 21.7121 21.7355V18.1602C20.2065 18.6377 18.8308 19.4549 17.6912 20.5487C16.5517 21.6424 15.6787 22.9834 15.1398 24.4682C13.242 24.5964 11.4643 25.4427 10.1684 26.8352C8.87257 28.2276 8.15587 30.0614 8.16413 31.9635C8.17239 33.8656 8.905 35.6931 10.2129 37.0742C11.5208 38.4553 13.3058 39.2862 15.2046 39.3979H35.5398C37.438 39.2777 39.219 38.4389 40.5207 37.0522C41.8223 35.6655 42.5469 33.835 42.5469 31.9331C42.5469 30.0311 41.8223 28.2006 40.5207 26.8139C39.219 25.4272 37.438 24.5884 35.5398 24.4682V24.4632Z" fill="white"/>
<path d="M19.9278 15.9273L23.209 12.6711V25.3818C23.1966 25.6092 23.2306 25.8367 23.3091 26.0505C23.3875 26.2643 23.5088 26.4598 23.6653 26.6252C23.8219 26.7906 24.0106 26.9223 24.2197 27.0123C24.4289 27.1023 24.6542 27.1487 24.882 27.1487C25.1097 27.1487 25.335 27.1023 25.5442 27.0123C25.7534 26.9223 25.942 26.7906 26.0986 26.6252C26.2552 26.4598 26.3764 26.2643 26.4548 26.0505C26.5333 25.8367 26.5674 25.6092 26.5549 25.3818V12.6761L29.8361 15.9323C30.1566 16.2175 30.5743 16.3688 31.003 16.3551C31.4318 16.3415 31.839 16.1639 32.1407 15.859C32.4425 15.554 32.6157 15.145 32.6249 14.7161C32.634 14.2872 32.4783 13.8712 32.1898 13.5537L26.0563 7.47506L25.9964 7.43519C25.9355 7.37829 25.8687 7.3281 25.797 7.28557C25.7301 7.23929 25.6601 7.19764 25.5875 7.16091C25.5666 7.1465 25.545 7.13321 25.5227 7.12103C25.4703 7.10482 25.4171 7.09153 25.3632 7.08116C25.2853 7.05422 25.2052 7.0342 25.1238 7.02133C25.0425 7.01372 24.9607 7.01372 24.8795 7.02133C24.7999 7.01389 24.7197 7.01389 24.6401 7.02133C24.5587 7.0342 24.4786 7.05422 24.4008 7.08116C24.3459 7.08116 24.2911 7.08114 24.2362 7.12103C24.1814 7.16093 24.1963 7.15093 24.1714 7.16091C24.1004 7.19766 24.0321 7.23932 23.9669 7.28557C23.8945 7.32927 23.8261 7.37936 23.7625 7.43519L23.7026 7.47506L17.5742 13.5537C17.2857 13.8712 17.1299 14.2872 17.1391 14.7161C17.1482 15.145 17.3215 15.554 17.6232 15.859C17.9249 16.1639 18.3321 16.3415 18.7609 16.3551C19.1896 16.3688 19.6073 16.2175 19.9278 15.9323V15.9273Z" fill="white"/>
</g>
<defs>
<clipPath id="clip0_10_7559">
<rect width="35.27" height="32.3927" fill="white" transform="translate(7.73047 7)"/>
</clipPath>
</defs>
</svg>
