<svg width="267" height="85" viewBox="0 0 267 85" fill="none" xmlns="http://www.w3.org/2000/svg">
<g clip-path="url(#clip0_6_36642)">
<path d="M30.4194 0.2934C25.0733 0.274354 19.8216 1.7112 15.2203 4.45178C10.6031 7.2084 6.77407 11.1225 4.10662 15.8125C1.43917 20.5026 0.0243621 25.8085 2.67533e-05 31.2129C-0.0168806 36.6122 1.4071 41.9169 4.1232 46.5725C6.78534 51.2323 10.6108 55.1108 15.2203 57.8237C19.8196 60.5698 25.0722 62.0094 30.4194 61.9893C38.5192 61.9647 46.2804 58.7144 52.0079 52.948C57.7353 47.1816 60.9637 39.3678 60.9881 31.2129C61.0068 27.1593 60.23 23.1419 58.7022 19.3914C57.1743 15.6409 54.9256 12.2312 52.0852 9.35814C49.2448 6.48511 45.8685 4.20535 42.1505 2.64975C38.4324 1.09415 34.4457 0.293356 30.4194 0.2934ZM30.4194 51.5754C26.9573 51.5892 23.5584 50.6433 20.5948 48.8413C17.5478 47.0679 15.0309 44.5018 13.3081 41.412C10.6865 36.7328 9.97815 31.2096 11.3331 26.0134C12.6881 20.8172 15.9999 16.3566 20.5663 13.5773C23.5406 11.7809 26.9511 10.8493 30.4194 10.8862C33.9233 10.8609 37.3665 11.8068 40.372 13.6203C43.4256 15.4033 45.9453 17.9821 47.6658 21.0853C50.3201 25.7514 51.0391 31.2832 49.6669 36.4798C48.2947 41.6764 44.9419 46.1184 40.3365 48.8413C37.3425 50.6512 33.9116 51.5971 30.4194 51.5754Z" fill="#3B3AEF"/>
<path d="M70.5213 21.708C69.0378 22.9744 67.8501 24.5546 67.0427 26.3361C66.2354 28.1176 65.8284 30.0565 65.8507 32.0145V60.8012L76.5142 61.2807V33.7681C76.5029 32.7657 76.6964 31.7717 77.0829 30.8479C77.6872 29.4164 78.6042 28.5074 81.1563 28.5074H89.2677V17.793H80.8721C77.0574 17.7518 73.3654 19.1482 70.5213 21.708Z" fill="#3B3AEF"/>
<path d="M104.168 17.8002H93.391V60.9658H104.168V17.8002Z" fill="#3B3AEF"/>
<path d="M130.187 17.5068C127.315 17.4732 124.466 18.0325 121.816 19.1502C119.167 20.268 116.773 21.9204 114.782 24.0056C112.722 26.0337 111.093 28.4617 109.994 31.1425C108.894 33.8234 108.346 36.7011 108.384 39.6013C108.38 43.4374 109.385 47.206 111.299 50.5234C112.718 53.0356 114.618 55.2394 116.89 57.007C119.161 58.7747 121.758 60.0712 124.53 60.8214C127.302 61.5716 130.195 61.7606 133.04 61.3776C135.886 60.9945 138.628 60.0469 141.107 58.5896C144.403 56.661 147.142 53.9006 149.055 50.5806C151.45 46.4009 152.414 41.5441 151.797 36.7586C151.18 31.9731 149.018 27.5246 145.642 24.0987C143.658 21.9852 141.26 20.3085 138.6 19.174C135.94 18.0395 133.076 17.4718 130.187 17.5068ZM130.187 50.9886C128.272 50.9992 126.392 50.4738 124.756 49.4713C123.048 48.4602 121.637 47.0103 120.668 45.2699C119.673 43.5496 119.155 41.592 119.168 39.6013C119.157 38.1334 119.443 36.6786 120.007 35.3251C120.572 33.9717 121.404 32.748 122.453 31.7283C124.112 29.9611 126.32 28.817 128.713 28.4852C131.106 28.1533 133.539 28.6535 135.611 29.9032C139.429 32.2007 141.206 35.2927 141.206 39.63C141.226 41.6273 140.71 43.593 139.713 45.32C138.732 47.0479 137.321 48.4885 135.618 49.4999C133.98 50.4924 132.1 51.0078 130.187 50.9886Z" fill="#3B3AEF"/>
<path d="M183.078 20.0905C180.269 18.4439 177.086 17.554 173.836 17.5067H173.602C168.569 17.4714 163.708 19.3473 159.988 22.7602C158.03 24.4306 156.463 26.5155 155.397 28.8662C154.332 31.2169 153.795 33.7754 153.825 36.359V61.2378H164.602V37.54C164.609 35.9309 165.026 34.3506 165.813 32.9498C166.599 31.549 167.729 30.3745 169.095 29.5381C170.395 28.7282 171.902 28.3179 173.431 28.3572C174.822 28.3849 176.184 28.7639 177.391 29.4594C180.185 31.0913 181.422 33.1597 181.422 36.1729V61.2592H192.206V35.4429C192.153 32.4384 191.328 29.499 189.81 26.9114C188.22 24.067 185.893 21.7098 183.078 20.0905Z" fill="#3B3AEF"/>
<path d="M267 1.53162H256.365V84.7208H267V1.53162Z" fill="#00CCFF"/>
<path d="M6.63273 70.8572C7.51545 70.837 8.39244 71.0051 9.20601 71.3505C10.0196 71.6959 10.7513 72.2108 11.3531 72.8613C12.578 74.2075 13.2575 75.9669 13.2575 77.7926C13.2575 79.6184 12.578 81.3778 11.3531 82.724C10.7499 83.3721 10.0177 83.8849 9.20436 84.229C8.39102 84.5731 7.51474 84.7407 6.63273 84.7209H1.16586V79.1167H6.10352e-05V76.8407H1.16586V70.8572H6.63273ZM6.63273 82.1085C7.17344 82.1301 7.71245 82.0353 8.21386 81.8304C8.71527 81.6255 9.16749 81.3153 9.54029 80.9204C10.3092 80.0674 10.7129 78.9435 10.6636 77.7926C10.6904 77.2247 10.6049 76.657 10.4121 76.1225C10.2193 75.588 9.92292 75.0974 9.54029 74.6792C9.1702 74.2798 8.7188 73.9657 8.21698 73.7581C7.71517 73.5506 7.17479 73.4546 6.63273 73.4768H3.87443V76.8407H6.66831V79.1167H3.87443V82.1085H6.63273Z" fill="#1F6EFF"/>
<path d="M22.5995 85C21.1862 84.9906 19.8071 84.5618 18.6346 83.7674C17.4621 82.973 16.5482 81.8482 16.0073 80.5337C15.4664 79.2192 15.3224 77.7732 15.5934 76.3767C15.8643 74.9803 16.5382 73.6952 17.5307 72.6823C18.1876 72.0015 18.9766 71.464 19.8486 71.1033C20.7206 70.7425 21.6569 70.5662 22.5995 70.5852C23.2909 70.5833 23.9795 70.6748 24.6468 70.8572H26.0686C26.7795 70.8572 26.9147 70.5423 26.9147 69.7908V69.4543H28.9621V69.7908C28.9621 71.3367 28.571 72.1669 27.4691 72.4819C27.5332 72.5559 27.6047 72.623 27.6824 72.6823C29.0221 74.044 29.7737 75.8831 29.7737 77.7998C29.7737 79.7164 29.0221 81.5555 27.6824 82.9172C27.0201 83.5938 26.2278 84.1274 25.3539 84.4854C24.48 84.8435 23.5428 85.0186 22.5995 85ZM22.5995 82.3231C23.1861 82.343 23.7705 82.2407 24.316 82.0227C24.8616 81.8047 25.3567 81.4758 25.7701 81.0563C26.5922 80.1697 27.0493 79.0019 27.0493 77.789C27.0493 76.5761 26.5922 75.4084 25.7701 74.5217C24.9204 73.6948 23.7848 73.2325 22.603 73.2325C21.4212 73.2325 20.2857 73.6948 19.436 74.5217C18.6139 75.4084 18.1567 76.5761 18.1567 77.789C18.1567 79.0019 18.6139 80.1697 19.436 81.0563C19.8486 81.4749 20.3425 81.8033 20.8868 82.0213C21.431 82.2392 22.014 82.342 22.5995 82.3231Z" fill="#1F6EFF"/>
<path d="M40.5427 70.8572H43.2583V84.7208H41.1896L35.2891 76.2466V84.7208H32.5735V70.8572H34.6422L40.5427 79.3171V70.8572Z" fill="#1F6EFF"/>
<path d="M66.0498 77.2772V78.3437C66.0838 79.2341 65.9339 80.1219 65.6096 80.951C65.2854 81.7801 64.7938 82.5325 64.166 83.1605C63.5138 83.7781 62.7461 84.2587 61.9076 84.5745C61.0691 84.8903 60.1766 85.035 59.282 85C58.3065 85.0294 57.3352 84.8601 56.4263 84.5022C55.5174 84.1443 54.6897 83.6051 53.9929 82.9172C53.3181 82.2548 52.7851 81.4603 52.4269 80.5826C52.0687 79.705 51.8927 78.7627 51.91 77.814C51.9173 76.2584 52.4204 74.7462 53.3453 73.5C54.2702 72.2538 55.568 71.3394 57.0478 70.8914C58.5275 70.4435 60.1109 70.4856 61.5651 71.0115C63.0193 71.5375 64.2674 72.5195 65.1257 73.8131L62.8081 75.1587C62.4066 74.5466 61.856 74.0483 61.2089 73.7113C60.5617 73.3742 59.8396 73.2097 59.1114 73.2334C58.5092 73.2125 57.9093 73.3182 57.3499 73.5437C56.7906 73.7692 56.284 74.1096 55.8626 74.5431C55.0467 75.4286 54.5933 76.5919 54.5933 77.7997C54.5933 79.0076 55.0467 80.1708 55.8626 81.0563C56.319 81.4877 56.8569 81.8222 57.4444 82.0399C58.0318 82.2575 58.6568 82.3538 59.282 82.3231C61.4147 82.3231 62.8365 81.3354 63.2986 79.6892H59.147V77.2772H66.0498Z" fill="#1F6EFF"/>
<path d="M68.8791 70.8572H71.5948V84.7208H68.8791V70.8572Z" fill="#1F6EFF"/>
<path d="M83.9076 84.7208L83.083 82.2301H77.6303L76.8057 84.7208H73.8768L78.6967 70.8572H82.0592L86.8934 84.7208H83.9076ZM79.5071 69.7693C79.5071 68.6384 79.6777 68.4451 80.218 68.1875L80.3958 68.0658C80.468 68.0238 80.5277 67.9632 80.569 67.8903C80.6102 67.8173 80.6314 67.7346 80.6303 67.6507C80.6303 67.529 80.5522 67.4145 80.3176 67.4145C80.1418 67.3969 79.9658 67.4457 79.8239 67.5516C79.6819 67.6574 79.5842 67.8127 79.5497 67.9871L78.0782 67.436C78.2506 66.9748 78.5652 66.5815 78.9759 66.3135C79.3866 66.0456 79.8717 65.9172 80.3602 65.9473C81.4763 65.9473 82.3223 66.5413 82.3223 67.5934C82.3344 67.8812 82.268 68.1669 82.1301 68.4193C81.9923 68.6717 81.7882 68.8811 81.5403 69.0249C81.2844 69.1394 81.1422 69.2611 81.2062 69.7406L79.5071 69.7693ZM78.4621 79.675H82.237L80.3531 74.0064L78.4621 79.675Z" fill="#1F6EFF"/>
<path d="M97.0663 70.8572H99.782V84.7208H97.7204L91.8198 76.2466V84.7208H89.1042V70.8572H91.1659L97.0663 79.3171V70.8572Z" fill="#1F6EFF"/>
<path d="M118.152 70.8572V73.4767H114.434V84.7208H111.754V73.4767H108.057V70.8572H118.152Z" fill="#1F6EFF"/>
<path d="M128.417 70.8572H131.118V84.7208H128.417V78.995H123.306V84.7208H120.59V70.8572H123.306V76.3683H128.417V70.8572Z" fill="#1F6EFF"/>
<path d="M141.085 70.5852C142.504 70.5891 143.889 71.0153 145.067 71.8102C146.245 72.6052 147.163 73.7332 147.706 75.0524C148.249 76.3716 148.391 77.8229 148.117 79.2237C147.842 80.6245 147.161 81.9121 146.161 82.9244C145.327 83.767 144.299 84.3893 143.169 84.7361C142.038 85.0829 140.841 85.1435 139.681 84.9125C138.522 84.6814 137.438 84.1659 136.524 83.4116C135.61 82.6574 134.895 81.6877 134.443 80.5886C133.99 79.4895 133.814 78.295 133.93 77.1111C134.046 75.9271 134.451 74.7903 135.108 73.8015C135.765 72.8127 136.655 72.0025 137.697 71.4426C138.74 70.8828 139.904 70.5908 141.085 70.5924V70.5852ZM141.085 82.3231C141.672 82.3404 142.255 82.237 142.8 82.0191C143.346 81.8013 143.841 81.4737 144.256 81.0563C145.078 80.1697 145.535 79.0019 145.535 77.789C145.535 76.5761 145.078 75.4084 144.256 74.5217C143.406 73.6948 142.271 73.2325 141.089 73.2325C139.907 73.2325 138.772 73.6948 137.922 74.5217C137.1 75.4084 136.643 76.5761 136.643 77.789C136.643 79.0019 137.1 80.1697 137.922 81.0563C138.335 81.4749 138.828 81.8033 139.373 82.0213C139.917 82.2392 140.5 82.342 141.085 82.3231ZM141.029 68.3235L140.161 69.6118H137.645L139.728 66.7489H142.322L144.405 69.6118H141.889L141.029 68.3235Z" fill="#1F6EFF"/>
<path d="M151.059 70.8572H153.775V84.7208H151.059V70.8572Z" fill="#1F6EFF"/>
<path d="M176.531 70.8572V84.7208H173.836V75.7671L169.962 82.2086H169.649L165.768 75.7671V84.7352H163.059V70.8572H165.853L169.806 77.4132L173.737 70.8572H176.531Z" fill="#1F6EFF"/>
<path d="M188.844 84.7208L188.019 82.2301H182.531L181.699 84.7208H178.77L183.59 70.8572H186.953L191.794 84.7208H188.844ZM186.896 69.6118H184.457L182.275 66.8992H185.325L186.896 69.6118ZM183.391 79.675H187.173L185.282 74.0064L183.391 79.675Z" fill="#1F6EFF"/>
<path d="M250.379 23.5189V84.7209H239.637V22.9677C239.637 19.6003 238.309 16.3707 235.944 13.9896C233.579 11.6084 230.371 10.2707 227.026 10.2707C223.681 10.2707 220.474 11.6084 218.109 13.9896C215.743 16.3707 214.415 19.6003 214.415 22.9677V84.7209H203.666V23.5189C203.612 20.3963 204.176 17.2941 205.325 14.3934C206.475 11.4926 208.187 8.85147 210.361 6.62395C212.535 4.39643 215.128 2.62717 217.989 1.41945C220.85 0.211735 223.921 -0.410278 227.023 -0.410278C230.125 -0.410278 233.195 0.211735 236.056 1.41945C238.917 2.62717 241.51 4.39643 243.684 6.62395C245.858 8.85147 247.57 11.4926 248.72 14.3934C249.869 17.2941 250.433 20.3963 250.379 23.5189Z" fill="#00CCFF"/>
<path d="M242.325 34.0687H210.341V44.6973H242.325V34.0687Z" fill="#00CCFF"/>
</g>
<defs>
<clipPath id="clip0_6_36642">
<rect width="267" height="85" fill="white"/>
</clipPath>
</defs>
</svg>
