<?xml version="1.0" encoding="utf-8"?>
<!-- Generator: Adobe Illustrator 16.0.0, SVG Export Plug-In . SVG Version: 6.00 Build 0)  -->
<!DOCTYPE svg PUBLIC "-//W3C//DTD SVG 1.1//EN" "http://www.w3.org/Graphics/SVG/1.1/DTD/svg11.dtd">
<svg version="1.1" id="Layer_1" xmlns="http://www.w3.org/2000/svg" xmlns:xlink="http://www.w3.org/1999/xlink" x="0px" y="0px"
	 width="22px" height="22px" viewBox="0 0 22 22" enable-background="new 0 0 22 22" xml:space="preserve">
<circle fill="#FFFFFF" cx="11" cy="11" r="11"/>
<g>
	<defs>
		<rect id="SVGID_1_" x="3.5" y="4" width="15" height="15"/>
	</defs>
	<clipPath id="SVGID_2_">
		<use xlink:href="#SVGID_1_"  overflow="visible"/>
	</clipPath>
</g>
<path fill="#4BAA68" d="M5,6.5C4.726,6.5,4.5,6.726,4.5,7v0.691l5.391,4.425c0.647,0.531,1.575,0.531,2.222,0L17.5,7.691V7
	c0-0.274-0.226-0.5-0.5-0.5H5z M4.5,9.632V15c0,0.274,0.226,0.5,0.5,0.5h12c0.274,0,0.5-0.226,0.5-0.5V9.632l-4.438,3.643
	c-1.2,0.984-2.929,0.984-4.125,0L4.5,9.632z M3,7c0-1.103,0.897-2,2-2h12c1.103,0,2,0.897,2,2v8c0,1.103-0.897,2-2,2H5
	c-1.103,0-2-0.897-2-2V7z"/>
</svg>
