<?xml version="1.0" encoding="utf-8"?>
<!-- Generator: Adobe Illustrator 16.0.0, SVG Export Plug-In . SVG Version: 6.00 Build 0)  -->
<!DOCTYPE svg PUBLIC "-//W3C//DTD SVG 1.1//EN" "http://www.w3.org/Graphics/SVG/1.1/DTD/svg11.dtd">
<svg version="1.1" id="Layer_1" xmlns="http://www.w3.org/2000/svg" xmlns:xlink="http://www.w3.org/1999/xlink" x="0px" y="0px"
	 width="22px" height="22px" viewBox="0 0 22 22" enable-background="new 0 0 22 22" xml:space="preserve">
<circle fill="#FFFFFF" cx="11" cy="11" r="11"/>
<g>
	<defs>
		<rect id="SVGID_1_" x="3.5" y="4" width="15" height="15"/>
	</defs>
	<clipPath id="SVGID_2_">
		<use xlink:href="#SVGID_1_"  overflow="visible"/>
	</clipPath>
</g>
<path fill="#4BAA68" d="M9.177,4.456c0.502,0.084,0.841,0.559,0.758,1.06L9.652,7.208h2.738l0.331-1.995
	c0.084-0.501,0.559-0.841,1.06-0.757c0.501,0.084,0.841,0.559,0.758,1.06l-0.28,1.693h1.676c0.51,0,0.922,0.411,0.922,0.921
	s-0.412,0.921-0.922,0.921H13.95l-0.613,3.685h1.676c0.51,0,0.921,0.412,0.921,0.922s-0.411,0.921-0.921,0.921h-1.983l-0.331,1.995
	c-0.084,0.501-0.559,0.841-1.06,0.757c-0.5-0.084-0.84-0.559-0.757-1.06l0.283-1.689H8.426l-0.331,1.995
	c-0.083,0.5-0.559,0.84-1.06,0.757s-0.841-0.559-0.756-1.06l0.276-1.695H4.879c-0.51,0-0.921-0.411-0.921-0.921
	s0.411-0.922,0.921-0.922h1.984l0.613-3.685H5.8c-0.51,0-0.921-0.412-0.921-0.921S5.291,7.208,5.8,7.208h1.983l0.331-1.995
	c0.084-0.501,0.559-0.841,1.06-0.757H9.177z M9.344,9.051L8.73,12.735h2.738l0.612-3.685H9.344L9.344,9.051z"/>
</svg>
