<svg width="22" height="23" viewBox="0 0 22 23" fill="none" xmlns="http://www.w3.org/2000/svg">
<circle cx="11" cy="11.1172" r="11" fill="white"/>
<g clip-path="url(#clip0_90_1658)">
<path d="M12.9061 7.24219C13.5166 7.36129 14.0776 7.65985 14.5174 8.09965C14.9572 8.53945 15.2558 9.10048 15.3749 9.71094M12.9061 4.74219C14.1744 4.88309 15.3571 5.45105 16.26 6.35282C17.163 7.25459 17.7324 8.43657 17.8749 9.70469M17.2499 14.6922V16.5672C17.2506 16.7413 17.2149 16.9135 17.1452 17.073C17.0755 17.2325 16.9732 17.3757 16.8449 17.4934C16.7167 17.611 16.5653 17.7006 16.4004 17.7564C16.2355 17.8121 16.0608 17.8329 15.8874 17.8172C13.9642 17.6082 12.1168 16.951 10.4936 15.8984C8.98354 14.9389 7.70323 13.6585 6.74365 12.1484C5.68738 10.5179 5.03005 8.66156 4.8249 6.72969C4.80928 6.55685 4.82982 6.38266 4.88521 6.2182C4.9406 6.05374 5.02963 5.90262 5.14663 5.77445C5.26362 5.64628 5.40603 5.54388 5.56477 5.47376C5.72351 5.40365 5.89511 5.36735 6.06865 5.36719H7.94365C8.24696 5.3642 8.54102 5.47161 8.771 5.6694C9.00098 5.86718 9.1512 6.14184 9.19365 6.44219C9.27279 7.04223 9.41955 7.63139 9.63115 8.19844C9.71524 8.42214 9.73344 8.66526 9.68359 8.89899C9.63374 9.13272 9.51794 9.34726 9.3499 9.51719L8.55615 10.3109C9.44587 11.8757 10.7414 13.1712 12.3061 14.0609L13.0999 13.2672C13.2698 13.0991 13.4844 12.9833 13.7181 12.9335C13.9518 12.8836 14.1949 12.9018 14.4186 12.9859C14.9857 13.1975 15.5749 13.3443 16.1749 13.4234C16.4785 13.4663 16.7558 13.6192 16.954 13.8531C17.1522 14.0871 17.2575 14.3857 17.2499 14.6922Z" stroke="#24AA69" stroke-width="1.33333" stroke-linecap="round" stroke-linejoin="round"/>
</g>
<defs>
<clipPath id="clip0_90_1658">
<rect width="15" height="15" fill="white" transform="translate(3.5 4.11719)"/>
</clipPath>
</defs>
</svg>
