<svg width="29" height="27" viewBox="0 0 29 27" fill="none" xmlns="http://www.w3.org/2000/svg">
<g clip-path="url(#clip0_58_31538)">
<path d="M22.7073 14.1211C21.8532 14.1108 21.0375 13.7577 20.4371 13.1385C19.8367 12.5192 19.5 11.6837 19.5001 10.8131V9.70176H18.4096C17.6684 9.70418 16.9488 9.44745 16.3708 8.97439C15.7929 8.50132 15.3916 7.84054 15.234 7.10235C15.0764 6.36416 15.1719 5.59321 15.5047 4.91816C15.8375 4.2431 16.3874 3.7048 17.0626 3.39307H5.13161C3.77062 3.39307 2.46537 3.94408 1.50301 4.9249C0.540646 5.90572 0 7.236 0 8.62309V21.7701C0.000386688 22.1055 0.0304129 22.4403 0.0897734 22.7703C0.317651 23.9622 0.945414 25.0362 1.86535 25.808C2.78529 26.5798 3.94009 27.0012 5.13161 27.0001H20.5906C21.9516 27.0001 23.2568 26.4491 24.2192 25.4682C25.1815 24.4874 25.7222 23.1571 25.7222 21.7701V12.0422C25.4811 12.6562 25.065 13.1824 24.5276 13.5529C23.9902 13.9235 23.3562 14.1214 22.7073 14.1211ZM18.3455 17.5468L11.2895 21.7047C10.884 21.9433 10.424 22.069 9.95572 22.069C9.48746 22.0691 9.02741 21.9436 8.62181 21.7051C8.21621 21.4666 7.87936 21.1235 7.64503 20.7103C7.4107 20.2971 7.28717 19.8284 7.28687 19.3512V11.0485C7.28605 10.5707 7.40873 10.1011 7.6426 9.687C7.87647 9.27289 8.21324 8.92891 8.61903 8.68965C9.02482 8.45038 9.48531 8.32432 9.95412 8.32411C10.4229 8.3239 10.8835 8.44955 11.2895 8.68845L18.3455 12.8463C18.7502 13.0861 19.0861 13.43 19.3196 13.8436C19.553 14.2572 19.6759 14.726 19.6759 15.2031C19.6759 15.6803 19.553 16.149 19.3196 16.5626C19.0861 16.9762 18.7502 17.3201 18.3455 17.5599V17.5468Z" fill="white"/>
<path d="M27.0435 4.41297H24.6701V1.99407C24.6415 1.48414 24.4226 1.00467 24.0582 0.653968C23.6938 0.303268 23.2117 0.10791 22.7105 0.10791C22.2093 0.10791 21.7272 0.303268 21.3628 0.653968C20.9984 1.00467 20.7795 1.48414 20.7509 1.99407V4.41297H18.3775C18.1107 4.39741 17.8437 4.4375 17.5926 4.53084C17.3416 4.62418 17.1119 4.76877 16.9176 4.95575C16.7234 5.14274 16.5686 5.3682 16.4629 5.61829C16.3571 5.86837 16.3025 6.13784 16.3025 6.41018C16.3025 6.68251 16.3571 6.95198 16.4629 7.20207C16.5686 7.45216 16.7234 7.67758 16.9176 7.86456C17.1119 8.05155 17.3416 8.19614 17.5926 8.28948C17.8437 8.38282 18.1107 8.42295 18.3775 8.40739H20.7509V10.8524C20.7356 11.1243 20.775 11.3965 20.8666 11.6524C20.9581 11.9082 21.1 12.1423 21.2834 12.3403C21.4669 12.5383 21.6881 12.696 21.9335 12.8038C22.1789 12.9116 22.4433 12.9672 22.7105 12.9672C22.9777 12.9672 23.2421 12.9116 23.4875 12.8038C23.7329 12.696 23.9541 12.5383 24.1376 12.3403C24.321 12.1423 24.4629 11.9082 24.5545 11.6524C24.6461 11.3965 24.6854 11.1243 24.6701 10.8524V8.43353H27.0435C27.5438 8.40434 28.0143 8.1812 28.3584 7.80986C28.7025 7.43851 28.8942 6.94709 28.8942 6.43631C28.8942 5.92554 28.7025 5.43412 28.3584 5.06277C28.0143 4.69142 27.5438 4.46829 27.0435 4.4391V4.41297Z" fill="white"/>
</g>
<defs>
<clipPath id="clip0_58_31538">
<rect width="29" height="27" fill="white"/>
</clipPath>
</defs>
</svg>
