<svg width="48" height="49" viewBox="0 0 48 49" fill="none" xmlns="http://www.w3.org/2000/svg">
<rect y="0.117188" width="48" height="48" rx="14" fill="url(#paint0_linear_90_828)"/>
<path d="M33.2407 20.4277L24.3253 41.4142C24.2983 41.4796 24.2524 41.5354 24.1936 41.5747C24.1348 41.614 24.0657 41.635 23.995 41.635C23.9242 41.635 23.8551 41.614 23.7963 41.5747C23.7375 41.5354 23.6917 41.4796 23.6646 41.4142L14.7493 20.4277C14.726 20.3729 14.7167 20.3132 14.7223 20.2539C14.7279 20.1946 14.7483 20.1377 14.7815 20.0883C14.8147 20.0389 14.8597 19.9986 14.9124 19.971C14.9651 19.9434 15.024 19.9293 15.0835 19.9302H32.9065C32.9653 19.9312 33.0231 19.9465 33.0748 19.9746C33.1265 20.0027 33.1706 20.0429 33.2034 20.0918C33.2362 20.1406 33.2567 20.1967 33.2632 20.2551C33.2697 20.3136 33.262 20.3728 33.2407 20.4277Z" fill="white"/>
<path d="M15.5367 18.5621L23.7448 10.5717C23.8137 10.5083 23.9038 10.4731 23.9974 10.4731C24.091 10.4731 24.1812 10.5083 24.25 10.5717L32.4581 18.5621C32.5119 18.6111 32.5495 18.6754 32.5658 18.7464C32.5821 18.8174 32.5764 18.8917 32.5494 18.9593C32.5223 19.0269 32.4752 19.0846 32.4145 19.1248C32.3537 19.1649 32.2822 19.1856 32.2094 19.1839H15.7854C15.7126 19.1856 15.6411 19.1649 15.5803 19.1248C15.5196 19.0846 15.4725 19.0269 15.4455 18.9593C15.4184 18.8917 15.4127 18.8174 15.429 18.7464C15.4453 18.6754 15.4829 18.6111 15.5367 18.5621Z" fill="white"/>
<path d="M33.2586 18.2906L25.5557 10.7976C25.5047 10.7481 25.4696 10.6844 25.4549 10.6148C25.4403 10.5452 25.4467 10.4728 25.4734 10.4069C25.5001 10.341 25.5459 10.2845 25.6049 10.2447C25.6638 10.2049 25.7333 10.1837 25.8044 10.1836H34.6343C34.6858 10.1843 34.7367 10.1958 34.7834 10.2175C34.8301 10.2392 34.8717 10.2705 34.9054 10.3094C34.9392 10.3483 34.9644 10.3939 34.9793 10.4432C34.9942 10.4926 34.9985 10.5445 34.9919 10.5956L33.857 18.0885C33.8466 18.1526 33.8188 18.2126 33.7768 18.2621C33.7348 18.3116 33.6801 18.3488 33.6186 18.3696C33.5571 18.3903 33.491 18.3939 33.4276 18.38C33.3642 18.3661 33.3058 18.3352 33.2586 18.2906Z" fill="white"/>
<path d="M14.1365 18.0886L13.0095 10.5956C13.0003 10.5447 13.0025 10.4925 13.0159 10.4426C13.0293 10.3927 13.0536 10.3464 13.0871 10.307C13.1205 10.2676 13.1622 10.2361 13.2093 10.2148C13.2564 10.1934 13.3076 10.1828 13.3592 10.1836H22.1892C22.2603 10.1837 22.3298 10.205 22.3887 10.2448C22.4477 10.2845 22.4934 10.341 22.5202 10.4069C22.5469 10.4729 22.5533 10.5453 22.5387 10.6149C22.524 10.6845 22.4889 10.7481 22.4379 10.7977L14.735 18.2907C14.6878 18.3353 14.6294 18.3662 14.566 18.3801C14.5026 18.394 14.4365 18.3904 14.375 18.3696C14.3135 18.3488 14.2588 18.3117 14.2168 18.2622C14.1748 18.2127 14.147 18.1526 14.1365 18.0886Z" fill="white"/>
<path d="M13.1194 19.1841H4.42944C4.3583 19.184 4.28882 19.1627 4.22985 19.1229C4.17088 19.0831 4.12514 19.0267 4.09844 18.9608C4.07173 18.8948 4.06528 18.8224 4.07994 18.7528C4.0946 18.6832 4.12967 18.6196 4.1807 18.57L11.7437 11.0926C11.7906 11.0458 11.8497 11.013 11.9142 10.9978C11.9788 10.9826 12.0462 10.9857 12.1091 11.0066C12.172 11.0276 12.2278 11.0656 12.2704 11.1165C12.3129 11.1674 12.3404 11.2291 12.3499 11.2947L13.477 18.7721C13.4836 18.8232 13.4793 18.8751 13.4644 18.9244C13.4495 18.9737 13.4243 19.0193 13.3905 19.0582C13.3568 19.0971 13.3152 19.1285 13.2684 19.1502C13.2217 19.1718 13.1709 19.1834 13.1194 19.1841Z" fill="white"/>
<path d="M13.8169 20.1478L21.9472 39.2922C21.9843 39.3709 21.9914 39.4605 21.9672 39.5441C21.943 39.6277 21.8892 39.6996 21.8158 39.7463C21.7423 39.7931 21.6544 39.8114 21.5684 39.7979C21.4824 39.7844 21.4043 39.74 21.3487 39.6731L4.03089 20.5287C3.98416 20.4775 3.95334 20.4138 3.94217 20.3453C3.931 20.2769 3.93997 20.2067 3.96798 20.1433C3.99598 20.0799 4.04182 20.026 4.09991 19.9881C4.158 19.9503 4.22585 19.9302 4.29518 19.9302H13.4904C13.5601 19.9307 13.6282 19.9515 13.6862 19.9902C13.7442 20.0289 13.7896 20.0837 13.8169 20.1478Z" fill="white"/>
<path d="M34.5007 19.9302H43.6959C43.7653 19.9302 43.8331 19.9503 43.8912 19.9881C43.9493 20.026 43.9951 20.0799 44.0231 20.1433C44.0511 20.2067 44.0601 20.2769 44.0489 20.3453C44.0377 20.4138 44.0069 20.4775 43.9602 20.5287L26.6424 39.6731C26.5868 39.74 26.5087 39.7844 26.4227 39.7979C26.3367 39.8114 26.2488 39.7931 26.1754 39.7463C26.1019 39.6996 26.0481 39.6277 26.0239 39.5441C25.9997 39.4605 26.0068 39.3709 26.0439 39.2922L34.1743 20.1478C34.2015 20.0837 34.247 20.0289 34.305 19.9902C34.363 19.9515 34.431 19.9307 34.5007 19.9302Z" fill="white"/>
<path d="M34.5167 18.7721L35.6437 11.2947C35.6532 11.2291 35.6808 11.1674 35.7233 11.1165C35.7658 11.0656 35.8216 11.0276 35.8845 11.0066C35.9474 10.9857 36.0149 10.9826 36.0794 10.9978C36.144 11.013 36.203 11.0458 36.25 11.0926L43.8129 18.57C43.864 18.6196 43.899 18.6832 43.9137 18.7528C43.9284 18.8224 43.9219 18.8948 43.8952 18.9608C43.8685 19.0267 43.8228 19.0831 43.7638 19.1229C43.7048 19.1627 43.6353 19.184 43.5642 19.1841H34.8742C34.8227 19.1834 34.7719 19.1718 34.7252 19.1502C34.6784 19.1285 34.6369 19.0971 34.6031 19.0582C34.5693 19.0193 34.5442 18.9737 34.5293 18.9244C34.5144 18.8751 34.5101 18.8232 34.5167 18.7721Z" fill="white"/>
<defs>
<linearGradient id="paint0_linear_90_828" x1="24" y1="0.117187" x2="24" y2="48.1172" gradientUnits="userSpaceOnUse">
<stop stop-color="#FFA411"/>
<stop offset="1" stop-color="#FF7011"/>
</linearGradient>
</defs>
</svg>
