<svg width="25" height="25" viewBox="0 0 25 25" fill="none" xmlns="http://www.w3.org/2000/svg">
<rect y="0.117188" width="24.7173" height="24.7173" rx="12.3586" fill="url(#paint0_linear_90_849)"/>
<g clip-path="url(#clip0_90_849)">
<path d="M12.5 4.11719C10.2464 4.11965 8.08583 5.01597 6.49231 6.6095C4.89878 8.20302 4.00246 10.3636 4 12.6172C4.00246 14.8708 4.89878 17.0313 6.49231 18.6249C8.08583 20.2184 10.2464 21.1147 12.5 21.1172C14.756 21.1184 16.9202 20.2237 18.5167 18.6298C20.1132 17.0359 21.0115 14.8732 21.0139 12.6172C21.0115 10.3612 20.1132 8.1985 18.5167 6.60457C16.9202 5.01064 14.756 4.11595 12.5 4.11719ZM12.5 19.2572C11.628 19.2572 10.7646 19.0855 9.95896 18.7518C9.15336 18.4181 8.42136 17.929 7.80478 17.3124C7.18819 16.6958 6.69909 15.9638 6.3654 15.1582C6.0317 14.3526 5.85996 13.4892 5.85996 12.6172C5.85996 11.7452 6.0317 10.8818 6.3654 10.0762C6.69909 9.27055 7.18819 8.53855 7.80478 7.92197C8.42136 7.30538 9.15336 6.81628 9.95896 6.48259C10.7646 6.14889 11.628 5.97714 12.5 5.97714C13.3732 5.97531 14.2381 6.14571 15.0453 6.47858C15.8525 6.81145 16.5862 7.30026 17.2042 7.91703C17.8223 8.5338 18.3126 9.26641 18.6472 10.0729C18.9818 10.8794 19.154 11.744 19.154 12.6172C19.154 13.4903 18.9818 14.3549 18.6472 15.1614C18.3126 15.968 17.8223 16.7006 17.2042 17.3173C16.5862 17.9341 15.8525 18.4229 15.0453 18.7558C14.2381 19.0887 13.3732 19.2591 12.5 19.2572Z" fill="white"/>
<path d="M14.9275 13.324L13.4303 12.1615V8.86009C13.4303 8.61345 13.3323 8.3769 13.1579 8.2025C12.9835 8.0281 12.7469 7.93011 12.5003 7.93011C12.2536 7.93011 12.0171 8.0281 11.8427 8.2025C11.6683 8.3769 11.5703 8.61345 11.5703 8.86009V12.6172C11.5701 12.7588 11.6023 12.8987 11.6643 13.026C11.7264 13.1533 11.8167 13.2648 11.9284 13.3519L13.7883 14.7934C13.9506 14.9193 14.1501 14.988 14.3556 14.9887C14.4976 14.9883 14.6377 14.9554 14.765 14.8926C14.8924 14.8297 15.0036 14.7385 15.0903 14.626C15.2408 14.4315 15.3082 14.1854 15.2777 13.9414C15.2472 13.6974 15.1213 13.4754 14.9275 13.324Z" fill="white"/>
</g>
<defs>
<linearGradient id="paint0_linear_90_849" x1="12.3586" y1="0.117187" x2="12.3586" y2="24.8345" gradientUnits="userSpaceOnUse">
<stop stop-color="#FFA411"/>
<stop offset="1" stop-color="#FF7011"/>
</linearGradient>
<clipPath id="clip0_90_849">
<rect width="17" height="17" fill="white" transform="translate(4 4.11719)"/>
</clipPath>
</defs>
</svg>
