<svg width="18" height="19" viewBox="0 0 18 19" fill="none" xmlns="http://www.w3.org/2000/svg">
<path d="M13.6567 18.4064H3.62087C2.66055 18.4064 1.73957 18.0078 1.06052 17.2984C0.38148 16.5889 0 15.6267 0 14.6234V8.02837C0.000250283 7.46283 0.123083 6.90469 0.359291 6.39583C0.595499 5.88697 0.938946 5.44062 1.36386 5.09025L6.38478 0.935265C7.01748 0.40573 7.80397 0.117188 8.61464 0.117188C9.42531 0.117187 10.2118 0.40573 10.8445 0.935265L15.8654 5.09025C16.2896 5.44093 16.6321 5.88751 16.8673 6.3964C17.1024 6.90529 17.2242 7.46326 17.2232 8.02837V14.6486C17.217 15.6378 16.8402 16.5851 16.1736 17.2875C15.5069 17.9899 14.6034 18.3915 13.6567 18.4064ZM8.63576 1.38292C8.09811 1.38192 7.57634 1.57327 7.15724 1.92515L2.13631 6.08013C1.85377 6.31177 1.62542 6.60759 1.46858 6.94515C1.31174 7.2827 1.23053 7.65314 1.23109 8.02837V14.6486C1.23109 15.3175 1.48541 15.959 1.93811 16.4319C2.3908 16.9049 3.00479 17.1706 3.645 17.1706H13.6808C14.321 17.1706 14.935 16.9049 15.3877 16.4319C15.8404 15.959 16.0947 15.3175 16.0947 14.6486V8.02837C16.0965 7.65358 16.0164 7.28331 15.8606 6.94572C15.7048 6.60813 15.4773 6.31209 15.1956 6.08013L10.1746 1.92515C9.7395 1.55937 9.19405 1.36718 8.63576 1.38292Z" fill="black"/>
<path d="M10.7536 15.9667C10.5935 15.9667 10.4401 15.9003 10.3269 15.7821C10.2137 15.6638 10.1501 15.5034 10.1501 15.3362V11.301H7.13274V15.3362C7.13274 15.5034 7.06916 15.6638 6.95598 15.7821C6.84281 15.9003 6.68931 15.9667 6.52926 15.9667C6.36921 15.9667 6.21571 15.9003 6.10254 15.7821C5.98936 15.6638 5.92578 15.5034 5.92578 15.3362V10.6705C5.92578 10.5033 5.98936 10.3429 6.10254 10.2247C6.21571 10.1065 6.36921 10.04 6.52926 10.04H10.7536C10.9137 10.04 11.0672 10.1065 11.1803 10.2247C11.2935 10.3429 11.3571 10.5033 11.3571 10.6705V15.3362C11.3571 15.5034 11.2935 15.6638 11.1803 15.7821C11.0672 15.9003 10.9137 15.9667 10.7536 15.9667Z" fill="black"/>
</svg>
