<svg width="25" height="25" viewBox="0 0 25 25" fill="none" xmlns="http://www.w3.org/2000/svg">
<rect y="0.117188" width="24.7173" height="24.7173" rx="12.3586" fill="url(#paint0_linear_90_843)"/>
<g clip-path="url(#clip0_90_843)">
<path d="M12.498 4.74564C13.3542 4.74564 14.1754 5.08878 14.7808 5.69957C15.3863 6.31036 15.7264 7.13877 15.7264 8.00255C15.7264 8.86634 15.3863 9.69475 14.7808 10.3055C14.1754 10.9163 13.3542 11.2595 12.498 11.2595C11.6418 11.2595 10.8206 10.9163 10.2152 10.3055C9.60974 9.69475 9.2696 8.86634 9.2696 8.00255C9.2696 7.13877 9.60974 6.31036 10.2152 5.69957C10.8206 5.08878 11.6418 4.74564 12.498 4.74564ZM12.498 3.11719C11.2137 3.11719 9.98193 3.63189 9.07376 4.54808C8.1656 5.46426 7.6554 6.70687 7.6554 8.00255C7.6554 9.29823 8.1656 10.5408 9.07376 11.457C9.98193 12.3732 11.2137 12.8879 12.498 12.8879C13.7824 12.8879 15.0141 12.3732 15.9223 11.457C16.8304 10.5408 17.3406 9.29823 17.3406 8.00255C17.3406 6.70687 16.8304 5.46426 15.9223 4.54808C15.0141 3.63189 13.7824 3.11719 12.498 3.11719Z" fill="white"/>
<path d="M12.498 15.1026C15.7506 15.1026 18.3858 16.324 18.3858 17.7936C18.3858 19.2633 15.7587 20.4847 12.498 20.4847C9.23729 20.4847 6.61421 19.2633 6.61421 17.7936C6.61421 16.324 9.2494 15.1026 12.498 15.1026ZM12.498 13.4742C8.15174 13.4742 5 15.2899 5 17.7936C5 20.2974 8.15174 22.1131 12.498 22.1131C16.8442 22.1131 20 20.2893 20 17.7936C20 15.298 16.8442 13.4742 12.498 13.4742Z" fill="white"/>
</g>
<defs>
<linearGradient id="paint0_linear_90_843" x1="12.3586" y1="0.117187" x2="12.3586" y2="24.8345" gradientUnits="userSpaceOnUse">
<stop stop-color="#FFA411"/>
<stop offset="1" stop-color="#FF7011"/>
</linearGradient>
<clipPath id="clip0_90_843">
<rect width="15" height="19" fill="white" transform="translate(5 3.11719)"/>
</clipPath>
</defs>
</svg>
