<svg width="53" height="46" viewBox="0 0 53 46" fill="none" xmlns="http://www.w3.org/2000/svg">
<g clip-path="url(#clip0_90_863)">
<path d="M38.6635 4.3602H14.3366C8.84937 4.3602 4.40112 8.76712 4.40112 14.2033V31.7967C4.40112 37.2329 8.84937 41.6398 14.3366 41.6398H38.6635C44.1507 41.6398 48.599 37.2329 48.599 31.7967V14.2033C48.599 8.76712 44.1507 4.3602 38.6635 4.3602Z" fill="white"/>
<path d="M38.6634 4.36021C41.2897 4.36021 43.8084 5.39381 45.6655 7.23362C47.5226 9.07343 48.5658 11.5687 48.5658 14.1706V31.764C48.5658 34.3659 47.5226 36.8612 45.6655 38.701C43.8084 40.5408 41.2897 41.5744 38.6634 41.5744H14.3365C11.7102 41.5744 9.19147 40.5408 7.3344 38.701C5.47734 36.8612 4.43404 34.3659 4.43404 31.764V14.2033C4.43404 11.6014 5.47734 9.1061 7.3344 7.26629C9.19147 5.42648 11.7102 4.39287 14.3365 4.39287H38.6634M38.6634 0.0326843H14.3365C10.5429 0.0326843 6.90479 1.52566 4.22237 4.18317C1.53994 6.84067 0.032959 10.445 0.032959 14.2033V31.7967C0.0474489 35.5505 1.55905 39.1466 4.23835 41.801C6.91764 44.4554 10.5474 45.9529 14.3365 45.9673H38.6634C42.4569 45.9673 46.0951 44.4743 48.7775 41.8168C51.4599 39.1593 52.9669 35.555 52.9669 31.7967V14.2033C52.9669 10.445 51.4599 6.84067 48.7775 4.18317C46.0951 1.52566 42.4569 0.0326843 38.6634 0.0326843Z" fill="url(#paint0_linear_90_863)"/>
<path opacity="0.22" d="M47.8947 35.492C47.1602 37.3191 45.8884 38.8853 44.2442 39.9874C42.6001 41.0895 40.6596 41.6766 38.6745 41.6725H14.3475C13.0189 41.6722 11.7037 41.4089 10.4793 40.8978C9.25491 40.3868 8.14604 39.6384 7.21777 38.6967L15.5248 28.6901L24.635 33.5516L29.6082 30.4995L36.4959 22.1607L41.9973 25.2019L47.8947 35.492Z" fill="url(#paint1_linear_90_863)"/>
<path d="M16.1739 22.0299C19.8868 22.0299 22.8966 19.048 22.8966 15.3697C22.8966 11.6913 19.8868 8.70947 16.1739 8.70947C12.4611 8.70947 9.45129 11.6913 9.45129 15.3697C9.45129 19.048 12.4611 22.0299 16.1739 22.0299Z" fill="url(#paint2_linear_90_863)"/>
<path d="M6.08447 41.1166L2.71765 38.3152L11.2447 28.254C11.7959 27.5761 12.4765 27.0125 13.2476 26.5952C14.0187 26.1779 14.8651 25.9152 15.7387 25.8221C16.6123 25.729 17.4958 25.8072 18.3389 26.0524C19.1819 26.2976 19.9679 26.705 20.652 27.2512L23.7988 29.7365C24.0396 29.9385 24.3214 30.0869 24.6251 30.1715C24.9289 30.2562 25.2475 30.2751 25.5593 30.227C25.901 30.1715 26.2273 30.0459 26.5172 29.8582C26.8071 29.6705 27.0541 29.4248 27.2426 29.137L31.8308 22.7602C32.4653 21.8358 33.3233 21.0836 34.3266 20.5721C35.3299 20.0607 36.4465 19.8064 37.5745 19.8324C38.7025 19.8585 39.8061 20.164 40.7843 20.7211C41.7625 21.2782 42.5843 22.0692 43.1746 23.0218L51.6797 36.0152L47.9938 38.3915L39.4776 25.3981C39.2681 25.0458 38.9733 24.7508 38.6199 24.5395C38.2664 24.3283 37.8655 24.2075 37.4532 24.1882C37.0507 24.1955 36.6558 24.2984 36.3017 24.488C35.9475 24.6777 35.6444 24.9486 35.4176 25.2782L30.8295 31.655C30.2921 32.422 29.602 33.0721 28.8017 33.5651C28.0013 34.0581 27.1075 34.3837 26.1754 34.5218C25.2709 34.6451 24.3505 34.584 23.4707 34.3422C22.5909 34.1004 21.7702 33.683 21.0591 33.1157L17.9124 30.6412C17.6725 30.4465 17.3956 30.3017 17.098 30.2152C16.8004 30.1288 16.4883 30.1027 16.1802 30.1383C15.8722 30.1739 15.5747 30.2705 15.3051 30.4225C15.0356 30.5744 14.7998 30.7786 14.6116 31.0228L6.08447 41.1166Z" fill="url(#paint3_linear_90_863)"/>
</g>
<defs>
<linearGradient id="paint0_linear_90_863" x1="-7.5479" y1="29.1806" x2="40.5045" y2="20.2902" gradientUnits="userSpaceOnUse">
<stop stop-color="#FF6E11"/>
<stop offset="0.24" stop-color="#FF7311"/>
<stop offset="0.54" stop-color="#FF8211"/>
<stop offset="0.85" stop-color="#FF9A11"/>
<stop offset="1" stop-color="#FFA811"/>
</linearGradient>
<linearGradient id="paint1_linear_90_863" x1="7.21777" y1="31.8839" x2="47.8947" y2="31.8839" gradientUnits="userSpaceOnUse">
<stop stop-color="#FF6E11"/>
<stop offset="0.24" stop-color="#FF7311"/>
<stop offset="0.54" stop-color="#FF8211"/>
<stop offset="0.85" stop-color="#FF9A11"/>
<stop offset="1" stop-color="#FFA811"/>
</linearGradient>
<linearGradient id="paint2_linear_90_863" x1="9.44029" y1="15.3697" x2="22.8966" y2="15.3697" gradientUnits="userSpaceOnUse">
<stop stop-color="#FF6E11"/>
<stop offset="0.24" stop-color="#FF7311"/>
<stop offset="0.54" stop-color="#FF8211"/>
<stop offset="0.85" stop-color="#FF9A11"/>
<stop offset="1" stop-color="#FFA811"/>
</linearGradient>
<linearGradient id="paint3_linear_90_863" x1="-5.94147" y1="37.9009" x2="42.122" y2="29.0216" gradientUnits="userSpaceOnUse">
<stop stop-color="#FF6E11"/>
<stop offset="0.24" stop-color="#FF7311"/>
<stop offset="0.54" stop-color="#FF8211"/>
<stop offset="0.85" stop-color="#FF9A11"/>
<stop offset="1" stop-color="#FFA811"/>
</linearGradient>
<clipPath id="clip0_90_863">
<rect width="53" height="46" fill="white"/>
</clipPath>
</defs>
</svg>
