<svg width="46" height="44" viewBox="0 0 46 44" fill="none" xmlns="http://www.w3.org/2000/svg">
<path opacity="0.64" d="M27.7507 43.4696H7.72756C5.9203 43.4696 4.18698 42.752 2.90861 41.4745C1.63023 40.1971 0.91142 38.4642 0.910156 36.657V16.6338C0.911419 14.8261 1.63008 13.0928 2.90832 11.8146C4.18656 10.5363 5.91986 9.81767 7.72756 9.81641L9.20545 32.843C13.8012 42.4923 34.5586 32.1565 34.5586 35.9228V36.6475C34.5599 38.4547 33.8435 40.1885 32.5669 41.4678C31.2903 42.7471 29.558 43.4671 27.7507 43.4696Z" stroke="url(#paint0_linear_1154_255)" stroke-width="0.815229" stroke-miterlimit="10"/>
<path d="M36.3701 15.0035V10.9416C36.0954 10.5219 35.7757 10.1334 35.4166 9.78312V23.828C35.4272 23.9988 35.4026 24.17 35.3445 24.331C35.2864 24.492 35.1959 24.6394 35.0787 24.7641C34.9615 24.8888 34.8199 24.9882 34.6628 25.0561C34.5057 25.124 34.3363 25.1591 34.1652 25.1591C33.994 25.1591 33.8247 25.124 33.6676 25.0561C33.5105 24.9882 33.3689 24.8888 33.2517 24.7641C33.1344 24.6394 33.044 24.492 32.9858 24.331C32.9277 24.17 32.9032 23.9988 32.9137 23.828V8.20988C32.5854 8.08415 32.2474 7.9853 31.903 7.9143V19.7089C31.903 20.0414 31.7709 20.3603 31.5358 20.5955C31.3007 20.8306 30.9817 20.9627 30.6492 20.9627C30.3167 20.9627 29.9977 20.8306 29.7626 20.5955C29.5275 20.3603 29.3954 20.0414 29.3954 19.7089V7.7522H28.3322V24.9626C28.3322 25.2951 28.2001 25.6141 27.965 25.8492C27.7298 26.0843 27.4109 26.2164 27.0784 26.2164C26.7459 26.2164 26.4269 26.0843 26.1918 25.8492C25.9567 25.6141 25.8246 25.2951 25.8246 24.9626V7.7522H21.5339V30.5166C21.5384 30.5451 21.5384 30.574 21.5339 30.6024C21.4576 32.2567 20.1656 34.0064 18.1395 34.9551C15.4888 36.1994 12.5855 35.5987 11.6606 33.6155C10.7357 31.6322 12.1373 29.0197 14.7785 27.7801C16.0993 27.1237 17.6128 26.9662 19.0405 27.3368V7.7522H10.7166C8.79247 7.7547 6.94758 8.51888 5.58523 9.87766C4.22287 11.2364 3.45385 13.0793 3.44629 15.0035V34.6452C3.44629 35.5998 3.63439 36.5449 3.99982 37.4267C4.36525 38.3085 4.90083 39.1097 5.576 39.7844C6.25118 40.4592 7.0527 40.9942 7.93475 41.3591C8.81679 41.7239 9.76208 41.9114 10.7166 41.9108H30.3584C31.3129 41.912 32.2582 41.725 33.1403 41.3603C34.0223 40.9956 34.8238 40.4605 35.4987 39.7855C36.1736 39.1106 36.7088 38.3092 37.0735 37.4271C37.4381 36.5451 37.6252 35.5997 37.6239 34.6452V16.2668C37.4586 16.2662 37.2951 16.233 37.1426 16.1692C36.9902 16.1054 36.8518 16.0121 36.7354 15.8948C36.6189 15.7775 36.5268 15.6384 36.4641 15.4855C36.4014 15.3325 36.3695 15.1687 36.3701 15.0035ZM22.2013 9.16336C22.2013 8.83165 22.3328 8.51347 22.5669 8.27846C22.801 8.04346 23.1187 7.91079 23.4504 7.90953C23.782 7.90973 24.1003 8.0398 24.3371 8.27186C24.4541 8.38888 24.5468 8.52791 24.6098 8.68092C24.6728 8.83393 24.7049 8.99789 24.7042 9.16336V17.7447C24.6846 18.0633 24.5441 18.3623 24.3116 18.5809C24.0791 18.7996 23.7719 18.9213 23.4528 18.9213C23.1336 18.9213 22.8265 18.7996 22.594 18.5809C22.3614 18.3623 22.221 18.0633 22.2013 17.7447V9.16336Z" fill="url(#paint1_linear_1154_255)"/>
<path opacity="0.6" d="M36.9996 0.701172H28.3324V24.9769C28.3324 25.3094 28.2003 25.6283 27.9652 25.8635C27.73 26.0986 27.4111 26.2307 27.0786 26.2307C26.746 26.2307 26.4271 26.0986 26.192 25.8635C25.9568 25.6283 25.8247 25.3094 25.8247 24.9769V0.701172H15.1457C13.0094 0.70741 10.962 1.55686 9.44874 3.06478C7.93547 4.57269 7.07876 6.6171 7.06494 8.75335V30.6406C7.06493 32.7859 7.91553 34.8438 9.43029 36.363C10.945 37.8822 13.0004 38.7389 15.1457 38.7452H36.9996C39.149 38.7452 41.2105 37.8913 42.7304 36.3714C44.2503 34.8515 45.1042 32.79 45.1042 30.6406V8.77241C45.0954 6.62872 44.2376 4.57585 42.7186 3.06315C41.1997 1.55045 39.1433 0.701154 36.9996 0.701172ZM21.515 30.5166C21.5195 30.545 21.5195 30.574 21.515 30.6024C21.4387 32.2567 20.1467 34.0064 18.1206 34.9551C15.4699 36.1994 12.5665 35.5987 11.6417 33.6154C10.7168 31.6322 12.1184 29.0196 14.7596 27.7801C16.0804 27.1237 17.5939 26.9662 19.0216 27.3367V5.67359C19.021 5.51376 19.052 5.35539 19.1129 5.20761C19.1738 5.05983 19.2633 4.92556 19.3763 4.81255C19.4893 4.69954 19.6236 4.61002 19.7714 4.54915C19.9191 4.48828 20.0775 4.45727 20.2373 4.4579H20.3136C20.636 4.4579 20.9453 4.58599 21.1732 4.81397C21.4012 5.04196 21.5293 5.35117 21.5293 5.67359L21.515 30.5166ZM24.6853 17.7685C24.6657 18.0871 24.5252 18.3862 24.2927 18.6048C24.0602 18.8234 23.7531 18.9451 23.4339 18.9451C23.1147 18.9451 22.8076 18.8234 22.575 18.6048C22.3425 18.3862 22.2021 18.0871 22.1824 17.7685V9.18717C22.1824 8.85546 22.3139 8.53728 22.548 8.30227C22.7821 8.06727 23.0998 7.9346 23.4315 7.93334C23.7631 7.93354 24.0814 8.06361 24.3182 8.29567C24.4352 8.41269 24.5279 8.55172 24.5909 8.70473C24.6539 8.85774 24.686 9.0217 24.6853 9.18717V17.7685ZM31.8651 19.7089C31.8651 20.0414 31.733 20.3603 31.4978 20.5955C31.2627 20.8306 30.9438 20.9627 30.6112 20.9627C30.2787 20.9627 29.9598 20.8306 29.7247 20.5955C29.4895 20.3603 29.3574 20.0414 29.3574 19.7089V7.223C29.3574 6.89046 29.4895 6.57155 29.7247 6.33641C29.9598 6.10127 30.2787 5.96917 30.6112 5.96917C30.7762 5.9679 30.9399 5.99946 31.0926 6.06202C31.2452 6.12458 31.384 6.21691 31.5007 6.33359C31.6173 6.45027 31.7096 6.58899 31.7722 6.74169C31.8348 6.89438 31.8663 7.05799 31.8651 7.223V19.7089ZM35.3787 23.8327C35.3892 24.0035 35.3646 24.1747 35.3065 24.3357C35.2484 24.4967 35.158 24.6441 35.0407 24.7688C34.9235 24.8935 34.7819 24.9929 34.6248 25.0608C34.4677 25.1287 34.2984 25.1638 34.1272 25.1638C33.956 25.1638 33.7867 25.1287 33.6296 25.0608C33.4725 24.9929 33.331 24.8935 33.2137 24.7688C33.0965 24.6441 33.006 24.4967 32.9479 24.3357C32.8897 24.1747 32.8652 24.0035 32.8758 23.8327V6.08835C32.8652 5.91751 32.8897 5.74633 32.9479 5.58533C33.006 5.42434 33.0965 5.27694 33.2137 5.15224C33.331 5.02753 33.4725 4.92814 33.6296 4.86021C33.7867 4.79228 33.956 4.75726 34.1272 4.75726C34.2984 4.75726 34.4677 4.79228 34.6248 4.86021C34.7819 4.92814 34.9235 5.02753 35.0407 5.15224C35.158 5.27694 35.2484 5.42434 35.3065 5.58533C35.3646 5.74633 35.3892 5.91751 35.3787 6.08835V23.8327ZM38.8827 15.0034C38.8933 15.1749 38.8686 15.3467 38.8103 15.5083C38.7519 15.6699 38.6611 15.8178 38.5434 15.943C38.4257 16.0682 38.2837 16.1679 38.126 16.2361C37.9683 16.3043 37.7983 16.3395 37.6265 16.3395C37.4547 16.3395 37.2847 16.3043 37.127 16.2361C36.9693 16.1679 36.8273 16.0682 36.7096 15.943C36.5919 15.8178 36.5011 15.6699 36.4427 15.5083C36.3844 15.3467 36.3597 15.1749 36.3703 15.0034V9.91183C36.3702 9.66381 36.4437 9.42133 36.5815 9.21508C36.7193 9.00883 36.9151 8.84807 37.1442 8.75315C37.3734 8.65822 37.6256 8.6334 37.8688 8.6818C38.1121 8.7302 38.3355 8.84969 38.5109 9.0251C38.6288 9.14068 38.7224 9.27865 38.7863 9.43093C38.8501 9.5832 38.8829 9.74671 38.8827 9.91183V15.0034Z" fill="url(#paint2_linear_1154_255)"/>
<defs>
<linearGradient id="paint0_linear_1154_255" x1="0.514461" y1="26.6502" x2="34.9734" y2="26.6502" gradientUnits="userSpaceOnUse">
  <stop stop-color="#005F49"/>
  <stop offset="1" stop-color="#24AA69"/>
</linearGradient>
<linearGradient id="paint1_linear_1154_255" x1="20.5375" y1="-15.961" x2="20.5375" y2="34.526" gradientUnits="userSpaceOnUse">
  <stop stop-color="#005F49"/>
  <stop offset="1" stop-color="#24AA69"/>
</linearGradient>
<linearGradient id="paint2_linear_1154_255" x1="26.0774" y1="46.9833" x2="26.0774" y2="11.1323" gradientUnits="userSpaceOnUse">
  <stop stop-color="#005F49"/>
  <stop offset="1" stop-color="#24AA69"/>
</linearGradient>
</defs>
</svg>
