<svg width="28" height="23" viewBox="0 0 28 23" fill="none" xmlns="http://www.w3.org/2000/svg">
<g opacity="0.57">
<path d="M27.9667 11.5926C27.9667 8.01418 25.0658 5.11328 21.4874 5.11328C17.909 5.11328 15.0081 8.01418 15.0081 11.5926C15.0081 15.1711 17.909 18.072 21.4874 18.072C25.0658 18.072 27.9667 15.1711 27.9667 11.5926Z" fill="url(#paint0_linear_90_7761)"/>
</g>
<path d="M18.3682 11.9996C19.0423 11.9996 19.5888 11.4532 19.5888 10.7791C19.5888 10.105 19.0423 9.55859 18.3682 9.55859C17.6942 9.55859 17.1477 10.105 17.1477 10.7791C17.1477 11.4532 17.6942 11.9996 18.3682 11.9996Z" fill="white"/>
<path d="M24.5711 11.9996C25.2452 11.9996 25.7916 11.4532 25.7916 10.7791C25.7916 10.105 25.2452 9.55859 24.5711 9.55859C23.897 9.55859 23.3506 10.105 23.3506 10.7791C23.3506 11.4532 23.897 11.9996 24.5711 11.9996Z" fill="white"/>
<path d="M23.4864 13.0489C23.552 13.0488 23.6167 13.0635 23.6758 13.0918C23.7349 13.1201 23.7868 13.1614 23.8278 13.2125C23.8688 13.2636 23.8978 13.3233 23.9126 13.3871C23.9274 13.451 23.9277 13.5173 23.9133 13.5813C23.7791 14.1266 23.4659 14.6112 23.0239 14.9576C22.5818 15.304 22.0364 15.4922 21.4748 15.4922C20.9132 15.4922 20.3678 15.304 19.9257 14.9576C19.4837 14.6112 19.1705 14.1266 19.0363 13.5813C19.021 13.5172 19.0205 13.4505 19.0349 13.3863C19.0493 13.322 19.0782 13.2619 19.1194 13.2106C19.1606 13.1592 19.213 13.1179 19.2726 13.0899C19.3322 13.0618 19.3974 13.0478 19.4632 13.0489H23.4864Z" fill="white"/>
<path d="M14.1391 1.61811C16.5445 1.6109 18.8686 2.48866 20.6686 4.08426C20.8167 4.21672 21.0074 4.29161 21.206 4.29524C21.3701 4.29592 21.5305 4.24668 21.6659 4.15407C21.8013 4.06145 21.9054 3.92982 21.9642 3.77669C22.0231 3.62355 22.034 3.45614 21.9954 3.29667C21.9569 3.1372 21.8708 2.99322 21.7485 2.88385C19.6579 1.02612 16.9584 0 14.1616 0C11.3649 0 8.66536 1.02612 6.57477 2.88385C6.45281 2.99294 6.36685 3.13645 6.32817 3.29544C6.2895 3.45443 6.29992 3.62141 6.35815 3.77433C6.41638 3.92724 6.51966 4.05892 6.65429 4.15192C6.78892 4.24492 6.94861 4.2949 7.11224 4.29524C7.31253 4.29236 7.50507 4.21746 7.65467 4.08426C9.44309 2.49901 11.7492 1.62196 14.1391 1.61811ZM14.1391 21.2771C11.7336 21.2844 9.40956 20.4066 7.60949 18.811C7.46112 18.6757 7.26773 18.6006 7.06699 18.6C6.90325 18.5988 6.7431 18.6476 6.60788 18.74C6.47267 18.8323 6.36884 18.9638 6.31039 19.1168C6.25194 19.2697 6.24161 19.4369 6.28078 19.5959C6.31994 19.7548 6.40677 19.8981 6.52958 20.0064C8.62018 21.8641 11.3197 22.8902 14.1164 22.8902C16.9132 22.8902 19.6127 21.8641 21.7033 20.0064C21.8237 19.8966 21.9082 19.7531 21.9457 19.5945C21.9831 19.4359 21.9717 19.2697 21.9131 19.1176C21.8545 18.9656 21.7512 18.8349 21.617 18.7425C21.4828 18.6501 21.3238 18.6005 21.1608 18.6C20.9618 18.6013 20.7702 18.6765 20.6234 18.811C18.8342 20.3944 16.5283 21.2696 14.1391 21.2721V21.2771Z" fill="url(#paint1_linear_90_7761)"/>
<path d="M8.51853 19.0936C7.03474 19.0966 5.5834 18.6593 4.34822 17.8371C3.11304 17.015 2.14959 15.8448 1.5797 14.4748C1.00981 13.1048 0.859125 11.5966 1.14677 10.1409C1.43442 8.68529 2.14745 7.34768 3.1956 6.29742C4.24375 5.24717 5.57988 4.53147 7.03495 4.2409C8.49001 3.95033 9.99857 4.09796 11.3697 4.66509C12.7408 5.23223 13.9129 6.19338 14.7376 7.4269C15.5622 8.66042 16.0024 10.1108 16.0024 11.5946C15.9932 13.578 15.2023 15.4778 13.8012 16.8817C12.4001 18.2856 10.5019 19.0804 8.51853 19.0936Z" fill="white"/>
<path d="M8.51856 5.09896C9.80282 5.09995 11.0579 5.48169 12.1253 6.1959C13.1926 6.91012 14.0242 7.92476 14.515 9.11154C15.0058 10.2983 15.1337 11.604 14.8826 12.8635C14.6314 14.1229 14.0125 15.2796 13.104 16.1874C12.1956 17.0951 11.0384 17.7132 9.77872 17.9634C8.51907 18.2135 7.21352 18.0846 6.02711 17.5929C4.84071 17.1013 3.82668 16.2688 3.11328 15.2009C2.39989 14.1331 2.01916 12.8776 2.01916 11.5934C2.01916 10.7401 2.18726 9.89518 2.51395 9.10691C2.84064 8.31865 3.31951 7.60247 3.9231 6.99935C4.5267 6.39622 5.24319 5.91796 6.03171 5.59188C6.82023 5.2658 7.66528 5.0983 8.51856 5.09896ZM8.51856 3.08986C6.83609 3.08688 5.19055 3.58306 3.79018 4.51563C2.3898 5.44819 1.29756 6.77521 0.651635 8.32876C0.00571275 9.88231 -0.164845 11.5926 0.161561 13.2431C0.487967 14.8936 1.29662 16.4102 2.48526 17.6009C3.67389 18.7917 5.18909 19.603 6.83902 19.9324C8.48895 20.2617 10.1995 20.0942 11.7542 19.451C13.3089 18.8079 14.6378 17.718 15.5728 16.3192C16.5079 14.9205 17.007 13.2758 17.007 11.5934C16.9978 9.34094 16.0989 7.18343 14.5062 5.59072C12.9135 3.998 10.7559 3.09911 8.50348 3.08986H8.51856Z" fill="url(#paint2_linear_90_7761)"/>
<path d="M5.61042 11.9447C6.37881 11.9447 7.00171 11.3218 7.00171 10.5534C7.00171 9.78502 6.37881 9.16211 5.61042 9.16211C4.84202 9.16211 4.21912 9.78502 4.21912 10.5534C4.21912 11.3218 4.84202 11.9447 5.61042 11.9447Z" fill="url(#paint3_linear_90_7761)"/>
<path d="M11.3815 11.9447C12.1499 11.9447 12.7728 11.3218 12.7728 10.5534C12.7728 9.78502 12.1499 9.16211 11.3815 9.16211C10.6131 9.16211 9.99023 9.78502 9.99023 10.5534C9.99023 11.3218 10.6131 11.9447 11.3815 11.9447Z" fill="url(#paint4_linear_90_7761)"/>
<path d="M10.4071 13.6016C10.3721 14.0838 10.1558 14.535 9.80172 14.8643C9.44763 15.1936 8.98206 15.3767 8.49851 15.3767C8.01496 15.3767 7.54933 15.1936 7.19525 14.8643C6.84116 14.535 6.62486 14.0838 6.58984 13.6016H10.4071Z" fill="url(#paint5_linear_90_7761)"/>
<defs>
<linearGradient id="paint0_linear_90_7761" x1="15.0081" y1="11.5926" x2="27.9718" y2="11.5926" gradientUnits="userSpaceOnUse">
  <stop stop-color="#005F49"/>
  <stop offset="0.24" stop-color="#006D51"/>
  <stop offset="0.54" stop-color="#008962"/>
  <stop offset="0.85" stop-color="#00A76F"/>
  <stop offset="1" stop-color="#24AA69"/>
</linearGradient>
<linearGradient id="paint1_linear_90_7761" x1="5.06291" y1="11.4426" x2="20.2417" y2="11.4426" gradientUnits="userSpaceOnUse">
  <stop stop-color="#005F49"/>
  <stop offset="0.24" stop-color="#006D51"/>
  <stop offset="0.54" stop-color="#008962"/>
  <stop offset="0.85" stop-color="#00A76F"/>
  <stop offset="1" stop-color="#24AA69"/>
</linearGradient>
<linearGradient id="paint2_linear_90_7761" x1="0.0100494" y1="11.5934" x2="17.0221" y2="11.5934" gradientUnits="userSpaceOnUse">
  <stop stop-color="#005F49"/>
  <stop offset="0.24" stop-color="#006D51"/>
  <stop offset="0.54" stop-color="#008962"/>
  <stop offset="0.85" stop-color="#00A76F"/>
  <stop offset="1" stop-color="#24AA69"/>
</linearGradient>
<linearGradient id="paint3_linear_90_7761" x1="4.21912" y1="10.5534" x2="7.00171" y2="10.5534" gradientUnits="userSpaceOnUse">
  <stop stop-color="#005F49"/>
  <stop offset="0.24" stop-color="#006D51"/>
  <stop offset="0.54" stop-color="#008962"/>
  <stop offset="0.85" stop-color="#00A76F"/>
  <stop offset="1" stop-color="#24AA69"/>
</linearGradient>
<linearGradient id="paint4_linear_90_7761" x1="9.99023" y1="10.5534" x2="12.7728" y2="10.5534" gradientUnits="userSpaceOnUse">
  <stop stop-color="#005F49"/>
  <stop offset="0.24" stop-color="#006D51"/>
  <stop offset="0.54" stop-color="#008962"/>
  <stop offset="0.85" stop-color="#00A76F"/>
  <stop offset="1" stop-color="#24AA69"/>
</linearGradient>
<linearGradient id="paint5_linear_90_7761" x1="6.58984" y1="14.5057" x2="10.4071" y2="14.5057" gradientUnits="userSpaceOnUse">
  <stop stop-color="#005F49"/>
  <stop offset="0.24" stop-color="#006D51"/>
  <stop offset="0.54" stop-color="#008962"/>
  <stop offset="0.85" stop-color="#00A76F"/>
  <stop offset="1" stop-color="#24AA69"/>
</linearGradient>
</defs>
</svg>
