<svg width="28" height="23" viewBox="0 0 28 23" fill="none" xmlns="http://www.w3.org/2000/svg">
<path d="M23.3105 6.29418V15.2799C23.3148 16.3777 22.8936 17.4344 22.1352 18.2282C21.7417 18.6509 21.265 18.9878 20.7352 19.2177C20.2054 19.4476 19.6338 19.5656 19.0563 19.5643H6.26839C5.69018 19.5651 5.11799 19.4468 4.58743 19.217C4.05688 18.9871 3.5793 18.6506 3.18441 18.2282C2.42786 17.4333 2.00685 16.3773 2.00905 15.2799V6.29418C2.00638 5.16142 2.45347 4.07391 3.2521 3.27057C4.05073 2.46723 5.13563 2.01376 6.26839 2.00977H19.0563C19.6169 2.01174 20.1717 2.12414 20.6889 2.34052C21.2061 2.5569 21.6757 2.87303 22.0707 3.27088C22.4658 3.66872 22.7786 4.14048 22.9913 4.65922C23.2041 5.17795 23.3125 5.73353 23.3105 6.29418Z" fill="white"/>
<path d="M19.0563 2.0091C19.617 2.01107 20.1717 2.12347 20.689 2.33985C21.2062 2.55623 21.6757 2.87237 22.0708 3.27021C22.4658 3.66806 22.7787 4.13981 22.9914 4.65855C23.2041 5.17729 23.3126 5.73286 23.3106 6.29352V15.2792C23.3149 16.377 22.8936 17.4338 22.1353 18.2276C21.7417 18.6503 21.2651 18.9871 20.7353 19.217C20.2055 19.4469 19.6339 19.5649 19.0563 19.5636H6.26844C5.69024 19.5644 5.11805 19.4462 4.58749 19.2163C4.05693 18.9865 3.57936 18.6499 3.18447 18.2276C2.42791 17.4326 2.00691 16.3766 2.0091 15.2792V6.29352C2.00643 5.16075 2.45353 4.07324 3.25216 3.2699C4.05079 2.46657 5.13568 2.01309 6.26844 2.0091H19.0563ZM19.0563 0H6.26844C4.60325 0.0053196 3.00813 0.670899 1.83301 1.85073C0.65789 3.03056 -0.0013365 4.62831 2.0344e-06 6.29352V15.2792C-0.0013365 16.9444 0.65789 18.5421 1.83301 19.722C3.00813 20.9018 4.60325 21.5674 6.26844 21.5727H19.0563C19.8808 21.5707 20.6969 21.4064 21.4578 21.089C22.2188 20.7717 22.9099 20.3075 23.4915 19.7231C24.0731 19.1387 24.5339 18.4455 24.8476 17.683C25.1613 16.9205 25.3217 16.1037 25.3197 15.2792V6.29352C25.321 4.62918 24.6626 3.03219 23.4885 1.85251C22.3145 0.672821 20.7207 0.00664617 19.0563 0Z" fill="url(#paint0_linear_90_7716)"/>
<path d="M27.2134 7.95296V17.9432C27.2147 19.2017 26.7178 20.4096 25.8312 21.3028C24.9446 22.1959 23.7404 22.7018 22.4819 22.7098H8.26759C7.00869 22.7031 5.80373 22.1977 4.91685 21.3042C4.02996 20.4107 3.53347 19.2021 3.53614 17.9432V7.95296C3.53347 6.69451 4.03012 5.4864 4.91715 4.59372C5.80418 3.70104 7.00915 3.19672 8.26759 3.19141H22.4819C23.7404 3.19672 24.9453 3.70104 25.8324 4.59372C26.7194 5.4864 27.216 6.69451 27.2134 7.95296Z" fill="url(#paint1_linear_90_7716)"/>
<path d="M15.2139 19.8112C19.1308 19.8112 22.3061 16.6359 22.3061 12.7191C22.3061 8.8022 19.1308 5.62695 15.2139 5.62695C11.2971 5.62695 8.12183 8.8022 8.12183 12.7191C8.12183 16.6359 11.2971 19.8112 15.2139 19.8112Z" fill="white"/>
<path d="M15.1084 6.58985C13.8784 6.58885 12.6757 6.9527 11.6524 7.63535C10.6292 8.31801 9.8314 9.28883 9.36 10.425C8.88859 11.5611 8.76477 12.8115 9.00414 14.018C9.2435 15.2246 9.83528 16.333 10.7047 17.2031C11.5741 18.0733 12.6821 18.666 13.8884 18.9063C15.0948 19.1467 16.3453 19.0238 17.4819 18.5533C18.6184 18.0828 19.5898 17.2858 20.2732 16.2632C20.9567 15.2405 21.3216 14.0381 21.3216 12.808C21.3222 11.9917 21.162 11.1832 20.8501 10.4288C20.5381 9.6744 20.0805 8.98889 19.5035 8.41142C18.9265 7.83394 18.2414 7.37583 17.4873 7.06327C16.7331 6.75072 15.9248 6.58985 15.1084 6.58985ZM15.1536 18.323C14.0688 18.322 13.0087 17.9993 12.1072 17.3958C11.2058 16.7923 10.5037 15.9351 10.0894 14.9325C9.67522 13.9299 9.56756 12.8269 9.78017 11.7632C9.99278 10.6994 10.5161 9.72261 11.2839 8.95624C12.0516 8.18988 13.0294 7.66839 14.0935 7.45773C15.1577 7.24707 16.2604 7.3567 17.2622 7.77275C18.2641 8.18881 19.1201 8.8926 19.7219 9.79513C20.3238 10.6977 20.6445 11.7584 20.6435 12.8432C20.6435 13.5632 20.5016 14.2762 20.2259 14.9414C19.9502 15.6065 19.5461 16.2109 19.0367 16.7198C18.5273 17.2287 17.9226 17.6322 17.2572 17.9073C16.5918 18.1824 15.8787 18.3237 15.1587 18.323H15.1536Z" fill="url(#paint2_linear_90_7716)"/>
<path d="M18.4084 11.4279L14.34 9.07726C14.0973 8.93716 13.822 8.86337 13.5418 8.86328C13.2616 8.86319 12.9864 8.93682 12.7436 9.07677C12.5009 9.21672 12.2991 9.41806 12.1588 9.66059C12.0185 9.90313 11.9444 10.1783 11.9441 10.4585V15.1598C11.9444 15.44 12.0185 15.7152 12.1588 15.9577C12.2991 16.2003 12.5009 16.4016 12.7436 16.5416C12.9864 16.6815 13.2616 16.7552 13.5418 16.7551C13.822 16.755 14.0973 16.6812 14.34 16.5411L18.4084 14.1904C18.6515 14.051 18.8536 13.8499 18.9941 13.6073C19.1346 13.3648 19.2086 13.0895 19.2086 12.8092C19.2086 12.5289 19.1346 12.2536 18.9941 12.011C18.8536 11.7685 18.6515 11.5673 18.4084 11.4279Z" fill="url(#paint3_linear_90_7716)"/>
<defs>
<linearGradient id="paint0_linear_90_7716" x1="2.03451e-06" y1="10.7838" x2="25.3197" y2="10.7838" gradientUnits="userSpaceOnUse">
<stop stop-color="#FF6E11"/>
<stop offset="0.24" stop-color="#FF7311"/>
<stop offset="0.54" stop-color="#FF8211"/>
<stop offset="0.85" stop-color="#FF9A11"/>
<stop offset="1" stop-color="#FFA811"/>
</linearGradient>
<linearGradient id="paint1_linear_90_7716" x1="3.54619" y1="12.9707" x2="27.2234" y2="12.9707" gradientUnits="userSpaceOnUse">
<stop offset="0.01" stop-color="#FFBF94"/>
<stop offset="0.08" stop-color="#FFC294"/>
<stop offset="0.54" stop-color="#FFCE94"/>
<stop offset="1" stop-color="#FFD294"/>
</linearGradient>
<linearGradient id="paint2_linear_90_7716" x1="15.1084" y1="20.8394" x2="15.1084" y2="5.25882" gradientUnits="userSpaceOnUse">
<stop stop-color="#FF6E11"/>
<stop offset="0.24" stop-color="#FF7311"/>
<stop offset="0.54" stop-color="#FF8211"/>
<stop offset="0.85" stop-color="#FF9A11"/>
<stop offset="1" stop-color="#FFA811"/>
</linearGradient>
<linearGradient id="paint3_linear_90_7716" x1="15.5755" y1="5.75723" x2="15.5755" y2="17.842" gradientUnits="userSpaceOnUse">
<stop stop-color="#FF6E11"/>
<stop offset="0.24" stop-color="#FF7311"/>
<stop offset="0.54" stop-color="#FF8211"/>
<stop offset="0.85" stop-color="#FF9A11"/>
<stop offset="1" stop-color="#FFA811"/>
</linearGradient>
</defs>
</svg>
