<svg width="46" height="39" viewBox="0 0 46 39" fill="none" xmlns="http://www.w3.org/2000/svg">
<path d="M23.4691 36.0381H8.93781C7.76494 36.039 6.60338 35.8088 5.51946 35.3608C4.43554 34.9127 3.45048 34.2556 2.62052 33.4268C1.79057 32.5981 1.13198 31.614 0.682349 30.5307C0.232718 29.4474 0.0008558 28.2862 0 27.1133V8.93783C0 6.56737 0.941658 4.29399 2.61782 2.61782C4.29399 0.941658 6.56736 0 8.93781 0H23.4691C25.4097 0.000868578 27.2974 0.632877 28.8473 1.80062C30.3972 2.96836 31.5253 4.60851 32.0614 6.47359C32.283 7.2559 6.47356 5.38486 6.47356 6.23887L6.30406 33.2544C6.30406 35.6404 23.8211 36.6183 29.9492 33.2544C29.1143 34.1337 28.1093 34.8339 26.9953 35.3125C25.8813 35.791 24.6815 36.0379 23.4691 36.0381Z" fill="url(#paint0_linear_1154_335)"/>
<path d="M32.3809 30.8162C31.993 31.334 31.476 31.7408 30.8815 31.9962L25.601 34.2584C25.0058 34.5156 24.3534 34.6111 23.7095 34.5354C23.0656 34.4597 22.4531 34.2154 21.9339 33.8271C21.4147 33.4389 21.0071 32.9204 20.7524 32.3242C20.4978 31.728 20.405 31.0752 20.4834 30.4316L21.1353 24.7338C21.2106 24.0901 21.4559 23.4781 21.8459 22.9606L35.1516 5.15015C34.3912 4.17663 33.4187 3.38937 32.3083 2.84826C31.1978 2.30714 29.9785 2.02643 28.7432 2.02747H11.0893C8.93086 2.02747 6.86078 2.88441 5.33396 4.41001C3.80714 5.93561 2.94851 8.00502 2.94678 10.1634V30.2295C2.94678 32.389 3.80465 34.4601 5.33166 35.9871C6.85866 37.5141 8.92973 38.372 11.0893 38.372H28.7693C30.9288 38.372 32.9999 37.5141 34.5269 35.9871C36.0539 34.4601 36.9118 32.389 36.9118 30.2295V24.7468L32.3809 30.8162ZM14.2054 7.34711C14.5567 7.34582 14.9004 7.44888 15.193 7.64323C15.4856 7.83758 15.7139 8.11447 15.8489 8.43875C15.9839 8.76303 16.0196 9.12008 15.9514 9.46466C15.8832 9.80923 15.7142 10.1258 15.4658 10.3742C15.2174 10.6226 14.9009 10.7916 14.5563 10.8598C14.2117 10.928 13.8546 10.8923 13.5303 10.7573C13.2061 10.6223 12.9292 10.394 12.7348 10.1014C12.5405 9.80881 12.4374 9.46509 12.4387 9.11383C12.4456 8.65093 12.6338 8.2092 12.963 7.88368C13.2922 7.55816 13.736 7.37483 14.1989 7.37317L14.2054 7.34711ZM9.15957 7.34711C9.51083 7.34582 9.85456 7.44888 10.1472 7.64323C10.4398 7.83758 10.6681 8.11447 10.8031 8.43875C10.9381 8.76303 10.9738 9.12008 10.9055 9.46466C10.8373 9.80923 10.6683 10.1258 10.4199 10.3742C10.1716 10.6226 9.855 10.7916 9.51042 10.8598C9.16584 10.928 8.80877 10.8923 8.48449 10.7573C8.16021 10.6223 7.88334 10.394 7.68899 10.1014C7.49465 9.80881 7.39158 9.46509 7.39287 9.11383C7.39972 8.6498 7.58887 8.20711 7.91945 7.88141C8.25003 7.55571 8.69549 7.37312 9.15957 7.37317V7.34711ZM7.90788 12.6863C8.07243 12.5224 8.26767 12.3926 8.48245 12.3042C8.69723 12.2158 8.92732 12.1707 9.15957 12.1713H20.7181C21.1867 12.1713 21.636 12.3574 21.9673 12.6888C22.2987 13.0201 22.4848 13.4694 22.4848 13.938C22.4848 14.4066 22.2987 14.8559 21.9673 15.1873C21.636 15.5186 21.1867 15.7047 20.7181 15.7047H9.15957C8.81082 15.7026 8.47044 15.5977 8.18102 15.4031C7.89159 15.2085 7.66596 14.9329 7.53237 14.6108C7.39878 14.2886 7.36315 13.9342 7.42994 13.592C7.49673 13.2497 7.66298 12.9346 7.90788 12.6863ZM15.6853 31.4225C15.5207 31.5864 15.3255 31.7163 15.1107 31.8046C14.8959 31.893 14.6658 31.9382 14.4336 31.9375H9.15957C8.92756 31.9375 8.69783 31.8918 8.48348 31.803C8.26913 31.7142 8.07437 31.5841 7.91032 31.4201C7.74627 31.256 7.61614 31.0612 7.52735 30.8469C7.43857 30.6325 7.39287 30.4028 7.39287 30.1708C7.39287 29.9388 7.43857 29.7091 7.52735 29.4947C7.61614 29.2804 7.74627 29.0856 7.91032 28.9216C8.07437 28.7575 8.26913 28.6274 8.48348 28.5386C8.69783 28.4498 8.92756 28.4041 9.15957 28.4041H14.4336C14.7823 28.4062 15.1227 28.5111 15.4122 28.7057C15.7016 28.9003 15.9272 29.1759 16.0608 29.498C16.1944 29.8202 16.23 30.1746 16.1632 30.5169C16.0964 30.8592 15.9302 31.1742 15.6853 31.4225ZM15.6853 25.992C15.5222 26.1583 15.3273 26.2901 15.1123 26.3797C14.8973 26.4692 14.6665 26.5148 14.4336 26.5136H9.15957C8.70871 26.4862 8.2853 26.2878 7.97574 25.9588C7.66619 25.6299 7.49382 25.1953 7.49382 24.7436C7.49382 24.2919 7.66619 23.8572 7.97574 23.5283C8.2853 23.1994 8.70871 23.001 9.15957 22.9736H14.4336C14.6662 22.9736 14.8964 23.0195 15.1112 23.1087C15.326 23.1979 15.521 23.3286 15.6851 23.4934C15.8493 23.6581 15.9793 23.8536 16.0677 24.0687C16.1561 24.2838 16.2012 24.5143 16.2003 24.7468C16.2046 24.9825 16.1613 25.2167 16.0728 25.4351C15.9842 25.6536 15.8524 25.8519 15.6853 26.0181V25.992ZM17.641 20.5681C17.4765 20.732 17.2812 20.8618 17.0665 20.9502C16.8517 21.0385 16.6216 21.0837 16.3894 21.0831H9.15957C8.69101 21.0831 8.24164 20.8969 7.91032 20.5656C7.579 20.2343 7.39287 19.7849 7.39287 19.3163C7.39287 18.8478 7.579 18.3984 7.91032 18.0671C8.24164 17.7358 8.69101 17.5497 9.15957 17.5497H16.3763C16.7264 17.5487 17.069 17.6518 17.3604 17.8458C17.6518 18.0399 17.879 18.3162 18.0131 18.6396C18.1473 18.963 18.1823 19.319 18.1137 19.6624C18.0451 20.0057 17.8761 20.321 17.628 20.5681H17.641Z" fill="url(#paint1_linear_1154_335)"/>
<path d="M44.5849 9.28988L39.0566 5.16326C38.8666 5.02097 38.6505 4.91752 38.4205 4.85886C38.1905 4.8002 37.9511 4.78747 37.7162 4.82138C37.4813 4.85529 37.2553 4.9352 37.0513 5.0565C36.8473 5.1778 36.6692 5.33813 36.5272 5.52833L33.5088 9.57024L41.9316 15.8678L44.95 11.8259C45.2377 11.4411 45.3608 10.9578 45.2924 10.4823C45.2239 10.0068 44.9695 9.57786 44.5849 9.28988Z" fill="url(#paint2_linear_1154_335)"/>
<path d="M22.465 24.8837L21.7805 30.588C21.7316 31.0038 21.793 31.4252 21.9585 31.8098C22.124 32.1944 22.3878 32.5286 22.7234 32.779C23.059 33.0294 23.4545 33.1871 23.8703 33.2362C24.2861 33.2853 24.7076 33.2241 25.0922 33.0588L30.3663 30.7966C30.6607 30.674 30.9253 30.4895 31.142 30.2555L22.7584 23.9906C22.598 24.264 22.498 24.5685 22.465 24.8837Z" fill="url(#paint3_linear_1154_335)"/>
<path d="M32.8857 10.4042L23.3989 23.0992L31.8171 29.39L41.3039 16.6949L32.8857 10.4042Z" fill="url(#paint4_linear_1154_335)"/>
<defs>
<linearGradient id="paint0_linear_1154_335" x1="16.0307" y1="38.2155" x2="16.0307" y2="2.79673" gradientUnits="userSpaceOnUse">
  <stop stop-color="#207A91"/>
  <stop offset="0.96" stop-color="#1E405A"/>
</linearGradient>
<linearGradient id="paint1_linear_1154_335" x1="19.9293" y1="45.0802" x2="19.9293" y2="1.10826" gradientUnits="userSpaceOnUse">
  <stop stop-color="#207A91"/>
  <stop offset="1" stop-color="#1E405A"/>
</linearGradient>
<linearGradient id="paint2_linear_1154_335" x1="21.8981" y1="34.7213" x2="38.7046" y2="11.4217" gradientUnits="userSpaceOnUse">
  <stop stop-color="#207A91"/>
  <stop offset="0.96" stop-color="#1E405A"/>
</linearGradient>
<linearGradient id="paint3_linear_1154_335" x1="21.6175" y1="34.5191" x2="38.424" y2="11.2195" gradientUnits="userSpaceOnUse">
  <stop stop-color="#207A91"/>
  <stop offset="0.96" stop-color="#1E405A"/>
</linearGradient>
<linearGradient id="paint4_linear_1154_335" x1="21.7233" y1="34.5896" x2="38.5363" y2="11.2835" gradientUnits="userSpaceOnUse">
  <stop stop-color="#207A91"/>
  <stop offset="0.96" stop-color="#1E405A"/>
</linearGradient>
</defs>
</svg>
