<svg width="35" height="42" viewBox="0 0 35 42" fill="none" xmlns="http://www.w3.org/2000/svg">
<path d="M2.49658 16.2068V34.0042C2.49658 35.9631 3.27477 37.8419 4.65996 39.227C6.04515 40.6122 7.92386 41.3904 9.88282 41.3904H25.3268C27.2857 41.3904 29.1645 40.6122 30.5497 39.227C31.9348 37.8419 32.713 35.9631 32.713 34.0042V16.2068H2.49658ZM10.3718 33.3523C10.3718 33.8433 10.1767 34.3142 9.82948 34.6614C9.48226 35.0086 9.01134 35.2037 8.52031 35.2037C8.02927 35.2037 7.55835 35.0086 7.21114 34.6614C6.86392 34.3142 6.66886 33.8433 6.66886 33.3523V23.3714C6.66886 22.8803 6.86392 22.4094 7.21114 22.0622C7.55835 21.715 8.02927 21.5199 8.52031 21.5199C9.01134 21.5199 9.48226 21.715 9.82948 22.0622C10.1767 22.4094 10.3718 22.8803 10.3718 23.3714V33.3523ZM19.4986 33.3523C19.4986 33.8433 19.3036 34.3142 18.9563 34.6614C18.6091 35.0086 18.1382 35.2037 17.6472 35.2037C17.1561 35.2037 16.6852 35.0086 16.338 34.6614C15.9908 34.3142 15.7957 33.8433 15.7957 33.3523V23.3714C15.7957 22.8803 15.9908 22.4094 16.338 22.0622C16.6852 21.715 17.1561 21.5199 17.6472 21.5199C18.1382 21.5199 18.6091 21.715 18.9563 22.0622C19.3036 22.4094 19.4986 22.8803 19.4986 23.3714V33.3523ZM28.6255 33.3523C28.6255 33.8433 28.4304 34.3142 28.0832 34.6614C27.736 35.0086 27.2651 35.2037 26.774 35.2037C26.283 35.2037 25.8121 35.0086 25.4649 34.6614C25.1177 34.3142 24.9226 33.8433 24.9226 33.3523V23.3714C24.9226 22.8803 25.1177 22.4094 25.4649 22.0622C25.8121 21.715 26.283 21.5199 26.774 21.5199C27.2651 21.5199 27.736 21.715 28.0832 22.0622C28.4304 22.4094 28.6255 22.8803 28.6255 23.3714V33.3523Z" fill="url(#paint0_linear_1154_344)"/>
<path d="M18.8863 9.92219H16.6959C15.4014 9.92047 14.1604 9.40545 13.2451 8.49011C12.3297 7.57477 11.8147 6.33381 11.813 5.03932V4.88287C11.8147 3.58838 12.3297 2.34738 13.2451 1.43204C14.1604 0.516699 15.4014 0.00172484 16.6959 0H18.9059C20.2004 0.00172484 21.4413 0.516699 22.3567 1.43204C23.272 2.34738 23.787 3.58838 23.7887 4.88287V5.03932C23.7879 5.68196 23.6604 6.31809 23.4134 6.9114C23.1665 7.50471 22.8051 8.04353 22.3498 8.49703C21.8944 8.95053 21.3542 9.30983 20.7599 9.55437C20.1656 9.79891 19.5289 9.9239 18.8863 9.92219ZM16.6763 1.44724C15.7708 1.44896 14.9029 1.80941 14.2627 2.44967C13.6224 3.08993 13.262 3.95783 13.2602 4.86329V5.01975C13.2602 5.92634 13.6199 6.79591 14.2604 7.43758C14.9008 8.07925 15.7697 8.44059 16.6763 8.44232H18.8863C19.7929 8.44059 20.6618 8.07925 21.3022 7.43758C21.9427 6.79591 22.3024 5.92634 22.3024 5.01975V4.86329C22.3006 3.95783 21.9402 3.08993 21.2999 2.44967C20.6597 1.80941 19.7918 1.44896 18.8863 1.44724H16.6763Z" fill="url(#paint1_linear_1154_344)"/>
<path d="M33.1566 11.5651H32.7133V8.5271C32.7133 7.17848 32.1776 5.88509 31.2239 4.93148C30.2703 3.97786 28.9769 3.44214 27.6283 3.44214H7.56877C6.22015 3.44214 4.92677 3.97786 3.97315 4.93148C3.01953 5.88509 2.48381 7.17848 2.48381 8.5271V11.5651H1.3299C0.977185 11.5651 0.638912 11.7052 0.389504 11.9546C0.140097 12.204 0 12.5423 0 12.895C0 13.2477 0.140097 13.586 0.389504 13.8354C0.638912 14.0848 0.977185 14.2249 1.3299 14.2249H33.1436C33.4963 14.2249 33.8345 14.0848 34.0839 13.8354C34.3334 13.586 34.4735 13.2477 34.4735 12.895C34.4735 12.5423 34.3334 12.204 34.0839 11.9546C33.8345 11.7052 33.4963 11.5651 33.1436 11.5651H33.1566Z" fill="url(#paint2_linear_1154_344)"/>
<defs>
<linearGradient id="paint0_linear_1154_344" x1="17.6081" y1="46.6449" x2="17.6081" y2="8.17514" gradientUnits="userSpaceOnUse">
<stop stop-color="#005F49"/>
<stop offset="1" stop-color="#24AA69"/>
</linearGradient>
<linearGradient id="paint1_linear_1154_344" x1="11.7934" y1="4.9611" x2="23.7692" y2="4.9611" gradientUnits="userSpaceOnUse">
<stop stop-color="#005F49"/>
<stop offset="1" stop-color="#24AA69"/>
</linearGradient>
<linearGradient id="paint2_linear_1154_344" x1="17.2498" y1="-2.75109" x2="17.2498" y2="13.1296" gradientUnits="userSpaceOnUse">
<stop stop-color="#005F49"/>
<stop offset="0.96" stop-color="#24AA69"/>
</linearGradient>
</defs>
</svg>
