<svg width="41" height="45" viewBox="0 0 41 45" fill="none" xmlns="http://www.w3.org/2000/svg">
<path d="M24.999 13.3247C24.999 7.70627 20.4444 3.15161 14.8259 3.15161C9.20748 3.15161 4.65283 7.70627 4.65283 13.3247V19.1463C4.65283 24.7648 9.20748 29.3194 14.8259 29.3194C20.4444 29.3194 24.999 24.7648 24.999 19.1463V13.3247Z" stroke="url(#paint0_linear_1154_208)" stroke-width="0.904678" stroke-miterlimit="10"/>
<path d="M26.614 25.1173C26.2643 25.1136 25.9197 25.2019 25.6148 25.3734C25.3099 25.5449 25.0555 25.7935 24.8771 26.0944C23.8603 27.8617 22.3957 29.3299 20.6307 30.3507C18.8657 31.3716 16.8628 31.9091 14.8238 31.9091C12.7849 31.9091 10.7819 31.3716 9.01694 30.3507C7.25195 29.3299 5.78728 27.8617 4.77057 26.0944C4.59286 25.7939 4.33922 25.5454 4.03513 25.3739C3.73105 25.2024 3.3872 25.1139 3.0381 25.1173C2.6819 25.1168 2.33182 25.2099 2.02283 25.3871C1.71383 25.5643 1.45676 25.8195 1.27728 26.1272C1.0978 26.4349 1.0022 26.7843 1.00004 27.1405C0.997873 27.4967 1.08921 27.8472 1.26494 28.157C2.46938 30.2345 4.13432 32.008 6.13165 33.3411C8.12897 34.6742 10.4055 35.5314 12.786 35.8468V39.8002H8.07264C7.53279 39.8002 7.01506 40.0147 6.63332 40.3964C6.25159 40.7782 6.03712 41.2959 6.03712 41.8358C6.03712 42.3756 6.25159 42.8934 6.63332 43.2751C7.01506 43.6568 7.53279 43.8713 8.07264 43.8713H21.6021C22.142 43.8713 22.6597 43.6568 23.0414 43.2751C23.4232 42.8934 23.6376 42.3756 23.6376 41.8358C23.6376 41.2959 23.4232 40.7782 23.0414 40.3964C22.6597 40.0147 22.142 39.8002 21.6021 39.8002H16.8571V35.8332C19.2385 35.5185 21.5158 34.6616 23.514 33.3285C25.5121 31.9953 27.1778 30.2215 28.3827 28.1435C28.5563 27.8345 28.6461 27.4856 28.6431 27.1312C28.6401 26.7768 28.5445 26.4294 28.3657 26.1235C28.1869 25.8175 27.9311 25.5637 27.6238 25.3872C27.3165 25.2107 26.9684 25.1176 26.614 25.1173Z" stroke="url(#paint1_linear_1154_208)" stroke-width="0.904678" stroke-miterlimit="10"/>
<path d="M27.1885 12.4834C27.1885 6.86496 22.6338 2.3103 17.0154 2.3103C11.3969 2.3103 6.84229 6.86496 6.84229 12.4834V18.305C6.84229 23.9235 11.3969 28.4781 17.0154 28.4781C22.6338 28.4781 27.1885 23.9235 27.1885 18.305V12.4834Z" fill="url(#paint2_linear_1154_208)"/>
<path d="M28.8035 24.2804C28.4538 24.2771 28.1094 24.3656 27.8046 24.5371C27.4998 24.7085 27.2453 24.9569 27.0665 25.2574C26.0495 27.0238 24.5849 28.4909 22.8204 29.511C21.0559 30.5312 19.0537 31.0683 17.0155 31.0683C14.9773 31.0683 12.9751 30.5312 11.2106 29.511C9.44609 28.4909 7.98156 27.0238 6.96455 25.2574C6.78611 24.9566 6.53167 24.7079 6.22679 24.5365C5.92192 24.365 5.57733 24.2767 5.22756 24.2804C4.87135 24.2799 4.52127 24.373 4.21228 24.5502C3.90329 24.7274 3.64622 24.9826 3.46674 25.2903C3.28726 25.5979 3.19166 25.9473 3.18949 26.3035C3.18733 26.6597 3.27867 27.0103 3.4544 27.3201C4.65876 29.3986 6.32423 31.1728 8.32248 32.506C10.3207 33.8392 12.5984 34.6958 14.98 35.0099V38.9678H10.2621C9.72224 38.9678 9.20448 39.1823 8.82275 39.564C8.44101 39.9458 8.22657 40.4635 8.22657 41.0034C8.22657 41.5432 8.44101 42.061 8.82275 42.4427C9.20448 42.8244 9.72224 43.0389 10.2621 43.0389H23.7961C24.3359 43.0389 24.8537 42.8244 25.2354 42.4427C25.6172 42.061 25.8316 41.5432 25.8316 41.0034C25.8316 40.4635 25.6172 39.9458 25.2354 39.564C24.8537 39.1823 24.3359 38.9678 23.7961 38.9678H19.051V35.0099C21.4323 34.6948 23.7096 33.8378 25.7077 32.5047C27.7058 31.1716 29.3715 29.3979 30.5766 27.3201C30.7524 27.0103 30.8437 26.6597 30.8415 26.3035C30.8394 25.9473 30.7438 25.5979 30.5643 25.2903C30.3848 24.9826 30.1277 24.7274 29.8188 24.5502C29.5098 24.373 29.1597 24.2799 28.8035 24.2804Z" fill="url(#paint3_linear_1154_208)"/>
<path opacity="0.69" d="M26.6999 20.3045C30.5197 20.3045 33.6162 17.2079 33.6162 13.3882C33.6162 9.56844 30.5197 6.47192 26.6999 6.47192C22.8802 6.47192 19.7837 9.56844 19.7837 13.3882C19.7837 17.2079 22.8802 20.3045 26.6999 20.3045Z" fill="url(#paint4_linear_1154_208)"/>
<path d="M27.8037 1.07097C27.8043 1.32464 27.8959 1.56967 28.062 1.76146C28.228 1.95324 28.4574 2.07901 28.7084 2.11587C31.0179 2.53119 33.1445 3.64451 34.8018 5.30578C36.459 6.96705 37.5672 9.09643 37.9768 11.4069C38.0203 11.653 38.1486 11.876 38.3395 12.0372C38.5304 12.1984 38.7719 12.2875 39.0218 12.289C39.1763 12.2897 39.3291 12.2567 39.4696 12.1923C39.6101 12.1279 39.7349 12.0336 39.8352 11.9161C39.9356 11.7985 40.0091 11.6605 40.0506 11.5116C40.0921 11.3628 40.1007 11.2066 40.0757 11.0541C39.592 8.30246 38.2727 5.76652 36.2972 3.79099C34.3217 1.81546 31.7857 0.496179 29.0341 0.0124932C28.8816 -0.0110371 28.7259 -0.00124845 28.5776 0.0411785C28.4293 0.0836055 28.292 0.157669 28.1751 0.258265C28.0581 0.358861 27.9644 0.4836 27.9003 0.623899C27.8362 0.764198 27.8032 0.916717 27.8037 1.07097Z" fill="url(#paint5_linear_1154_208)"/>
<path d="M27.8037 4.4543C27.8046 4.69263 27.886 4.92368 28.0346 5.11003C28.1832 5.29638 28.3903 5.42712 28.6224 5.4811C30.0718 5.83499 31.3961 6.58032 32.4507 7.63569C33.5053 8.69106 34.2496 10.0159 34.6024 11.4656C34.6573 11.6981 34.7889 11.9053 34.976 12.0538C35.1631 12.2024 35.3948 12.2836 35.6337 12.2843C35.7959 12.2838 35.9559 12.2463 36.1015 12.1747C36.2471 12.103 36.3744 11.9992 36.4739 11.871C36.5733 11.7428 36.6422 11.5936 36.6753 11.4348C36.7084 11.276 36.7049 11.1117 36.665 10.9544C36.2176 9.12783 35.2781 7.45879 33.9487 6.12861C32.6193 4.79843 30.9509 3.85798 29.1246 3.4094C28.9669 3.37177 28.8027 3.3704 28.6444 3.40539C28.4861 3.44038 28.3378 3.51082 28.2106 3.61141C28.0835 3.71199 27.9808 3.8401 27.9103 3.9861C27.8399 4.1321 27.8034 4.29218 27.8037 4.4543Z" fill="url(#paint6_linear_1154_208)"/>
<defs>
<linearGradient id="paint0_linear_1154_208" x1="4.20049" y1="16.2333" x2="25.4469" y2="16.2333" gradientUnits="userSpaceOnUse">
  <stop stop-color="#005F49"/>
  <stop offset="1" stop-color="#24AA69"/>
</linearGradient>
<linearGradient id="paint1_linear_1154_208" x1="0.536678" y1="34.4943" x2="29.1109" y2="34.4943" gradientUnits="userSpaceOnUse">
  <stop stop-color="#005F49"/>
  <stop offset="1" stop-color="#24AA69"/>
</linearGradient>
<linearGradient id="paint2_linear_1154_208" x1="17.0154" y1="46.4993" x2="17.0154" y2="14.2611" gradientUnits="userSpaceOnUse">
  <stop stop-color="#005F49"/>
  <stop offset="0.96" stop-color="#24AA69"/>
</linearGradient>
<linearGradient id="paint3_linear_1154_208" x1="17.0155" y1="46.5038" x2="17.0155" y2="14.2611" gradientUnits="userSpaceOnUse">
  <stop stop-color="#005F49"/>
  <stop offset="0.96" stop-color="#24AA69"/>
</linearGradient>
<linearGradient id="paint4_linear_1154_208" x1="37.3616" y1="2.73108" x2="25.6505" y2="14.4421" gradientUnits="userSpaceOnUse">
  <stop stop-color="#005F49"/>
  <stop offset="1" stop-color="#24AA69"/>
</linearGradient>
<linearGradient id="paint5_linear_1154_208" x1="37.3616" y1="2.73558" x2="25.6506" y2="14.4466" gradientUnits="userSpaceOnUse">
  <stop stop-color="#005F49"/>
  <stop offset="1" stop-color="#24AA69"/>
</linearGradient>
<linearGradient id="paint6_linear_1154_208" x1="37.3617" y1="2.73541" x2="25.6506" y2="14.4465" gradientUnits="userSpaceOnUse">
  <stop stop-color="#005F49"/>
  <stop offset="1" stop-color="#24AA69"/>
</linearGradient>
</defs>
</svg>
