<svg width="57" height="51" viewBox="0 0 57 51" fill="none" xmlns="http://www.w3.org/2000/svg">
<path d="M44.918 5.24268H11.6846C9.74194 5.24268 7.87887 6.01433 6.50523 7.38797C5.13159 8.76161 4.35987 10.6247 4.35987 12.5673V33.4949C4.35844 34.4577 4.54685 35.4113 4.91431 36.3013C5.28176 37.1912 5.82108 38 6.50138 38.6813C7.18168 39.3626 7.9896 39.9031 8.87898 40.2719C9.76836 40.6407 10.7218 40.8304 11.6846 40.8304H21.6252V43.49H13.1451C12.7809 43.49 12.4316 43.6347 12.174 43.8923C11.9164 44.1498 11.7718 44.4991 11.7718 44.8634C11.7718 45.2276 11.9164 45.577 12.174 45.8345C12.4316 46.0921 12.7809 46.2367 13.1451 46.2367H43.4029C43.7671 46.2367 44.1165 46.0921 44.3741 45.8345C44.6316 45.577 44.7763 45.2276 44.7763 44.8634C44.7763 44.4991 44.6316 44.1498 44.3741 43.8923C44.1165 43.6347 43.7671 43.49 43.4029 43.49H34.9229V40.8304H44.918C45.8808 40.8304 46.8342 40.6407 47.7236 40.2719C48.6129 39.9031 49.4209 39.3626 50.1012 38.6813C50.7815 38 51.3208 37.1912 51.6882 36.3013C52.0557 35.4113 52.244 34.4577 52.2426 33.4949V12.5673C52.2426 10.6247 51.471 8.76161 50.0973 7.38797C48.7237 6.01433 46.8606 5.24268 44.918 5.24268Z" fill="white"/>
<path d="M44.918 5.24273C46.8607 5.24273 48.7237 6.01438 50.0974 7.38802C51.471 8.76166 52.2427 10.6247 52.2427 12.5673V33.4949C52.2441 34.4578 52.0558 35.4114 51.6883 36.3013C51.3208 37.1912 50.7815 38 50.1012 38.6813C49.4209 39.3626 48.613 39.9031 47.7236 40.2719C46.8342 40.6407 45.8808 40.8305 44.918 40.8305H34.9774V43.49H43.4574C43.8217 43.49 44.171 43.6348 44.4286 43.8923C44.6862 44.1499 44.8308 44.4992 44.8308 44.8634C44.8308 45.2277 44.6862 45.577 44.4286 45.8346C44.171 46.0921 43.8217 46.2368 43.4574 46.2368H13.1451C12.7809 46.2368 12.4316 46.0921 12.174 45.8346C11.9165 45.577 11.7718 45.2277 11.7718 44.8634C11.7718 44.4992 11.9165 44.1499 12.174 43.8923C12.4316 43.6348 12.7809 43.49 13.1451 43.49H21.6252V40.8305H11.6846C10.7218 40.8305 9.76841 40.6407 8.87903 40.2719C7.98965 39.9031 7.18172 39.3626 6.50142 38.6813C5.82112 38 5.28181 37.1912 4.91435 36.3013C4.5469 35.4114 4.35848 34.4578 4.35992 33.4949V12.5673C4.35992 10.6247 5.13164 8.76166 6.50528 7.38802C7.87892 6.01438 9.74199 5.24273 11.6846 5.24273H44.918ZM44.918 0.882812H11.6846C8.58655 0.885698 5.6162 2.11763 3.42555 4.30829C1.23489 6.49894 0.002889 9.46929 3.06141e-06 12.5673V33.4949C-0.00169969 35.8488 0.706938 38.1484 2.0332 40.0931C3.35947 42.0378 5.24164 43.537 7.43366 44.3947C7.4228 44.5544 7.4228 44.7146 7.43366 44.8743C7.43654 46.394 8.04156 47.8506 9.11613 48.9252C10.1907 49.9998 11.6473 50.6047 13.167 50.6076H43.4248C44.9445 50.6047 46.401 49.9998 47.4756 48.9252C48.5502 47.8506 49.1552 46.394 49.1581 44.8743C49.1581 44.7108 49.1581 44.5582 49.1581 44.3947C51.3501 43.537 53.2323 42.0378 54.5585 40.0931C55.8848 38.1484 56.5934 35.8488 56.5917 33.4949V12.5673C56.5889 9.47118 55.3584 6.50249 53.1701 4.31215C50.9818 2.1218 48.0142 0.888582 44.918 0.882812Z" fill="url(#paint0_linear_90_7688)"/>
<path opacity="0.22" d="M44.3731 7.35889H12.1642C9.03393 7.35889 6.49634 9.89649 6.49634 13.0268V33.0388C6.49634 36.1691 9.03393 38.7067 12.1642 38.7067H44.3731C47.5034 38.7067 50.041 36.1691 50.041 33.0388V13.0268C50.041 9.89649 47.5034 7.35889 44.3731 7.35889Z" fill="url(#paint1_linear_90_7688)"/>
<path d="M43.7843 11.4016H38.5742V33.8116H43.7843V11.4016Z" fill="url(#paint2_linear_90_7688)"/>
<path d="M35.6532 22.7697V33.8112H30.3886V22.5081C30.3886 22.3773 30.3886 22.2466 30.3886 22.1158C30.2751 20.5586 29.5765 19.1021 28.433 18.0389C27.2896 16.9758 25.7861 16.3849 24.2248 16.3849C22.6635 16.3849 21.16 16.9758 20.0166 18.0389C18.8731 19.1021 18.1744 20.5586 18.061 22.1158C18.061 22.2466 18.061 22.3773 18.061 22.5081V33.8112H12.7637V22.7697C12.7637 19.7344 13.9695 16.8234 16.1158 14.677C18.2621 12.5307 21.1731 11.325 24.2084 11.325C27.2438 11.325 30.1548 12.5307 32.3011 14.677C34.4474 16.8234 35.6532 19.7344 35.6532 22.7697Z" fill="url(#paint3_linear_90_7688)"/>
<path d="M31.6966 22.1267H16.0227V27.3041H31.6966V22.1267Z" fill="url(#paint4_linear_90_7688)"/>
<defs>
<linearGradient id="paint0_linear_90_7688" x1="3.06154e-06" y1="25.7452" x2="56.5481" y2="25.7452" gradientUnits="userSpaceOnUse">
<stop stop-color="#FF6E11"/>
<stop offset="0.24" stop-color="#FF7311"/>
<stop offset="0.54" stop-color="#FF8211"/>
<stop offset="0.85" stop-color="#FF9A11"/>
<stop offset="1" stop-color="#FFA811"/>
</linearGradient>
<linearGradient id="paint1_linear_90_7688" x1="6.49634" y1="23.0437" x2="50.041" y2="23.0437" gradientUnits="userSpaceOnUse">
<stop stop-color="#FF6E11"/>
<stop offset="0.24" stop-color="#FF7311"/>
<stop offset="0.54" stop-color="#FF8211"/>
<stop offset="0.85" stop-color="#FF9A11"/>
<stop offset="1" stop-color="#FFA811"/>
</linearGradient>
<linearGradient id="paint2_linear_90_7688" x1="41.1793" y1="35.4574" x2="41.1793" y2="11.0419" gradientUnits="userSpaceOnUse">
<stop stop-color="#FF6E11"/>
<stop offset="0.24" stop-color="#FF7311"/>
<stop offset="0.54" stop-color="#FF8211"/>
<stop offset="0.85" stop-color="#FF9A11"/>
<stop offset="1" stop-color="#FFA811"/>
</linearGradient>
<linearGradient id="paint3_linear_90_7688" x1="24.2084" y1="35.4571" x2="24.2084" y2="11.0198" gradientUnits="userSpaceOnUse">
<stop stop-color="#FF6E11"/>
<stop offset="0.24" stop-color="#FF7311"/>
<stop offset="0.54" stop-color="#FF8211"/>
<stop offset="0.85" stop-color="#FF9A11"/>
<stop offset="1" stop-color="#FFA811"/>
</linearGradient>
<linearGradient id="paint4_linear_90_7688" x1="23.8487" y1="45.0817" x2="23.8487" y2="10.8999" gradientUnits="userSpaceOnUse">
<stop stop-color="#FF6E11"/>
<stop offset="0.24" stop-color="#FF7311"/>
<stop offset="0.54" stop-color="#FF8211"/>
<stop offset="0.85" stop-color="#FF9A11"/>
<stop offset="1" stop-color="#FFA811"/>
</linearGradient>
</defs>
</svg>
