<svg width="37" height="39" viewBox="0 0 37 39" fill="none" xmlns="http://www.w3.org/2000/svg">
<path d="M29.0234 1.80584C27.4496 0.630769 25.5375 -0.00281342 23.5734 9.39157e-06H9.12687C6.70627 9.39157e-06 4.38481 0.9616 2.67319 2.67322C0.961571 4.38484 0 6.70628 0 9.12688V26.5527C0 28.9733 0.961571 31.2947 2.67319 33.0064C4.38481 34.718 6.70627 35.6796 9.12687 35.6796H23.5669C25.9875 35.6796 28.3089 34.718 30.0205 33.0064C31.7322 31.2947 32.6937 28.9733 32.6937 26.5527V9.11387C32.6925 7.69421 32.3601 6.29441 31.7229 5.02576C31.0858 3.75712 30.1614 2.65459 29.0234 1.80584ZM19.864 21.7154C19.8658 22.0153 19.7502 22.304 19.5418 22.5196C19.3334 22.7353 19.0489 22.8608 18.7492 22.8693C16.6826 22.9215 12.3148 23.5213 10.4698 27.4328C10.3652 27.6491 10.1953 27.8271 9.98401 27.9417C9.77278 28.0563 9.53089 28.1017 9.29248 28.0714C9.05408 28.0412 8.83118 27.9369 8.65526 27.7731C8.47933 27.6094 8.35926 27.3946 8.31197 27.159C6.44748 17.8431 11.4477 13.9576 18.6449 13.573C18.8024 13.5641 18.96 13.5875 19.108 13.6419C19.2561 13.6963 19.3914 13.7805 19.5057 13.8892C19.6199 13.998 19.7107 14.129 19.7723 14.2742C19.8339 14.4194 19.8651 14.5757 19.864 14.7334V21.7154ZM30.2947 19.538L24.3296 25.2749C24.0698 25.5252 23.7426 25.6941 23.3881 25.761C23.0336 25.8278 22.6674 25.7896 22.3343 25.6511C22.0012 25.5126 21.7158 25.2798 21.5132 24.9814C21.3106 24.6829 21.1996 24.3318 21.1939 23.9711V12.4973C21.1996 12.1366 21.3106 11.7855 21.5132 11.487C21.7158 11.1886 22.0012 10.9558 22.3343 10.8173C22.6674 10.6788 23.0336 10.6406 23.3881 10.7075C23.7426 10.7743 24.0698 10.9432 24.3296 11.1935L30.2947 16.9304C30.6361 17.2797 30.8256 17.7498 30.8219 18.2382C30.8182 18.7267 30.6217 19.1939 30.2751 19.538H30.2947Z" fill="url(#paint0_linear_1154_341)"/>
<path opacity="0.61" d="M29.0236 1.80576C28.5643 1.73246 28.1001 1.69542 27.635 1.69495H11.337C10.2153 1.69409 9.10436 1.91441 8.06784 2.34329C7.03131 2.77217 6.08951 3.40116 5.29632 4.19436C4.50312 4.98755 3.87409 5.92936 3.44522 6.96589C3.01634 8.00241 2.79602 9.11333 2.79688 10.2351V29.8383C2.79602 30.96 3.01634 32.0709 3.44522 33.1075C3.87409 34.144 4.50312 35.0858 5.29632 35.879C6.08951 36.6722 7.03131 37.3012 8.06784 37.7301C9.10436 38.159 10.2153 38.3793 11.337 38.3784H27.635C28.7568 38.3793 29.8677 38.159 30.9042 37.7301C31.9407 37.3012 32.8825 36.6722 33.6757 35.879C34.4689 35.0858 35.0979 34.144 35.5268 33.1075C35.9557 32.0709 36.176 30.96 36.1751 29.8383V10.2285C36.1769 8.2042 35.4584 6.24526 34.1482 4.70212C32.8379 3.15898 31.0214 2.13232 29.0236 1.80576ZM21.2006 12.4712C21.2063 12.1105 21.3173 11.7593 21.5199 11.4609C21.7225 11.1624 22.0079 10.9296 22.3409 10.7911C22.674 10.6526 23.0403 10.6144 23.3948 10.6813C23.7493 10.7481 24.0765 10.917 24.3363 11.1673L30.3013 16.9042C30.4806 17.0769 30.6231 17.284 30.7205 17.5131C30.8179 17.7421 30.8681 17.9885 30.8681 18.2374C30.8681 18.4863 30.8179 18.7326 30.7205 18.9617C30.6231 19.1908 30.4806 19.3978 30.3013 19.5706L24.3363 25.3074C24.0765 25.5577 23.7493 25.7266 23.3948 25.7935C23.0403 25.8603 22.674 25.8221 22.3409 25.6836C22.0079 25.5451 21.7225 25.3124 21.5199 25.0139C21.3173 24.7155 21.2063 24.3643 21.2006 24.0036V12.4712ZM18.6711 13.6055C18.8286 13.5966 18.9862 13.62 19.1343 13.6744C19.2823 13.7288 19.4177 13.813 19.5319 13.9218C19.6461 14.0305 19.7369 14.1615 19.7985 14.3067C19.8601 14.4519 19.8913 14.6082 19.8902 14.7659V21.7154C19.892 22.0152 19.7764 22.3039 19.568 22.5196C19.3597 22.7352 19.0752 22.8608 18.7754 22.8693C16.7088 22.9214 12.341 23.5212 10.496 27.4327C10.3914 27.649 10.2215 27.8271 10.0102 27.9417C9.79901 28.0563 9.55711 28.1016 9.31871 28.0714C9.0803 28.0411 8.85741 27.9368 8.68149 27.7731C8.50556 27.6094 8.38548 27.3945 8.33819 27.1589C6.44762 17.8756 11.4478 13.9901 18.645 13.6055H18.6711Z" fill="url(#paint1_linear_1154_341)"/>
<defs>
<linearGradient id="paint0_linear_1154_341" x1="16.3436" y1="37.8244" x2="16.3436" y2="2.75763" gradientUnits="userSpaceOnUse">
  <stop stop-color="#207A91"/>
  <stop offset="0.96" stop-color="#1E405A"/>
</linearGradient>
<linearGradient id="paint1_linear_1154_341" x1="19.4795" y1="40.5884" x2="19.4795" y2="4.5308" gradientUnits="userSpaceOnUse">
  <stop stop-color="#207A91"/>
  <stop offset="1" stop-color="#1E405A"/>
</linearGradient>
</defs>
</svg>
