<svg width="41" height="41" viewBox="0 0 41 41" fill="none" xmlns="http://www.w3.org/2000/svg">
<path d="M20.286 1.08264e-06C16.2738 1.08264e-06 12.3518 1.18975 9.01574 3.41881C5.67973 5.64786 3.07961 8.8161 1.54421 12.5229C0.00880848 16.2297 -0.392948 20.3085 0.389792 24.2436C1.17253 28.1787 3.10461 31.7933 5.94166 34.6304C8.7787 37.4674 12.3933 39.3995 16.3284 40.1822C20.2635 40.965 24.3424 40.5632 28.0492 39.0278C31.7559 37.4924 34.9242 34.8923 37.1532 31.5563C39.3823 28.2203 40.572 24.2982 40.572 20.286C40.5729 17.6218 40.0488 14.9835 39.0296 12.5219C38.0105 10.0603 36.5162 7.82359 34.6323 5.93969C32.7484 4.05579 30.5118 2.56156 28.0502 1.5424C25.5886 0.523244 22.9503 -0.000869442 20.286 1.08264e-06ZM20.286 35.7754C17.2219 35.7768 14.2263 34.8693 11.6781 33.1678C9.12983 31.4663 7.14347 29.0472 5.97028 26.2166C4.7971 23.386 4.48982 20.2711 5.08728 17.2658C5.68473 14.2605 7.16006 11.4999 9.3267 9.33331C11.4933 7.16667 14.2539 5.69134 17.2592 5.09388C20.2644 4.49643 23.3794 4.80371 26.21 5.97689C29.0406 7.15007 31.4597 9.13644 33.1611 11.6847C34.8626 14.2329 35.7702 17.2285 35.7688 20.2926C35.7601 24.3932 34.125 28.3228 31.2223 31.2192C28.3197 34.1157 24.3866 35.7423 20.286 35.7423V35.7754Z" fill="url(#paint0_linear_1154_425)"/>
<path d="M27.4146 17.3776L18.5768 12.2763C18.0672 11.9821 17.4893 11.8272 16.901 11.8271C16.3126 11.8271 15.7346 11.9818 15.2251 12.2759C14.7155 12.57 14.2923 12.993 13.998 13.5024C13.7036 14.0118 13.5486 14.5897 13.5483 15.1781V25.3873C13.5486 25.9756 13.7036 26.5536 13.998 27.063C14.2923 27.5724 14.7155 27.9954 15.2251 28.2895C15.7346 28.5835 16.3126 28.7383 16.901 28.7382C17.4893 28.7382 18.0672 28.5833 18.5768 28.2891L27.4146 23.1878C27.9252 22.8938 28.3492 22.4705 28.644 21.9605C28.9389 21.4505 29.0941 20.8718 29.0941 20.2827C29.0941 19.6936 28.9389 19.1148 28.644 18.6048C28.3492 18.0948 27.9252 17.6716 27.4146 17.3776Z" fill="url(#paint1_linear_1154_425)"/>
<defs>
<linearGradient id="paint0_linear_1154_425" x1="20.286" y1="46.4882" x2="20.286" y2="-4.33281" gradientUnits="userSpaceOnUse">
  <stop stop-color="#005F49"/>
  <stop offset="1" stop-color="#24AA69"/>
</linearGradient>
<linearGradient id="paint1_linear_1154_425" x1="21.3196" y1="5.17418" x2="21.3196" y2="31.065" gradientUnits="userSpaceOnUse">
  <stop stop-color="#005F49"/>
  <stop offset="1" stop-color="#24AA69"/>
</linearGradient>
</defs>
</svg>
