<svg width="17" height="15" viewBox="0 0 17 15" fill="none" xmlns="http://www.w3.org/2000/svg">
<path d="M11.9461 0H4.75977C2.47498 0 0.623047 1.79273 0.623047 4.00391V10.9298C0.623047 13.141 2.47498 14.9337 4.75977 14.9337H11.9461C14.2309 14.9337 16.0828 13.141 16.0828 10.9298V4.00391C16.0828 1.79273 14.2305 0 11.9461 0Z" fill="#2C75E3"/>
<path d="M4.70776 7.3762V12.0451H7.4129V9.38779H9.29282V12.0451H11.998V7.3762L8.35268 4.52441L4.70776 7.3762Z" fill="white"/>
<path d="M13.01 6.39698L8.65889 2.99295C8.47948 2.85261 8.22602 2.85261 8.04698 2.99295L6.25731 4.39303V3.52266H4.70784V5.60333H4.71041L3.69622 6.39698C3.48181 6.56459 3.44571 6.87216 3.61591 7.08339C3.78574 7.29498 4.0974 7.33025 4.31144 7.16265L8.35312 4.00038L12.3948 7.16265C12.6092 7.33025 12.9205 7.29462 13.0903 7.08339C13.2602 6.8718 13.2244 6.56459 13.01 6.39698Z" fill="white"/>
</svg>
