<svg width="29" height="28" viewBox="0 0 29 28" fill="none" xmlns="http://www.w3.org/2000/svg">
<path d="M22.9207 3.30908H12.5731C12.3444 3.30908 12.1251 3.39934 11.9634 3.56C11.8016 3.72067 11.7108 3.93858 11.7108 4.16579C11.7108 4.393 11.8016 4.61091 11.9634 4.77157C12.1251 4.93224 12.3444 5.02249 12.5731 5.02249H22.9207C24.0749 5.02476 25.1812 5.48129 25.9973 6.29215C26.8135 7.10302 27.273 8.20214 27.2753 9.34886V21.7283C27.2617 22.8675 26.7972 23.9557 25.9823 24.7573C25.1673 25.559 24.0675 26.0096 22.9207 26.0118H10.4691C9.32229 26.0096 8.22245 25.559 7.40752 24.7573C6.59258 23.9557 6.12809 22.8675 6.11449 21.7283V12.6558C6.11449 12.4285 6.02363 12.2106 5.86192 12.05C5.7002 11.8893 5.48089 11.799 5.25219 11.799C5.0235 11.799 4.80415 11.8893 4.64244 12.05C4.48073 12.2106 4.38989 12.4285 4.38989 12.6558V21.7283C4.40352 23.322 5.04974 24.8459 6.18809 25.9689C7.32645 27.0918 8.86492 27.723 10.4691 27.7252H22.9207C24.5249 27.723 26.0633 27.0918 27.2017 25.9689C28.34 24.8459 28.9863 23.322 28.9999 21.7283V9.34886C28.9999 8.55571 28.8426 7.77032 28.5371 7.03754C28.2316 6.30476 27.7839 5.63894 27.2193 5.07809C26.6548 4.51725 25.9847 4.07236 25.2471 3.76883C24.5095 3.46531 23.719 3.30908 22.9207 3.30908Z" fill="#2C75E3"/>
<path d="M8.88264 22.4479C8.77895 22.4488 8.67618 22.4284 8.58083 22.3879C8.36906 22.3072 8.19782 22.1468 8.10421 21.9416C8.0106 21.7363 8.00216 21.5027 8.08071 21.2913L12.7113 9.03183C12.7925 8.82143 12.9539 8.65131 13.1605 8.5583C13.367 8.4653 13.6022 8.45691 13.815 8.53495C13.9217 8.57404 14.0195 8.63369 14.1028 8.71048C14.1862 8.78727 14.2535 8.87968 14.3007 8.98239C14.348 9.0851 14.3744 9.19609 14.3784 9.30897C14.3823 9.42184 14.3637 9.53438 14.3237 9.6401L9.69321 21.891C9.63154 22.055 9.52079 22.1962 9.37587 22.2958C9.23095 22.3954 9.05883 22.4484 8.88264 22.4479Z" fill="#2C75E3"/>
<path d="M18.1437 22.4477C17.969 22.4466 17.7988 22.3927 17.6556 22.2932C17.5123 22.1938 17.4029 22.0535 17.3418 21.8909L12.7112 9.63998C12.671 9.53479 12.652 9.42276 12.6554 9.31028C12.6588 9.19781 12.6844 9.08711 12.7309 8.98448C12.7773 8.88186 12.8436 8.78933 12.9261 8.71217C13.0085 8.63502 13.1055 8.57476 13.2113 8.53484C13.3172 8.49488 13.43 8.47603 13.5432 8.47938C13.6564 8.48273 13.7678 8.50821 13.8711 8.55435C13.9744 8.6005 14.0676 8.6664 14.1452 8.74831C14.2229 8.83021 14.2835 8.92651 14.3237 9.03171L18.9543 21.2912C19.0324 21.5037 19.0227 21.7382 18.9274 21.9437C18.8321 22.1491 18.6589 22.3087 18.4455 22.3878C18.3504 22.429 18.2475 22.4495 18.1437 22.4477Z" fill="#2C75E3"/>
<path d="M16.3502 17.7012H10.6763C10.4476 17.7012 10.2283 17.6109 10.0665 17.4503C9.90483 17.2896 9.81396 17.0717 9.81396 16.8445C9.81396 16.6173 9.90483 16.3994 10.0665 16.2387C10.2283 16.0781 10.4476 15.9878 10.6763 15.9878H16.3502C16.5789 15.9878 16.7982 16.0781 16.9599 16.2387C17.1216 16.3994 17.2125 16.6173 17.2125 16.8445C17.2125 17.0717 17.1216 17.2896 16.9599 17.4503C16.7982 17.6109 16.5789 17.7012 16.3502 17.7012Z" fill="#2C75E3"/>
<path d="M22.7051 22.4475C22.4764 22.4475 22.257 22.3572 22.0953 22.1966C21.9336 22.0359 21.8428 21.818 21.8428 21.5908V9.33132C21.8428 9.1041 21.9336 8.8862 22.0953 8.72553C22.257 8.56487 22.4764 8.47461 22.7051 8.47461C22.9338 8.47461 23.1531 8.56487 23.3148 8.72553C23.4765 8.8862 23.5674 9.1041 23.5674 9.33132V21.5908C23.5674 21.818 23.4765 22.0359 23.3148 22.1966C23.1531 22.3572 22.9338 22.4475 22.7051 22.4475Z" fill="#2C75E3"/>
<path d="M23.9125 10.188H21.4636C21.2349 10.188 21.0156 10.0978 20.8539 9.9371C20.6922 9.77644 20.6013 9.55853 20.6013 9.33132C20.6013 9.1041 20.6922 8.8862 20.8539 8.72553C21.0156 8.56487 21.2349 8.47461 21.4636 8.47461H23.8867C24.1154 8.47461 24.3347 8.56487 24.4964 8.72553C24.6581 8.8862 24.749 9.1041 24.749 9.33132C24.749 9.55853 24.6581 9.77644 24.4964 9.9371C24.3347 10.0978 24.1154 10.188 23.8867 10.188H23.9125Z" fill="#2C75E3"/>
<path d="M23.9125 22.585H21.4636C21.2349 22.585 21.0156 22.4947 20.8539 22.3341C20.6922 22.1734 20.6013 21.9555 20.6013 21.7283C20.6013 21.5011 20.6922 21.2832 20.8539 21.1225C21.0156 20.9618 21.2349 20.8716 21.4636 20.8716H23.8867C24.1154 20.8716 24.3347 20.9618 24.4964 21.1225C24.6581 21.2832 24.749 21.5011 24.749 21.7283C24.749 21.9555 24.6581 22.1734 24.4964 22.3341C24.3347 22.4947 24.1154 22.585 23.8867 22.585H23.9125Z" fill="#2C75E3"/>
<path d="M19.3596 22.585H16.9365C16.7078 22.585 16.4885 22.4947 16.3268 22.3341C16.1651 22.1734 16.0742 21.9555 16.0742 21.7283C16.0742 21.5011 16.1651 21.2832 16.3268 21.1225C16.4885 20.9618 16.7078 20.8716 16.9365 20.8716H19.3596C19.5883 20.8716 19.8076 20.9618 19.9693 21.1225C20.131 21.2832 20.2219 21.5011 20.2219 21.7283C20.2219 21.9555 20.131 22.1734 19.9693 22.3341C19.8076 22.4947 19.5883 22.585 19.3596 22.585Z" fill="#2C75E3"/>
<path d="M10.0896 22.585H7.6665C7.4378 22.585 7.21849 22.4947 7.05677 22.3341C6.89506 22.1734 6.8042 21.9555 6.8042 21.7283C6.8042 21.5011 6.89506 21.2832 7.05677 21.1225C7.21849 20.9618 7.4378 20.8716 7.6665 20.8716H10.0809C10.3096 20.8716 10.529 20.9618 10.6907 21.1225C10.8524 21.2832 10.9432 21.5011 10.9432 21.7283C10.9432 21.9555 10.8524 22.1734 10.6907 22.3341C10.529 22.4947 10.3096 22.585 10.0809 22.585H10.0896Z" fill="#2C75E3"/>
<path d="M10.1158 5.59638L9.45182 5.14233L8.58952 4.55977L9.24485 3.42892L9.51219 2.95773C9.59714 2.80876 9.63521 2.63793 9.6215 2.46727C9.6078 2.2966 9.54292 2.13392 9.43527 2.00023C9.32762 1.86654 9.18213 1.76795 9.01754 1.7172C8.85296 1.66645 8.67685 1.66586 8.51192 1.7155L7.17534 2.12672C7.05628 2.16114 6.92862 2.15041 6.81708 2.09659C6.70555 2.04276 6.61811 1.9497 6.57175 1.83544L6.05436 0.541821C5.99079 0.382026 5.88032 0.244914 5.73732 0.148292C5.59431 0.0516707 5.42537 0 5.25243 0C5.07949 0 4.91053 0.0516707 4.76752 0.148292C4.62451 0.244914 4.51404 0.382026 4.45047 0.541821L3.93311 1.83544C3.88674 1.9497 3.79931 2.04276 3.68778 2.09659C3.57624 2.15041 3.44855 2.16114 3.32949 2.12672L1.99294 1.7155C1.82801 1.66586 1.65188 1.66645 1.48729 1.7172C1.32271 1.76795 1.17722 1.86654 1.06956 2.00023C0.96191 2.13392 0.897037 2.2966 0.883329 2.46727C0.869622 2.63793 0.907719 2.80876 0.992669 2.95773L1.69113 4.16568C1.75355 4.27345 1.77223 4.40081 1.74339 4.5218C1.71455 4.64279 1.64036 4.74828 1.53592 4.81678L0.389049 5.59638C0.24062 5.6932 0.125885 5.83318 0.0605292 5.9972C-0.00482656 6.16123 -0.0176106 6.3413 0.0238983 6.51281C0.0654073 6.68433 0.159183 6.83894 0.292446 6.95552C0.425709 7.0721 0.591958 7.14496 0.768463 7.16416L2.14815 7.36977C2.27152 7.38877 2.38327 7.45292 2.46146 7.54962C2.53964 7.64632 2.5786 7.76858 2.57067 7.89236L2.46719 9.28022C2.44959 9.45498 2.48648 9.63088 2.57285 9.78412C2.65922 9.93736 2.79091 10.0605 2.95008 10.1369C3.06833 10.1938 3.1981 10.2231 3.32949 10.2226C3.54617 10.2242 3.75551 10.1447 3.91585 9.99985L4.416 9.53724L4.94199 9.05748C5.03403 8.97441 5.15394 8.92837 5.2783 8.92837C5.40265 8.92837 5.52254 8.97441 5.61458 9.05748L6.1406 9.53724L6.64072 9.99985C6.76815 10.1149 6.9273 10.1894 7.09771 10.2137C7.26812 10.2381 7.44198 10.2112 7.59688 10.1366C7.75179 10.0619 7.88064 9.94293 7.96688 9.79489C8.05312 9.64685 8.0928 9.47655 8.08077 9.30592L7.9859 7.91806C7.97771 7.79554 8.01547 7.67433 8.0919 7.57783C8.16833 7.48133 8.27802 7.41637 8.39982 7.39547L9.7795 7.18986C9.95235 7.16587 10.1138 7.09033 10.2425 6.97323C10.3712 6.85614 10.4612 6.70299 10.5004 6.53403C10.5397 6.36507 10.5264 6.18826 10.4623 6.02696C10.3983 5.86566 10.2864 5.72747 10.1417 5.63066L10.1158 5.59638ZM5.80429 6.91572C5.69099 6.81001 5.55106 6.73669 5.39927 6.70351C5.24748 6.67034 5.08947 6.67853 4.94199 6.72724C4.81479 6.75868 4.69857 6.82382 4.60571 6.91572L4.26076 7.23269C4.28636 6.89224 4.18152 6.55474 3.96724 6.28784C3.75297 6.02094 3.44508 5.84433 3.10529 5.79342C3.29011 5.67119 3.44183 5.50567 3.54709 5.31146C3.65235 5.11724 3.70793 4.90029 3.70891 4.67971C3.70905 4.44498 3.64658 4.21441 3.52783 4.01148C3.85421 4.10915 4.20549 4.08252 4.51318 3.9368C4.82087 3.79108 5.06291 3.5367 5.19206 3.2233C5.3161 3.53637 5.55514 3.79099 5.86087 3.9357C6.16659 4.08042 6.5162 4.10443 6.83906 4.00291L6.60622 4.40556C6.55524 4.50147 6.52306 4.60613 6.51138 4.71398C6.48151 4.87542 6.49894 5.04199 6.56161 5.19387C6.62429 5.34575 6.72958 5.47654 6.86493 5.57068L7.24434 5.8277C6.91 5.88043 6.60768 6.05571 6.39699 6.31895C6.18629 6.5822 6.0825 6.91432 6.1061 7.24983L5.80429 6.91572Z" fill="#2C75E3"/>
</svg>
