<svg width="18" height="19" viewBox="0 0 18 19" fill="none" xmlns="http://www.w3.org/2000/svg">
<path d="M12.6625 10.05L9.45121 17.2754C8.81245 17.2754 8.19985 17.0216 7.74818 16.57C7.29651 16.1183 7.04276 15.5057 7.04276 14.8669V11.6557H2.49882C2.26607 11.6583 2.03554 11.6103 1.82319 11.515C1.61084 11.4197 1.42174 11.2794 1.26901 11.1037C1.11628 10.9281 1.00357 10.7213 0.93867 10.4978C0.873774 10.2743 0.858253 10.0393 0.893182 9.80918L2.00107 2.58383C2.05913 2.20096 2.25361 1.85198 2.54867 1.60118C2.84372 1.35038 3.21948 1.21466 3.6067 1.21904H12.6625M12.6625 10.05V1.21904M12.6625 10.05H14.806C15.2604 10.0581 15.7019 9.89899 16.0467 9.603C16.3915 9.30702 16.6156 8.89473 16.6766 8.44439V2.82467C16.6156 2.37434 16.3915 1.96205 16.0467 1.66606C15.7019 1.37008 15.2604 1.211 14.806 1.21904H12.6625" stroke="#828282" stroke-width="1.60563" stroke-linecap="round" stroke-linejoin="round"/>
</svg>
