<svg width="19" height="19" viewBox="0 0 19 19" fill="none" xmlns="http://www.w3.org/2000/svg">
<path d="M5.73186 8.83082L8.94313 1.60547C9.58189 1.60547 10.1945 1.85922 10.6462 2.31089C11.0978 2.76256 11.3516 3.37516 11.3516 4.01392V7.22519H15.8955C16.1283 7.22255 16.3588 7.27055 16.5711 7.36585C16.7835 7.46116 16.9726 7.60149 17.1253 7.77713C17.2781 7.95278 17.3908 8.15952 17.4557 8.38305C17.5206 8.60658 17.5361 8.84154 17.5012 9.07167L16.3933 16.297C16.3352 16.6799 16.1407 17.0289 15.8457 17.2797C15.5506 17.5305 15.1749 17.6662 14.7876 17.6618H5.73186M5.73186 8.83082V17.6618M5.73186 8.83082H3.32341C2.89757 8.83082 2.48917 8.99999 2.18805 9.3011C1.88694 9.60221 1.71777 10.0106 1.71777 10.4365V16.0562C1.71777 16.482 1.88694 16.8904 2.18805 17.1915C2.48917 17.4926 2.89757 17.6618 3.32341 17.6618H5.73186" stroke="#828282" stroke-width="1.60563" stroke-linecap="round" stroke-linejoin="round"/>
</svg>
