<svg width="8" height="8" viewBox="0 0 8 8" fill="none" xmlns="http://www.w3.org/2000/svg">
<path d="M3.96591 7.53409C3.38636 7.53409 2.87405 7.45455 2.42898 7.29545C1.9839 7.13826 1.60985 6.90625 1.30682 6.59943C1.00379 6.29261 0.774621 5.91667 0.619318 5.47159C0.464015 5.02652 0.386364 4.51705 0.386364 3.94318C0.386364 3.38826 0.464962 2.89205 0.622159 2.45455C0.78125 2.01705 1.01136 1.64583 1.3125 1.34091C1.61553 1.03409 1.98295 0.800189 2.41477 0.639205C2.84848 0.47822 3.33902 0.397727 3.88636 0.397727C4.41856 0.397727 4.88447 0.484848 5.28409 0.659091C5.68561 0.831439 6.02083 1.06534 6.28977 1.3608C6.56061 1.65436 6.76326 1.98485 6.89773 2.35227C7.03409 2.7197 7.10227 3.09848 7.10227 3.48864C7.10227 3.76326 7.08902 4.04167 7.0625 4.32386C7.03598 4.60606 6.98011 4.86553 6.89489 5.10227C6.80966 5.33712 6.67803 5.52652 6.5 5.67045C6.32386 5.81439 6.08523 5.88636 5.78409 5.88636C5.65152 5.88636 5.50568 5.86553 5.34659 5.82386C5.1875 5.7822 5.0464 5.71307 4.9233 5.61648C4.80019 5.51989 4.72727 5.39015 4.70455 5.22727H4.67045C4.625 5.33712 4.55492 5.44129 4.46023 5.53977C4.36742 5.63826 4.24527 5.71686 4.09375 5.77557C3.94413 5.83428 3.76136 5.85985 3.54545 5.85227C3.29924 5.8428 3.08239 5.78788 2.89489 5.6875C2.70739 5.58523 2.55019 5.44697 2.4233 5.27273C2.2983 5.09659 2.2036 4.89299 2.1392 4.66193C2.0767 4.42898 2.04545 4.17803 2.04545 3.90909C2.04545 3.65341 2.08333 3.41951 2.15909 3.20739C2.23485 2.99527 2.33996 2.80966 2.47443 2.65057C2.6108 2.49148 2.76989 2.36458 2.9517 2.26989C3.13542 2.1733 3.33333 2.11364 3.54545 2.09091C3.73485 2.07197 3.9072 2.08049 4.0625 2.11648C4.2178 2.15057 4.34564 2.20265 4.44602 2.27273C4.5464 2.34091 4.60985 2.41667 4.63636 2.5H4.67045V2.18182H5.27273V4.75C5.27273 4.90909 5.31723 5.04924 5.40625 5.17045C5.49527 5.29167 5.625 5.35227 5.79545 5.35227C5.98864 5.35227 6.13636 5.28598 6.23864 5.15341C6.3428 5.02083 6.41383 4.81629 6.4517 4.53977C6.49148 4.26326 6.51136 3.90909 6.51136 3.47727C6.51136 3.22348 6.47633 2.97348 6.40625 2.72727C6.33807 2.47917 6.2339 2.24716 6.09375 2.03125C5.95549 1.81534 5.7803 1.625 5.56818 1.46023C5.35606 1.29545 5.10701 1.16667 4.82102 1.07386C4.53693 0.979167 4.21402 0.931818 3.85227 0.931818C3.4072 0.931818 3.00852 1.00095 2.65625 1.1392C2.30587 1.27557 2.00758 1.47538 1.76136 1.73864C1.51705 2 1.33049 2.31818 1.2017 2.69318C1.07481 3.06629 1.01136 3.49053 1.01136 3.96591C1.01136 4.44886 1.07481 4.87784 1.2017 5.25284C1.33049 5.62784 1.51989 5.94413 1.76989 6.2017C2.02178 6.45928 2.33333 6.65436 2.70455 6.78693C3.07576 6.9214 3.50379 6.98864 3.98864 6.98864C4.19697 6.98864 4.40246 6.96875 4.60511 6.92898C4.80777 6.8892 4.98674 6.84564 5.14205 6.7983C5.29735 6.75095 5.40909 6.71591 5.47727 6.69318L5.63636 7.21591C5.51894 7.26515 5.36553 7.31439 5.17614 7.36364C4.98864 7.41288 4.78788 7.4536 4.57386 7.4858C4.36174 7.51799 4.15909 7.53409 3.96591 7.53409ZM3.63636 5.27273C3.89015 5.27273 4.09564 5.22159 4.25284 5.11932C4.41004 5.01705 4.52462 4.86269 4.59659 4.65625C4.66856 4.44981 4.70455 4.18939 4.70455 3.875C4.70455 3.55682 4.66477 3.30871 4.58523 3.13068C4.50568 2.95265 4.38826 2.82765 4.23295 2.75568C4.07765 2.68371 3.88636 2.64773 3.65909 2.64773C3.44318 2.64773 3.25852 2.70455 3.10511 2.81818C2.9536 2.92992 2.83712 3.07955 2.75568 3.26705C2.67614 3.45265 2.63636 3.6553 2.63636 3.875C2.63636 4.11742 2.66856 4.34564 2.73295 4.55966C2.79735 4.77178 2.90246 4.94413 3.0483 5.0767C3.19413 5.20739 3.39015 5.27273 3.63636 5.27273Z" fill="#666666"/>
</svg>
