<svg width="1440" height="1478" viewBox="0 0 1440 1478" fill="none" xmlns="http://www.w3.org/2000/svg">
<g opacity="0.79">
<path d="M1816 204.035C1581.52 264.391 1249.8 8.9989 1110.38 84.1419C966.494 161.7 786.812 365.533 605.225 338.544C423.637 311.556 299.347 159.02 -72 414.186" stroke="#7DD5FF" stroke-opacity="0.2" stroke-width="2" stroke-miterlimit="10"/>
<path d="M1807.44 206.068C1568.35 273.738 1237.41 18.3205 1095.16 86.6857C948.631 157.341 772.785 351.581 593.355 329.762C413.924 307.943 284.57 159.998 -69.0964 403.012" stroke="#7DD5FF" stroke-opacity="0.2" stroke-width="2" stroke-miterlimit="10"/>
<path d="M1798.88 208.101C1555.18 283.064 1225.02 27.63 1079.93 89.1975C930.777 152.958 758.761 337.578 581.484 320.945C404.208 304.313 269.788 160.976 -66.1816 391.84" stroke="#7DD5FF" stroke-opacity="0.2" stroke-width="2" stroke-miterlimit="10"/>
<path d="M1790.31 210.134C1542 292.4 1212.64 36.9426 1064.72 91.7352C912.935 148.601 744.736 323.611 569.628 312.149C394.52 300.686 255.009 161.962 -63.2866 380.665" stroke="#7DD5FF" stroke-opacity="0.2" stroke-width="2" stroke-miterlimit="10"/>
<path d="M1781.75 212.167C1528.83 301.738 1200.13 45.8959 1049.47 94.2642C894.95 143.879 730.706 309.636 557.744 303.355C384.781 297.073 240.232 162.929 -60.3833 369.507" stroke="#7DD5FF" stroke-opacity="0.2" stroke-width="2" stroke-miterlimit="10"/>
<path d="M1773.19 214.197C1515.66 311.073 1187.75 55.1399 1034.24 96.796C877.093 139.436 716.679 295.664 545.873 294.552C375.068 293.44 225.453 163.907 -57.4797 358.321" stroke="#7DD5FF" stroke-opacity="0.2" stroke-width="2" stroke-miterlimit="10"/>
<path d="M1764.62 216.23C1502.49 320.412 1175.37 64.3961 1019.02 99.3229C859.245 135.02 702.655 281.687 534.003 285.759C365.352 289.831 210.673 164.885 -54.5762 347.147" stroke="#7DD5FF" stroke-opacity="0.2" stroke-width="2" stroke-miterlimit="10"/>
<path d="M1756.06 218.263C1489.31 329.753 1162.99 73.663 1003.79 101.858C841.405 130.614 688.627 267.718 522.133 276.965C355.638 286.212 195.885 165.863 -51.6702 335.975" stroke="#7DD5FF" stroke-opacity="0.2" stroke-width="2" stroke-miterlimit="10"/>
<path d="M1747.5 220.297C1476.14 339.086 1150.63 82.9416 988.559 104.387C823.583 126.22 674.6 253.743 510.262 268.169C345.925 282.594 181.114 166.841 -48.7751 324.8" stroke="#7DD5FF" stroke-opacity="0.2" stroke-width="2" stroke-miterlimit="10"/>
<path d="M1738.93 222.329C1462.96 348.421 1138.26 92.2341 973.32 106.919C805.726 121.84 660.561 239.769 498.381 259.369C336.2 278.97 166.323 167.819 -45.8633 313.628" stroke="#7DD5FF" stroke-opacity="0.2" stroke-width="2" stroke-miterlimit="10"/>
<path d="M1730.37 224.363C1449.79 357.76 1125.9 101.542 958.102 109.451C787.906 117.475 646.549 225.789 486.519 250.576C326.49 275.363 151.555 168.806 -42.9597 302.457" stroke="#7DD5FF" stroke-opacity="0.2" stroke-width="2" stroke-miterlimit="10"/>
<path d="M1721.81 226.404C1436.62 367.104 1113.53 110.868 942.875 111.989C770.075 113.129 632.521 211.83 474.649 241.784C316.776 271.738 136.776 169.775 -40.0564 291.282" stroke="#7DD5FF" stroke-opacity="0.2" stroke-width="2" stroke-miterlimit="10"/>
<path d="M1713.24 228.428C1423.45 376.433 1101.17 120.186 927.646 114.512C752.241 108.772 618.494 197.85 462.778 232.979C307.063 268.108 121.999 170.753 -37.1499 280.11" stroke="#7DD5FF" stroke-opacity="0.2" stroke-width="2" stroke-miterlimit="10"/>
<path d="M1704.67 230.462C1410.26 385.769 1088.79 129.522 912.411 117.041C734.396 104.441 604.461 183.875 450.9 224.183C297.338 264.49 107.22 171.731 -34.2463 268.936" stroke="#7DD5FF" stroke-opacity="0.2" stroke-width="2" stroke-miterlimit="10"/>
<path d="M1696.13 232.495C1397.1 395.107 1076.43 138.877 897.198 119.579C716.571 100.124 590.448 169.906 439.044 215.386C287.639 260.866 92.4402 172.709 -31.343 257.769" stroke="#7DD5FF" stroke-opacity="0.2" stroke-width="2" stroke-miterlimit="10"/>
<path d="M1687.56 234.528C1383.92 404.443 1064.05 148.239 881.963 122.103C698.72 95.8101 576.415 155.929 427.168 206.587C277.92 257.245 77.6609 173.688 -28.4395 246.592" stroke="#7DD5FF" stroke-opacity="0.2" stroke-width="2" stroke-miterlimit="10"/>
<path d="M1678.99 236.561C1370.75 413.781 1051.67 157.606 866.736 124.635C680.869 91.4959 562.379 141.954 415.297 197.79C268.215 253.627 62.8813 174.666 -25.5361 235.429" stroke="#7DD5FF" stroke-opacity="0.2" stroke-width="2" stroke-miterlimit="10"/>
<path d="M1670.43 238.594C1357.57 423.117 1039.21 167.286 851.506 127.164C662.946 87.5065 548.364 127.982 403.427 188.994C258.49 250.005 48.1018 175.649 -22.6299 224.246" stroke="#7DD5FF" stroke-opacity="0.2" stroke-width="2" stroke-miterlimit="10"/>
<path d="M1661.87 240.626C1344.4 432.454 1026.83 176.595 836.28 129.707C645.09 83.152 534.337 114.024 391.557 180.208C248.777 246.392 33.3226 176.618 -19.7375 213.07" stroke="#7DD5FF" stroke-opacity="0.2" stroke-width="2" stroke-miterlimit="10"/>
<path d="M1653.31 242.657C1331.23 441.787 1014.44 185.914 821.05 132.225C627.236 78.7753 520.309 100.03 379.689 171.397C239.07 242.765 18.546 177.594 -16.8198 201.907" stroke="#7DD5FF" stroke-opacity="0.2" stroke-width="2" stroke-miterlimit="10"/>
<path d="M1644.74 244.693C1318.06 451.135 1002.05 195.216 805.823 134.758C609.393 74.4247 506.282 86.0613 367.813 162.601C229.345 239.142 3.76372 178.569 -13.9192 190.728" stroke="#7DD5FF" stroke-opacity="0.2" stroke-width="2" stroke-miterlimit="10"/>
<path d="M1636.18 246.726C1304.88 460.464 989.667 204.525 790.593 137.289C591.52 70.0532 492.269 72.0862 355.943 153.805C219.617 235.523 -11.0159 179.553 -11.0159 179.553" stroke="#7DD5FF" stroke-opacity="0.2" stroke-width="2" stroke-miterlimit="10"/>
<path d="M1637.03 241.691C1578.92 276.385 1521.81 300.709 1465.68 314.664C1392.81 332.437 1321.2 332.439 1252.01 321.202C1213.27 314.847 1175.17 305.07 1138.15 291.987C1097.96 277.838 1059.72 260.336 1023.3 242.244C984.145 222.911 946.981 202.675 911.219 184.514C867.759 162.442 826.332 142.314 789.149 130.891C710.04 106.58 648.517 96.5543 592.511 95.0259C532.122 93.3778 478.615 103.135 422.839 125.251C401.128 133.782 379.139 144.119 356.211 156.451C316.494 177.662 269.398 187.209 222.139 191.152C107.596 200.71 -7.65085 173.394 -11.8223 173.919" stroke="#7DD5FF" stroke-opacity="0.2" stroke-width="2" stroke-miterlimit="10"/>
<path d="M1637.89 236.669C1578.9 269.135 1521.3 295.259 1464.89 310.503C1392.13 330.178 1320.07 332.082 1250.03 322.282C1210.77 316.736 1171.94 307.404 1134.83 293.939C1094.43 279.329 1056.63 260.338 1020.78 240.932C982.433 220.171 946.092 198.511 910.41 179.378C867.502 156.368 825.355 134.931 787.704 124.492C709.008 102.679 649.529 98.4556 593.873 99.5078C534.262 100.648 479.965 111.005 423.677 131.127C401.683 138.991 379.512 148.207 356.476 159.108C316.537 178.001 269.645 184.879 222.475 187.468C109.761 193.661 -4.28877 167.243 -12.6316 168.292" stroke="#7DD5FF" stroke-opacity="0.2" stroke-width="2" stroke-miterlimit="10"/>
<path d="M1638.74 231.625C1578.86 261.85 1520.85 289.586 1464.11 306.332C1391.42 327.775 1318.93 331.709 1248.06 323.352C1208.4 318.599 1168.96 309.845 1131.52 295.89C1090.91 280.818 1053.53 260.382 1018.27 239.612C980.697 217.479 945.209 194.355 909.604 174.235C867.246 150.3 824.395 127.523 786.262 118.091C708.011 98.7356 650.56 100.335 595.241 103.985C536.422 107.866 481.268 118.772 424.515 136.996C402.227 144.15 379.886 152.248 356.744 161.754C316.543 178.273 269.908 182.553 222.825 183.776C111.95 186.641 -0.932136 161.073 -13.4407 162.647" stroke="#7DD5FF" stroke-opacity="0.2" stroke-width="2" stroke-miterlimit="10"/>
<path d="M1639.59 226.592C1578.83 254.602 1520.39 283.906 1463.32 302.154C1390.71 325.348 1317.79 331.336 1246.09 324.41C1206.03 320.449 1165.96 312.271 1128.21 297.826C1087.38 282.292 1050.42 260.421 1015.76 238.283C978.951 214.785 944.317 190.191 908.792 169.091C866.981 144.244 823.44 120.098 784.815 111.684C707.028 94.7435 651.6 102.194 596.6 108.462C538.588 115.071 482.576 126.531 425.355 142.858C402.766 149.305 380.242 156.282 357.014 164.398C316.554 178.535 270.184 180.24 223.15 180.08C114.172 179.701 2.44436 154.922 -14.2441 157.024" stroke="#7DD5FF" stroke-opacity="0.2" stroke-width="2" stroke-miterlimit="10"/>
<path d="M1640.44 221.557C1578.8 247.339 1519.94 278.226 1462.54 297.975C1390 322.936 1316.65 330.965 1244.11 325.476C1203.65 322.308 1162.97 314.71 1124.89 299.774C1083.86 283.777 1047.32 260.476 1013.24 236.96C977.218 212.107 943.431 186.051 907.983 163.939C866.713 138.191 822.503 112.648 783.37 105.271C706.091 90.7004 652.652 104.019 597.962 112.927C540.767 122.243 483.869 134.27 426.187 148.715C403.293 154.446 380.598 160.309 357.274 167.032C316.528 178.783 270.46 177.939 223.481 176.371C116.403 172.792 5.79228 148.749 -15.0591 151.373" stroke="#7DD5FF" stroke-opacity="0.2" stroke-width="2" stroke-miterlimit="10"/>
<path d="M1641.3 216.527C1578.77 240.08 1519.48 272.537 1461.75 293.8C1389.28 320.5 1315.52 330.583 1242.14 326.543C1201.3 324.167 1159.98 317.133 1121.58 301.721C1080.33 285.26 1044.21 260.533 1010.74 235.64C975.489 209.435 942.539 181.919 907.185 158.795C866.439 132.154 821.588 105.188 781.937 98.8637C705.179 86.6198 653.717 105.83 599.338 117.398C542.955 129.399 485.163 142.003 427.036 154.583C403.84 159.599 380.949 164.343 357.553 169.695C316.522 179.057 270.768 175.683 223.828 172.692C118.688 165.977 9.18 142.604 -15.8513 145.755" stroke="#7DD5FF" stroke-opacity="0.2" stroke-width="2" stroke-miterlimit="10"/>
<path d="M1642.15 211.491C1578.74 232.819 1519.02 266.837 1460.97 289.634C1388.57 318.065 1314.38 330.232 1240.16 327.617C1198.93 326.035 1156.99 319.588 1118.26 303.665C1076.8 286.742 1041.1 260.609 1008.21 234.319C973.734 206.766 941.63 177.793 906.364 153.65C866.166 126.131 820.657 97.7114 780.481 92.4591C704.262 82.4792 654.777 107.617 600.689 121.874C545.147 136.519 486.431 149.735 427.86 160.442C404.356 164.737 381.279 168.363 357.807 172.318C316.491 179.282 271.053 173.422 224.15 168.974C120.928 159.185 12.531 136.419 -16.6746 140.098" stroke="#7DD5FF" stroke-opacity="0.2" stroke-width="2" stroke-miterlimit="10"/>
<path d="M1643 206.459C1578.71 225.563 1518.56 261.129 1460.18 285.463C1387.85 315.613 1313.25 329.867 1238.19 328.687C1196.57 327.897 1154 322.029 1114.95 305.625C1073.27 288.231 1037.99 260.681 1005.7 233.008C971.987 204.118 940.733 173.699 905.555 148.518C865.884 120.127 819.748 90.2241 779.045 86.0724C703.376 78.3423 655.849 109.397 602.062 126.371C547.355 143.637 487.727 157.474 428.703 166.325C404.894 169.895 381.627 172.404 358.08 174.982C316.463 179.544 271.364 171.221 224.495 165.287C123.213 152.487 15.9017 130.269 -17.4753 134.469" stroke="#7DD5FF" stroke-opacity="0.2" stroke-width="2" stroke-miterlimit="10"/>
<path d="M1643.86 201.426C1578.67 218.298 1518.1 255.412 1459.4 281.291C1387.13 313.152 1312.11 329.5 1236.21 329.765C1194.2 329.765 1151.02 324.475 1111.63 307.581C1069.75 289.734 1034.87 260.766 1003.18 231.699C970.238 201.474 939.818 169.59 904.746 143.386C865.596 114.133 818.842 82.7135 777.592 79.6682C702.487 74.1279 656.9 111.136 603.416 130.848C549.521 150.711 488.995 165.187 429.533 172.193C405.413 175.045 381.949 176.422 358.337 177.628C316.423 179.767 271.663 169.025 224.82 161.6C125.484 145.852 19.2583 124.116 -18.293 128.843" stroke="#7DD5FF" stroke-opacity="0.2" stroke-width="2" stroke-miterlimit="10"/>
<path d="M1644.71 196.393C1578.64 211.038 1517.63 249.689 1458.62 277.119C1386.4 310.68 1310.98 329.132 1234.25 330.825C1191.84 331.621 1148.02 326.908 1108.33 309.523C1066.23 291.214 1031.75 260.841 1000.68 230.371C968.48 198.817 938.915 165.484 903.945 138.236C865.311 108.131 817.947 75.163 776.156 73.2583C701.617 69.8623 657.96 112.844 604.789 135.316C551.709 157.751 490.28 172.878 430.379 178.05C405.949 180.16 382.305 180.425 358.613 180.263C316.397 179.978 271.976 166.861 225.165 157.896C127.769 139.263 22.6289 117.948 -19.0938 123.198" stroke="#7DD5FF" stroke-opacity="0.2" stroke-width="2" stroke-miterlimit="10"/>
<path d="M1645.56 191.36C1578.6 203.778 1517.17 243.957 1457.83 272.945C1385.67 308.202 1309.84 328.77 1232.26 331.906C1189.45 333.494 1145.01 329.357 1104.99 311.481C1062.68 292.711 1028.61 260.938 998.141 229.076C966.713 196.196 937.975 161.415 903.116 133.118C864.992 102.169 817.027 67.6181 774.689 66.8767C700.726 65.5822 658.983 114.558 606.131 139.818C553.854 164.802 491.534 180.594 431.182 183.941C406.442 185.313 382.61 184.454 358.847 182.932C316.335 180.211 272.244 164.74 225.47 154.224C130.017 132.764 25.96 111.809 -19.9341 117.586" stroke="#7DD5FF" stroke-opacity="0.2" stroke-width="2" stroke-miterlimit="10"/>
<path d="M1646.41 186.328C1578.58 196.516 1516.69 238.223 1457.05 268.773C1384.94 305.713 1308.71 328.396 1230.29 332.964C1187.1 335.345 1142.03 331.786 1101.69 313.42C1059.17 294.185 1025.49 261.017 995.639 227.736C964.961 193.519 937.06 157.306 902.318 127.937C864.707 96.1549 816.138 59.9905 773.244 60.4382C699.851 61.1995 660.012 116.192 607.493 144.269C556.011 171.783 492.807 188.25 432.031 189.781C406.98 190.411 382.96 188.429 359.123 185.552C316.312 180.385 272.552 162.607 225.817 150.503C132.271 126.266 29.3362 105.624 -20.7292 111.926" stroke="#7DD5FF" stroke-opacity="0.2" stroke-width="2" stroke-miterlimit="10"/>
<path d="M1647.27 181.292C1578.55 189.256 1516.21 232.478 1456.26 264.601C1384.2 303.218 1307.57 328.028 1228.32 334.033C1184.72 337.207 1139.04 334.224 1098.39 315.371C1055.65 295.673 1022.37 261.108 993.138 226.407C963.22 190.887 936.151 153.22 901.523 122.801C864.399 90.1868 815.249 52.3715 771.825 54.0396C698.996 56.8226 661.052 117.851 608.883 148.74C558.165 178.769 494.11 195.914 432.892 195.64C407.533 195.529 383.314 192.421 359.416 188.192C316.295 180.582 272.845 160.537 226.159 146.81C134.513 119.878 32.7069 99.4767 -21.53 106.292" stroke="#7DD5FF" stroke-opacity="0.2" stroke-width="2" stroke-miterlimit="10"/>
<path d="M1648.12 176.259C1578.52 181.996 1515.73 226.729 1455.48 260.43C1383.45 300.717 1306.43 327.66 1226.34 335.102C1182.36 339.069 1136.05 336.665 1095.06 317.318C1052.11 297.159 1019.22 261.205 990.61 225.098C961.419 188.258 935.191 149.157 900.697 117.669C864.066 84.2301 814.325 44.7496 770.366 47.6466C698.096 52.4085 662.032 119.502 610.234 153.228C560.288 185.751 495.375 203.587 433.718 201.517C408.052 200.661 383.658 196.421 359.67 190.847C316.275 180.764 273.119 158.481 226.501 143.114C136.727 113.528 36.075 93.3061 -22.3362 100.657" stroke="#7DD5FF" stroke-opacity="0.2" stroke-width="2" stroke-miterlimit="10"/>
<path d="M1648.97 171.227C1578.49 174.734 1515.25 220.975 1454.69 256.259C1382.7 298.211 1305.3 327.293 1224.37 336.184C1180 340.943 1133.06 339.115 1091.74 319.28C1048.59 298.659 1016.08 261.311 988.094 223.79C959.644 185.638 934.242 145.091 899.888 112.539C863.741 78.2799 813.411 37.0942 768.921 41.2544C697.201 47.9609 663.012 121.131 611.596 157.717C562.391 192.729 496.654 211.252 434.553 207.394C408.576 205.78 384.003 200.423 359.932 193.505C316.252 180.959 273.372 156.474 226.834 139.434C138.91 107.216 39.437 87.1449 -23.157 95.0233" stroke="#7DD5FF" stroke-opacity="0.2" stroke-width="2" stroke-miterlimit="10"/>
<path d="M1649.82 166.194C1578.45 167.474 1514.76 215.215 1453.91 252.087C1381.95 295.696 1304.16 326.925 1222.39 337.241C1177.63 342.793 1130.08 341.544 1088.43 321.216C1045.06 300.133 1012.92 261.4 985.57 222.461C957.849 182.995 933.282 141.028 899.067 107.387C863.396 72.3146 812.479 29.3896 767.465 34.8386C696.278 43.4584 663.958 122.733 612.946 162.182C564.468 199.672 497.925 218.888 435.377 213.251C409.094 210.881 384.339 204.394 360.189 196.142C316.229 181.116 273.598 154.475 227.156 135.73C141.047 100.971 42.805 80.9828 -23.9661 89.3888" stroke="#7DD5FF" stroke-opacity="0.2" stroke-width="2" stroke-miterlimit="10"/>
<path d="M1650.68 161.161C1578.42 160.215 1514.26 209.45 1453.13 247.915C1381.19 293.178 1303.02 326.557 1220.42 338.305C1175.26 344.649 1127.08 343.976 1085.11 323.161C1041.52 301.613 1009.78 261.494 983.065 221.138C956.076 180.363 932.333 136.964 898.269 102.234C863.069 66.3494 811.556 21.6622 766.032 28.4257C695.369 38.9246 664.91 124.327 614.32 166.647C566.554 206.613 499.224 226.527 436.237 219.113C409.65 215.977 384.715 208.375 360.476 198.783C316.246 181.275 273.834 152.505 227.515 132.029C143.175 94.7465 46.1756 74.8209 -24.7498 83.7486" stroke="#7DD5FF" stroke-opacity="0.2" stroke-width="2" stroke-miterlimit="10"/>
<path d="M1651.53 156.126C1578.39 152.952 1513.76 203.682 1452.34 243.744C1380.42 290.655 1301.9 326.189 1218.45 339.38C1172.89 346.508 1124.08 346.423 1081.8 325.123C1038.01 303.116 1006.62 261.608 980.552 219.832C954.284 177.731 931.367 132.915 897.46 97.1047C862.721 60.4128 810.613 13.9321 764.588 22.033C694.414 34.3852 665.833 125.938 615.685 171.138C568.608 213.57 500.515 234.155 437.061 224.984C410.172 221.095 385.06 212.361 360.733 201.432C316.235 181.443 274.028 150.557 227.84 128.336C145.238 88.5647 49.5296 68.6648 -25.5701 78.1315" stroke="#7DD5FF" stroke-opacity="0.2" stroke-width="2" stroke-miterlimit="10"/>
<path d="M1652.38 151.093C1578.36 145.692 1513.18 197.799 1451.56 239.572C1379.57 287.994 1300.75 325.821 1216.47 340.46C1170.53 348.39 1121.09 348.872 1078.49 327.076C1034.48 304.604 1003.38 261.753 978.036 218.517C952.415 175.156 930.393 128.878 896.651 91.9747C862.368 54.4759 809.653 6.17885 763.143 15.6427C693.449 29.8198 666.736 127.546 617.047 175.626C570.643 220.516 501.811 241.802 437.898 230.849C410.707 226.196 385.422 216.341 360.998 204.078C316.241 181.603 274.179 148.652 228.174 124.64C147.261 82.4083 52.8917 62.5026 -26.3794 72.4797" stroke="#7DD5FF" stroke-opacity="0.2" stroke-width="2" stroke-miterlimit="10"/>
<path d="M1653.24 146.06C1578.33 138.433 1512.71 192.076 1450.77 235.4C1378.83 285.534 1299.62 325.453 1214.5 341.518C1168.16 350.241 1118.1 351.301 1075.17 329.012C1030.95 306.078 1000.25 261.821 975.52 217.186C950.651 172.49 929.361 124.877 895.839 86.8195C861.932 48.5793 808.678 -1.61676 761.696 9.22712C692.457 25.2121 667.619 129.129 618.409 180.092C572.666 227.462 503.122 249.335 438.733 236.718C411.249 231.263 385.798 220.291 361.26 206.724C316.283 181.711 274.313 146.759 228.51 120.945C149.242 76.275 56.254 56.3437 -27.1885 66.8454" stroke="#7DD5FF" stroke-opacity="0.2" stroke-width="2" stroke-miterlimit="10"/>
<path d="M1654.09 141.027C1578.29 131.17 1512.23 186.365 1449.99 231.229C1378.09 283.064 1298.48 325.085 1212.52 342.587C1165.8 352.102 1115.11 353.739 1071.86 330.962C1027.43 307.566 997.124 261.898 973.007 215.868C948.89 169.838 928.424 120.78 895.032 81.6783C861.641 42.577 807.692 -9.42687 760.259 2.82561C691.451 20.5927 668.511 130.725 619.788 184.571C574.694 234.408 504.43 257.028 439.585 242.583C360.724 225.015 299.236 159.918 228.86 117.25C151.171 70.1472 59.6189 50.1874 -28.0007 61.2081" stroke="#7DD5FF" stroke-opacity="0.2" stroke-width="2" stroke-miterlimit="10"/>
</g>
<g opacity="0.79">
<path d="M1816 725.035C1581.52 785.391 1249.8 529.999 1110.38 605.142C966.494 682.7 786.812 886.533 605.225 859.544C423.637 832.556 299.347 680.02 -72 935.186" stroke="#7DD5FF" stroke-opacity="0.2" stroke-width="2" stroke-miterlimit="10"/>
<path d="M1807.44 727.068C1568.35 794.738 1237.41 539.32 1095.16 607.686C948.631 678.341 772.785 872.581 593.355 850.762C413.924 828.943 284.57 680.998 -69.0964 924.012" stroke="#7DD5FF" stroke-opacity="0.2" stroke-width="2" stroke-miterlimit="10"/>
<path d="M1798.88 729.101C1555.18 804.064 1225.02 548.63 1079.93 610.198C930.777 673.958 758.761 858.578 581.484 841.945C404.208 825.313 269.788 681.976 -66.1816 912.84" stroke="#7DD5FF" stroke-opacity="0.2" stroke-width="2" stroke-miterlimit="10"/>
<path d="M1790.31 731.134C1542 813.4 1212.64 557.943 1064.72 612.735C912.935 669.601 744.736 844.611 569.628 833.149C394.52 821.686 255.009 682.962 -63.2866 901.665" stroke="#7DD5FF" stroke-opacity="0.2" stroke-width="2" stroke-miterlimit="10"/>
<path d="M1781.75 733.167C1528.83 822.738 1200.13 566.896 1049.47 615.264C894.95 664.879 730.706 830.636 557.744 824.355C384.781 818.073 240.232 683.929 -60.3833 890.507" stroke="#7DD5FF" stroke-opacity="0.2" stroke-width="2" stroke-miterlimit="10"/>
<path d="M1773.19 735.197C1515.66 832.073 1187.75 576.14 1034.24 617.796C877.093 660.436 716.679 816.664 545.873 815.552C375.068 814.44 225.453 684.907 -57.4797 879.321" stroke="#7DD5FF" stroke-opacity="0.2" stroke-width="2" stroke-miterlimit="10"/>
<path d="M1764.62 737.23C1502.49 841.412 1175.37 585.396 1019.02 620.323C859.245 656.02 702.655 802.687 534.003 806.759C365.352 810.831 210.673 685.885 -54.5762 868.147" stroke="#7DD5FF" stroke-opacity="0.2" stroke-width="2" stroke-miterlimit="10"/>
<path d="M1756.06 739.263C1489.31 850.753 1162.99 594.663 1003.79 622.858C841.405 651.614 688.627 788.718 522.133 797.965C355.638 807.212 195.885 686.863 -51.6702 856.975" stroke="#7DD5FF" stroke-opacity="0.2" stroke-width="2" stroke-miterlimit="10"/>
<path d="M1747.5 741.297C1476.14 860.086 1150.63 603.942 988.559 625.387C823.583 647.22 674.6 774.743 510.262 789.169C345.925 803.594 181.114 687.841 -48.7751 845.8" stroke="#7DD5FF" stroke-opacity="0.2" stroke-width="2" stroke-miterlimit="10"/>
<path d="M1738.93 743.329C1462.96 869.421 1138.26 613.234 973.32 627.919C805.726 642.84 660.561 760.769 498.381 780.369C336.2 799.97 166.323 688.819 -45.8633 834.628" stroke="#7DD5FF" stroke-opacity="0.2" stroke-width="2" stroke-miterlimit="10"/>
<path d="M1730.37 745.363C1449.79 878.76 1125.9 622.542 958.102 630.451C787.906 638.475 646.549 746.789 486.519 771.576C326.49 796.363 151.555 689.806 -42.9597 823.457" stroke="#7DD5FF" stroke-opacity="0.2" stroke-width="2" stroke-miterlimit="10"/>
<path d="M1721.81 747.404C1436.62 888.104 1113.53 631.868 942.875 632.989C770.075 634.129 632.521 732.83 474.649 762.784C316.776 792.738 136.776 690.775 -40.0564 812.282" stroke="#7DD5FF" stroke-opacity="0.2" stroke-width="2" stroke-miterlimit="10"/>
<path d="M1713.24 749.428C1423.45 897.433 1101.17 641.186 927.646 635.512C752.241 629.772 618.494 718.85 462.778 753.979C307.063 789.108 121.999 691.753 -37.1499 801.11" stroke="#7DD5FF" stroke-opacity="0.2" stroke-width="2" stroke-miterlimit="10"/>
<path d="M1704.67 751.462C1410.26 906.769 1088.79 650.522 912.411 638.041C734.396 625.441 604.461 704.875 450.9 745.183C297.338 785.49 107.22 692.731 -34.2463 789.936" stroke="#7DD5FF" stroke-opacity="0.2" stroke-width="2" stroke-miterlimit="10"/>
<path d="M1696.13 753.495C1397.1 916.107 1076.43 659.877 897.198 640.579C716.571 621.124 590.448 690.906 439.044 736.386C287.639 781.866 92.4402 693.709 -31.343 778.769" stroke="#7DD5FF" stroke-opacity="0.2" stroke-width="2" stroke-miterlimit="10"/>
<path d="M1687.56 755.528C1383.92 925.443 1064.05 669.239 881.963 643.103C698.72 616.81 576.415 676.929 427.168 727.587C277.92 778.245 77.6609 694.688 -28.4395 767.592" stroke="#7DD5FF" stroke-opacity="0.2" stroke-width="2" stroke-miterlimit="10"/>
<path d="M1678.99 757.561C1370.75 934.781 1051.67 678.606 866.736 645.635C680.869 612.496 562.379 662.954 415.297 718.79C268.215 774.627 62.8813 695.666 -25.5361 756.429" stroke="#7DD5FF" stroke-opacity="0.2" stroke-width="2" stroke-miterlimit="10"/>
<path d="M1670.43 759.594C1357.57 944.117 1039.21 688.286 851.506 648.164C662.946 608.507 548.364 648.982 403.427 709.994C258.49 771.005 48.1018 696.649 -22.6299 745.246" stroke="#7DD5FF" stroke-opacity="0.2" stroke-width="2" stroke-miterlimit="10"/>
<path d="M1661.87 761.626C1344.4 953.454 1026.83 697.595 836.28 650.707C645.09 604.152 534.337 635.024 391.557 701.208C248.777 767.392 33.3226 697.618 -19.7375 734.07" stroke="#7DD5FF" stroke-opacity="0.2" stroke-width="2" stroke-miterlimit="10"/>
<path d="M1653.31 763.657C1331.23 962.787 1014.44 706.914 821.05 653.225C627.236 599.775 520.309 621.03 379.689 692.397C239.07 763.765 18.546 698.594 -16.8198 722.907" stroke="#7DD5FF" stroke-opacity="0.2" stroke-width="2" stroke-miterlimit="10"/>
<path d="M1644.74 765.693C1318.06 972.135 1002.05 716.216 805.823 655.758C609.393 595.425 506.282 607.061 367.813 683.601C229.345 760.142 3.76372 699.569 -13.9192 711.728" stroke="#7DD5FF" stroke-opacity="0.2" stroke-width="2" stroke-miterlimit="10"/>
<path d="M1636.18 767.726C1304.88 981.464 989.667 725.525 790.593 658.289C591.52 591.053 492.269 593.086 355.943 674.805C219.617 756.523 -11.0159 700.553 -11.0159 700.553" stroke="#7DD5FF" stroke-opacity="0.2" stroke-width="2" stroke-miterlimit="10"/>
<path d="M1637.03 762.691C1578.92 797.385 1521.81 821.709 1465.68 835.664C1392.81 853.437 1321.2 853.439 1252.01 842.202C1213.27 835.847 1175.17 826.07 1138.15 812.987C1097.96 798.838 1059.72 781.336 1023.3 763.244C984.145 743.911 946.981 723.675 911.219 705.514C867.759 683.442 826.332 663.314 789.149 651.891C710.04 627.58 648.517 617.554 592.511 616.026C532.122 614.378 478.615 624.135 422.839 646.251C401.128 654.782 379.139 665.119 356.211 677.451C316.494 698.662 269.398 708.209 222.139 712.152C107.596 721.71 -7.65085 694.394 -11.8223 694.919" stroke="#7DD5FF" stroke-opacity="0.2" stroke-width="2" stroke-miterlimit="10"/>
<path d="M1637.89 757.669C1578.9 790.135 1521.3 816.259 1464.89 831.503C1392.13 851.178 1320.07 853.082 1250.03 843.282C1210.77 837.736 1171.94 828.404 1134.83 814.939C1094.43 800.329 1056.63 781.338 1020.78 761.932C982.433 741.171 946.092 719.511 910.41 700.378C867.502 677.368 825.355 655.931 787.704 645.492C709.008 623.679 649.529 619.456 593.873 620.508C534.262 621.648 479.965 632.005 423.677 652.127C401.683 659.991 379.512 669.207 356.476 680.108C316.537 699.001 269.645 705.879 222.475 708.468C109.761 714.661 -4.28877 688.243 -12.6316 689.292" stroke="#7DD5FF" stroke-opacity="0.2" stroke-width="2" stroke-miterlimit="10"/>
<path d="M1638.74 752.625C1578.86 782.85 1520.85 810.586 1464.11 827.332C1391.42 848.775 1318.93 852.709 1248.06 844.352C1208.4 839.599 1168.96 830.845 1131.52 816.89C1090.91 801.818 1053.53 781.382 1018.27 760.612C980.697 738.479 945.209 715.355 909.604 695.235C867.246 671.3 824.395 648.523 786.262 639.091C708.011 619.736 650.56 621.335 595.241 624.985C536.422 628.866 481.268 639.772 424.515 657.996C402.227 665.15 379.886 673.248 356.744 682.754C316.543 699.273 269.908 703.553 222.825 704.776C111.95 707.641 -0.932136 682.073 -13.4407 683.647" stroke="#7DD5FF" stroke-opacity="0.2" stroke-width="2" stroke-miterlimit="10"/>
<path d="M1639.59 747.592C1578.83 775.602 1520.39 804.906 1463.32 823.154C1390.71 846.348 1317.79 852.336 1246.09 845.41C1206.03 841.449 1165.96 833.271 1128.21 818.826C1087.38 803.292 1050.42 781.421 1015.76 759.283C978.951 735.785 944.317 711.191 908.792 690.091C866.981 665.244 823.44 641.098 784.815 632.684C707.028 615.743 651.6 623.194 596.6 629.462C538.588 636.071 482.576 647.531 425.355 663.858C402.766 670.305 380.242 677.282 357.014 685.398C316.554 699.535 270.184 701.24 223.15 701.08C114.172 700.701 2.44436 675.922 -14.2441 678.024" stroke="#7DD5FF" stroke-opacity="0.2" stroke-width="2" stroke-miterlimit="10"/>
<path d="M1640.44 742.557C1578.8 768.339 1519.94 799.226 1462.54 818.975C1390 843.936 1316.65 851.965 1244.11 846.476C1203.65 843.308 1162.97 835.71 1124.89 820.774C1083.86 804.777 1047.32 781.476 1013.24 757.96C977.218 733.107 943.431 707.051 907.983 684.939C866.713 659.191 822.503 633.648 783.37 626.271C706.091 611.7 652.652 625.019 597.962 633.927C540.767 643.243 483.869 655.27 426.187 669.715C403.293 675.446 380.598 681.309 357.274 688.032C316.528 699.783 270.46 698.939 223.481 697.371C116.403 693.792 5.79228 669.749 -15.0591 672.373" stroke="#7DD5FF" stroke-opacity="0.2" stroke-width="2" stroke-miterlimit="10"/>
<path d="M1641.3 737.527C1578.77 761.08 1519.48 793.537 1461.75 814.8C1389.28 841.5 1315.52 851.583 1242.14 847.543C1201.3 845.167 1159.98 838.133 1121.58 822.721C1080.33 806.26 1044.21 781.533 1010.74 756.64C975.489 730.435 942.539 702.919 907.185 679.795C866.439 653.154 821.588 626.188 781.937 619.864C705.179 607.62 653.717 626.83 599.338 638.398C542.955 650.399 485.163 663.003 427.036 675.583C403.84 680.599 380.949 685.343 357.553 690.695C316.522 700.057 270.768 696.683 223.828 693.692C118.688 686.977 9.18 663.604 -15.8513 666.755" stroke="#7DD5FF" stroke-opacity="0.2" stroke-width="2" stroke-miterlimit="10"/>
<path d="M1642.15 732.491C1578.74 753.819 1519.02 787.837 1460.97 810.634C1388.57 839.065 1314.38 851.232 1240.16 848.617C1198.93 847.035 1156.99 840.588 1118.26 824.665C1076.8 807.742 1041.1 781.609 1008.21 755.319C973.734 727.766 941.63 698.793 906.364 674.65C866.166 647.131 820.657 618.711 780.481 613.459C704.262 603.479 654.777 628.617 600.689 642.874C545.147 657.519 486.431 670.735 427.86 681.442C404.356 685.737 381.279 689.363 357.807 693.318C316.491 700.282 271.053 694.422 224.15 689.974C120.928 680.185 12.531 657.419 -16.6746 661.098" stroke="#7DD5FF" stroke-opacity="0.2" stroke-width="2" stroke-miterlimit="10"/>
<path d="M1643 727.459C1578.71 746.563 1518.56 782.129 1460.18 806.463C1387.85 836.613 1313.25 850.867 1238.19 849.687C1196.57 848.897 1154 843.029 1114.95 826.625C1073.27 809.231 1037.99 781.681 1005.7 754.008C971.987 725.118 940.733 694.699 905.555 669.518C865.884 641.127 819.748 611.224 779.045 607.072C703.376 599.342 655.849 630.397 602.062 647.371C547.355 664.637 487.727 678.474 428.703 687.325C404.894 690.895 381.627 693.404 358.08 695.982C316.463 700.544 271.364 692.221 224.495 686.287C123.213 673.487 15.9017 651.269 -17.4753 655.469" stroke="#7DD5FF" stroke-opacity="0.2" stroke-width="2" stroke-miterlimit="10"/>
<path d="M1643.86 722.426C1578.67 739.298 1518.1 776.412 1459.4 802.291C1387.13 834.152 1312.11 850.5 1236.21 850.765C1194.2 850.765 1151.02 845.475 1111.63 828.581C1069.75 810.734 1034.87 781.766 1003.18 752.699C970.238 722.474 939.818 690.59 904.746 664.386C865.596 635.133 818.842 603.713 777.592 600.668C702.487 595.128 656.9 632.136 603.416 651.848C549.521 671.711 488.995 686.187 429.533 693.193C405.413 696.045 381.949 697.422 358.337 698.628C316.423 700.767 271.663 690.025 224.82 682.6C125.484 666.852 19.2583 645.116 -18.293 649.843" stroke="#7DD5FF" stroke-opacity="0.2" stroke-width="2" stroke-miterlimit="10"/>
<path d="M1644.71 717.393C1578.64 732.038 1517.63 770.689 1458.62 798.119C1386.4 831.68 1310.98 850.132 1234.25 851.825C1191.84 852.621 1148.02 847.908 1108.33 830.523C1066.23 812.214 1031.75 781.841 1000.68 751.371C968.48 719.817 938.915 686.484 903.945 659.236C865.311 629.131 817.947 596.163 776.156 594.258C701.617 590.862 657.96 633.844 604.789 656.316C551.709 678.751 490.28 693.878 430.379 699.05C405.949 701.16 382.305 701.425 358.613 701.263C316.397 700.978 271.976 687.861 225.165 678.896C127.769 660.263 22.6289 638.948 -19.0938 644.198" stroke="#7DD5FF" stroke-opacity="0.2" stroke-width="2" stroke-miterlimit="10"/>
<path d="M1645.56 712.36C1578.6 724.778 1517.17 764.957 1457.83 793.945C1385.67 829.202 1309.84 849.77 1232.26 852.906C1189.45 854.494 1145.01 850.357 1104.99 832.481C1062.68 813.711 1028.61 781.938 998.141 750.076C966.713 717.196 937.975 682.415 903.116 654.118C864.992 623.169 817.027 588.618 774.689 587.877C700.726 586.582 658.983 635.558 606.131 660.818C553.854 685.802 491.534 701.594 431.182 704.941C406.442 706.313 382.61 705.454 358.847 703.932C316.335 701.211 272.244 685.74 225.47 675.224C130.017 653.764 25.96 632.809 -19.9341 638.586" stroke="#7DD5FF" stroke-opacity="0.2" stroke-width="2" stroke-miterlimit="10"/>
<path d="M1646.41 707.328C1578.58 717.516 1516.69 759.223 1457.05 789.773C1384.94 826.713 1308.71 849.396 1230.29 853.964C1187.1 856.345 1142.03 852.786 1101.69 834.42C1059.17 815.185 1025.49 782.017 995.639 748.736C964.961 714.519 937.06 678.306 902.318 648.937C864.707 617.155 816.138 580.991 773.244 581.438C699.851 582.2 660.012 637.192 607.493 665.269C556.011 692.783 492.807 709.25 432.031 710.781C406.98 711.411 382.96 709.429 359.123 706.552C316.312 701.385 272.552 683.607 225.817 671.503C132.271 647.266 29.3362 626.624 -20.7292 632.926" stroke="#7DD5FF" stroke-opacity="0.2" stroke-width="2" stroke-miterlimit="10"/>
<path d="M1647.27 702.292C1578.55 710.256 1516.21 753.478 1456.26 785.601C1384.2 824.218 1307.57 849.028 1228.32 855.033C1184.72 858.207 1139.04 855.224 1098.39 836.371C1055.65 816.673 1022.37 782.108 993.138 747.407C963.22 711.887 936.151 674.22 901.523 643.801C864.399 611.187 815.249 573.372 771.825 575.04C698.996 577.823 661.052 638.851 608.883 669.74C558.165 699.769 494.11 716.914 432.892 716.64C407.533 716.529 383.314 713.421 359.416 709.192C316.295 701.582 272.845 681.537 226.159 667.81C134.513 640.878 32.7069 620.477 -21.53 627.292" stroke="#7DD5FF" stroke-opacity="0.2" stroke-width="2" stroke-miterlimit="10"/>
<path d="M1648.12 697.259C1578.52 702.996 1515.73 747.729 1455.48 781.43C1383.45 821.717 1306.43 848.66 1226.34 856.102C1182.36 860.069 1136.05 857.665 1095.06 838.318C1052.11 818.159 1019.22 782.205 990.61 746.098C961.419 709.258 935.191 670.157 900.697 638.669C864.066 605.23 814.325 565.75 770.366 568.647C698.096 573.408 662.032 640.502 610.234 674.228C560.288 706.751 495.375 724.587 433.718 722.517C408.052 721.661 383.658 717.421 359.67 711.847C316.275 701.764 273.119 679.481 226.501 664.114C136.727 634.528 36.075 614.306 -22.3362 621.657" stroke="#7DD5FF" stroke-opacity="0.2" stroke-width="2" stroke-miterlimit="10"/>
<path d="M1648.97 692.227C1578.49 695.734 1515.25 741.975 1454.69 777.259C1382.7 819.211 1305.3 848.293 1224.37 857.184C1180 861.943 1133.06 860.115 1091.74 840.28C1048.59 819.659 1016.08 782.311 988.094 744.79C959.644 706.638 934.242 666.091 899.888 633.539C863.741 599.28 813.411 558.094 768.921 562.254C697.201 568.961 663.012 642.131 611.596 678.717C562.391 713.729 496.654 732.252 434.553 728.394C408.576 726.78 384.003 721.423 359.932 714.505C316.252 701.959 273.372 677.474 226.834 660.434C138.91 628.216 39.437 608.145 -23.157 616.023" stroke="#7DD5FF" stroke-opacity="0.2" stroke-width="2" stroke-miterlimit="10"/>
<path d="M1649.82 687.194C1578.45 688.474 1514.76 736.215 1453.91 773.087C1381.95 816.696 1304.16 847.925 1222.39 858.241C1177.63 863.793 1130.08 862.544 1088.43 842.216C1045.06 821.133 1012.92 782.4 985.57 743.461C957.849 703.995 933.282 662.028 899.067 628.387C863.396 593.315 812.479 550.39 767.465 555.839C696.278 564.458 663.958 643.733 612.946 683.182C564.468 720.672 497.925 739.888 435.377 734.251C409.094 731.881 384.339 725.394 360.189 717.142C316.229 702.116 273.598 675.475 227.156 656.73C141.047 621.971 42.805 601.983 -23.9661 610.389" stroke="#7DD5FF" stroke-opacity="0.2" stroke-width="2" stroke-miterlimit="10"/>
<path d="M1650.68 682.161C1578.42 681.215 1514.26 730.45 1453.13 768.915C1381.19 814.178 1303.02 847.557 1220.42 859.305C1175.26 865.649 1127.08 864.976 1085.11 844.161C1041.52 822.613 1009.78 782.494 983.065 742.138C956.076 701.363 932.333 657.964 898.269 623.234C863.069 587.349 811.556 542.662 766.032 549.426C695.369 559.925 664.91 645.327 614.32 687.647C566.554 727.613 499.224 747.527 436.237 740.113C409.65 736.977 384.715 729.375 360.476 719.783C316.246 702.275 273.834 673.505 227.515 653.029C143.175 615.747 46.1756 595.821 -24.7498 604.749" stroke="#7DD5FF" stroke-opacity="0.2" stroke-width="2" stroke-miterlimit="10"/>
<path d="M1651.53 677.126C1578.39 673.952 1513.76 724.682 1452.34 764.744C1380.42 811.655 1301.9 847.189 1218.45 860.38C1172.89 867.508 1124.08 867.423 1081.8 846.123C1038.01 824.116 1006.62 782.608 980.552 740.832C954.284 698.731 931.367 653.915 897.46 618.105C862.721 581.413 810.613 534.932 764.588 543.033C694.414 555.385 665.833 646.938 615.685 692.138C568.608 734.57 500.515 755.155 437.061 745.984C410.172 742.095 385.06 733.361 360.733 722.432C316.235 702.443 274.028 671.557 227.84 649.336C145.238 609.565 49.5296 589.665 -25.5701 599.131" stroke="#7DD5FF" stroke-opacity="0.2" stroke-width="2" stroke-miterlimit="10"/>
<path d="M1652.38 672.093C1578.36 666.692 1513.18 718.799 1451.56 760.572C1379.57 808.994 1300.75 846.821 1216.47 861.46C1170.53 869.39 1121.09 869.872 1078.49 848.076C1034.48 825.604 1003.38 782.753 978.036 739.517C952.415 696.156 930.393 649.878 896.651 612.975C862.368 575.476 809.653 527.179 763.143 536.643C693.449 550.82 666.736 648.546 617.047 696.626C570.643 741.516 501.811 762.802 437.898 751.849C410.707 747.196 385.422 737.341 360.998 725.078C316.241 702.603 274.179 669.652 228.174 645.64C147.261 603.408 52.8917 583.503 -26.3794 593.48" stroke="#7DD5FF" stroke-opacity="0.2" stroke-width="2" stroke-miterlimit="10"/>
<path d="M1653.24 667.06C1578.33 659.433 1512.71 713.076 1450.77 756.4C1378.83 806.534 1299.62 846.453 1214.5 862.518C1168.16 871.241 1118.1 872.301 1075.17 850.012C1030.95 827.078 1000.25 782.821 975.52 738.186C950.651 693.49 929.361 645.877 895.839 607.819C861.932 569.579 808.678 519.383 761.696 530.227C692.457 546.212 667.619 650.129 618.409 701.092C572.666 748.462 503.122 770.335 438.733 757.718C411.249 752.263 385.798 741.291 361.26 727.724C316.283 702.711 274.313 667.759 228.51 641.945C149.242 597.275 56.254 577.344 -27.1885 587.845" stroke="#7DD5FF" stroke-opacity="0.2" stroke-width="2" stroke-miterlimit="10"/>
<path d="M1654.09 662.027C1578.29 652.17 1512.23 707.365 1449.99 752.229C1378.09 804.064 1298.48 846.085 1212.52 863.587C1165.8 873.102 1115.11 874.739 1071.86 851.962C1027.43 828.566 997.124 782.898 973.007 736.868C948.89 690.838 928.424 641.78 895.032 602.678C861.641 563.577 807.692 511.573 760.259 523.826C691.451 541.593 668.511 651.725 619.788 705.571C574.694 755.408 504.43 778.028 439.585 763.583C360.724 746.015 299.236 680.918 228.86 638.25C151.171 591.147 59.6189 571.187 -28.0007 582.208" stroke="#7DD5FF" stroke-opacity="0.2" stroke-width="2" stroke-miterlimit="10"/>
</g>
<g opacity="0.79">
<path d="M1816 1326.03C1581.52 1386.39 1249.8 1131 1110.38 1206.14C966.494 1283.7 786.812 1487.53 605.225 1460.54C423.637 1433.56 299.347 1281.02 -72 1536.19" stroke="#7DD5FF" stroke-opacity="0.2" stroke-width="2" stroke-miterlimit="10"/>
<path d="M1807.44 1328.07C1568.35 1395.74 1237.41 1140.32 1095.16 1208.69C948.631 1279.34 772.785 1473.58 593.355 1451.76C413.924 1429.94 284.57 1282 -69.0964 1525.01" stroke="#7DD5FF" stroke-opacity="0.2" stroke-width="2" stroke-miterlimit="10"/>
<path d="M1798.88 1330.1C1555.18 1405.06 1225.02 1149.63 1079.93 1211.2C930.777 1274.96 758.761 1459.58 581.484 1442.95C404.208 1426.31 269.788 1282.98 -66.1816 1513.84" stroke="#7DD5FF" stroke-opacity="0.2" stroke-width="2" stroke-miterlimit="10"/>
<path d="M1790.31 1332.13C1542 1414.4 1212.64 1158.94 1064.72 1213.74C912.935 1270.6 744.736 1445.61 569.628 1434.15C394.52 1422.69 255.009 1283.96 -63.2866 1502.66" stroke="#7DD5FF" stroke-opacity="0.2" stroke-width="2" stroke-miterlimit="10"/>
<path d="M1781.75 1334.17C1528.83 1423.74 1200.13 1167.9 1049.47 1216.26C894.95 1265.88 730.706 1431.64 557.744 1425.35C384.781 1419.07 240.232 1284.93 -60.3833 1491.51" stroke="#7DD5FF" stroke-opacity="0.2" stroke-width="2" stroke-miterlimit="10"/>
<path d="M1773.19 1336.2C1515.66 1433.07 1187.75 1177.14 1034.24 1218.8C877.093 1261.44 716.679 1417.66 545.873 1416.55C375.068 1415.44 225.453 1285.91 -57.4797 1480.32" stroke="#7DD5FF" stroke-opacity="0.2" stroke-width="2" stroke-miterlimit="10"/>
<path d="M1764.62 1338.23C1502.49 1442.41 1175.37 1186.4 1019.02 1221.32C859.245 1257.02 702.655 1403.69 534.003 1407.76C365.352 1411.83 210.673 1286.89 -54.5762 1469.15" stroke="#7DD5FF" stroke-opacity="0.2" stroke-width="2" stroke-miterlimit="10"/>
<path d="M1756.06 1340.26C1489.31 1451.75 1162.99 1195.66 1003.79 1223.86C841.405 1252.61 688.627 1389.72 522.133 1398.97C355.638 1408.21 195.885 1287.86 -51.6702 1457.98" stroke="#7DD5FF" stroke-opacity="0.2" stroke-width="2" stroke-miterlimit="10"/>
<path d="M1747.5 1342.3C1476.14 1461.09 1150.63 1204.94 988.559 1226.39C823.583 1248.22 674.6 1375.74 510.262 1390.17C345.925 1404.59 181.114 1288.84 -48.7751 1446.8" stroke="#7DD5FF" stroke-opacity="0.2" stroke-width="2" stroke-miterlimit="10"/>
<path d="M1738.93 1344.33C1462.96 1470.42 1138.26 1214.23 973.32 1228.92C805.726 1243.84 660.561 1361.77 498.381 1381.37C336.2 1400.97 166.323 1289.82 -45.8633 1435.63" stroke="#7DD5FF" stroke-opacity="0.2" stroke-width="2" stroke-miterlimit="10"/>
<path d="M1730.37 1346.36C1449.79 1479.76 1125.9 1223.54 958.102 1231.45C787.906 1239.48 646.549 1347.79 486.519 1372.58C326.49 1397.36 151.555 1290.81 -42.9597 1424.46" stroke="#7DD5FF" stroke-opacity="0.2" stroke-width="2" stroke-miterlimit="10"/>
<path d="M1721.81 1348.4C1436.62 1489.1 1113.53 1232.87 942.875 1233.99C770.075 1235.13 632.521 1333.83 474.649 1363.78C316.776 1393.74 136.776 1291.78 -40.0564 1413.28" stroke="#7DD5FF" stroke-opacity="0.2" stroke-width="2" stroke-miterlimit="10"/>
<path d="M1713.24 1350.43C1423.45 1498.43 1101.17 1242.19 927.646 1236.51C752.241 1230.77 618.494 1319.85 462.778 1354.98C307.063 1390.11 121.999 1292.75 -37.1499 1402.11" stroke="#7DD5FF" stroke-opacity="0.2" stroke-width="2" stroke-miterlimit="10"/>
<path d="M1704.67 1352.46C1410.26 1507.77 1088.79 1251.52 912.411 1239.04C734.396 1226.44 604.461 1305.88 450.9 1346.18C297.338 1386.49 107.22 1293.73 -34.2463 1390.94" stroke="#7DD5FF" stroke-opacity="0.2" stroke-width="2" stroke-miterlimit="10"/>
<path d="M1696.13 1354.49C1397.1 1517.11 1076.43 1260.88 897.198 1241.58C716.571 1222.12 590.448 1291.91 439.044 1337.39C287.639 1382.87 92.4402 1294.71 -31.343 1379.77" stroke="#7DD5FF" stroke-opacity="0.2" stroke-width="2" stroke-miterlimit="10"/>
<path d="M1687.56 1356.53C1383.92 1526.44 1064.05 1270.24 881.963 1244.1C698.72 1217.81 576.415 1277.93 427.168 1328.59C277.92 1379.25 77.6609 1295.69 -28.4395 1368.59" stroke="#7DD5FF" stroke-opacity="0.2" stroke-width="2" stroke-miterlimit="10"/>
<path d="M1678.99 1358.56C1370.75 1535.78 1051.67 1279.61 866.736 1246.63C680.869 1213.5 562.379 1263.95 415.297 1319.79C268.215 1375.63 62.8813 1296.67 -25.5361 1357.43" stroke="#7DD5FF" stroke-opacity="0.2" stroke-width="2" stroke-miterlimit="10"/>
<path d="M1670.43 1360.59C1357.57 1545.12 1039.21 1289.29 851.506 1249.16C662.946 1209.51 548.364 1249.98 403.427 1310.99C258.49 1372.01 48.1018 1297.65 -22.6299 1346.25" stroke="#7DD5FF" stroke-opacity="0.2" stroke-width="2" stroke-miterlimit="10"/>
<path d="M1661.87 1362.63C1344.4 1554.45 1026.83 1298.6 836.28 1251.71C645.09 1205.15 534.337 1236.02 391.557 1302.21C248.777 1368.39 33.3226 1298.62 -19.7375 1335.07" stroke="#7DD5FF" stroke-opacity="0.2" stroke-width="2" stroke-miterlimit="10"/>
<path d="M1653.31 1364.66C1331.23 1563.79 1014.44 1307.91 821.05 1254.22C627.236 1200.78 520.309 1222.03 379.689 1293.4C239.07 1364.77 18.546 1299.59 -16.8198 1323.91" stroke="#7DD5FF" stroke-opacity="0.2" stroke-width="2" stroke-miterlimit="10"/>
<path d="M1644.74 1366.69C1318.06 1573.13 1002.05 1317.22 805.823 1256.76C609.393 1196.42 506.282 1208.06 367.813 1284.6C229.345 1361.14 3.76372 1300.57 -13.9192 1312.73" stroke="#7DD5FF" stroke-opacity="0.2" stroke-width="2" stroke-miterlimit="10"/>
<path d="M1636.18 1368.73C1304.88 1582.46 989.667 1326.53 790.593 1259.29C591.52 1192.05 492.269 1194.09 355.943 1275.8C219.617 1357.52 -11.0159 1301.55 -11.0159 1301.55" stroke="#7DD5FF" stroke-opacity="0.2" stroke-width="2" stroke-miterlimit="10"/>
<path d="M1637.03 1363.69C1578.92 1398.38 1521.81 1422.71 1465.68 1436.66C1392.81 1454.44 1321.2 1454.44 1252.01 1443.2C1213.27 1436.85 1175.17 1427.07 1138.15 1413.99C1097.96 1399.84 1059.72 1382.34 1023.3 1364.24C984.145 1344.91 946.981 1324.67 911.219 1306.51C867.759 1284.44 826.332 1264.31 789.149 1252.89C710.04 1228.58 648.517 1218.55 592.511 1217.03C532.122 1215.38 478.615 1225.14 422.839 1247.25C401.128 1255.78 379.139 1266.12 356.211 1278.45C316.494 1299.66 269.398 1309.21 222.139 1313.15C107.596 1322.71 -7.65085 1295.39 -11.8223 1295.92" stroke="#7DD5FF" stroke-opacity="0.2" stroke-width="2" stroke-miterlimit="10"/>
<path d="M1637.89 1358.67C1578.9 1391.13 1521.3 1417.26 1464.89 1432.5C1392.13 1452.18 1320.07 1454.08 1250.03 1444.28C1210.77 1438.74 1171.94 1429.4 1134.83 1415.94C1094.43 1401.33 1056.63 1382.34 1020.78 1362.93C982.433 1342.17 946.092 1320.51 910.41 1301.38C867.502 1278.37 825.355 1256.93 787.704 1246.49C709.008 1224.68 649.529 1220.46 593.873 1221.51C534.262 1222.65 479.965 1233 423.677 1253.13C401.683 1260.99 379.512 1270.21 356.476 1281.11C316.537 1300 269.645 1306.88 222.475 1309.47C109.761 1315.66 -4.28877 1289.24 -12.6316 1290.29" stroke="#7DD5FF" stroke-opacity="0.2" stroke-width="2" stroke-miterlimit="10"/>
<path d="M1638.74 1353.63C1578.86 1383.85 1520.85 1411.59 1464.11 1428.33C1391.42 1449.77 1318.93 1453.71 1248.06 1445.35C1208.4 1440.6 1168.96 1431.84 1131.52 1417.89C1090.91 1402.82 1053.53 1382.38 1018.27 1361.61C980.697 1339.48 945.209 1316.35 909.604 1296.24C867.246 1272.3 824.395 1249.52 786.262 1240.09C708.011 1220.74 650.56 1222.34 595.241 1225.99C536.422 1229.87 481.268 1240.77 424.515 1259C402.227 1266.15 379.886 1274.25 356.744 1283.75C316.543 1300.27 269.908 1304.55 222.825 1305.78C111.95 1308.64 -0.932136 1283.07 -13.4407 1284.65" stroke="#7DD5FF" stroke-opacity="0.2" stroke-width="2" stroke-miterlimit="10"/>
<path d="M1639.59 1348.59C1578.83 1376.6 1520.39 1405.91 1463.32 1424.15C1390.71 1447.35 1317.79 1453.34 1246.09 1446.41C1206.03 1442.45 1165.96 1434.27 1128.21 1419.83C1087.38 1404.29 1050.42 1382.42 1015.76 1360.28C978.951 1336.78 944.317 1312.19 908.792 1291.09C866.981 1266.24 823.44 1242.1 784.815 1233.68C707.028 1216.74 651.6 1224.19 596.6 1230.46C538.588 1237.07 482.576 1248.53 425.355 1264.86C402.766 1271.31 380.242 1278.28 357.014 1286.4C316.554 1300.53 270.184 1302.24 223.15 1302.08C114.172 1301.7 2.44436 1276.92 -14.2441 1279.02" stroke="#7DD5FF" stroke-opacity="0.2" stroke-width="2" stroke-miterlimit="10"/>
<path d="M1640.44 1343.56C1578.8 1369.34 1519.94 1400.23 1462.54 1419.97C1390 1444.94 1316.65 1452.97 1244.11 1447.48C1203.65 1444.31 1162.97 1436.71 1124.89 1421.77C1083.86 1405.78 1047.32 1382.48 1013.24 1358.96C977.218 1334.11 943.431 1308.05 907.983 1285.94C866.713 1260.19 822.503 1234.65 783.37 1227.27C706.091 1212.7 652.652 1226.02 597.962 1234.93C540.767 1244.24 483.869 1256.27 426.187 1270.72C403.293 1276.45 380.598 1282.31 357.274 1289.03C316.528 1300.78 270.46 1299.94 223.481 1298.37C116.403 1294.79 5.79228 1270.75 -15.0591 1273.37" stroke="#7DD5FF" stroke-opacity="0.2" stroke-width="2" stroke-miterlimit="10"/>
<path d="M1641.3 1338.53C1578.77 1362.08 1519.48 1394.54 1461.75 1415.8C1389.28 1442.5 1315.52 1452.58 1242.14 1448.54C1201.3 1446.17 1159.98 1439.13 1121.58 1423.72C1080.33 1407.26 1044.21 1382.53 1010.74 1357.64C975.489 1331.44 942.539 1303.92 907.185 1280.79C866.439 1254.15 821.588 1227.19 781.937 1220.86C705.179 1208.62 653.717 1227.83 599.338 1239.4C542.955 1251.4 485.163 1264 427.036 1276.58C403.84 1281.6 380.949 1286.34 357.553 1291.7C316.522 1301.06 270.768 1297.68 223.828 1294.69C118.688 1287.98 9.18 1264.6 -15.8513 1267.76" stroke="#7DD5FF" stroke-opacity="0.2" stroke-width="2" stroke-miterlimit="10"/>
<path d="M1642.15 1333.49C1578.74 1354.82 1519.02 1388.84 1460.97 1411.63C1388.57 1440.06 1314.38 1452.23 1240.16 1449.62C1198.93 1448.03 1156.99 1441.59 1118.26 1425.67C1076.8 1408.74 1041.1 1382.61 1008.21 1356.32C973.734 1328.77 941.63 1299.79 906.364 1275.65C866.166 1248.13 820.657 1219.71 780.481 1214.46C704.262 1204.48 654.777 1229.62 600.689 1243.87C545.147 1258.52 486.431 1271.74 427.86 1282.44C404.356 1286.74 381.279 1290.36 357.807 1294.32C316.491 1301.28 271.053 1295.42 224.15 1290.97C120.928 1281.18 12.531 1258.42 -16.6746 1262.1" stroke="#7DD5FF" stroke-opacity="0.2" stroke-width="2" stroke-miterlimit="10"/>
<path d="M1643 1328.46C1578.71 1347.56 1518.56 1383.13 1460.18 1407.46C1387.85 1437.61 1313.25 1451.87 1238.19 1450.69C1196.57 1449.9 1154 1444.03 1114.95 1427.62C1073.27 1410.23 1037.99 1382.68 1005.7 1355.01C971.987 1326.12 940.733 1295.7 905.555 1270.52C865.884 1242.13 819.748 1212.22 779.045 1208.07C703.376 1200.34 655.849 1231.4 602.062 1248.37C547.355 1265.64 487.727 1279.47 428.703 1288.33C404.894 1291.9 381.627 1294.4 358.08 1296.98C316.463 1301.54 271.364 1293.22 224.495 1287.29C123.213 1274.49 15.9017 1252.27 -17.4753 1256.47" stroke="#7DD5FF" stroke-opacity="0.2" stroke-width="2" stroke-miterlimit="10"/>
<path d="M1643.86 1323.43C1578.67 1340.3 1518.1 1377.41 1459.4 1403.29C1387.13 1435.15 1312.11 1451.5 1236.21 1451.76C1194.2 1451.76 1151.02 1446.48 1111.63 1429.58C1069.75 1411.73 1034.87 1382.77 1003.18 1353.7C970.238 1323.47 939.818 1291.59 904.746 1265.39C865.596 1236.13 818.842 1204.71 777.592 1201.67C702.487 1196.13 656.9 1233.14 603.416 1252.85C549.521 1272.71 488.995 1287.19 429.533 1294.19C405.413 1297.04 381.949 1298.42 358.337 1299.63C316.423 1301.77 271.663 1291.03 224.82 1283.6C125.484 1267.85 19.2583 1246.12 -18.293 1250.84" stroke="#7DD5FF" stroke-opacity="0.2" stroke-width="2" stroke-miterlimit="10"/>
<path d="M1644.71 1318.39C1578.64 1333.04 1517.63 1371.69 1458.62 1399.12C1386.4 1432.68 1310.98 1451.13 1234.25 1452.83C1191.84 1453.62 1148.02 1448.91 1108.33 1431.52C1066.23 1413.21 1031.75 1382.84 1000.68 1352.37C968.48 1320.82 938.915 1287.48 903.945 1260.24C865.311 1230.13 817.947 1197.16 776.156 1195.26C701.617 1191.86 657.96 1234.84 604.789 1257.32C551.709 1279.75 490.28 1294.88 430.379 1300.05C405.949 1302.16 382.305 1302.43 358.613 1302.26C316.397 1301.98 271.976 1288.86 225.165 1279.9C127.769 1261.26 22.6289 1239.95 -19.0938 1245.2" stroke="#7DD5FF" stroke-opacity="0.2" stroke-width="2" stroke-miterlimit="10"/>
<path d="M1645.56 1313.36C1578.6 1325.78 1517.17 1365.96 1457.83 1394.94C1385.67 1430.2 1309.84 1450.77 1232.26 1453.91C1189.45 1455.49 1145.01 1451.36 1104.99 1433.48C1062.68 1414.71 1028.61 1382.94 998.141 1351.08C966.713 1318.2 937.975 1283.41 903.116 1255.12C864.992 1224.17 817.027 1189.62 774.689 1188.88C700.726 1187.58 658.983 1236.56 606.131 1261.82C553.854 1286.8 491.534 1302.59 431.182 1305.94C406.442 1307.31 382.61 1306.45 358.847 1304.93C316.335 1302.21 272.244 1286.74 225.47 1276.22C130.017 1254.76 25.96 1233.81 -19.9341 1239.59" stroke="#7DD5FF" stroke-opacity="0.2" stroke-width="2" stroke-miterlimit="10"/>
<path d="M1646.41 1308.33C1578.58 1318.52 1516.69 1360.22 1457.05 1390.77C1384.94 1427.71 1308.71 1450.4 1230.29 1454.96C1187.1 1457.34 1142.03 1453.79 1101.69 1435.42C1059.17 1416.18 1025.49 1383.02 995.639 1349.74C964.961 1315.52 937.06 1279.31 902.318 1249.94C864.707 1218.15 816.138 1181.99 773.244 1182.44C699.851 1183.2 660.012 1238.19 607.493 1266.27C556.011 1293.78 492.807 1310.25 432.031 1311.78C406.98 1312.41 382.96 1310.43 359.123 1307.55C316.312 1302.39 272.552 1284.61 225.817 1272.5C132.271 1248.27 29.3362 1227.62 -20.7292 1233.93" stroke="#7DD5FF" stroke-opacity="0.2" stroke-width="2" stroke-miterlimit="10"/>
<path d="M1647.27 1303.29C1578.55 1311.26 1516.21 1354.48 1456.26 1386.6C1384.2 1425.22 1307.57 1450.03 1228.32 1456.03C1184.72 1459.21 1139.04 1456.22 1098.39 1437.37C1055.65 1417.67 1022.37 1383.11 993.138 1348.41C963.22 1312.89 936.151 1275.22 901.523 1244.8C864.399 1212.19 815.249 1174.37 771.825 1176.04C698.996 1178.82 661.052 1239.85 608.883 1270.74C558.165 1300.77 494.11 1317.91 432.892 1317.64C407.533 1317.53 383.314 1314.42 359.416 1310.19C316.295 1302.58 272.845 1282.54 226.159 1268.81C134.513 1241.88 32.7069 1221.48 -21.53 1228.29" stroke="#7DD5FF" stroke-opacity="0.2" stroke-width="2" stroke-miterlimit="10"/>
<path d="M1648.12 1298.26C1578.52 1304 1515.73 1348.73 1455.48 1382.43C1383.45 1422.72 1306.43 1449.66 1226.34 1457.1C1182.36 1461.07 1136.05 1458.66 1095.06 1439.32C1052.11 1419.16 1019.22 1383.21 990.61 1347.1C961.419 1310.26 935.191 1271.16 900.697 1239.67C864.066 1206.23 814.325 1166.75 770.366 1169.65C698.096 1174.41 662.032 1241.5 610.234 1275.23C560.288 1307.75 495.375 1325.59 433.718 1323.52C408.052 1322.66 383.658 1318.42 359.67 1312.85C316.275 1302.76 273.119 1280.48 226.501 1265.11C136.727 1235.53 36.075 1215.31 -22.3362 1222.66" stroke="#7DD5FF" stroke-opacity="0.2" stroke-width="2" stroke-miterlimit="10"/>
<path d="M1648.97 1293.23C1578.49 1296.73 1515.25 1342.98 1454.69 1378.26C1382.7 1420.21 1305.3 1449.29 1224.37 1458.18C1180 1462.94 1133.06 1461.11 1091.74 1441.28C1048.59 1420.66 1016.08 1383.31 988.094 1345.79C959.644 1307.64 934.242 1267.09 899.888 1234.54C863.741 1200.28 813.411 1159.09 768.921 1163.25C697.201 1169.96 663.012 1243.13 611.596 1279.72C562.391 1314.73 496.654 1333.25 434.553 1329.39C408.576 1327.78 384.003 1322.42 359.932 1315.51C316.252 1302.96 273.372 1278.47 226.834 1261.43C138.91 1229.22 39.437 1209.14 -23.157 1217.02" stroke="#7DD5FF" stroke-opacity="0.2" stroke-width="2" stroke-miterlimit="10"/>
<path d="M1649.82 1288.19C1578.45 1289.47 1514.76 1337.22 1453.91 1374.09C1381.95 1417.7 1304.16 1448.92 1222.39 1459.24C1177.63 1464.79 1130.08 1463.54 1088.43 1443.22C1045.06 1422.13 1012.92 1383.4 985.57 1344.46C957.849 1304.99 933.282 1263.03 899.067 1229.39C863.396 1194.31 812.479 1151.39 767.465 1156.84C696.278 1165.46 663.958 1244.73 612.946 1284.18C564.468 1321.67 497.925 1340.89 435.377 1335.25C409.094 1332.88 384.339 1326.39 360.189 1318.14C316.229 1303.12 273.598 1276.47 227.156 1257.73C141.047 1222.97 42.805 1202.98 -23.9661 1211.39" stroke="#7DD5FF" stroke-opacity="0.2" stroke-width="2" stroke-miterlimit="10"/>
<path d="M1650.68 1283.16C1578.42 1282.21 1514.26 1331.45 1453.13 1369.92C1381.19 1415.18 1303.02 1448.56 1220.42 1460.3C1175.26 1466.65 1127.08 1465.98 1085.11 1445.16C1041.52 1423.61 1009.78 1383.49 983.065 1343.14C956.076 1302.36 932.333 1258.96 898.269 1224.23C863.069 1188.35 811.556 1143.66 766.032 1150.43C695.369 1160.92 664.91 1246.33 614.32 1288.65C566.554 1328.61 499.224 1348.53 436.237 1341.11C409.65 1337.98 384.715 1330.37 360.476 1320.78C316.246 1303.28 273.834 1274.5 227.515 1254.03C143.175 1216.75 46.1756 1196.82 -24.7498 1205.75" stroke="#7DD5FF" stroke-opacity="0.2" stroke-width="2" stroke-miterlimit="10"/>
<path d="M1651.53 1278.13C1578.39 1274.95 1513.76 1325.68 1452.34 1365.74C1380.42 1412.66 1301.9 1448.19 1218.45 1461.38C1172.89 1468.51 1124.08 1468.42 1081.8 1447.12C1038.01 1425.12 1006.62 1383.61 980.552 1341.83C954.284 1299.73 931.367 1254.92 897.46 1219.1C862.721 1182.41 810.613 1135.93 764.588 1144.03C694.414 1156.39 665.833 1247.94 615.685 1293.14C568.608 1335.57 500.515 1356.15 437.061 1346.98C410.172 1343.1 385.06 1334.36 360.733 1323.43C316.235 1303.44 274.028 1272.56 227.84 1250.34C145.238 1210.56 49.5296 1190.66 -25.5701 1200.13" stroke="#7DD5FF" stroke-opacity="0.2" stroke-width="2" stroke-miterlimit="10"/>
<path d="M1652.38 1273.09C1578.36 1267.69 1513.18 1319.8 1451.56 1361.57C1379.57 1409.99 1300.75 1447.82 1216.47 1462.46C1170.53 1470.39 1121.09 1470.87 1078.49 1449.08C1034.48 1426.6 1003.38 1383.75 978.036 1340.52C952.415 1297.16 930.393 1250.88 896.651 1213.97C862.368 1176.48 809.653 1128.18 763.143 1137.64C693.449 1151.82 666.736 1249.55 617.047 1297.63C570.643 1342.52 501.811 1363.8 437.898 1352.85C410.707 1348.2 385.422 1338.34 360.998 1326.08C316.241 1303.6 274.179 1270.65 228.174 1246.64C147.261 1204.41 52.8917 1184.5 -26.3794 1194.48" stroke="#7DD5FF" stroke-opacity="0.2" stroke-width="2" stroke-miterlimit="10"/>
<path d="M1653.24 1268.06C1578.33 1260.43 1512.71 1314.08 1450.77 1357.4C1378.83 1407.53 1299.62 1447.45 1214.5 1463.52C1168.16 1472.24 1118.1 1473.3 1075.17 1451.01C1030.95 1428.08 1000.25 1383.82 975.52 1339.19C950.651 1294.49 929.361 1246.88 895.839 1208.82C861.932 1170.58 808.678 1120.38 761.696 1131.23C692.457 1147.21 667.619 1251.13 618.409 1302.09C572.666 1349.46 503.122 1371.34 438.733 1358.72C411.249 1353.26 385.798 1342.29 361.26 1328.72C316.283 1303.71 274.313 1268.76 228.51 1242.95C149.242 1198.28 56.254 1178.34 -27.1885 1188.85" stroke="#7DD5FF" stroke-opacity="0.2" stroke-width="2" stroke-miterlimit="10"/>
<path d="M1654.09 1263.03C1578.29 1253.17 1512.23 1308.36 1449.99 1353.23C1378.09 1405.06 1298.48 1447.09 1212.52 1464.59C1165.8 1474.1 1115.11 1475.74 1071.86 1452.96C1027.43 1429.57 997.124 1383.9 973.007 1337.87C948.89 1291.84 928.424 1242.78 895.032 1203.68C861.641 1164.58 807.692 1112.57 760.259 1124.83C691.451 1142.59 668.511 1252.73 619.788 1306.57C574.694 1356.41 504.43 1379.03 439.585 1364.58C360.724 1347.02 299.236 1281.92 228.86 1239.25C151.171 1192.15 59.6189 1172.19 -28.0007 1183.21" stroke="#7DD5FF" stroke-opacity="0.2" stroke-width="2" stroke-miterlimit="10"/>
</g>
</svg>
