<svg width="31" height="30" viewBox="0 0 31 30" fill="none" xmlns="http://www.w3.org/2000/svg">
    <circle cx="15.282" cy="15" r="15" fill="#6BCAFF" />
    <path
        d="M14.8997 14.2056C13.8959 14.2056 12.9146 13.9064 12.0799 13.3457C11.2453 12.7849 10.5947 11.988 10.2106 11.0556C9.82642 10.1232 9.72591 9.09716 9.92174 8.10731C10.1176 7.11746 10.601 6.20822 11.3108 5.49458C12.0206 4.78094 12.925 4.29494 13.9095 4.09805C14.8941 3.90116 15.9146 4.00221 16.842 4.38843C17.7694 4.77465 18.5621 5.4287 19.1198 6.26785C19.6775 7.10701 19.9752 8.09358 19.9752 9.10282C19.9733 10.4556 19.438 11.7524 18.4866 12.709C17.5351 13.6655 16.2453 14.2038 14.8997 14.2056ZM14.8997 5.4214C14.1755 5.4214 13.4675 5.63731 12.8654 6.04183C12.2632 6.44635 11.7939 7.02131 11.5167 7.694C11.2396 8.36669 11.1671 9.1069 11.3084 9.82103C11.4497 10.5352 11.7984 11.1911 12.3105 11.706C12.8226 12.2208 13.475 12.5715 14.1853 12.7135C14.8956 12.8555 15.6319 12.7826 16.301 12.504C16.9701 12.2254 17.542 11.7535 17.9443 11.1481C18.3467 10.5427 18.5614 9.83093 18.5614 9.10282C18.5596 8.12702 18.1732 7.19173 17.4869 6.50173C16.8006 5.81174 15.8703 5.42328 14.8997 5.4214Z"
        fill="white" />
    <path
        d="M21.5022 25.6122H8.33276C7.71407 25.6122 7.12073 25.3651 6.68326 24.9253C6.24578 24.4854 6.00001 23.8889 6.00001 23.2669V18.0432C5.99827 16.9817 6.32542 15.9459 6.93602 15.0798C7.54662 14.2138 8.41036 13.5604 9.40724 13.2105C9.73308 13.097 10.0835 13.0748 10.4209 13.1462C10.7583 13.2175 11.0702 13.3798 11.3229 13.6156C12.3178 14.5087 13.6049 15.0023 14.9387 15.0023C16.2724 15.0023 17.5595 14.5087 18.5544 13.6156C18.8072 13.3798 19.119 13.2175 19.4564 13.1462C19.7939 13.0748 20.1443 13.097 20.4701 13.2105C21.4651 13.5625 22.3267 14.2166 22.9358 15.0824C23.545 15.9481 23.8715 16.9828 23.8703 18.0432V23.2669C23.8703 23.5779 23.8088 23.8858 23.6894 24.1727C23.57 24.4596 23.395 24.7197 23.1746 24.9379C22.9542 25.1562 22.6928 25.3282 22.4057 25.444C22.1186 25.5597 21.8115 25.6169 21.5022 25.6122ZM9.97982 14.5253C9.93298 14.5178 9.88528 14.5178 9.83844 14.5253C9.11861 14.7801 8.49526 15.2533 8.05458 15.8797C7.61389 16.5061 7.37762 17.2547 7.37845 18.0219V23.2456C7.37845 23.4906 7.47527 23.7256 7.64761 23.8989C7.81995 24.0721 8.05369 24.1695 8.29741 24.1695H21.5022C21.7459 24.1695 21.9796 24.0721 22.152 23.8989C22.3243 23.7256 22.4211 23.4906 22.4211 23.2456V18.0219C22.422 17.2565 22.1866 16.5097 21.7472 15.8846C21.3078 15.2595 20.6862 14.787 19.9682 14.5324C19.8805 14.5036 19.7866 14.4996 19.6969 14.5209C19.6071 14.5422 19.5248 14.588 19.4592 14.6532C18.2061 15.7795 16.5842 16.4022 14.9033 16.4022C13.2225 16.4022 11.6005 15.7795 10.3474 14.6532C10.2447 14.5665 10.1138 14.521 9.97982 14.5253Z"
        fill="white" />
</svg>
    