<svg width="15" height="17" viewBox="0 0 15 17" fill="none" xmlns="http://www.w3.org/2000/svg">
    <path d="M9.805 16.626H4.02471C3.12294 16.6246 2.25859 16.2607 1.62145 15.6142C0.984314 14.9677 0.626464 14.0915 0.626465 13.1779V5.13596C0.62791 4.22338 0.986396 3.34858 1.62338 2.70328C2.26036 2.05799 3.12388 1.69482 4.02471 1.69336H9.805C10.7058 1.69482 11.5693 2.05799 12.2063 2.70328C12.8433 3.34858 13.2018 4.22338 13.2032 5.13596V13.1779C13.2032 14.0915 12.8454 14.9677 12.2082 15.6142C11.5711 16.2607 10.7068 16.6246 9.805 16.626ZM4.02471 2.78923C3.41368 2.79069 2.82809 3.03724 2.39602 3.47494C1.96396 3.91265 1.72059 4.50588 1.71915 5.12489V13.1668C1.71915 13.7868 1.96188 14.3815 2.3941 14.8204C2.82632 15.2593 3.41273 15.5066 4.02471 15.508H9.805C10.417 15.5066 11.0034 15.2593 11.4356 14.8204C11.8678 14.3815 12.1106 13.7868 12.1105 13.1668V5.13596C12.1091 4.51695 11.8657 3.92372 11.4337 3.48601C11.0016 3.04831 10.416 2.80177 9.805 2.8003L4.02471 2.78923Z" fill="white"/>
    <path d="M11.5478 0H4.44536C4.30046 0 4.1615 0.0583117 4.05904 0.162108C3.95658 0.265904 3.89902 0.406683 3.89902 0.553473C3.89902 0.700263 3.95658 0.841041 4.05904 0.944837C4.1615 1.04863 4.30046 1.10695 4.44536 1.10695H11.5478C12.1603 1.10841 12.7473 1.35553 13.1803 1.79428C13.6134 2.23302 13.8574 2.82766 13.8588 3.44813V13.0177C13.8588 13.1645 13.9164 13.3052 14.0188 13.409C14.1213 13.5128 14.2603 13.5711 14.4052 13.5711C14.5501 13.5711 14.689 13.5128 14.7915 13.409C14.8939 13.3052 14.9515 13.1645 14.9515 13.0177V3.4426C14.9501 2.52906 14.5908 1.65343 13.9526 1.00797C13.3145 0.36252 12.4496 -1.17685e-06 11.5478 0Z" fill="white"/>
    </svg>
    