<svg width="15" height="14" viewBox="0 0 15 14" fill="none" xmlns="http://www.w3.org/2000/svg">
    <g clip-path="url(#clip0_46_5169)">
    <path d="M11.241 0.571698H12.572C13.0251 0.573032 13.4593 0.761105 13.7797 1.09482C14.1001 1.42853 14.2807 1.88075 14.282 2.35269V8.30787C14.2807 8.77981 14.1001 9.23204 13.7797 9.56575C13.4593 9.89946 13.0251 10.0875 12.572 10.0889H11.241C10.7879 10.0875 10.3537 9.89946 10.0333 9.56575C9.71293 9.23204 9.53237 8.77981 9.53109 8.30787V2.35269C9.53237 1.88075 9.71293 1.42853 10.0333 1.09482C10.3537 0.761105 10.7879 0.573032 11.241 0.571698ZM12.572 9.07694C12.7679 9.07694 12.9557 8.99591 13.0941 8.85169C13.2326 8.70746 13.3104 8.51184 13.3104 8.30787V2.35269C13.3104 2.14872 13.2326 1.9531 13.0941 1.80888C12.9557 1.66465 12.7679 1.58362 12.572 1.58362H11.241C11.0452 1.58362 10.8574 1.66465 10.7189 1.80888C10.5804 1.9531 10.5026 2.14872 10.5026 2.35269V8.30787C10.5026 8.51184 10.5804 8.70746 10.7189 8.85169C10.8574 8.99591 11.0452 9.07694 11.241 9.07694H12.572Z" fill="#231F20"/>
    <path d="M4.26529 -0.000231743C6.20839 -0.000231743 8.851 1.06735 8.98215 1.12301C9.10086 1.17259 9.196 1.26894 9.24693 1.39113C9.29786 1.51333 9.30047 1.65152 9.25419 1.7757C9.20752 1.90026 9.11541 2.00051 8.99799 2.05455C8.88057 2.10859 8.74738 2.11202 8.62754 2.0641C7.68514 1.67957 4.95023 0.753654 3.62893 1.05217C1.87043 1.47718 1.23892 4.62427 1.2535 6.51152C1.23739 6.67068 1.25325 6.8316 1.30009 6.98404C1.34692 7.13647 1.42369 7.27709 1.52553 7.39695C2.0113 7.90291 3.20145 7.86749 4.59076 7.85231H5.42143C5.50271 7.85246 5.58266 7.87384 5.65395 7.9145C5.72524 7.95516 5.78559 8.01381 5.82948 8.08506C5.8774 8.15882 5.90578 8.24444 5.91175 8.33328C5.91772 8.42212 5.90107 8.51103 5.86349 8.59102C5.37771 9.67379 4.78021 11.7229 5.12511 12.6387C5.14902 12.7152 5.18885 12.7852 5.24176 12.8438C5.29466 12.9024 5.35933 12.9482 5.43115 12.9777C6.26668 13.3268 7.18965 11.5509 7.93288 10.1241C8.08833 9.83063 8.23892 9.54223 8.38951 9.26901C8.45359 9.15328 8.55902 9.06865 8.68279 9.03358C8.80656 8.9985 8.93862 9.01584 9.05016 9.08181C9.16128 9.14855 9.24253 9.25836 9.2762 9.38727C9.30988 9.51619 9.29323 9.65374 9.2299 9.76992C9.08417 10.0381 8.93844 10.3214 8.78785 10.6098C7.8163 12.4819 6.70873 14.6019 5.07168 13.9188C4.87838 13.8382 4.70336 13.7165 4.55781 13.5614C4.41227 13.4063 4.2994 13.2213 4.22643 13.0182C3.77466 11.8494 4.32358 9.98242 4.7122 8.90978H4.61505C2.94399 8.90978 1.62268 8.94014 0.860018 8.16601C0.668877 7.95618 0.520769 7.70799 0.424726 7.43659C0.328681 7.16519 0.286712 6.87625 0.301378 6.58741C0.301378 4.61921 0.923169 0.733417 3.42976 0.13132C3.70285 0.0559683 3.98302 0.0118561 4.26529 -0.000231743Z" fill="#231F20"/>
    </g>
    <defs>
    <clipPath id="clip0_46_5169">
    <rect width="14" height="14" fill="white" transform="matrix(-1 0 0 -1 14.282 14)"/>
    </clipPath>
    </defs>
    </svg>
    