<svg width="15" height="18" viewBox="0 0 15 18" fill="none" xmlns="http://www.w3.org/2000/svg">
    <path d="M11.1545 17.54H4.15204C3.21454 17.5368 2.31644 17.158 1.65409 16.4866C0.991744 15.8152 0.619031 14.9057 0.617432 13.957V3.58913C0.61743 2.6383 0.990269 1.72633 1.6541 1.05341C2.31793 0.380499 3.21851 0.00163705 4.15811 8.91868e-06H8.88307C8.97532 -0.000493939 9.06647 0.0202737 9.1496 0.0607388C9.23273 0.101204 9.30566 0.160306 9.36285 0.233551L14.5251 5.47589C14.5814 5.53331 14.6259 5.60142 14.6561 5.6763C14.6863 5.75118 14.7017 5.83136 14.7012 5.91224V13.957C14.6996 14.9079 14.3252 15.8192 13.6602 16.491C12.9953 17.1627 12.0941 17.54 11.1545 17.54ZM4.15204 1.22916C3.53458 1.23079 2.94296 1.48015 2.50691 1.92256C2.07087 2.36496 1.826 2.96429 1.826 3.58913V13.957C1.82761 14.5808 2.07318 15.1786 2.50905 15.6197C2.94492 16.0607 3.53563 16.3092 4.15204 16.3109H11.1545C11.7709 16.3092 12.3616 16.0607 12.7974 15.6197C13.2333 15.1786 13.4789 14.5808 13.4805 13.957V6.16421L8.62192 1.2476L4.15204 1.22916Z" fill="#2C75E3"/>
    <path d="M14.0879 6.52692H11.7497C10.8273 6.52529 9.94308 6.15376 9.29081 5.49369C8.63854 4.83363 8.27139 3.93886 8.26979 3.00539V0.620839C8.26908 0.498769 8.30432 0.379246 8.371 0.277522C8.43768 0.175798 8.5328 0.0964732 8.64421 0.0496629C8.75562 0.00285257 8.87827 -0.00931783 8.99655 0.0146935C9.11482 0.0387047 9.22335 0.0978127 9.3083 0.184486L14.5191 5.47599C14.6048 5.56195 14.6632 5.67178 14.6869 5.79146C14.7106 5.91115 14.6986 6.03527 14.6523 6.14801C14.6061 6.26075 14.5277 6.357 14.4272 6.42449C14.3267 6.49197 14.2085 6.52763 14.0879 6.52692ZM9.48443 2.09582V2.9931C9.48603 3.60058 9.72521 4.1827 10.1497 4.61226C10.5742 5.04181 11.1494 5.28385 11.7497 5.28547H12.6243L9.48443 2.09582Z" fill="#2C75E3"/>
    <path d="M7.65029 12.6604C7.48922 12.6604 7.33474 12.5956 7.22085 12.4804C7.10695 12.3651 7.04297 12.2088 7.04297 12.0458V5.78328C7.04297 5.62028 7.10695 5.46396 7.22085 5.34871C7.33474 5.23345 7.48922 5.1687 7.65029 5.1687C7.81136 5.1687 7.96584 5.23345 8.07973 5.34871C8.19363 5.46396 8.25761 5.62028 8.25761 5.78328V12.0458C8.25761 12.2088 8.19363 12.3651 8.07973 12.4804C7.96584 12.5956 7.81136 12.6604 7.65029 12.6604Z" fill="#2C75E3"/>
    <path d="M7.65026 13.2998C7.56948 13.2986 7.48973 13.2812 7.41569 13.2485C7.34165 13.2157 7.2748 13.1684 7.21906 13.1092L5.25135 11.0688C5.1386 10.9523 5.07621 10.7952 5.07792 10.6321C5.07962 10.469 5.14529 10.3133 5.26046 10.1992C5.37562 10.0851 5.53086 10.022 5.69202 10.0237C5.85318 10.0254 6.00706 10.0919 6.11981 10.2084L8.08753 12.255C8.17147 12.3416 8.22817 12.4515 8.25051 12.5707C8.27285 12.6899 8.25983 12.8131 8.21306 12.9249C8.1663 13.0366 8.0879 13.1318 7.98775 13.1985C7.88759 13.2652 7.77016 13.3005 7.65026 13.2998Z" fill="#2C75E3"/>
    <path d="M7.65022 13.2998C7.53084 13.2993 7.41424 13.2632 7.31502 13.196C7.21579 13.1288 7.13833 13.0335 7.09232 12.922C7.04631 12.8105 7.03379 12.6878 7.05633 12.5692C7.07886 12.4505 7.13545 12.3412 7.21902 12.255L9.18674 10.2084C9.24257 10.1507 9.30909 10.1047 9.38249 10.073C9.45589 10.0413 9.53473 10.0246 9.61453 10.0237C9.69433 10.0229 9.77351 10.0379 9.84756 10.068C9.92161 10.0981 9.98907 10.1427 10.0461 10.1992C10.1031 10.2557 10.1486 10.323 10.1799 10.3973C10.2112 10.4716 10.2278 10.5514 10.2286 10.6321C10.2295 10.7129 10.2146 10.793 10.1848 10.8679C10.1551 10.9429 10.111 11.0111 10.0552 11.0688L8.08749 13.1092C8.03104 13.1692 7.96322 13.2169 7.88808 13.2497C7.81294 13.2824 7.73203 13.2994 7.65022 13.2998Z" fill="#2C75E3"/>
    </svg>
    