<svg width="15" height="19" viewBox="0 0 15 19" fill="none" xmlns="http://www.w3.org/2000/svg">
    <path d="M11.2384 18.7146H4.15733C3.2093 18.7114 2.30111 18.3284 1.63132 17.6494C0.961526 16.9705 0.584626 16.0508 0.583008 15.0914V4.607C0.583006 3.64548 0.960034 2.72327 1.63133 2.04279C2.30262 1.36231 3.21331 0.979195 4.16347 0.977548H8.94152C9.0348 0.97704 9.12697 0.998041 9.21104 1.03896C9.29511 1.07988 9.36885 1.13965 9.42669 1.21371L14.6469 6.51495C14.7038 6.57302 14.7489 6.64189 14.7794 6.71761C14.81 6.79333 14.8255 6.87442 14.825 6.95621V15.0914C14.8234 16.0529 14.4448 16.9745 13.7724 17.6538C13.0999 18.3331 12.1886 18.7146 11.2384 18.7146ZM4.15733 2.22051C3.53294 2.22216 2.93466 2.47432 2.49372 2.9217C2.05278 3.36907 1.80516 3.97514 1.80516 4.607V15.0914C1.80678 15.7222 2.05512 16.3267 2.49588 16.7727C2.93665 17.2187 3.534 17.47 4.15733 17.4717H11.2384C11.8618 17.47 12.4591 17.2187 12.8999 16.7727C13.3406 16.3267 13.589 15.7222 13.5906 15.0914V7.21101L8.67743 2.23916L4.15733 2.22051Z" fill="white"/>
    <path d="M14.2048 7.57752H11.8403C10.9075 7.57588 10.0134 7.20016 9.3538 6.53269C8.6942 5.86521 8.32292 4.96038 8.3213 4.01642V1.60508C8.32059 1.48164 8.35622 1.36077 8.42365 1.2579C8.49108 1.15504 8.58727 1.07482 8.69993 1.02749C8.81259 0.980149 8.93663 0.967842 9.05623 0.992123C9.17583 1.0164 9.28558 1.07618 9.37148 1.16382L14.6408 6.51478C14.7275 6.60171 14.7865 6.71277 14.8105 6.8338C14.8345 6.95483 14.8224 7.08035 14.7756 7.19436C14.7288 7.30836 14.6495 7.4057 14.5479 7.47394C14.4462 7.54218 14.3268 7.57824 14.2048 7.57752ZM9.54959 3.09663V4.004C9.55121 4.6183 9.79307 5.20697 10.2223 5.64134C10.6516 6.07572 11.2333 6.32048 11.8403 6.32212H12.7247L9.54959 3.09663Z" fill="white"/>
    <path d="M7.69471 13.7805C7.53183 13.7805 7.37562 13.715 7.26044 13.5984C7.14527 13.4819 7.08057 13.3238 7.08057 13.159V6.82607C7.08057 6.66124 7.14527 6.50317 7.26044 6.38662C7.37562 6.27007 7.53183 6.20459 7.69471 6.20459C7.85759 6.20459 8.0138 6.27007 8.12898 6.38662C8.24415 6.50317 8.30886 6.66124 8.30886 6.82607V13.159C8.30886 13.3238 8.24415 13.4819 8.12898 13.5984C8.0138 13.715 7.85759 13.7805 7.69471 13.7805Z" fill="white"/>
    <path d="M7.69455 14.4264C7.61286 14.4253 7.53221 14.4076 7.45734 14.3745C7.38246 14.3415 7.31486 14.2936 7.2585 14.2338L5.26868 12.1704C5.15466 12.0526 5.09157 11.8937 5.0933 11.7288C5.09502 11.5639 5.16143 11.4064 5.27789 11.291C5.39435 11.1756 5.55133 11.1118 5.7143 11.1136C5.87727 11.1153 6.03288 11.1825 6.1469 11.3003L8.13673 13.3699C8.22161 13.4575 8.27895 13.5686 8.30154 13.6891C8.32413 13.8097 8.31096 13.9343 8.26367 14.0473C8.21638 14.1603 8.1371 14.2566 8.03582 14.324C7.93454 14.3915 7.8158 14.4271 7.69455 14.4264Z" fill="white"/>
    <path d="M7.6951 14.4264C7.57438 14.4259 7.45647 14.3894 7.35613 14.3215C7.25579 14.2535 7.17746 14.1572 7.13093 14.0444C7.08441 13.9317 7.07175 13.8076 7.09454 13.6876C7.11732 13.5676 7.17455 13.4571 7.25906 13.3699L9.24889 11.3003C9.30534 11.242 9.37261 11.1955 9.44683 11.1634C9.52106 11.1314 9.60079 11.1144 9.68149 11.1136C9.76218 11.1127 9.84225 11.1279 9.91713 11.1584C9.99201 11.1888 10.0602 11.2339 10.1179 11.291C10.1756 11.3482 10.2215 11.4162 10.2532 11.4913C10.2849 11.5664 10.3016 11.6471 10.3025 11.7288C10.3033 11.8105 10.2883 11.8915 10.2582 11.9673C10.2281 12.043 10.1836 12.1121 10.1271 12.1704L8.13729 14.2338C8.08021 14.2943 8.01162 14.3426 7.93563 14.3758C7.85965 14.4089 7.77783 14.4261 7.6951 14.4264Z" fill="white"/>
    </svg>
    