<svg width="12" height="14" viewBox="0 0 12 14" fill="none" xmlns="http://www.w3.org/2000/svg">
    <path d="M10.0678 5.7799V10.355C10.0702 10.6109 10.0248 10.8647 9.93425 11.1017C9.8437 11.3386 9.70982 11.5538 9.54045 11.7348C9.37108 11.9157 9.16962 12.0588 8.94787 12.1555C8.72612 12.2523 8.48853 12.3008 8.24902 12.2982H3.04841C2.56947 12.2921 2.11201 12.0848 1.77501 11.7212C1.43801 11.3575 1.24856 10.8668 1.24765 10.355V4.79869C1.24856 4.28695 1.43801 3.79617 1.77501 3.43252C2.11201 3.06886 2.56947 2.86158 3.04841 2.85551H7.2694C7.36492 2.85551 7.45653 2.81497 7.52407 2.74281C7.59161 2.67065 7.62956 2.57278 7.62956 2.47072C7.62956 2.36867 7.59161 2.2708 7.52407 2.19864C7.45653 2.12648 7.36492 2.08594 7.2694 2.08594H3.04841C2.37872 2.09302 1.7386 2.38171 1.26672 2.88947C0.794846 3.39722 0.529206 4.08316 0.527344 4.79869V10.355C0.528269 11.0709 0.793606 11.7574 1.26569 12.2653C1.73776 12.7733 2.37843 13.0617 3.04841 13.0678H8.24902C8.58245 13.0678 8.91263 12.9976 9.22068 12.8613C9.52874 12.7249 9.80864 12.5251 10.0444 12.2732C10.2802 12.0213 10.4672 11.7223 10.5948 11.3931C10.7224 11.064 10.7881 10.7113 10.7881 10.355V5.7799C10.7881 5.67784 10.7502 5.57997 10.6826 5.50781C10.6151 5.43565 10.5235 5.39511 10.4279 5.39511C10.3324 5.39511 10.2408 5.43565 10.1733 5.50781C10.1057 5.57997 10.0678 5.67784 10.0678 5.7799Z" fill="#24AA69"/>
    <path d="M11.404 1.29303C11.1693 1.0542 10.8555 0.924539 10.5314 0.932473C10.2074 0.940407 9.8995 1.08529 9.67526 1.33536L9.24308 1.8202L3.78677 7.93831C3.76213 7.96916 3.74264 8.0043 3.72914 8.0422V8.06529L3.25014 9.66215C3.21822 9.76832 3.21479 9.88193 3.24026 9.99008C3.26572 10.0982 3.31905 10.1966 3.3942 10.274C3.49173 10.3725 3.62012 10.4288 3.75435 10.4317C3.82286 10.4315 3.89092 10.4198 3.95604 10.3971L5.39665 9.83916H5.42186C5.45402 9.82094 5.48422 9.79901 5.5119 9.77374L10.9394 3.68256L11.3968 3.16695C11.5148 3.04585 11.6088 2.90065 11.6732 2.73997C11.7377 2.5793 11.7712 2.40642 11.7719 2.23162C11.7725 2.05682 11.7403 1.88366 11.6771 1.72243C11.6139 1.56119 11.5211 1.41517 11.404 1.29303ZM10.907 1.84713C11.002 1.94947 11.0553 2.08777 11.0553 2.23192C11.0553 2.37606 11.002 2.51436 10.907 2.6167L10.7233 2.82064L10.003 2.08185L10.1867 1.87407C10.2319 1.82108 10.2866 1.77828 10.3476 1.74818C10.4085 1.71808 10.4744 1.70127 10.5415 1.69876C10.6086 1.69626 10.6755 1.70809 10.7383 1.73356C10.801 1.75904 10.8584 1.79765 10.907 1.84713ZM5.285 8.93491L4.92485 8.55012L4.5647 8.16533L9.49879 2.62825L10.2191 3.36704L5.285 8.93491ZM4.04247 9.55057L4.22255 8.91566L4.62592 9.32739L4.04247 9.55057Z" fill="#24AA69"/>
    </svg>
    