<svg width="34" height="28" viewBox="0 0 34 28" fill="none" xmlns="http://www.w3.org/2000/svg">
<g clip-path="url(#clip0_1383_2119)">
<path d="M15.4824 23.8978H8.10775V2.03504H21.3971V11.8025C21.3971 12.0723 21.5057 12.3311 21.6991 12.5219C21.8925 12.7127 22.1548 12.8199 22.4283 12.8199C22.7018 12.8199 22.9641 12.7127 23.1574 12.5219C23.3508 12.3311 23.4594 12.0723 23.4594 11.8025V6.38967H26.7591V7.33388C26.7591 7.60372 26.8677 7.86249 27.0611 8.05329C27.2545 8.2441 27.5168 8.35132 27.7902 8.35132C28.0637 8.35132 28.326 8.2441 28.5194 8.05329C28.7128 7.86249 28.8214 7.60372 28.8214 7.33388V4.07807C28.8214 2.9987 28.3868 1.9635 27.6133 1.20027C26.8398 0.437038 25.7907 0.00830078 24.6968 0.00830078H4.79157C3.69766 0.00830078 2.64857 0.437038 1.87506 1.20027C1.10155 1.9635 0.666992 2.9987 0.666992 4.07807V21.8548C0.666992 22.9342 1.10155 23.9693 1.87506 24.7325C2.64857 25.4958 3.69766 25.9246 4.79157 25.9246H15.4742C15.7477 25.9246 16.01 25.8174 16.2033 25.6266C16.3967 25.4358 16.5053 25.177 16.5053 24.9071C16.5053 24.6373 16.3967 24.3785 16.2033 24.1877C16.01 23.9969 15.7477 23.8897 15.4742 23.8897L15.4824 23.8978ZM26.7756 4.36293H23.4759V2.01059H24.7216C25.2707 2.01059 25.7973 2.22585 26.1856 2.60899C26.5739 2.99213 26.7921 3.51178 26.7921 4.05363L26.7756 4.36293ZM2.72928 21.5211H6.02895V23.8734H4.78331C4.23417 23.8734 3.70757 23.6582 3.31927 23.275C2.93097 22.8919 2.71277 22.3722 2.71277 21.8304L2.72928 21.5211ZM2.72928 9.40945V6.40596H6.02895V9.40945H2.72928ZM6.02895 11.4443V14.4478H2.72928V11.4443H6.02895ZM6.02895 16.4827V19.4862H2.72928V16.4827H6.02895ZM2.72928 4.37108V4.05363C2.73145 3.51244 2.95027 2.99405 3.3381 2.61137C3.72593 2.22869 4.25136 2.01274 4.79983 2.01059H6.04546V4.37108H2.72928Z" fill="url(#paint0_linear_1383_2119)"/>
<path d="M27.7081 21.6753C27.4748 21.6827 27.2506 21.7668 27.0713 21.9143C26.892 22.0618 26.7676 22.2641 26.7181 22.4892C26.622 22.7956 26.4549 23.0757 26.2302 23.3074C26.0054 23.5391 25.7291 23.716 25.4231 23.8241C25.1905 23.8978 24.9919 24.0505 24.8628 24.2551C24.7337 24.4597 24.6824 24.7029 24.7181 24.9414C24.7537 25.1798 24.874 25.398 25.0575 25.5571C25.241 25.7162 25.4758 25.8059 25.72 25.8101C25.832 25.8122 25.9436 25.7957 26.05 25.7613C26.6905 25.5494 27.2685 25.1854 27.7331 24.7014C28.1977 24.2175 28.5347 23.6283 28.7145 22.9857C28.7578 22.8379 28.7655 22.6822 28.7368 22.5309C28.7082 22.3797 28.6441 22.2372 28.5495 22.1148C28.4554 21.9802 28.3298 21.87 28.1833 21.7935C28.0368 21.717 27.8738 21.6764 27.7081 21.6753Z" fill="url(#paint1_linear_1383_2119)"/>
<path d="M32.0719 8.94547C31.38 8.42632 30.5084 8.19752 29.6466 8.30877C28.7847 8.42003 28.0021 8.86234 27.4689 9.53964L17.4874 22.4571C17.2859 22.7265 17.1606 23.0439 17.1244 23.3768L16.8439 25.9815C16.808 26.2895 16.8538 26.6015 16.9767 26.8869C17.0996 27.1722 17.2954 27.4212 17.5451 27.6094C17.8728 27.8616 18.2762 27.999 18.6918 28.0001H18.9393C19.0706 27.9762 19.2001 27.9436 19.327 27.9024L21.9172 26.9583C22.2444 26.8346 22.5301 26.6231 22.7421 26.3478L32.6411 13.4629C33.1632 12.7858 33.396 11.934 33.2896 11.0897C33.1832 10.2454 32.7461 9.47578 32.0719 8.94547ZM30.8098 10.5734C31.0505 10.7654 31.2076 11.041 31.249 11.3437C31.2904 11.6463 31.2129 11.9531 31.0325 12.2013L21.1335 25.0454L18.9145 25.8594L19.1538 23.6373L29.1104 10.7687C29.2093 10.6414 29.3335 10.5353 29.4754 10.457C29.6172 10.3786 29.7737 10.3296 29.9354 10.3129C30.0902 10.2941 30.2474 10.306 30.3976 10.3479C30.5477 10.3899 30.6879 10.461 30.8098 10.5571V10.5734Z" fill="url(#paint2_linear_1383_2119)"/>
<path d="M13.1728 7.81447C12.8408 7.6175 12.4614 7.51152 12.074 7.50745C11.6866 7.50338 11.305 7.60137 10.9688 7.79132C10.6325 7.98126 10.3538 8.25626 10.1612 8.58798C9.96856 8.9197 9.86915 9.29612 9.87316 9.6784V16.1249C9.87093 16.503 9.97053 16.8748 10.1619 17.2024C10.3532 17.5299 10.6294 17.8013 10.962 17.9889C11.2919 18.1807 11.668 18.2819 12.051 18.2819C12.4339 18.2819 12.8099 18.1807 13.1398 17.9889L18.7987 14.7331C19.1291 14.5432 19.4033 14.2712 19.5938 13.9441C19.7844 13.617 19.8846 13.2464 19.8846 12.8691C19.8846 12.4919 19.7844 12.1212 19.5938 11.7941C19.4033 11.467 19.1291 11.195 18.7987 11.0052L13.1728 7.81447ZM17.8583 12.9017C17.8601 12.9219 17.8555 12.9421 17.8452 12.9596C17.8349 12.9771 17.8193 12.991 17.8006 12.9993L12.1417 16.2552C12.1263 16.2701 12.1055 16.2785 12.0839 16.2785C12.0623 16.2785 12.0416 16.2701 12.0262 16.2552C12.0082 16.2459 11.9932 16.2319 11.983 16.2146C11.9728 16.1973 11.9677 16.1775 11.9684 16.1575V9.71099C11.9671 9.6898 11.9718 9.66863 11.982 9.64994C11.9922 9.63124 12.0075 9.61575 12.0262 9.60517H12.0839H12.1417L17.8006 12.861C17.8237 12.8682 17.8439 12.8825 17.8583 12.9017Z" fill="url(#paint3_linear_1383_2119)"/>
</g>
<defs>
<linearGradient id="paint0_linear_1383_2119" x1="14.7442" y1="0.00830078" x2="14.7442" y2="25.9246" gradientUnits="userSpaceOnUse">
<stop stop-color="#23A568"/>
<stop offset="1" stop-color="#006642"/>
</linearGradient>
<linearGradient id="paint1_linear_1383_2119" x1="26.7304" y1="21.6753" x2="26.7304" y2="25.8103" gradientUnits="userSpaceOnUse">
<stop stop-color="#23A568"/>
<stop offset="1" stop-color="#006642"/>
</linearGradient>
<linearGradient id="paint2_linear_1383_2119" x1="25.0734" y1="8.28125" x2="25.0734" y2="28.0001" gradientUnits="userSpaceOnUse">
<stop stop-color="#23A568"/>
<stop offset="1" stop-color="#006642"/>
</linearGradient>
<linearGradient id="paint3_linear_1383_2119" x1="14.8788" y1="7.50732" x2="14.8788" y2="18.2819" gradientUnits="userSpaceOnUse">
<stop stop-color="#23A568"/>
<stop offset="1" stop-color="#006642"/>
</linearGradient>
<clipPath id="clip0_1383_2119">
<rect width="32.6667" height="28" fill="white" transform="translate(0.666992)"/>
</clipPath>
</defs>
</svg>
