<svg width="17" height="16" viewBox="0 0 17 16" fill="none" xmlns="http://www.w3.org/2000/svg">
<path d="M12.5607 15.8981H4.4892C3.51529 15.8966 2.58169 15.4703 1.89303 14.7127C1.20438 13.9551 0.816859 12.9281 0.81543 11.8567V2.79332C0.816857 2.05297 1.08484 1.34339 1.56073 0.819882C2.03661 0.296374 2.68165 0.00157413 3.35466 3.91907e-06H6.19102C6.57171 -0.000698308 6.94765 0.092978 7.29092 0.274068C7.63418 0.455157 7.93594 0.719001 8.17377 1.04601L8.96254 2.12173C9.09892 2.3082 9.27174 2.45846 9.46815 2.56135C9.66457 2.66425 9.87954 2.71712 10.0971 2.71605H12.5607C13.5346 2.71763 14.4682 3.14392 15.1568 3.90149C15.8455 4.65906 16.233 5.68609 16.2344 6.75745V11.8508C16.2344 12.9232 15.8476 13.9517 15.1587 14.7106C14.4699 15.4695 13.5355 15.8966 12.5607 15.8981ZM3.37626 1.18865C2.98939 1.18865 2.61837 1.35771 2.34481 1.65864C2.07125 1.95958 1.91756 2.36773 1.91756 2.79332V11.8567C1.91899 12.6129 2.19266 13.3376 2.67868 13.8722C3.1647 14.4069 3.82348 14.7079 4.51081 14.7095H12.5823C13.2696 14.7079 13.9284 14.4069 14.4144 13.8722C14.9004 13.3376 15.1741 12.6129 15.1755 11.8567V6.76339C15.1741 6.00728 14.9004 5.28259 14.4144 4.74793C13.9284 4.21328 13.2696 3.91222 12.5823 3.91065H10.1133C9.73389 3.9116 9.35915 3.81861 9.01685 3.63856C8.67456 3.45852 8.37348 3.19604 8.13595 2.87058L7.34717 1.78891C7.20945 1.60264 7.0356 1.45259 6.83836 1.34976C6.64113 1.24693 6.42549 1.19392 6.20722 1.19459L3.37626 1.18865Z" fill="#2C75E3"/>
<path d="M8.4926 13.8418C8.17258 13.842 7.85566 13.7728 7.55995 13.6382C7.26424 13.5036 6.99553 13.3062 6.76917 13.0573L4.3164 10.3651C4.00506 10.0194 3.76074 9.60785 3.59822 9.1553C3.43571 8.70274 3.35839 8.2186 3.37095 7.73221C3.37863 7.29348 3.46847 6.86121 3.63487 6.4624C3.80126 6.06359 4.04062 5.70681 4.33801 5.41435C4.88554 4.87357 5.59574 4.57504 6.33156 4.57635C6.73222 4.57174 7.12969 4.65503 7.50074 4.82137C7.8718 4.98771 8.20899 5.23375 8.4926 5.5451L8.52502 5.58076C9.15107 4.94747 9.97629 4.60651 10.8265 4.62984C11.2249 4.63789 11.6175 4.73597 11.98 4.91795C12.3424 5.09994 12.667 5.36195 12.9335 5.68773C13.4242 6.29306 13.6953 7.07574 13.6953 7.88674C13.6969 8.3223 13.6193 8.75382 13.4672 9.15594C13.315 9.55806 13.0913 9.92268 12.8093 10.2284L10.243 13.0514C10.0143 13.3054 9.74147 13.5063 9.44077 13.6421C9.14007 13.7779 8.81763 13.8458 8.4926 13.8418ZM6.33156 5.765C5.85983 5.76607 5.40462 5.95623 5.05115 6.29989C4.86577 6.48565 4.71693 6.71121 4.61379 6.96265C4.51066 7.21409 4.45541 7.4861 4.45146 7.76192C4.44252 8.08614 4.49399 8.40894 4.60269 8.71046C4.7114 9.01198 4.87505 9.28583 5.08357 9.51518L7.53634 12.2134C7.66227 12.352 7.81177 12.4619 7.97631 12.5368C8.14085 12.6118 8.31721 12.6504 8.49531 12.6504C8.67341 12.6504 8.84976 12.6118 9.0143 12.5368C9.17884 12.4619 9.32834 12.352 9.45426 12.2134L12.0205 9.39037C12.3694 9.00809 12.5722 8.49346 12.5872 7.95199C12.6023 7.41053 12.4285 6.88323 12.1015 6.47818C11.9325 6.27297 11.7266 6.10843 11.497 5.9949C11.2674 5.88137 11.0189 5.82131 10.7671 5.81849C10.4724 5.80865 10.1789 5.86527 9.90484 5.98485C9.63075 6.10444 9.3818 6.28446 9.17333 6.51384L8.4926 7.26864L7.69842 6.38904C7.51951 6.19062 7.30655 6.03328 7.07191 5.92615C6.83726 5.81902 6.58561 5.76425 6.33156 5.765Z" fill="#2C75E3"/>
<path d="M8.49203 11.0658C8.34885 11.0658 8.21152 11.0032 8.11028 10.8918C8.00903 10.7803 7.95215 10.6291 7.95215 10.4715V8.5162C7.95215 8.35857 8.00903 8.2074 8.11028 8.09595C8.21152 7.98449 8.34885 7.92188 8.49203 7.92188C8.63522 7.92188 8.77254 7.98449 8.87379 8.09595C8.97504 8.2074 9.03192 8.35857 9.03192 8.5162V10.4715C9.03192 10.6291 8.97504 10.7803 8.87379 10.8918C8.77254 11.0032 8.63522 11.0658 8.49203 11.0658Z" fill="#2C75E3"/>
<path d="M9.38384 10.0915H7.61179C7.46851 10.0915 7.33109 10.0289 7.22977 9.91741C7.12845 9.80595 7.07153 9.65478 7.07153 9.49715C7.07153 9.33953 7.12845 9.18836 7.22977 9.0769C7.33109 8.96545 7.46851 8.90283 7.61179 8.90283H9.38384C9.52713 8.90283 9.66455 8.96545 9.76587 9.0769C9.86718 9.18836 9.9241 9.33953 9.9241 9.49715C9.9241 9.65478 9.86718 9.80595 9.76587 9.91741C9.66455 10.0289 9.52713 10.0915 9.38384 10.0915Z" fill="#2C75E3"/>
</svg>
