<svg width="21" height="18" viewBox="0 0 21 18" fill="none" xmlns="http://www.w3.org/2000/svg">
<path d="M6.8743 8.67002C6.17704 8.67002 5.49543 8.45114 4.91568 8.04107C4.33592 7.63099 3.88407 7.04814 3.61724 6.36621C3.3504 5.68428 3.28059 4.9339 3.41662 4.20997C3.55265 3.48603 3.88842 2.82106 4.38146 2.29913C4.8745 1.7772 5.50266 1.42176 6.18652 1.27777C6.87039 1.13377 7.57923 1.20767 8.22341 1.49014C8.8676 1.7726 9.4182 2.25094 9.80558 2.86467C10.193 3.47839 10.3997 4.19992 10.3997 4.93804C10.3984 5.9274 10.0266 6.87585 9.36571 7.57543C8.70485 8.27502 7.8089 8.66865 6.8743 8.67002ZM6.8743 2.24561C6.37127 2.24561 5.87952 2.40352 5.46125 2.69936C5.04299 2.99521 4.717 3.41571 4.5245 3.90769C4.33199 4.39967 4.28163 4.94103 4.37976 5.46331C4.4779 5.98559 4.72014 6.46534 5.07584 6.84188C5.43155 7.21842 5.88473 7.47485 6.3781 7.57874C6.87147 7.68263 7.38288 7.62931 7.84762 7.42553C8.31237 7.22174 8.70959 6.87665 8.98907 6.43388C9.26854 5.99111 9.41771 5.47055 9.41771 4.93804C9.41641 4.22438 9.14803 3.54036 8.67132 3.03572C8.19462 2.53109 7.54846 2.24698 6.8743 2.24561Z" fill="#2C75E3"/>
<path d="M11.4604 17.012H2.31295C1.88321 17.012 1.47108 16.8312 1.16721 16.5096C0.863341 16.1879 0.692627 15.7516 0.692627 15.2967V11.4712C0.692866 10.6951 0.920671 9.93833 1.34459 9.30522C1.76852 8.67212 2.36765 8.19393 3.05928 7.93669C3.28594 7.85652 3.52868 7.8417 3.76255 7.89378C3.99641 7.94585 4.21296 8.06293 4.3899 8.23297C5.08096 8.88613 5.97496 9.24714 6.90139 9.24714C7.82782 9.24714 8.72182 8.88613 9.41288 8.23297C9.58951 8.06237 9.8063 7.94531 10.0404 7.89409C10.2746 7.84286 10.5175 7.85938 10.7435 7.94189C11.4338 8.19905 12.0317 8.67664 12.4548 9.30878C12.8778 9.94093 13.1051 10.6965 13.1052 11.4712V15.2967C13.1053 15.5241 13.0626 15.7493 12.9796 15.9592C12.8966 16.169 12.7751 16.3592 12.622 16.5188C12.4689 16.6785 12.2874 16.8043 12.088 16.8889C11.8885 16.9736 11.6752 17.0154 11.4604 17.012ZM3.45699 8.90347C3.42446 8.89802 3.39132 8.89802 3.35879 8.90347C2.85958 9.0895 2.42717 9.43486 2.12114 9.89194C1.81511 10.349 1.65053 10.8953 1.65009 11.4556V15.2811C1.65009 15.4603 1.71734 15.6322 1.83704 15.7589C1.95675 15.8856 2.1191 15.9568 2.28839 15.9568H11.4604C11.6297 15.9568 11.792 15.8856 11.9117 15.7589C12.0314 15.6322 12.0987 15.4603 12.0987 15.2811V11.4556C12.0979 10.8961 11.9337 10.3506 11.6287 9.89377C11.3237 9.43691 10.8928 9.09102 10.3949 8.90347C10.3334 8.88473 10.2683 8.88351 10.2063 8.89994C10.1442 8.91637 10.0873 8.94987 10.0414 8.99704C9.16998 9.81865 8.04377 10.2726 6.87685 10.2726C5.70993 10.2726 4.5837 9.81865 3.71231 8.99704C3.64013 8.93526 3.5498 8.90216 3.45699 8.90347Z" fill="#2C75E3"/>
<path d="M13.8171 9.03889C13.6768 9.04039 13.5384 9.00465 13.4145 8.93493C13.268 8.85933 13.1444 8.74188 13.0576 8.59585C12.9709 8.44981 12.9244 8.281 12.9235 8.10849V7.64069C12.3153 7.57405 11.7518 7.27185 11.3412 6.79216C10.9307 6.31246 10.702 5.6891 10.6992 5.04182V2.59887C10.6992 1.90961 10.9579 1.24858 11.4183 0.761198C11.8787 0.273815 12.5031 0 13.1542 0H17.9465C18.5976 0 19.222 0.273815 19.6824 0.761198C20.1428 1.24858 20.4015 1.90961 20.4015 2.59887V5.04182C20.4015 5.73108 20.1428 6.39211 19.6824 6.87949C19.222 7.36688 18.5976 7.64069 17.9465 7.64069H15.9088L14.2934 8.85696C14.1551 8.96602 13.9893 9.02932 13.8171 9.03889ZM13.1886 1.00836C12.798 1.00836 12.4233 1.17265 12.147 1.46508C11.8708 1.75751 11.7156 2.15413 11.7156 2.56769V5.01063C11.7156 5.42419 11.8708 5.82081 12.147 6.11324C12.4233 6.40567 12.798 6.56996 13.1886 6.56996H13.9202V7.859L15.6289 6.56996H17.9808C18.3715 6.56996 18.7462 6.40567 19.0224 6.11324C19.2987 5.82081 19.4538 5.42419 19.4538 5.01063V2.56769C19.4538 2.15413 19.2987 1.75751 19.0224 1.46508C18.7462 1.17265 18.3715 1.00836 17.9808 1.00836H13.1886Z" fill="#2C75E3"/>
<path d="M17.7303 4.18947C18.0203 4.18947 18.2553 3.94046 18.2553 3.63331C18.2553 3.32615 18.0203 3.07715 17.7303 3.07715C17.4404 3.07715 17.2053 3.32615 17.2053 3.63331C17.2053 3.94046 17.4404 4.18947 17.7303 4.18947Z" fill="#2C75E3"/>
<path d="M13.4388 4.18947C13.7288 4.18947 13.9638 3.94046 13.9638 3.63331C13.9638 3.32615 13.7288 3.07715 13.4388 3.07715C13.1489 3.07715 12.9138 3.32615 12.9138 3.63331C12.9138 3.94046 13.1489 4.18947 13.4388 4.18947Z" fill="#2C75E3"/>
<path d="M15.5843 4.18947C15.8743 4.18947 16.1093 3.94046 16.1093 3.63331C16.1093 3.32615 15.8743 3.07715 15.5843 3.07715C15.2944 3.07715 15.0593 3.32615 15.0593 3.63331C15.0593 3.94046 15.2944 4.18947 15.5843 4.18947Z" fill="#2C75E3"/>
</svg>
