<svg width="17" height="16" viewBox="0 0 17 16" fill="none" xmlns="http://www.w3.org/2000/svg">
<g clip-path="url(#clip0_491_528)">
<path d="M13.0955 2.52334L9.92756 0.202622C9.70782 0.0439322 9.43323 -0.0237284 9.16301 0.0142189C8.89279 0.0521661 8.6486 0.192646 8.48321 0.40542L6.75 2.67904L11.5645 6.22149L13.2977 3.94788C13.4632 3.73252 13.5349 3.46173 13.497 3.19473C13.4591 2.92773 13.3147 2.68628 13.0955 2.52334Z" fill="white"/>
<path d="M0.400035 11.2917L0.0100328 14.4992C-0.024973 14.7379 0.00625099 14.9815 0.100363 15.2043C0.194476 15.4272 0.348034 15.6211 0.544964 15.7659C0.741894 15.9106 0.974937 16.0007 1.21965 16.0268C1.46437 16.0529 1.71172 16.0141 1.93583 15.9143L4.96417 14.636C5.13284 14.5688 5.28416 14.4657 5.40713 14.3341L0.592627 10.8105C0.493882 10.9555 0.428185 11.1196 0.400035 11.2917Z" fill="white"/>
<path d="M10.948 7.03302L5.98422 13.5425L1.15527 10.0047L6.11902 3.5L10.948 7.03302Z" fill="white"/>
<path d="M15.8536 13.7402H8.95926C8.32376 13.7402 7.80859 14.245 7.80859 14.8676V14.8723C7.80859 15.4949 8.32376 15.9997 8.95926 15.9997H15.8536C16.4891 15.9997 17.0043 15.4949 17.0043 14.8723V14.8676C17.0043 14.245 16.4891 13.7402 15.8536 13.7402Z" fill="white"/>
<path d="M15.8494 9.82617H11.2757C10.6402 9.82617 10.125 10.3309 10.125 10.9535V10.9582C10.125 11.5809 10.6402 12.0856 11.2757 12.0856H15.8494C16.4849 12.0856 17.0001 11.5809 17.0001 10.9582V10.9535C17.0001 10.3309 16.4849 9.82617 15.8494 9.82617Z" fill="white"/>
</g>
<defs>
<clipPath id="clip0_491_528">
<rect width="17" height="16" fill="white"/>
</clipPath>
</defs>
</svg>
