<svg width="16" height="14" viewBox="0 0 16 14" fill="none" xmlns="http://www.w3.org/2000/svg">
    <path d="M15.7929 3.60505C15.6411 2.64209 15.1686 1.76072 14.4541 1.10731C13.7395 0.453892 12.8258 0.0677497 11.8647 0.0130112C11.195 -0.039835 10.5226 0.0742833 9.90643 0.345394C9.29025 0.616504 8.74897 1.03636 8.3299 1.56827C7.91146 1.03562 7.3703 0.615233 6.75395 0.344051C6.1376 0.0728693 5.46494 -0.0408074 4.79507 0.0130112C3.8343 0.0687486 2.92113 0.455236 2.20676 1.10847C1.49239 1.76171 1.01968 2.64251 0.866877 3.60505C0.659361 4.68529 0.699208 5.79935 0.983354 6.86153C1.2675 7.92372 1.78837 8.90572 2.5059 9.73199C4.45634 12.1673 7.52131 13.6506 8.34629 13.6506C9.17126 13.6506 12.2362 12.1673 14.1867 9.73199C14.8985 8.90279 15.4133 7.91945 15.6918 6.85739C15.9702 5.79532 16.0048 4.68276 15.7929 3.60505ZM13.4874 8.80216C11.7008 11.1821 8.81068 12.4938 8.33536 12.527C7.86004 12.5602 4.95898 11.1821 3.17791 8.80216C2.61662 8.11868 2.21383 7.31635 1.9992 6.45427C1.78456 5.59218 1.76355 4.6923 1.93771 3.82091C2.03907 3.09519 2.38586 2.42758 2.91891 1.93199C3.45195 1.4364 4.13822 1.14353 4.86064 1.10335C5.47559 1.03357 6.09624 1.16871 6.62859 1.4883C7.16094 1.80788 7.57599 2.2945 7.81088 2.87446C7.81088 2.87446 7.81088 2.87447 7.81088 2.90768C7.82375 2.94193 7.84222 2.97373 7.86551 3.00177C7.88296 3.03127 7.90307 3.05906 7.9256 3.08479L8.0021 3.14567C8.03364 3.16949 8.06866 3.18817 8.1059 3.20102H8.17146C8.24266 3.22321 8.3188 3.22321 8.39 3.20102H8.45555H8.48834C8.52331 3.18688 8.55636 3.16828 8.58668 3.14567L8.66317 3.08479C8.68907 3.06201 8.70961 3.03364 8.72327 3.00177C8.74639 2.97255 8.76652 2.94102 8.78336 2.90768C8.78336 2.90768 8.78336 2.90767 8.78336 2.87446C9.01825 2.2945 9.4333 1.80788 9.96564 1.4883C10.498 1.16871 11.1186 1.03357 11.7336 1.10335C12.456 1.14353 13.1423 1.4364 13.6753 1.93199C14.2084 2.42758 14.5552 3.09519 14.6565 3.82091C14.8419 4.68692 14.8331 5.58404 14.6308 6.44615C14.4284 7.30826 14.0377 8.11338 13.4874 8.80216Z" fill="#ff4141"/>
    </svg>
    