<svg width="18" height="19" viewBox="0 0 18 19" fill="none" xmlns="http://www.w3.org/2000/svg">
<path d="M13.8472 18.2892H4.31582C3.40377 18.2892 2.52908 17.8906 1.88417 17.1812C1.23926 16.4717 0.876953 15.5095 0.876953 14.5062V7.91118C0.877191 7.34564 0.993849 6.7875 1.21818 6.27864C1.44252 5.76979 1.7687 5.32343 2.17226 4.97306L6.94081 0.818077C7.5417 0.288542 8.28866 0 9.05858 0C9.8285 0 10.5755 0.288542 11.1764 0.818077L15.9449 4.97306C16.3477 5.32375 16.673 5.77032 16.8964 6.27921C17.1198 6.78811 17.2353 7.34607 17.2345 7.91118V14.5314C17.2286 15.5206 16.8707 16.4679 16.2376 17.1703C15.6044 17.8727 14.7463 18.2744 13.8472 18.2892ZM9.07864 1.26573C8.56802 1.26473 8.07247 1.45608 7.67444 1.80796L2.90588 5.96294C2.63754 6.19459 2.42067 6.4904 2.27172 6.82796C2.12276 7.16552 2.04563 7.53595 2.04616 7.91118V14.5314C2.04616 15.2003 2.2877 15.8418 2.71764 16.3147C3.14758 16.7877 3.73071 17.0534 4.33874 17.0534H13.8701C14.4782 17.0534 15.0613 16.7877 15.4912 16.3147C15.9212 15.8418 16.1627 15.2003 16.1627 14.5314V7.91118C16.1643 7.53639 16.0883 7.16613 15.9403 6.82853C15.7923 6.49094 15.5763 6.1949 15.3087 5.96294L10.5402 1.80796C10.1269 1.44218 9.60887 1.24999 9.07864 1.26573Z" fill="white"/>
<path d="M11.0903 15.849C10.9383 15.849 10.7925 15.7826 10.685 15.6644C10.5775 15.5461 10.5171 15.3858 10.5171 15.2185V11.1834H7.65141V15.2185C7.65141 15.3858 7.59103 15.5461 7.48355 15.6644C7.37606 15.7826 7.23028 15.849 7.07827 15.849C6.92626 15.849 6.78048 15.7826 6.673 15.6644C6.56551 15.5461 6.50513 15.3858 6.50513 15.2185V10.5529C6.50513 10.3856 6.56551 10.2253 6.673 10.107C6.78048 9.98879 6.92626 9.92236 7.07827 9.92236H11.0903C11.2423 9.92236 11.3881 9.98879 11.4956 10.107C11.603 10.2253 11.6634 10.3856 11.6634 10.5529V15.2185C11.6634 15.3858 11.603 15.5461 11.4956 15.6644C11.3881 15.7826 11.2423 15.849 11.0903 15.849Z" fill="white"/>
</svg>
