<svg width="18" height="19" viewBox="0 0 18 19" fill="none" xmlns="http://www.w3.org/2000/svg">
<path d="M14.172 18.2892H4.14322C3.18358 18.2892 2.26325 17.8906 1.58468 17.1812C0.906114 16.4717 0.524902 15.5095 0.524902 14.5062V7.91118C0.525152 7.34564 0.647898 6.7875 0.883941 6.27864C1.11998 5.76979 1.46319 5.32343 1.8878 4.97306L6.9052 0.818077C7.53745 0.288542 8.32338 0 9.13349 0C9.94359 0 10.7295 0.288542 11.3618 0.818077L16.3792 4.97306C16.803 5.32375 17.1453 5.77032 17.3803 6.27921C17.6153 6.78811 17.737 7.34607 17.736 7.91118V14.5314C17.7298 15.5206 17.3533 16.4679 16.6871 17.1703C16.0209 17.8727 15.118 18.2744 14.172 18.2892ZM9.1546 1.26573C8.61732 1.26473 8.09592 1.45608 7.67712 1.80796L2.65971 5.96294C2.37737 6.19459 2.14918 6.4904 1.99245 6.82796C1.83572 7.16552 1.75456 7.53595 1.75513 7.91118V14.5314C1.75513 15.2003 2.00927 15.8418 2.46165 16.3147C2.91402 16.7877 3.52758 17.0534 4.16734 17.0534H14.1961C14.8359 17.0534 15.4494 16.7877 15.9018 16.3147C16.3542 15.8418 16.6083 15.2003 16.6083 14.5314V7.91118C16.6101 7.53639 16.53 7.16613 16.3743 6.82853C16.2186 6.49094 15.9914 6.1949 15.7098 5.96294L10.6924 1.80796C10.2576 1.44218 9.71249 1.24999 9.1546 1.26573Z" fill="#2C75E3"/>
<path d="M11.2712 15.8486C11.1113 15.8486 10.9579 15.7821 10.8448 15.6639C10.7317 15.5456 10.6682 15.3853 10.6682 15.2181V11.1829H7.65288V15.2181C7.65288 15.3853 7.58935 15.5456 7.47625 15.6639C7.36316 15.7821 7.20977 15.8486 7.04983 15.8486C6.88989 15.8486 6.7365 15.7821 6.62341 15.6639C6.51031 15.5456 6.44678 15.3853 6.44678 15.2181V10.5524C6.44678 10.3852 6.51031 10.2248 6.62341 10.1065C6.7365 9.9883 6.88989 9.92188 7.04983 9.92188H11.2712C11.4311 9.92188 11.5845 9.9883 11.6976 10.1065C11.8107 10.2248 11.8743 10.3852 11.8743 10.5524V15.2181C11.8743 15.3853 11.8107 15.5456 11.6976 15.6639C11.5845 15.7821 11.4311 15.8486 11.2712 15.8486Z" fill="#2C75E3"/>
</svg>
