<svg width="26" height="22" viewBox="0 0 26 22" fill="none" xmlns="http://www.w3.org/2000/svg">
<g clip-path="url(#clip0_3664_3315)">
<path d="M7.28125 17.8997V19.937C7.28125 21.0769 9.84154 21.9999 12.9986 21.9999C16.1557 21.9999 18.718 21.0769 18.718 19.937V17.8997C17.5947 18.8759 15.2358 19.3315 12.9986 19.3315C10.7615 19.3315 8.40458 18.8759 7.28125 17.8997Z" fill="#F12F2F"/>
<path d="M18.1534 14.9296C17.9144 15.0643 17.6659 15.1803 17.4102 15.2767C16.1919 15.7461 14.5591 15.9709 12.9986 15.9709C11.4381 15.9709 9.80738 15.7461 8.58902 15.2767C8.33332 15.1803 8.08488 15.0643 7.84581 14.9296C7.666 14.8305 7.49543 14.7143 7.33638 14.5825L7.28125 14.5371V16.5744C7.28125 17.7143 9.84154 18.6393 12.9986 18.6393C16.1557 18.6393 18.718 17.7143 18.718 16.5744V14.5371L18.6629 14.5825C18.5038 14.7143 18.3332 14.8305 18.1534 14.9296Z" fill="#F12F2F"/>
<path d="M17.6746 11.9221C16.4316 12.4645 14.6791 12.711 12.9988 12.711C11.3186 12.711 9.57753 12.4546 8.32685 11.9221C8.09924 11.8244 7.87936 11.7084 7.66921 11.575C7.53603 11.4893 7.40899 11.3937 7.28906 11.2891V13.2199C7.28906 13.7464 7.83459 14.2277 8.73363 14.6004C9.09138 14.7432 9.45858 14.8592 9.8323 14.9475C11.9256 15.4103 14.0893 15.4103 16.1826 14.9475C16.5563 14.8592 16.9235 14.7432 17.2812 14.6004C18.1803 14.2375 18.7258 13.7563 18.7258 13.2199V11.2891C18.6059 11.3937 18.4788 11.4893 18.3457 11.575C18.1306 11.7079 17.9063 11.8239 17.6746 11.9221Z" fill="#F12F2F"/>
<path d="M17.1919 8.55131C16.8121 8.40636 16.4226 8.29035 16.0266 8.2042C14.0298 7.7887 11.9735 7.7887 9.97671 8.2042C9.58016 8.29063 9.1901 8.40664 8.80964 8.55131C7.85928 8.92012 7.28906 9.41317 7.28906 9.95553C7.28906 10.4308 7.73765 10.8706 8.49224 11.2197C8.79971 11.3612 9.11749 11.4773 9.4426 11.5668C10.018 11.7289 10.6045 11.8449 11.197 11.9139C12.4015 12.0534 13.6171 12.0534 14.8216 11.9139C15.4141 11.8449 16.0006 11.7289 16.576 11.5668C16.9011 11.4773 17.2189 11.3612 17.5263 11.2197C18.2866 10.8706 18.7295 10.4308 18.7295 9.95553C18.72 9.41317 18.1403 8.92012 17.1919 8.55131Z" fill="#F12F2F"/>
<path d="M21.6075 7.94195C21.6075 7.89462 21.6075 7.84531 21.6075 7.79798C21.6065 6.91253 21.3952 6.04099 20.9923 5.26045C20.5894 4.47991 20.0073 3.81443 19.2975 3.32286C18.5877 2.8313 17.7722 2.52882 16.9229 2.44216C16.0736 2.3555 15.2169 2.48735 14.4285 2.82604C13.6142 1.56819 12.3953 0.651883 10.9896 0.240953C9.58401 -0.169977 8.08336 -0.0487325 6.75598 0.583005C5.4286 1.21474 4.36106 2.31578 3.74424 3.68925C3.12741 5.06272 3.0015 6.61907 3.38906 8.08C2.40514 8.33464 1.53372 8.92837 0.91747 9.76399C0.301222 10.5996 -0.023324 11.6276 -0.00300719 12.6796C0.0173097 13.7315 0.381288 14.7452 1.0293 15.5545C1.67732 16.3639 2.57095 16.9209 3.56391 17.1344V17.2606C3.56427 17.3468 3.58637 17.4314 3.62804 17.5059C3.66972 17.5805 3.72949 17.6424 3.80141 17.6855C3.87333 17.7286 3.95493 17.7514 4.03798 17.7516C4.12103 17.7518 4.20271 17.7294 4.27483 17.6866L5.40004 17.0121C5.47183 16.9687 5.53136 16.9066 5.57276 16.8318C5.61416 16.7571 5.63596 16.6724 5.63596 16.5861C5.63596 16.4999 5.61416 16.4152 5.57276 16.3405C5.53136 16.2657 5.47183 16.2036 5.40004 16.1601L4.27483 15.4857C4.20281 15.4423 4.12098 15.4194 4.0377 15.4193C3.95443 15.4192 3.8726 15.4419 3.80048 15.4851C3.72837 15.5283 3.66856 15.5905 3.62702 15.6654C3.58548 15.7403 3.56369 15.8252 3.56391 15.9116V15.9215C2.81279 15.7013 2.15988 15.2148 1.7186 14.5468C1.27732 13.8787 1.07557 13.0713 1.14856 12.265C1.22155 11.4586 1.5646 10.7043 2.11804 10.1332C2.67149 9.56214 3.40033 9.21037 4.17784 9.13908C4.30259 9.13053 4.4216 9.08155 4.51808 8.99905C4.60844 8.91785 4.67189 8.80923 4.69952 8.68855C4.72715 8.56787 4.71757 8.44123 4.67205 8.32653C4.19237 7.09712 4.18364 5.72397 4.64773 4.48814C5.11183 3.25231 6.01364 2.24726 7.16851 1.67873C8.32338 1.11019 9.64401 1.02116 10.8601 1.42987C12.0761 1.83857 13.0956 2.71409 13.71 3.87723C13.7829 4.01386 13.9051 4.11502 14.0496 4.15861C14.1942 4.20221 14.3495 4.18472 14.4817 4.10995C15.0983 3.76204 15.7914 3.58636 16.4932 3.60013C17.195 3.61391 17.8813 3.81666 18.4848 4.18852C19.0883 4.56038 19.5882 5.08858 19.9358 5.72134C20.2833 6.3541 20.4664 7.06969 20.4671 7.79798C20.4661 8.02586 20.4483 8.25333 20.4138 8.47839C20.3942 8.60328 20.4138 8.73138 20.4696 8.84391C20.5253 8.95643 20.6144 9.04744 20.7237 9.10358C20.8374 9.15911 20.965 9.17635 21.0886 9.15289C21.5541 9.09169 22.0267 9.13269 22.4758 9.27325C22.925 9.41381 23.3407 9.65077 23.6959 9.96877C24.0511 10.2868 24.3379 10.6787 24.5378 11.1191C24.7376 11.5596 24.846 12.0387 24.8558 12.5254C24.8551 13.318 24.5964 14.0872 24.1217 14.7083C23.647 15.3293 22.9842 15.7659 22.2405 15.9472V15.9116C22.2407 15.8252 22.2189 15.7403 22.1774 15.6654C22.1358 15.5905 22.0759 15.5283 22.0038 15.4851C21.9317 15.4419 21.8499 15.4192 21.7666 15.4193C21.6833 15.4194 21.6016 15.4423 21.5296 15.4857L20.4043 16.1601C20.3326 16.2036 20.273 16.2657 20.2316 16.3405C20.1902 16.4152 20.1684 16.4999 20.1684 16.5861C20.1684 16.6724 20.1902 16.7571 20.2316 16.8318C20.273 16.9066 20.3326 16.9687 20.4043 17.0121L21.5296 17.6866C21.6017 17.7294 21.6834 17.7518 21.7664 17.7516C21.8495 17.7514 21.931 17.7286 22.0029 17.6855C22.0748 17.6424 22.1346 17.5805 22.1762 17.5059C22.2179 17.4314 22.2401 17.3468 22.2405 17.2606V17.1541C23.3415 16.968 24.3356 16.3613 25.0274 15.4533C25.7193 14.5453 26.0587 13.4016 25.9792 12.2471C25.8996 11.0926 25.4067 10.0106 24.5974 9.214C23.7881 8.41736 22.7209 7.96362 21.6056 7.94195H21.6075Z" fill="#F12F2F"/>
<path d="M9.65829 2.96396C9.71943 2.96858 9.78076 2.95845 9.8375 2.93437C9.89424 2.91029 9.94485 2.87291 9.98535 2.82516C10.0258 2.77741 10.0551 2.72058 10.0709 2.65912C10.0867 2.59766 10.0887 2.53325 10.0765 2.47091C10.0565 2.38013 10.0085 2.29855 9.93997 2.23844C9.87141 2.17833 9.78595 2.14295 9.69634 2.1376C9.5785 2.12577 9.45873 2.12183 9.33708 2.12183C8.32298 2.1234 7.34468 2.51098 6.58762 3.21109C5.83056 3.91119 5.34739 4.87518 5.22964 5.9203C5.22266 5.97834 5.22757 6.03726 5.24412 6.09317C5.26067 6.14908 5.28844 6.20072 5.32561 6.24469C5.36278 6.28866 5.40854 6.32397 5.45981 6.34828C5.51108 6.37259 5.56669 6.38536 5.62306 6.38574C5.72192 6.38563 5.81715 6.3471 5.88998 6.27774C5.96281 6.20837 6.00792 6.11322 6.01647 6.01102C6.06913 5.33784 6.3187 4.69741 6.73175 4.17542C7.1448 3.65343 7.70166 3.2748 8.32778 3.09018C8.76063 2.96694 9.21109 2.9242 9.65829 2.96396Z" fill="#F12F2F"/>
<path d="M22.9264 14.5668C22.9637 14.6059 23.0082 14.637 23.0571 14.6581C23.106 14.6793 23.1585 14.6903 23.2115 14.6903C23.2646 14.6903 23.3171 14.6793 23.366 14.6581C23.415 14.637 23.4593 14.6059 23.4966 14.5668C23.9823 14.0406 24.259 13.3438 24.2717 12.6154C24.2844 11.8869 24.0321 11.1802 23.5651 10.6362C23.5314 10.592 23.4892 10.5554 23.4413 10.5287C23.3934 10.5019 23.3409 10.4857 23.2867 10.4808C23.2325 10.4759 23.178 10.4826 23.1264 10.5004C23.0748 10.5182 23.0272 10.5467 22.9866 10.5842C22.9461 10.6218 22.9133 10.6675 22.8904 10.7187C22.8675 10.7698 22.8548 10.8253 22.8533 10.8816C22.8517 10.938 22.8613 10.9941 22.8814 11.0465C22.9015 11.099 22.9317 11.1466 22.9701 11.1864C23.3044 11.5758 23.4848 12.0817 23.4753 12.603C23.4658 13.1244 23.267 13.6228 22.9188 13.9988C22.8492 14.0762 22.8111 14.1785 22.8125 14.2844C22.814 14.3902 22.8548 14.4914 22.9264 14.5668Z" fill="#F12F2F"/>
</g>
<defs>
<clipPath id="clip0_3664_3315">
<rect width="26" height="22" fill="white"/>
</clipPath>
</defs>
</svg>
