<svg width="28" height="33" viewBox="0 0 28 33" fill="none" xmlns="http://www.w3.org/2000/svg">
<path d="M16.5335 20.582L11.4663 25.6492L16.5335 30.7164" stroke="#838383" stroke-width="2.75" stroke-linecap="round" stroke-linejoin="round"/>
<path d="M3.7606 19.7352C2.45922 17.4812 1.93798 14.8607 2.27771 12.2802C2.61743 9.69971 3.79914 7.30344 5.63957 5.46301C7.47999 3.62259 9.87627 2.44088 12.4567 2.10115C15.0372 1.76142 17.6577 2.28267 19.9118 3.58404C22.1658 4.88542 23.9274 6.89419 24.9235 9.29882C25.9195 11.7034 26.0943 14.3695 25.4206 16.8836C24.747 19.3977 23.2626 21.6192 21.1977 23.2037C19.1328 24.7881 16.6028 25.6469 14 25.6469" stroke="#838383" stroke-width="2.75" stroke-linecap="round"/>
<path d="M14 8.76172V14.2806C14 14.4976 14.1759 14.6735 14.3929 14.6735H19.0672" stroke="#838383" stroke-width="2.75" stroke-linecap="round"/>
</svg>
