<svg width="16" height="17" viewBox="0 0 16 17" fill="none" xmlns="http://www.w3.org/2000/svg">
<path d="M12.3512 7.83079C11.6473 7.83079 10.9591 7.60116 10.3738 7.17093C9.78851 6.7407 9.33232 6.12919 9.06293 5.41375C8.79354 4.6983 8.72305 3.91105 8.86038 3.15154C8.99772 2.39203 9.33671 1.69437 9.83447 1.14679C10.3322 0.599215 10.9664 0.226312 11.6568 0.075236C12.3473 -0.0758403 13.0629 0.00169348 13.7133 0.29804C14.3636 0.594387 14.9195 1.09623 15.3106 1.74012C15.7017 2.384 15.9104 3.141 15.9104 3.91539C15.9104 4.95382 15.5355 5.94972 14.868 6.684C14.2005 7.41828 13.2952 7.83079 12.3512 7.83079ZM12.3512 1.2673C11.8737 1.2673 11.407 1.42314 11.0101 1.71509C10.6131 2.00704 10.3039 2.42197 10.1214 2.90737C9.93895 3.39276 9.89151 3.9268 9.98508 4.44187C10.0786 4.95694 10.309 5.4299 10.647 5.80087C10.9851 6.17184 11.4156 6.42416 11.884 6.52586C12.3524 6.62757 12.8378 6.5741 13.2786 6.37223C13.7194 6.17036 14.0958 5.82915 14.3603 5.39181C14.6247 4.95447 14.7653 4.44065 14.7642 3.91539C14.7672 3.56469 14.707 3.21681 14.5871 2.89185C14.4672 2.56689 14.2899 2.27129 14.0656 2.02213C13.8412 1.77296 13.5742 1.57518 13.2799 1.44021C12.9857 1.30524 12.67 1.23576 12.3512 1.23577V1.2673Z" fill="white"/>
<path d="M13.9331 16.7021L1.52454 16.6579C1.2703 16.6597 1.01979 16.5906 0.796325 16.4573C0.572858 16.3239 0.383694 16.1305 0.246426 15.895C0.108445 15.6592 0.0262113 15.3892 0.00719366 15.1095C-0.011824 14.8298 0.0329761 14.5494 0.137528 14.2936L3.57639 5.92687C3.68064 5.6721 3.84984 5.45607 4.06348 5.30499C4.27712 5.15391 4.52602 5.07426 4.77999 5.0757C5.03396 5.07426 5.28287 5.15391 5.49651 5.30499C5.71015 5.45607 5.87935 5.6721 5.98359 5.92687L8.62006 12.3138L10.265 9.48288C10.3838 9.2758 10.5483 9.1052 10.7433 8.98696C10.9382 8.86873 11.1571 8.80673 11.3797 8.80673C11.6023 8.80673 11.8213 8.86873 12.0162 8.98696C12.2112 9.1052 12.3757 9.2758 12.4945 9.48288L15.2169 14.136C15.3648 14.3883 15.4478 14.6799 15.4573 14.9799C15.4667 15.28 15.4022 15.5772 15.2707 15.8402C15.1391 16.1032 14.9453 16.3221 14.7098 16.4739C14.4744 16.6256 14.206 16.7045 13.9331 16.7021ZM4.80292 6.3367C4.76881 6.3352 4.73512 6.34529 4.7064 6.36559C4.67769 6.38589 4.65536 6.41543 4.64244 6.45018L1.20358 14.8169C1.17904 14.8799 1.16901 14.9485 1.17439 15.0168C1.17977 15.085 1.20038 15.1508 1.2344 15.2082C1.26843 15.2656 1.3148 15.3128 1.36942 15.3457C1.42403 15.3787 1.48518 15.3963 1.54746 15.397H13.9331C14 15.3972 14.0658 15.3776 14.1235 15.3403C14.1811 15.3029 14.2286 15.2491 14.2608 15.1846C14.2931 15.1201 14.309 15.0472 14.3068 14.9737C14.3046 14.9001 14.2844 14.8285 14.2483 14.7665L11.5775 10.1575C11.5617 10.1299 11.5396 10.1073 11.5135 10.0918C11.4874 10.0763 11.4581 10.0686 11.4285 10.0692C11.3989 10.0692 11.3698 10.0772 11.3438 10.0926C11.3178 10.108 11.2957 10.1303 11.2794 10.1575L9.01311 14.0723C8.80546 14.431 8.27665 14.3959 8.11831 14.0128L4.99206 6.45018C4.97914 6.41543 4.95681 6.38589 4.92809 6.36559C4.89938 6.34529 4.86568 6.3352 4.83158 6.3367H4.80292Z" fill="white"/>
<path d="M0.573144 9.67192C0.421137 9.67192 0.275355 9.60549 0.16787 9.48725C0.0603842 9.36901 0 9.20864 0 9.04142V3.61915C0.00151529 2.66317 0.347401 1.74682 0.961889 1.07084C1.57638 0.394861 2.40937 0.0143622 3.27838 0.0126953H7.72025C7.87226 0.0126953 8.01804 0.0791221 8.12552 0.197363C8.23301 0.315605 8.29339 0.475975 8.29339 0.643193C8.29339 0.810412 8.23301 0.970782 8.12552 1.08902C8.01804 1.20726 7.87226 1.27369 7.72025 1.27369H3.27838C2.71338 1.27536 2.17196 1.52299 1.77244 1.96249C1.37292 2.40199 1.1478 2.9976 1.14629 3.61915V9.04142C1.14629 9.20864 1.0859 9.36901 0.978418 9.48725C0.870933 9.60549 0.725151 9.67192 0.573144 9.67192Z" fill="white"/>
</svg>
