<svg width="18" height="18" viewBox="0 0 18 18" fill="none" xmlns="http://www.w3.org/2000/svg">
    <path d="M8.56933 17.9061C6.87472 17.9049 5.21851 17.3788 3.81008 16.3942C2.40165 15.4097 1.30423 14.011 0.656558 12.3749C0.00888761 10.7388 -0.159952 8.93886 0.17138 7.20255C0.502713 5.46624 1.31934 3.87154 2.51803 2.62006C3.71672 1.36858 5.24364 0.516519 6.90578 0.171573C8.56791 -0.173372 10.2906 0.00429952 11.8561 0.682121C13.4216 1.35994 14.7596 2.50748 15.701 3.97967C16.6423 5.45186 17.1447 7.18258 17.1447 8.95306C17.1416 11.3276 16.2369 13.6039 14.6292 15.2824C13.0215 16.9609 10.8421 17.9045 8.56933 17.9061ZM8.56933 1.261C7.11343 1.26224 5.69058 1.71442 4.48063 2.5604C3.27068 3.40637 2.32796 4.60815 1.77164 6.0138C1.21532 7.41945 1.07038 8.96587 1.35514 10.4576C1.6399 11.9493 2.34158 13.3193 3.37147 14.3944C4.40136 15.4695 5.71324 16.2015 7.14124 16.4978C8.56925 16.7941 10.0493 16.6414 11.3942 16.059C12.7392 15.4766 13.8887 14.4907 14.6974 13.2259C15.5061 11.9611 15.9378 10.4741 15.9378 8.95306C15.933 6.91402 15.1548 4.96012 13.7736 3.51948C12.3924 2.07884 10.521 1.26895 8.56933 1.26729V1.261Z" fill="#2C75E3"/>
    <path d="M8.5694 17.9061C6.08308 17.9061 4.12781 13.9781 4.12781 8.95306C4.12781 3.92799 6.08308 0 8.5694 0C11.0557 0 13.011 3.9343 13.011 8.95306C13.011 13.9718 11.0557 17.9061 8.5694 17.9061ZM8.5694 1.261C7.0426 1.261 5.33476 4.41348 5.33476 8.95306C5.33476 13.4926 7.03657 16.6451 8.5694 16.6451C10.1022 16.6451 11.804 13.4926 11.804 8.95306C11.804 4.41348 10.0962 1.26729 8.5694 1.26729V1.261Z" fill="#2C75E3"/>
    <path d="M8.56938 13.5998C3.74156 13.5998 0 11.5633 0 8.9593C0 6.35535 3.7657 4.31885 8.56938 4.31885C13.3731 4.31885 17.1448 6.36165 17.1448 8.9593C17.1448 11.557 13.3972 13.5998 8.56938 13.5998ZM8.56938 5.57984C4.23038 5.57984 1.20696 7.36414 1.20696 8.9593C1.20696 10.5545 4.22434 12.3388 8.56938 12.3388C12.9144 12.3388 15.9378 10.5608 15.9378 8.9593C15.9378 7.35784 12.9023 5.57984 8.56938 5.57984Z" fill="#2C75E3"/>
    </svg>
    