<svg width="15" height="14" viewBox="0 0 15 14" fill="none" xmlns="http://www.w3.org/2000/svg">
    <g clip-path="url(#clip0_46_5165)">
    <path d="M3.32289 13.4283H1.99187C1.53877 13.427 1.10459 13.2389 0.784192 12.9052C0.463797 12.5715 0.283234 12.1192 0.281952 11.6473V5.69213C0.283234 5.22019 0.463797 4.76796 0.784192 4.43425C1.10459 4.10054 1.53877 3.91247 1.99187 3.91113H3.32289C3.776 3.91247 4.21018 4.10054 4.53058 4.43425C4.85097 4.76796 5.03154 5.22019 5.03282 5.69213V11.6473C5.03154 12.1192 4.85097 12.5715 4.53058 12.9052C4.21018 13.2389 3.776 13.427 3.32289 13.4283ZM1.99187 4.92306C1.79604 4.92306 1.60824 5.00409 1.46976 5.14831C1.33129 5.29254 1.2535 5.48816 1.2535 5.69213V11.6473C1.2535 11.8513 1.33129 12.0469 1.46976 12.1911C1.60824 12.3354 1.79604 12.4164 1.99187 12.4164H3.32289C3.51872 12.4164 3.70653 12.3354 3.84501 12.1911C3.98348 12.0469 4.06127 11.8513 4.06127 11.6473V5.69213C4.06127 5.48816 3.98348 5.29254 3.84501 5.14831C3.70653 5.00409 3.51872 4.92306 3.32289 4.92306H1.99187Z" fill="#231F20"/>
    <path d="M10.2986 14.0002C8.35552 14.0002 5.71291 12.9326 5.58175 12.877C5.46304 12.8274 5.3679 12.7311 5.31697 12.6089C5.26604 12.4867 5.26343 12.3485 5.30972 12.2243C5.35639 12.0997 5.4485 11.9995 5.56592 11.9455C5.68334 11.8914 5.81652 11.888 5.93636 11.9359C6.87876 12.3204 9.61367 13.2463 10.935 12.9478C12.6935 12.5228 13.325 9.37573 13.3104 7.48848C13.3265 7.32932 13.3107 7.1684 13.2638 7.01596C13.217 6.86353 13.1402 6.72291 13.0384 6.60305C12.5526 6.09709 11.3625 6.13251 9.97314 6.14769H9.14247C9.06119 6.14754 8.98124 6.12616 8.90995 6.0855C8.83867 6.04484 8.77831 5.98619 8.73442 5.91494C8.6865 5.84118 8.65812 5.75556 8.65215 5.66672C8.64618 5.57788 8.66283 5.48897 8.70042 5.40898C9.18619 4.32621 9.78369 2.27706 9.43879 1.36127C9.41488 1.28479 9.37505 1.21475 9.32215 1.15615C9.26925 1.09755 9.20458 1.05184 9.13275 1.02228C8.29722 0.673162 7.37425 2.44909 6.63102 3.87591C6.47557 4.16937 6.32498 4.45777 6.17439 4.73099C6.11031 4.84672 6.00488 4.93135 5.88111 4.96642C5.75735 5.0015 5.62528 4.98416 5.51374 4.91819C5.40263 4.85145 5.32137 4.74164 5.2877 4.61273C5.25403 4.48381 5.27067 4.34626 5.334 4.23008C5.47974 3.96192 5.62547 3.67858 5.77606 3.39018C6.74761 1.51812 7.85517 -0.601866 9.49223 0.0811845C9.68553 0.161782 9.86055 0.283516 10.0061 0.438596C10.1516 0.593676 10.2645 0.778686 10.3375 0.981798C10.7892 2.15057 10.2403 4.01758 9.8517 5.09022H9.94885C11.6199 5.09022 12.9412 5.05986 13.7039 5.83399C13.895 6.04382 14.0431 6.29201 14.1392 6.56341C14.2352 6.83481 14.2772 7.12375 14.2625 7.41259C14.2625 9.38079 13.6407 13.2666 11.1341 13.8687C10.8611 13.944 10.5809 13.9881 10.2986 14.0002Z" fill="#231F20"/>
    </g>
    <defs>
    <clipPath id="clip0_46_5165">
    <rect width="14" height="14" fill="white" transform="translate(0.281952)"/>
    </clipPath>
    </defs>
    </svg>
    