<svg width="124" height="39" viewBox="0 0 124 39" fill="none" xmlns="http://www.w3.org/2000/svg">
<path d="M28.3276 7.7373H23.8403V32.3399H28.3276V7.7373Z" fill="#092A99"/>
<path d="M74.1123 30.8535C75.9824 31.9539 78.1057 32.5334 80.2673 32.5334C82.4289 32.5334 84.5521 31.9539 86.4223 30.8535C88.2856 29.7555 89.8328 28.1807 90.9095 26.2862C92.0065 24.4022 92.5788 22.251 92.5652 20.0625C92.5802 18.4189 92.2692 16.7891 91.6509 15.27C91.0325 13.7509 90.1194 12.3737 88.9658 11.2202C87.832 10.0455 86.4786 9.11217 84.9849 8.47504C83.4913 7.83791 81.8874 7.50977 80.2673 7.50977C78.6471 7.50977 77.0433 7.83791 75.5496 8.47504C74.056 9.11217 72.7026 10.0455 71.5687 11.2202C70.4074 12.3754 69.4895 13.7581 68.8708 15.2844C68.252 16.8107 67.9453 18.4488 67.9693 20.0991C67.9668 22.2845 68.5339 24.4317 69.613 26.3228C70.688 28.2133 72.2414 29.7775 74.1123 30.8535ZM80.2673 12.0119C81.6291 12.0031 82.9665 12.3784 84.1306 13.0959C85.3595 13.7627 86.3803 14.7649 87.0778 15.9895C87.7753 17.2141 88.1218 18.6121 88.078 20.026C88.0929 21.4498 87.7281 22.8513 87.0222 24.0818C86.3282 25.3099 85.3318 26.3339 84.1306 27.0536C82.9609 27.7627 81.6238 28.1371 80.2613 28.1371C78.8988 28.1371 77.5617 27.7627 76.3919 27.0536C75.1936 26.3273 74.2012 25.2981 73.5115 24.0665C72.8218 22.8348 72.4583 21.4427 72.4566 20.026C72.4504 18.9855 72.6525 17.9546 73.0506 16.9957C73.4486 16.0368 74.0343 15.17 74.7722 14.4478C75.4691 13.6739 76.3184 13.0573 77.265 12.6377C78.2116 12.218 79.2344 12.0049 80.2673 12.0119Z" fill="#FF7A00"/>
<path d="M92.9012 28.7583C92.6034 28.7714 92.3114 28.8462 92.0431 28.9781C91.7749 29.1101 91.5361 29.2964 91.3414 29.5256C90.2699 30.7824 89.0059 31.8557 87.5981 32.7045C85.383 34.0514 82.8494 34.7628 80.2673 34.7628C77.6852 34.7628 75.1516 34.0514 72.9365 32.7045C71.5301 31.8587 70.2697 30.7849 69.2051 29.5256C69.0102 29.2927 68.77 29.1033 68.4995 28.9691C68.2291 28.835 67.9342 28.7591 67.6334 28.7461C67.3349 28.7348 67.0375 28.7876 66.7604 28.9009C66.4834 29.0142 66.233 29.1856 66.0257 29.4038C65.6388 29.8011 65.4149 30.3327 65.3993 30.8912C65.3837 31.4496 65.5776 31.9933 65.9417 32.4122C67.7377 34.4725 69.945 36.1212 72.417 37.2489C74.889 38.3766 77.5692 38.9573 80.2793 38.9525H81.3831C84.0491 38.8042 86.652 38.073 89.0139 36.8089C91.1125 35.702 92.9949 34.2162 94.5689 32.4244C94.9322 32.0074 95.1257 31.4658 95.1101 30.9094C95.0945 30.353 94.871 29.8234 94.4849 29.4282C94.2863 29.2044 94.0411 29.0283 93.7673 28.9125C93.4934 28.7966 93.1976 28.744 92.9012 28.7583Z" fill="#FFB800"/>
<path d="M119.321 7.7373V24.2527C119.31 24.9286 119.11 25.5875 118.745 26.1527C118.425 26.82 117.929 27.3846 117.313 27.7843C116.697 28.184 115.984 28.4033 115.253 28.4181C114.637 28.4564 114.021 28.3358 113.463 28.0674C112.905 27.7991 112.423 27.3918 112.062 26.8835C111.343 25.6518 110.997 24.233 111.066 22.8033V7.7373H106.495V23.2662C106.541 24.5754 106.153 25.8624 105.391 26.92C105.043 27.4072 104.578 27.7961 104.041 28.0497C103.503 28.3034 102.911 28.4134 102.319 28.3694C101.739 28.3874 101.164 28.2466 100.655 27.9616C100.146 27.6766 99.7225 27.2579 99.428 26.7495C98.7518 25.5458 98.4156 24.1762 98.4561 22.7912V16.7014C98.4577 16.3933 98.3993 16.0879 98.2842 15.8028C98.1692 15.5177 97.9998 15.2585 97.7857 15.04C97.5716 14.8216 97.3171 14.6482 97.0368 14.5299C96.7566 14.4117 96.456 14.3508 96.1525 14.3508C95.848 14.3492 95.5461 14.4089 95.2645 14.5264C94.9828 14.644 94.7269 14.8171 94.5116 15.0357C94.2962 15.2543 94.1257 15.514 94.0099 15.8C93.8941 16.0859 93.8353 16.3923 93.8369 16.7014V23.0591C93.7296 25.4987 94.4683 27.8993 95.9245 29.8431C96.7107 30.8008 97.6963 31.5696 98.8105 32.0941C99.9246 32.6185 101.139 32.8855 102.367 32.8758H102.607C103.559 32.8621 104.501 32.6807 105.391 32.3399C106.728 31.8864 107.923 31.0842 108.858 30.0136C109.453 30.669 110.141 31.2313 110.898 31.6822C112.181 32.4965 113.668 32.9193 115.181 32.9001C117.502 32.8796 119.72 31.9246 121.348 30.245C122.189 29.4441 122.858 28.476 123.315 27.4011C123.771 26.3261 124.004 25.1674 124 23.9969V7.7373H119.321Z" fill="#FFB800"/>
<path d="M41.1536 7.7373V24.2527C41.1644 24.9286 41.3642 25.5875 41.7295 26.1527C42.0497 26.8199 42.5451 27.3846 43.1611 27.7843C43.7772 28.184 44.49 28.4033 45.221 28.4181C45.8373 28.4564 46.4531 28.3358 47.0111 28.0674C47.5691 27.7991 48.0512 27.3918 48.4124 26.8835C49.1308 25.6518 49.4771 24.233 49.4083 22.8033V7.7373H53.9915V23.2662C53.9405 24.5741 54.3251 25.8613 55.0833 26.92C55.4321 27.4063 55.897 27.7945 56.4343 28.0481C56.9716 28.3017 57.5638 28.4122 58.1548 28.3694C58.7358 28.3887 59.3112 28.2485 59.8201 27.9633C60.3291 27.6782 60.7527 27.2588 61.0463 26.7495C61.7277 25.548 62.0644 24.1768 62.0182 22.7912V16.7014C62.0166 16.3933 62.075 16.0879 62.19 15.8028C62.3051 15.5177 62.4746 15.2585 62.6886 15.04C62.9027 14.8216 63.1572 14.6482 63.4374 14.5299C63.7177 14.4117 64.0182 14.3508 64.3218 14.3508C64.6253 14.3508 64.9258 14.4117 65.2061 14.5299C65.4864 14.6482 65.7409 14.8216 65.9549 15.04C66.169 15.2585 66.3384 15.5177 66.4535 15.8028C66.5685 16.0879 66.627 16.3933 66.6254 16.7014V23.0591C66.7327 25.4987 65.9939 27.8993 64.5377 29.8431C63.7545 30.8012 62.7712 31.5704 61.6589 32.0949C60.5466 32.6195 59.3332 32.8862 58.1068 32.8758H57.8668C56.9154 32.8621 55.9736 32.6807 55.0833 32.3399C53.7481 31.8833 52.553 31.0816 51.6159 30.0136C51.0209 30.669 50.3335 31.2313 49.5762 31.6822C48.2935 32.4978 46.8064 32.9207 45.2929 32.9001C42.9823 32.8808 40.7718 31.9403 39.138 30.2815C38.2994 29.4796 37.6322 28.511 37.1782 27.4361C36.7241 26.3612 36.4927 25.203 36.4984 24.0335V7.7373H41.1536Z" fill="#FFB800"/>
<path d="M80.243 5.58086C82.542 5.58374 84.8059 6.15397 86.8396 7.24242C88.8733 8.33088 90.6158 9.90492 91.9171 11.8289C92.2251 12.2781 92.6731 12.6089 93.189 12.768C93.7049 12.9271 94.2585 12.9052 94.7606 12.7059H94.8566C95.1662 12.5692 95.442 12.3643 95.6641 12.1062C95.8863 11.8481 96.0491 11.5431 96.141 11.2133C96.2328 10.8835 96.2513 10.5371 96.1952 10.1991C96.1391 9.86117 96.0097 9.54007 95.8164 9.25906C94.0924 6.66926 91.7689 4.5483 89.0496 3.08208C86.3303 1.61585 83.2981 0.849121 80.219 0.849121C77.1399 0.849121 74.1078 1.61585 71.3885 3.08208C68.6692 4.5483 66.3457 6.66926 64.6216 9.25906C64.4305 9.54074 64.3029 9.86175 64.248 10.1992C64.193 10.5367 64.212 10.8823 64.3037 11.2114C64.3954 11.5406 64.5574 11.8451 64.7783 12.1034C64.9991 12.3618 65.2734 12.5674 65.5815 12.7059H65.6895C66.1884 12.9159 66.7437 12.9432 67.2602 12.7833C67.7768 12.6233 68.2225 12.2859 68.521 11.8289C69.8261 9.89737 71.5761 8.31852 73.6189 7.22964C75.6618 6.14075 77.9357 5.57478 80.243 5.58086Z" fill="#FFB800"/>
<path d="M20.8529 11.4881C20.0579 10.2818 18.9643 9.30906 17.6817 8.66769C16.3991 8.02632 14.9728 7.73889 13.5461 7.83429H2.89193V12.3772H14.386C14.9539 12.3764 15.5108 12.5367 15.9937 12.84C16.6476 13.2158 17.1365 13.8296 17.3615 14.5574H9.09487C7.91661 14.5131 6.74166 14.7105 5.64025 15.1376C4.53884 15.5648 3.53358 16.2131 2.68457 17.0436C1.83557 17.8742 1.16028 18.8699 0.699017 19.9714C0.237754 21.073 0 22.2576 0 23.4545C0 24.6514 0.237754 25.836 0.699017 26.9375C1.16028 28.039 1.83557 29.0348 2.68457 29.8653C3.53358 30.6959 4.53884 31.3441 5.64025 31.7713C6.74166 32.1985 7.91661 32.3959 9.09487 32.3516H22.0287V15.6657C22.0428 14.1871 21.6344 12.736 20.8529 11.4881ZM17.4215 27.6625H9.14287C8.04188 27.6625 6.98597 27.2185 6.20745 26.4282C5.42893 25.6379 4.99158 24.5661 4.99158 23.4484C4.98999 22.8946 5.09628 22.3458 5.30434 21.8338C5.5124 21.3218 5.81813 20.8566 6.20393 20.465C6.58974 20.0733 7.04798 19.763 7.55236 19.5518C8.05673 19.3406 8.59727 19.2327 9.14287 19.2343H17.4215V27.6625Z" fill="#092A99"/>
</svg>
