<svg width="17" height="16" viewBox="0 0 17 16" fill="none" xmlns="http://www.w3.org/2000/svg">
<path d="M12.058 0H4.80064C2.49327 0 0.623047 1.81045 0.623047 4.0435V11.0379C0.623047 13.2709 2.49327 15.0814 4.80064 15.0814H12.058C14.3653 15.0814 16.2356 13.2709 16.2356 11.0379V4.0435C16.2356 1.81045 14.365 0 12.058 0Z" fill="#2C75E3"/>
<path d="M6.60164 7.69572L3.65771 10.2688V4.83887L6.60164 7.69572Z" fill="white"/>
<path d="M13.2008 4.83887V10.2688L10.2568 7.69572L13.2008 4.83887Z" fill="white"/>
<path d="M13.2008 10.784H3.65771L6.88067 7.9668L7.15969 8.23776L8.42908 9.46957L9.69884 8.23776L9.97787 7.9668L13.2008 10.784Z" fill="white"/>
<path d="M13.2008 4.29785L9.96336 7.43925L9.68433 7.71021L8.42908 8.92844L7.1742 7.71021L6.8948 7.43925L3.65771 4.29785H13.2008Z" fill="white"/>
</svg>
