<svg width="16" height="16" viewBox="0 0 16 16" fill="none" xmlns="http://www.w3.org/2000/svg">
<path d="M12.4211 7.50167C11.7131 7.50167 11.0211 7.28169 10.4325 6.86954C9.84392 6.4574 9.38516 5.87159 9.11426 5.18622C8.84335 4.50084 8.77247 3.74668 8.91057 3.01909C9.04868 2.2915 9.38957 1.62316 9.89014 1.09859C10.3907 0.574031 11.0285 0.216801 11.7228 0.0720739C12.4171 -0.0726529 13.1368 0.0016223 13.7908 0.285514C14.4448 0.569406 15.0038 1.05016 15.3971 1.66698C15.7904 2.2838 16.0003 3.00899 16.0003 3.75083C16.0003 4.74562 15.6232 5.69966 14.952 6.40308C14.2807 7.1065 13.3703 7.50167 12.4211 7.50167ZM12.4211 1.21404C11.9409 1.21404 11.4715 1.36333 11.0724 1.64301C10.6732 1.92269 10.3622 2.32018 10.1787 2.78518C9.99521 3.25017 9.9475 3.76176 10.0416 4.25519C10.1357 4.74861 10.3674 5.20169 10.7073 5.55707C11.0472 5.91245 11.4801 6.15416 11.9512 6.25159C12.4223 6.34902 12.9104 6.2978 13.3536 6.10442C13.7969 5.91103 14.1755 5.58416 14.4414 5.1652C14.7074 4.74624 14.8487 4.25401 14.8476 3.75083C14.8506 3.41488 14.7901 3.08162 14.6695 2.77031C14.5489 2.45901 14.3707 2.17583 14.1451 1.93714C13.9194 1.69845 13.6509 1.50898 13.355 1.37968C13.0591 1.25038 12.7417 1.18382 12.4211 1.18384V1.21404Z" fill="white"/>
<path d="M14.0115 15.9991L1.5331 15.9568C1.27743 15.9585 1.02551 15.8923 0.800789 15.7645C0.576065 15.6368 0.385836 15.4515 0.247797 15.226C0.109039 15 0.0263423 14.7414 0.00721765 14.4735C-0.011907 14.2055 0.0331452 13.9369 0.138285 13.6918L3.5965 5.67674C3.70134 5.43268 3.87149 5.22573 4.08633 5.081C4.30117 4.93627 4.55147 4.85997 4.80687 4.86135C5.06227 4.85997 5.31258 4.93627 5.52742 5.081C5.74226 5.22573 5.91241 5.43268 6.01725 5.67674L8.66855 11.7953L10.3227 9.0833C10.4422 8.88492 10.6077 8.72149 10.8037 8.60822C10.9997 8.49496 11.2199 8.43556 11.4438 8.43556C11.6676 8.43556 11.8878 8.49496 12.0838 8.60822C12.2799 8.72149 12.4453 8.88492 12.5648 9.0833L15.3026 13.5408C15.4512 13.7825 15.5347 14.0619 15.5442 14.3493C15.5537 14.6367 15.4889 14.9215 15.3566 15.1734C15.2243 15.4254 15.0294 15.6351 14.7926 15.7805C14.5558 15.9258 14.2859 16.0014 14.0115 15.9991ZM4.82993 6.06934C4.79563 6.06791 4.76175 6.07757 4.73287 6.09702C4.704 6.11647 4.68154 6.14477 4.66855 6.17806L1.21033 14.1931C1.18566 14.2535 1.17558 14.3192 1.18098 14.3846C1.18639 14.45 1.20712 14.513 1.24133 14.568C1.27555 14.6229 1.32219 14.6682 1.37711 14.6998C1.43203 14.7313 1.49352 14.7482 1.55615 14.7488H14.0115C14.0788 14.7491 14.1449 14.7303 14.2029 14.6945C14.2609 14.6587 14.3086 14.6072 14.3411 14.5454C14.3735 14.4836 14.3895 14.4138 14.3872 14.3433C14.385 14.2728 14.3647 14.2042 14.3285 14.1448L11.6426 9.72958C11.6267 9.70314 11.6046 9.68146 11.5783 9.66664C11.552 9.65182 11.5226 9.64437 11.4928 9.64502C11.463 9.64494 11.4338 9.65263 11.4076 9.6674C11.3814 9.68216 11.3592 9.70354 11.3429 9.72958L9.0548 13.4947C8.84418 13.8413 8.33028 13.8061 8.16884 13.4341L5.02013 6.17806C5.00714 6.14477 4.98468 6.11647 4.95581 6.09702C4.92694 6.07757 4.89305 6.06791 4.85875 6.06934H4.82993Z" fill="white"/>
<path d="M0.576369 9.26498C0.423507 9.26498 0.276904 9.20135 0.168814 9.08808C0.060724 8.9748 0 8.82117 0 8.66098V3.4666C0.00152382 2.5508 0.349356 1.67296 0.967302 1.02539C1.58525 0.377823 2.42293 0.0133156 3.29683 0.0117188H7.76369C7.91656 0.0117188 8.06316 0.0753537 8.17125 0.188626C8.27934 0.301897 8.34006 0.455527 8.34006 0.615718C8.34006 0.775909 8.27934 0.929539 8.17125 1.04281C8.06316 1.15608 7.91656 1.21972 7.76369 1.21972H3.29683C2.72865 1.22131 2.18418 1.45854 1.78241 1.87957C1.38065 2.30059 1.15426 2.87118 1.15274 3.4666V8.66098C1.15274 8.82117 1.09201 8.9748 0.983924 9.08808C0.875834 9.20135 0.729232 9.26498 0.576369 9.26498Z" fill="white"/>
</svg>
