<svg width="12" height="21" viewBox="0 0 12 21" fill="none" xmlns="http://www.w3.org/2000/svg">
    <path d="M5.68975 14.3465C4.64505 14.3447 3.64366 13.924 2.90495 13.1764C2.16623 12.4289 1.75044 11.4155 1.74866 10.3584V3.98817C1.75044 2.931 2.16623 1.91763 2.90495 1.1701C3.64366 0.422558 4.64505 0.00179945 5.68975 0C6.73444 0.00179945 7.73585 0.422558 8.47456 1.1701C9.21327 1.91763 9.62906 2.931 9.63084 3.98817V10.3584C9.62906 11.4155 9.21327 12.4289 8.47456 13.1764C7.73585 13.924 6.73444 14.3447 5.68975 14.3465ZM5.68975 1.36115C5.00179 1.36295 4.34252 1.6403 3.85605 2.13257C3.36959 2.62485 3.09551 3.292 3.09374 3.98817V10.3584C3.09551 11.0545 3.36959 11.7217 3.85605 12.214C4.34252 12.7062 5.00179 12.9836 5.68975 12.9854C6.03066 12.9854 6.36823 12.9174 6.6832 12.7854C6.99816 12.6534 7.28434 12.4599 7.5254 12.2159C7.76646 11.972 7.95769 11.6824 8.08815 11.3637C8.21861 11.045 8.28576 10.7033 8.28576 10.3584V3.98817C8.28576 3.64319 8.21861 3.30158 8.08815 2.98285C7.95769 2.66413 7.76646 2.37453 7.5254 2.13059C7.28434 1.88665 6.99816 1.69314 6.6832 1.56112C6.36823 1.4291 6.03066 1.36115 5.68975 1.36115Z" fill="#B3B3B3"/>
    <path d="M10.7137 10.9776C10.5601 10.9731 10.4096 11.0219 10.2872 11.116C10.1648 11.2101 10.078 11.3438 10.0412 11.4948C9.81992 12.4923 9.26995 13.3841 8.48165 14.0235C7.69335 14.6629 6.7136 15.012 5.70332 15.0134C4.69188 15.0135 3.71055 14.6651 2.92087 14.0256C2.1312 13.3861 1.58023 12.4935 1.3587 11.4948C1.32187 11.3438 1.23506 11.2101 1.11269 11.116C0.990324 11.0219 0.839787 10.9731 0.686155 10.9776C0.585286 10.9755 0.485251 10.9964 0.393458 11.0388C0.301665 11.0812 0.220466 11.1439 0.155879 11.2223C0.0912906 11.3008 0.0449727 11.3929 0.0203462 11.4919C-0.00428039 11.5909 -0.0065844 11.6942 0.0136142 11.7943C0.302296 13.0942 1.01965 14.256 2.04765 15.0885C3.07564 15.9209 4.35305 16.3745 5.66969 16.3745C6.98401 16.3714 8.25828 15.9164 9.28353 15.0842C10.3088 14.252 11.0241 13.0919 11.3123 11.7943C11.3325 11.6942 11.3302 11.5909 11.3056 11.4919C11.281 11.3929 11.2346 11.3008 11.17 11.2223C11.1055 11.1439 11.0243 11.0812 10.9325 11.0388C10.8407 10.9964 10.7406 10.9755 10.6398 10.9776H10.7137Z" fill="#B3B3B3"/>
    <path d="M5.68987 19.9544C5.51151 19.9544 5.34044 19.8827 5.21432 19.7551C5.08819 19.6274 5.01733 19.4543 5.01733 19.2738V15.694C5.01733 15.5135 5.08819 15.3404 5.21432 15.2128C5.34044 15.0851 5.51151 15.0134 5.68987 15.0134C5.86824 15.0134 6.03931 15.0851 6.16543 15.2128C6.29156 15.3404 6.36242 15.5135 6.36242 15.694V19.2738C6.36242 19.4543 6.29156 19.6274 6.16543 19.7551C6.03931 19.8827 5.86824 19.9544 5.68987 19.9544Z" fill="#B3B3B3"/>
    <path d="M7.76138 20.0767H3.61852C3.44016 20.0767 3.26909 20.005 3.14297 19.8774C3.01684 19.7498 2.94598 19.5767 2.94598 19.3962C2.94598 19.2157 3.01684 19.0425 3.14297 18.9149C3.26909 18.7873 3.44016 18.7156 3.61852 18.7156H7.76138C7.93975 18.7156 8.11081 18.7873 8.23694 18.9149C8.36306 19.0425 8.43392 19.2157 8.43392 19.3962C8.43392 19.5767 8.36306 19.7498 8.23694 19.8774C8.11081 20.005 7.93975 20.0767 7.76138 20.0767Z" fill="#B3B3B3"/>
    </svg>
    