<svg width="26" height="22" viewBox="0 0 26 22" fill="none" xmlns="http://www.w3.org/2000/svg">
    <g clip-path="url(#clip0_150_10640)">
    <path d="M17.9295 22C17.5212 21.9996 17.1231 21.8764 16.7905 21.6474L12.1991 18.491H6.36205C4.67155 18.491 3.05015 17.8425 1.85394 16.6879C0.65774 15.5333 -0.0154645 13.967 -0.0178223 12.3331V6.15794C-0.0154645 4.52396 0.65774 2.95768 1.85394 1.80309C3.05015 0.648495 4.67155 -1.5892e-06 6.36205 0H19.6112C21.3017 -1.5892e-06 22.9231 0.648495 24.1193 1.80309C25.3155 2.95768 25.9887 4.52396 25.9911 6.15794V12.3331C25.9898 13.9305 25.3472 15.4651 24.1987 16.6137C23.0502 17.7623 21.4853 18.4353 19.8336 18.491V20.0993C19.8404 20.4539 19.7438 20.8032 19.555 21.1074C19.3662 21.4115 19.0928 21.6582 18.7659 21.8194C18.505 21.9405 18.2189 22.0023 17.9295 22ZM6.36205 1.72009C5.14352 1.72009 3.97478 2.18737 3.11231 3.01938C2.24985 3.85139 1.76414 4.98016 1.76178 6.15794V12.3331C1.76414 13.5108 2.24985 14.6396 3.11231 15.4716C3.97478 16.3036 5.14352 16.7709 6.36205 16.7709H12.7063L17.7604 20.2111C17.7895 20.2296 17.8235 20.2394 17.8583 20.2394C17.8931 20.2394 17.9271 20.2296 17.9562 20.2111C17.9872 20.1961 18.013 20.1726 18.0304 20.1435C18.0478 20.1145 18.056 20.0812 18.054 20.0477V16.7193H19.6112C20.8297 16.7193 21.9985 16.252 22.8609 15.42C23.7234 14.588 24.2091 13.4592 24.2115 12.2815V6.10634C24.2091 4.92856 23.7234 3.79979 22.8609 2.96778C21.9985 2.13577 20.8297 1.66849 19.6112 1.66849L6.36205 1.72009Z" fill="white"/>
    <path d="M12.5907 13.391C12.3547 13.391 12.1284 13.3003 11.9615 13.1391C11.7946 12.9778 11.7009 12.759 11.7009 12.5309V5.69354C11.7009 5.46544 11.7946 5.2467 11.9615 5.08541C12.1284 4.92412 12.3547 4.8335 12.5907 4.8335C12.8267 4.8335 13.053 4.92412 13.2199 5.08541C13.3867 5.2467 13.4805 5.46544 13.4805 5.69354V12.5309C13.4805 12.759 13.3867 12.9778 13.2199 13.1391C13.053 13.3003 12.8267 13.391 12.5907 13.391Z" fill="white"/>
    <path d="M16.1499 9.9679H9.03146C8.79547 9.9679 8.56915 9.8773 8.40228 9.71601C8.23541 9.55472 8.14166 9.33595 8.14166 9.10785C8.14166 8.87975 8.23541 8.66101 8.40228 8.49972C8.56915 8.33843 8.79547 8.2478 9.03146 8.2478H16.1499C16.3859 8.2478 16.6122 8.33843 16.7791 8.49972C16.9459 8.66101 17.0397 8.87975 17.0397 9.10785C17.0397 9.33595 16.9459 9.55472 16.7791 9.71601C16.6122 9.8773 16.3859 9.9679 16.1499 9.9679Z" fill="white"/>
    </g>
    <defs>
    <clipPath id="clip0_150_10640">
    <rect width="26" height="22" fill="white"/>
    </clipPath>
    </defs>
    </svg>
    