<svg width="17" height="17" viewBox="0 0 17 17" fill="none" xmlns="http://www.w3.org/2000/svg">
<path d="M12.3999 16.5463H4.49198C3.47274 16.5463 2.49484 16.1197 1.77156 15.3595C1.04829 14.5993 0.638332 13.5671 0.631104 12.4882V4.0879C0.638332 3.00897 1.04829 1.97682 1.77156 1.2166C2.49484 0.456376 3.47274 0.029758 4.49198 0.0297852H9.38243L16.2608 7.7518V12.4882C16.2536 13.5671 15.8436 14.5993 15.1204 15.3595C14.3971 16.1197 13.4192 16.5463 12.3999 16.5463ZM4.49198 1.16026C3.76365 1.16173 3.06515 1.46667 2.54759 2.00914C2.03002 2.5516 1.73502 3.28796 1.72639 4.05891V12.4302C1.72784 13.2062 2.01967 13.95 2.53801 14.4987C3.05635 15.0474 3.75894 15.3563 4.49198 15.3579H12.3999C13.133 15.3563 13.8356 15.0474 14.3539 14.4987C14.8723 13.95 15.1641 13.2062 15.1656 12.4302V8.15181L8.91146 1.16026H4.49198Z" fill="#2C75E3"/>
<path d="M15.7132 8.52283H15.6804L12.0385 8.30253C11.0164 8.23828 10.0602 7.74748 9.37949 6.93779C8.69881 6.12811 8.3493 5.06566 8.40766 3.98354L8.59387 0.545741C8.60041 0.432613 8.63813 0.32399 8.70237 0.233318C8.76661 0.142646 8.85454 0.0738988 8.9553 0.0355749C9.05568 -0.00346755 9.16465 -0.0105524 9.26878 0.0152026C9.37291 0.0409577 9.46764 0.0984257 9.54128 0.180508L16.113 7.54889C16.1872 7.63125 16.2368 7.73489 16.2557 7.8469C16.2746 7.95892 16.262 8.07434 16.2194 8.1788C16.1768 8.28325 16.106 8.37213 16.016 8.43434C15.926 8.49655 15.8207 8.52934 15.7132 8.52863V8.52283ZM9.50294 4.04731C9.4785 4.43137 9.52656 4.81675 9.64432 5.18093C9.76208 5.54512 9.94717 5.88083 10.1888 6.16847C10.4305 6.45612 10.7238 6.68993 11.0517 6.85627C11.3797 7.0226 11.7356 7.11813 12.0988 7.13728L14.366 7.27642L9.59605 1.95448L9.50294 4.04731Z" fill="#2C75E3"/>
<path d="M8.21025 8.98661H4.02079C3.87554 8.98661 3.73624 8.92553 3.63354 8.81681C3.53083 8.70809 3.47314 8.56063 3.47314 8.40688C3.47314 8.25313 3.53083 8.10567 3.63354 7.99695C3.73624 7.88823 3.87554 7.82715 4.02079 7.82715H8.21025C8.3555 7.82715 8.49478 7.88823 8.59749 7.99695C8.70019 8.10567 8.7579 8.25313 8.7579 8.40688C8.7579 8.56063 8.70019 8.70809 8.59749 8.81681C8.49478 8.92553 8.3555 8.98661 8.21025 8.98661Z" fill="#2C75E3"/>
<path d="M6.76999 11.3406H4.03177C3.88653 11.3406 3.74724 11.2795 3.64454 11.1708C3.54184 11.0621 3.48413 10.9146 3.48413 10.7609C3.48413 10.6071 3.54184 10.4597 3.64454 10.351C3.74724 10.2422 3.88653 10.1812 4.03177 10.1812H6.76999C6.91523 10.1812 7.05454 10.2422 7.15724 10.351C7.25994 10.4597 7.31763 10.6071 7.31763 10.7609C7.31763 10.9146 7.25994 11.0621 7.15724 11.1708C7.05454 11.2795 6.91523 11.3406 6.76999 11.3406Z" fill="#2C75E3"/>
<path d="M6.76999 13.6941H4.03177C3.88653 13.6941 3.74724 13.6331 3.64454 13.5243C3.54184 13.4156 3.48413 13.2682 3.48413 13.1144C3.48413 12.9606 3.54184 12.8132 3.64454 12.7045C3.74724 12.5957 3.88653 12.5347 4.03177 12.5347H6.76999C6.91523 12.5347 7.05454 12.5957 7.15724 12.7045C7.25994 12.8132 7.31763 12.9606 7.31763 13.1144C7.31763 13.2682 7.25994 13.4156 7.15724 13.5243C7.05454 13.6331 6.91523 13.6941 6.76999 13.6941Z" fill="#2C75E3"/>
</svg>
