<svg width="17" height="16" viewBox="0 0 17 16" fill="none" xmlns="http://www.w3.org/2000/svg">
<path d="M12.058 0H4.80064C2.49327 0 0.623047 1.81045 0.623047 4.0435V11.0379C0.623047 13.2709 2.49327 15.0814 4.80064 15.0814H12.058C14.3653 15.0814 16.2356 13.2709 16.2356 11.0379V4.0435C16.2356 1.81045 14.365 0 12.058 0Z" fill="#2C75E3"/>
<path fill-rule="evenodd" clip-rule="evenodd" d="M9.49731 9.55008C9.43183 9.62681 9.36077 9.67638 9.28041 9.69621C9.17773 9.72191 9.08249 9.69474 9.01776 9.66977C8.04079 9.29013 7.32611 8.5984 7.32611 8.5984C7.32611 8.5984 6.61217 7.90741 6.22004 6.96198C6.194 6.8992 6.1661 6.80704 6.19251 6.70791C6.21334 6.63007 6.26431 6.56141 6.34356 6.4979C7.22119 5.78855 7.47976 5.71438 7.29448 5.34686C6.46521 3.70089 6.45889 3.53787 6.26803 3.46444C5.76169 3.26948 5.18876 3.62269 5.10691 3.67335C4.2914 4.17636 4.11803 5.23047 4.13515 5.59652C4.18686 6.71232 4.80853 8.25364 6.16647 9.70171C7.63899 11.1421 9.29641 11.8331 10.4281 11.6877C10.5729 11.6689 11.9248 11.5404 12.4152 10.747C12.471 10.6567 12.8308 10.1089 12.631 9.62314C12.5551 9.43883 12.4304 9.34006 10.686 8.62998C10.5978 8.59363 10.4207 8.46806 9.49731 9.55008Z" fill="white"/>
</svg>
