<svg width="82" height="82" viewBox="0 0 82 82" fill="none" xmlns="http://www.w3.org/2000/svg">
<g opacity="0.6" clip-path="url(#clip0_1739_1816)">
<path d="M40.9209 0C32.8275 0 24.9159 2.40002 18.1864 6.89647C11.457 11.3929 6.21223 17.7839 3.11502 25.2612C0.017808 32.7385 -0.792669 40.9665 0.786277 48.9044C2.36522 56.8423 6.2626 64.1336 11.9855 69.8565C17.7084 75.5794 24.9997 79.4768 32.9376 81.0557C40.8755 82.6347 49.1035 81.8242 56.5808 78.727C64.0581 75.6298 70.4491 70.385 74.9455 63.6556C79.442 56.9261 81.842 49.0143 81.842 40.9209C81.842 30.068 77.5307 19.6597 69.8565 11.9855C62.1823 4.31135 51.7738 0 40.9209 0ZM41.2533 77.3968C34.1112 77.3968 27.1298 75.2785 21.192 71.3097C15.2541 67.3409 10.6267 61.7 7.89549 55.1008C5.16425 48.5016 4.45183 41.2406 5.8482 34.2364C7.24457 27.2322 10.6872 20.7995 15.7403 15.7522C20.7934 10.705 27.2298 7.27001 34.2356 5.8817C41.2414 4.4934 48.5017 5.21424 55.0977 7.95308C61.6937 10.6919 67.3292 15.3257 71.2912 21.2681C75.2531 27.2104 77.3634 34.1944 77.3552 41.3365C77.3442 50.9041 73.5358 60.0761 66.7665 66.8376C59.9973 73.599 50.8209 77.3968 41.2533 77.3968Z" fill="white"/>
<path d="M62.8578 37.6805L30.6611 19.2349C30.0925 18.9067 29.4476 18.7338 28.7911 18.7339C28.1345 18.734 27.4895 18.907 26.921 19.2354C26.3525 19.5639 25.8808 20.0362 25.5528 20.6049C25.2248 21.1737 25.0523 21.819 25.0527 22.4755V59.8652C25.0523 60.5218 25.2248 61.1668 25.5528 61.7355C25.8808 62.3043 26.3525 62.7766 26.921 63.105C27.4895 63.4335 28.1345 63.6065 28.7911 63.6066C29.4476 63.6067 30.0925 63.4338 30.6611 63.1055L62.8578 44.1614C63.4273 43.8336 63.9004 43.3613 64.2294 42.7924C64.5583 42.2235 64.7314 41.578 64.7314 40.9208C64.7314 40.2637 64.5583 39.6182 64.2294 39.0493C63.9004 38.4804 63.4273 38.0084 62.8578 37.6805Z" fill="white"/>
</g>
<defs>
<clipPath id="clip0_1739_1816">
<rect width="81.842" height="81.842" fill="white"/>
</clipPath>
</defs>
</svg>
