<svg width="22" height="16" viewBox="0 0 22 16" fill="none" xmlns="http://www.w3.org/2000/svg">
<path d="M11.68 0.0127741C11.0334 -0.0392832 10.384 0.0682871 9.78898 0.325977C9.194 0.583667 8.67185 0.98354 8.26864 1.49026C7.86512 0.983893 7.3429 0.584274 6.748 0.326619C6.1531 0.0689632 5.50378 -0.0388175 4.85726 0.0127741C3.92974 0.0647754 3.04795 0.431605 2.35834 1.05235C1.66874 1.67309 1.21281 2.51038 1.06626 3.42519C0.864413 4.45055 0.902106 5.5085 1.17642 6.51699C1.45073 7.52548 1.95429 8.45741 2.64804 9.24051C3.83595 10.6487 5.31658 11.7825 6.9874 12.5635C7.06778 12.5985 7.15564 12.613 7.24303 12.6055C7.33042 12.5981 7.41457 12.5691 7.48787 12.5211C7.56116 12.473 7.62129 12.4075 7.66279 12.3305C7.7043 12.2534 7.72587 12.1673 7.72556 12.0798C7.72528 11.9807 7.69691 11.8837 7.64374 11.8C7.59057 11.7162 7.51474 11.6492 7.42502 11.6066C5.8235 10.8576 4.41496 9.75336 3.30712 8.3782C2.76602 7.72864 2.37806 6.96623 2.17182 6.14721C1.96558 5.32819 1.94633 4.47346 2.1155 3.64603C2.21316 2.95605 2.54766 2.32116 3.06199 1.84948C3.57633 1.37779 4.2387 1.09848 4.93635 1.05911C5.53033 0.994084 6.12941 1.1236 6.64306 1.42809C7.15671 1.73258 7.55703 2.1955 7.78355 2.74692C7.79974 2.78028 7.81917 2.81198 7.84156 2.84156L7.89955 2.92043L7.97337 2.97827L8.06828 3.03085H8.09991C8.09991 3.03085 8.1421 3.03085 8.15792 3.03085H8.26864H8.3741C8.39511 3.03338 8.41635 3.03338 8.43737 3.03085H8.469C8.50054 3.01631 8.53056 2.9987 8.55862 2.97827C8.58673 2.96148 8.61322 2.94212 8.63773 2.92043L8.69572 2.84156C8.7183 2.81306 8.73611 2.7811 8.74845 2.74692C8.97497 2.1955 9.37529 1.73258 9.88894 1.42809C10.4026 1.1236 11.0017 0.994084 11.5956 1.05911C12.3327 1.08923 13.0297 1.4019 13.5412 1.93193C13.6431 2.03901 13.7834 2.10142 13.9314 2.10545C14.0348 2.10719 14.1363 2.0786 14.2235 2.02324C14.3107 1.96788 14.3797 1.88819 14.4218 1.79407C14.4639 1.69994 14.4774 1.59555 14.4605 1.49386C14.4436 1.39217 14.3972 1.29767 14.3269 1.22211C13.6263 0.504448 12.6825 0.0732194 11.68 0.0127741Z" fill="#2C75E3"/>
<path d="M21.429 6.4643C21.2826 5.54893 20.8269 4.71095 20.1374 4.08934C19.4479 3.46772 18.566 3.09981 17.638 3.04662C16.9916 2.99642 16.3428 3.10483 15.7481 3.36238C15.1534 3.61994 14.6311 4.0188 14.2266 4.52411C13.8222 4.0188 13.2998 3.61994 12.7052 3.36238C12.1105 3.10483 11.4616 2.99642 10.8153 3.04662C9.88728 3.09981 9.00541 3.46772 8.3159 4.08934C7.62638 4.71095 7.17064 5.54893 7.02426 6.4643C6.82241 7.48966 6.86012 8.5476 7.13443 9.55609C7.40875 10.5646 7.91229 11.4965 8.60604 12.2796C10.4884 14.5931 13.4463 16.0023 14.2425 16.0023C15.0386 16.0023 17.9966 14.5931 19.8789 12.2796C20.5671 11.4937 21.0649 10.5605 21.3336 9.55214C21.6024 8.54377 21.6351 7.48726 21.429 6.4643ZM19.204 11.4173C17.4798 13.673 14.6854 14.9191 14.2319 14.9507C13.7785 14.9822 10.9734 13.673 9.25458 11.4173C8.71257 10.7682 8.32364 10.006 8.11648 9.18696C7.90933 8.36792 7.88924 7.51295 8.0577 6.68514C8.15553 5.99571 8.4902 5.36149 9.00463 4.89068C9.51905 4.41987 10.1814 4.14164 10.8785 4.10347C11.472 4.03718 12.071 4.16556 12.5848 4.46917C13.0985 4.77277 13.4991 5.23506 13.7258 5.78602V5.81757C13.7569 5.87723 13.794 5.9336 13.8365 5.98583L13.9103 6.04366C13.9418 6.06601 13.9753 6.08537 14.0105 6.1015C14.0105 6.1015 14.0105 6.1015 14.0368 6.1015H14.0948C14.1316 6.10661 14.1688 6.10661 14.2056 6.1015C14.2405 6.10701 14.2761 6.10701 14.311 6.1015H14.3743H14.4059L14.4955 6.04366C14.5379 6.03288 14.5775 6.01315 14.6115 5.98583C14.6337 5.96364 14.6532 5.93893 14.6695 5.91221C14.6911 5.88303 14.7088 5.85123 14.7223 5.81757V5.78602C14.9489 5.23506 15.3495 4.77277 15.8633 4.46917C16.377 4.16556 16.976 4.03718 17.5695 4.10347C18.2667 4.14164 18.929 4.41987 19.4434 4.89068C19.9578 5.36149 20.2925 5.99571 20.3903 6.68514C20.5591 7.51221 20.5401 8.36645 20.3348 9.18527C20.1296 10.0041 19.7432 10.7667 19.204 11.4173Z" fill="#2C75E3"/>
</svg>
