<svg width="20" height="17" viewBox="0 0 20 17" fill="none" xmlns="http://www.w3.org/2000/svg">
<path d="M13.9731 12.862C13.8506 12.9629 13.7542 13.091 13.692 13.2359C13.6596 13.2795 13.6241 13.3207 13.5857 13.3592C13.3778 13.5736 13.1269 13.743 12.8489 13.8565L10.4751 14.8623C10.1966 14.98 9.8969 15.041 9.5939 15.0418C9.28061 15.0407 8.9711 14.9745 8.68565 14.8475C8.4002 14.7204 8.14525 14.5353 7.93758 14.3044C7.72991 14.0735 7.57421 13.8019 7.48067 13.5076C7.38713 13.2132 7.3579 12.9027 7.39486 12.5965L7.70247 10.0615C7.73389 9.76857 7.8284 9.48555 7.97972 9.23143C8.0407 9.12491 8.11896 9.02892 8.2114 8.94726C8.24272 8.86958 8.28493 8.79661 8.33677 8.73042L12.6323 3.0734C12.6811 3.00874 12.7371 2.94979 12.7995 2.89768C12.8302 2.8228 12.8711 2.75235 12.921 2.68828L14.2162 0.98709C13.5336 0.351944 12.6296 -0.00134445 11.6904 3.84505e-06H3.68414C2.70706 3.84505e-06 1.76996 0.382109 1.07905 1.06226C0.388147 1.74241 0 2.66488 0 3.62676V12.5741C0 13.5359 0.388147 14.4584 1.07905 15.1386C1.76996 15.8187 2.70706 16.2008 3.68414 16.2008H11.6904C12.6679 16.2008 13.6053 15.8188 14.2968 15.1388C14.9883 14.4587 15.3773 13.5363 15.3783 12.5741V11.0261L13.9731 12.862ZM5.09701 2.36674C5.25551 2.36674 5.41045 2.413 5.54223 2.49969C5.67402 2.58638 5.77673 2.70962 5.83738 2.85378C5.89804 2.99793 5.91393 3.15652 5.883 3.30955C5.85208 3.46259 5.77574 3.60319 5.66366 3.71352C5.55158 3.82385 5.4088 3.89897 5.25335 3.92941C5.09789 3.95985 4.93675 3.94425 4.79032 3.88454C4.64388 3.82483 4.51874 3.72368 4.43068 3.59394C4.34262 3.46421 4.29563 3.31168 4.29563 3.15565C4.29563 2.94641 4.38003 2.74577 4.53032 2.59782C4.68061 2.44987 4.88447 2.36674 5.09701 2.36674ZM2.81818 2.36674C2.97684 2.366 3.13213 2.41163 3.26442 2.49786C3.39671 2.5841 3.50004 2.70709 3.56128 2.85117C3.62252 2.99526 3.63893 3.15399 3.60843 3.30727C3.57794 3.46055 3.50189 3.60145 3.38997 3.71215C3.27805 3.82286 3.13526 3.89839 2.9797 3.92913C2.82415 3.95988 2.66282 3.94446 2.51617 3.88486C2.36951 3.82526 2.24415 3.72417 2.15593 3.59435C2.0677 3.46454 2.02059 3.31184 2.02059 3.15565C2.02057 2.94834 2.10341 2.74938 2.25125 2.60174C2.39908 2.45411 2.60001 2.36968 2.81057 2.36674H2.81818ZM2.25227 4.74844C2.32602 4.67446 2.41413 4.61583 2.51135 4.57601C2.60856 4.53619 2.71289 4.51599 2.81818 4.51663H8.06327C8.1729 4.50919 8.28291 4.52403 8.38647 4.56022C8.49002 4.5964 8.58492 4.65313 8.66525 4.72694C8.74558 4.80076 8.80964 4.89008 8.85344 4.98929C8.89723 5.0885 8.91983 5.19549 8.91983 5.30367C8.91983 5.41184 8.89723 5.51888 8.85344 5.61809C8.80964 5.7173 8.74558 5.80658 8.66525 5.88039C8.58492 5.95421 8.49002 6.01098 8.38647 6.04717C8.28291 6.08335 8.1729 6.09815 8.06327 6.09071H2.81818C2.66067 6.08969 2.50695 6.04304 2.37624 5.95652C2.24554 5.87 2.14365 5.74747 2.08328 5.60426C2.0229 5.46105 2.00672 5.30348 2.03677 5.15127C2.06683 4.99906 2.14179 4.85895 2.25227 4.74844ZM5.77308 13.0975C5.69863 13.1703 5.61032 13.2279 5.51321 13.267C5.4161 13.3062 5.3121 13.3261 5.20717 13.3256H2.81818C2.61566 13.3118 2.42597 13.2229 2.28746 13.0768C2.14894 12.9308 2.07192 12.7384 2.07192 12.5386C2.07192 12.3387 2.14894 12.1463 2.28746 12.0002C2.42597 11.8541 2.61566 11.7652 2.81818 11.7515H5.20717C5.36545 11.7518 5.5201 11.7982 5.65161 11.8849C5.78312 11.9716 5.88557 12.0947 5.9461 12.2387C6.00663 12.3827 6.02252 12.5411 5.99172 12.6939C5.96093 12.8468 5.88485 12.9872 5.77308 13.0975ZM5.77308 10.6784C5.69932 10.7524 5.61121 10.811 5.514 10.8508C5.41679 10.8906 5.31246 10.9108 5.20717 10.9102H2.81818C2.60563 10.9102 2.40177 10.8271 2.25148 10.6792C2.10119 10.5312 2.01679 10.3305 2.01679 10.1213C2.01679 9.91206 2.10119 9.71142 2.25148 9.56347C2.40177 9.41552 2.60563 9.33239 2.81818 9.33239H5.20717C5.36545 9.33268 5.5201 9.37913 5.65161 9.46584C5.78312 9.55255 5.88557 9.67564 5.9461 9.81961C6.00663 9.96358 6.02252 10.122 5.99172 10.2748C5.96093 10.4276 5.88485 10.5681 5.77308 10.6784ZM6.65421 8.25931C6.50423 8.40735 6.30069 8.49073 6.0883 8.49112H2.81818C2.60563 8.49112 2.40177 8.40799 2.25148 8.26004C2.10119 8.11209 2.01679 7.91145 2.01679 7.70221C2.01679 7.49298 2.10119 7.29233 2.25148 7.14438C2.40177 6.99643 2.60563 6.9133 2.81818 6.9133H6.0883C6.24658 6.9136 6.40122 6.96 6.53273 7.04671C6.66424 7.13342 6.76675 7.25655 6.82728 7.40052C6.88781 7.5445 6.90365 7.70287 6.87285 7.8557C6.84206 8.00854 6.76598 8.14899 6.65421 8.25931Z" fill="#149CBE"/>
<mask id="mask0_1_8480" style="mask-type:luminance" maskUnits="userSpaceOnUse" x="13" y="1" width="7" height="6">
<path d="M18.8495 3.2236L16.3466 1.38028C16.1731 1.25394 15.9559 1.20035 15.7424 1.23117C15.5288 1.262 15.3364 1.37476 15.2071 1.54482L13.8398 3.34697L17.6379 6.15117L19.0052 4.34902C19.136 4.17939 19.193 3.96559 19.1638 3.75459C19.1346 3.54359 19.0215 3.35263 18.8495 3.2236Z" fill="white"/>
</mask>
<g mask="url(#mask0_1_8480)">
<path d="M13.832 6.08801L13.927 6.15157H13.832V6.08801Z" fill="#149CBE"/>
<path d="M13.832 5.91577L14.1663 6.15132H13.927L13.832 6.08776V5.91577Z" fill="#149CBE"/>
<path d="M13.832 5.74805L14.4017 6.15185H14.1663L13.832 5.9163V5.74805Z" fill="#149CBE"/>
<path d="M13.832 5.58008L14.641 6.15214H14.4017L13.832 5.74833V5.58008Z" fill="#149CBE"/>
<path d="M13.832 5.4082L14.8803 6.15225H14.641L13.832 5.58019V5.4082Z" fill="#149CBE"/>
<path d="M13.832 5.23828L15.1196 6.15058H14.8803L13.832 5.40653V5.23828Z" fill="#149CBE"/>
<path d="M13.832 5.07031L15.3589 6.15087H15.1196L13.832 5.23857V5.07031Z" fill="#149CBE"/>
<path d="M13.832 4.89844L15.5943 6.15098H15.3589L13.832 5.07043V4.89844Z" fill="#149CBE"/>
<path d="M13.832 4.73047L15.8336 6.15127H15.5943L13.832 4.89872V4.73047Z" fill="#149CBE"/>
<path d="M13.832 4.56238L16.0729 6.15143H15.8336L13.832 4.73063V4.56238Z" fill="#149CBE"/>
<path d="M13.832 4.3905L16.3122 6.15154H16.0729L13.832 4.56249V4.3905Z" fill="#149CBE"/>
<path d="M13.832 4.22266L16.5514 6.15195H16.3122L13.832 4.39091V4.22266Z" fill="#149CBE"/>
<path d="M13.832 4.05469L16.7907 6.15223H16.5514L13.832 4.22294V4.05469Z" fill="#149CBE"/>
<path d="M13.832 3.88281L17.03 6.15235H16.7907L13.832 4.0548V3.88281Z" fill="#149CBE"/>
<path d="M13.832 3.71289L17.2655 6.15068H17.03L13.832 3.88114V3.71289Z" fill="#149CBE"/>
<path d="M13.832 3.54492L17.5048 6.15096H17.2655L13.832 3.71317V3.54492Z" fill="#149CBE"/>
<path d="M13.832 3.37305L17.744 6.15108H17.5048L13.832 3.54504V3.37305Z" fill="#149CBE"/>
<path d="M13.832 3.2052L17.9833 6.15149H17.744L13.832 3.37345V3.2052Z" fill="#149CBE"/>
<path d="M13.832 2.06866L14.5309 1.11523H19.286V5.27294L18.6404 6.15159H17.9833L13.832 3.2053V2.06866Z" fill="#149CBE"/>
</g>
<mask id="mask1_1_8480" style="mask-type:luminance" maskUnits="userSpaceOnUse" x="8" y="9" width="5" height="5">
<path d="M8.83628 10.17L8.52866 12.7125C8.50365 12.9006 8.53026 13.0918 8.60576 13.2663C8.68126 13.4409 8.80286 13.5923 8.95793 13.7049C9.11301 13.8175 9.29591 13.8871 9.48758 13.9066C9.67926 13.926 9.87274 13.8945 10.0479 13.8155L12.4368 12.806C12.5686 12.7504 12.6875 12.6689 12.7863 12.5667L8.98821 9.77368C8.90977 9.89378 8.85799 10.0288 8.83628 10.17Z" fill="white"/>
</mask>
<g mask="url(#mask1_1_8480)">
<path d="M8.42969 13.7737L8.94622 14.1364H8.70695L8.42969 13.9419V13.7737Z" fill="#149CBE"/>
<path d="M8.42969 13.6018L9.1855 14.1365H8.94622L8.42969 13.7738V13.6018Z" fill="#149CBE"/>
<path d="M8.42969 13.4338L9.42098 14.1368H9.1855L8.42969 13.6021V13.4338Z" fill="#149CBE"/>
<path d="M8.42969 13.266L9.66026 14.1372H9.42098L8.42969 13.4342V13.266Z" fill="#149CBE"/>
<path d="M8.42969 13.0939L9.89954 14.137H9.66026L8.42969 13.2659V13.0939Z" fill="#149CBE"/>
<path d="M8.42969 12.926L10.1388 14.1374H9.89954L8.42969 13.0943V12.926Z" fill="#149CBE"/>
<path d="M8.42969 12.7581L10.3781 14.1377H10.1388L8.42969 12.9263V12.7581Z" fill="#149CBE"/>
<path d="M8.42969 12.5862L10.6174 14.1378H10.3781L8.42969 12.7582V12.5862Z" fill="#149CBE"/>
<path d="M8.42969 12.4182L10.8528 14.1381H10.6174L8.42969 12.5865V12.4182Z" fill="#149CBE"/>
<path d="M8.42969 12.2483L11.0921 14.1365H10.8528L8.42969 12.4165V12.2483Z" fill="#149CBE"/>
<path d="M8.42969 12.0764L11.3314 14.1366H11.0921L8.42969 12.2484V12.0764Z" fill="#149CBE"/>
<path d="M8.42969 11.9084L11.5707 14.1369H11.3314L8.42969 12.0767V11.9084Z" fill="#149CBE"/>
<path d="M8.42969 11.7404L11.81 14.137H11.5707L8.42969 11.9086V11.7404Z" fill="#149CBE"/>
<path d="M8.42969 11.5685L12.0492 14.1371H11.81L8.42969 11.7405V11.5685Z" fill="#149CBE"/>
<path d="M8.42969 11.4006L12.2847 14.1375H12.0492L8.42969 11.5689V11.4006Z" fill="#149CBE"/>
<path d="M8.42969 11.2327L12.524 14.1378H12.2847L8.42969 11.4009V11.2327Z" fill="#149CBE"/>
<path d="M8.42969 11.0608L12.6227 14.0407L12.5506 14.1379H12.524L8.42969 11.2328V11.0608Z" fill="#149CBE"/>
<path d="M8.42969 10.8909L12.7063 13.9269L12.6227 14.0391L8.42969 11.0591V10.8909Z" fill="#149CBE"/>
<path d="M8.42969 10.7229L12.7671 13.8V13.8449L12.7063 13.9272L8.42969 10.8912V10.7229Z" fill="#149CBE"/>
<path d="M8.42969 10.551L12.7671 13.6319V13.8002L8.42969 10.723V10.551Z" fill="#149CBE"/>
<path d="M8.42969 10.3832L12.7671 13.4641V13.6323L8.42969 10.5514V10.3832Z" fill="#149CBE"/>
<path d="M8.42969 10.2151L12.7671 13.2922V13.4642L8.42969 10.3833V10.2151Z" fill="#149CBE"/>
<path d="M8.42969 10.0432L12.7671 13.1241V13.2924L8.42969 10.2152V10.0432Z" fill="#149CBE"/>
<path d="M8.42969 9.87524L12.7671 12.9561V13.1244L8.42969 10.0435V9.87524Z" fill="#149CBE"/>
<path d="M8.52464 9.77368L12.7671 12.7835V12.9555L8.42969 9.87463V9.77368H8.52464Z" fill="#149CBE"/>
<path d="M8.76271 9.77368L12.7659 12.6153V12.7835L8.52344 9.77368H8.76271Z" fill="#149CBE"/>
<path d="M9.0049 9.7738L12.7688 12.4471V12.6154L8.76562 9.7738H9.0049Z" fill="#149CBE"/>
<path d="M9.24318 9.77368L12.7678 12.275V12.447L9.00391 9.77368H9.24318Z" fill="#149CBE"/>
<path d="M9.48146 9.7738L12.7668 12.1069V12.2752L9.24219 9.7738H9.48146Z" fill="#149CBE"/>
<path d="M9.71975 9.77368L12.7658 11.9385V12.1068L9.48047 9.77368H9.71975Z" fill="#149CBE"/>
<path d="M9.95814 9.77368L12.7687 11.7665V11.9385L9.72266 9.77368H9.95814Z" fill="#149CBE"/>
<path d="M10.1963 9.7738L12.7676 11.5984V11.7667L9.95703 9.7738H10.1963Z" fill="#149CBE"/>
<path d="M10.4346 9.77368L12.7666 11.43V11.5983L10.1953 9.77368H10.4346Z" fill="#149CBE"/>
<path d="M10.6768 9.77368L12.7695 11.258V11.43L10.4375 9.77368H10.6768Z" fill="#149CBE"/>
<path d="M10.9151 9.7738L12.7685 11.0899V11.2582L10.6758 9.7738H10.9151Z" fill="#149CBE"/>
<path d="M11.1533 9.77368L12.7675 10.9215V11.0898L10.9141 9.77368H11.1533Z" fill="#149CBE"/>
<path d="M11.3878 9.7738L12.7665 10.7497V10.9217L11.1523 9.7738H11.3878Z" fill="#149CBE"/>
<path d="M11.626 9.7738L12.7654 10.5814V10.7497L11.3867 9.7738H11.626Z" fill="#149CBE"/>
<path d="M11.8643 9.77368L12.7644 10.413V10.5813L11.625 9.77368H11.8643Z" fill="#149CBE"/>
<path d="M12.1065 9.7738L12.7673 10.2412V10.4132L11.8672 9.7738H12.1065Z" fill="#149CBE"/>
<path d="M12.3487 9.77368L12.7702 10.0728V10.241L12.1094 9.77368H12.3487Z" fill="#149CBE"/>
<path d="M12.5869 9.7738L12.7692 9.90467V10.0729L12.3477 9.7738H12.5869Z" fill="#149CBE"/>
<path d="M12.7682 9.90454L12.5859 9.77368H12.7682V9.90454Z" fill="#149CBE"/>
</g>
<mask id="mask2_1_8480" style="mask-type:luminance" maskUnits="userSpaceOnUse" x="9" y="3" width="9" height="10">
<path d="M13.5447 3.68998L9.25 9.34766L13.0621 12.152L17.3568 6.49436L13.5447 3.68998Z" fill="white"/>
</mask>
<g mask="url(#mask2_1_8480)">
<path d="M9.25 11.9841L9.54245 12.1898H9.30317L9.25 12.1524V11.9841Z" fill="#149CBE"/>
<path d="M9.25 11.8164L9.78173 12.1903H9.54245L9.25 11.9847V11.8164Z" fill="#149CBE"/>
<path d="M9.25 11.6445L10.021 12.1904H9.78173L9.25 11.8165V11.6445Z" fill="#149CBE"/>
<path d="M9.25 11.4766L10.2603 12.1907H10.021L9.25 11.6448V11.4766Z" fill="#149CBE"/>
<path d="M9.25 11.3066L10.4996 12.189H10.2603L9.25 11.4749V11.3066Z" fill="#149CBE"/>
<path d="M9.25 11.1348L10.735 12.1891H10.4996L9.25 11.3068V11.1348Z" fill="#149CBE"/>
<path d="M9.25 10.9668L10.9743 12.1894H10.735L9.25 11.135V10.9668Z" fill="#149CBE"/>
<path d="M9.25 10.7988L11.2136 12.1897H10.9743L9.25 10.9671V10.7988Z" fill="#149CBE"/>
<path d="M9.25 10.627L11.4529 12.1898H11.2136L9.25 10.7989V10.627Z" fill="#149CBE"/>
<path d="M9.25 10.459L11.6922 12.1901H11.4529L9.25 10.6272V10.459Z" fill="#149CBE"/>
<path d="M9.25 10.291L11.9314 12.1904H11.6922L9.25 10.4593V10.291Z" fill="#149CBE"/>
<path d="M9.25 10.1191L12.1669 12.1905H11.9314L9.25 10.2911V10.1191Z" fill="#149CBE"/>
<path d="M9.25 9.94922L12.4062 12.1888H12.1669L9.25 10.1175V9.94922Z" fill="#149CBE"/>
<path d="M9.25 9.78125L12.6455 12.1891H12.4062L9.25 9.9495V9.78125Z" fill="#149CBE"/>
<path d="M9.25 9.60938L12.8847 12.1892H12.6455L9.25 9.78137V9.60938Z" fill="#149CBE"/>
<path d="M9.25 9.44165L13.124 12.1898H12.8847L9.25 9.6099V9.44165Z" fill="#149CBE"/>
<path d="M9.25 9.27344L13.3595 12.1898H13.124L9.25 9.44169V9.27344Z" fill="#149CBE"/>
<path d="M9.25 9.10132L13.5988 12.1897H13.3595L9.25 9.27331V9.10132Z" fill="#149CBE"/>
<path d="M9.25 8.93359L13.8381 12.1902H13.5988L9.25 9.10185V8.93359Z" fill="#149CBE"/>
<path d="M9.25 8.76562L14.0773 12.1905H13.8381L9.25 8.93388V8.76562Z" fill="#149CBE"/>
<path d="M9.25 8.59375L14.2065 12.1121L14.1495 12.1906H14.0773L9.25 8.76574V8.59375Z" fill="#149CBE"/>
<path d="M9.25 8.42383L14.2862 12.002L14.2065 12.1104L9.25 8.59208V8.42383Z" fill="#149CBE"/>
<path d="M9.25 8.25586L14.3698 11.8901L14.2862 12.0023L9.25 8.42411V8.25586Z" fill="#149CBE"/>
<path d="M9.25 8.11061L9.26139 8.09192L14.4495 11.7785L14.3698 11.8907L9.25 8.25643V8.11061Z" fill="#149CBE"/>
<path d="M9.34785 7.98547L9.26562 8.09766L14.4525 11.7817L14.5347 11.6695L9.34785 7.98547Z" fill="#149CBE"/>
<path d="M9.426 7.8741L9.34375 7.98633L14.5306 11.6703L14.6128 11.5581L9.426 7.8741Z" fill="#149CBE"/>
<path d="M11.0595 10.47L10.9766 10.582L16.1573 14.2969L16.2402 14.1848L11.0595 10.47Z" fill="#149CBE"/>
<path d="M9.59003 7.65344L9.50781 7.76562L14.6947 11.4496L14.7769 11.3374L9.59003 7.65344Z" fill="#149CBE"/>
<path d="M9.67207 7.54016L9.58984 7.65234L14.7767 11.3364L14.8589 11.2242L9.67207 7.54016Z" fill="#149CBE"/>
<path d="M9.758 7.42492L9.67578 7.53711L14.8626 11.2211L14.9448 11.1089L9.758 7.42492Z" fill="#149CBE"/>
<path d="M9.83613 7.31945L9.75391 7.43164L14.9408 11.1156L15.023 11.0035L9.83613 7.31945Z" fill="#149CBE"/>
<path d="M11.4735 9.90943L11.3906 10.0215L16.5713 13.7363L16.6542 13.6243L11.4735 9.90943Z" fill="#149CBE"/>
<path d="M10.0002 7.0968L9.91797 7.20898L15.1048 10.893L15.187 10.7808L10.0002 7.0968Z" fill="#149CBE"/>
<path d="M10.0822 6.98352L10 7.0957L15.1869 10.7797L15.2691 10.6675L10.0822 6.98352Z" fill="#149CBE"/>
<path d="M10.1643 6.87219L10.082 6.98438L15.2689 10.6684L15.3511 10.5562L10.1643 6.87219Z" fill="#149CBE"/>
<path d="M10.2424 6.75891L10.1602 6.87109L15.347 10.5551L15.4292 10.4429L10.2424 6.75891Z" fill="#149CBE"/>
<path d="M10.3244 6.64758L10.2422 6.75977L15.4291 10.4438L15.5113 10.3316L10.3244 6.64758Z" fill="#149CBE"/>
<path d="M11.9657 9.23951L11.8828 9.35156L17.0635 13.0664L17.1464 12.9544L11.9657 9.23951Z" fill="#149CBE"/>
<path d="M10.4924 6.42687L10.4102 6.53906L15.597 10.2231L15.6792 10.1109L10.4924 6.42687Z" fill="#149CBE"/>
<path d="M10.5744 6.31359L10.4922 6.42578L15.679 10.1098L15.7613 9.99759L10.5744 6.31359Z" fill="#149CBE"/>
<path d="M10.6525 6.20227L10.5703 6.31445L15.7572 9.99845L15.8394 9.88626L10.6525 6.20227Z" fill="#149CBE"/>
<path d="M10.7346 6.08898L10.6523 6.20117L15.8392 9.8852L15.9214 9.77301L10.7346 6.08898Z" fill="#149CBE"/>
<path d="M10.8166 5.97766L10.7344 6.08984L15.9212 9.77384L16.0034 9.66165L10.8166 5.97766Z" fill="#149CBE"/>
<path d="M12.4579 8.56763L12.375 8.67969L17.5557 12.3945L17.6386 12.2825L12.4579 8.56763Z" fill="#149CBE"/>
<path d="M10.9807 5.75891L10.8984 5.87109L16.0853 9.55512L16.1675 9.44293L10.9807 5.75891Z" fill="#149CBE"/>
<path d="M11.0627 5.64587L10.9805 5.75806L16.1673 9.44205L16.2495 9.32987L11.0627 5.64587Z" fill="#149CBE"/>
<path d="M11.1408 5.5343L11.0586 5.64648L16.2455 9.33051L16.3277 9.21832L11.1408 5.5343Z" fill="#149CBE"/>
<path d="M11.2228 5.42102L11.1406 5.5332L16.3275 9.2172L16.4097 9.10501L11.2228 5.42102Z" fill="#149CBE"/>
<path d="M12.8681 8.00904L12.7852 8.12109L17.9658 11.8359L18.0488 11.7239L12.8681 8.00904Z" fill="#149CBE"/>
<path d="M11.3908 5.19836L11.3086 5.31055L16.4955 8.99457L16.5777 8.88238L11.3908 5.19836Z" fill="#149CBE"/>
<path d="M11.4728 5.08886L11.3906 5.20105L16.5775 8.88505L16.6597 8.77286L11.4728 5.08886Z" fill="#149CBE"/>
<path d="M11.551 4.9757L11.4688 5.08789L16.6556 8.77189L16.7378 8.6597L11.551 4.9757Z" fill="#149CBE"/>
<path d="M11.633 4.86437L11.5508 4.97656L16.7376 8.66056L16.8198 8.54837L11.633 4.86437Z" fill="#149CBE"/>
<path d="M11.715 4.75085L11.6328 4.86304L16.8197 8.54703L16.9019 8.43485L11.715 4.75085Z" fill="#149CBE"/>
<path d="M13.3603 7.33912L13.2773 7.45117L18.4581 11.1661L18.541 11.054L13.3603 7.33912Z" fill="#149CBE"/>
<path d="M11.8791 4.52844L11.7969 4.64062L16.9837 8.32462L17.0659 8.21244L11.8791 4.52844Z" fill="#149CBE"/>
<path d="M11.9572 4.41906L11.875 4.53125L17.0618 8.21525L17.1441 8.10306L11.9572 4.41906Z" fill="#149CBE"/>
<path d="M12.0393 4.30773L11.957 4.41992L17.1439 8.10392L17.2261 7.99173L12.0393 4.30773Z" fill="#149CBE"/>
<path d="M12.1213 4.19836L12.0391 4.31055L17.2259 7.99454L17.3081 7.88236L12.1213 4.19836Z" fill="#149CBE"/>
<path d="M12.1211 4.19225L12.2047 4.08008L17.3586 7.7405V7.81154L17.3092 7.87884L12.1211 4.19225Z" fill="#149CBE"/>
<path d="M12.2031 4.07897L12.2829 3.9668L17.3571 7.57114V7.73939L12.2031 4.07897Z" fill="#149CBE"/>
<path d="M12.2852 3.9678L12.3687 3.85938L17.3594 7.40389V7.57214L12.2852 3.9678Z" fill="#149CBE"/>
<path d="M12.3672 3.86022L12.4469 3.74805L17.3578 7.23274V7.40473L12.3672 3.86022Z" fill="#149CBE"/>
<path d="M12.4492 3.74721L12.4644 3.72852H12.6657L17.3601 7.06365V7.2319L12.4492 3.74721Z" fill="#149CBE"/>
<path d="M12.9033 3.72852L17.3585 6.8954V7.06365L12.6641 3.72852H12.9033Z" fill="#149CBE"/>
<path d="M13.1417 3.72852L17.3614 6.72341V6.8954L12.9062 3.72852H13.1417Z" fill="#149CBE"/>
<path d="M13.3799 3.72852L17.3603 6.55515V6.72341L13.1406 3.72852H13.3799Z" fill="#149CBE"/>
<path d="M13.6182 3.72852L17.3593 6.3869V6.55515L13.3789 3.72852H13.6182Z" fill="#149CBE"/>
<path d="M13.8565 3.72852L17.3583 6.21491V6.3869L13.6172 3.72852H13.8565Z" fill="#149CBE"/>
<path d="M14.0987 3.72852L17.3612 6.04666V6.21491L13.8594 3.72852H14.0987Z" fill="#149CBE"/>
<path d="M14.3369 3.72852L17.3602 5.87841V6.04666L14.0977 3.72852H14.3369Z" fill="#149CBE"/>
<path d="M14.5714 3.72852L17.3592 5.70642V5.87841L14.3359 3.72852H14.5714Z" fill="#149CBE"/>
<path d="M17.3581 5.70642L14.5703 3.72852H17.3581V5.70642Z" fill="#149CBE"/>
</g>
</svg>
