<svg width="21" height="17" viewBox="0 0 21 17" fill="none" xmlns="http://www.w3.org/2000/svg">
<path d="M15.1375 6.56296C14.5244 6.56296 13.925 6.3705 13.4153 6.00993C12.9055 5.64935 12.5082 5.13686 12.2736 4.53725C12.039 3.93763 11.9775 3.27784 12.0972 2.64129C12.2168 2.00475 12.512 1.42005 12.9455 0.961126C13.3791 0.502203 13.9314 0.189671 14.5327 0.0630546C15.134 -0.0635618 15.7573 0.00142027 16.3237 0.249787C16.8901 0.498154 17.3743 0.918748 17.7149 1.45838C18.0555 1.99802 18.2373 2.63247 18.2373 3.28148C18.2373 4.15178 17.9107 4.98643 17.3294 5.60183C16.748 6.21722 15.9596 6.56296 15.1375 6.56296ZM15.1375 1.09383C14.7287 1.09383 14.3292 1.22213 13.9893 1.46252C13.6495 1.7029 13.3846 2.04456 13.2282 2.4443C13.0718 2.84404 13.0309 3.2839 13.1106 3.70826C13.1903 4.13263 13.3872 4.52243 13.6762 4.82838C13.9652 5.13433 14.3334 5.34269 14.7343 5.4271C15.1352 5.51151 15.5507 5.46818 15.9283 5.3026C16.3059 5.13702 16.6287 4.85663 16.8557 4.49687C17.0828 4.13711 17.204 3.71416 17.204 3.28148C17.2013 2.70318 16.9824 2.14955 16.5951 1.74165C16.2078 1.33374 15.6838 1.10476 15.1375 1.10476V1.09383Z" fill="#2C75E3"/>
<path d="M18.4388 5.89572C18.2292 5.81888 18.004 5.80321 17.7867 5.85037C17.5694 5.89752 17.3682 6.00576 17.2041 6.1637C16.6997 6.64299 16.0608 6.93406 15.3852 6.99234C14.7096 7.05062 14.0346 6.8729 13.4636 6.48639C13.3623 6.4189 13.242 6.39072 13.1233 6.40668C13.0045 6.42264 12.8947 6.48174 12.8126 6.57389C12.7601 6.6321 12.7204 6.70186 12.6963 6.77818C12.6722 6.8545 12.6643 6.93551 12.6732 7.01543C12.6821 7.09535 12.7075 7.17221 12.7477 7.24053C12.7879 7.30885 12.8418 7.36694 12.9056 7.41066C13.6665 7.92606 14.5659 8.16339 15.4663 8.08635C16.3666 8.00931 17.2184 7.62214 17.8912 6.98407C17.9166 6.95589 17.9489 6.93583 17.9845 6.92616C18.0201 6.91649 18.0576 6.91761 18.0927 6.92939C18.4976 7.07924 18.8485 7.35876 19.0966 7.7292C19.3447 8.09964 19.4777 8.54262 19.4773 8.99671V12.2454C19.4773 12.3071 19.4658 12.3683 19.4435 12.4254C19.4211 12.4824 19.3884 12.5343 19.3471 12.578C19.3059 12.6216 19.2569 12.6563 19.203 12.6799C19.1491 12.7035 19.0913 12.7157 19.033 12.7157H14.8585C14.7215 12.7157 14.5901 12.7733 14.4932 12.8759C14.3963 12.9785 14.3419 13.1176 14.3419 13.2626C14.3419 13.4077 14.3963 13.5468 14.4932 13.6494C14.5901 13.7519 14.7215 13.8095 14.8585 13.8095H19.0278C19.4193 13.8081 19.7943 13.6428 20.0711 13.3498C20.3479 13.0568 20.504 12.6598 20.5054 12.2454V8.99671C20.5068 8.3169 20.3087 7.6534 19.9385 7.0979C19.5683 6.5424 19.0443 6.12233 18.4388 5.89572Z" fill="#2C75E3"/>
<path d="M7.25856 7.88687C6.5249 7.88687 5.8077 7.65657 5.19768 7.22508C4.58765 6.79359 4.1122 6.1803 3.83144 5.46277C3.55068 4.74523 3.47722 3.95568 3.62035 3.19395C3.76348 2.43222 4.11678 1.73252 4.63556 1.18335C5.15434 0.63417 5.81531 0.260175 6.53488 0.108658C7.25445 -0.04286 8.00029 0.0349051 8.67811 0.332118C9.35593 0.62933 9.93528 1.13265 10.3429 1.77841C10.7505 2.42418 10.968 3.18338 10.968 3.96004C10.9667 5.00105 10.5754 5.99902 9.88005 6.73513C9.18468 7.47124 8.24196 7.88543 7.25856 7.88687ZM7.25856 1.12703C6.72926 1.12703 6.21184 1.29319 5.77174 1.60448C5.33164 1.91578 4.98863 2.35823 4.78607 2.87589C4.58352 3.39356 4.53052 3.96318 4.63378 4.51273C4.73704 5.06228 4.99193 5.56707 5.36621 5.96327C5.74048 6.35948 6.21732 6.6293 6.73645 6.73861C7.25558 6.84792 7.79369 6.79182 8.2827 6.5774C8.77171 6.36297 9.18968 5.99986 9.48374 5.53397C9.77781 5.06808 9.93476 4.52035 9.93476 3.96004C9.9334 3.20912 9.651 2.48937 9.14941 1.95839C8.64782 1.42741 7.96792 1.12848 7.25856 1.12703Z" fill="#2C75E3"/>
<path d="M12.0841 16.6647H2.45907C2.0069 16.6647 1.57325 16.4745 1.25352 16.1361C0.933783 15.7976 0.754155 15.3385 0.754155 14.8599V10.8401C0.752886 10.0231 0.991989 9.22607 1.43825 8.55959C1.88452 7.89312 2.51579 7.39032 3.24437 7.12105C3.48251 7.03374 3.7386 7.01663 3.98522 7.07154C4.23184 7.12645 4.45973 7.25133 4.64447 7.43279C5.37161 8.12006 6.31229 8.49993 7.28709 8.49993C8.26188 8.49993 9.20256 8.12006 9.9297 7.43279C10.1144 7.25133 10.3423 7.12645 10.589 7.07154C10.8356 7.01663 11.0917 7.03374 11.3298 7.12105C12.057 7.39193 12.6867 7.8953 13.1319 8.56154C13.5771 9.22778 13.8157 10.024 13.8149 10.8401V14.8599C13.8149 15.0992 13.7699 15.3361 13.6826 15.5569C13.5954 15.7777 13.4675 15.9779 13.3064 16.1458C13.1453 16.3138 12.9543 16.4461 12.7445 16.5352C12.5346 16.6243 12.3102 16.6683 12.0841 16.6647ZM3.66285 8.13284C3.62862 8.1271 3.59375 8.1271 3.55952 8.13284C3.03342 8.32889 2.57784 8.6931 2.25576 9.17514C1.93368 9.65717 1.761 10.2332 1.7616 10.8236V14.8435C1.7616 15.032 1.83237 15.2129 1.95832 15.3462C2.08428 15.4795 2.25511 15.5544 2.43324 15.5544H12.0841C12.2622 15.5544 12.4331 15.4795 12.559 15.3462C12.685 15.2129 12.7557 15.032 12.7557 14.8435V10.8236C12.7564 10.2346 12.5843 9.65992 12.2631 9.17889C11.942 8.69787 11.4877 8.33427 10.963 8.1383C10.8989 8.11611 10.8303 8.11305 10.7647 8.12946C10.699 8.14586 10.6389 8.18108 10.591 8.23128C9.67515 9.09803 8.48975 9.57719 7.26126 9.57719C6.03277 9.57719 4.84735 9.09803 3.9315 8.23128C3.85646 8.16455 3.7608 8.1295 3.66285 8.13284Z" fill="#2C75E3"/>
</svg>
