<svg width="53" height="53" viewBox="0 0 53 53" fill="none" xmlns="http://www.w3.org/2000/svg">
    <rect width="53" height="53" rx="10" fill="#70CBFF"/>
    <g clip-path="url(#clip0_202_12885)">
    <path d="M42.4325 35.2221C40.8799 34.339 36.8871 32.3456 34.9843 31.8558L34.9043 31.8346C35.6734 31.7456 36.2485 31.6399 36.555 31.5184C38.8193 30.6187 40.3395 28.3641 40.9479 25.9933C42.0717 21.6155 40.0285 17.1132 37.2554 13.5536C35.8334 11.7293 33.6136 10.622 31.1077 10.0597C31.0963 10.0084 31.0835 9.95706 31.0692 9.90875C31.0265 9.75647 30.9694 9.60862 30.8986 9.4672C30.8646 9.39927 30.8284 9.33285 30.7884 9.26869C30.2321 8.38483 28.3202 7.63608 26.2295 7.5689V5.84421C26.393 5.79039 26.5473 5.71173 26.6869 5.61098C26.7902 5.53557 26.8846 5.44872 26.9684 5.35209C26.9956 5.31963 27.0227 5.28642 27.0439 5.25245C27.0946 5.18353 27.14 5.11087 27.1797 5.03507C27.3082 4.78771 27.3721 4.5119 27.3655 4.23324C27.3589 3.95458 27.282 3.6821 27.142 3.4411C27.0019 3.2001 26.8033 2.9984 26.5644 2.8547C26.3256 2.71101 26.0543 2.62999 25.7757 2.61917C25.4972 2.60834 25.2205 2.66807 24.9712 2.79279C24.7219 2.91752 24.5082 3.1032 24.3498 3.3326C24.1915 3.56201 24.0937 3.82769 24.0655 4.105C24.0373 4.38231 24.0796 4.66225 24.1885 4.91884C24.359 5.31704 24.6783 5.63286 25.0784 5.79892C25.1184 5.81553 25.1584 5.83063 25.1999 5.84421V7.59004C23.7915 7.7025 22.3883 8.15462 21.3354 9.11169C21.058 9.36478 20.8246 9.66219 20.6448 9.99178C18.0075 10.5292 15.6571 11.6523 14.174 13.5536C11.4009 17.1132 9.35764 21.614 10.4815 25.9933C11.0899 28.3641 12.6115 30.6187 14.8744 31.5184C15.1808 31.6399 15.756 31.7448 16.5251 31.8346C16.0046 31.9721 15.4933 32.1425 14.9944 32.3449C14.8004 32.4203 14.5997 32.5019 14.3951 32.5872C12.5516 33.3722 10.7498 34.2517 8.99685 35.2221C8.68059 35.4018 8.33943 35.6259 8.11224 35.9014C8.0911 35.9276 8.07073 35.9548 8.0511 35.983C8.04665 35.9884 8.04261 35.9942 8.03903 36.0003C8.02318 36.023 8.00808 36.0464 7.9945 36.0705L7.98015 36.0947C7.96732 36.1173 7.956 36.1407 7.94468 36.1641L7.9326 36.189C7.91875 36.2203 7.90666 36.2523 7.89637 36.2849C7.86063 36.3943 7.84654 36.5097 7.85486 36.6245C7.88052 36.977 8.12809 37.2759 8.43831 37.4548L8.47379 37.4767L8.50096 37.4895C8.53945 37.5091 8.57644 37.528 8.6172 37.5439L8.63153 37.5491C8.75347 37.5962 8.87994 37.6306 9.00893 37.6518C9.02855 37.6556 9.04818 37.6601 9.06856 37.6631H9.07535C9.23093 37.6847 9.38776 37.696 9.54483 37.6971C9.64899 37.6971 9.75315 37.6971 9.85656 37.6971C11.5411 37.6701 13.2213 37.5188 14.8835 37.2442C14.3408 39.5086 14.3476 41.9699 15.365 44.0584C15.83 44.9895 16.459 45.8292 17.2218 46.5372C17.7952 47.0762 18.421 47.5566 19.0899 47.9713C19.1064 48.1059 19.136 48.2386 19.1782 48.3675C19.1993 48.4332 19.2242 48.4974 19.2537 48.5623C19.2831 48.6272 19.3133 48.6898 19.3488 48.7532C19.4147 48.8694 19.4905 48.9798 19.5752 49.0831C20.1141 49.7496 21.0848 50.2598 22.1649 50.6176C23.208 50.9655 26.9993 51.3535 29.272 50.6176C30.3551 50.2673 31.3228 49.7496 31.8617 49.0831C32.0593 48.8418 32.2036 48.5614 32.2851 48.2604C32.31 48.1679 32.3287 48.0738 32.341 47.9788C33.9034 47.0195 35.2658 45.7024 36.0666 44.0615C36.7807 42.5964 36.9958 40.9465 36.875 39.3116C36.8216 38.6158 36.7123 37.9255 36.5482 37.2472C38.2104 37.5218 39.8906 37.6731 41.5751 37.7001C41.6777 37.7001 41.7811 37.7001 41.8853 37.7001C42.0266 37.6984 42.1677 37.6891 42.308 37.6722C42.4822 37.6519 42.6532 37.6096 42.8167 37.5461C42.9194 37.5052 43.0167 37.4519 43.1065 37.3876C43.3632 37.205 43.5594 36.9347 43.5798 36.626C43.6221 35.9905 42.9888 35.5384 42.4325 35.2221Z" fill="#ECE3F2"/>
    <path d="M36.6488 21.7921C36.6488 21.7529 36.6443 21.7167 36.642 21.6737C36.6375 21.6087 36.6322 21.5446 36.6262 21.4797C36.6262 21.4751 36.6262 21.4706 36.6262 21.4653C36.6262 21.46 36.6262 21.4366 36.6209 21.4216C36.6088 21.3053 36.5952 21.1891 36.5779 21.0728C36.5779 21.0653 36.5779 21.057 36.5779 21.0494C36.5582 20.9196 36.5363 20.7898 36.5114 20.6615C36.5046 20.6268 36.4963 20.592 36.4895 20.5573C36.4684 20.4562 36.4465 20.3558 36.4216 20.2554C36.4216 20.2373 36.4141 20.2192 36.4095 20.2018C36.1775 19.2996 35.8366 18.429 35.3943 17.6091C35.2867 17.4078 35.1737 17.2066 35.0554 17.0053L35.0486 16.9932C35.0388 16.9758 35.0283 16.9592 35.0177 16.9419C34.9671 16.8581 34.9166 16.7743 34.8667 16.6913L34.8003 16.5871C34.7611 16.526 34.7248 16.4649 34.6826 16.4037L34.6765 16.3947L34.6622 16.3728C34.6086 16.2912 34.5543 16.2097 34.4992 16.1297C34.4924 16.1207 34.4863 16.1109 34.4803 16.1018L34.4539 16.0648C34.4063 15.9954 34.358 15.9267 34.309 15.858L34.278 15.8135L34.2531 15.7803C34.2056 15.7138 34.1572 15.6489 34.1089 15.5833L34.0704 15.5304L34.0531 15.5078C33.9942 15.4323 33.9346 15.3508 33.8742 15.2738C33.8697 15.2677 33.8651 15.261 33.8599 15.2549L33.8546 15.2481L33.847 15.2383L33.8417 15.2315V15.2277L33.8251 15.2066L33.8108 15.1893L33.7949 15.1696L33.7904 15.1643L33.7753 15.1455L33.7708 15.1402C33.7672 15.1351 33.7631 15.1303 33.7587 15.1259L33.7519 15.1175L33.7391 15.1017L33.73 15.0911L33.724 15.0843L33.7051 15.0625L33.6734 15.027C33.65 15.0006 33.6266 14.9749 33.6025 14.9515C33.5783 14.9281 33.5572 14.9002 33.5338 14.876L33.5127 14.8541C33.5036 14.8451 33.4938 14.836 33.4847 14.8262L33.4145 14.7553L33.3489 14.6896L33.3315 14.6737L33.2824 14.6284L33.2168 14.5681C33.1964 14.5492 33.176 14.5303 33.1549 14.5122L33.1458 14.5047C33.1187 14.4805 33.0907 14.4579 33.0636 14.4345L33.0107 14.3907L32.9911 14.3748C32.9586 14.3484 32.9247 14.322 32.8907 14.2956L32.8152 14.2367L32.7956 14.2216L32.7707 14.2043C32.7262 14.171 32.6801 14.1386 32.6341 14.1061L32.5427 14.042L32.4756 13.999C32.4484 13.9808 32.4212 13.9627 32.3933 13.9454H32.3888L32.3065 13.8925C32.231 13.8457 32.1555 13.8012 32.0801 13.7567L32.0665 13.7491C31.2456 13.2995 30.3616 12.9763 29.4443 12.7905H29.4391C29.3218 12.7659 29.2041 12.7425 29.0858 12.7203H29.0745L28.9522 12.7L28.8322 12.6796C28.6677 12.6532 28.5024 12.6283 28.3356 12.6041H28.331C28.2148 12.5898 28.0978 12.5769 27.9808 12.5649L27.9325 12.5603L27.8268 12.5513L27.703 12.5407C27.6661 12.5407 27.6276 12.5339 27.5928 12.5316H27.5694C27.4464 12.5233 27.3226 12.5158 27.1988 12.5098H27.1694L26.8509 12.4984H26.8094H26.7513C26.6644 12.4984 26.5784 12.4984 26.4916 12.4984H26.4237H26.0599C25.9474 12.4984 25.8334 12.5037 25.7225 12.5082H25.6877C25.5806 12.5042 25.4734 12.5012 25.3662 12.4992H25.3571C22.3138 12.4411 19.2117 13.1966 17.5881 15.2806C16.929 16.1185 16.3558 17.0204 15.877 17.9729C15.8355 18.0567 15.7955 18.1405 15.7562 18.225C15.717 18.3096 15.6807 18.3896 15.6453 18.4718L15.6045 18.5624C15.5766 18.6266 15.5479 18.6907 15.5207 18.7556C15.521 18.7586 15.521 18.7617 15.5207 18.7647C15.4128 19.0258 15.3154 19.293 15.2279 19.5572L15.2233 19.5731C15.1368 19.8393 15.0613 20.1072 14.9969 20.3769C14.9973 20.3819 14.9973 20.387 14.9969 20.392C14.9345 20.6627 14.8842 20.9355 14.846 21.2102C14.733 22.0203 14.7539 22.8434 14.9078 23.6467C14.9184 23.7025 14.9297 23.7584 14.9426 23.8142C14.9584 23.8897 14.975 23.9652 14.9946 24.0361C14.995 24.0386 14.995 24.0412 14.9946 24.0437V24.0671C14.9943 24.0716 14.9943 24.0762 14.9946 24.0807V24.0852C14.995 24.0872 14.995 24.0892 14.9946 24.0912V24.098V24.1094V24.1169V24.1252V24.1312L14.9992 24.1479L15.0037 24.1652C15.0051 24.1716 15.0069 24.1779 15.009 24.1841C15.0135 24.1999 15.0188 24.215 15.0233 24.2301C15.0279 24.2452 15.0316 24.2603 15.0362 24.2747L15.0535 24.3328C15.0679 24.3811 15.0845 24.4286 15.1003 24.4769C15.1003 24.489 15.1086 24.5011 15.1124 24.5139C15.1162 24.5268 15.1192 24.5336 15.1222 24.5441C15.129 24.5653 15.1365 24.5856 15.1433 24.606L15.1705 24.6815C15.1894 24.7336 15.209 24.7857 15.2294 24.837C15.2369 24.8566 15.2452 24.8755 15.2528 24.8951L15.2845 24.9706L15.289 24.9819C15.2911 24.9855 15.2929 24.9893 15.2943 24.9932L15.3464 25.1132C15.3524 25.1268 15.3585 25.1396 15.3637 25.1525C15.369 25.1653 15.3811 25.1895 15.3894 25.2083C15.3977 25.2272 15.3985 25.2287 15.4037 25.2393C15.4226 25.2785 15.4422 25.3148 15.4619 25.3563C15.4657 25.3653 15.47 25.3741 15.4747 25.3827L15.489 25.4114C15.5019 25.437 15.5147 25.4627 15.5283 25.4868L15.5373 25.5042C15.5373 25.5095 15.5426 25.5148 15.5456 25.5193C15.5484 25.5237 15.551 25.5282 15.5532 25.5329V25.5374L15.5607 25.5502V25.5555L15.5675 25.5676C15.5673 25.5696 15.5673 25.5716 15.5675 25.5737L15.5728 25.585V25.591L15.5789 25.6023V25.6091L15.5849 25.6189C15.5858 25.6216 15.5871 25.6241 15.5887 25.6265L15.5939 25.6355L15.5985 25.6438L15.6038 25.6529L15.6083 25.6612C15.6098 25.6644 15.6115 25.6674 15.6136 25.6703L15.6181 25.6786V25.6854L15.6506 25.7412V25.7457L15.6589 25.7593L15.6672 25.7729C15.6672 25.7729 15.6724 25.7812 15.6755 25.7857L15.68 25.794L15.6883 25.8084L15.6966 25.8227L15.7057 25.8378L15.7102 25.8446C15.7457 25.902 15.7857 25.9586 15.8196 26.0152C15.8279 26.0265 15.8347 26.0394 15.843 26.0507C15.8506 26.0628 15.8589 26.0733 15.8664 26.0846L15.9034 26.1367C15.9298 26.1745 15.9555 26.2122 15.9827 26.2484L16.0113 26.2854L16.04 26.3239L16.0717 26.3647C16.0749 26.3679 16.0777 26.3714 16.08 26.3752C16.0876 26.3843 16.0944 26.3941 16.1019 26.4024C16.1095 26.4107 16.1215 26.4288 16.1321 26.4417C16.1517 26.4658 16.1721 26.4892 16.1917 26.5126L16.2234 26.5519L16.2499 26.582L16.2899 26.6281L16.3442 26.6877L16.3797 26.7262C16.3933 26.7406 16.4061 26.7556 16.4204 26.77L16.4408 26.7919L16.4589 26.81C16.4831 26.8349 16.508 26.8591 16.5344 26.8855C16.5608 26.9119 16.5842 26.936 16.6099 26.961L16.6212 26.9708L16.631 26.9806L16.6484 26.9972L16.6635 27.01C16.6741 27.0206 16.6854 27.0296 16.6967 27.0394L16.7299 27.0689C16.7533 27.09 16.7759 27.1104 16.8001 27.1308L16.8265 27.1534L16.8831 27.1987C16.8997 27.2123 16.9163 27.2266 16.9337 27.2395L16.9586 27.2606H16.9631H16.9677L17.0024 27.2855L17.0311 27.3089L17.0401 27.3165H17.0462L17.053 27.321L17.0613 27.3278H17.0658L17.0764 27.3361L17.0892 27.3451L17.1073 27.3572C17.1216 27.367 17.136 27.3783 17.1511 27.3882C17.1662 27.398 17.179 27.407 17.1933 27.4161L17.2115 27.4282L17.2869 27.4772L17.37 27.5293L17.4092 27.5527L17.4605 27.5829L17.5058 27.6093C17.5692 27.6448 17.6326 27.678 17.6975 27.7105L17.7119 27.718L17.7262 27.724C17.8168 27.7678 17.9081 27.8093 18.0025 27.8471C18.5308 28.0577 20.2042 28.1996 22.261 28.2713L22.6331 28.2833H22.6912H22.7811L23.0664 28.2909L23.2837 28.2962H23.3917L23.6793 28.3022H23.8966H23.9163H24.074H24.1653L24.7397 28.3083H24.8816H25.1503H25.6508C26.0146 28.3083 26.3784 28.3082 26.7384 28.3022H26.7482C29.7674 28.2713 32.5548 28.1135 33.2711 27.829C33.3692 27.7897 33.4659 27.7467 33.5602 27.7006C33.5934 27.684 33.6251 27.6652 33.6583 27.6478C33.718 27.6169 33.7783 27.5859 33.8365 27.552C33.8765 27.5286 33.9119 27.5021 33.955 27.4765C33.998 27.4508 34.0531 27.4161 34.0999 27.3836C34.1467 27.3512 34.1867 27.321 34.2297 27.2893C34.2727 27.2576 34.3112 27.2304 34.3505 27.1987C34.3897 27.167 34.4426 27.1232 34.4878 27.084C34.5211 27.0553 34.5558 27.0274 34.5882 26.9979C34.6365 26.9542 34.6833 26.9081 34.7301 26.8628C34.7573 26.8357 34.786 26.81 34.8132 26.7821C34.8622 26.7315 34.9105 26.6787 34.9581 26.6258C34.98 26.6017 35.0026 26.5775 35.0245 26.5503C35.0743 26.4922 35.1226 26.4326 35.1709 26.3722C35.1883 26.3511 35.2056 26.3307 35.2223 26.3088C35.2728 26.2439 35.3211 26.1767 35.3687 26.1095C35.3815 26.0914 35.3951 26.0741 35.4072 26.056C35.457 25.9805 35.5053 25.9095 35.5521 25.8348C35.5612 25.8212 35.5702 25.8076 35.5785 25.7933C35.6276 25.714 35.6744 25.634 35.7197 25.5525L35.737 25.5223C35.7838 25.437 35.8291 25.3502 35.8721 25.2619C35.8721 25.2559 35.8789 25.2498 35.8819 25.2431C35.9265 25.1517 35.9687 25.0596 36.0095 24.966C36.0104 24.9629 36.0117 24.9599 36.0133 24.957C36.0548 24.8611 36.094 24.7645 36.131 24.6664C36.1703 24.5622 36.2065 24.4566 36.2412 24.3509C36.2646 24.2754 36.2865 24.1999 36.3076 24.1297C36.3137 24.1078 36.3212 24.0867 36.3273 24.0648C36.3393 24.0218 36.3537 23.9788 36.3643 23.935C36.4736 23.5074 36.5421 23.0705 36.5688 22.63C36.5688 22.6005 36.5688 22.5711 36.5688 22.5424L36.5733 22.4367C36.5733 22.3764 36.5733 22.316 36.5733 22.2563C36.5733 22.1967 36.5733 22.1529 36.5733 22.1009C36.6594 22.045 36.6564 21.9182 36.6488 21.7921Z" fill="#4E54A0"/>
    <path d="M31.701 48.3471C27.8735 50.4017 21.488 49.317 19.7301 48.3471C19.5142 48.2279 19.3016 48.1021 19.0923 47.9697C19.1264 48.2446 19.2139 48.5102 19.3497 48.7517C19.4156 48.8679 19.4914 48.9782 19.5761 49.0815C20.115 49.748 21.0857 50.2582 22.1658 50.616C23.2089 50.964 27.0002 51.3519 29.2729 50.616C30.356 50.2658 31.3237 49.748 31.8626 49.0815C32.0602 48.8403 32.2045 48.5599 32.286 48.2588C32.3109 48.1663 32.3296 48.0723 32.3419 47.9773C32.129 48.1101 31.9154 48.2334 31.701 48.3471Z" fill="#DB80B3"/>
    <path d="M25.7156 9.61886C27.5377 9.54338 29.39 9.67472 31.1079 10.0597C31.0631 9.8535 30.9929 9.6537 30.8988 9.46488C30.8648 9.39695 30.8286 9.33053 30.7886 9.26637C30.2323 8.38251 28.3204 7.63376 26.2297 7.56659C25.8868 7.55481 25.5436 7.56263 25.2016 7.58999C23.7932 7.70245 22.3901 8.15457 21.3371 9.11164C21.0598 9.36473 20.8264 9.66214 20.6465 9.99172C22.3153 9.66589 24.0171 9.54071 25.7156 9.61886Z" fill="#DB80B3"/>
    <path d="M25.2015 5.84407C25.5338 5.95266 25.8919 5.95324 26.2244 5.84572C26.557 5.73821 26.847 5.52813 27.0528 5.2456C27.2586 4.96308 27.3697 4.62263 27.37 4.2731C27.3704 3.92356 27.26 3.58289 27.0548 3.29995C26.8495 3.01702 26.56 2.80636 26.2276 2.69818C25.8952 2.59 25.5371 2.58986 25.2047 2.69779C24.8722 2.80572 24.5825 3.01617 24.377 3.29895C24.1716 3.58173 24.061 3.92231 24.061 4.27184C24.0611 4.62068 24.1715 4.96056 24.3763 5.24293C24.5811 5.52529 24.8699 5.7357 25.2015 5.84407Z" fill="#DB80B3"/>
    <path d="M26.2297 7.56893V5.84424C25.8958 5.95393 25.5356 5.95393 25.2017 5.84424V7.59007C25.5437 7.56347 25.8869 7.55641 26.2297 7.56893Z" fill="#4E54A0"/>
    <path d="M34.9511 32.2505C35.5919 34.0454 36.2584 36.0682 36.5316 37.1868C36.5369 37.2064 36.5407 37.2261 36.5452 37.2457C38.2074 37.5202 39.8876 37.6716 41.5721 37.6986C41.6748 37.6986 41.7782 37.6986 41.8824 37.6986C42.0236 37.6968 42.1647 37.6875 42.305 37.6706C42.4793 37.6504 42.6502 37.608 42.8138 37.5446C42.9164 37.5036 43.0137 37.4504 43.1036 37.3861C37.4759 37.2427 36.2297 34.4982 34.9843 31.8519L34.9043 31.8308L34.8047 31.8429L34.9511 32.2505Z" fill="#E9D9EC"/>
    <path d="M8.4376 37.4584L8.47308 37.4803L8.50025 37.4931C8.53874 37.5128 8.57573 37.5317 8.61724 37.5475L8.63082 37.5528C8.75276 37.5999 8.87923 37.6343 9.00822 37.6554C9.02784 37.6592 9.04747 37.6637 9.06785 37.6668H9.07464C9.23023 37.6883 9.38705 37.6997 9.54412 37.7007C9.64828 37.7007 9.75244 37.7007 9.85585 37.7007C11.5403 37.6738 13.2206 37.5224 14.8828 37.2478C14.8873 37.2282 14.8911 37.2086 14.8963 37.189C15.165 36.0915 15.8111 34.123 16.4406 32.3583C16.5018 32.1862 16.5629 32.0164 16.6233 31.8503H16.5984C15.2126 33.8128 13.7 36.0055 11.4802 36.5602C9.26032 37.115 8.39608 36.5957 8.11077 35.9096C8.08964 35.9358 8.06926 35.9629 8.04964 35.9911C8.04519 35.9966 8.04115 36.0024 8.03756 36.0085C8.02171 36.0311 8.00662 36.0545 7.99303 36.0787L7.97869 36.1028C7.96585 36.1255 7.95453 36.1489 7.94321 36.1723L7.93113 36.1972C7.91729 36.2284 7.9052 36.2604 7.8949 36.293C7.85917 36.4025 7.84507 36.5179 7.8534 36.6327C7.87981 36.9807 8.12738 37.2795 8.4376 37.4584Z" fill="#E9D9EC"/>
    <path d="M19.7303 48.3471C19.5145 48.2279 19.3016 48.1021 19.0918 47.9697C19.1266 48.2446 19.2142 48.5101 19.3499 48.7517C20.7282 49.4468 22.3057 49.751 23.8545 49.908C25.5619 50.0809 27.3031 50.0967 28.9765 49.7148C30.157 49.4453 31.305 48.9653 32.2825 48.2588C32.3074 48.1663 32.3261 48.0723 32.3384 47.9773C32.1295 48.1061 31.9172 48.2286 31.7013 48.3449C27.8715 50.4017 21.4883 49.317 19.7303 48.3471Z" fill="#D160A0"/>
    <path d="M32.3667 45.4148C29.7401 47.0369 26.5548 47.5637 23.4723 47.4882C21.3581 47.4352 19.259 47.1169 17.2241 46.541C17.7974 47.0798 18.4229 47.5602 19.0915 47.9751C19.3013 48.1059 19.5142 48.2317 19.73 48.3525C21.4879 49.3224 27.8735 50.407 31.701 48.3525C31.9159 48.2362 32.1282 48.1137 32.338 47.9849C33.9005 47.0255 35.2628 45.7084 36.0637 44.0675C36.7777 42.6025 36.9928 40.9525 36.8721 39.3176C36.3331 41.8228 34.5767 44.0509 32.3667 45.4148Z" fill="#E9D9EC"/>
    <path d="M26.1738 33.7949C29.1545 33.6847 32.0982 33.1201 34.9513 32.2506L34.8049 31.8445C30.5894 32.3147 20.8413 32.3147 16.6265 31.8445C16.5661 32.0105 16.505 32.1804 16.4438 32.3525C19.5407 33.4801 22.8769 33.9194 26.1738 33.7949Z" fill="#DBCCE5"/>
    <path d="M25.7156 9.61895C27.5377 9.54347 29.3899 9.6748 31.1078 10.0597C31.0631 9.85359 30.9928 9.65379 30.8987 9.46497C27.5781 8.7673 24.1421 8.83545 20.8517 9.66424C20.7777 9.76952 20.7097 9.87888 20.6479 9.99181C22.3163 9.6661 24.0176 9.54092 25.7156 9.61895Z" fill="#D160A0"/>
    <path d="M34.1914 28.4705C35.9607 27.8003 37.1502 26.1231 37.6265 24.3584C38.5051 21.0992 36.9079 17.7495 34.7386 15.1009C32.8653 12.8124 29.2189 12.0395 25.7159 12.1723C22.2122 12.0395 18.5665 12.8124 16.6924 15.1009C14.5239 17.7495 12.9267 21.0992 13.8053 24.3584C14.2816 26.1231 15.4711 27.8003 17.2404 28.4705C19.0254 29.1461 32.4063 29.1461 34.1914 28.4705ZM17.1883 27.407L17.1702 27.3949L17.1573 27.3859L17.1468 27.3776H17.1422L17.1339 27.3708L17.1271 27.3663H17.1211L17.112 27.3587L17.0834 27.3353L17.0486 27.3104H17.0441H17.0396L17.0147 27.2893C16.9973 27.2764 16.9807 27.2621 16.9641 27.2485L16.9075 27.2032L16.8811 27.1806L16.8109 27.1187L16.7777 27.0892C16.7664 27.0794 16.755 27.0704 16.7445 27.0598L16.7294 27.047L16.712 27.0304L16.7022 27.0206L16.6909 27.0107C16.6652 26.9866 16.6403 26.9609 16.6154 26.9353C16.5905 26.9096 16.5656 26.887 16.5399 26.8598L16.5218 26.8417L16.5014 26.8198C16.4871 26.8055 16.4742 26.7903 16.4607 26.776L16.4252 26.7375L16.3708 26.6779L16.3308 26.6318L16.3044 26.6017L16.2727 26.5624C16.2531 26.539 16.2327 26.5156 16.2131 26.4915L16.1821 26.4522L16.161 26.425C16.1587 26.4212 16.1559 26.4177 16.1527 26.4145L16.121 26.3737L16.0923 26.3352L16.0636 26.2982C16.0365 26.2612 16.0108 26.2228 15.9844 26.1865L15.9474 26.1344C15.9399 26.1231 15.9316 26.1126 15.924 26.1005C15.9157 26.0892 15.9089 26.0763 15.9006 26.065C15.8636 26.0084 15.8251 25.9518 15.7912 25.8944L15.7866 25.8876L15.7776 25.8725L15.7693 25.8582L15.761 25.8438L15.7564 25.8355L15.7481 25.8227L15.7398 25.8091L15.7315 25.7955V25.791L15.6991 25.7352V25.7284L15.6946 25.7201C15.6925 25.7172 15.6907 25.7142 15.6893 25.711L15.6847 25.7027L15.6795 25.6936L15.6749 25.6853L15.6696 25.6763C15.6681 25.6739 15.6668 25.6714 15.6659 25.6687L15.6598 25.6589V25.6521L15.6538 25.6408V25.6348L15.6478 25.6234V25.6174L15.641 25.6053V25.6L15.6334 25.5872V25.5827C15.6312 25.578 15.6287 25.5735 15.6259 25.5691C15.6259 25.5646 15.6206 25.5593 15.6176 25.554L15.6085 25.5366C15.5949 25.511 15.5821 25.4853 15.5693 25.4612L15.5549 25.4325C15.5502 25.4239 15.5459 25.4151 15.5421 25.4061C15.5225 25.3676 15.5028 25.3306 15.484 25.2891C15.4787 25.2785 15.4749 25.2687 15.4696 25.2581C15.4643 25.2476 15.453 25.2204 15.444 25.2023C15.4349 25.1842 15.4326 25.1766 15.4266 25.163L15.3745 25.043C15.3731 25.0391 15.3713 25.0353 15.3692 25.0317L15.3647 25.0204L15.333 24.9449C15.3255 24.9253 15.3172 24.9064 15.3096 24.8868C15.2892 24.8354 15.2696 24.7834 15.2507 24.7313L15.2236 24.6558C15.2168 24.6354 15.2092 24.6151 15.2024 24.5939C15.2024 24.5834 15.1956 24.5735 15.1926 24.5637C15.1896 24.5539 15.1843 24.5388 15.1805 24.5267C15.1647 24.4784 15.1481 24.4309 15.1337 24.3826L15.1164 24.3245C15.1119 24.3101 15.1081 24.295 15.1036 24.2799C15.099 24.2648 15.0937 24.2497 15.0892 24.2339C15.0871 24.2277 15.0853 24.2214 15.0839 24.215L15.0794 24.1977L15.0749 24.181V24.175V24.1667V24.1592V24.1539V24.1501V24.1433V24.1373V24.1327C15.0745 24.1282 15.0745 24.1237 15.0749 24.1192V24.0233C15.0752 24.0208 15.0752 24.0182 15.0749 24.0157C15.0552 23.9403 15.0386 23.8648 15.0228 23.7938C15.01 23.738 14.9986 23.6821 14.9881 23.6263C14.8341 22.823 14.8132 21.9999 14.9262 21.1898C14.9629 20.9161 15.0132 20.6433 15.0771 20.3716C15.0771 20.3663 15.0771 20.3618 15.0809 20.3565C15.1433 20.0873 15.2188 19.8194 15.3073 19.5527L15.3119 19.5368C15.3994 19.2704 15.4968 19.0085 15.6047 18.7443V18.7352C15.6319 18.6703 15.6606 18.6062 15.6885 18.542L15.7293 18.4514C15.7655 18.3692 15.8048 18.2869 15.8402 18.2046C15.8757 18.1223 15.9157 18.0363 15.961 17.9525C16.4398 17 17.013 16.0981 17.6721 15.2602C19.2957 13.1762 22.3978 12.4207 25.4412 12.4788H25.4502C25.5574 12.4788 25.6646 12.4818 25.7718 12.4878H25.8065C25.9189 12.4833 26.0329 12.4803 26.1439 12.478H26.4745H26.5424C26.6292 12.478 26.7152 12.478 26.802 12.478H26.8602H26.9017L27.2202 12.4894H27.2496C27.3734 12.4954 27.4972 12.5029 27.6202 12.5112H27.6436C27.6806 12.5112 27.7191 12.5173 27.7538 12.5203L27.8776 12.5309L27.9833 12.5399L28.0316 12.5445C28.1486 12.5565 28.2656 12.5694 28.3818 12.5837H28.3863C28.5531 12.6048 28.7185 12.6297 28.883 12.6592L29.003 12.6796L29.1253 12.6999H29.1366C29.2549 12.7216 29.3726 12.745 29.4898 12.7701H29.4951C30.4124 12.9559 31.2964 13.2791 32.1173 13.7287L32.1309 13.7363C32.2063 13.7808 32.2818 13.8253 32.3573 13.8721L32.4396 13.925H32.4441C32.472 13.9423 32.4992 13.9604 32.5264 13.9786L32.5935 14.0216L32.6849 14.0857C32.7309 14.1182 32.7769 14.1506 32.8215 14.1839L32.8464 14.2012L32.866 14.2163L32.9415 14.2752C32.9755 14.3016 33.0094 14.328 33.0419 14.3544L33.0615 14.3703L33.1143 14.4141C33.1415 14.4375 33.1694 14.4601 33.1966 14.4843L33.2057 14.4918C33.2268 14.5099 33.2472 14.5288 33.2676 14.5477L33.3332 14.608L33.3823 14.6533C33.3883 14.6594 33.3944 14.6639 33.3997 14.6699C33.4223 14.6911 33.4434 14.713 33.4653 14.7349L33.5355 14.8058C33.5446 14.8156 33.5544 14.8247 33.5634 14.8337L33.5846 14.8556C33.608 14.8805 33.6306 14.9062 33.6533 14.9311C33.6759 14.956 33.7008 14.9824 33.7242 15.0066L33.7559 15.0421L33.7748 15.0639L33.7808 15.0707L33.7899 15.0813L33.8027 15.0971L33.8095 15.1055C33.8139 15.1099 33.818 15.1147 33.8216 15.1198L33.8261 15.1251L33.8412 15.1439L33.8457 15.1492L33.8616 15.1689L33.8759 15.1862C33.8812 15.1938 33.8873 15.2006 33.8925 15.2073V15.2111L33.8978 15.2179L33.9054 15.2277L33.9106 15.2345C33.9159 15.2406 33.9205 15.2474 33.925 15.2534C33.9854 15.3289 34.045 15.4089 34.1039 15.4874L34.1212 15.51L34.1597 15.5629C34.208 15.6285 34.2563 15.6934 34.3039 15.7599L34.3288 15.7931L34.3597 15.8376C34.4088 15.9063 34.4571 15.975 34.5047 16.0444L34.5311 16.0814C34.5371 16.0905 34.5432 16.1003 34.55 16.1093C34.6051 16.1893 34.6594 16.2708 34.713 16.3524L34.7273 16.3743L34.7334 16.3833C34.7734 16.4445 34.8088 16.5056 34.8511 16.5667C34.873 16.6014 34.8964 16.6362 34.9175 16.6709C34.9696 16.7539 35.0202 16.8377 35.0685 16.9215C35.0791 16.9388 35.0896 16.9554 35.0994 16.9728L35.1062 16.9849C35.224 17.1826 35.3369 17.3839 35.4451 17.5887C35.8874 18.4086 36.2283 19.2792 36.4603 20.1814C36.4649 20.1988 36.4679 20.2169 36.4724 20.235C36.4973 20.3362 36.5192 20.4365 36.5403 20.5369C36.5471 20.5716 36.5554 20.6064 36.5622 20.6411C36.6125 20.8927 36.6503 21.146 36.6754 21.4012C36.6754 21.4163 36.68 21.4306 36.6807 21.4449C36.6815 21.4593 36.6807 21.4547 36.6807 21.4593C36.6868 21.5242 36.6921 21.5883 36.6966 21.6533C36.6966 21.6925 36.7019 21.7325 36.7034 21.7718C36.7185 22.045 36.7185 22.3189 36.7034 22.5922C36.7034 22.6209 36.7034 22.6503 36.7034 22.6798C36.6767 23.1203 36.6082 23.5572 36.4988 23.9848C36.4883 24.0286 36.4739 24.0716 36.4618 24.1146C36.4558 24.1365 36.4483 24.1576 36.4422 24.1795C36.4211 24.255 36.3992 24.3305 36.3758 24.4007C36.3411 24.5064 36.3048 24.612 36.2656 24.7162C36.2286 24.8143 36.1901 24.9109 36.1478 25.0068C36.1463 25.0097 36.145 25.0127 36.1441 25.0158C36.1033 25.1094 36.061 25.2015 36.0165 25.2928C36.0165 25.2996 36.0097 25.3057 36.0067 25.3117C35.9637 25.4 35.9184 25.4868 35.8716 25.5721L35.8542 25.6023C35.8089 25.6838 35.7621 25.7638 35.7131 25.8431C35.7048 25.8574 35.6957 25.871 35.6867 25.8846C35.6399 25.9601 35.5916 26.0356 35.5417 26.1058C35.5297 26.1239 35.5161 26.1412 35.5033 26.1594C35.4557 26.2265 35.4074 26.2937 35.3568 26.3586C35.3402 26.3805 35.3229 26.4009 35.3055 26.422C35.2572 26.4824 35.2089 26.542 35.1591 26.6001C35.1372 26.6251 35.1145 26.6492 35.0927 26.6756C35.0451 26.7285 34.9975 26.7813 34.9477 26.8319C34.9206 26.8598 34.8919 26.8855 34.8647 26.9126C34.8179 26.9579 34.7711 27.004 34.7228 27.0477C34.6903 27.0772 34.6556 27.1051 34.6224 27.1338C34.5771 27.1723 34.5318 27.2093 34.485 27.2485C34.4382 27.2878 34.4043 27.3089 34.3643 27.3391C34.3243 27.3693 34.279 27.4032 34.2345 27.4334C34.1899 27.4636 34.1378 27.4961 34.0895 27.5263C34.0412 27.5565 34.0141 27.5776 33.971 27.6018C33.9129 27.6357 33.8525 27.6667 33.7929 27.6976C33.7597 27.715 33.728 27.7338 33.6948 27.7504C33.6004 27.7965 33.5038 27.8395 33.4057 27.8788C32.6894 28.1633 29.8989 28.3211 26.8828 28.352H26.8149C26.4548 28.3558 26.091 28.3581 25.7272 28.3581H25.2298H24.9196H24.8192L24.2448 28.352H24.1535H23.9957H23.9761H23.7587L23.4711 28.346L23.1458 28.3384L22.8605 28.3309H22.7707H22.7126L22.3405 28.3188C20.2837 28.2433 18.6133 28.1052 18.082 27.8946C17.9876 27.8569 17.8963 27.8191 17.8057 27.7716L17.7914 27.7655L17.777 27.758C17.7121 27.7255 17.6487 27.6923 17.5853 27.6569L17.54 27.6304C17.5227 27.6206 17.5053 27.6108 17.4887 27.6002L17.4494 27.5768L17.3664 27.5248L17.2909 27.4757L17.2728 27.4636C17.2585 27.4546 17.2441 27.4455 17.2306 27.4357C17.217 27.4259 17.2026 27.4198 17.1883 27.407Z" fill="#DBCCE5"/>
    <path d="M16.8716 27.1609L16.8969 27.1826L16.881 27.1689L16.8716 27.1609Z" fill="#353C8E"/>
    <path d="M15.5034 25.3818L15.5172 25.4094V25.405L15.5034 25.3818Z" fill="#353C8E"/>
    <path d="M15.3745 25.1094C15.3803 25.1224 15.3861 25.1347 15.3912 25.147L15.3868 25.1362C15.3825 25.1275 15.3789 25.1188 15.3745 25.1094Z" fill="#353C8E"/>
    <path d="M16.4644 26.7716L16.4507 26.7571C16.4637 26.7708 16.476 26.7853 16.4898 26.7991L16.4644 26.7716Z" fill="#353C8E"/>
    <path d="M15.939 26.1186C15.9392 26.1171 15.9392 26.1155 15.939 26.114L15.9766 26.1671L15.9643 26.1494L15.939 26.1186Z" fill="#353C8E"/>
    <path d="M16.0967 26.3313L16.1125 26.3532L16.1442 26.394L16.108 26.3464L16.0967 26.3313Z" fill="#353C8E"/>
    <path d="M29.5008 26.8264L26.8281 28.3692C29.8473 28.3383 32.6347 28.1805 33.351 27.896C33.4491 27.8567 33.5458 27.8137 33.6401 27.7677C33.6733 27.7511 33.705 27.7322 33.7382 27.7148C33.7978 27.6839 33.8582 27.6529 33.9163 27.619C33.9564 27.5956 33.9918 27.5692 34.0349 27.5435C34.0779 27.5178 34.133 27.4831 34.1798 27.4507C34.2266 27.4182 34.2666 27.388 34.3096 27.3563C34.3526 27.3246 34.3911 27.2974 34.4304 27.2657C34.4696 27.234 34.5224 27.1902 34.5677 27.151C34.6009 27.1223 34.6357 27.0944 34.6681 27.065C34.7164 27.0212 34.7632 26.9751 34.81 26.9298C34.8372 26.9027 34.8659 26.877 34.893 26.8491C34.9429 26.7985 34.9904 26.7457 35.038 26.6928C35.0599 26.6687 35.0825 26.6445 35.1044 26.6174C35.1542 26.5592 35.2025 26.4996 35.2508 26.4392C35.2682 26.4181 35.2855 26.3977 35.3021 26.3758C35.3527 26.3109 35.401 26.2437 35.4486 26.1766C35.4614 26.1585 35.475 26.1411 35.4871 26.123C35.5369 26.0475 35.5852 25.9765 35.632 25.9018C35.641 25.8882 35.6501 25.8746 35.6584 25.8603C35.7075 25.7811 35.7543 25.701 35.7996 25.6195L35.8169 25.5893C35.8637 25.504 35.909 25.4173 35.952 25.3289C35.952 25.3229 35.9588 25.3169 35.9618 25.3101C36.0064 25.2187 36.0486 25.1267 36.0894 25.0331C36.0903 25.0299 36.0916 25.0269 36.0932 25.024C36.1347 24.9281 36.1739 24.8315 36.2109 24.7334C36.2502 24.6292 36.2864 24.5236 36.3211 24.4179C36.3445 24.3424 36.3664 24.267 36.3875 24.1968C36.3936 24.1749 36.4011 24.1537 36.4072 24.1318C34.8115 25.7924 32.5487 26.8151 30.2428 26.8438C29.9937 26.8498 29.7469 26.8415 29.5008 26.8264Z" fill="#353C8E"/>
    <path d="M26.8147 28.3701C26.4547 28.3739 26.0909 28.3762 25.7271 28.3762C26.0931 28.3762 26.4569 28.3739 26.8147 28.3701Z" fill="#353C8E"/>
    <path d="M16.267 26.5495L16.2617 26.5427L16.2934 26.582C16.2995 26.5888 16.3063 26.5956 16.3123 26.6031L16.267 26.5495Z" fill="#353C8E"/>
    <path d="M17.5399 27.6328L17.5861 27.6597C17.5676 27.6497 17.5499 27.6382 17.5322 27.6282L17.5399 27.6328Z" fill="#353C8E"/>
    <path d="M25.2074 26.3147C23.7862 26.2476 22.3679 26.4597 20.9467 26.5283C20.6025 26.5449 20.256 26.5517 19.9088 26.545L17.7954 27.7662L17.8082 27.773C17.8988 27.8168 17.9901 27.8583 18.0845 27.896C18.6128 28.1066 20.2862 28.2485 22.343 28.3202L25.7501 26.3525C25.5675 26.3366 25.3878 26.323 25.2074 26.3147Z" fill="#353C8E"/>
    <path d="M15.1274 24.4761C15.1274 24.4877 15.1354 24.4992 15.139 24.5116C15.139 24.5 15.1318 24.4884 15.1274 24.4768V24.4761Z" fill="#D2C7E3"/>
    <path d="M15.04 24.1819C15.0444 24.1971 15.0494 24.2116 15.0538 24.2261C15.0458 24.2116 15.04 24.1971 15.04 24.1819Z" fill="#D2C7E3"/>
    <path d="M15.4172 25.2054C15.4066 25.1835 15.3968 25.1608 15.3862 25.1382L15.3908 25.1495C15.3998 25.1676 15.4081 25.1865 15.4164 25.2054H15.4172Z" fill="#D2C7E3"/>
    <path d="M15.2845 24.8982L15.2573 24.8333C15.2649 24.8529 15.2732 24.8717 15.2807 24.8914C15.281 24.8944 15.281 24.8974 15.2807 24.9004L15.2845 24.8982Z" fill="#D2C7E3"/>
    <path d="M16.7202 27.0273L16.7353 27.0402C16.7444 27.0492 16.7549 27.0575 16.764 27.0658L16.7572 27.059L16.8017 27.099L16.8719 27.1609L16.8817 27.1692L16.8983 27.1836L16.955 27.2289L16.9655 27.2372L17.0055 27.2696L17.0304 27.2908C16.9323 27.2153 16.838 27.1323 16.7451 27.0485C16.7376 27.0424 16.7285 27.0349 16.7202 27.0273Z" fill="#6267AD"/>
    <path d="M17.0776 27.3254L17.1052 27.3479L17.0878 27.3334L17.0776 27.3254Z" fill="#6267AD"/>
    <path d="M23.6688 18.5519C23.4537 17.7314 23.0649 17.0725 22.5721 16.7132C22.5411 16.6913 22.5102 16.6694 22.4792 16.6498C22.254 16.4995 21.9899 16.4179 21.7191 16.415C20.9115 16.415 20.2096 17.1698 19.848 18.2862C19.6747 18.8368 19.5881 19.411 19.5914 19.9882C19.591 20.2831 19.613 20.5775 19.6571 20.8691C19.8903 22.4164 20.7251 23.5614 21.7191 23.5614C22.1479 23.5614 22.5494 23.3493 22.88 22.9832C23.4627 22.3462 23.8477 21.2427 23.8477 19.9882C23.849 19.5045 23.7889 19.0226 23.6688 18.5541V18.5519Z" fill="#70C5C7"/>
    <path d="M31.8304 19.6621C31.7323 17.8408 30.8212 16.4165 29.711 16.4165C29.4404 16.4195 29.1766 16.501 28.9516 16.6512C28.1516 17.1645 27.5832 18.4627 27.5832 19.9897C27.5776 20.6487 27.6919 21.3031 27.9206 21.9212C28.0149 22.1712 28.1354 22.4105 28.2799 22.6352C28.3603 22.7581 28.4504 22.8745 28.5493 22.9832C28.8829 23.3492 29.2815 23.5629 29.7102 23.5629C30.8862 23.5629 31.8387 21.9635 31.8387 19.9897C31.8402 19.878 31.8364 19.7693 31.8304 19.6621Z" fill="#70C5C7"/>
    <path d="M23.6677 18.5518L19.6567 20.8682C19.89 22.4155 20.7248 23.5605 21.7188 23.5605C22.1475 23.5605 22.5491 23.3484 22.8797 22.9824C23.4624 22.3453 23.8473 21.2418 23.8473 19.9874C23.8487 19.5037 23.7886 19.0218 23.6684 18.5533L23.6677 18.5518Z" fill="#81C3CD"/>
    <path d="M27.9221 21.9189L31.8304 19.6621C31.7323 17.8408 30.8212 16.4165 29.7109 16.4165C29.4404 16.4195 29.1766 16.501 28.9516 16.6512C28.1516 17.1645 27.5832 18.4627 27.5832 19.9897C27.5776 20.6487 27.6919 21.3031 27.9206 21.9212L27.9221 21.9189Z" fill="#81C3CD"/>
    <path d="M16.7634 27.0653H16.7677L16.7996 27.0935L16.7568 27.0552L16.7634 27.0653Z" fill="#4E539E"/>
    <path d="M31.8499 22.8299C31.4204 23.5733 30.8196 24.0375 30.1539 24.0375C30.0441 24.0375 29.9347 24.0248 29.8278 23.9998L25.752 26.3548C27.0064 26.4702 28.248 26.751 29.5025 26.8295L31.5993 25.6219L36.6489 22.7069C36.6489 22.6774 36.6489 22.648 36.6489 22.6193L36.6534 22.5136C36.6624 22.2751 36.6594 22.0366 36.6458 21.7988C36.6458 21.7596 36.6413 21.7234 36.639 21.6803C36.6345 21.6154 36.6292 21.5513 36.6232 21.4864C36.6232 21.4818 36.6232 21.4773 36.6232 21.472C36.6232 21.4667 36.6232 21.4433 36.6179 21.4282C36.6058 21.312 36.5922 21.1958 36.5749 21.0795C36.5553 20.9422 36.5311 20.8048 36.5047 20.6682C36.4979 20.6334 36.4896 20.5987 36.4828 20.564C36.4617 20.4629 36.4398 20.3625 36.4149 20.2621C36.4103 20.244 36.4073 20.2259 36.4028 20.2085L31.8499 22.8367V22.8299Z" fill="#6267AD"/>
    <path d="M31.8482 22.8307L29.8291 23.9968C29.936 24.0218 30.0454 24.0345 30.1552 24.0346C30.8209 24.0346 31.4217 23.5726 31.8512 22.8269L31.8482 22.8307Z" fill="#4E539E"/>
    <path d="M19.6568 20.8683C19.6128 20.5768 19.5908 20.2823 19.5912 19.9875C19.5879 19.4102 19.6745 18.836 19.8478 18.2854L19.0485 18.7466C18.8801 19.5674 18.8698 20.4128 19.0183 21.2374L19.6568 20.8683Z" fill="#353C8E"/>
    <path d="M32.4755 19.2922L31.8347 19.6621C31.8408 19.7693 31.8445 19.878 31.8445 19.9874C31.8445 21.9612 30.892 23.5606 29.716 23.5606C29.2873 23.5606 28.8858 23.347 28.5552 22.9809C28.9009 23.5183 29.3432 23.8866 29.8338 23.9968L31.8528 22.8307C32.2657 22.1159 32.5208 21.1415 32.5208 20.0667C32.5208 19.8079 32.5057 19.5493 32.4755 19.2922Z" fill="#353C8E"/>
    <path d="M15.7278 25.7888L15.7066 25.7533L15.69 25.7254C15.6251 25.6137 15.5637 25.5002 15.5059 25.385L15.5149 25.4031V25.4076C15.5277 25.4333 15.5406 25.459 15.5542 25.4831L15.5632 25.5005C15.5632 25.5058 15.5685 25.5111 15.5715 25.5156C15.5743 25.52 15.5768 25.5245 15.5791 25.5292V25.5337L15.5866 25.5465V25.5518L15.5934 25.5639V25.5699L15.5995 25.5813V25.5873L15.6055 25.5986V25.6054L15.6115 25.6152C15.6125 25.6179 15.6137 25.6204 15.6153 25.6228L15.6206 25.6318L15.6251 25.6401L15.6304 25.6492L15.6349 25.6575C15.6364 25.6607 15.6382 25.6637 15.6402 25.6665L15.6447 25.6748V25.6816L15.6772 25.7375V25.742L15.6855 25.7556L15.6938 25.7692L15.7021 25.782L15.7066 25.7903L15.7149 25.8047L15.7232 25.819L15.7323 25.8341L15.7368 25.8409C15.7723 25.8983 15.8123 25.9549 15.8463 26.0115C15.8546 26.0228 15.8614 26.0356 15.8697 26.047C15.8772 26.059 15.8855 26.0696 15.8931 26.0809C15.8933 26.0824 15.8933 26.0839 15.8931 26.0854L15.9149 26.1156L15.927 26.133C15.9534 26.1707 15.9791 26.2085 16.0063 26.2447L16.035 26.2817C16.0388 26.2876 16.0431 26.2931 16.0478 26.2983L16.0591 26.3134L16.0953 26.3609C16.0985 26.3641 16.1013 26.3677 16.1036 26.3715C15.9427 26.1652 15.7955 25.9486 15.6629 25.7232C15.7149 25.7669 15.7195 25.7775 15.7278 25.7888Z" fill="#6267AD"/>
    <path d="M16.7714 25.8892C17.742 26.3602 18.8229 26.524 19.909 26.5458L25.9843 23.0421L27.9219 21.9235C27.6932 21.3055 27.5789 20.651 27.5845 19.992C27.5845 18.4681 28.1528 17.1668 28.9529 16.6536C29.3054 16.3033 29.716 16.1026 30.1545 16.1026C31.3018 16.1026 32.2581 17.4755 32.4725 19.2968L35.3883 17.6137C35.2806 17.4124 35.1676 17.2111 35.0494 17.0098L35.0426 16.9978C35.0328 16.9804 35.0222 16.9638 35.0116 16.9464C34.961 16.8626 34.9105 16.7789 34.8607 16.6958C34.8395 16.6611 34.8161 16.6264 34.7942 16.5917C34.755 16.5305 34.7188 16.4694 34.6765 16.4083L34.6704 16.3992L34.6561 16.3773C34.6267 16.332 34.5957 16.2882 34.5663 16.243L34.4908 16.1343C34.484 16.1252 34.478 16.1154 34.4719 16.1063L34.4455 16.0694C34.4138 16.0226 34.3814 15.9773 34.3489 15.9312L34.3006 15.8625L34.2697 15.818L34.2447 15.7848C34.207 15.7327 34.1693 15.6806 34.1308 15.6293C34.121 15.6157 34.1112 15.6014 34.1006 15.5878L34.0621 15.535L34.0447 15.5123C34.004 15.458 33.9625 15.4044 33.9209 15.35C33.9028 15.3266 33.8847 15.3017 33.8658 15.2746C33.8613 15.2685 33.8568 15.2617 33.8515 15.2557L33.847 15.2497L33.8394 15.2398L33.8341 15.2331V15.2293C33.8289 15.2225 33.8228 15.2157 33.8175 15.2081L33.8032 15.1908L33.7873 15.1712L33.7828 15.1659L33.7677 15.147L33.7632 15.1417C33.7596 15.1366 33.7555 15.1318 33.7511 15.1274L33.7443 15.1191L33.7315 15.1032L33.7224 15.0927L33.7164 15.0859L33.6975 15.064L33.6666 15.03C33.6432 15.0036 33.6198 14.9779 33.5956 14.9545L33.5903 14.9485C33.5692 14.9251 33.5488 14.9009 33.5269 14.8783L33.5058 14.8564C33.4975 14.8481 33.4885 14.8398 33.4802 14.8307L33.41 14.7598L33.4001 14.7507L33.3443 14.6949C33.339 14.6888 33.333 14.6843 33.3269 14.6783L33.2847 14.6398L33.2779 14.633L33.2122 14.5726L33.1979 14.5598L33.1503 14.5168L33.1412 14.5092L33.0771 14.4556L33.059 14.439L33.0061 14.3952L32.9865 14.3794C32.9541 14.353 32.9201 14.3265 32.8861 14.3001L32.8597 14.2797L32.8114 14.2413L32.7918 14.2262L32.7669 14.2088C32.7223 14.1756 32.6763 14.1431 32.6303 14.1107L32.5389 14.0465L32.4717 14.0035C32.4446 13.9854 32.4174 13.9673 32.3895 13.9499H32.385L32.3027 13.8971C32.2272 13.8503 32.1517 13.8057 32.0762 13.7612L32.0627 13.7537L25.3865 17.6076L23.6973 18.5836C23.8175 19.0521 23.8776 19.534 23.8762 20.0177C23.8762 21.2721 23.4913 22.3756 22.9086 23.0127C22.4874 23.6663 21.9273 24.0694 21.3061 24.0694C20.2434 24.0694 19.3437 22.8911 19.0471 21.2706L14.9297 23.6474C14.9387 23.6952 14.9486 23.7428 14.9591 23.7901C14.9591 23.7984 14.9591 23.8067 14.9644 23.815C14.9803 23.8905 14.9969 23.966 15.0165 24.0369C15.0168 24.0394 15.0168 24.042 15.0165 24.0445V24.0679C15.0161 24.0724 15.0161 24.0769 15.0165 24.0814V24.086V24.092V24.0988V24.1026V24.1079V24.1154V24.1237V24.1298L15.021 24.1464L15.0255 24.1637C15.027 24.1701 15.0287 24.1764 15.0308 24.1826C15.0354 24.1984 15.0406 24.2135 15.0452 24.2286C15.0497 24.2437 15.0535 24.2588 15.058 24.2732L15.0754 24.3313C15.0897 24.3796 15.1063 24.4271 15.1222 24.4754C15.1267 24.4875 15.1305 24.4996 15.1342 24.5117C15.138 24.5238 15.141 24.5313 15.144 24.5419C15.1508 24.563 15.1584 24.5834 15.1652 24.6038L15.1924 24.6792C15.2112 24.7313 15.2308 24.7834 15.2512 24.8347L15.2784 24.8996C15.2875 24.9223 15.2965 24.9442 15.3063 24.9668L15.3109 24.9781C15.2588 24.8544 15.2097 24.7283 15.1644 24.6007C15.5954 25.1466 16.1449 25.5872 16.7714 25.8892Z" fill="#6267AD"/>
    <path d="M15.3744 25.1093C15.3789 25.1191 15.3826 25.1282 15.3872 25.1372C15.3977 25.1599 15.4076 25.1825 15.4181 25.2044L15.4317 25.2339C15.4506 25.2731 15.4702 25.3093 15.4898 25.3508C15.4302 25.2316 15.3743 25.1101 15.3223 24.9878L15.3744 25.1093Z" fill="#6267AD"/>
    <path d="M16.4507 26.7571L16.465 26.7722L16.4877 26.7971L16.508 26.819L16.5231 26.8341C16.5473 26.859 16.5722 26.8831 16.5986 26.9095C16.625 26.936 16.6484 26.9601 16.6741 26.985L16.6854 26.9948L16.6952 27.0047L16.7126 27.0213L16.7013 27.0099C16.6167 26.9309 16.5332 26.8466 16.4507 26.7571Z" fill="#6267AD"/>
    <path d="M16.1719 26.4319L16.2028 26.4711C16.2224 26.4953 16.2428 26.5187 16.2624 26.5421L16.2677 26.5489L16.313 26.6025L16.3206 26.6115L16.3606 26.6576L16.4149 26.7172V26.7127C16.3274 26.6221 16.2474 26.5293 16.1719 26.4319Z" fill="#6267AD"/>
    <path d="M21.7192 23.5605C20.7251 23.5605 19.8903 22.4155 19.6571 20.8682L19.0186 21.2365C19.3159 22.857 20.2149 24.0353 21.2776 24.0353C21.8958 24.0353 22.4589 23.636 22.8801 22.9786C22.5464 23.3484 22.1479 23.5605 21.7192 23.5605Z" fill="#4E539E"/>
    <path d="M31.8309 19.662L32.4717 19.2922C32.2574 17.4709 31.3011 16.0979 30.1538 16.0979C29.7152 16.0979 29.3046 16.2987 28.9521 16.6489C29.1771 16.4987 29.441 16.4171 29.7115 16.4142C30.8218 16.4142 31.7328 17.8407 31.8309 19.662Z" fill="#4E539E"/>
    <path d="M17.292 27.4779L17.3675 27.527L17.4505 27.5791L17.4897 27.6025L17.5064 27.6123L17.5335 27.6281C17.5509 27.638 17.5682 27.6493 17.5864 27.6591C17.6498 27.6946 17.7132 27.7278 17.7781 27.7602L17.7917 27.767L19.9051 26.5458C18.8189 26.5239 17.7381 26.3601 16.7674 25.8891C16.1437 25.5879 15.5963 25.1492 15.1665 24.606C15.2118 24.732 15.2608 24.8581 15.3129 24.9834C15.315 24.987 15.3168 24.9908 15.3182 24.9947C15.3703 25.117 15.4262 25.2385 15.4858 25.3577C15.4896 25.3668 15.4939 25.3756 15.4986 25.3841L15.5099 25.4053L15.5009 25.3872C15.5587 25.5029 15.6201 25.6164 15.685 25.7276L15.7016 25.7555L15.7228 25.791C15.7167 25.7797 15.71 25.7691 15.7039 25.7585C15.8366 25.984 15.9838 26.2006 16.1447 26.4069L16.1658 26.4341C16.2413 26.5314 16.3228 26.6243 16.4059 26.7156V26.7201L16.4413 26.7586C16.5234 26.8472 16.6084 26.9325 16.6965 27.0145L16.7078 27.0258C16.7161 27.0334 16.7251 27.0394 16.7327 27.047C16.8255 27.1307 16.9199 27.2122 17.018 27.2892H17.0225H17.0271L17.0618 27.3141L17.0723 27.3224L17.0905 27.3375L17.0995 27.3451H17.1056L17.1123 27.3496L17.1206 27.3564H17.1252L17.1357 27.3647L17.1486 27.3738L17.1667 27.3859C17.181 27.3957 17.1954 27.407 17.2105 27.4168C17.2256 27.4266 17.2384 27.4357 17.2527 27.4447L17.292 27.4779Z" fill="#4E539E"/>
    <path d="M21.2776 16.0979C21.7162 16.0979 22.1268 16.2987 22.4792 16.6489C22.5102 16.6685 22.5411 16.6904 22.5721 16.7123L29.412 12.7633H29.4067C29.2895 12.7386 29.1717 12.7152 29.0535 12.6931H29.0421L28.9199 12.6727L28.7999 12.6523C28.6353 12.6259 28.47 12.601 28.3032 12.5768H28.2987C28.1824 12.5625 28.0654 12.5496 27.9485 12.5376L27.9001 12.533L27.7945 12.524L27.6707 12.5134C27.6337 12.5134 27.5952 12.5066 27.5605 12.5044H27.5371C27.4141 12.4961 27.2903 12.4885 27.1665 12.4825H27.1371C27.0412 12.4779 26.9461 12.4749 26.8502 12.4727H26.8185H26.777H26.7189C26.6321 12.4727 26.5461 12.4727 26.4593 12.4727H26.3913H26.06C25.9483 12.4727 25.8335 12.4779 25.7248 12.4825H25.6879H25.5595L25.3663 12.4764H25.3573L15.8771 17.9502C15.8356 18.034 15.7956 18.1177 15.7563 18.2023C15.7171 18.2868 15.6809 18.3668 15.6454 18.4491L15.6046 18.5397C15.5767 18.6038 15.548 18.668 15.5208 18.7329V18.7419C15.4129 19.0031 15.3155 19.2703 15.228 19.5345L15.2235 19.5503C15.1369 19.8165 15.0614 20.0845 14.997 20.3542C14.997 20.3595 14.997 20.364 14.9932 20.3693C14.9308 20.64 14.8805 20.9127 14.8423 21.1875L19.051 18.7578C19.3718 17.2037 20.2481 16.0979 21.2776 16.0979Z" fill="#6267AD"/>
    <path d="M21.7191 16.4142C21.9898 16.417 22.2539 16.4986 22.4791 16.6489C22.1266 16.2987 21.716 16.0979 21.2775 16.0979C20.248 16.0979 19.3717 17.2037 19.0479 18.7472L19.8472 18.286C20.2087 17.1705 20.9114 16.4142 21.7191 16.4142Z" fill="#4E539E"/>
    <path d="M19.8481 18.2869L22.5714 16.7147C22.5405 16.6928 22.5095 16.6709 22.4786 16.6512C22.2534 16.5009 21.9893 16.4194 21.7185 16.4165C20.9116 16.4142 20.2089 17.1705 19.8481 18.2869Z" fill="#81C3CD"/>
    <path d="M25.7489 26.3525L22.3418 28.3203L22.7139 28.3324H22.772H22.8618L23.1472 28.3399L23.4717 28.3475L23.7593 28.3535H23.9767H24.0831H24.154H24.2454L24.8198 28.3595H24.9617H25.2304H25.7308C26.0946 28.3595 26.4584 28.3595 26.8185 28.3535H26.8283L29.501 26.8107C28.2488 26.7488 27.0034 26.468 25.7489 26.3525Z" fill="#4E539E"/>
    <path d="M22.5206 36.9626C21.1975 35.9135 18.2847 35.4953 16.8393 36.6282C15.2482 37.8759 16.2461 41.1079 17.0114 42.542C17.6243 43.6998 18.5171 44.6858 19.6086 45.4102C20.7454 46.1544 22.2753 46.5786 23.4422 45.8835C24.6921 45.1385 24.9926 43.4523 24.8763 42.0016C24.7261 40.1003 24.0151 38.1484 22.5206 36.9626Z" fill="#F3EFF8"/>
    <path d="M35.7484 28.6577C35.4986 28.9151 35.2752 29.3 35.4465 29.6133C35.5537 29.8065 35.7892 29.9008 36.0096 29.8963C36.2309 29.8796 36.446 29.8149 36.6398 29.7068C37.2086 29.4267 37.7281 29.0561 38.1781 28.6094C38.9781 27.8182 39.5528 26.8282 39.8431 25.7412C39.9632 25.2883 40.1262 24.6611 40.0885 24.1871C40.0454 23.6451 39.2839 23.6934 38.9336 23.9327C38.5328 24.2059 38.3524 24.6958 38.2234 25.163C37.7418 26.9119 36.4428 27.9406 35.7484 28.6577Z" fill="#F3EFF8"/>
    <path d="M10.4275 36.2652C10.6728 36.3105 10.9256 36.2471 11.1596 36.1603C11.743 35.9422 12.2609 35.5785 12.6639 35.1036C12.7779 34.9693 12.8903 34.8077 12.8662 34.6334C12.7409 33.5767 10.7415 34.7209 10.3686 34.9957C10.1059 35.1889 9.84025 35.475 9.90214 35.7957C9.94743 36.0418 10.1822 36.2192 10.4275 36.2652Z" fill="#F3EFF8"/>
    <path d="M40.1603 36.318C40.3943 36.4048 40.6471 36.4689 40.8924 36.4229C41.1378 36.3769 41.3725 36.1965 41.4208 35.9542C41.4804 35.6334 41.2178 35.3503 40.9551 35.1541C40.5822 34.8801 38.582 33.7381 38.4567 34.7926C38.4356 34.9669 38.5451 35.1284 38.659 35.262C39.0611 35.7364 39.5779 36.1 40.1603 36.318Z" fill="#F3EFF8"/>
    <path d="M26.2298 5.8442C26.6233 5.71493 26.9537 5.44212 27.155 5.08016C27.3564 4.7182 27.414 4.29366 27.3163 3.89114C27.2186 3.48862 26.9729 3.13769 26.628 2.90827C26.2831 2.67886 25.8645 2.58781 25.4555 2.65327C25.0465 2.71874 24.6772 2.9359 24.4212 3.2615C24.1651 3.58709 24.0412 3.99719 24.074 4.41009C24.1069 4.82299 24.2941 5.20835 24.5984 5.48938C24.9026 5.77041 25.3016 5.92648 25.7158 5.92647C25.8904 5.92636 26.0639 5.89859 26.2298 5.8442ZM24.1828 4.16781C24.1827 3.89385 24.2638 3.62599 24.4159 3.39812C24.568 3.17025 24.7843 2.99261 25.0373 2.88767C25.2904 2.78272 25.5689 2.75519 25.8376 2.80854C26.1063 2.8619 26.3532 2.99375 26.547 3.18742C26.7408 3.38109 26.8727 3.62788 26.9262 3.89658C26.9798 4.16527 26.9524 4.44379 26.8476 4.69692C26.7428 4.95004 26.5652 5.1664 26.3374 5.31862C26.1097 5.47085 25.8418 5.5521 25.5679 5.5521C25.2007 5.5521 24.8485 5.40628 24.5888 5.1467C24.3291 4.88711 24.183 4.53502 24.1828 4.16781Z" fill="#D160A0"/>
    </g>
    <defs>
    <clipPath id="clip0_202_12885">
    <rect width="35.7265" height="48.4198" fill="white" transform="translate(7.85205 2.61743)"/>
    </clipPath>
    </defs>
    </svg>
    