<svg width="34" height="46" viewBox="0 0 34 46" fill="none" xmlns="http://www.w3.org/2000/svg">
<g clip-path="url(#clip0_4731_24570)">
<path d="M32.8524 30.9748C31.3773 30.1359 27.584 28.2421 25.7763 27.7767L25.7003 27.7566C26.431 27.672 26.9774 27.5716 27.2685 27.4562C29.4198 26.6014 30.8639 24.4595 31.4419 22.2072C32.5096 18.0482 30.5685 13.7709 27.934 10.3892C26.583 8.65605 24.4741 7.60411 22.0934 7.06989C22.0827 7.02113 22.0705 6.97237 22.0569 6.92648C22.0163 6.78181 21.9621 6.64135 21.8948 6.50699C21.8626 6.44246 21.8281 6.37935 21.7901 6.3184C21.2616 5.47871 19.4453 4.76738 17.459 4.70356V3.06506C17.6144 3.01393 17.761 2.9392 17.8936 2.84348C17.9917 2.77185 18.0814 2.68934 18.161 2.59753C18.1869 2.56669 18.2127 2.53514 18.2327 2.50288C18.2809 2.4374 18.3241 2.36836 18.3618 2.29636C18.4839 2.06136 18.5446 1.79933 18.5383 1.5346C18.5321 1.26986 18.459 1.011 18.3259 0.782045C18.1929 0.553089 18.0041 0.361462 17.7772 0.22495C17.5503 0.088439 17.2926 0.0114682 17.028 0.00118558C16.7634 -0.00909704 16.5005 0.0476417 16.2636 0.166133C16.0268 0.284623 15.8238 0.461026 15.6733 0.678966C15.5229 0.896905 15.43 1.14932 15.4032 1.41277C15.3764 1.67622 15.4166 1.94217 15.5201 2.18593C15.682 2.56423 15.9854 2.86427 16.3655 3.02203C16.4035 3.03781 16.4415 3.05215 16.4809 3.06506V4.72364C15.1429 4.83048 13.8099 5.26001 12.8096 6.16925C12.546 6.40969 12.3243 6.69224 12.1534 7.00535C9.64799 7.51591 7.41504 8.58291 6.006 10.3892C3.37148 13.7709 1.43037 18.0468 2.49809 22.2072C3.07605 24.4595 4.52167 26.6014 6.67144 27.4562C6.96257 27.5716 7.50898 27.6713 8.23967 27.7566C7.74515 27.8872 7.25943 28.0491 6.78545 28.2414C6.60117 28.3131 6.41042 28.3905 6.21609 28.4715C4.46476 29.2174 2.753 30.0529 1.08761 30.9748C0.78716 31.1455 0.463047 31.3585 0.247209 31.6202C0.227131 31.6451 0.207775 31.6709 0.189131 31.6976C0.184902 31.7028 0.181064 31.7084 0.177655 31.7141C0.162597 31.7356 0.148258 31.7579 0.135351 31.7808L0.121722 31.8038C0.109532 31.8253 0.0987777 31.8475 0.0880217 31.8697L0.0765461 31.8934C0.0633942 31.9231 0.0519048 31.9535 0.0421282 31.9845C0.00817782 32.0884 -0.00521206 32.198 0.00269462 32.3071C0.027075 32.642 0.262272 32.926 0.556988 33.0959L0.590688 33.1167L0.616501 33.1289C0.653072 33.1476 0.688211 33.1655 0.726933 33.1805L0.740553 33.1856C0.856398 33.2303 0.976544 33.263 1.09909 33.2831C1.11773 33.2867 1.13638 33.291 1.15574 33.2938H1.16219C1.31 33.3143 1.45899 33.3251 1.60821 33.3261C1.70716 33.3261 1.80612 33.3261 1.90436 33.3261C3.50467 33.3005 5.10092 33.1567 6.68004 32.8959C6.16447 35.0471 6.17093 37.3854 7.13754 39.3696C7.57929 40.2541 8.17683 41.0518 8.90152 41.7244C9.44626 42.2365 10.0408 42.6929 10.6763 43.0869C10.692 43.2148 10.7201 43.3408 10.7602 43.4633C10.7802 43.5257 10.8039 43.5866 10.8319 43.6483C10.8598 43.71 10.8885 43.7695 10.9222 43.8297C10.9849 43.9401 11.0568 44.045 11.1373 44.1431C11.6493 44.7763 12.5715 45.261 13.5976 45.6009C14.5886 45.9315 18.1904 46.3 20.3495 45.6009C21.3785 45.2682 22.2978 44.7763 22.8098 44.1431C22.9976 43.9139 23.1347 43.6475 23.2121 43.3615C23.2357 43.2736 23.2535 43.1843 23.2651 43.094C24.7495 42.1826 26.0438 40.9313 26.8046 39.3724C27.4829 37.9806 27.6873 36.4131 27.5726 34.8599C27.5219 34.1989 27.418 33.5431 27.2621 32.8987C28.8412 33.1596 30.4375 33.3034 32.0378 33.329C32.1353 33.329 32.2335 33.329 32.3325 33.329C32.4667 33.3273 32.6008 33.3185 32.734 33.3024C32.8996 33.2832 33.062 33.243 33.2173 33.1827C33.3149 33.1438 33.4073 33.0932 33.4927 33.0321C33.7365 32.8586 33.9229 32.6019 33.9423 32.3086C33.9825 31.7048 33.3808 31.2753 32.8524 30.9748Z" fill="#ECE3F2"/>
<path d="M27.3574 18.2163C27.3574 18.179 27.3531 18.1446 27.3509 18.1037C27.3466 18.042 27.3416 17.9811 27.3359 17.9194C27.3359 17.9151 27.3359 17.9108 27.3359 17.9058C27.3359 17.9007 27.3359 17.8785 27.3309 17.8642C27.3194 17.7538 27.3065 17.6433 27.29 17.5329C27.29 17.5257 27.29 17.5178 27.29 17.5107C27.2713 17.3873 27.2506 17.264 27.2269 17.1421C27.2204 17.1091 27.2126 17.0761 27.2061 17.0431C27.186 16.947 27.1652 16.8517 27.1416 16.7563C27.1416 16.7391 27.1344 16.7219 27.1301 16.7054C26.9096 15.8483 26.5858 15.0212 26.1656 14.2423C26.0633 14.051 25.956 13.8598 25.8437 13.6686L25.8372 13.6571C25.8279 13.6406 25.8179 13.6249 25.8078 13.6084C25.7598 13.5288 25.7117 13.4492 25.6644 13.3703L25.6013 13.2713C25.564 13.2133 25.5296 13.1552 25.4894 13.0971L25.4837 13.0885L25.4701 13.0677C25.4192 12.9903 25.3675 12.9128 25.3152 12.8368C25.3087 12.8282 25.303 12.8189 25.2973 12.8103L25.2722 12.7751C25.227 12.7092 25.1811 12.6439 25.1345 12.5787L25.1051 12.5364L25.0814 12.5048C25.0362 12.4417 24.9904 12.38 24.9445 12.3177L24.9079 12.2675L24.8914 12.2459C24.8355 12.1742 24.7788 12.0968 24.7215 12.0236C24.7172 12.0179 24.7128 12.0115 24.7078 12.0057L24.7028 11.9993L24.6956 11.9899L24.6906 11.9835V11.9799L24.6748 11.9598L24.6612 11.9433L24.6462 11.9247L24.6419 11.9197L24.6275 11.9017L24.6232 11.8967C24.6198 11.8919 24.6159 11.8873 24.6117 11.8831L24.6053 11.8752L24.5931 11.8602L24.5845 11.8501L24.5788 11.8437L24.5608 11.8229L24.5307 11.7892C24.5085 11.7641 24.4863 11.7397 24.4633 11.7175C24.4404 11.6952 24.4203 11.6687 24.3981 11.6458L24.378 11.625C24.3694 11.6164 24.36 11.6077 24.3514 11.5984L24.2848 11.531L24.2224 11.4686L24.2059 11.4536L24.1593 11.4106L24.0969 11.3532C24.0775 11.3353 24.0582 11.3173 24.0381 11.3001L24.0295 11.293C24.0037 11.27 23.9771 11.2485 23.9513 11.2263L23.9011 11.1847L23.8825 11.1696C23.8516 11.1445 23.8194 11.1194 23.7871 11.0943L23.7154 11.0384L23.6968 11.0241L23.6731 11.0076C23.6308 10.976 23.587 10.9452 23.5433 10.9143L23.4565 10.8534L23.3927 10.8125C23.3669 10.7953 23.3411 10.7781 23.3146 10.7616H23.3103L23.2321 10.7114C23.1604 10.667 23.0887 10.6246 23.017 10.5823L23.0041 10.5752C22.2243 10.148 21.3844 9.84098 20.513 9.66449H20.508C20.3966 9.64107 20.2847 9.61884 20.1724 9.5978H20.1616L20.0454 9.57844L19.9314 9.55908C19.7751 9.53398 19.6181 9.51032 19.4596 9.48738H19.4553C19.3449 9.47375 19.2337 9.46156 19.1226 9.45009L19.0767 9.44578L18.9763 9.43718L18.8587 9.42714C18.8236 9.42714 18.787 9.42069 18.754 9.41854H18.7318C18.6149 9.41065 18.4973 9.40348 18.3797 9.39774H18.3517L18.0491 9.38698H18.0097H17.9545C17.872 9.38698 17.7903 9.38698 17.7078 9.38698H17.6433H17.2976C17.1908 9.38698 17.0825 9.392 16.9771 9.39631H16.9441C16.8423 9.39248 16.7405 9.38961 16.6387 9.3877H16.63C13.7388 9.33249 10.7917 10.0503 9.24925 12.0301C8.62309 12.8261 8.07849 13.683 7.62365 14.5879C7.58421 14.6675 7.54621 14.7471 7.50892 14.8274C7.47163 14.9077 7.43721 14.9837 7.40351 15.0619L7.36479 15.1479C7.33826 15.2089 7.31101 15.2698 7.28519 15.3315C7.28548 15.3343 7.28548 15.3372 7.28519 15.3401C7.18265 15.5882 7.09015 15.842 7.00697 16.093L7.00267 16.1081C6.92045 16.361 6.84874 16.6155 6.78755 16.8717C6.78789 16.8765 6.78789 16.8813 6.78755 16.8861C6.72827 17.1433 6.68047 17.4024 6.64414 17.6634C6.53684 18.433 6.5567 19.215 6.70293 19.9781C6.71297 20.0312 6.72373 20.0842 6.73592 20.1373C6.75097 20.209 6.76675 20.2807 6.7854 20.3481C6.78573 20.3505 6.78573 20.3529 6.7854 20.3553V20.3775C6.78508 20.3818 6.78508 20.3861 6.7854 20.3904V20.3947C6.78572 20.3966 6.78572 20.3986 6.7854 20.4005V20.4069V20.4177V20.4248V20.4327V20.4385L6.7897 20.4542L6.794 20.4707C6.79534 20.4768 6.79701 20.4828 6.79902 20.4887C6.80332 20.5037 6.80834 20.5181 6.81265 20.5324C6.81695 20.5467 6.82053 20.5611 6.82483 20.5747L6.84133 20.6299C6.85496 20.6758 6.87073 20.721 6.88579 20.7669C6.88579 20.7783 6.89367 20.7898 6.89726 20.802C6.90084 20.8142 6.90371 20.8207 6.90658 20.8307C6.91303 20.8508 6.9202 20.8701 6.92666 20.8895L6.95247 20.9612C6.9704 21.0107 6.98904 21.0602 7.00841 21.1089C7.01558 21.1276 7.02346 21.1455 7.03063 21.1641L7.06075 21.2358L7.06506 21.2466C7.06702 21.25 7.0687 21.2536 7.07007 21.2573L7.11955 21.3714C7.12529 21.3843 7.13103 21.3965 7.13605 21.4086C7.14107 21.4208 7.15254 21.4438 7.16042 21.4617C7.16831 21.4796 7.16902 21.4811 7.17404 21.4911C7.19197 21.5284 7.21062 21.5628 7.22926 21.6023C7.23289 21.6108 7.23696 21.6192 7.24145 21.6274L7.25507 21.6546C7.26726 21.679 7.27945 21.7034 7.29236 21.7263L7.30097 21.7428C7.30097 21.7478 7.30599 21.7528 7.30885 21.7571C7.31151 21.7613 7.31392 21.7656 7.31603 21.7701V21.7744L7.3232 21.7865V21.7916L7.32965 21.803C7.32943 21.8049 7.32943 21.8069 7.32965 21.8088L7.33468 21.8195V21.8253L7.34041 21.836V21.8425L7.34614 21.8518C7.34705 21.8543 7.34826 21.8567 7.34973 21.859L7.35475 21.8676L7.35905 21.8755L7.36407 21.8841L7.36838 21.892C7.36978 21.895 7.37146 21.8979 7.37339 21.9006L7.3777 21.9085V21.9149L7.40853 21.968V21.9723L7.41641 21.9852L7.42431 21.9981C7.42431 21.9981 7.42933 22.006 7.4322 22.0103L7.43649 22.0182L7.44438 22.0318L7.45227 22.0454L7.46087 22.0598L7.46518 22.0662C7.49888 22.1207 7.53688 22.1745 7.56915 22.2283C7.57704 22.239 7.5835 22.2512 7.59138 22.262C7.59855 22.2734 7.60644 22.2835 7.61361 22.2942L7.64874 22.3437C7.67384 22.3796 7.69822 22.4154 7.72404 22.4498L7.75129 22.485L7.77854 22.5215L7.80866 22.5603C7.81167 22.5633 7.81432 22.5667 7.81654 22.5703C7.82371 22.5789 7.83016 22.5882 7.83733 22.5961C7.8445 22.604 7.85598 22.6212 7.86602 22.6334C7.88466 22.6564 7.90403 22.6786 7.92267 22.7008L7.95279 22.7381L7.97788 22.7668L8.01589 22.8105L8.06752 22.8672L8.10122 22.9037C8.11413 22.9174 8.12632 22.9317 8.13994 22.9453L8.15931 22.9661L8.17651 22.9833C8.19946 23.007 8.22312 23.0299 8.24822 23.055C8.27332 23.0801 8.29555 23.1031 8.31993 23.1268L8.33068 23.1361L8.34 23.1454L8.3565 23.1612L8.37084 23.1734C8.38088 23.1834 8.39163 23.192 8.40238 23.2013L8.43394 23.2293C8.45617 23.2494 8.47768 23.2687 8.50062 23.2881L8.52573 23.3096L8.57951 23.3526C8.59528 23.3655 8.61105 23.3792 8.62754 23.3913L8.65121 23.4114H8.65551H8.65982L8.6928 23.4351L8.72005 23.4573L8.72865 23.4645H8.73439L8.74085 23.4688L8.74873 23.4752H8.75303L8.76307 23.4831L8.77527 23.4917L8.79247 23.5032C8.8061 23.5125 8.81972 23.5233 8.83406 23.5326C8.8484 23.5419 8.8606 23.5505 8.87422 23.5591L8.89143 23.5706L8.96314 23.6172L9.04201 23.6667L9.0793 23.6889L9.12806 23.7176L9.17109 23.7427C9.23132 23.7764 9.29155 23.808 9.35322 23.8388L9.36685 23.846L9.38047 23.8517C9.46652 23.8933 9.55328 23.9327 9.64292 23.9686C10.1449 24.1687 11.7346 24.3035 13.6886 24.3716L14.0421 24.3831H14.0974H14.1827L14.4537 24.3902L14.6602 24.3952H14.7628L15.036 24.401H15.2425H15.2612H15.411H15.4978L16.0435 24.4067H16.1783H16.4336H16.909C17.2546 24.4067 17.6002 24.4067 17.9423 24.401H17.9516C20.8199 24.3716 23.468 24.2217 24.1485 23.9514C24.2417 23.9141 24.3335 23.8732 24.4232 23.8295C24.4547 23.8137 24.4848 23.7958 24.5164 23.7793C24.573 23.7499 24.6304 23.7205 24.6856 23.6882C24.7236 23.666 24.7573 23.6409 24.7982 23.6165C24.8391 23.5921 24.8914 23.5591 24.9359 23.5283C24.9803 23.4975 25.0183 23.4688 25.0592 23.4387C25.1001 23.4086 25.1366 23.3827 25.1739 23.3526C25.2112 23.3225 25.2614 23.2809 25.3044 23.2436C25.336 23.2164 25.369 23.1899 25.3998 23.1619C25.4457 23.1203 25.4901 23.0766 25.5346 23.0335C25.5604 23.0077 25.5877 22.9833 25.6135 22.9568C25.6601 22.9088 25.706 22.8586 25.7512 22.8084C25.772 22.7854 25.7935 22.7625 25.8143 22.7367C25.8616 22.6814 25.9075 22.6248 25.9534 22.5674C25.9699 22.5474 25.9864 22.528 26.0021 22.5072C26.0502 22.4455 26.0961 22.3817 26.1412 22.3179C26.1534 22.3007 26.1663 22.2842 26.1778 22.267C26.2251 22.1953 26.271 22.1279 26.3155 22.0569C26.3241 22.044 26.3327 22.0311 26.3406 22.0174C26.3872 21.9421 26.4317 21.8661 26.4747 21.7887L26.4912 21.76C26.5356 21.679 26.5787 21.5965 26.6195 21.5126C26.6195 21.5069 26.626 21.5012 26.6289 21.4947C26.6712 21.4079 26.7113 21.3205 26.75 21.2315C26.7509 21.2285 26.7521 21.2257 26.7536 21.2229C26.7931 21.1319 26.8304 21.0401 26.8655 20.9469C26.9028 20.8479 26.9372 20.7475 26.9702 20.6471C26.9924 20.5754 27.0132 20.5037 27.0333 20.437C27.039 20.4162 27.0462 20.3962 27.0519 20.3754C27.0634 20.3345 27.077 20.2936 27.0871 20.252C27.1909 19.8458 27.256 19.4307 27.2814 19.0122C27.2814 18.9842 27.2814 18.9563 27.2814 18.929L27.2857 18.8286C27.2857 18.7713 27.2857 18.7139 27.2857 18.6573C27.2857 18.6006 27.2857 18.559 27.2857 18.5095C27.3674 18.4565 27.3646 18.336 27.3574 18.2163Z" fill="#4E54A0"/>
<path d="M22.6574 43.4445C19.0211 45.3963 12.9547 44.3659 11.2846 43.4445C11.0796 43.3312 10.8776 43.2117 10.6787 43.0859C10.7112 43.3471 10.7942 43.5994 10.9232 43.8288C10.9859 43.9392 11.0578 44.044 11.1384 44.1422C11.6503 44.7754 12.5725 45.2601 13.5986 45.6C14.5896 45.9305 18.1914 46.2991 20.3505 45.6C21.3795 45.2673 22.2988 44.7754 22.8108 44.1422C22.9986 43.913 23.1357 43.6466 23.2131 43.3606C23.2368 43.2727 23.2545 43.1834 23.2661 43.0931C23.0639 43.2193 22.861 43.3364 22.6574 43.4445Z" fill="#DB80B3"/>
<path d="M16.9711 6.65202C18.7021 6.58031 20.4618 6.70508 22.0939 7.07079C22.0513 6.87493 21.9846 6.68512 21.8952 6.50574C21.863 6.4412 21.8285 6.3781 21.7905 6.31715C21.2621 5.47746 19.4457 4.76613 17.4594 4.70231C17.1337 4.69112 16.8076 4.69855 16.4828 4.72454C15.1447 4.83138 13.8117 5.26091 12.8114 6.17015C12.5479 6.41059 12.3262 6.69313 12.1553 7.00625C13.7407 6.6967 15.3574 6.57778 16.9711 6.65202Z" fill="#DB80B3"/>
<path d="M16.4824 3.06585C16.7981 3.16902 17.1383 3.16957 17.4542 3.06743C17.7702 2.96528 18.0457 2.7657 18.2412 2.49729C18.4367 2.22889 18.5422 1.90546 18.5426 1.57339C18.5429 1.24132 18.438 0.917673 18.2431 0.648878C18.0481 0.380083 17.773 0.179948 17.4572 0.0771744C17.1414 -0.025599 16.8012 -0.0257277 16.4854 0.0768068C16.1696 0.179341 15.8943 0.379272 15.6991 0.647919C15.5039 0.916567 15.3988 1.24013 15.3989 1.5722C15.399 1.9036 15.5038 2.22649 15.6984 2.49475C15.893 2.76301 16.1674 2.9629 16.4824 3.06585Z" fill="#DB80B3"/>
<path d="M17.4591 4.70491V3.06641C17.1419 3.17061 16.7996 3.17061 16.4824 3.06641V4.72499C16.8073 4.69972 17.1334 4.69301 17.4591 4.70491Z" fill="#4E54A0"/>
<path d="M25.7451 28.1526C26.3539 29.8578 26.987 31.7795 27.2466 32.8422C27.2516 32.8609 27.2552 32.8795 27.2595 32.8982C28.8386 33.159 30.4349 33.3028 32.0352 33.3284C32.1327 33.3284 32.231 33.3284 32.3299 33.3284C32.4641 33.3268 32.5982 33.3179 32.7315 33.3019C32.897 33.2826 33.0594 33.2424 33.2148 33.1821C33.3123 33.1432 33.4048 33.0926 33.4901 33.0315C28.1437 32.8953 26.9598 30.288 25.7766 27.774L25.7006 27.7539L25.606 27.7654L25.7451 28.1526Z" fill="#E9D9EC"/>
<path d="M0.556241 33.0993L0.589941 33.1201L0.615754 33.1323C0.652325 33.1509 0.687465 33.1689 0.726904 33.1839L0.739806 33.1889C0.855651 33.2337 0.975797 33.2664 1.09834 33.2865C1.11698 33.2901 1.13563 33.2944 1.15499 33.2972H1.16144C1.30925 33.3177 1.45824 33.3285 1.60746 33.3295C1.70641 33.3295 1.80537 33.3295 1.90361 33.3295C3.50393 33.3039 5.10017 33.1601 6.6793 32.8992C6.6836 32.8806 6.68718 32.862 6.6922 32.8433C6.94748 31.8007 7.56129 29.9306 8.15933 28.2541C8.21741 28.0906 8.27549 27.9292 8.33285 27.7715H8.30919C6.99265 29.6359 5.55564 31.719 3.44674 32.246C1.33784 32.773 0.516796 32.2797 0.245744 31.6279C0.225666 31.6527 0.20631 31.6786 0.187666 31.7053C0.183437 31.7105 0.179599 31.7161 0.17619 31.7218C0.161132 31.7433 0.146793 31.7656 0.133886 31.7885L0.120257 31.8115C0.108067 31.833 0.0973129 31.8552 0.0865568 31.8774L0.0750813 31.9011C0.0619294 31.9308 0.05044 31.9612 0.0406633 31.9922C0.00671297 32.0961 -0.0066769 32.2057 0.00122978 32.3148C0.0263272 32.6454 0.261525 32.9294 0.556241 33.0993Z" fill="#E9D9EC"/>
<path d="M11.2844 43.4445C11.0793 43.3312 10.8771 43.2117 10.6777 43.0859C10.7108 43.3471 10.794 43.5993 10.923 43.8288C12.2323 44.4892 13.731 44.7782 15.2024 44.9274C16.8245 45.0916 18.4787 45.1066 20.0685 44.7438C21.19 44.4878 22.2806 44.0317 23.2092 43.3606C23.2329 43.2727 23.2506 43.1834 23.2623 43.0931C23.0639 43.2155 22.8622 43.3319 22.6571 43.4423C19.0187 45.3963 12.9544 44.3659 11.2844 43.4445Z" fill="#D160A0"/>
<path d="M23.2897 40.6577C20.7943 42.1987 17.7682 42.6992 14.8397 42.6275C12.8312 42.5771 10.837 42.2748 8.90381 41.7276C9.44844 42.2395 10.0427 42.6959 10.6778 43.09C10.8772 43.2143 11.0794 43.3338 11.2845 43.4486C12.9545 44.37 19.0209 45.4004 22.6572 43.4486C22.8613 43.3381 23.0631 43.2217 23.2624 43.0993C24.7467 42.1879 26.0411 40.9367 26.8019 39.3778C27.4802 37.9859 27.6846 36.4184 27.5698 34.8652C27.0579 37.2452 25.3892 39.362 23.2897 40.6577Z" fill="#E9D9EC"/>
<path d="M17.4063 29.6185C20.238 29.5138 23.0346 28.9775 25.7451 28.1514L25.606 27.7656C21.6012 28.2124 12.3402 28.2124 8.33613 27.7656C8.27877 27.9234 8.22068 28.0847 8.1626 28.2482C11.1047 29.3195 14.2742 29.7368 17.4063 29.6185Z" fill="#DBCCE5"/>
<path d="M16.9706 6.65235C18.7017 6.58064 20.4613 6.70541 22.0934 7.07112C22.0509 6.87526 21.9841 6.68545 21.8948 6.50607C18.7401 5.84326 15.4758 5.90801 12.3499 6.69537C12.2795 6.79539 12.2149 6.89929 12.1562 7.00658C13.7412 6.69714 15.3575 6.57822 16.9706 6.65235Z" fill="#D160A0"/>
<path d="M25.0227 24.5618C26.7035 23.925 27.8336 22.3317 28.2861 20.6552C29.1207 17.5589 27.6034 14.3765 25.5425 11.8603C23.7628 9.68619 20.2986 8.95191 16.9707 9.07812C13.6421 8.95191 10.1786 9.68619 8.39813 11.8603C6.33799 14.3765 4.82067 17.5589 5.65534 20.6552C6.10781 22.3317 7.23791 23.925 8.91872 24.5618C10.6146 25.2036 23.3268 25.2036 25.0227 24.5618ZM8.86924 23.5514L8.85203 23.54L8.83985 23.5314L8.82981 23.5235H8.8255L8.81761 23.517L8.81116 23.5127H8.80542L8.79682 23.5055L8.76957 23.4833L8.73658 23.4597H8.73229H8.72798L8.70432 23.4396C8.68783 23.4274 8.67205 23.4138 8.65627 23.4009L8.60249 23.3578L8.5774 23.3363L8.51071 23.2775L8.47916 23.2496C8.4684 23.2402 8.45764 23.2316 8.4476 23.2216L8.43327 23.2094L8.41677 23.1936L8.40745 23.1843L8.39669 23.175C8.37231 23.152 8.34865 23.1277 8.32499 23.1033C8.30132 23.0789 8.27766 23.0574 8.25328 23.0316L8.23607 23.0144L8.21671 22.9936C8.20308 22.9799 8.19089 22.9656 8.17798 22.952L8.14428 22.9154L8.09266 22.8588L8.05465 22.815L8.02956 22.7863L7.99944 22.749C7.98079 22.7268 7.96144 22.7046 7.94279 22.6816L7.91339 22.6444L7.89331 22.6185C7.89108 22.6149 7.88844 22.6115 7.88542 22.6085L7.8553 22.5698L7.82805 22.5332L7.80081 22.4981C7.775 22.4629 7.75062 22.4264 7.72552 22.3919L7.69038 22.3425C7.68321 22.3317 7.67532 22.3217 7.66815 22.3102C7.66026 22.2994 7.65381 22.2873 7.64592 22.2765C7.61079 22.2227 7.57421 22.1689 7.54194 22.1144L7.53765 22.108L7.52904 22.0936L7.52116 22.08L7.51327 22.0664L7.50896 22.0585L7.50108 22.0463L7.49319 22.0334L7.4853 22.0205V22.0162L7.45446 21.9631V21.9567L7.45017 21.9488C7.44823 21.9461 7.44655 21.9432 7.44514 21.9402L7.44084 21.9323L7.43582 21.9237L7.43152 21.9158L7.4265 21.9072C7.42502 21.905 7.42382 21.9026 7.42292 21.9L7.41718 21.8907V21.8843L7.41144 21.8735V21.8678L7.40571 21.857V21.8513L7.39925 21.8398V21.8348L7.39208 21.8226V21.8183C7.38997 21.8138 7.38757 21.8095 7.38491 21.8054C7.38491 21.8011 7.37989 21.7961 7.37702 21.791L7.36842 21.7745C7.35551 21.7502 7.34332 21.7258 7.33113 21.7028L7.3175 21.6756C7.31301 21.6674 7.30895 21.6591 7.30532 21.6505C7.28667 21.6139 7.26803 21.5788 7.2501 21.5393C7.24508 21.5293 7.24149 21.52 7.23647 21.5099C7.23145 21.4999 7.2207 21.4741 7.21209 21.4569C7.20349 21.4397 7.20134 21.4325 7.1956 21.4196L7.14613 21.3056C7.14476 21.3019 7.14307 21.2983 7.14111 21.2948L7.13681 21.2841L7.10669 21.2124C7.09952 21.1937 7.09162 21.1758 7.08445 21.1571C7.06509 21.1084 7.04646 21.0589 7.02853 21.0094L7.00272 20.9377C6.99626 20.9184 6.98909 20.899 6.98264 20.8789C6.98264 20.8689 6.97618 20.8596 6.97331 20.8502C6.97045 20.8409 6.96542 20.8266 6.96184 20.8151C6.94678 20.7692 6.931 20.724 6.91738 20.6781L6.90089 20.6229C6.89659 20.6093 6.893 20.595 6.8887 20.5806C6.88439 20.5663 6.87938 20.5519 6.87508 20.5369C6.87307 20.531 6.87139 20.525 6.87005 20.519L6.86575 20.5025L6.86145 20.4867V20.481V20.4731V20.4659V20.4609V20.4573V20.4508V20.4451V20.4408C6.86113 20.4365 6.86113 20.4322 6.86145 20.4279V20.3368C6.86178 20.3344 6.86178 20.332 6.86145 20.3297C6.8428 20.2579 6.82703 20.1862 6.81197 20.1188C6.79978 20.0658 6.78903 20.0127 6.77899 19.9596C6.63275 19.1965 6.61289 18.4145 6.72019 17.6449C6.75508 17.3849 6.80289 17.1258 6.8636 16.8676C6.8636 16.8626 6.8636 16.8583 6.86719 16.8533C6.92647 16.5975 6.99817 16.343 7.08231 16.0896L7.08661 16.0746C7.16979 15.8214 7.26229 15.5726 7.36483 15.3216V15.313C7.39065 15.2514 7.41789 15.1904 7.44442 15.1295L7.48315 15.0434C7.51757 14.9653 7.55485 14.8871 7.58856 14.8089C7.62226 14.7308 7.66026 14.649 7.70329 14.5694C8.15813 13.6645 8.70273 12.8077 9.32888 12.0116C10.8713 10.0318 13.8185 9.31403 16.7097 9.36925H16.7183C16.8201 9.36925 16.9219 9.37211 17.0238 9.37785H17.0567C17.1636 9.37355 17.2719 9.37068 17.3773 9.36853H17.6913H17.7559C17.8383 9.36853 17.9201 9.36853 18.0026 9.36853H18.0578H18.0972L18.3998 9.37929H18.4278C18.5454 9.38502 18.663 9.39219 18.7799 9.40008H18.8021C18.8372 9.40008 18.8738 9.40581 18.9068 9.40868L19.0244 9.41872L19.1248 9.42733L19.1707 9.43163C19.2818 9.4431 19.393 9.45529 19.5034 9.46892H19.5077C19.6662 9.489 19.8232 9.51266 19.9795 9.54063L20.0935 9.55999L20.2097 9.57935H20.2205C20.3328 9.5999 20.4447 9.62213 20.556 9.64603H20.5611C21.4325 9.82252 22.2723 10.1295 23.0522 10.5567L23.0651 10.5639C23.1368 10.6062 23.2085 10.6485 23.2802 10.693L23.3584 10.7432H23.3626C23.3892 10.7596 23.415 10.7769 23.4408 10.7941L23.5046 10.8349L23.5914 10.8959C23.6351 10.9267 23.6789 10.9576 23.7212 10.9891L23.7449 11.0056L23.7635 11.0199L23.8352 11.0759C23.8675 11.101 23.8997 11.1261 23.9306 11.1512L23.9492 11.1662L23.9994 11.2078C24.0252 11.23 24.0518 11.2516 24.0776 11.2745L24.0862 11.2817C24.1063 11.2989 24.1256 11.3168 24.145 11.3347L24.2074 11.3921L24.254 11.4351C24.2597 11.4409 24.2654 11.4452 24.2705 11.4509C24.292 11.471 24.3121 11.4918 24.3328 11.5126L24.3995 11.58C24.4081 11.5893 24.4175 11.5979 24.4261 11.6065L24.4461 11.6273C24.4684 11.651 24.4899 11.6753 24.5114 11.699C24.5329 11.7227 24.5566 11.7478 24.5788 11.7707L24.6089 11.8044L24.6268 11.8252L24.6326 11.8317L24.6412 11.8417L24.6534 11.8568L24.6598 11.8646C24.664 11.8689 24.6679 11.8734 24.6713 11.8783L24.6756 11.8833L24.6899 11.9012L24.6943 11.9062L24.7093 11.9249L24.7229 11.9414C24.728 11.9485 24.7337 11.955 24.7387 11.9614V11.965L24.7437 11.9715L24.7509 11.9808L24.7559 11.9873C24.7609 11.993 24.7652 11.9995 24.7695 12.0052C24.8269 12.0769 24.8836 12.1529 24.9395 12.2275L24.956 12.249L24.9926 12.2992C25.0384 12.3616 25.0843 12.4232 25.1295 12.4863L25.1532 12.5179L25.1826 12.5602C25.2292 12.6255 25.2751 12.6907 25.3203 12.7567L25.3453 12.7918C25.3511 12.8004 25.3568 12.8097 25.3633 12.8184C25.4156 12.8944 25.4673 12.9718 25.5182 13.0492L25.5318 13.07L25.5375 13.0786C25.5755 13.1367 25.6092 13.1948 25.6494 13.2529C25.6702 13.2859 25.6924 13.3189 25.7125 13.3518C25.762 13.4307 25.81 13.5103 25.8559 13.5899C25.8659 13.6064 25.876 13.6222 25.8853 13.6387L25.8918 13.6501C26.0036 13.838 26.1109 14.0292 26.2137 14.2238C26.6339 15.0027 26.9577 15.8298 27.1782 16.6869C27.1825 16.7034 27.1853 16.7206 27.1896 16.7379C27.2133 16.8339 27.2341 16.9293 27.2542 17.0247C27.2606 17.0577 27.2685 17.0906 27.275 17.1236C27.3228 17.3627 27.3586 17.6034 27.3825 17.8457C27.3825 17.8601 27.3868 17.8737 27.3876 17.8873C27.3883 17.9009 27.3876 17.8966 27.3876 17.9009C27.3933 17.9626 27.3983 18.0236 27.4026 18.0852C27.4026 18.1225 27.4076 18.1605 27.4091 18.1978C27.4234 18.4574 27.4234 18.7176 27.4091 18.9773C27.4091 19.0045 27.4091 19.0325 27.4091 19.0604C27.3837 19.4789 27.3186 19.8941 27.2148 20.3002C27.2047 20.3418 27.1911 20.3827 27.1796 20.4236C27.1739 20.4444 27.1667 20.4645 27.161 20.4852C27.1409 20.557 27.1201 20.6287 27.0979 20.6954C27.0649 20.7957 27.0305 20.8961 26.9932 20.9951C26.958 21.0883 26.9215 21.1801 26.8813 21.2712C26.8798 21.2739 26.8786 21.2768 26.8777 21.2798C26.839 21.3687 26.7989 21.4562 26.7565 21.5429C26.7565 21.5494 26.7501 21.5551 26.7472 21.5609C26.7063 21.6448 26.6633 21.7272 26.6189 21.8082L26.6024 21.8369C26.5593 21.9144 26.5149 21.9904 26.4683 22.0657C26.4604 22.0793 26.4518 22.0922 26.4432 22.1051C26.3987 22.1768 26.3528 22.2485 26.3055 22.3152C26.294 22.3324 26.2811 22.3489 26.2689 22.3661C26.2238 22.4299 26.1779 22.4938 26.1298 22.5554C26.114 22.5762 26.0976 22.5956 26.0811 22.6157C26.0352 22.673 25.9893 22.7297 25.942 22.7849C25.9212 22.8086 25.8996 22.8315 25.8789 22.8566C25.8337 22.9068 25.7885 22.957 25.7412 23.005C25.7154 23.0316 25.6881 23.0559 25.6623 23.0818C25.6178 23.1248 25.5734 23.1685 25.5275 23.2101C25.4967 23.2381 25.4637 23.2646 25.4321 23.2919C25.3891 23.3284 25.3461 23.3636 25.3016 23.4009C25.2571 23.4381 25.2249 23.4582 25.1869 23.4869C25.1489 23.5156 25.1059 23.5479 25.0635 23.5765C25.0212 23.6052 24.9718 23.6361 24.9259 23.6647C24.88 23.6934 24.8542 23.7135 24.8133 23.7364C24.7581 23.7687 24.7007 23.7981 24.6441 23.8275C24.6125 23.844 24.5824 23.8619 24.5508 23.8777C24.4612 23.9214 24.3694 23.9623 24.2762 23.9996C23.5957 24.2699 20.9447 24.4198 18.0793 24.4492H18.0147C17.6727 24.4528 17.3271 24.455 16.9814 24.455H16.5089H16.2142H16.1188L15.5731 24.4492H15.4864H15.3365H15.3179H15.1113L14.8381 24.4435L14.5291 24.4363L14.258 24.4291H14.1727H14.1175L13.764 24.4177C11.8099 24.346 10.2231 24.2147 9.71826 24.0147C9.62862 23.9788 9.54186 23.943 9.45581 23.8978L9.44218 23.892L9.42856 23.8849C9.36689 23.854 9.30665 23.8225 9.24642 23.7888L9.2034 23.7637C9.1869 23.7544 9.17041 23.7451 9.15463 23.735L9.11735 23.7128L9.03847 23.6633L8.96676 23.6167L8.94955 23.6052C8.93593 23.5966 8.92231 23.588 8.9094 23.5787C8.89649 23.5694 8.88287 23.5636 8.86924 23.5514Z" fill="#DBCCE5"/>
<path d="M8.56885 23.3164L8.5928 23.3369L8.57775 23.3239L8.56885 23.3164Z" fill="#353C8E"/>
<path d="M7.26904 21.627L7.28204 21.653V21.6489L7.26904 21.627Z" fill="#353C8E"/>
<path d="M7.14648 21.3672C7.15196 21.3795 7.15743 21.3911 7.16222 21.4028L7.15811 21.3925C7.15401 21.3843 7.15059 21.3761 7.14648 21.3672Z" fill="#353C8E"/>
<path d="M8.18195 22.9473L8.16895 22.9336C8.18126 22.9466 8.1929 22.9603 8.20591 22.9733L8.18195 22.9473Z" fill="#353C8E"/>
<path d="M7.68262 22.3266C7.68282 22.3251 7.68282 22.3237 7.68262 22.3223L7.71775 22.3717L7.70628 22.3553L7.68262 22.3266Z" fill="#353C8E"/>
<path d="M7.83252 22.5293L7.84758 22.5501L7.8777 22.5888L7.84328 22.5436L7.83252 22.5293Z" fill="#353C8E"/>
<path d="M20.567 22.9994L18.0278 24.4651C20.8961 24.4357 23.5442 24.2858 24.2247 24.0155C24.318 23.9782 24.4097 23.9373 24.4994 23.8936C24.5309 23.8778 24.561 23.8599 24.5926 23.8434C24.6492 23.814 24.7066 23.7846 24.7618 23.7523C24.7998 23.7301 24.8335 23.705 24.8744 23.6806C24.9153 23.6562 24.9676 23.6232 25.0121 23.5924C25.0565 23.5616 25.0946 23.5329 25.1354 23.5028C25.1763 23.4727 25.2129 23.4468 25.2502 23.4167C25.2874 23.3866 25.3376 23.345 25.3807 23.3077C25.4122 23.2805 25.4452 23.254 25.476 23.226C25.5219 23.1844 25.5664 23.1407 25.6108 23.0976C25.6367 23.0718 25.6639 23.0474 25.6897 23.0209C25.737 22.9729 25.7822 22.9227 25.8274 22.8725C25.8482 22.8495 25.8697 22.8266 25.8905 22.8008C25.9378 22.7456 25.9837 22.6889 26.0296 22.6315C26.0461 22.6115 26.0626 22.5921 26.0784 22.5713C26.1264 22.5096 26.1723 22.4458 26.2175 22.382C26.2297 22.3648 26.2426 22.3483 26.254 22.3311C26.3014 22.2594 26.3473 22.192 26.3917 22.121C26.4003 22.1081 26.4089 22.0952 26.4168 22.0815C26.4634 22.0063 26.5079 21.9302 26.5509 21.8528L26.5674 21.8241C26.6119 21.7431 26.6549 21.6606 26.6958 21.5767C26.6958 21.571 26.7022 21.5653 26.7051 21.5588C26.7474 21.472 26.7875 21.3846 26.8263 21.2956C26.8272 21.2927 26.8284 21.2898 26.8299 21.287C26.8693 21.196 26.9066 21.1042 26.9417 21.011C26.979 20.912 27.0134 20.8116 27.0464 20.7112C27.0686 20.6395 27.0894 20.5678 27.1095 20.5011C27.1152 20.4803 27.1224 20.4602 27.1282 20.4395C25.6123 22.017 23.4625 22.9886 21.2719 23.0159C21.0352 23.0216 20.8007 23.0137 20.567 22.9994Z" fill="#353C8E"/>
<path d="M18.0147 24.4648C17.6727 24.4684 17.3271 24.4706 16.9814 24.4706C17.3292 24.4706 17.6749 24.4684 18.0147 24.4648Z" fill="#353C8E"/>
<path d="M7.99477 22.7369L7.98975 22.7305L8.01987 22.7678C8.0256 22.7742 8.03206 22.7807 8.03779 22.7878L7.99477 22.7369Z" fill="#353C8E"/>
<path d="M9.20346 23.766L9.24648 23.7911C9.22927 23.7818 9.21278 23.771 9.19629 23.7617L9.20346 23.766Z" fill="#353C8E"/>
<path d="M16.4884 22.5123C15.1382 22.4485 13.7908 22.65 12.4405 22.7153C12.1136 22.731 11.7844 22.7375 11.4546 22.731L9.44678 23.8913L9.45897 23.8977C9.54502 23.9393 9.63178 23.9787 9.72141 24.0146C10.2234 24.2147 11.8131 24.3495 13.7671 24.4176L17.004 22.5482C16.8304 22.5331 16.6598 22.5202 16.4884 22.5123Z" fill="#353C8E"/>
<path d="M6.91162 20.7656C6.91162 20.7766 6.91914 20.7875 6.92257 20.7992C6.92257 20.7882 6.91573 20.7773 6.91162 20.7663V20.7656Z" fill="#D2C7E3"/>
<path d="M6.82861 20.4863C6.83272 20.5007 6.83751 20.5144 6.84161 20.5281C6.83408 20.5144 6.82861 20.5007 6.82861 20.4863Z" fill="#D2C7E3"/>
<path d="M7.18712 21.4584C7.17708 21.4376 7.16775 21.416 7.15771 21.3945L7.16202 21.4053C7.17063 21.4225 7.17851 21.4404 7.1864 21.4584H7.18712Z" fill="#D2C7E3"/>
<path d="M7.06097 21.1671L7.03516 21.1055C7.04233 21.1241 7.05021 21.142 7.05738 21.1607C7.05766 21.1635 7.05766 21.1664 7.05738 21.1693L7.06097 21.1671Z" fill="#D2C7E3"/>
<path d="M8.4248 23.1895L8.43914 23.2016C8.44775 23.2102 8.45779 23.2181 8.46639 23.226L8.45994 23.2196L8.50225 23.2576L8.56894 23.3164L8.57826 23.3243L8.59403 23.3379L8.64781 23.3809L8.65785 23.3888L8.69586 23.4196L8.71952 23.4397C8.6263 23.368 8.53666 23.2891 8.44846 23.2095C8.44129 23.2038 8.43269 23.1966 8.4248 23.1895Z" fill="#6267AD"/>
<path d="M8.76465 23.4727L8.79066 23.4939L8.77423 23.4802L8.76465 23.4727Z" fill="#6267AD"/>
<path d="M15.026 15.1374C14.8217 14.358 14.4524 13.732 13.9841 13.3907C13.9547 13.3699 13.9253 13.3491 13.8959 13.3304C13.682 13.1876 13.4311 13.1101 13.1738 13.1074C12.4066 13.1074 11.7397 13.8245 11.3962 14.885C11.2315 15.4081 11.1493 15.9537 11.1524 16.502C11.1521 16.7821 11.1729 17.0619 11.2148 17.3388C11.4364 18.8088 12.2295 19.8966 13.1738 19.8966C13.5811 19.8966 13.9626 19.6951 14.2767 19.3474C14.8303 18.7422 15.196 17.6938 15.196 16.502C15.1973 16.0425 15.1402 15.5847 15.026 15.1396V15.1374Z" fill="#70C5C7"/>
<path d="M22.7798 16.1928C22.6865 14.4625 21.821 13.1094 20.7662 13.1094C20.5092 13.1122 20.2586 13.1897 20.0449 13.3324C19.2848 13.82 18.7448 15.0534 18.7448 16.504C18.7395 17.13 18.8481 17.7518 19.0653 18.339C19.155 18.5764 19.2694 18.8038 19.4067 19.0173C19.4831 19.1341 19.5687 19.2446 19.6627 19.3479C19.9796 19.6957 20.3582 19.8986 20.7655 19.8986C21.8827 19.8986 22.7877 18.3791 22.7877 16.504C22.7891 16.3979 22.7855 16.2946 22.7798 16.1928Z" fill="#70C5C7"/>
<path d="M15.0254 15.1387L11.2148 17.3394C11.4364 18.8093 12.2295 19.8971 13.1739 19.8971C13.5812 19.8971 13.9627 19.6956 14.2767 19.3479C14.8303 18.7427 15.196 17.6943 15.196 16.5025C15.1973 16.043 15.1402 15.5852 15.0261 15.1401L15.0254 15.1387Z" fill="#81C3CD"/>
<path d="M19.0668 18.3368L22.7798 16.1928C22.6865 14.4625 21.821 13.1094 20.7662 13.1094C20.5092 13.1122 20.2586 13.1897 20.0449 13.3324C19.2848 13.82 18.7448 15.0534 18.7448 16.504C18.7395 17.13 18.8481 17.7518 19.0653 18.339L19.0668 18.3368Z" fill="#81C3CD"/>
<path d="M8.46612 23.2264H8.47023L8.50034 23.2531L8.45996 23.2168L8.46612 23.2264Z" fill="#4E539E"/>
<path d="M22.7986 19.2033C22.3906 19.9096 21.8198 20.3506 21.1873 20.3506C21.083 20.3505 20.9791 20.3385 20.8775 20.3147L17.0054 22.552C18.1971 22.6617 19.3767 22.9285 20.5685 23.003L22.5605 21.8557L27.3577 19.0864C27.3577 19.0584 27.3577 19.0305 27.3577 19.0032L27.362 18.9028C27.3706 18.6762 27.3677 18.4496 27.3548 18.2238C27.3548 18.1865 27.3505 18.152 27.3484 18.1112C27.3441 18.0495 27.3391 17.9886 27.3333 17.9269C27.3333 17.9226 27.3333 17.9183 27.3333 17.9133C27.3333 17.9082 27.3333 17.886 27.3283 17.8717C27.3168 17.7612 27.3039 17.6508 27.2874 17.5404C27.2688 17.4099 27.2458 17.2794 27.2207 17.1496C27.2143 17.1166 27.2064 17.0836 27.1999 17.0506C27.1799 16.9545 27.1591 16.8592 27.1354 16.7638C27.1311 16.7466 27.1282 16.7294 27.1239 16.7129L22.7986 19.2097V19.2033Z" fill="#6267AD"/>
<path d="M22.7971 19.2028L20.8789 20.3107C20.9805 20.3344 21.0844 20.3465 21.1887 20.3465C21.8211 20.3465 22.3919 19.9077 22.7999 19.1992L22.7971 19.2028Z" fill="#4E539E"/>
<path d="M11.2149 17.3386C11.1731 17.0616 11.1522 16.7819 11.1526 16.5018C11.1494 15.9534 11.2317 15.4078 11.3964 14.8848L10.637 15.3229C10.477 16.1027 10.4672 16.9058 10.6083 17.6892L11.2149 17.3386Z" fill="#353C8E"/>
<path d="M23.3929 15.8418L22.7841 16.1932C22.7899 16.295 22.7934 16.3982 22.7934 16.5022C22.7934 18.3774 21.8885 19.8968 20.7713 19.8968C20.364 19.8968 19.9825 19.6939 19.6685 19.3461C19.9969 19.8567 20.4171 20.2066 20.8832 20.3113L22.8013 19.2034C23.1936 18.5244 23.4359 17.5986 23.4359 16.5775C23.4359 16.3316 23.4216 16.086 23.3929 15.8418Z" fill="#353C8E"/>
<path d="M7.48181 22.0125L7.46173 21.9788L7.44596 21.9523C7.38429 21.8462 7.32597 21.7384 7.271 21.6289L7.2796 21.6461V21.6504C7.29179 21.6748 7.30398 21.6992 7.31689 21.7221L7.32549 21.7386C7.32549 21.7436 7.33051 21.7487 7.33338 21.753C7.33604 21.7571 7.33844 21.7614 7.34055 21.7659V21.7702L7.34772 21.7824V21.7874L7.35417 21.7989V21.8046L7.35991 21.8153V21.8211L7.36565 21.8318V21.8383L7.37138 21.8476C7.37228 21.8501 7.37349 21.8525 7.37497 21.8548L7.37998 21.8634L7.38429 21.8713L7.38931 21.8799L7.39361 21.8878C7.39502 21.8908 7.39669 21.8937 7.39863 21.8964L7.40293 21.9043V21.9107L7.43376 21.9638V21.9681L7.44166 21.981L7.44955 21.9939L7.45743 22.0061L7.46173 22.014L7.46962 22.0276L7.47751 22.0412L7.48612 22.0556L7.49041 22.062C7.52412 22.1165 7.56213 22.1703 7.5944 22.2241C7.60228 22.2348 7.60873 22.247 7.61662 22.2578C7.62379 22.2693 7.63168 22.2793 7.63885 22.29C7.63906 22.2915 7.63906 22.2929 7.63885 22.2943L7.65964 22.323L7.67112 22.3395C7.69622 22.3754 7.7206 22.4112 7.74641 22.4456L7.77366 22.4808C7.77732 22.4863 7.78139 22.4916 7.78585 22.4966L7.7966 22.5109L7.83102 22.5561C7.83404 22.5591 7.83668 22.5625 7.83891 22.5661C7.68605 22.3701 7.54617 22.1644 7.42014 21.9502C7.46962 21.9917 7.47392 22.0018 7.48181 22.0125Z" fill="#6267AD"/>
<path d="M8.47376 22.1091C9.39591 22.5566 10.4228 22.7122 11.4546 22.733L17.2263 19.4043L19.067 18.3416C18.8498 17.7545 18.7412 17.1327 18.7465 16.5067C18.7465 15.0589 19.2865 13.8227 20.0465 13.3351C20.3814 13.0023 20.7715 12.8116 21.1881 12.8116C22.2781 12.8116 23.1866 14.1159 23.3902 15.8462L26.1603 14.2472C26.058 14.0559 25.9507 13.8647 25.8383 13.6735L25.8319 13.662C25.8225 13.6456 25.8125 13.6298 25.8025 13.6133C25.7544 13.5337 25.7064 13.4541 25.659 13.3752C25.639 13.3422 25.6167 13.3092 25.5959 13.2763C25.5587 13.2182 25.5242 13.1601 25.4841 13.102L25.4783 13.0934L25.4647 13.0726C25.4368 13.0296 25.4074 12.988 25.3794 12.945L25.3077 12.8417C25.3012 12.8331 25.2955 12.8238 25.2898 12.8152L25.2647 12.78C25.2345 12.7356 25.2037 12.6926 25.1729 12.6488L25.127 12.5836L25.0976 12.5413L25.0739 12.5097C25.0381 12.4602 25.0022 12.4108 24.9656 12.362C24.9563 12.3491 24.947 12.3355 24.937 12.3226L24.9004 12.2724L24.8839 12.2508C24.8452 12.1992 24.8057 12.1483 24.7663 12.0967C24.7491 12.0744 24.7319 12.0508 24.714 12.025C24.7097 12.0192 24.7053 12.0128 24.7003 12.007L24.696 12.0013L24.6889 11.992L24.6838 11.9855V11.9819C24.6788 11.9755 24.6731 11.969 24.6681 11.9619L24.6544 11.9454L24.6394 11.9267L24.6351 11.9217L24.6207 11.9038L24.6164 11.8988C24.613 11.8939 24.6092 11.8894 24.605 11.8851L24.5985 11.8773L24.5863 11.8622L24.5777 11.8522L24.572 11.8457L24.554 11.8249L24.5247 11.7926C24.5024 11.7675 24.4802 11.7432 24.4572 11.7209L24.4522 11.7152C24.4321 11.693 24.4128 11.67 24.392 11.6485L24.3719 11.6277C24.364 11.6198 24.3554 11.6119 24.3475 11.6033L24.2808 11.5359L24.2715 11.5273L24.2185 11.4743C24.2134 11.4685 24.2077 11.4642 24.202 11.4585L24.1618 11.4219L24.1554 11.4155L24.093 11.3581L24.0793 11.3459L24.0342 11.305L24.0256 11.2979L23.9646 11.247L23.9474 11.2312L23.8972 11.1896L23.8786 11.1745C23.8477 11.1494 23.8155 11.1243 23.7832 11.0992L23.7581 11.0799L23.7122 11.0433L23.6936 11.029L23.6699 11.0125C23.6276 10.9809 23.5839 10.9501 23.5401 10.9193L23.4533 10.8583L23.3895 10.8174C23.3637 10.8002 23.3379 10.783 23.3114 10.7665H23.3071L23.2289 10.7163C23.1572 10.6719 23.0855 10.6296 23.0138 10.5872L23.0009 10.5801L16.6584 14.2414L15.0536 15.1686C15.1677 15.6137 15.2248 16.0715 15.2235 16.531C15.2235 17.7228 14.8578 18.7712 14.3043 19.3764C13.9041 19.9973 13.3721 20.3803 12.7819 20.3803C11.7723 20.3803 10.9175 19.2609 10.6357 17.7214L6.72412 19.9794C6.73273 20.0248 6.74205 20.07 6.75209 20.115C6.75209 20.1228 6.75208 20.1307 6.7571 20.1386C6.77216 20.2103 6.78793 20.282 6.80658 20.3494C6.80691 20.3518 6.80691 20.3542 6.80658 20.3566V20.3788C6.80626 20.3831 6.80626 20.3874 6.80658 20.3917V20.396V20.4018V20.4082V20.4118V20.4168V20.424V20.4319V20.4376L6.81088 20.4534L6.81519 20.4699C6.81653 20.476 6.8182 20.4819 6.82021 20.4878C6.82451 20.5029 6.82952 20.5172 6.83383 20.5316C6.83813 20.5459 6.84172 20.5603 6.84602 20.5739L6.86251 20.6291C6.87613 20.675 6.89191 20.7202 6.90697 20.766C6.91127 20.7775 6.91486 20.789 6.91844 20.8005C6.92203 20.8119 6.9249 20.8191 6.92777 20.8292C6.93422 20.8492 6.94139 20.8686 6.94785 20.8879L6.97366 20.9597C6.99159 21.0091 7.01023 21.0586 7.02959 21.1074L7.05541 21.169C7.06401 21.1906 7.07262 21.2113 7.08194 21.2329L7.08624 21.2436C7.03676 21.126 6.99015 21.0063 6.94713 20.8851C7.35653 21.4037 7.87859 21.8222 8.47376 22.1091Z" fill="#6267AD"/>
<path d="M7.14616 21.3674C7.15046 21.3767 7.15404 21.3853 7.15835 21.3939C7.16839 21.4154 7.17771 21.437 7.18775 21.4578L7.20065 21.4857C7.21858 21.523 7.23722 21.5574 7.25587 21.5969C7.19922 21.4836 7.14616 21.3681 7.09668 21.252L7.14616 21.3674Z" fill="#6267AD"/>
<path d="M8.16895 22.9336L8.18257 22.9479L8.20409 22.9716L8.22344 22.9924L8.23779 23.0067C8.26074 23.0304 8.2844 23.0533 8.3095 23.0784C8.33459 23.1035 8.35682 23.1265 8.3812 23.1502L8.39196 23.1595L8.40128 23.1688L8.41778 23.1846L8.40702 23.1738C8.32671 23.0988 8.24734 23.0187 8.16895 22.9336Z" fill="#6267AD"/>
<path d="M7.9043 22.625L7.9337 22.6623C7.95234 22.6852 7.9717 22.7075 7.99034 22.7297L7.99537 22.7361L8.03839 22.7871L8.04556 22.7957L8.08356 22.8394L8.13519 22.896V22.8917C8.05201 22.8057 7.976 22.7175 7.9043 22.625Z" fill="#6267AD"/>
<path d="M13.1741 19.8957C12.2297 19.8957 11.4366 18.8079 11.215 17.3379L10.6084 17.6878C10.8909 19.2274 11.745 20.3467 12.7546 20.3467C13.3419 20.3467 13.8768 19.9674 14.2769 19.3428C13.96 19.6942 13.5814 19.8957 13.1741 19.8957Z" fill="#4E539E"/>
<path d="M22.7808 16.1926L23.3896 15.8413C23.1859 14.111 22.2774 12.8066 21.1875 12.8066C20.7709 12.8066 20.3808 12.9974 20.0459 13.3301C20.2596 13.1874 20.5103 13.1099 20.7673 13.1071C21.8221 13.1071 22.6876 14.4624 22.7808 16.1926Z" fill="#4E539E"/>
<path d="M8.96848 23.6191L9.04019 23.6657L9.11906 23.7152L9.15635 23.7374L9.17213 23.7467L9.19795 23.7618C9.21444 23.7711 9.23093 23.7819 9.24814 23.7912C9.30837 23.8249 9.36861 23.8564 9.43028 23.8873L9.44318 23.8937L11.451 22.7335C10.4191 22.7127 9.39227 22.5571 8.47012 22.1096C7.87753 21.8235 7.35753 21.4067 6.94922 20.8906C6.99224 21.0104 7.03885 21.1301 7.08833 21.2492C7.09029 21.2526 7.09197 21.2562 7.09334 21.2599C7.14282 21.3761 7.19589 21.4915 7.25254 21.6048C7.25617 21.6134 7.26023 21.6218 7.26472 21.6299L7.27548 21.65L7.26688 21.6328C7.32185 21.7427 7.38018 21.8505 7.44185 21.9562L7.45762 21.9827L7.4777 22.0164C7.47196 22.0057 7.46551 21.9956 7.45977 21.9856C7.5858 22.1998 7.72568 22.4056 7.87854 22.6016L7.89862 22.6274C7.97032 22.7199 8.04776 22.8081 8.12664 22.8948V22.8991L8.16034 22.9357C8.23826 23.0198 8.31905 23.1009 8.40271 23.1788L8.41347 23.1896C8.42136 23.1967 8.42997 23.2025 8.43714 23.2096C8.52534 23.2892 8.61496 23.3667 8.70818 23.4398H8.71249H8.71679L8.74978 23.4635L8.75982 23.4714L8.77703 23.4857L8.78563 23.4929H8.79137L8.79782 23.4972L8.8057 23.5036H8.81001L8.82005 23.5115L8.83223 23.5201L8.84945 23.5316C8.86308 23.5409 8.8767 23.5517 8.89104 23.561C8.90538 23.5703 8.91757 23.5789 8.93119 23.5875L8.96848 23.6191Z" fill="#4E539E"/>
<path d="M12.7544 12.8074C13.171 12.8074 13.5611 12.9981 13.8959 13.3308C13.9253 13.3495 13.9547 13.3703 13.9841 13.3911L20.4822 9.63936H20.4772C20.3658 9.61593 20.254 9.5937 20.1416 9.57267H20.1309L20.0147 9.55331L19.9007 9.53394C19.7444 9.50885 19.5873 9.48518 19.4288 9.46224H19.4245C19.3141 9.44861 19.203 9.43643 19.0918 9.42495L19.0459 9.42065L18.9455 9.41205L18.8279 9.40201C18.7928 9.40201 18.7562 9.39555 18.7232 9.3934H18.701C18.5841 9.38551 18.4665 9.37834 18.3489 9.3726H18.321C18.2299 9.3683 18.1395 9.36543 18.0485 9.36328H18.0184H17.9789H17.9237C17.8412 9.36328 17.7595 9.36328 17.677 9.36328H17.6125H17.2977C17.1916 9.36328 17.0826 9.3683 16.9793 9.3726H16.9442H16.8223L16.6387 9.36687H16.6301L7.62372 14.5671C7.58429 14.6467 7.54628 14.7262 7.50899 14.8066C7.47171 14.8869 7.43729 14.9629 7.40359 15.041L7.36486 15.1271C7.33833 15.188 7.31108 15.249 7.28527 15.3107V15.3193C7.18273 15.5674 7.09023 15.8212 7.00705 16.0722L7.00275 16.0872C6.92052 16.3401 6.84882 16.5947 6.78763 16.8509C6.78763 16.8559 6.78762 16.8602 6.78404 16.8653C6.72476 17.1225 6.67696 17.3816 6.64062 17.6426L10.639 15.3343C10.9438 13.8579 11.7763 12.8074 12.7544 12.8074Z" fill="#6267AD"/>
<path d="M13.1739 13.1071C13.4312 13.1098 13.6821 13.1873 13.896 13.3301C13.5612 12.9974 13.1711 12.8066 12.7545 12.8066C11.7764 12.8066 10.9439 13.8571 10.6362 15.3236L11.3956 14.8854C11.7391 13.8256 12.4067 13.1071 13.1739 13.1071Z" fill="#4E539E"/>
<path d="M11.3965 14.8863L13.9837 13.3926C13.9543 13.3718 13.9249 13.351 13.8955 13.3324C13.6815 13.1896 13.4306 13.1121 13.1734 13.1094C12.4068 13.1072 11.7392 13.8257 11.3965 14.8863Z" fill="#81C3CD"/>
<path d="M17.0025 22.5488L13.7656 24.4182L14.1191 24.4297H14.1744H14.2597L14.5307 24.4369L14.8391 24.444L15.1123 24.4498H15.3188H15.4199H15.4873H15.5741L16.1198 24.4555H16.2546H16.5099H16.9853C17.3309 24.4555 17.6765 24.4555 18.0186 24.4498H18.0279L20.567 22.9841C19.3774 22.9253 18.1942 22.6585 17.0025 22.5488Z" fill="#4E539E"/>
<path d="M13.9356 32.6287C12.6785 31.632 9.91136 31.2347 8.53817 32.3111C7.02659 33.4964 7.97455 36.5669 8.70166 37.9293C9.28389 39.0292 10.1321 39.966 11.1691 40.6542C12.249 41.3612 13.7025 41.7642 14.8111 41.1038C15.9986 40.396 16.284 38.7941 16.1735 37.4159C16.0308 35.6096 15.3553 33.7552 13.9356 32.6287Z" fill="#F3EFF8"/>
<path d="M26.5023 24.7392C26.2649 24.9837 26.0527 25.3494 26.2155 25.647C26.3173 25.8306 26.541 25.9202 26.7504 25.9159C26.9607 25.9 27.165 25.8386 27.3491 25.7359C27.8895 25.4698 28.3831 25.1177 28.8105 24.6933C29.5705 23.9417 30.1166 23.0011 30.3924 21.9684C30.5064 21.5382 30.6613 20.9423 30.6254 20.492C30.5846 19.9771 29.861 20.023 29.5283 20.2503C29.1476 20.5099 28.9762 20.9753 28.8536 21.4192C28.3961 23.0806 27.162 24.058 26.5023 24.7392Z" fill="#F3EFF8"/>
<path d="M2.44666 31.9661C2.67971 32.0092 2.91992 31.9489 3.14221 31.8665C3.69646 31.6593 4.18846 31.3137 4.57134 30.8626C4.67961 30.7349 4.78645 30.5815 4.76351 30.4158C4.64447 29.4119 2.74496 30.499 2.39073 30.76C2.14119 30.9436 1.88878 31.2154 1.94758 31.5201C1.99061 31.7539 2.21361 31.9224 2.44666 31.9661Z" fill="#F3EFF8"/>
<path d="M30.6932 32.0164C30.9155 32.0989 31.1557 32.1599 31.3888 32.1161C31.6218 32.0724 31.8448 31.901 31.8907 31.6708C31.9474 31.3661 31.6978 31.0972 31.4483 30.9107C31.094 30.6504 29.1938 29.5655 29.0748 30.5673C29.0547 30.7329 29.1587 30.8863 29.2669 31.0133C29.6489 31.464 30.1399 31.8093 30.6932 32.0164Z" fill="#F3EFF8"/>
<path d="M17.4592 3.06481C17.8331 2.94199 18.1469 2.68282 18.3382 2.33894C18.5295 1.99507 18.5842 1.59175 18.4914 1.20935C18.3986 0.826944 18.1651 0.493547 17.8375 0.275598C17.5099 0.0576483 17.1122 -0.0288497 16.7236 0.0333419C16.3351 0.0955334 15.9842 0.301847 15.741 0.611168C15.4977 0.920489 15.38 1.3101 15.4112 1.70236C15.4424 2.09462 15.6202 2.46073 15.9093 2.72772C16.1984 2.99471 16.5774 3.14297 16.9709 3.14297C17.1368 3.14285 17.3016 3.11648 17.4592 3.06481ZM15.5145 1.47219C15.5144 1.21192 15.5915 0.957447 15.736 0.740966C15.8804 0.524486 16.0859 0.355723 16.3263 0.256021C16.5667 0.15632 16.8313 0.130162 17.0866 0.180852C17.3419 0.231543 17.5764 0.356804 17.7605 0.540796C17.9446 0.724789 18.07 0.959246 18.1209 1.21451C18.1717 1.46977 18.1457 1.73438 18.0461 1.97486C17.9465 2.21533 17.7779 2.42088 17.5615 2.56549C17.3451 2.71011 17.0906 2.7873 16.8304 2.7873C16.4815 2.7873 16.1469 2.64877 15.9002 2.40216C15.6535 2.15555 15.5147 1.82105 15.5145 1.47219Z" fill="#D160A0"/>
</g>
<defs>
<clipPath id="clip0_4731_24570">
<rect width="33.941" height="46" fill="white"/>
</clipPath>
</defs>
</svg>
