<svg width="36" height="39" viewBox="0 0 36 39" fill="none" xmlns="http://www.w3.org/2000/svg">
<g clip-path="url(#clip0_4731_24477)">
<path d="M17.4481 6.89547C17.6116 7.79479 17.669 8.71019 17.6193 9.62289C17.7647 9.62289 17.91 9.61103 18.0575 9.61103C18.3073 9.61103 18.555 9.61858 18.8016 9.63042C18.8866 8.73887 19.0072 7.83224 19.1677 6.93854C19.1967 6.77595 19.2333 6.61551 19.2656 6.45508C18.6679 6.68876 18.0154 6.74448 17.3867 6.61551C17.4083 6.71242 17.4298 6.80287 17.4481 6.89547Z" fill="#60597B"/>
<path d="M19.8792 38.8834C22.9087 38.5042 25.745 37.1911 27.9943 35.1265C30.2436 33.0619 31.7942 30.3482 32.4309 27.3622C33.7575 27.1468 34.7287 25.8612 35.1465 24.5561C35.4781 23.5203 35.5772 22.3757 35.1982 21.355C34.9662 20.6942 34.5096 20.1359 33.908 19.7776C33.3064 19.4192 32.598 19.2835 31.9066 19.3942C30.9332 16.6528 29.1684 14.2619 26.8355 12.524C24.5027 10.7861 21.7067 9.77936 18.8014 9.63127C18.8864 8.73972 19.007 7.83309 19.1675 6.93939C19.1966 6.7768 19.2332 6.61636 19.2655 6.45593C20.0134 6.16448 20.6313 5.61323 21.0059 4.90322C21.3804 4.19321 21.4866 3.372 21.3049 2.59009C21.1231 1.80818 20.6657 1.11796 20.0164 0.645914C19.3671 0.173871 18.5694 -0.0483759 17.7696 0.0199199C16.9698 0.0882156 16.2213 0.44248 15.6615 1.01777C15.1016 1.59306 14.7678 2.35084 14.7213 3.15224C14.6747 3.95364 14.9186 4.74497 15.4081 5.3812C15.8976 6.01743 16.6 6.45594 17.3865 6.61636C17.407 6.70788 17.4285 6.79834 17.4468 6.89094C17.6103 7.79026 17.6678 8.70564 17.618 9.61835C14.659 9.70794 11.796 10.6892 9.40418 12.4336C7.01231 14.178 5.20309 16.6041 4.21354 19.3942C3.52207 19.2835 2.8137 19.4192 2.21209 19.7776C1.61047 20.1359 1.15384 20.6942 0.9219 21.355C0.54719 22.3757 0.640868 23.5203 0.973585 24.5561C1.39137 25.8612 2.3626 27.1479 3.68916 27.3622C4.45 30.9647 6.53787 34.1494 9.53817 36.2838C12.5385 38.4182 16.2318 39.3462 19.8846 38.8834H19.8792Z" fill="#86CBC7"/>
<path d="M18.1189 7.37119C18.4898 7.28633 18.8442 7.14081 19.1677 6.94049C19.1967 6.7779 19.2333 6.61747 19.2656 6.45703C18.6679 6.69072 18.0154 6.74644 17.3867 6.61747C17.4072 6.70899 17.4287 6.79943 17.447 6.89203C17.4815 7.07293 17.5105 7.25598 17.5353 7.44119C17.7317 7.43746 17.9272 7.41401 18.1189 7.37119Z" fill="#463F61"/>
<path d="M18.0575 6.68369C18.9136 6.68335 19.7368 6.35413 20.357 5.76407C20.9772 5.17401 21.347 4.36821 21.3899 3.51323C21.4329 2.65825 21.1457 1.81945 20.5878 1.1702C20.0298 0.520951 19.2438 0.110887 18.392 0.0247586C17.5403 -0.0613697 16.6881 0.183023 16.0114 0.70743C15.3348 1.23184 14.8855 1.99616 14.7564 2.84243C14.6274 3.6887 14.8283 4.55222 15.3179 5.2545C15.8074 5.95679 16.548 6.44414 17.3867 6.61585C17.6074 6.66096 17.8322 6.68368 18.0575 6.68369ZM15.6607 2.83968C15.6607 2.44243 15.7784 2.05409 15.999 1.72375C16.2197 1.3934 16.5333 1.13587 16.9002 0.983702C17.2672 0.831535 17.671 0.791559 18.0607 0.868824C18.4503 0.946089 18.8083 1.13714 19.0895 1.41781C19.3706 1.69848 19.5622 2.05618 19.6401 2.44572C19.718 2.83526 19.6787 3.23914 19.5271 3.60633C19.3755 3.97352 19.1185 4.28755 18.7885 4.50872C18.4585 4.72988 18.0704 4.84826 17.6731 4.84889C17.409 4.84932 17.1474 4.79767 16.9032 4.69688C16.6591 4.5961 16.4372 4.44817 16.2503 4.26156C16.0634 4.07494 15.9151 3.85329 15.8139 3.60931C15.7127 3.36533 15.6607 3.10381 15.6607 2.83968Z" fill="#6DC3BC"/>
<path d="M19.6781 2.83931C19.6781 2.44174 19.5602 2.0531 19.3392 1.72259C19.1182 1.39209 18.8042 1.13456 18.4368 0.982616C18.0694 0.83067 17.6652 0.791123 17.2753 0.868999C16.8855 0.946875 16.5275 1.13867 16.2466 1.4201C15.9658 1.70152 15.7748 2.05993 15.6978 2.44997C15.6207 2.84 15.6611 3.24412 15.8139 3.61118C15.9666 3.97825 16.2248 4.29175 16.5558 4.51201C16.8867 4.73226 17.2756 4.84937 17.6732 4.84852C18.2053 4.84738 18.7153 4.63519 19.0911 4.25851C19.467 3.88183 19.6781 3.37144 19.6781 2.83931Z" fill="#AEDBE1"/>
<path d="M2.74484 24.7445C2.42182 24.1351 2.19893 23.4384 2.24631 22.7385C2.31307 21.7199 2.94297 20.9845 3.77207 20.8703C3.89325 20.3705 4.04061 19.8774 4.21353 19.393C3.52207 19.2824 2.8137 19.418 2.21209 19.7764C1.61047 20.1348 1.15384 20.6931 0.9219 21.3538C0.54719 22.3746 0.640868 23.5191 0.973585 24.555C1.39137 25.86 2.3626 27.1467 3.68916 27.361C3.56791 26.7845 3.48125 26.2013 3.42966 25.6145C3.14776 25.371 2.91527 25.0757 2.74484 24.7445Z" fill="#00B0B0"/>
<path d="M2.24617 22.7351C2.19879 23.435 2.41844 24.1349 2.7447 24.7411C2.91307 25.0734 3.14374 25.3702 3.42414 25.6155C3.38645 25.1848 3.36383 24.7476 3.36383 24.3061C3.36421 23.1484 3.50119 21.9948 3.77192 20.8691C2.94282 20.9768 2.31293 21.7165 2.24617 22.7351Z" fill="#008D8C"/>
<path d="M33.8686 22.7342C33.9149 23.4341 33.6963 24.134 33.37 24.7402C33.2017 25.0725 32.971 25.3693 32.6906 25.6145C32.639 26.2013 32.5524 26.7845 32.4311 27.361C33.7577 27.1457 34.7289 25.86 35.1467 24.555C35.4783 23.5191 35.5774 22.3746 35.1984 21.3538C34.9664 20.6931 34.5098 20.1348 33.9082 19.7764C33.3066 19.418 32.5982 19.2824 31.9067 19.393C32.0759 19.8762 32.2196 20.3679 32.3374 20.866C33.1719 20.9759 33.8018 21.7156 33.8686 22.7342Z" fill="#00B0B0"/>
<path d="M33.37 24.7452C33.693 24.1358 33.9148 23.4391 33.8685 22.7393C33.8018 21.7206 33.1719 20.9852 32.3428 20.8711C32.6137 21.9974 32.7507 23.1518 32.7509 24.3102C32.7509 24.7517 32.7282 25.1878 32.6906 25.6196C32.971 25.3744 33.2016 25.0775 33.37 24.7452Z" fill="#008D8C"/>
<path d="M25.7616 32.7434C24.1304 32.5851 22.8889 31.7894 22.8889 30.8289C22.8889 29.7522 24.4415 28.8832 26.3571 28.8832C27.0431 28.8767 27.7243 28.9991 28.3652 29.2439C29.199 27.502 29.5777 25.5771 29.4659 23.6491C29.3541 21.7211 28.7556 19.8529 27.7262 18.2189C26.6968 16.585 25.27 15.2385 23.5792 14.3054C21.8884 13.3722 19.9887 12.8828 18.0575 12.8828C16.1263 12.8828 14.2265 13.3722 12.5357 14.3054C10.8449 15.2385 9.41819 16.585 8.38876 18.2189C7.35933 19.8529 6.76079 21.7211 6.64903 23.6491C6.53728 25.5771 6.91596 27.502 7.74971 29.2439C8.39061 28.9991 9.07179 28.8767 9.75785 28.8832C11.6723 28.8832 13.225 29.7543 13.225 30.8289C13.225 31.7894 11.9835 32.5851 10.3533 32.7434C12.4584 34.6662 15.2064 35.7324 18.0575 35.7324C20.9085 35.7324 23.6566 34.6662 25.7616 32.7434ZM20.2142 22.7059C20.2142 21.5693 20.6657 20.4793 21.4694 19.6756C22.2731 18.8719 23.3631 18.4204 24.4997 18.4204C25.6363 18.4204 26.7263 18.8719 27.53 19.6756C28.3337 20.4793 28.7852 21.5693 28.7852 22.7059C28.7852 22.8512 28.7776 22.9955 28.7636 23.1366C28.7776 23.2787 28.7852 23.423 28.7852 23.5673C28.7852 24.7039 28.3337 25.7939 27.53 26.5976C26.7263 27.4013 25.6363 27.8528 24.4997 27.8528C23.3631 27.8528 22.2731 27.4013 21.4694 26.5976C20.6657 25.7939 20.2142 24.7039 20.2142 23.5673C20.2142 23.4208 20.2217 23.2766 20.2357 23.1366C20.2217 22.9955 20.2142 22.8512 20.2142 22.7059ZM17.6149 25.9954H18.5L19.5617 29.2407H16.5532L17.6149 25.9954ZM11.6153 27.856C11.0524 27.8561 10.495 27.7454 9.97494 27.5301C9.45488 27.3148 8.98233 26.9991 8.58427 26.6012C8.18621 26.2032 7.87045 25.7308 7.65501 25.2107C7.43958 24.6907 7.3287 24.1334 7.3287 23.5705C7.35862 23.2842 7.35862 22.9955 7.3287 22.7091C7.31969 22.1405 7.42389 21.5759 7.63524 21.048C7.84658 20.5201 8.16085 20.0395 8.55974 19.6342C8.95863 19.229 9.43416 18.9071 9.95864 18.6874C10.4831 18.4678 11.0461 18.3546 11.6147 18.3546C12.1833 18.3546 12.7463 18.4678 13.2708 18.6874C13.7953 18.9071 14.2708 19.229 14.6697 19.6342C15.0686 20.0395 15.3828 20.5201 15.5942 21.048C15.8055 21.5759 15.9097 22.1405 15.9007 22.7091C15.8708 22.9955 15.8708 23.2842 15.9007 23.5705C15.9007 24.7071 15.4492 25.7971 14.6455 26.6008C13.8419 27.4045 12.7518 27.856 11.6153 27.856ZM15.6186 32.9103V32.4699H15.6057V32.0596H15.6186V31.8152C15.6186 31.7058 15.6621 31.6009 15.7394 31.5236C15.8168 31.4463 15.9216 31.4028 16.031 31.4028H20.0839C20.1933 31.4028 20.2982 31.4463 20.3755 31.5236C20.4529 31.6009 20.4963 31.7058 20.4963 31.8152V32.0596H20.5092V32.4699H20.4963V32.9103C20.4963 33.0196 20.4529 33.1245 20.3755 33.2019C20.2982 33.2792 20.1933 33.3227 20.0839 33.3227H16.031C15.9216 33.3227 15.8168 33.2792 15.7394 33.2019C15.6621 33.1245 15.6186 33.0196 15.6186 32.9103Z" fill="#6DC3BC"/>
<path d="M11.6152 19.285C12.6768 19.2855 13.7005 19.6798 14.488 20.3917C15.2756 21.1037 15.7709 22.0825 15.8781 23.1387C15.8932 22.9956 15.9007 22.8519 15.9007 22.708C15.9097 22.1394 15.8055 21.5748 15.5942 21.0469C15.3828 20.519 15.0685 20.0384 14.6697 19.6331C14.2708 19.2279 13.7952 18.906 13.2708 18.6863C12.7463 18.4667 12.1833 18.3535 11.6147 18.3535C11.046 18.3535 10.4831 18.4667 9.95861 18.6863C9.43412 18.906 8.95859 19.2279 8.55971 19.6331C8.16082 20.0384 7.84655 20.519 7.6352 21.0469C7.42385 21.5748 7.31965 22.1394 7.32866 22.708C7.32862 22.8519 7.33617 22.9956 7.35128 23.1387C7.4585 22.0823 7.95397 21.1034 8.74172 20.3914C9.52946 19.6794 10.5534 19.2852 11.6152 19.285Z" fill="#40B8B0"/>
<path d="M24.4998 19.2844C25.5616 19.2845 26.5856 19.6788 27.3733 20.3907C28.1611 21.1027 28.6566 22.0817 28.7638 23.138C28.7778 22.9959 28.7853 22.8516 28.7853 22.7073C28.7853 21.5708 28.3338 20.4807 27.5301 19.6771C26.7264 18.8734 25.6364 18.4219 24.4998 18.4219C23.3633 18.4219 22.2732 18.8734 21.4695 19.6771C20.6659 20.4807 20.2144 21.5708 20.2144 22.7073C20.2144 22.8527 20.2219 22.997 20.2359 23.138C20.3433 22.0818 20.8389 21.1029 21.6266 20.391C22.4143 19.6791 23.4381 19.2848 24.4998 19.2844Z" fill="#40B8B0"/>
<path d="M11.6152 19.2852C10.5534 19.2853 9.52941 19.6796 8.74167 20.3915C7.95392 21.1035 7.45845 22.0825 7.35123 23.1388C7.33614 23.2819 7.32859 23.4257 7.32861 23.5695C7.34644 24.6945 7.80585 25.7674 8.60769 26.5566C9.40954 27.3458 10.4895 27.7882 11.6146 27.7882C12.7397 27.7882 13.8197 27.3458 14.6216 26.5566C15.4234 25.7674 15.8828 24.6945 15.9006 23.5695C15.9007 23.4257 15.8931 23.2819 15.878 23.1388C15.7708 22.0827 15.2755 21.1038 14.488 20.3919C13.7005 19.68 12.6768 19.2856 11.6152 19.2852Z" fill="#E6DCEC"/>
<path d="M28.7638 23.1376C28.6574 22.0807 28.1623 21.1009 27.3744 20.3884C26.5866 19.6758 25.5621 19.2812 24.4998 19.2812C23.4375 19.2812 22.4131 19.6758 21.6252 20.3884C20.8374 21.1009 20.3423 22.0807 20.2359 23.1376C20.2219 23.2798 20.2144 23.4241 20.2144 23.5683C20.2144 24.7049 20.6659 25.795 21.4695 26.5986C22.2732 27.4023 23.3633 27.8538 24.4998 27.8538C25.6364 27.8538 26.7264 27.4023 27.5301 26.5986C28.3338 25.795 28.7853 24.7049 28.7853 23.5683C28.7853 23.4241 28.7778 23.2798 28.7638 23.1376Z" fill="#E6DCEC"/>
<path d="M11.6152 20.3809C10.9842 20.3809 10.3674 20.568 9.84272 20.9185C9.31806 21.2691 8.90914 21.7674 8.66767 22.3504C8.42619 22.9333 8.363 23.5748 8.48611 24.1937C8.60921 24.8126 8.91307 25.3811 9.35926 25.8272C9.80545 26.2734 10.3739 26.5773 10.9928 26.7004C11.6117 26.8235 12.2532 26.7603 12.8361 26.5189C13.4191 26.2774 13.9174 25.8684 14.268 25.3438C14.6185 24.8191 14.8056 24.2023 14.8056 23.5713C14.8058 23.1523 14.7234 22.7373 14.5631 22.3502C14.4028 21.963 14.1678 21.6113 13.8715 21.315C13.5752 21.0187 13.2235 20.7837 12.8363 20.6234C12.4492 20.4631 12.0342 20.3807 11.6152 20.3809Z" fill="#063536"/>
<path d="M24.4998 20.3809C23.8687 20.3802 23.2515 20.5668 22.7264 20.917C22.2013 21.2672 21.7919 21.7652 21.5499 22.3481C21.308 22.931 21.2443 23.5726 21.3671 24.1917C21.4898 24.8108 21.7934 25.3796 22.2395 25.8261C22.6855 26.2726 23.254 26.5768 23.873 26.7002C24.4919 26.8235 25.1336 26.7605 25.7167 26.5192C26.2999 26.2778 26.7984 25.8689 27.1491 25.3441C27.4998 24.8194 27.687 24.2024 27.687 23.5713C27.687 22.7257 27.3513 21.9147 26.7537 21.3165C26.1561 20.7182 25.3454 20.3817 24.4998 20.3809Z" fill="#063536"/>
<path d="M13.0237 23.6575C12.8029 23.7972 12.5473 23.8718 12.2861 23.8729C11.9128 23.8729 11.5549 23.7246 11.291 23.4607C11.027 23.1968 10.8788 22.8388 10.8788 22.4656C10.8803 22.3163 10.9062 22.1683 10.9552 22.0273C10.592 22.072 10.25 22.2231 9.97252 22.4617C9.695 22.7003 9.4943 23.0157 9.3957 23.3682C9.2971 23.7206 9.30502 24.0944 9.41845 24.4423C9.53188 24.7903 9.74576 25.0969 10.0331 25.3236C10.3205 25.5502 10.6685 25.6867 11.0333 25.7159C11.3982 25.7451 11.7635 25.6657 12.0832 25.4877C12.403 25.3097 12.6629 25.041 12.8303 24.7155C12.9976 24.39 13.0649 24.0223 13.0237 23.6586V23.6575Z" fill="#0D5354"/>
<path d="M12.2894 23.8735C12.6603 23.8682 13.0143 23.718 13.2759 23.455C13.5375 23.192 13.6858 22.8371 13.6891 22.4662C13.6962 22.1283 13.5808 21.7993 13.3643 21.5399C13.1477 21.2804 12.8446 21.1081 12.5109 21.0547C12.1772 21.0013 11.8354 21.0704 11.5487 21.2493C11.262 21.4282 11.0497 21.7047 10.951 22.0279C10.9019 22.1689 10.8761 22.3169 10.8745 22.4662C10.8745 22.6516 10.9112 22.8353 10.9824 23.0065C11.0536 23.1777 11.1579 23.3332 11.2894 23.464C11.4208 23.5948 11.5769 23.6983 11.7485 23.7685C11.9201 23.8388 12.1039 23.8745 12.2894 23.8735Z" fill="#81CCD9"/>
<path d="M12.8813 24.777C12.8811 24.8926 12.9152 25.0058 12.9794 25.1021C13.0435 25.1984 13.1347 25.2735 13.2415 25.3179C13.3483 25.3623 13.4659 25.374 13.5794 25.3516C13.6929 25.3292 13.7972 25.2736 13.8791 25.1918C13.961 25.1101 14.0167 25.0059 14.0394 24.8925C14.062 24.7791 14.0505 24.6614 14.0063 24.5545C13.9621 24.4476 13.8871 24.3563 13.791 24.292C13.6948 24.2277 13.5817 24.1934 13.466 24.1934C13.3111 24.1934 13.1626 24.2548 13.053 24.3642C12.9434 24.4736 12.8816 24.6221 12.8813 24.777Z" fill="#81CCD9"/>
<path d="M24.0691 25.7131C24.3297 25.7138 24.5875 25.6594 24.8256 25.5534C25.0636 25.4475 25.2766 25.2923 25.4504 25.0982C25.6242 24.904 25.7549 24.6753 25.834 24.427C25.9131 24.1787 25.9388 23.9165 25.9093 23.6575C25.6885 23.797 25.4329 23.8717 25.1717 23.8729C24.9486 23.8756 24.728 23.8247 24.5287 23.7242C24.3294 23.6238 24.1572 23.4769 24.0266 23.296C23.8959 23.115 23.8108 22.9052 23.7783 22.6844C23.7458 22.4636 23.7669 22.2383 23.8398 22.0273C23.3753 22.089 22.9515 22.3245 22.6539 22.6864C22.3562 23.0482 22.2069 23.5095 22.236 23.9771C22.2651 24.4448 22.4705 24.884 22.8107 25.2061C23.1509 25.5283 23.6006 25.7095 24.0691 25.7131Z" fill="#0D5354"/>
<path d="M25.1717 23.8734C25.5439 23.8701 25.8999 23.7207 26.1631 23.4575C26.4263 23.1943 26.5756 22.8383 26.579 22.4661C26.5792 22.1875 26.4968 21.915 26.3421 21.6832C26.1874 21.4515 25.9675 21.2708 25.7101 21.1641C25.4527 21.0573 25.1694 21.0293 24.8961 21.0837C24.6228 21.138 24.3717 21.2721 24.1747 21.4692C23.9777 21.6662 23.8435 21.9172 23.7892 22.1905C23.7349 22.4638 23.7629 22.7471 23.8696 23.0045C23.9764 23.2619 24.157 23.4818 24.3888 23.6365C24.6206 23.7912 24.893 23.8736 25.1717 23.8734Z" fill="#81CCD9"/>
<path d="M25.7671 24.777C25.7671 24.8924 25.8013 25.0052 25.8654 25.1012C25.9296 25.1972 26.0207 25.272 26.1274 25.3161C26.234 25.3603 26.3513 25.3719 26.4645 25.3493C26.5778 25.3268 26.6817 25.2712 26.7634 25.1896C26.845 25.108 26.9006 25.004 26.9231 24.8908C26.9456 24.7776 26.934 24.6603 26.8899 24.5536C26.8457 24.447 26.7709 24.3558 26.6749 24.2917C26.579 24.2276 26.4661 24.1934 26.3507 24.1934C26.196 24.1936 26.0477 24.2552 25.9383 24.3646C25.829 24.474 25.7674 24.6223 25.7671 24.777Z" fill="#81CCD9"/>
<path d="M18.5001 25.9961H17.615L16.5522 29.2414H19.5618L18.5001 25.9961Z" fill="#1FB2A9"/>
<path d="M20.4961 32.0611V31.8167C20.4961 31.7073 20.4526 31.6024 20.3753 31.5251C20.298 31.4478 20.1931 31.4043 20.0837 31.4043H16.0308C15.9214 31.4043 15.8165 31.4478 15.7392 31.5251C15.6618 31.6024 15.6184 31.7073 15.6184 31.8167V32.0611H15.6055V32.4714H15.6184V32.9118C15.6184 33.0211 15.6618 33.126 15.7392 33.2034C15.8165 33.2807 15.9214 33.3242 16.0308 33.3242H20.0837C20.1931 33.3242 20.298 33.2807 20.3753 33.2034C20.4526 33.126 20.4961 33.0211 20.4961 32.9118V32.4714H20.509V32.0611H20.4961Z" fill="#E6DCEC"/>
<path d="M20.5091 32.4708V32.0605H20.4962H15.6185H15.6045V32.4708H15.6185H20.4962H20.5091Z" fill="#063536"/>
<path d="M13.2249 30.8288C13.2249 29.752 11.6722 28.8831 9.75777 28.8831C9.07171 28.8765 8.39053 28.9989 7.74963 29.2438C6.86669 29.597 6.28955 30.1741 6.28955 30.8288C6.28955 31.9055 7.84223 32.7744 9.75777 32.7744C9.96128 32.7744 10.1594 32.7626 10.3532 32.7432C11.9834 32.5849 13.2249 31.7892 13.2249 30.8288Z" fill="#00B0B0"/>
<path d="M22.8887 30.8288C22.8887 31.7892 24.1302 32.5849 25.7614 32.7432C25.9553 32.7626 26.1534 32.7744 26.3569 32.7744C28.2724 32.7744 29.8251 31.9034 29.8251 30.8288C29.8251 30.1741 29.2469 29.597 28.365 29.2438C27.7241 28.9989 27.043 28.8765 26.3569 28.8831C24.4414 28.8831 22.8887 29.7542 22.8887 30.8288Z" fill="#00B0B0"/>
</g>
<defs>
<clipPath id="clip0_4731_24477">
<rect width="34.7651" height="39" fill="white" transform="translate(0.674316)"/>
</clipPath>
</defs>
</svg>
