<svg width="42" height="38" viewBox="0 0 42 38" fill="none" xmlns="http://www.w3.org/2000/svg">
<g clip-path="url(#clip0_4731_24329)">
<path d="M41.9312 35.7995C41.7133 34.6495 41.1184 33.6881 40.3353 33.0579L40.4505 33.0441C40.6221 33.0231 40.7785 32.9372 40.8861 32.8047C40.9936 32.6723 41.0438 32.5039 41.0259 32.3356L40.9992 32.0834C40.9952 32.0549 40.9892 32.0267 40.9812 31.9991C40.9424 31.8394 40.8427 31.7002 40.7026 31.6099C40.5625 31.5196 40.3924 31.4849 40.2271 31.513L39.9496 31.5605C39.8712 30.6819 39.7592 29.7535 39.611 28.7952C39.5781 28.5836 39.5459 28.3727 39.5099 28.1588C38.726 23.5304 37.3723 19.7301 36.1965 18.5962C35.7678 17.0883 35.2295 15.6122 34.5857 14.1794C34.4987 13.9854 34.4085 13.796 34.3168 13.6005V13.5936C34.2081 13.3662 34.0971 13.1395 33.9837 12.9136L33.9296 12.8063C33.8146 12.5783 33.6968 12.3519 33.5761 12.127C33.4689 11.9226 33.3595 11.7214 33.2476 11.5236C33.2105 11.4597 33.1591 11.405 33.0971 11.3634C33.0854 11.355 33.0752 11.3442 33.0634 11.3366H33.0556C33.0113 11.3111 32.9639 11.2913 32.9145 11.2775C32.0522 8.27601 30.7071 5.6931 29.0305 3.77259C29.0414 3.75343 29.0524 3.73349 29.0642 3.71433C29.0759 3.69516 29.0806 3.69056 29.0893 3.67906C29.1073 3.65146 29.1269 3.62539 29.1473 3.60239L29.177 3.56559C29.1982 3.53953 29.2209 3.51423 29.2445 3.48893C29.2539 3.47896 29.2625 3.46899 29.2719 3.45979C29.3048 3.42606 29.3393 3.39309 29.3746 3.36243C29.5994 3.16846 29.8652 3.02529 30.1529 2.94306C30.1733 2.93692 30.1945 2.93386 30.2149 2.92849C30.842 2.76749 31.5114 2.85182 32.1487 2.97986C32.8071 3.11249 33.4648 3.28652 34.1365 3.27962C34.5825 3.27349 35.0709 3.15696 35.3249 2.79892C35.3509 2.76254 35.3737 2.72407 35.3931 2.68392C35.3963 2.67768 35.3991 2.67128 35.4017 2.66476C35.4172 2.63136 35.4305 2.59705 35.4417 2.56202C35.4417 2.55666 35.4464 2.55205 35.4479 2.54669C35.4491 2.54047 35.4507 2.53433 35.4526 2.52829C35.4573 2.50912 35.462 2.48996 35.466 2.47079L35.473 2.44012C35.4785 2.40967 35.4824 2.37896 35.4848 2.34812C35.4867 2.31467 35.4867 2.28114 35.4848 2.24769C35.4848 2.21395 35.4848 2.18022 35.4793 2.14649C35.4363 1.81447 35.3007 1.50043 35.0873 1.23875C34.3819 0.360912 33.1888 -0.06459 32.053 0.0189771C30.9172 0.102544 29.8527 0.663747 29.0336 1.43808C28.6349 1.81655 28.2822 2.23871 27.9824 2.69619C26.1976 1.06548 24.1227 0.130913 21.9146 0.130913H20.0851C17.8369 0.130913 15.7276 1.09922 13.9208 2.78436L13.909 2.76442C13.7429 2.50523 13.5613 2.25588 13.365 2.01769C13.1948 1.81021 13.0116 1.61331 12.8163 1.42812C11.9972 0.65378 10.9351 0.095646 9.79689 0.00901233C8.65873 -0.0776214 7.46334 0.350945 6.76257 1.22878C6.54886 1.48994 6.41321 1.80385 6.37064 2.13575C6.37064 2.17025 6.36515 2.20475 6.36515 2.23849C6.36515 2.27299 6.36515 2.30595 6.36515 2.33969C6.36515 2.37342 6.37299 2.40639 6.37926 2.43935C6.38553 2.47155 6.39337 2.50452 6.40277 2.53596C6.41499 2.57573 6.42992 2.61466 6.44746 2.65249L6.45686 2.67319C6.47642 2.713 6.49922 2.7512 6.52506 2.78742C6.77903 3.14546 7.26738 3.26199 7.71261 3.26812C8.38516 3.27732 9.04517 3.10099 9.70126 2.96836C10.3385 2.84032 11.0072 2.75599 11.635 2.91699C11.6554 2.92236 11.6766 2.92542 11.697 2.93156C11.7299 2.94076 11.7628 2.95226 11.7957 2.96299C12.0462 3.04818 12.2772 3.1802 12.4761 3.35169C12.5114 3.38236 12.5451 3.41456 12.578 3.44829C12.5874 3.45749 12.5961 3.46746 12.6055 3.47743C12.629 3.50196 12.6517 3.52726 12.6729 3.55409C12.6831 3.56559 12.6932 3.57786 12.7027 3.59013C12.723 3.61619 12.7426 3.64303 12.7607 3.66679C12.7693 3.67829 12.7779 3.69056 12.785 3.70206C12.81 3.73995 12.8331 3.7791 12.8539 3.81936C12.8626 3.83546 12.8696 3.85233 12.8775 3.86919C11.2447 5.77897 9.93093 8.32048 9.08828 11.2653C8.94788 11.3019 8.82807 11.3915 8.75514 11.5144C8.58817 11.8127 8.42749 12.1147 8.26915 12.4176C8.17665 12.5939 8.08651 12.771 7.99715 12.9489C7.97677 12.9903 7.95639 13.0317 7.93522 13.0723C7.85684 13.2371 7.77217 13.4027 7.69379 13.5683C7.69379 13.5768 7.68596 13.5837 7.68204 13.5913C7.59111 13.783 7.50096 13.9747 7.41317 14.1702C6.76984 15.6034 6.23179 17.0797 5.80312 18.5877C5.62012 18.7716 5.45749 18.9738 5.31791 19.1911L5.30067 19.2179C5.26305 19.2747 5.22228 19.3337 5.18857 19.395L5.15957 19.4433C5.12508 19.5016 5.08981 19.5614 5.05532 19.6227C5.04513 19.6411 5.03494 19.658 5.02554 19.6764C4.98164 19.7531 4.93774 19.8359 4.89463 19.9202L4.88131 19.9455C4.84603 20.0137 4.81154 20.0835 4.77626 20.1556C4.76764 20.1747 4.75824 20.1939 4.74883 20.2131C4.71904 20.2752 4.68847 20.3396 4.65868 20.4047L4.62341 20.4814C4.59598 20.542 4.56854 20.6041 4.54503 20.6669C4.5317 20.6968 4.51838 20.7275 4.50584 20.7574C4.47918 20.8187 4.45332 20.8808 4.42745 20.9437C4.41334 20.9767 4.39923 21.0096 4.3859 21.0434C4.36003 21.1062 4.33417 21.1706 4.30752 21.2358L4.26597 21.3393C4.23932 21.4083 4.21267 21.4796 4.18758 21.5509C4.17504 21.5823 4.16329 21.613 4.15153 21.6452C4.11312 21.7487 4.07315 21.8537 4.03709 21.9618C3.58602 23.2605 3.21459 24.5843 2.92479 25.9263C2.76801 26.6431 2.61909 27.3899 2.48975 28.1604C2.4341 28.4862 2.38471 28.8074 2.33768 29.1264C2.21383 29.9697 2.11819 30.7839 2.05 31.5621L1.77173 31.5145C1.6065 31.4865 1.43654 31.5212 1.29655 31.6115C1.15657 31.7018 1.0571 31.841 1.01844 32.0006C1.01042 32.0283 1.0044 32.0565 1.00042 32.0849L0.973758 32.3372C0.955809 32.5054 1.00601 32.6738 1.11357 32.8063C1.22114 32.9387 1.37751 33.0246 1.54912 33.0456L1.66356 33.0594C0.879698 33.6896 0.286318 34.6541 0.0684054 35.801C0.0386187 35.9589 0.0166637 36.1156 0.00255423 36.271C-0.010469 36.4331 0.0384127 36.5943 0.139749 36.7233C0.241085 36.8523 0.387687 36.9399 0.551256 36.9694L0.608486 36.9794C0.764385 37.0068 0.925186 36.9801 1.06304 36.9037C1.2009 36.8274 1.30713 36.7064 1.36334 36.5615C1.86266 35.3134 2.89735 34.5161 3.91323 34.7008C4.92912 34.8856 5.60245 35.9934 5.60951 37.3336C5.60764 37.4706 5.64947 37.6047 5.72915 37.7174C5.80884 37.8301 5.92244 37.9157 6.05416 37.9623C6.18588 38.009 6.32918 38.0143 6.46415 37.9776C6.59911 37.9409 6.71904 37.864 6.80725 37.7575V37.7514C6.83231 37.7209 6.8546 37.6883 6.87387 37.654C6.89506 37.6158 6.91189 37.5755 6.92404 37.5337C6.96924 37.3823 7.00665 37.2287 7.03614 37.0737C7.28227 35.7803 6.99616 34.5352 6.35026 33.6367L6.75238 33.6858C6.90737 33.7049 7.06426 33.6696 7.19516 33.5862C7.32606 33.5028 7.42248 33.3767 7.46726 33.2304V33.2158C7.49182 33.129 7.49755 33.0382 7.48409 32.9492C7.47064 32.8601 7.43829 32.7748 7.38913 32.6987C7.33997 32.6226 7.27508 32.5574 7.19863 32.5073C7.12218 32.4572 7.03586 32.4233 6.94521 32.4077L6.45059 32.3226C6.47724 32.2176 6.50389 32.111 6.52897 32.0045C6.76413 31.0369 6.97891 30.0019 7.16155 28.9201C7.94541 24.2611 7.90543 20.2138 7.14979 18.7963C7.36457 18.0587 7.60705 17.3294 7.87722 16.6082C7.89917 16.5476 7.9219 16.487 7.94463 16.4265C8.03085 16.1995 8.11943 15.9736 8.21036 15.7487C8.15784 16.234 8.11943 16.7262 8.09121 17.2238C8.09121 17.2921 8.08416 17.3603 8.08102 17.4293C8.08102 17.4477 8.08102 17.4661 8.08102 17.4845C8.07057 17.7038 8.06273 17.9243 8.0575 18.1461V18.2029C8.0575 18.3608 8.05045 18.5187 8.04966 18.6774C8.04966 18.7066 8.04966 18.7349 8.04966 18.7641C8.04966 18.8407 8.04966 18.9174 8.04966 18.9941C8.04966 23.2774 8.80922 26.1494 10.0171 28.076C10.514 28.9665 11.0855 29.815 11.726 30.6129C12.574 31.6618 13.5507 32.6048 14.6341 33.4205C14.8335 33.7898 15.0536 34.1482 15.2933 34.4938L15.298 34.5C15.3497 34.5766 15.4031 34.6487 15.4548 34.7215C15.5097 34.7982 15.5645 34.8687 15.6202 34.94H15.6249C16.9331 36.6152 18.6036 37.6234 20.4198 37.6234H21.5705C23.875 37.6234 25.9491 36.0057 27.3405 33.4504C28.4446 32.6254 29.4392 31.6689 30.3011 30.603C30.5535 30.2871 30.7965 29.9605 31.0309 29.6262C31.5032 28.9569 31.9255 28.2551 32.2945 27.5263C32.7561 26.6638 33.1371 25.6334 33.4169 24.4067C33.7226 23.0658 33.9076 21.488 33.9421 19.6296C33.9421 19.418 33.9484 19.2034 33.9484 18.9841V18.7541C33.9484 18.7457 33.9484 18.738 33.9484 18.7303C33.9484 18.5502 33.9484 18.3708 33.9406 18.1937C33.9406 18.1883 33.9406 18.1829 33.9406 18.1768V18.0909C33.9406 18.0143 33.9359 17.9414 33.9327 17.8671L33.928 17.7053C33.928 17.7007 33.928 17.6961 33.928 17.6915C33.9217 17.5443 33.9147 17.3963 33.9069 17.2499C33.9065 17.2453 33.9065 17.2407 33.9069 17.2361C33.9069 17.2284 33.9069 17.2215 33.9069 17.2139C33.8781 16.7181 33.8376 16.2274 33.7854 15.7418C33.9327 16.1052 34.0736 16.4715 34.2079 16.8405C34.4425 17.4835 34.6549 18.1331 34.8451 18.7894C34.0903 20.2069 34.048 24.2542 34.8342 28.9132C35.0168 29.995 35.2308 31.03 35.4667 31.9975C35.4926 32.1041 35.5185 32.2107 35.5451 32.3157L35.0513 32.4008C34.9602 32.4159 34.8734 32.4495 34.7965 32.4994C34.7195 32.5494 34.6542 32.6147 34.6046 32.6909C34.5551 32.7672 34.5226 32.8528 34.509 32.9421C34.4955 33.0315 34.5013 33.1226 34.5261 33.2097V33.2242C34.5712 33.3706 34.6678 33.4966 34.7988 33.58C34.9298 33.6633 35.0867 33.6986 35.2418 33.6796L35.6439 33.6306C35.5652 33.74 35.4925 33.8533 35.426 33.9702C35.3954 34.0239 35.3656 34.0783 35.3374 34.1343C34.8904 35.0463 34.7573 36.0754 34.958 37.0675C34.9878 37.2255 35.0254 37.3796 35.0693 37.5275C35.0818 37.5692 35.0986 37.6096 35.1195 37.6479C35.1388 37.6822 35.1611 37.7148 35.1861 37.7453V37.7514C35.2743 37.8578 35.3942 37.9348 35.5292 37.9715C35.6642 38.0082 35.8075 38.0028 35.9392 37.9562C36.0709 37.9096 36.1845 37.824 36.2642 37.7113C36.3439 37.5986 36.3857 37.4644 36.3838 37.3274C36.3909 35.9873 37.0635 34.8795 38.0793 34.6947C39.0952 34.5099 40.1307 35.308 40.63 36.5554C40.6862 36.7002 40.7925 36.8213 40.9303 36.8976C41.0682 36.9739 41.229 37.0007 41.3849 36.9732L41.4421 36.9633C41.6057 36.9338 41.7523 36.8461 41.8536 36.7171C41.9549 36.5881 42.0038 36.427 41.9908 36.2648C41.9788 36.1125 41.9589 35.9574 41.9312 35.7995Z" fill="#9179B6"/>
<path d="M12.9133 3.83654C13.2186 3.48129 13.5428 3.14196 13.8845 2.81993C13.8923 2.80153 13.9009 2.78467 13.9088 2.76627C13.7427 2.50707 13.561 2.25773 13.3648 2.01953C13.2706 2.11595 13.1892 2.22363 13.1226 2.34C12.9465 2.62316 12.7704 2.9058 12.5942 3.18794C12.566 3.23317 12.5159 3.29374 12.4751 3.3566C12.5104 3.38727 12.5441 3.41947 12.577 3.4532C12.5864 3.4624 12.595 3.47237 12.6044 3.48234C12.628 3.50687 12.6507 3.53217 12.6718 3.559C12.682 3.5705 12.6922 3.58277 12.7016 3.59504C12.722 3.6211 12.7416 3.64794 12.7596 3.6717C12.7683 3.6832 12.7769 3.69547 12.7839 3.70697C12.809 3.74486 12.8321 3.78402 12.8529 3.82427C12.8726 3.83007 12.8928 3.83417 12.9133 3.83654Z" fill="#765AA2"/>
<path d="M11.7612 2.65679C11.5175 2.09712 10.3981 1.84565 9.86744 1.73679C8.69792 1.49835 7.38887 1.45312 6.40277 2.11322L6.36829 2.13776C6.36829 2.17226 6.36279 2.20676 6.36279 2.24049C6.36279 2.27499 6.36279 2.30795 6.36279 2.34169C6.36279 2.37542 6.37064 2.40839 6.37691 2.44136C6.38318 2.47356 6.39101 2.50652 6.40042 2.53796C6.48415 2.45261 6.57631 2.37556 6.67555 2.30796C7.58169 1.70152 8.78492 1.74215 9.85959 1.96219C10.3472 2.06186 11.3756 2.29339 11.5998 2.80553C11.6171 2.84458 11.6298 2.88549 11.6374 2.92743C11.6578 2.93279 11.6789 2.93586 11.6993 2.94199C11.7322 2.95119 11.7652 2.96269 11.7981 2.97343C11.821 2.86676 11.8081 2.75569 11.7612 2.65679Z" fill="#765AA2"/>
<path d="M9.86103 1.96832C8.78636 1.74828 7.58313 1.70765 6.67699 2.31408C6.57775 2.38169 6.48559 2.45873 6.40186 2.54409C6.41407 2.58386 6.429 2.62279 6.44654 2.66062L6.45595 2.68132C6.4755 2.72113 6.4983 2.75933 6.52414 2.79555C6.77811 3.15359 7.26646 3.27012 7.71169 3.27625C8.38424 3.28545 9.04425 3.10912 9.70034 2.97649C10.3376 2.84846 11.0062 2.76412 11.6341 2.92512C11.6269 2.88726 11.6156 2.85025 11.6004 2.81472C11.377 2.29952 10.3486 2.06798 9.86103 1.96832Z" fill="#61478A"/>
<path d="M29.2527 3.18794L28.7251 2.34C28.6583 2.22378 28.5769 2.11613 28.4829 2.01953C28.3039 2.23697 28.1375 2.464 27.9844 2.69957C28.3524 3.03796 28.7007 3.3963 29.0277 3.77291C29.0387 3.75374 29.0496 3.7338 29.0614 3.71464C29.0732 3.69547 29.0779 3.69087 29.0865 3.67937C29.1045 3.65177 29.1241 3.6257 29.1445 3.6027L29.1743 3.5659C29.1954 3.53984 29.2182 3.51454 29.2417 3.48924C29.2511 3.47927 29.2597 3.4693 29.2691 3.4601C29.302 3.42637 29.3365 3.3934 29.3718 3.36274C29.331 3.29374 29.2809 3.23394 29.2527 3.18794Z" fill="#765AA2"/>
<path d="M31.9791 1.73634C31.4484 1.84521 30.333 2.09667 30.0853 2.65634C30.0401 2.75436 30.028 2.86394 30.0508 2.96914C30.0837 2.95841 30.1167 2.94691 30.1496 2.93771C30.17 2.93158 30.1911 2.92851 30.2115 2.92315C30.2187 2.88528 30.23 2.84827 30.2452 2.81275C30.4694 2.29908 31.4994 2.06754 31.9854 1.96941C33.06 1.74937 34.2625 1.70874 35.1694 2.31517C35.2687 2.38278 35.3608 2.45982 35.4445 2.54518C35.4457 2.53896 35.4473 2.53281 35.4493 2.52678C35.454 2.50761 35.4587 2.48844 35.4626 2.46928L35.4696 2.43861C35.4751 2.40816 35.4791 2.37745 35.4814 2.34661C35.4834 2.31316 35.4834 2.27963 35.4814 2.24617C35.4814 2.21244 35.4814 2.17871 35.4759 2.14497C35.4641 2.13654 35.4524 2.12734 35.4399 2.11967C34.4577 1.45267 33.1486 1.49791 31.9791 1.73634Z" fill="#765AA2"/>
<path d="M35.1696 2.31408C34.2627 1.70765 33.0603 1.74828 31.9856 1.96832C31.498 2.06798 30.4696 2.29952 30.2454 2.81165C30.2309 2.84903 30.2207 2.88785 30.2148 2.92742C30.8419 2.76642 31.5114 2.85075 32.1486 2.97879C32.8071 3.11142 33.4647 3.28545 34.1365 3.27855C34.5825 3.27242 35.0709 3.15589 35.3248 2.79785C35.3508 2.76147 35.3737 2.723 35.393 2.68285C35.3962 2.67661 35.3991 2.67021 35.4016 2.66369C35.4171 2.63029 35.4305 2.59598 35.4416 2.56095C35.4416 2.55559 35.4463 2.55099 35.4479 2.54562C35.3632 2.45958 35.27 2.38201 35.1696 2.31408Z" fill="#61478A"/>
<path d="M5.72982 34.1859C6.26395 34.7404 6.63451 35.4261 6.80213 36.1701C6.92676 36.7228 6.88052 37.2235 6.80841 37.7578V37.7517C6.83347 37.7212 6.85576 37.6886 6.87503 37.6543C6.89622 37.6161 6.91305 37.5758 6.9252 37.534C6.9704 37.3826 7.0078 37.229 7.03729 37.074C7.28342 35.7806 6.99731 34.5355 6.35141 33.637L4.78369 33.4453C5.13037 33.6513 5.44838 33.9002 5.72982 34.1859Z" fill="#765AA2"/>
<path d="M1.57492 34.2125C1.29195 34.2761 1.07247 34.4938 0.901591 34.7238C0.731786 34.9372 0.612146 35.1846 0.551198 35.4483C0.51906 35.6139 0.569229 36.4772 0.915695 36.1483C0.97218 36.0838 1.0177 36.0108 1.05052 35.9321C1.28097 35.4959 1.77559 35.236 1.99899 34.7959C2.07738 34.6487 2.11108 34.4601 2.01074 34.3282C1.91041 34.1964 1.73013 34.178 1.57492 34.2125Z" fill="#B69BCA"/>
<path d="M9.08826 11.2754C8.94786 11.312 8.82806 11.4016 8.75512 11.5246C8.58816 11.8228 8.42747 12.1249 8.26913 12.4277C8.17664 12.604 8.0865 12.7811 7.99714 12.959C7.97675 13.0004 7.95637 13.0418 7.93521 13.0824C7.85682 13.2473 7.77216 13.4129 7.69377 13.5785C7.69377 13.5869 7.68594 13.5938 7.68202 13.6015C7.57385 14.6457 7.54798 15.9482 7.79803 16.8429C7.82703 16.7663 7.85839 16.6835 7.88818 16.6037C7.91013 16.5432 7.93286 16.4826 7.95559 16.422C8.04181 16.1951 8.13039 15.9692 8.22132 15.7443C8.38289 14.2337 8.67287 12.7389 9.08826 11.2754Z" fill="#765AA2"/>
<path d="M2.92451 25.9277C2.76774 26.6446 2.61881 27.3913 2.48948 28.1618C2.62273 27.3898 2.76539 26.643 2.92451 25.9277Z" fill="#765AA2"/>
<path d="M4.03369 21.9729C4.07132 21.8648 4.11207 21.7598 4.14813 21.6562C4.11207 21.7598 4.07053 21.8648 4.03369 21.9729Z" fill="#765AA2"/>
<path d="M5.9933 18.4414C5.92716 18.488 5.86455 18.5393 5.80595 18.5947C5.51044 18.8792 5.20317 19.3346 4.89746 19.9272C5.26588 19.2119 5.63821 18.6982 5.9933 18.4414Z" fill="#765AA2"/>
<path d="M4.42578 20.9539C4.45165 20.891 4.47752 20.8289 4.50417 20.7676C4.47516 20.8289 4.4493 20.891 4.42578 20.9539Z" fill="#765AA2"/>
<path d="M4.66064 20.4143C4.69043 20.3492 4.721 20.2848 4.75079 20.2227C4.71865 20.2848 4.68808 20.3492 4.66064 20.4143Z" fill="#765AA2"/>
<path d="M5.71221 20.0071C4.90326 21.2429 4.39767 22.6482 4.0661 24.0796C3.87876 24.8931 3.69454 26.2018 3.56913 27.1862C3.42883 28.2045 3.64842 29.2391 4.19152 30.1187L4.20092 30.134C4.63518 30.8156 5.21994 31.4236 5.94893 31.7885C6.13517 31.8836 6.33334 31.9545 6.53839 31.9993C6.77355 31.0318 6.98833 29.9968 7.17097 28.915C7.95483 24.256 7.91485 20.2087 7.15921 18.7911C7.12301 18.7218 7.08162 18.6552 7.03536 18.5918C6.49136 18.9498 6.0673 19.4643 5.71221 20.0071ZM6.51252 27.1678C6.402 27.7458 6.26953 28.3178 6.12059 28.8889C6.06259 29.1113 5.99909 29.3405 5.85408 29.5207C5.70907 29.7008 5.46215 29.8204 5.2364 29.7507C4.93618 29.6556 4.83664 29.2907 4.80293 28.984C4.62421 27.3372 5.02319 25.6873 5.41904 24.0773C5.52878 23.6304 5.7608 23.3452 6.26875 23.451C6.63402 23.5276 6.81744 23.7576 6.85272 24.1134C6.96089 25.0909 6.69908 26.214 6.51252 27.1678Z" fill="#765AA2"/>
<path d="M4.20229 30.1347L4.19288 30.1194C3.64979 29.2398 3.4302 28.2052 3.5705 27.1868C3.69591 26.2024 3.88405 24.8937 4.06747 24.0803C4.39747 22.6489 4.90306 21.2436 5.71358 20.0077C6.06866 19.4649 6.49272 18.9505 7.03829 18.5925C6.90033 18.4031 6.74356 18.2858 6.56798 18.2582C6.39239 18.2306 6.19251 18.295 5.99262 18.4407C5.64067 18.6975 5.26834 19.2073 4.89522 19.9303L4.88189 19.9556C4.84662 20.0238 4.81213 20.0936 4.77686 20.1657C4.76823 20.1848 4.75883 20.204 4.74942 20.2232C4.71964 20.2853 4.68906 20.3497 4.65928 20.4148L4.62401 20.4915C4.59657 20.5521 4.56914 20.6142 4.54562 20.677C4.5323 20.7069 4.51897 20.7376 4.50643 20.7675C4.47978 20.8288 4.45391 20.8909 4.42804 20.9538C4.41393 20.9868 4.39982 21.0197 4.3865 21.0535C4.36063 21.1163 4.33476 21.1807 4.30811 21.2459L4.26656 21.3494C4.23991 21.4184 4.21326 21.4897 4.18818 21.561C4.17564 21.5924 4.16388 21.6231 4.15212 21.6553C4.11371 21.7588 4.07374 21.8638 4.03768 21.9719C3.58671 23.2676 3.21502 24.5883 2.9246 25.9272C2.76782 26.644 2.6189 27.3908 2.48956 28.1613C2.4339 28.4871 2.38452 28.8083 2.33748 29.1273C2.21363 29.9706 2.118 30.7848 2.0498 31.563L6.46059 32.3197C6.48724 32.2147 6.51389 32.1081 6.53897 32.0015C6.33392 31.9567 6.13575 31.8858 5.94951 31.7907C5.21895 31.4242 4.63655 30.8163 4.20229 30.1347Z" fill="#61478A"/>
<path d="M1.77135 31.5134C1.60612 31.4853 1.43616 31.52 1.29618 31.6104C1.15619 31.7007 1.05672 31.8399 1.01807 31.9995C1.09456 31.9286 1.18689 31.8762 1.28772 31.8464C1.38855 31.8166 1.4951 31.8102 1.5989 31.8277L6.94405 32.7439C7.06846 32.7656 7.18424 32.8208 7.27838 32.9033C7.37253 32.9857 7.44133 33.0922 7.47707 33.2108C7.50163 33.124 7.50736 33.0332 7.49391 32.9442C7.48045 32.8551 7.44811 32.7698 7.39895 32.6937C7.34979 32.6176 7.2849 32.5524 7.20845 32.5023C7.132 32.4522 7.04567 32.4183 6.95502 32.4027L6.4604 32.3176L2.04962 31.5609L1.77135 31.5134Z" fill="#DBCCE5"/>
<path d="M6.94445 32.7438L1.5993 31.83C1.4955 31.8124 1.38896 31.8188 1.28812 31.8486C1.18729 31.8785 1.09496 31.9309 1.01847 32.0017C1.01045 32.0294 1.00442 32.0575 1.00044 32.086L0.973786 32.3383C0.955836 32.5065 1.00603 32.6749 1.1136 32.8074C1.22117 32.9398 1.37754 33.0257 1.54915 33.0467L1.66359 33.0605L4.78727 33.4438L6.35499 33.6355L6.75711 33.6845C6.91209 33.7037 7.06899 33.6684 7.19989 33.585C7.33079 33.5016 7.4272 33.3755 7.47199 33.2291V33.2146C7.43729 33.096 7.36959 32.9892 7.27643 32.9061C7.18328 32.823 7.06834 32.7668 6.94445 32.7438Z" fill="#ECE3F2"/>
<path d="M6.2702 23.4557C5.76226 23.3499 5.53023 23.6351 5.42049 24.082C5.02856 25.692 4.62566 27.3404 4.80438 28.9887C4.83809 29.2954 4.93764 29.6573 5.23786 29.7554C5.46126 29.8259 5.70817 29.7063 5.85554 29.5254C6.0029 29.3445 6.06405 29.116 6.12205 28.8937C6.26942 28.324 6.40189 27.7506 6.51398 27.1725C6.69741 26.2187 6.96235 25.0956 6.85574 24.1219C6.81577 23.7616 6.63548 23.5316 6.2702 23.4557Z" fill="#9F85BD"/>
<path d="M35.197 36.17C35.3646 35.426 35.7351 34.7403 36.2693 34.1858C36.5488 33.8992 36.8649 33.6489 37.2099 33.4414L35.6422 33.6331C35.5635 33.7425 35.4908 33.8559 35.4243 33.9727C35.3937 34.0264 35.3639 34.0808 35.3357 34.1368C34.8887 35.0488 34.7556 36.0779 34.9563 37.0701C34.9861 37.228 35.0237 37.3821 35.0676 37.5301C35.0801 37.5717 35.0969 37.6121 35.1178 37.6504C35.1371 37.6847 35.1594 37.7173 35.1844 37.7478V37.7539C35.1225 37.2234 35.0747 36.7228 35.197 36.17Z" fill="#765AA2"/>
<path d="M41.0976 34.7247C40.9267 34.4947 40.7057 34.2769 40.4243 34.2133C40.2675 34.1788 40.0841 34.2041 39.9884 34.3291C39.8928 34.454 39.9249 34.6495 40.0002 34.7967C40.2236 35.2368 40.7182 35.4967 40.9487 35.9329C40.9815 36.0116 41.027 36.0846 41.0835 36.1491C41.4292 36.478 41.4801 35.6125 41.4472 35.4492C41.3868 35.1854 41.2674 34.9379 41.0976 34.7247Z" fill="#B69BCA"/>
<path d="M34.3166 13.6015C34.2076 13.3715 34.0948 13.1415 33.9803 12.9115L33.9262 12.8041C33.8113 12.5762 33.6934 12.3497 33.5727 12.1249C33.4656 11.9204 33.3561 11.7193 33.2443 11.5215C33.2072 11.4576 33.1557 11.4028 33.0938 11.3613C33.082 11.3528 33.0718 11.3421 33.0601 11.3344H33.0522C33.0079 11.309 32.9605 11.2892 32.9111 11.2754C33.3261 12.7393 33.616 14.2343 33.7781 15.7451C33.9254 16.1085 34.0663 16.4747 34.2006 16.8437C34.4514 15.949 34.4248 14.6457 34.3166 13.6015Z" fill="#765AA2"/>
<path d="M39.9495 31.5623C39.8711 30.6837 39.759 29.7552 39.6108 28.7969C39.759 29.7552 39.8719 30.6837 39.9495 31.5623Z" fill="#765AA2"/>
<path d="M37.7971 30.134L37.8065 30.1187C38.3496 29.2391 38.5692 28.2045 38.4289 27.1862C38.3035 26.2018 38.1154 24.8931 37.932 24.0796C37.6019 22.6482 37.0964 21.2429 36.2858 20.0071C35.9308 19.4643 35.5067 18.9498 34.9603 18.5918C34.9147 18.6555 34.8733 18.7221 34.8365 18.7911C34.0816 20.2087 34.0393 24.256 34.8255 28.915C35.0082 29.9968 35.2222 31.0318 35.4581 31.9993C35.6631 31.9545 35.8613 31.8836 36.0476 31.7885C36.7805 31.4236 37.3629 30.8156 37.7971 30.134ZM35.4871 27.1678C35.3037 26.214 35.0379 25.0909 35.1446 24.1172C35.1837 23.7607 35.364 23.5307 35.7293 23.4548C36.2372 23.349 36.4685 23.6342 36.579 24.0812C36.9709 25.6912 37.3739 27.3395 37.1951 28.9878C37.1614 29.2945 37.0619 29.6564 36.7617 29.7545C36.5383 29.825 36.2913 29.7054 36.144 29.5245C35.9966 29.3436 35.9355 29.1151 35.8775 28.8928C35.7301 28.3193 35.5976 27.7458 35.4871 27.1678Z" fill="#765AA2"/>
<path d="M39.6109 28.7968C39.578 28.5852 39.5458 28.3744 39.5098 28.1605C38.7259 23.5321 37.3722 19.7317 36.1964 18.5978C35.9299 18.341 35.6728 18.2206 35.4337 18.2589C35.2573 18.2873 35.0998 18.4038 34.9634 18.5932C35.5121 18.9512 35.9338 19.4657 36.2889 20.0085C37.0978 21.2443 37.6034 22.6497 37.935 24.081C38.1216 24.8945 38.3065 26.2032 38.432 27.1876C38.5723 28.2059 38.3527 29.2405 37.8096 30.1201L37.8002 30.1354C37.3659 30.817 36.7812 31.425 36.0522 31.7899C35.8659 31.885 35.6678 31.9559 35.4627 32.0007C35.4886 32.1073 35.5144 32.2139 35.5411 32.3189L39.9526 31.5622C39.8719 30.6813 39.759 29.7552 39.6109 28.7968Z" fill="#61478A"/>
<path d="M35.055 32.7436L40.4002 31.8297C40.504 31.8122 40.6105 31.8186 40.7114 31.8484C40.8122 31.8782 40.9045 31.9306 40.981 32.0014C40.9422 31.8418 40.8426 31.7026 40.7024 31.6123C40.5623 31.5219 40.3923 31.4873 40.2269 31.5154L39.9495 31.5629L35.5379 32.3196L35.0441 32.4047C34.9541 32.4207 34.8684 32.4548 34.7926 32.5049C34.7168 32.5549 34.6525 32.6199 34.6038 32.6956C34.555 32.7713 34.523 32.8561 34.5096 32.9446C34.4962 33.0332 34.5017 33.1234 34.5259 33.2097C34.5615 33.0918 34.6298 32.9858 34.7232 32.9035C34.8166 32.8212 34.9314 32.7659 35.055 32.7436Z" fill="#DBCCE5"/>
<path d="M37.2122 33.4399L40.3351 33.0566L40.4503 33.0428C40.6219 33.0218 40.7783 32.9359 40.8858 32.8034C40.9934 32.671 41.0436 32.5026 41.0256 32.3344L40.999 32.0821C40.995 32.0536 40.989 32.0255 40.981 31.9978C40.9045 31.927 40.8121 31.8746 40.7113 31.8447C40.6105 31.8149 40.5039 31.8085 40.4001 31.8261L35.055 32.7422C34.9312 32.7647 34.8162 32.8203 34.7228 32.9028C34.6293 32.9854 34.5612 33.0917 34.5259 33.2099V33.2245C34.571 33.3708 34.6676 33.4968 34.7985 33.5802C34.9295 33.6636 35.0865 33.6989 35.2415 33.6799L35.6437 33.6308L37.2122 33.4399Z" fill="#ECE3F2"/>
<path d="M36.7613 29.7515C37.0615 29.6564 37.1611 29.2915 37.1948 28.9848C37.3735 27.338 36.9745 25.6881 36.5787 24.0781C36.4682 23.6312 36.2369 23.346 35.729 23.4518C35.3637 23.5284 35.1803 23.7584 35.1442 24.1142C35.0376 25.0878 35.301 26.211 35.4868 27.1647C35.5973 27.7428 35.7298 28.3148 35.8787 28.8859C35.9367 29.1083 35.9994 29.3375 36.1452 29.5177C36.291 29.6978 36.5379 29.822 36.7613 29.7515Z" fill="#9F85BD"/>
<path d="M14.6348 33.4121C14.8342 33.7815 15.0543 34.1398 15.294 34.4854C15.0554 34.1397 14.8364 33.7814 14.6379 33.4121H14.6348Z" fill="#61478A"/>
<path d="M26.8441 34.2834C25.4296 35.4277 23.7102 36.1528 21.8885 36.3734C21.0352 36.4721 20.1721 36.4571 19.3229 36.3289C17.9598 36.1242 16.773 35.6251 15.6294 34.9428C16.9377 36.6179 18.6081 37.6261 20.4243 37.6261H21.575C23.8795 37.6261 25.9536 36.0084 27.345 33.4531L27.3379 33.4577C27.1819 33.7391 27.0173 34.0166 26.8441 34.2834Z" fill="#61478A"/>
<path d="M21.8884 36.3708C23.7097 36.1514 25.429 35.4276 26.844 34.2847C27.0172 34.0218 27.1818 33.7442 27.3378 33.4567C25.4746 34.8513 23.217 35.9177 21.0136 35.8334C20.8153 35.8411 20.6162 35.838 20.4171 35.8273C18.3861 35.7215 16.341 34.7072 14.6377 33.4199C14.8362 33.7892 15.0552 34.1475 15.2938 34.4933L15.2985 34.4994C15.3502 34.5761 15.4035 34.6481 15.4553 34.721C15.5101 34.7976 15.565 34.8682 15.6206 34.9395H15.6254C16.769 35.6218 17.9558 36.1209 19.3189 36.3256C20.1694 36.4544 21.0338 36.4696 21.8884 36.3708Z" fill="#44286F"/>
<path d="M20.9997 22.5822C15.6491 22.5822 10.913 20.8457 8.06057 18.1976C8.06057 18.3555 8.05352 18.5135 8.05273 18.6722C11.3159 21.7449 15.5718 23.6094 20.0884 23.9453C24.6051 24.2811 29.1002 23.0671 32.8008 20.5122C33.0641 20.3305 33.3244 20.1396 33.5752 19.938C33.2006 23.5509 31.756 26.9783 29.4186 29.7999C27.0812 32.6214 23.9526 34.7143 20.4166 35.8218C20.6157 35.8326 20.8148 35.8356 21.0131 35.828C23.2165 35.9138 25.474 34.8474 27.3373 33.4513L27.3443 33.4467C28.4468 32.6231 29.44 31.6684 30.301 30.6046C30.5534 30.2888 30.7964 29.9622 31.0308 29.6279C31.5033 28.9584 31.9256 28.2564 32.2944 27.5272C32.7561 26.6655 33.137 25.6351 33.4169 24.4084C33.7226 23.0675 33.9076 21.4897 33.9421 19.6313C33.9421 19.4197 33.9483 19.205 33.9483 18.9857V18.7557C33.9483 18.7473 33.9483 18.7396 33.9483 18.732C33.9483 18.5518 33.9483 18.3724 33.9405 18.1953C31.0872 20.8449 26.3512 22.5822 20.9997 22.5822Z" fill="#8568AB"/>
<path d="M8.08552 17.4766C8.07507 17.6958 8.06724 17.9164 8.06201 18.1382C8.0675 17.9166 8.07612 17.6966 8.08631 17.4773L8.08552 17.4766Z" fill="#8568AB"/>
<path d="M33.923 17.6936C33.9168 17.5464 33.9097 17.3984 33.9019 17.252C33.9097 17.3992 33.9168 17.5464 33.923 17.6936Z" fill="#8568AB"/>
<path d="M33.899 17.2544V17.2168C31.2746 19.9891 26.4743 21.849 20.999 21.849C15.5238 21.849 10.7305 19.9898 8.10139 17.2199C8.10139 17.2881 8.09433 17.3563 8.0912 17.4253C8.0912 17.4437 8.0912 17.4629 8.0912 17.4813C8.08101 17.7006 8.07238 17.9206 8.06689 18.1422V18.1989C10.9194 20.847 15.6554 22.5835 21.0061 22.5835C26.3567 22.5835 31.0936 20.8462 33.946 18.1974C33.946 18.192 33.946 18.1866 33.946 18.1805V18.0946C33.946 18.018 33.9413 17.9451 33.9382 17.8708L33.9335 17.709C33.9335 17.7044 33.9335 17.6998 33.9335 17.6952C33.9204 17.547 33.9089 17.4 33.899 17.2544Z" fill="#61478A"/>
<path d="M18.5078 3.38169C19.0675 2.95236 19.7102 2.41799 18.623 2.16499C17.7819 1.96949 16.6955 2.47166 15.9414 2.79366C14.9498 3.21533 14.0217 3.82636 13.3774 4.67583C13.0498 5.10823 12.7997 5.70547 13.078 6.1693C13.2786 6.50434 13.6745 6.62931 14.0837 6.62931C14.7228 6.09803 15.4817 5.7228 16.2981 5.5345C17.06 4.8445 17.7075 3.9958 18.5078 3.38169Z" fill="#A48BC0"/>
<path d="M23.5387 3.55664C21.6676 3.55498 19.8562 4.2011 18.4255 5.38055C19.1137 5.4201 19.7912 5.56551 20.433 5.81142C20.7918 5.9454 21.1874 5.9511 21.55 5.82752C22.5424 5.48635 23.8937 5.20269 25.4027 5.47945C26.9869 5.77002 28.5185 6.80656 29.514 8.51393C29.9843 9.31894 30.2979 10.3087 30.4225 11.3276C30.4669 11.59 30.4853 11.856 30.4774 12.1219C30.4931 13.0066 30.3559 13.8852 30.0298 14.6519C29.3917 16.1584 28.1485 17.0477 26.8944 17.2739C25.6402 17.5001 24.3664 17.1397 23.1585 16.6207L22.9186 16.5157C22.5603 16.3439 22.2143 16.1484 21.8831 15.9307C21.6188 15.7658 21.3117 15.6782 20.9982 15.6782C20.6846 15.6782 20.3776 15.7658 20.1132 15.9307C19.7818 16.1486 19.4356 16.3441 19.0769 16.5157L18.8418 16.6207C18.5729 16.7357 18.3017 16.8423 18.0273 16.9373C18.9648 17.82 20.1094 18.4642 21.3608 18.8133C22.6122 19.1624 23.932 19.2058 25.2045 18.9397C26.477 18.6736 27.6633 18.1061 28.6593 17.287C29.6553 16.4679 30.4305 15.4223 30.9169 14.2418C31.4034 13.0613 31.5862 11.7822 31.4493 10.5165C31.3124 9.2508 30.8601 8.03733 30.1319 6.98253C29.4037 5.92772 28.422 5.06383 27.2728 4.46665C26.1237 3.86947 24.8423 3.55726 23.541 3.55741L23.5387 3.55664Z" fill="#A48BC0"/>
<path d="M19.0782 16.5151C19.4369 16.3435 19.7831 16.1481 20.1145 15.9302C20.3789 15.7653 20.6859 15.6777 20.9995 15.6777C21.313 15.6777 21.62 15.7653 21.8844 15.9302C22.2156 16.1479 22.5616 16.3433 22.9199 16.5151L23.1598 16.6202C24.3677 17.1392 25.6415 17.4995 26.8957 17.2734C28.1498 17.0472 29.3915 16.1579 30.0311 14.6514C30.3572 13.8847 30.4944 13.0053 30.4787 12.1213C30.4866 11.8555 30.4682 11.5895 30.4238 11.3271C30.3007 10.3082 29.9841 9.31839 29.5153 8.51339C28.5198 6.80601 26.9881 5.76948 25.404 5.47891C23.895 5.20214 22.5437 5.48581 21.5513 5.82698C21.1887 5.95056 20.793 5.94486 20.4343 5.81088C19.7919 5.56507 19.1139 5.41992 18.4253 5.38077C17.8138 5.35049 17.2008 5.38365 16.5965 5.47968C16.4962 5.49501 16.3974 5.51341 16.2979 5.53488C15.4817 5.7225 14.7228 6.09693 14.0835 6.62738C13.4388 7.15695 12.8973 7.79615 12.4852 8.51415C12.0149 9.31916 11.7013 10.3089 11.5767 11.3278C11.5323 11.5902 11.5139 11.8562 11.5218 12.1221C11.5061 13.0068 11.6433 13.8854 11.9694 14.6521C12.6075 16.1586 13.8507 17.048 15.1048 17.2741C16.0815 17.4497 17.0645 17.2703 18.0271 16.9376C18.3014 16.8425 18.5758 16.7359 18.8415 16.6209L19.0782 16.5151ZM15.6433 16.5918C14.5169 16.3886 13.4039 15.5951 12.8214 14.2573H12.8097C12.8026 14.2412 12.7964 14.2251 12.7893 14.2097C12.5705 13.6808 12.4383 13.1214 12.3974 12.5522H12.4084C12.3919 12.3406 12.3848 12.1275 12.3888 11.9136C12.382 11.6721 12.3988 11.4305 12.4389 11.1921C12.5063 10.6265 12.641 10.0705 12.8403 9.53536H12.8293C12.9451 9.22409 13.0873 8.92277 13.2541 8.63452C13.4613 8.27772 13.7022 7.9407 13.9737 7.62788H13.987C14.832 6.65958 15.8965 6.04624 16.9986 5.87988C18.6447 5.63301 19.6638 5.87988 20.4837 6.18195C20.6367 6.23791 20.7978 6.26949 20.961 6.27548H20.9955H21.0449C21.1957 6.27218 21.345 6.24632 21.4878 6.19881C22.1192 5.97795 22.7785 5.84253 23.4475 5.79631C23.4914 5.79631 23.536 5.79018 23.5807 5.78864L23.6458 5.78481C24.1011 5.76697 24.557 5.79912 25.005 5.88064C26.4434 6.14438 27.8347 7.08661 28.7393 8.64065C29.1831 9.4315 29.4636 10.3 29.5647 11.1967C29.6048 11.4351 29.6216 11.6767 29.6149 11.9182C29.629 12.7216 29.5036 13.5182 29.2073 14.2182C28.628 15.5859 27.5008 16.394 26.3611 16.5995C25.8635 16.6842 25.3546 16.6826 24.8576 16.5949C24.2024 16.475 23.5648 16.2768 22.9591 16.0045L22.742 15.9095C22.4854 15.7893 22.2371 15.6528 21.9989 15.5008H22.0059L21.8115 15.3805C21.5713 15.2306 21.2923 15.151 21.0073 15.151C20.7223 15.151 20.4433 15.2306 20.2031 15.3805C19.9024 15.5785 19.5881 15.756 19.2624 15.9118L19.0445 16.0068C17.9393 16.4707 16.7831 16.798 15.6433 16.5926V16.5918Z" fill="#765AA2"/>
<path d="M29.5592 11.1901C29.4581 10.2933 29.1777 9.42483 28.7338 8.63399C27.8292 7.08302 26.4379 6.14078 24.9995 5.87398C24.5515 5.79246 24.0956 5.76031 23.6403 5.77815L23.5752 5.78198C23.5306 5.78198 23.4859 5.78658 23.442 5.78965C22.7731 5.83587 22.1137 5.97129 21.4823 6.19215C21.3396 6.23966 21.1902 6.26551 21.0394 6.26881H20.9901H20.9556C20.7924 6.26282 20.6312 6.23124 20.4782 6.17528C19.6591 5.86861 18.6369 5.62634 16.9932 5.87321C15.8911 6.03958 14.8266 6.65292 13.9816 7.62122H13.9683C13.6968 7.93404 13.4558 8.27106 13.2487 8.62786C13.0818 8.91611 12.9397 9.21742 12.8238 9.52869H12.8348C12.6356 10.0638 12.5009 10.6198 12.4335 11.1855C12.3933 11.4238 12.3765 11.6654 12.3833 11.9069C12.3833 12.1208 12.3833 12.3339 12.4029 12.5455H12.3919C12.4328 13.1147 12.5651 13.6741 12.7838 14.2031C12.7909 14.2184 12.7972 14.2345 12.8042 14.2506H12.816C13.4015 15.59 14.5146 16.382 15.6379 16.5851C16.7776 16.7906 17.9338 16.4632 19.0312 15.9917L19.2491 15.8967C19.5748 15.7409 19.8891 15.5634 20.1897 15.3654C20.43 15.2155 20.709 15.1359 20.994 15.1359C21.2789 15.1359 21.558 15.2155 21.7982 15.3654L21.9926 15.4857H21.9856C22.2238 15.6377 22.4721 15.7742 22.7287 15.8944L22.9458 15.9894C23.5515 16.2617 24.1891 16.4599 24.8443 16.5798C25.3413 16.6675 25.8502 16.6691 26.3478 16.5844C27.4875 16.3789 28.6147 15.5708 29.1939 14.2031C29.4902 13.5039 29.6157 12.7073 29.6016 11.9031C29.6104 11.6646 29.5962 11.4259 29.5592 11.1901Z" fill="#9ECEF0"/>
<path d="M23.8405 8.7793C22.2485 9.46393 20.4409 10.1156 18.6733 10.696H18.6639C18.6772 10.87 18.685 11.0494 18.685 11.2326C18.685 12.1365 18.5079 12.9515 18.2241 13.5258H18.2351C19.9662 13.1467 21.6739 12.6716 23.3498 12.1028C23.3121 11.815 23.2935 11.5251 23.2941 11.2349C23.2941 10.2413 23.5073 9.3566 23.8405 8.7793Z" fill="#CFDFF4"/>
<path d="M26.2169 11.0477L26.2263 11.0439C27.4185 10.5701 28.4391 10.1185 29.2238 9.75434C29.0948 9.36581 28.9264 8.99084 28.7213 8.635C28.3555 7.99817 27.8745 7.43161 27.3017 6.96289C26.6137 7.4253 25.8905 7.8354 25.1383 8.18956H25.1328C25.7325 8.53303 26.1808 9.6746 26.2169 11.0477Z" fill="#CFDFF4"/>
<path d="M15.7675 11.6016C14.496 11.9803 13.3375 12.3023 12.4094 12.5507H12.3984C12.4393 13.1199 12.5716 13.6793 12.7904 14.2082C12.7974 14.2236 12.8037 14.2397 12.8107 14.2558H12.8225C14.0313 14.198 15.2354 14.0687 16.4283 13.8686C16.0669 13.3718 15.8192 12.5515 15.7675 11.6016Z" fill="#CFDFF4"/>
<path d="M26.2279 11.043L26.2184 11.0468C26.1808 9.66681 25.7324 8.53214 25.1344 8.18944H25.1399C25.0274 8.12313 24.8988 8.0874 24.7675 8.08594C24.4226 8.08594 24.1052 8.34431 23.8551 8.77594L23.8402 8.78284C23.5071 9.36014 23.2915 10.2449 23.2915 11.2362C23.2909 11.5263 23.3095 11.8162 23.3472 12.1041L23.3581 12.1002C23.5149 13.2909 23.9899 14.1932 24.5731 14.3573H24.5676C24.6287 14.3737 24.6917 14.3823 24.755 14.3826C25.0505 14.3826 25.3264 14.1932 25.5561 13.8682L25.5718 13.8605C25.9637 13.2962 26.2286 12.3272 26.2286 11.2331C26.231 11.1695 26.2294 11.1058 26.2279 11.043Z" fill="#3A2561"/>
<path d="M18.6637 10.6976H18.6731C18.5948 9.67559 18.2812 8.82229 17.8587 8.39065H17.8517C17.6604 8.19438 17.4472 8.08398 17.2246 8.08398C16.8444 8.08398 16.4987 8.39448 16.2385 8.90432H16.251C15.9563 9.48009 15.7713 10.3112 15.7713 11.2358C15.7713 11.3592 15.7713 11.4811 15.7815 11.6007H15.7705C15.8222 12.5506 16.0699 13.3709 16.4242 13.87H16.4337C16.6641 14.1943 16.9392 14.3837 17.2348 14.3837C17.6267 14.3837 17.9763 14.0571 18.2381 13.525H18.2271C18.5109 12.9508 18.688 12.1358 18.688 11.2319C18.6849 11.0541 18.6771 10.8716 18.6637 10.6976Z" fill="#3A2561"/>
<path d="M18.6851 11.2339C18.6851 11.0515 18.6773 10.8721 18.6639 10.6973C17.6739 11.0223 16.6972 11.3252 15.7786 11.5981H15.7676C15.8193 12.548 16.067 13.3683 16.4213 13.8674H16.4307C17.0343 13.7652 17.6321 13.651 18.2242 13.5247C18.508 12.9528 18.6851 12.1378 18.6851 11.2339Z" fill="#8F779F"/>
<path d="M25.1344 8.18945C24.7283 8.38572 24.3003 8.57969 23.8551 8.77136L23.8402 8.77826C23.5071 9.35556 23.2915 10.2403 23.2915 11.2316C23.2909 11.5218 23.3095 11.8117 23.3472 12.0995L23.3581 12.0956C24.3858 11.7491 25.3468 11.3911 26.2161 11.0453C26.1808 9.67373 25.7324 8.53215 25.1344 8.18945Z" fill="#8F779F"/>
<path d="M17.2214 8.08517C17.4471 8.08517 17.6604 8.1948 17.8485 8.39183H17.8555C20.1468 7.58376 22.2663 6.52576 23.6373 5.78516L23.5722 5.78899C23.5275 5.78899 23.4829 5.79359 23.439 5.79666C22.7701 5.84288 22.1107 5.9783 21.4793 6.19916C21.3366 6.24667 21.1872 6.27253 21.0364 6.27583H20.9957H20.9871H20.9526C20.7859 6.27106 20.6212 6.23946 20.465 6.18229C20.3082 6.12479 20.1468 6.06883 19.9735 6.01899C17.879 6.95586 15.5674 7.4105 13.9786 7.629H13.9652C13.6937 7.94182 13.4528 8.27884 13.2457 8.63564C13.0788 8.92389 12.9367 9.2252 12.8208 9.53647H12.8318C13.9292 9.45981 15.0815 9.22981 16.2259 8.9078C16.4971 8.39567 16.8412 8.08517 17.2214 8.08517Z" fill="#CFDFF4"/>
<path d="M17.2214 8.08398C16.8413 8.08398 16.4956 8.39449 16.2354 8.90432H16.2479C16.7872 8.75099 17.3233 8.57925 17.8517 8.39295C17.6604 8.19362 17.4472 8.08398 17.2214 8.08398Z" fill="#8F779F"/>
<path d="M29.5985 11.9122C29.5985 11.824 29.5985 11.7366 29.5985 11.6484C28.5795 12.2503 27.1411 13.0668 25.5757 13.861L25.56 13.8687C25.3304 14.1938 25.0544 14.3832 24.7589 14.3832C24.6956 14.3828 24.6326 14.3743 24.5716 14.3578C23.7195 14.768 22.8471 15.159 21.9997 15.4933H21.9927C22.2309 15.6453 22.4792 15.7818 22.7358 15.9019L22.9529 15.997C23.5586 16.2692 24.1962 16.4675 24.8514 16.5873C26.3008 15.8536 27.9085 14.9911 29.2112 14.1616C29.4908 13.4441 29.6224 12.6796 29.5985 11.9122Z" fill="#CFDFF4"/>
<path d="M25.5588 13.8691C25.2358 14.0332 24.9082 14.1952 24.5758 14.3552H24.5703C24.6314 14.3717 24.6943 14.3802 24.7577 14.3805C25.0532 14.3836 25.3291 14.198 25.5588 13.8691Z" fill="#8F779F"/>
<path d="M18.1057 28.0826C18.1059 27.4877 17.9257 26.9062 17.5879 26.4115C17.2501 25.9168 16.7699 25.5311 16.208 25.3034C15.6461 25.0756 15.0278 25.016 14.4312 25.1319C13.8346 25.2479 13.2866 25.5343 12.8565 25.9549C12.4264 26.3755 12.1334 26.9114 12.0147 27.4948C11.896 28.0783 11.9568 28.683 12.1896 29.2327C12.4223 29.7823 12.8164 30.2521 13.3221 30.5826C13.8278 30.9131 14.4224 31.0895 15.0306 31.0895C15.8461 31.0895 16.6281 30.7727 17.2048 30.2089C17.7814 29.645 18.1055 28.8802 18.1057 28.0826Z" fill="#A48BC0"/>
</g>
<defs>
<clipPath id="clip0_4731_24329">
<rect width="42" height="38" fill="white"/>
</clipPath>
</defs>
</svg>
