<svg width="49" height="49" viewBox="0 0 49 49" fill="none" xmlns="http://www.w3.org/2000/svg">
<rect width="49" height="49" rx="13" fill="#FFD43C"/>
<g clip-path="url(#clip0_0_1)">
<path d="M28.1974 10.5151C28.4219 10.5151 28.6464 10.5582 28.8637 10.6013C29.7981 10.7737 30.7324 10.9676 31.6522 11.2333C32.5913 11.4999 33.5031 11.8534 34.3756 12.289L34.7667 12.4758C34.7029 12.551 34.6352 12.6229 34.5639 12.6912C33.9327 13.3278 33.3673 14.0256 32.8763 14.7739C32.7025 15.0468 32.5576 15.3341 32.3983 15.6142C32.2579 15.8182 32.1595 16.0475 32.1085 16.2892C32.0842 16.3753 32.0842 16.4664 32.1084 16.5525C32.1327 16.6386 32.1803 16.7165 32.2462 16.7776C32.3413 16.8747 32.4544 16.9527 32.5793 17.0074C32.7863 17.0942 32.9993 17.1662 33.2167 17.2229C33.7318 17.3447 34.2589 17.4098 34.7884 17.4168C35.4403 17.4168 36.0922 17.4168 36.744 17.4168C37.1134 17.4168 37.4683 17.3809 37.8595 17.3378C38.4461 17.2731 39.0401 17.187 39.6267 17.108C39.6505 17.2037 39.682 17.2973 39.7209 17.388C40.3265 18.5958 40.758 19.8819 41.0029 21.2087C41.1333 21.8479 41.2274 22.4799 41.3144 23.1191C41.3578 23.4925 41.3723 23.8731 41.4013 24.2538L41.5316 26.0492C41.5316 26.6525 41.5316 27.2486 41.5751 27.8518C41.6258 29.0224 41.633 30.1931 41.6548 31.3565V32.2614V34.064V34.459C41.6548 34.7175 41.6548 34.9689 41.6548 35.2203C41.6517 35.2537 41.6517 35.2874 41.6548 35.3208C41.6548 36.0821 41.6113 36.8433 41.5678 37.5974C41.5678 38.1935 41.5099 38.7824 41.4302 39.3713C41.3506 39.9602 41.4302 39.8022 40.9667 39.9746C40.5344 40.1378 40.0916 40.2721 39.6412 40.3767C38.6851 40.6353 37.7146 40.822 36.744 40.9944C36.3095 41.0662 35.8821 41.1595 35.4476 41.2385C35.3751 41.2385 35.2955 41.2385 35.2158 41.2385C35.1361 41.2385 35.0782 41.1739 34.9985 41.1739H34.1873H33.9845C33.8396 41.1739 33.6948 41.217 33.5499 41.217H32.6373C32.5483 41.2062 32.4583 41.2062 32.3693 41.217C32.2185 41.2585 32.062 41.2754 31.9057 41.2673C31.3327 41.242 30.7586 41.2637 30.1892 41.3319H27.4151H27.1471C27.0035 41.3069 26.8583 41.2925 26.7126 41.2888C26.1476 41.2888 25.5971 41.1955 25.0322 41.2098H24.9163C24.7667 41.1625 24.6095 41.143 24.4527 41.1524C24.3853 41.1598 24.3173 41.1598 24.2499 41.1524L23.4532 41.0374C23.1201 40.9872 22.7869 40.9441 22.4609 40.8794C21.9467 40.7645 21.4324 40.6425 20.9254 40.5132C19.9343 40.249 18.9656 39.908 18.0283 39.4934C17.8182 39.4 17.6154 39.2708 17.4126 39.163H17.6806L18.3469 39.2636C18.767 39.3138 19.1944 39.3713 19.6217 39.4072L21.0703 39.5365C21.1717 39.5365 21.2731 39.5365 21.3745 39.5365C22.0247 39.5927 22.6778 39.6095 23.3301 39.5867L25.503 39.6442C26.5242 39.6442 27.5527 39.6442 28.574 39.5867C29.0665 39.5867 29.5663 39.5365 30.0588 39.5149H30.124L31.5726 39.3354C32.0941 39.2636 32.6228 39.1918 33.1371 39.0984C34.0343 38.9358 34.9198 38.7151 35.788 38.4377C36.2811 38.3236 36.7633 38.1674 37.2293 37.9709C37.7112 37.7407 38.1032 37.3596 38.3447 36.8864C38.495 36.5871 38.6232 36.2775 38.7286 35.96C39.0046 35.0745 39.1629 34.157 39.1994 33.2309C39.2598 32.4175 39.2477 31.6004 39.1632 30.7891C39.1065 30.2797 39.0096 29.7754 38.8735 29.281C38.8289 29.0611 38.7429 28.8516 38.62 28.6634C38.5109 28.3366 38.3213 28.0419 38.0683 27.8061C37.8154 27.5704 37.5071 27.4009 37.1714 27.3132C36.68 27.1988 36.1769 27.141 35.6721 27.1408C35.2882 27.1408 34.9043 27.1408 34.5205 27.1767C33.7527 27.1767 32.9922 27.2414 32.2317 27.3204C31.8275 27.356 31.4275 27.4281 31.0366 27.5358C30.8161 27.5897 30.6106 27.6919 30.4351 27.8348C30.2597 27.9777 30.1187 28.1577 30.0226 28.3617L29.7618 28.9363C29.6459 29.1804 29.5373 29.4246 29.4142 29.6544C29.3596 29.7519 29.2861 29.8377 29.1978 29.9068C29.1095 29.9758 29.0083 30.0268 28.8999 30.0566C28.794 30.0931 28.6849 30.1195 28.574 30.1356C28.2915 30.1356 28.0091 30.193 27.7338 30.2002C26.9298 30.2002 26.1331 30.2002 25.3292 30.2002C25.3292 30.1212 25.3292 30.0422 25.3292 29.9632L25.264 22.0634C25.264 19.9663 25.264 17.8644 25.264 15.7578V15.4562C25.264 15.3341 25.264 15.212 25.264 15.0899V11.6427C25.264 11.5206 25.264 11.3985 25.264 11.2692C25.3191 11.2273 25.3801 11.1934 25.445 11.1687L27.1182 10.824C27.4369 10.7593 27.7628 10.7306 28.0815 10.6731C28.1032 10.6229 28.1539 10.5582 28.1974 10.5151ZM39.9092 23.8588C39.9134 23.4217 39.8672 22.9856 39.7716 22.5589C39.6369 21.7666 39.3701 21.0021 38.9821 20.2967C38.7844 19.9323 38.4918 19.6273 38.1347 19.4133C37.9989 19.3217 37.8416 19.2662 37.678 19.2524C37.5143 19.2386 37.3498 19.2668 37.2003 19.3343C37.0227 19.4061 36.8703 19.5282 36.7622 19.6852C36.654 19.8423 36.5948 20.0275 36.5919 20.2176C36.5735 20.528 36.6103 20.8392 36.7006 21.1369C36.8309 21.654 36.9541 22.1783 37.0845 22.6953C37.1101 22.7695 37.1247 22.8469 37.1279 22.9251C37.1279 23.1765 37.1641 23.4279 37.1859 23.6864C37.2273 24.1067 37.3247 24.5196 37.4756 24.9145C37.6021 25.2912 37.8586 25.6116 38.1999 25.8194C38.4171 25.9364 38.6695 25.9725 38.9112 25.9211C39.153 25.8697 39.3683 25.7343 39.5181 25.5393C39.6726 25.3212 39.7878 25.0782 39.8585 24.8211C39.9153 24.5036 39.9324 24.1804 39.9092 23.8588ZM38.9894 26.4155C38.9168 26.4116 38.8442 26.4222 38.7759 26.4466C38.7076 26.4711 38.6449 26.5089 38.5916 26.5577C38.5382 26.6066 38.4953 26.6656 38.4653 26.7312C38.4354 26.7968 38.419 26.8677 38.4172 26.9397C38.4136 27.0155 38.4266 27.0911 38.4553 27.1614C38.484 27.2317 38.5278 27.2949 38.5835 27.3468C38.6393 27.3987 38.7058 27.438 38.7783 27.4619C38.8509 27.4859 38.9278 27.4939 39.0039 27.4855C39.0714 27.4837 39.1379 27.4687 39.1996 27.4413C39.2612 27.4139 39.3169 27.3748 39.3633 27.3261C39.4097 27.2774 39.446 27.2201 39.4701 27.1575C39.4941 27.0949 39.5055 27.0283 39.5036 26.9613C39.5075 26.8916 39.4972 26.8218 39.4732 26.7562C39.4492 26.6906 39.412 26.6305 39.364 26.5795C39.3159 26.5285 39.258 26.4877 39.1936 26.4595C39.1292 26.4313 39.0597 26.4163 38.9894 26.4155Z" fill="#D9F1FD"/>
<path d="M17.3836 39.1778C17.5864 39.2855 17.7892 39.4148 17.9992 39.5082C18.9366 39.9228 19.9053 40.2638 20.8964 40.528C21.4034 40.6572 21.9177 40.7793 22.4319 40.8942C22.7579 40.9589 23.091 41.002 23.4242 41.0522L24.221 41.1672C24.2883 41.1746 24.3564 41.1746 24.4238 41.1672C24.5805 41.1578 24.7377 41.1773 24.8873 41.2246H24.9887C25.5537 41.2246 26.1041 41.3323 26.6691 41.3036C26.8148 41.3073 26.9601 41.3217 27.1036 41.3467H27.3716H30.1457C30.7151 41.2785 31.2892 41.2568 31.8623 41.282C32.0185 41.2902 32.1751 41.2733 32.3258 41.2318C32.4148 41.221 32.5048 41.221 32.5938 41.2318H33.5064C33.6513 41.2318 33.7961 41.2318 33.941 41.1887H34.1438H34.955C35.0347 41.1887 35.1144 41.1887 35.1723 41.2533L33.3036 41.5262C32.8038 41.5909 32.2968 41.6555 31.7971 41.7058L30.8193 41.792L29.3345 41.9069H29.2041C26.9733 42.0146 24.7424 42.0218 22.5116 41.9715C21.5918 41.9715 20.6647 41.8997 19.7448 41.835C18.9336 41.7848 18.1296 41.7201 17.3257 41.6411C16.0364 41.5119 14.7544 41.3467 13.4797 41.1097C12.1448 40.8866 10.8366 40.528 9.5757 40.0396C9.40187 39.9678 9.22803 39.8888 9.06145 39.8026C8.96724 39.7617 8.88627 39.6958 8.82747 39.6122C8.76867 39.5285 8.73433 39.4304 8.72827 39.3286C8.72827 39.0988 8.67033 38.8618 8.65584 38.6105C8.65584 37.9282 8.60514 37.2459 8.57617 36.5637L8.51099 35.393C8.51484 35.3261 8.51484 35.2589 8.51099 35.192V32.6712C8.5149 32.5946 8.5149 32.5179 8.51099 32.4413C8.51099 32.3767 8.51099 32.3049 8.51099 32.2403C8.51099 31.0912 8.56169 29.9421 8.59066 28.793V27.9887C8.59066 27.3998 8.62687 26.8037 8.64135 26.2148C8.66527 26.118 8.68222 26.0196 8.69206 25.9204C8.74276 25.1232 8.77173 24.3188 8.85141 23.5217C8.98973 21.9981 9.30072 20.4948 9.7785 19.0403C9.94137 18.549 10.1374 18.0691 10.3652 17.6039C10.4086 17.5178 10.4304 17.4388 10.4666 17.3526C10.7925 17.3526 11.1184 17.3956 11.4444 17.4028C11.9948 17.4028 12.5453 17.4028 13.0958 17.4028C13.659 17.3935 14.2197 17.3261 14.7689 17.2017C15.022 17.1449 15.2659 17.0531 15.4932 16.9289C15.5693 16.8971 15.638 16.8503 15.6953 16.7913C15.7525 16.7323 15.7971 16.6624 15.8262 16.5858C15.8554 16.5092 15.8685 16.4275 15.8648 16.3458C15.8611 16.264 15.8406 16.1838 15.8046 16.1101C15.7125 15.894 15.6085 15.683 15.4932 15.4781C15.4425 15.3632 15.3918 15.2555 15.3338 15.1478C14.9304 14.4912 14.4725 13.869 13.9649 13.2877C14.0368 13.261 14.107 13.2298 14.175 13.1944C15.822 12.0898 17.6692 11.3118 19.6144 10.9034C20.5361 10.689 21.4696 10.5284 22.4102 10.4222C23.1345 10.336 23.8226 10.2858 24.5251 10.2427H24.699C24.6769 10.3517 24.6624 10.4621 24.6555 10.573C24.6555 10.8172 24.6555 11.0614 24.6555 11.2912C23.7094 11.5691 22.7806 11.9025 21.8742 12.2894C21.3382 12.5336 20.824 12.8065 20.3098 13.0866C20.0053 13.2523 19.7103 13.4345 19.4261 13.6324C19.1871 13.7976 18.9626 13.9843 18.7018 14.1639C18.4429 14.3513 18.2006 14.5603 17.9775 14.7887L17.2532 15.5069C17.1596 15.5864 17.0746 15.6755 16.9997 15.7726C16.7535 16.1173 16.471 16.4333 16.2175 16.778C15.4409 17.8725 14.7967 19.0536 14.2981 20.2971C13.9939 21.0943 13.7187 21.8914 13.4941 22.7101C13.3131 23.3637 13.1827 24.0316 13.0451 24.6923C12.9828 24.9529 12.9344 25.2166 12.9002 25.4823C12.9002 25.7623 12.8205 26.0281 12.7771 26.301C12.7336 26.5739 12.7191 26.8324 12.6902 27.0981L12.6033 27.1987C12.0981 27.3795 11.6811 27.7441 11.4371 28.2185C11.2814 28.501 11.1576 28.7997 11.0677 29.109C10.8235 29.9919 10.6897 30.9013 10.6694 31.8165C10.6694 32.2546 10.6694 32.6855 10.7128 33.1236C10.7479 33.7358 10.8229 34.3452 10.9374 34.9478C11.0373 35.4866 11.2001 36.012 11.4226 36.5134C11.6575 37.0641 12.0843 37.5127 12.625 37.7774C12.86 37.8967 13.1018 38.0022 13.3493 38.0934C14.3584 38.475 15.3977 38.7729 16.4565 38.9839L17.3836 39.1778Z" fill="#B3E4FA"/>
<path d="M32.3982 15.6144C32.5575 15.3343 32.7024 15.047 32.8762 14.7741C33.3672 14.0258 33.9326 13.3281 34.5639 12.6914C34.6351 12.6231 34.7028 12.5512 34.7667 12.476C34.9912 12.2821 35.2012 12.081 35.4258 11.9015C35.7662 11.6357 36.1501 11.3772 36.4688 11.1115H36.6353C37.0468 11.0432 37.4647 11.0216 37.8811 11.0468C38.5578 11.0631 39.2217 11.2326 39.8222 11.5424C40.3545 11.8052 40.8025 12.2097 41.1159 12.7108C41.4294 13.2118 41.5959 13.7895 41.5968 14.3791C41.5968 14.5874 41.5968 14.7957 41.5968 15.0111L41.5388 15.0758C41.394 15.1117 41.2563 15.1548 41.1115 15.1835C40.6769 15.284 40.2423 15.4061 39.8005 15.4708C39.3587 15.5354 39.0762 15.6072 38.7141 15.6359C38.3519 15.6647 37.8956 15.758 37.4755 15.7508C37.4202 15.7437 37.3642 15.7437 37.3089 15.7508C37.0728 15.8122 36.8276 15.8316 36.5846 15.8083C36.1428 15.8083 35.7082 15.8083 35.2664 15.8083C34.8246 15.8083 34.4335 15.8083 34.0279 15.7293C33.8178 15.7293 33.6078 15.6934 33.3977 15.6503C33.1877 15.6072 33.0211 15.5713 32.84 15.5498C32.6899 15.5127 32.5311 15.5359 32.3982 15.6144ZM35.2157 13.9339C35.3759 13.9164 35.531 13.8676 35.672 13.7902C36.1402 13.5478 36.5778 13.2513 36.9757 12.9069C37.1395 12.7681 37.2559 12.5824 37.3089 12.3754C37.3254 12.3268 37.3273 12.2745 37.3145 12.2248C37.3016 12.1751 37.2746 12.1301 37.2365 12.0954C37.1635 12.0431 37.0792 12.0086 36.9902 11.9948C36.7889 11.9736 36.586 12.0164 36.4108 12.1169C35.8906 12.3627 35.4289 12.7152 35.0564 13.1511C34.9614 13.2627 34.8899 13.3922 34.8463 13.5317C34.7739 13.7543 34.9188 13.9339 35.2157 13.9339Z" fill="#443D54"/>
<path d="M14.0085 13.2945C14.516 13.8758 14.9739 14.498 15.3774 15.1546C15.4353 15.2623 15.486 15.37 15.5367 15.485C15.2325 15.485 14.9283 15.5999 14.6169 15.6358C14.4273 15.6402 14.2384 15.6594 14.0519 15.6932C13.7965 15.7409 13.5366 15.7601 13.2769 15.7507H13.0089C12.8858 15.7507 12.7699 15.7866 12.6468 15.7938H11.43C11.3413 15.8085 11.2507 15.8085 11.162 15.7938C10.9891 15.7385 10.8062 15.7213 10.626 15.7435C10.2885 15.7436 9.95168 15.7148 9.61923 15.6573C9.23535 15.6573 8.85147 15.528 8.46035 15.4778C7.95269 15.4032 7.4497 15.3001 6.95382 15.169L6.62788 15.0828C6.59993 15.0762 6.57057 15.079 6.54438 15.0907C6.51818 15.1024 6.49662 15.1223 6.48303 15.1474L6.41059 15.0038V14.6375C6.39333 14.3146 6.42013 13.9909 6.49027 13.6752C6.63761 12.971 7.02985 12.3406 7.59844 11.8941C8.25142 11.3928 9.04124 11.0975 9.86549 11.0467C10.4257 10.9987 10.9896 11.0155 11.5458 11.0969C11.8718 11.3411 12.1977 11.5709 12.5092 11.8151C13.0502 12.2653 13.5518 12.7603 14.0085 13.2945ZM12.7482 13.9337C13.0814 13.9337 13.2479 13.7183 13.1393 13.4669C13.0903 13.3422 13.0219 13.2258 12.9365 13.1222C12.563 12.6861 12.0984 12.3357 11.5748 12.0952C11.4277 12.0398 11.2778 11.9918 11.1258 11.9515C11.0539 11.9369 10.9793 11.9434 10.9111 11.9701C10.8429 11.9969 10.7841 12.0429 10.7419 12.1024C10.7067 12.1544 10.6879 12.2157 10.6879 12.2783C10.6879 12.341 10.7067 12.4022 10.7419 12.4543C10.8296 12.6606 10.9692 12.8411 11.1475 12.9785L11.3793 13.1653C11.6998 13.4117 12.0444 13.6258 12.4078 13.8044C12.5164 13.8619 12.6613 13.8978 12.7482 13.9337Z" fill="#443D54"/>
<path d="M1.07251 11.5853C1.10556 11.3422 1.19209 11.1093 1.32601 10.9031C1.61079 10.4052 2.02629 9.99326 2.52834 9.71088C3.06527 9.40375 3.65446 9.19684 4.26665 9.10043C5.2683 8.94829 6.28961 8.97994 7.27972 9.1938C7.90701 9.32271 8.52058 9.51027 9.11218 9.75397L9.29326 9.84015C9.17013 9.92633 9.03251 9.89043 8.90214 9.89761C7.90691 9.9426 6.9471 10.2773 6.14258 10.86C5.41232 11.3686 4.91492 12.1432 4.75917 13.0145C4.69766 13.436 4.69766 13.8641 4.75917 14.2856V14.4149L4.35357 14.1779L3.32507 13.6034C2.90735 13.3421 2.51243 13.0466 2.14446 12.72C1.92237 12.5308 1.72088 12.3189 1.5433 12.088C1.41825 11.8937 1.25875 11.7234 1.07251 11.5853ZM4.33184 9.91197H4.16525C3.63608 9.95611 3.12488 10.1234 2.6732 10.4003C2.50817 10.5172 2.36378 10.6604 2.24586 10.8241C2.17164 10.9177 2.13762 11.0365 2.15118 11.1548C2.16474 11.2731 2.22479 11.3813 2.3183 11.456C2.39518 11.5128 2.48351 11.5525 2.57726 11.5723C2.671 11.5921 2.76797 11.5917 2.86152 11.5709C3.16841 11.4999 3.46523 11.3913 3.74516 11.2478L4.71571 10.7881C4.84913 10.7219 4.95625 10.6131 5.01992 10.4793C5.05191 10.4321 5.06449 10.3746 5.05506 10.3185C5.04563 10.2624 5.01492 10.212 4.96922 10.1777C4.79649 10.0151 4.56985 9.92062 4.33184 9.91197ZM5.68627 10.4506C5.74151 10.4563 5.79727 10.4466 5.84721 10.4225C5.89714 10.3983 5.93924 10.3608 5.96874 10.3141C5.98967 10.2635 5.98967 10.2068 5.96874 10.1561C5.94327 10.0938 5.89703 10.042 5.83773 10.0093C5.77844 9.97668 5.70965 9.96512 5.64281 9.9766C5.58176 9.98327 5.52418 10.0081 5.47764 10.0479C5.4311 10.0876 5.39778 10.1404 5.38206 10.1992C5.37578 10.2267 5.37539 10.2552 5.38092 10.2828C5.38644 10.3105 5.39777 10.3367 5.41416 10.3597C5.43055 10.3827 5.45163 10.4021 5.47605 10.4165C5.50047 10.4309 5.52768 10.4401 5.5559 10.4434L5.68627 10.4506Z" fill="#443D54"/>
<path d="M38.6777 9.86194C39.3872 9.5496 40.131 9.32063 40.8941 9.17969C41.6231 9.03378 42.3688 8.98786 43.1104 9.04324C43.8313 9.08632 44.5371 9.26675 45.1891 9.57468C45.7096 9.82022 46.1602 10.1905 46.5001 10.6519C46.7253 10.9463 46.8722 11.292 46.9275 11.6574C46.877 11.6601 46.8282 11.6762 46.7862 11.704C46.7441 11.7318 46.7104 11.7702 46.6884 11.8154C46.5726 11.9662 46.4711 12.1242 46.348 12.2678C46.068 12.5731 45.7601 12.852 45.4282 13.1009C44.8765 13.5191 44.2845 13.8824 43.6609 14.1854C43.3567 14.329 43.3567 14.3362 43.2408 14.6522V14.3864C43.2704 14.3029 43.2899 14.216 43.2987 14.1279C43.3132 13.86 43.3132 13.5915 43.2987 13.3235C43.2514 12.707 43.0278 12.1166 42.6541 11.6215C42.3394 11.211 41.9455 10.8668 41.4953 10.6088C40.735 10.1682 39.8764 9.92147 38.9964 9.89068C38.8805 9.89786 38.7864 9.87631 38.6777 9.86194ZM43.813 9.97685H43.4726C43.3881 9.978 43.305 9.99722 43.2287 10.0332C43.1525 10.0691 43.0849 10.1209 43.0308 10.1851C42.9848 10.2275 42.9553 10.2844 42.9474 10.3461C42.9394 10.4078 42.9536 10.4703 42.9873 10.5227C43.0232 10.5914 43.0724 10.6524 43.1321 10.7022C43.219 10.7727 43.3138 10.833 43.4146 10.8818L44.4721 11.3988C44.6242 11.4707 44.7908 11.5138 44.9429 11.5784C45.1071 11.6174 45.2784 11.6174 45.4427 11.5784C45.5091 11.5677 45.5723 11.5425 45.6278 11.5047C45.6833 11.4669 45.7297 11.4174 45.7636 11.3598C45.7975 11.3021 45.8182 11.2377 45.8241 11.1712C45.8299 11.1047 45.8209 11.0377 45.7975 10.9751C45.7254 10.7719 45.588 10.5979 45.4064 10.4796C44.9434 10.1506 44.3898 9.97017 43.8202 9.9625L43.813 9.97685ZM42.3137 10.5011C42.3745 10.4945 42.4321 10.4707 42.4796 10.4325C42.5272 10.3943 42.5626 10.3433 42.5817 10.2857C42.5864 10.2304 42.5736 10.1751 42.545 10.1275C42.5164 10.0798 42.4735 10.0422 42.4224 10.0199C42.3847 9.99439 42.3431 9.97501 42.2992 9.9625C42.2574 9.96286 42.2162 9.97294 42.1791 9.99189C42.1419 10.0108 42.1097 10.0381 42.085 10.0716C42.0604 10.1051 42.044 10.1439 42.0372 10.1848C42.0304 10.2257 42.0333 10.2676 42.0457 10.3072C42.071 10.356 42.1068 10.3987 42.1507 10.4322C42.1945 10.4657 42.2452 10.4893 42.2992 10.5011H42.3137Z" fill="#443D54"/>
<path d="M6.48291 15.1545C6.4965 15.1294 6.51806 15.1095 6.54426 15.0978C6.57045 15.0861 6.59981 15.0833 6.62777 15.0899L6.9537 15.1761C7.44958 15.3072 7.95257 15.4103 8.46023 15.4849C8.85135 15.5352 9.23523 15.6357 9.61911 15.6644C9.95156 15.7219 10.2884 15.7507 10.6259 15.7506C10.8061 15.7284 10.989 15.7456 11.1619 15.8009C11.2506 15.8156 11.3411 15.8156 11.4298 15.8009H12.6467C12.7698 15.8009 12.8857 15.8009 13.0088 15.7578H13.2768C13.5362 15.7696 13.7961 15.7527 14.0518 15.7075C14.2383 15.6737 14.4272 15.6545 14.6167 15.6501C14.9282 15.6501 15.2324 15.528 15.5366 15.4992C15.6519 15.7041 15.7559 15.9151 15.848 16.1312C15.884 16.2049 15.9045 16.2851 15.9082 16.3669C15.9119 16.4486 15.8988 16.5303 15.8697 16.6069C15.8405 16.6835 15.796 16.7534 15.7387 16.8124C15.6814 16.8714 15.6127 16.9182 15.5366 16.95C15.3093 17.0742 15.0655 17.166 14.8123 17.2228C14.2631 17.3472 13.7024 17.4146 13.1392 17.424C12.5887 17.424 12.0383 17.424 11.4878 17.424C11.1619 17.424 10.8359 17.424 10.51 17.3737L9.37284 17.2372C8.64855 17.151 7.9822 17.0218 7.28688 16.8781L7.12753 16.8207C7.12753 16.756 7.06235 16.6842 7.02613 16.6196C6.76977 16.162 6.58652 15.6678 6.48291 15.1545Z" fill="#373142"/>
<path d="M32.3982 15.6144C32.5281 15.5422 32.6809 15.5217 32.8255 15.557C33.0066 15.557 33.1949 15.6288 33.3832 15.6575C33.5715 15.6863 33.8033 15.7078 34.0134 15.7365C34.419 15.7868 34.8391 15.8012 35.2519 15.8155C35.6647 15.8299 36.1283 15.8155 36.5701 15.8155C36.8131 15.8388 37.0583 15.8194 37.2944 15.7581C37.3497 15.7509 37.4057 15.7509 37.461 15.7581C37.8811 15.7581 38.2867 15.6719 38.6996 15.6432C39.1124 15.6145 39.4238 15.5283 39.786 15.478C40.1481 15.4277 40.6624 15.2913 41.097 15.1907C41.2418 15.1907 41.3794 15.1189 41.5243 15.083V15.1548C41.4519 15.2051 41.4591 15.2841 41.4664 15.3631C41.4698 15.4181 41.4698 15.4733 41.4664 15.5283C41.3387 15.9772 41.1613 16.4107 40.9376 16.821L40.1554 17.0149L39.6556 17.1083C39.0689 17.1873 38.475 17.2734 37.8883 17.3381C37.519 17.3811 37.164 17.4099 36.7729 17.4171C36.1211 17.4171 35.4692 17.4171 34.8173 17.4171C34.2878 17.4101 33.7607 17.345 33.2456 17.2231C33.0282 17.1665 32.8152 17.0945 32.6082 17.0077C32.4833 16.953 32.3702 16.875 32.2751 16.7779C32.2092 16.7168 32.1616 16.6389 32.1373 16.5528C32.113 16.4667 32.1131 16.3756 32.1374 16.2895C32.1795 16.0499 32.2681 15.8206 32.3982 15.6144Z" fill="#373142"/>
<path d="M38.6778 9.86182C38.7792 9.86182 38.8733 9.89775 38.9747 9.90493C39.8548 9.93572 40.7133 10.1825 41.4735 10.6231C41.9238 10.8811 42.3177 11.2253 42.6324 11.6357C43.0061 12.1308 43.2297 12.7212 43.277 13.3378C43.2915 13.6057 43.2915 13.8742 43.277 14.1421C43.2682 14.2303 43.2487 14.3171 43.2191 14.4007L42.6324 14.652L41.7488 14.9824C41.6935 14.9899 41.6375 14.9899 41.5822 14.9824C41.5822 14.7669 41.5822 14.5587 41.5822 14.3504C41.5813 13.7608 41.4148 13.1831 41.1014 12.6821C40.788 12.181 40.34 11.7764 39.8077 11.5136C39.2072 11.2039 38.5432 11.0344 37.8666 11.0181C37.4502 10.9928 37.0322 11.0145 36.6208 11.0827H36.5049C36.8305 10.828 37.1797 10.6043 37.5479 10.4148C37.8955 10.2353 38.2939 10.0557 38.6778 9.86182Z" fill="#00B2EA"/>
<path d="M4.7373 14.2712C4.67578 13.8496 4.67578 13.4215 4.7373 13C4.89305 12.1287 5.39045 11.3541 6.1207 10.8455C6.92522 10.2628 7.88503 9.92813 8.88027 9.88315C9.01064 9.88315 9.14825 9.88314 9.27138 9.82568C9.86255 10.0726 10.4319 10.3681 10.9735 10.709C11.1618 10.8311 11.3429 10.9676 11.5239 11.0897C10.9677 11.0083 10.4038 10.9914 9.84358 11.0394C9.01934 11.0903 8.22951 11.3855 7.57653 11.8868C7.00795 12.3333 6.6157 12.9637 6.46836 13.6679C6.39823 13.9837 6.37143 14.3074 6.38869 14.6303V14.9893C6.0193 14.8601 5.66439 14.7452 5.28776 14.5944C5.07862 14.5369 4.88865 14.4254 4.7373 14.2712Z" fill="#00B2EA"/>
<path d="M8.47466 32.4629C8.47857 32.5394 8.47857 32.6161 8.47466 32.6927V35.2135C8.47851 35.2805 8.47851 35.3476 8.47466 35.4146C8.17227 35.4174 7.87066 35.3836 7.57653 35.314C7.14731 35.2279 6.75146 35.0231 6.43484 34.7231C6.11822 34.4231 5.89378 34.0404 5.78752 33.6191C5.66673 33.2248 5.59617 32.8171 5.57748 32.4054C5.57748 31.9602 5.52677 31.5149 5.51953 31.0696C5.51953 30.3874 5.59196 29.7123 5.65715 29.03C5.65715 28.9438 5.70061 28.8577 5.71509 28.7715C5.80235 28.9391 5.86573 29.118 5.90341 29.3029C6.1005 30.0823 6.45263 30.8148 6.93914 31.4574C7.31569 31.9613 7.85944 32.3174 8.47466 32.4629Z" fill="#218ACA"/>
<path d="M41.6184 35.2134C41.6184 34.962 41.6184 34.7107 41.6184 34.4521V34.0571V32.2545L41.7053 32.2114C42.3198 32.0077 42.8477 31.6057 43.2046 31.0696C43.6688 30.4495 44.0037 29.7439 44.1896 28.994C44.1961 28.8814 44.2423 28.7747 44.32 28.6924C44.32 28.8288 44.2693 28.9725 44.3707 29.0946C44.4516 29.793 44.471 30.4971 44.4287 31.1988C44.4207 31.8764 44.3356 32.551 44.1752 33.2097C44.1127 33.4366 44.0303 33.6577 43.9289 33.8704C43.783 34.1984 43.557 34.4851 43.2711 34.7045C42.9853 34.924 42.6487 35.0693 42.292 35.1272C42.0692 35.168 41.8443 35.1968 41.6184 35.2134Z" fill="#218ACA"/>
<path d="M8.47474 32.4629C7.8701 32.3112 7.33749 31.9558 6.9682 31.4574C6.48169 30.8148 6.12955 30.0823 5.93245 29.3029C5.89477 29.118 5.8314 28.9391 5.74414 28.7715C5.78528 28.2256 5.94859 27.6957 6.22218 27.2202C6.37384 26.9562 6.59719 26.7398 6.8668 26.5954C7.13071 26.4467 7.42076 26.3492 7.72146 26.3081C8.03291 26.2651 8.34436 26.2579 8.65581 26.2363C8.65581 26.8252 8.61959 27.4213 8.60511 28.0102V28.8146C8.60511 29.9636 8.5544 31.1127 8.52543 32.2618C8.49646 32.3264 8.48198 32.3982 8.47474 32.4629ZM8.31539 28.2616C8.33175 27.9951 8.2606 27.7305 8.11259 27.5075C8.02398 27.3368 7.8767 27.2031 7.69737 27.1307C7.51804 27.0582 7.31849 27.0518 7.13479 27.1125C6.97995 27.1767 6.84489 27.2802 6.74317 27.4126C6.64146 27.5449 6.57668 27.7015 6.55535 27.8666C6.53664 28.1447 6.59421 28.4226 6.72194 28.6709C6.7813 28.8105 6.87451 28.9333 6.99329 29.0285C7.11207 29.1238 7.25273 29.1884 7.40278 29.2167C7.53857 29.2424 7.67892 29.229 7.80726 29.1781C7.9356 29.1272 8.04658 29.0409 8.12708 28.9295C8.26892 28.7366 8.33579 28.4994 8.31539 28.2616ZM7.97497 30.0283C7.98014 29.9644 7.97063 29.9002 7.94715 29.8405C7.92368 29.7808 7.88684 29.7271 7.83943 29.6835C7.79202 29.64 7.73526 29.6077 7.67342 29.589C7.61159 29.5704 7.54629 29.5658 7.48245 29.5758C7.35944 29.5848 7.24431 29.6392 7.15982 29.7283C7.07533 29.8174 7.02763 29.9347 7.02615 30.057C7.02402 30.1243 7.03706 30.1912 7.06432 30.2529C7.09158 30.3145 7.13238 30.3693 7.18374 30.4134C7.23509 30.4574 7.2957 30.4895 7.36116 30.5074C7.42662 30.5253 7.49527 30.5284 7.56212 30.5166C7.83735 30.5023 7.98221 30.3443 7.97497 30.0283Z" fill="#00B2EA"/>
<path d="M24.6844 11.3195C24.6844 11.0754 24.6844 10.8312 24.6844 10.6014C24.6913 10.4904 24.7058 10.38 24.7279 10.271H25.1335C25.1335 10.4146 25.1335 10.5583 25.1335 10.7019V15.0684C25.1379 15.1887 25.15 15.3086 25.1697 15.4275V15.7076C25.1697 17.8094 25.1697 19.9113 25.1697 22.0131L25.2349 29.913C25.2349 29.992 25.2349 30.071 25.2349 30.15H24.793C24.793 29.5108 24.793 28.8788 24.793 28.2397C24.7641 25.367 24.7399 22.4943 24.7206 19.6216V15.6645C24.7206 14.2784 24.7206 12.8923 24.6699 11.4991C24.6989 11.4775 24.6916 11.3985 24.6844 11.3195Z" fill="#443E54"/>
<path d="M44.378 28.692C44.3002 28.7743 44.2541 28.8811 44.2476 28.9937C44.0616 29.7435 43.7267 30.4491 43.2625 31.0692C42.9056 31.6053 42.3778 32.0074 41.7633 32.2111L41.6764 32.2542V31.3493C41.6764 30.1858 41.6764 29.0152 41.5967 27.8446C41.5967 27.2413 41.5532 26.6453 41.5532 26.042C41.7343 26.042 41.9154 26.042 42.0892 26.0851C42.5646 26.1127 43.0254 26.2584 43.4291 26.5088C43.6986 26.6878 43.9139 26.936 44.0521 27.227C44.2611 27.6879 44.372 28.1866 44.378 28.692ZM43.6537 27.8518C43.6538 27.6908 43.6134 27.5323 43.5363 27.3906C43.4592 27.2489 43.3477 27.1285 43.2119 27.0402C43.1165 26.9723 43.005 26.93 42.8882 26.9174C42.7715 26.9048 42.6534 26.9224 42.5455 26.9684C42.4277 27.0062 42.3195 27.0688 42.2282 27.1518C42.137 27.2349 42.0649 27.3364 42.0168 27.4496C42.0168 27.4927 41.9733 27.5286 41.9588 27.5717C41.8157 27.9021 41.8028 28.2737 41.9226 28.613C41.9679 28.74 42.0483 28.8517 42.1546 28.9355C42.2609 29.0194 42.3888 29.0719 42.5238 29.087C42.6365 29.0977 42.7503 29.0861 42.8585 29.0528C42.9666 29.0195 43.0671 28.9652 43.1539 28.8931C43.4333 28.6143 43.6007 28.2441 43.6247 27.8518H43.6537ZM42.6252 29.4389C42.5583 29.4282 42.4897 29.4324 42.4246 29.4512C42.3595 29.47 42.2995 29.503 42.2488 29.5477C42.1982 29.5924 42.1583 29.6477 42.1319 29.7096C42.1055 29.7716 42.0934 29.8386 42.0964 29.9057C42.1047 30.0275 42.1568 30.1424 42.2431 30.2294C42.3295 30.3163 42.4445 30.3697 42.5672 30.3797C42.6343 30.3846 42.7016 30.3759 42.7651 30.354C42.8287 30.3321 42.887 30.2976 42.9365 30.2525C42.9861 30.2074 43.0258 30.1528 43.0532 30.0919C43.0806 30.031 43.0952 29.9652 43.096 29.8986C43.1032 29.6831 42.8352 29.4389 42.5962 29.4389H42.6252Z" fill="#00B2EA"/>
<path d="M43.2263 14.6735C43.3422 14.3575 43.3422 14.3503 43.6464 14.2067C44.27 13.9037 44.862 13.5404 45.4137 13.1222C45.7456 12.8733 46.0536 12.5944 46.3336 12.2891C46.4567 12.1455 46.5581 11.9875 46.674 11.8367C46.6959 11.7916 46.7297 11.7531 46.7717 11.7253C46.8138 11.6975 46.8625 11.6814 46.913 11.6787C47.0251 12.0561 47.0251 12.4575 46.913 12.835C46.7897 13.2769 46.5779 13.6897 46.2901 14.0487C45.907 14.5332 45.4471 14.9528 44.9284 15.2911C44.2006 15.764 43.4111 16.1361 42.5817 16.3971L42.4875 16.3396L42.5889 16.1673C42.7774 15.8702 42.9351 15.555 43.0597 15.2265C43.1104 15.0326 43.1684 14.853 43.2263 14.6735Z" fill="#373142"/>
<path d="M1.07231 11.5854C1.24752 11.7239 1.39703 11.8916 1.51413 12.081C1.69171 12.3119 1.8932 12.5237 2.1153 12.713C2.48326 13.0396 2.87817 13.3351 3.29589 13.5963L4.3244 14.1709L4.73 14.4079C4.7387 14.4518 4.75079 14.495 4.76621 14.5371C4.88387 15.099 5.10484 15.6346 5.41808 16.1171C5.44969 16.1634 5.4787 16.2113 5.50499 16.2607C5.51229 16.3035 5.51229 16.3472 5.50499 16.39C4.91531 16.2002 4.34338 15.9599 3.79565 15.6718C3.16345 15.3495 2.58656 14.9302 2.08632 14.4294C1.73554 14.0792 1.45314 13.6677 1.25338 13.2157C1.0588 12.7983 0.97646 12.3382 1.01436 11.8799C1.02675 11.7805 1.04612 11.6821 1.07231 11.5854Z" fill="#373142"/>
<path d="M5.50521 16.426C5.51251 16.3832 5.51251 16.3395 5.50521 16.2967C5.47892 16.2473 5.44991 16.1994 5.4183 16.1531C5.10507 15.6706 4.88409 15.135 4.76643 14.5731C4.75102 14.531 4.73892 14.4878 4.73022 14.4438V14.2715C4.88584 14.4343 5.08389 14.5511 5.30241 14.609C5.66456 14.7598 6.02671 14.8747 6.40335 15.004L6.47577 15.1477C6.57311 15.6494 6.74649 16.1337 6.99002 16.584C7.02624 16.6486 7.06245 16.7205 7.09142 16.7851L6.12811 16.5553L5.50521 16.426Z" fill="#218ACA"/>
<path d="M43.2264 14.6734C43.1685 14.853 43.1106 15.0325 43.0454 15.2049C42.9208 15.5334 42.7631 15.8486 42.5746 16.1457L42.4732 16.3181L42.5673 16.3755C42.0271 16.5651 41.4725 16.7116 40.9087 16.8136C41.1324 16.4033 41.3097 15.9698 41.4374 15.5209C41.4409 15.4659 41.4409 15.4107 41.4374 15.3557C41.4654 15.3296 41.4856 15.2963 41.4958 15.2596C41.506 15.2229 41.5059 15.1841 41.4954 15.1474V15.0756L41.5751 14.9894C41.6303 14.9969 41.6864 14.9969 41.7416 14.9894L42.6253 14.6591L43.212 14.4077L43.2264 14.6734Z" fill="#218ACA"/>
<path d="M25.2132 15.4206C25.1936 15.3018 25.1815 15.1819 25.177 15.0615V10.695C25.177 10.5514 25.177 10.4078 25.177 10.2642H25.5826C26.3069 10.3144 27.0312 10.336 27.7555 10.4509C27.8642 10.5514 27.9873 10.5083 28.1104 10.5011H28.2263C28.1828 10.5442 28.1321 10.6089 28.0814 10.6232C27.7627 10.6807 27.4368 10.7094 27.1181 10.7741L25.445 11.1188C25.3801 11.1435 25.3191 11.1774 25.2639 11.2193C25.2639 11.3486 25.2639 11.4707 25.2639 11.5928V15.04C25.2277 15.1765 25.2205 15.2985 25.2132 15.4206Z" fill="#B3E4FA"/>
<path d="M44.4289 29.1014C44.3275 28.9793 44.3782 28.8357 44.3782 28.6992C44.4419 28.8233 44.4599 28.9656 44.4289 29.1014Z" fill="#FFC907"/>
<path d="M28.0815 10.5009C27.9583 10.5009 27.8352 10.5511 27.7266 10.4506C27.8472 10.427 27.9723 10.4448 28.0815 10.5009Z" fill="#D9F1FD"/>
<path d="M38.6343 28.6348C38.7573 28.823 38.8433 29.0326 38.8879 29.2524C39.024 29.7469 39.1209 30.2511 39.1776 30.7606C39.262 31.5719 39.2741 32.389 39.2138 33.2024C39.1773 34.1285 39.019 35.0459 38.743 35.9314C38.6376 36.249 38.5093 36.5586 38.3591 36.8579C38.1191 37.3441 37.7211 37.7362 37.2292 37.9711C36.7752 38.193 36.3026 38.3757 35.8168 38.5169C34.9487 38.7943 34.0632 39.015 33.1659 39.1776C32.6517 39.2709 32.1229 39.3428 31.6014 39.4146L30.1529 39.5941H30.0877C29.5951 39.5941 29.0954 39.6587 28.6028 39.6659C27.5816 39.6659 26.5531 39.7521 25.5318 39.7234L23.359 39.6659C23.3243 39.6397 23.285 39.6203 23.2431 39.6085H23.0765C22.5477 39.6516 22.019 39.5295 21.4903 39.5367H21.3961C21.1244 39.4739 20.8484 39.4307 20.5704 39.4074C20.1793 39.4074 19.7954 39.2925 19.4043 39.2494C18.9161 39.1859 18.4323 39.0923 17.9557 38.9693C17.1665 38.7953 16.3878 38.5771 15.6235 38.3158C15.064 38.1435 14.5211 37.9224 14.0011 37.6551C13.3907 37.3623 12.8742 36.9073 12.509 36.3408C12.4133 36.2154 12.3308 36.0806 12.2627 35.9386C12.1463 35.6617 12.0447 35.3788 11.9585 35.0912C11.8776 34.8378 11.8171 34.5784 11.7775 34.3156C11.7268 34.0067 11.7195 33.6907 11.6978 33.3819V33.1808C11.6757 33.0718 11.6612 32.9615 11.6543 32.8505C11.6462 32.5718 11.6631 32.293 11.705 32.0174C11.7557 31.7589 11.705 31.4931 11.7775 31.2202C11.8593 30.5924 12.0274 29.9786 12.2772 29.3961C12.3575 29.1803 12.4889 28.9868 12.6603 28.8318C12.8317 28.6768 13.0382 28.5649 13.2623 28.5056C13.4982 28.4388 13.7414 28.4003 13.9866 28.3906H15.9422C16.0338 28.3835 16.1258 28.3835 16.2174 28.3906C16.5144 28.4265 16.8186 28.4625 17.1083 28.5199C17.4205 28.5547 17.7286 28.6197 18.0281 28.7138C18.135 28.7505 18.2352 28.8038 18.3251 28.8718C18.5422 29.0512 18.7281 29.2647 18.8756 29.5038C18.9611 29.6713 19.0554 29.8344 19.158 29.9922C19.3048 30.2302 19.4772 30.4518 19.6723 30.6529C20.0816 31.0083 20.5837 31.2423 21.1209 31.328C21.536 31.4261 21.9616 31.4743 22.3884 31.4716C22.4558 31.4649 22.5238 31.4649 22.5912 31.4716C22.7013 31.491 22.8126 31.503 22.9244 31.5075H26.9442C27.0601 31.5075 27.1688 31.5075 27.2774 31.5075C27.3785 31.4969 27.4805 31.4969 27.5816 31.5075C27.9193 31.5148 28.2569 31.4859 28.5884 31.4213C29.0579 31.3648 29.5125 31.221 29.9283 30.9976C30.2145 30.8434 30.462 30.6274 30.6526 30.3656C30.8548 30.0558 30.9926 29.7091 31.0582 29.3458C31.0944 29.195 31.1089 29.037 31.1379 28.8862C31.1468 28.8357 31.1699 28.7887 31.2044 28.7506C31.239 28.7125 31.2837 28.6848 31.3334 28.6707C31.3856 28.653 31.4388 28.6386 31.4928 28.6276C31.746 28.58 32.0029 28.5536 32.2606 28.5486C32.3155 28.5597 32.3722 28.5597 32.4271 28.5486C32.5789 28.4997 32.7392 28.4826 32.8979 28.4984C33.11 28.5164 33.3232 28.5164 33.5353 28.4984C33.7462 28.4664 33.9594 28.452 34.1727 28.4553H35.2229C35.3903 28.4516 35.5572 28.4372 35.7227 28.4122C35.9637 28.3915 36.206 28.3915 36.447 28.4122C36.5411 28.4122 36.6281 28.4122 36.715 28.4122C37.0302 28.4051 37.3453 28.4267 37.6565 28.4768C38.0259 28.4912 38.3374 28.5343 38.6343 28.6348Z" fill="#FFC907"/>
<path d="M38.6344 28.635C38.3374 28.5416 38.0259 28.4985 37.7217 28.4339C37.4105 28.3838 37.0954 28.3622 36.7802 28.3693C36.6933 28.3693 36.6063 28.3693 36.5122 28.3693C36.2712 28.3486 36.0289 28.3486 35.7879 28.3693C35.6224 28.3943 35.4555 28.4087 35.2881 28.4124H34.2379C34.0246 28.4091 33.8114 28.4235 33.6005 28.4554C33.3884 28.4735 33.1752 28.4735 32.9631 28.4554C32.8044 28.4397 32.6441 28.4568 32.4923 28.5057C32.4374 28.5167 32.3807 28.5167 32.3258 28.5057C32.0681 28.5107 31.8112 28.5371 31.558 28.5847C31.504 28.5957 31.4508 28.6101 31.3987 28.6278C31.3489 28.6419 31.3042 28.6696 31.2696 28.7077C31.2351 28.7458 31.212 28.7928 31.2031 28.8433C31.2031 28.9941 31.1596 29.1521 31.1234 29.3029C31.0578 29.6661 30.92 30.0128 30.7178 30.3227C30.5272 30.5845 30.2797 30.8005 29.9935 30.9547C29.5777 31.1781 29.1231 31.3218 28.6536 31.3784C28.3221 31.443 27.9845 31.4719 27.6468 31.4646C27.5457 31.454 27.4437 31.454 27.3426 31.4646C27.234 31.4646 27.1253 31.4646 27.0094 31.4646H22.9896C22.8778 31.4601 22.7665 31.4481 22.6564 31.4287C22.589 31.422 22.521 31.422 22.4536 31.4287C22.0268 31.4314 21.6012 31.3832 21.1861 31.285C20.6489 31.1994 20.1468 30.9654 19.7375 30.61C19.5424 30.4089 19.37 30.1873 19.2232 29.9492C19.1206 29.7914 19.0263 29.6284 18.9408 29.4609C18.7933 29.2218 18.6074 29.0083 18.3903 28.8289C18.3004 28.7609 18.2002 28.7076 18.0933 28.6709C17.7938 28.5767 17.4857 28.5118 17.1735 28.477C16.8838 28.4195 16.5796 28.3836 16.2826 28.3477C16.191 28.3405 16.099 28.3405 16.0074 28.3477H14.0518C13.8066 28.3573 13.5634 28.3959 13.3275 28.4626C13.1034 28.522 12.8969 28.6339 12.7255 28.7889C12.5541 28.9438 12.4227 29.1374 12.3424 29.3532C12.0926 29.9357 11.9245 30.5495 11.8427 31.1773C11.7992 31.4502 11.8427 31.7159 11.7702 31.9745C11.7283 32.2501 11.7114 32.5289 11.7195 32.8076C11.7264 32.9185 11.7409 33.0289 11.763 33.1379V33.339C11.763 33.6478 11.763 33.9638 11.8427 34.2726C11.8823 34.5355 11.9428 34.7949 12.0237 35.0483C12.1099 35.3359 12.2115 35.6188 12.3279 35.8957C12.396 36.0377 12.4786 36.1725 12.5742 36.2979C12.9394 36.8644 13.4559 37.3193 14.0663 37.6121C14.5863 37.8795 15.1293 38.1006 15.6887 38.2729C16.453 38.5342 17.2317 38.7524 18.0209 38.9264C18.4975 39.0494 18.9813 39.143 19.4695 39.2065C19.8606 39.2496 20.2445 39.3501 20.6356 39.3645C20.8938 39.3857 21.1503 39.4241 21.4034 39.4794H21.4975C22.0263 39.4794 22.555 39.5943 23.0837 39.5512H23.2503C23.2923 39.563 23.3315 39.5825 23.3662 39.6087C22.7139 39.6314 22.0608 39.6146 21.4106 39.5584C21.3092 39.5584 21.2078 39.5584 21.1064 39.5584L19.6578 39.4291C19.2305 39.3932 18.8032 39.3357 18.3831 39.2855L17.7167 39.1849H17.4487L16.5216 38.9838C15.4628 38.7728 14.4235 38.4749 13.4144 38.0933C13.1669 38.0021 12.9251 37.8966 12.6901 37.7773C12.1369 37.5263 11.6942 37.0849 11.4443 36.5349C11.2218 36.0335 11.0589 35.5081 10.959 34.9693C10.8446 34.3667 10.7696 33.7573 10.7345 33.1451C10.7345 32.707 10.6766 32.2761 10.691 31.838C10.7113 30.9227 10.8451 30.0134 11.0894 29.1305C11.1792 28.8211 11.3031 28.5225 11.4588 28.24C11.6932 27.7615 12.1023 27.3893 12.6032 27.1986L12.6901 27.1484C13.3049 27.0086 13.9358 26.9506 14.566 26.976L15.4424 27.0191C15.8191 27.0191 16.2029 27.0694 16.5868 27.0837C17.0912 27.1087 17.5941 27.1591 18.0933 27.2345C18.3935 27.2839 18.6908 27.3487 18.9842 27.4285C19.2051 27.4825 19.4101 27.5874 19.5825 27.7346C19.7549 27.8819 19.8899 28.0673 19.9765 28.2759C20.0345 28.398 20.0924 28.5201 20.1431 28.6422L20.4908 29.4393C20.5605 29.6045 20.6729 29.7485 20.8165 29.8569C20.9602 29.9653 21.1301 30.0343 21.3092 30.057C21.6874 30.1217 22.0699 30.1577 22.4536 30.1647C23.2503 30.1647 24.0543 30.1647 24.851 30.1647H25.2928C26.0968 30.1647 26.8935 30.1647 27.6975 30.1647C27.9727 30.1647 28.2552 30.1647 28.5377 30.1001C28.6486 30.084 28.7577 30.0575 28.8636 30.0211C28.972 29.9912 29.0732 29.9403 29.1615 29.8712C29.2498 29.8022 29.3233 29.7164 29.3779 29.6189C29.501 29.3747 29.6097 29.1305 29.7255 28.9007L29.9863 28.3262C30.0824 28.1222 30.2234 27.9421 30.3988 27.7992C30.5743 27.6563 30.7798 27.5542 31.0003 27.5003C31.3912 27.3926 31.7912 27.3205 32.1954 27.2848C32.9559 27.2058 33.7164 27.1484 34.4841 27.1412C34.868 27.1412 35.2519 27.0909 35.6358 27.1053C36.1406 27.1054 36.6436 27.1633 37.1351 27.2776C37.4809 27.3585 37.8001 27.5257 38.0625 27.7632C38.3249 28.0008 38.5217 28.3009 38.6344 28.635Z" fill="#FBAD18"/>
<path d="M39.9091 23.8592C39.9269 24.179 39.905 24.4998 39.8439 24.8143C39.7732 25.0714 39.658 25.3144 39.5035 25.5325C39.3537 25.7275 39.1384 25.8629 38.8967 25.9143C38.6549 25.9657 38.4026 25.9296 38.1853 25.8126C37.844 25.6048 37.5876 25.2844 37.461 24.9077C37.3101 24.5128 37.2127 24.0999 37.1713 23.6796C37.1713 23.4211 37.1206 23.1697 37.1134 22.9184C37.1101 22.8401 37.0955 22.7627 37.0699 22.6885C36.9395 22.1715 36.8164 21.6472 36.686 21.1301C36.5957 20.8324 36.5589 20.5212 36.5774 20.2108C36.5802 20.0207 36.6394 19.8355 36.7476 19.6785C36.8558 19.5214 37.0082 19.3993 37.1858 19.3275C37.3353 19.26 37.4998 19.2318 37.6634 19.2456C37.8271 19.2595 37.9844 19.3148 38.1201 19.4065C38.4772 19.6205 38.7698 19.9255 38.9676 20.2898C39.3555 20.9953 39.6223 21.7598 39.757 22.5521C39.858 22.9806 39.9091 23.4191 39.9091 23.8592Z" fill="white"/>
<path d="M38.9893 26.4158C39.0597 26.4167 39.1291 26.4317 39.1935 26.4598C39.2579 26.488 39.3159 26.5289 39.3639 26.5799C39.412 26.6309 39.4491 26.691 39.4731 26.7566C39.4971 26.8222 39.5075 26.892 39.5035 26.9616C39.5055 27.0286 39.4941 27.0953 39.47 27.1579C39.4459 27.2205 39.4096 27.2778 39.3632 27.3264C39.3168 27.3751 39.2612 27.4143 39.1995 27.4416C39.1378 27.469 39.0713 27.484 39.0038 27.4859C38.9278 27.4943 38.8508 27.4862 38.7782 27.4623C38.7057 27.4383 38.6392 27.3991 38.5834 27.3472C38.5277 27.2953 38.4839 27.232 38.4552 27.1617C38.4265 27.0915 38.4135 27.0158 38.4171 26.9401C38.4189 26.8681 38.4353 26.7972 38.4652 26.7315C38.4952 26.6659 38.5381 26.607 38.5915 26.5581C38.6448 26.5092 38.7075 26.4714 38.7758 26.447C38.8442 26.4225 38.9167 26.412 38.9893 26.4158Z" fill="white"/>
<path d="M24.8728 30.1719C24.0761 30.1719 23.2721 30.1719 22.4754 30.1719C22.0918 30.1649 21.7092 30.1289 21.331 30.0642C21.1519 30.0415 20.982 29.9725 20.8384 29.8641C20.6947 29.7557 20.5823 29.6117 20.5126 29.4466L20.1649 28.6494C20.1142 28.5273 20.0563 28.4052 19.9983 28.2831C19.9117 28.0745 19.7767 27.8891 19.6043 27.7419C19.4319 27.5946 19.2269 27.4897 19.006 27.4357C18.7126 27.3559 18.4153 27.2912 18.1152 27.2418C17.6159 27.1663 17.1131 27.116 16.6086 27.091C16.2247 27.091 15.8409 27.0479 15.4642 27.0263L14.5878 26.9832C13.9576 26.9579 13.3267 27.0158 12.7119 27.1556C12.7119 26.8899 12.7554 26.6241 12.7988 26.3584C12.8423 26.0927 12.893 25.8198 12.922 25.5397C12.9562 25.274 13.0045 25.0103 13.0668 24.7497C13.2044 24.089 13.3348 23.4211 13.5159 22.7676C13.7404 21.9488 14.0156 21.1517 14.3199 20.3545C14.8185 19.111 15.4627 17.9299 16.2392 16.8355C16.4927 16.4908 16.7752 16.1748 17.0215 15.83C17.0964 15.7329 17.1814 15.6439 17.275 15.5643L17.9993 14.8461C18.2223 14.6178 18.4646 14.4088 18.7236 14.2213C18.9553 14.0418 19.1799 13.8551 19.4479 13.6899C19.732 13.4919 20.027 13.3097 20.3315 13.1441C20.8458 12.864 21.36 12.5911 21.896 12.3469C22.8024 11.9599 23.7311 11.6266 24.6773 11.3486C24.6773 11.4276 24.6773 11.5066 24.6773 11.5785C24.6773 12.9717 24.7135 14.3578 24.728 15.7438V19.701C24.728 22.5737 24.7521 25.4464 24.8004 28.319C24.8511 28.9008 24.8656 29.5328 24.8728 30.1719Z" fill="#D9F1FD"/>
<path d="M35.2157 13.9336C34.9187 13.9336 34.7739 13.7541 34.8463 13.5314C34.8899 13.3919 34.9614 13.2625 35.0564 13.1508C35.4289 12.7149 35.8906 12.3624 36.4108 12.1166C36.586 12.0161 36.7889 11.9734 36.9902 11.9945C37.0792 12.0084 37.1635 12.0428 37.2365 12.0951C37.2745 12.1299 37.3016 12.1748 37.3145 12.2245C37.3273 12.2742 37.3254 12.3265 37.3089 12.3752C37.2559 12.5822 37.1395 12.7678 36.9757 12.9066C36.5778 13.2511 36.1402 13.5476 35.672 13.79C35.531 13.8673 35.3759 13.9162 35.2157 13.9336Z" fill="#6E6879"/>
<path d="M12.748 13.9337C12.6611 13.9337 12.5162 13.8619 12.3859 13.8044C12.0225 13.6257 11.6779 13.4116 11.3574 13.1652L11.1256 12.9785C10.9473 12.8411 10.8077 12.6606 10.72 12.4542C10.6848 12.4022 10.666 12.3409 10.666 12.2783C10.666 12.2156 10.6848 12.1544 10.72 12.1023C10.7622 12.0429 10.821 11.9969 10.8892 11.9701C10.9574 11.9433 11.032 11.9368 11.1039 11.9515C11.2559 11.9918 11.4058 12.0397 11.5529 12.0952C12.0765 12.3357 12.5411 12.6861 12.9146 13.1221C13 13.2258 13.0684 13.3421 13.1174 13.4669C13.2478 13.7182 13.0812 13.9409 12.748 13.9337Z" fill="#6E6879"/>
<path d="M4.33177 9.91211C4.56978 9.92076 4.79642 10.0152 4.96915 10.1778C5.01485 10.2122 5.04556 10.2626 5.05499 10.3187C5.06442 10.3748 5.05184 10.4323 5.01985 10.4795C4.95618 10.6133 4.84906 10.722 4.71564 10.7883L3.74509 11.2479C3.46516 11.3915 3.16834 11.5 2.86145 11.5711C2.7679 11.5918 2.67093 11.5923 2.57718 11.5724C2.48344 11.5526 2.39511 11.5129 2.31823 11.4562C2.22472 11.3815 2.16467 11.2732 2.15111 11.1549C2.13755 11.0366 2.17157 10.9178 2.24579 10.8242C2.36371 10.6606 2.5081 10.5174 2.67313 10.4005C3.12481 10.1236 3.63601 9.95625 4.16518 9.91211H4.33177Z" fill="#6E6879"/>
<path d="M5.68626 10.4506H5.58486C5.55664 10.4473 5.52944 10.4381 5.50502 10.4237C5.4806 10.4093 5.45951 10.3899 5.44312 10.3669C5.42673 10.3439 5.41541 10.3177 5.40988 10.2901C5.40435 10.2624 5.40475 10.2339 5.41104 10.2065C5.42675 10.1476 5.46006 10.0948 5.5066 10.0551C5.55314 10.0153 5.61072 9.99049 5.67177 9.98382C5.73861 9.97233 5.80741 9.98388 5.86671 10.0165C5.926 10.0492 5.97224 10.101 5.99771 10.1634C6.01864 10.214 6.01864 10.2707 5.99771 10.3214C5.96518 10.3717 5.91795 10.4111 5.86232 10.4341C5.80668 10.4572 5.74527 10.463 5.68626 10.4506Z" fill="#6D6678"/>
<path d="M43.8204 9.96241C44.3959 9.96146 44.9575 10.1371 45.4283 10.4651C45.6099 10.5834 45.7473 10.7575 45.8194 10.9607C45.8428 11.0233 45.8518 11.0903 45.8459 11.1568C45.8401 11.2233 45.8195 11.2877 45.7855 11.3453C45.7516 11.403 45.7052 11.4525 45.6497 11.4903C45.5942 11.5281 45.531 11.5532 45.4645 11.5639C45.3003 11.603 45.129 11.603 44.9648 11.5639C44.8127 11.4993 44.6461 11.4562 44.494 11.3844L43.422 10.896C43.3212 10.8472 43.2264 10.787 43.1396 10.7165C43.0798 10.6666 43.0306 10.6056 42.9947 10.5369C42.961 10.4845 42.9469 10.422 42.9548 10.3604C42.9627 10.2987 42.9922 10.2417 43.0381 10.1994C43.0923 10.1352 43.1599 10.0834 43.2361 10.0474C43.3124 10.0115 43.3956 9.99229 43.48 9.99114L43.8204 9.96241Z" fill="#6E6879"/>
<path d="M42.2993 10.5012C42.2383 10.499 42.1788 10.4822 42.1258 10.4522C42.0728 10.4222 42.0279 10.3799 41.9951 10.3288C41.9751 10.2838 41.9681 10.2342 41.9749 10.1855C41.9817 10.1367 42.002 10.0908 42.0335 10.0529C42.0651 10.0149 42.1066 9.98635 42.1535 9.9704C42.2005 9.95446 42.2509 9.95174 42.2993 9.96256C42.3543 9.96425 42.4084 9.97643 42.4587 9.99846C42.5099 10.0207 42.5528 10.0583 42.5813 10.106C42.6099 10.1536 42.6227 10.209 42.618 10.2642C42.6 10.3337 42.5586 10.3951 42.5006 10.4382C42.4427 10.4812 42.3717 10.5035 42.2993 10.5012Z" fill="#6A6477"/>
<path d="M41.5242 15.1475C41.5347 15.1841 41.5348 15.2229 41.5246 15.2596C41.5144 15.2964 41.4942 15.3296 41.4663 15.3557C41.459 15.2767 41.4518 15.1977 41.5242 15.1475Z" fill="#443D54"/>
<path d="M8.31533 28.2612C8.33781 28.4981 8.27354 28.7352 8.13425 28.929C8.05376 29.0405 7.94279 29.1267 7.81445 29.1776C7.6861 29.2285 7.54575 29.242 7.40996 29.2163C7.25991 29.188 7.11924 29.1233 7.00046 29.0281C6.88169 28.9329 6.78848 28.81 6.72912 28.6705C6.60139 28.4222 6.54383 28.1443 6.56253 27.8661C6.58387 27.7011 6.64865 27.5445 6.75036 27.4121C6.85207 27.2798 6.98714 27.1763 7.14197 27.1121C7.32568 27.0514 7.52522 27.0578 7.70455 27.1302C7.88387 27.2027 8.03115 27.3363 8.11977 27.5071C8.26523 27.7309 8.33383 27.9955 8.31533 28.2612Z" fill="#FFF200"/>
<path d="M7.97493 30.0279C7.97493 30.3439 7.83731 30.5019 7.56207 30.5163C7.49523 30.5281 7.42658 30.5249 7.36112 30.5071C7.29566 30.4892 7.23504 30.4571 7.18369 30.413C7.13234 30.369 7.09154 30.3142 7.06428 30.2525C7.03701 30.1909 7.02398 30.124 7.0261 30.0567C7.02758 29.9344 7.07528 29.8171 7.15978 29.728C7.24427 29.6389 7.35939 29.5845 7.4824 29.5755C7.54625 29.5655 7.61154 29.57 7.67338 29.5887C7.73521 29.6073 7.79197 29.6396 7.83939 29.6832C7.8868 29.7268 7.92363 29.7804 7.94711 29.8401C7.97059 29.8998 7.9801 29.9641 7.97493 30.0279Z" fill="#FFF200"/>
<path d="M43.6249 27.8519C43.5932 28.2482 43.4153 28.6189 43.1252 28.8932C43.0383 28.9654 42.9379 29.0196 42.8297 29.0529C42.7215 29.0862 42.6078 29.0979 42.495 29.0872C42.3601 29.072 42.2321 29.0195 42.1258 28.9357C42.0195 28.8519 41.9392 28.7401 41.8938 28.6132C41.774 28.2738 41.787 27.9022 41.9301 27.5718C41.9301 27.5287 41.9735 27.4928 41.988 27.4497C42.0361 27.3366 42.1082 27.235 42.1995 27.152C42.2907 27.0689 42.3989 27.0064 42.5167 26.9686C42.6246 26.9225 42.7427 26.9049 42.8594 26.9175C42.9762 26.9301 43.0877 26.9724 43.1831 27.0404C43.3189 27.1286 43.4304 27.249 43.5076 27.3907C43.5847 27.5324 43.625 27.6909 43.6249 27.8519Z" fill="#FFF200"/>
<path d="M42.5963 29.4394C42.8354 29.4394 43.1033 29.6836 43.0671 29.899C43.0663 29.9657 43.0518 30.0315 43.0243 30.0924C42.9969 30.1532 42.9572 30.2079 42.9077 30.253C42.8581 30.2981 42.7998 30.3326 42.7363 30.3545C42.6728 30.3764 42.6054 30.3851 42.5384 30.3802C42.4157 30.3702 42.3007 30.3168 42.2143 30.2298C42.1279 30.1429 42.0758 30.028 42.0676 29.9062C42.0646 29.839 42.0767 29.7721 42.103 29.7101C42.1294 29.6482 42.1694 29.5928 42.22 29.5481C42.2706 29.5034 42.3307 29.4705 42.3958 29.4517C42.4609 29.4328 42.5294 29.4287 42.5963 29.4394Z" fill="#FFF200"/>
<path d="M31.0654 33.8918C31.0654 33.5758 31.0654 33.267 31.0654 32.951C31.0771 32.2482 31.2043 31.552 31.4421 30.8898C31.6038 30.4499 31.8497 30.0451 32.1664 29.6977C32.4569 29.3559 32.8422 29.1062 33.2745 28.9795C33.7457 28.8526 34.2472 28.8985 34.6869 29.1087C35.1851 29.3499 35.6045 29.7259 35.8965 30.1932C36.2207 30.6925 36.4468 31.2481 36.5628 31.8306C36.6602 32.2208 36.7112 32.6209 36.7149 33.0228C36.7149 33.3244 36.7149 33.626 36.7149 33.9277C36.7149 34.2293 36.6353 34.5956 36.5918 34.9259C36.5807 34.9795 36.5662 35.0322 36.5484 35.0839C36.5361 35.1243 36.5157 35.1617 36.4884 35.1939C36.461 35.2262 36.4273 35.2525 36.3893 35.2713C36.3513 35.2902 36.3099 35.3011 36.2675 35.3035C36.2251 35.3058 36.1826 35.2995 36.1427 35.285C35.9472 35.2348 35.7589 35.1629 35.5561 35.127C35.0608 35.0253 34.5528 34.9986 34.0495 35.048C33.5509 35.0929 33.0622 35.214 32.6009 35.4071C32.3692 35.5148 32.1446 35.6513 31.9201 35.7734C31.8835 35.8029 31.8405 35.8238 31.7945 35.8344C31.7485 35.8451 31.7007 35.8453 31.6546 35.8349C31.6086 35.8245 31.5655 35.8039 31.5287 35.7745C31.4919 35.7452 31.4623 35.708 31.4421 35.6657C31.3844 35.57 31.3428 35.4657 31.3189 35.3568C31.261 35.1198 31.2175 34.8757 31.1668 34.6387C31.1441 34.5668 31.115 34.4972 31.0799 34.4304C31.1395 34.2548 31.1344 34.064 31.0654 33.8918ZM34.2306 34.4735C34.5783 34.4735 34.9549 34.5238 35.2736 34.5669C35.4112 34.5669 35.5488 34.6459 35.6937 34.6818C35.8385 34.7177 36.0051 34.6818 36.0631 34.4663C36.0893 34.3818 36.1086 34.2953 36.121 34.2078C36.1956 33.7449 36.2199 33.2754 36.1935 32.8073C36.1655 32.2721 36.0556 31.7442 35.8675 31.2417C35.6967 30.7921 35.4183 30.3904 35.0563 30.0711C34.8255 29.8389 34.5262 29.6855 34.2016 29.633C34.0074 29.5727 33.8025 29.5537 33.6003 29.5772C33.3981 29.6008 33.2032 29.6662 33.0283 29.7695C32.7826 29.9063 32.5661 30.0893 32.3909 30.3081C32.0263 30.7824 31.7895 31.341 31.7028 31.9312C31.6378 32.395 31.616 32.8638 31.6376 33.3316C31.6445 33.7451 31.6955 34.1568 31.7897 34.5597C31.8212 34.7028 31.8673 34.8424 31.9273 34.9762C31.942 35.006 31.9625 35.0326 31.9876 35.0545C32.0126 35.0764 32.0418 35.0932 32.0734 35.1039C32.1051 35.1145 32.1386 35.1189 32.1719 35.1167C32.2052 35.1145 32.2378 35.1058 32.2678 35.0911C32.3185 35.0911 32.3619 35.0265 32.4126 35.0049C32.7774 34.7768 33.1832 34.6207 33.6077 34.5453L34.2306 34.4735Z" fill="#8AAAC2"/>
<path d="M19.3102 34.5811C19.2306 34.6457 19.2378 34.7391 19.2161 34.8253C19.1581 35.0766 19.0857 35.3208 19.0278 35.5434C19.0024 35.6415 18.9435 35.7277 18.8612 35.7876C18.8162 35.8208 18.7616 35.8388 18.7055 35.8388C18.6494 35.8388 18.5947 35.8208 18.5497 35.7876C18.499 35.7632 18.4505 35.7343 18.4049 35.7014C17.8009 35.3258 17.1159 35.097 16.4058 35.0335C15.713 34.955 15.0113 35.026 14.3488 35.2418L14.2184 35.2777C14.1512 35.2956 14.0797 35.2869 14.0188 35.2534C13.958 35.2199 13.9127 35.1642 13.8925 35.0982C13.8304 34.931 13.7867 34.7576 13.7621 34.5811C13.6698 33.8658 13.6698 33.1418 13.7621 32.4266C13.8364 31.7135 14.0479 31.0211 14.385 30.387C14.6528 29.9279 15.0375 29.5465 15.5005 29.281C15.8372 29.0515 16.2362 28.9287 16.6448 28.9287C17.0534 28.9287 17.4525 29.0515 17.7892 29.281C18.2674 29.6044 18.644 30.0549 18.8757 30.5809C19.106 31.0912 19.2551 31.6339 19.3175 32.1896C19.3717 32.8009 19.3862 33.415 19.3609 34.0281C19.3159 34.1123 19.2882 34.2046 19.2795 34.2995C19.2708 34.3945 19.2813 34.4902 19.3102 34.5811ZM16.2247 29.6329C15.7741 29.7269 15.3743 29.9827 15.1021 30.3511C14.7575 30.7443 14.5096 31.2113 14.3778 31.7156C14.1694 32.5275 14.13 33.373 14.2619 34.2005C14.2749 34.3127 14.2991 34.4234 14.3343 34.5308C14.3404 34.5667 14.3545 34.6008 14.3755 34.6305C14.3966 34.6603 14.4241 34.6851 14.456 34.703C14.4879 34.7208 14.5235 34.7314 14.5601 34.734C14.5967 34.7365 14.6334 34.7309 14.6675 34.7175H14.7689C15.0891 34.6121 15.4238 34.5564 15.7612 34.5524H16.1306C16.1764 34.5564 16.2224 34.5564 16.2682 34.5524C16.8761 34.5782 17.4661 34.7641 17.9775 35.091L18.0645 35.1413C18.0947 35.1623 18.1294 35.1763 18.1659 35.1823C18.2024 35.1882 18.2398 35.1859 18.2753 35.1756C18.3108 35.1652 18.3435 35.1471 18.3709 35.1225C18.3984 35.0979 18.4199 35.0675 18.4338 35.0335C18.4948 34.9001 18.541 34.7604 18.5715 34.617C18.7342 33.8525 18.7782 33.0678 18.7018 32.2901C18.6741 31.967 18.606 31.6486 18.499 31.3421C18.3399 30.8375 18.0413 30.3872 17.6371 30.0422C17.454 29.8639 17.2292 29.7331 16.9828 29.6617C16.7364 29.5903 16.476 29.5804 16.2247 29.6329Z" fill="#8AAAC2"/>
<path d="M19.3102 34.581C19.2417 34.4104 19.2417 34.2202 19.3102 34.0496C20.1106 34.3752 20.9306 34.651 21.7656 34.8755C23.1815 35.2522 24.6463 35.4168 26.1113 35.3638C27.4212 35.3262 28.7118 35.041 29.9139 34.5236C30.3107 34.3369 30.6953 34.1259 31.0655 33.8916C31.1512 34.0686 31.1668 34.2711 31.109 34.4589C30.0219 35.1156 28.8123 35.548 27.5527 35.7301C26.4403 35.8958 25.3115 35.9247 24.1919 35.8163C22.5118 35.6475 20.8665 35.2311 19.3102 34.581Z" fill="#4B445A"/>
<path d="M34.2305 34.4737L33.6366 34.5599C33.2121 34.6353 32.8063 34.7914 32.4416 35.0195C32.3909 35.0195 32.3474 35.0842 32.2967 35.1057C32.2667 35.1204 32.2342 35.1291 32.2008 35.1313C32.1675 35.1335 32.134 35.1291 32.1024 35.1185C32.0707 35.1078 32.0415 35.091 32.0165 35.0691C31.9914 35.0472 31.9709 35.0206 31.9563 34.9908C31.8962 34.8569 31.8501 34.7174 31.8186 34.5742C31.7244 34.1713 31.6734 33.7597 31.6666 33.3462C31.6449 32.8784 31.6667 32.4096 31.7317 31.9457C31.8184 31.3555 32.0552 30.797 32.4198 30.3227C32.595 30.1038 32.8115 29.9209 33.0572 29.784C33.2321 29.6808 33.427 29.6153 33.6292 29.5918C33.8314 29.5683 34.0363 29.5873 34.2305 29.6476C34.2497 29.7681 34.2996 29.8818 34.3754 29.9779C34.734 30.5315 34.9434 31.167 34.9838 31.8236C34.9776 32.1773 34.9462 32.5301 34.8897 32.8794C34.7799 33.3681 34.5864 33.8345 34.3175 34.2582C34.2786 34.3257 34.2493 34.3982 34.2305 34.4737ZM33.2238 31.1845C33.2238 31.2706 33.2238 31.3497 33.2238 31.4287C33.2367 31.6778 33.3425 31.9133 33.5207 32.0894C33.5862 32.1558 33.668 32.2041 33.7581 32.2294C33.8482 32.2548 33.9434 32.2562 34.0343 32.2337C34.1251 32.2112 34.2084 32.1655 34.2759 32.1011C34.3434 32.0367 34.3927 31.9559 34.4189 31.8667C34.5118 31.6595 34.542 31.4299 34.5058 31.206C34.495 31.0681 34.4569 30.9336 34.3935 30.8103C34.3301 30.6871 34.2427 30.5775 34.1364 30.4878C34.0799 30.4376 34.0127 30.4008 33.9397 30.3802C33.8668 30.3596 33.7901 30.3557 33.7154 30.3689C33.6407 30.382 33.57 30.4118 33.5087 30.4561C33.4474 30.5004 33.397 30.5579 33.3614 30.6243C33.2542 30.7907 33.2057 30.9878 33.2238 31.1845ZM34.064 33.3031C34.1118 33.306 34.1597 33.2993 34.2048 33.2834C34.2499 33.2674 34.2913 33.2426 34.3265 33.2104C34.3617 33.1782 34.3899 33.1393 34.4095 33.096C34.4292 33.0526 34.4397 33.0058 34.4406 32.9583C34.4351 32.8688 34.3952 32.7847 34.3293 32.7233C34.2633 32.6619 34.1762 32.6278 34.0857 32.628C33.9959 32.6323 33.9104 32.6677 33.8442 32.7281C33.778 32.7884 33.7353 32.8699 33.7236 32.9583C33.727 33.0475 33.7637 33.1321 33.8267 33.1958C33.8896 33.2596 33.9742 33.2978 34.064 33.3031Z" fill="#443E55"/>
<path d="M34.2305 34.4737C34.2471 34.4088 34.2714 34.3461 34.303 34.2869C34.5719 33.8632 34.7654 33.3968 34.8752 32.908C34.9317 32.5588 34.9632 32.206 34.9693 31.8523C34.9289 31.1957 34.7195 30.5602 34.3609 30.0066C34.2851 29.9105 34.2353 29.7968 34.2161 29.6763C34.5303 29.7196 34.8236 29.8574 35.0562 30.0713C35.4058 30.3897 35.674 30.786 35.8385 31.2275C36.0265 31.73 36.1365 32.2579 36.1644 32.7931C36.1909 33.2612 36.1666 33.7307 36.092 34.1936C36.0796 34.2811 36.0602 34.3676 36.0341 34.4521C35.9761 34.6604 35.8747 34.725 35.6647 34.6676C35.4546 34.6101 35.3822 34.5742 35.2446 34.5526C34.9259 34.5239 34.5782 34.5024 34.2305 34.4737Z" fill="#393444"/>
<path d="M16.2246 29.633C16.477 29.5677 16.742 29.5664 16.9951 29.6291C17.2482 29.6918 17.4814 29.8167 17.6732 29.992C18.0773 30.337 18.3759 30.7873 18.5351 31.2919C18.642 31.5984 18.7101 31.9168 18.7379 32.2399C18.8142 33.0176 18.7702 33.8023 18.6075 34.5668C18.577 34.7102 18.5309 34.8498 18.4699 34.9833C18.4559 35.0173 18.4344 35.0477 18.407 35.0723C18.3795 35.0969 18.3468 35.115 18.3114 35.1254C18.2759 35.1357 18.2385 35.138 18.202 35.1321C18.1655 35.1261 18.1308 35.1121 18.1005 35.091L18.0136 35.0408C17.5022 34.7139 16.9122 34.528 16.3043 34.5022C16.2585 34.5062 16.2124 34.5062 16.1666 34.5022C16.1657 34.379 16.1223 34.2599 16.0435 34.1646C15.8501 33.8634 15.7058 33.5338 15.6162 33.1879C15.5304 32.8744 15.4913 32.5502 15.5003 32.2255C15.5003 32.0604 15.5003 31.888 15.5003 31.7228C15.5068 31.1641 15.667 30.6178 15.9638 30.1429L16.2246 29.633ZM17.9919 31.6869C17.9904 31.4689 17.9512 31.2526 17.876 31.0477C17.8368 30.9085 17.7648 30.7805 17.6659 30.6743C17.6139 30.6088 17.5467 30.5567 17.4699 30.5225C17.3932 30.4884 17.3093 30.4731 17.2253 30.4781C17.1414 30.483 17.0599 30.508 16.9878 30.5509C16.9157 30.5938 16.8551 30.6534 16.8113 30.7246C16.6626 30.9518 16.6057 31.2261 16.6519 31.493C16.6828 31.6339 16.7215 31.7729 16.7678 31.9096C16.8171 32.0948 16.9297 32.2573 17.0865 32.3692C17.1453 32.4224 17.2162 32.4607 17.2933 32.4808C17.3703 32.5009 17.4511 32.5022 17.5287 32.4845C17.6063 32.4669 17.6784 32.4308 17.7389 32.3795C17.7994 32.3281 17.8464 32.263 17.876 32.1896C17.9612 32.0356 18.0061 31.8627 18.0064 31.6869H17.9919ZM18.057 33.1592C18.0553 33.0581 18.0145 32.9616 17.943 32.8894C17.8716 32.8173 17.7751 32.775 17.6732 32.7714C17.5727 32.7837 17.4803 32.8322 17.4135 32.9077C17.3467 32.9831 17.3103 33.0803 17.311 33.1807C17.307 33.2308 17.3135 33.2813 17.3304 33.3287C17.3472 33.3761 17.3739 33.4195 17.4087 33.4561C17.4435 33.4927 17.4857 33.5216 17.5325 33.5409C17.5793 33.5603 17.6297 33.5697 17.6804 33.5685C17.7352 33.5749 17.7908 33.5685 17.8427 33.5499C17.8947 33.5312 17.9415 33.5008 17.9794 33.461C18.0174 33.4213 18.0455 33.3733 18.0615 33.3209C18.0775 33.2685 18.0809 33.2131 18.0715 33.1592H18.057Z" fill="#443E55"/>
<path d="M16.2248 29.6333L15.9496 30.1288C15.6528 30.6038 15.4925 31.1501 15.486 31.7088C15.486 31.874 15.486 32.0464 15.486 32.2115C15.4801 32.5342 15.5216 32.8559 15.6091 33.1667C15.6988 33.5126 15.843 33.8422 16.0365 34.1434C16.1152 34.2387 16.1587 34.3578 16.1596 34.481H15.7902C15.4528 34.485 15.1181 34.5407 14.7979 34.6461H14.6965C14.6624 34.6595 14.6257 34.6651 14.5891 34.6626C14.5525 34.66 14.517 34.6494 14.485 34.6315C14.4531 34.6136 14.4256 34.5889 14.4046 34.5591C14.3835 34.5293 14.3694 34.4953 14.3633 34.4594C14.3282 34.3519 14.3039 34.2413 14.2909 34.129C14.159 33.3015 14.1984 32.4561 14.4068 31.6442C14.5386 31.1399 14.7865 30.6728 15.1311 30.2797C15.4081 29.9439 15.7952 29.7152 16.2248 29.6333Z" fill="#393444"/>
<path d="M33.224 31.1844C33.2043 30.9853 33.2528 30.7855 33.3616 30.6171C33.3972 30.5507 33.4476 30.4931 33.5089 30.4489C33.5702 30.4046 33.6409 30.3748 33.7156 30.3616C33.7903 30.3485 33.867 30.3524 33.94 30.373C34.0129 30.3936 34.0802 30.4304 34.1366 30.4806C34.243 30.5702 34.3303 30.6798 34.3937 30.8031C34.4571 30.9263 34.4953 31.0608 34.506 31.1988C34.5422 31.4227 34.512 31.6523 34.4191 31.8595C34.3929 31.9487 34.3436 32.0294 34.2762 32.0938C34.2087 32.1582 34.1253 32.204 34.0345 32.2265C33.9436 32.249 33.8484 32.2475 33.7583 32.2222C33.6682 32.1969 33.5864 32.1486 33.521 32.0821C33.3428 31.906 33.2369 31.6706 33.224 31.4214C33.2168 31.3496 33.224 31.2706 33.224 31.1844Z" fill="#6D6779"/>
<path d="M34.0641 33.303C33.9743 33.2977 33.8897 33.2595 33.8267 33.1958C33.7638 33.1321 33.7271 33.0474 33.7236 32.9583C33.7354 32.8699 33.7781 32.7884 33.8443 32.728C33.9105 32.6676 33.9959 32.6322 34.0858 32.6279C34.1763 32.6278 34.2634 32.6619 34.3294 32.7233C34.3953 32.7847 34.4351 32.8687 34.4407 32.9583C34.4398 33.0058 34.4292 33.0526 34.4096 33.0959C34.39 33.1392 34.3617 33.1781 34.3266 33.2103C34.2914 33.2426 34.25 33.2674 34.2049 33.2833C34.1597 33.2992 34.1119 33.3059 34.0641 33.303Z" fill="#6C6577"/>
<path d="M18.0065 31.6868C18.0107 31.8614 17.9708 32.0342 17.8906 32.1896C17.8611 32.2629 17.814 32.328 17.7535 32.3794C17.6931 32.4307 17.6209 32.4668 17.5433 32.4844C17.4657 32.5021 17.3849 32.5008 17.3079 32.4807C17.2309 32.4606 17.1599 32.4223 17.1011 32.3691C16.9443 32.2572 16.8317 32.0947 16.7824 31.9095C16.7362 31.7728 16.6975 31.6338 16.6665 31.4929C16.6203 31.226 16.6772 30.9517 16.8259 30.7245C16.8697 30.6533 16.9303 30.5937 17.0024 30.5508C17.0745 30.5079 17.156 30.4829 17.24 30.478C17.3239 30.473 17.4078 30.4883 17.4845 30.5225C17.5613 30.5566 17.6285 30.6087 17.6805 30.6742C17.7794 30.7804 17.8514 30.9084 17.8906 31.0476C17.9659 31.2525 18.0051 31.4688 18.0065 31.6868Z" fill="#6D6779"/>
<path d="M18.0717 33.1593C18.0806 33.2119 18.0773 33.2659 18.0621 33.3171C18.0469 33.3683 18.0202 33.4155 17.9839 33.4549C17.9476 33.4944 17.9027 33.5251 17.8527 33.5448C17.8026 33.5645 17.7487 33.5727 17.695 33.5686C17.6443 33.5698 17.5939 33.5604 17.5471 33.5411C17.5003 33.5217 17.4581 33.4928 17.4233 33.4562C17.3885 33.4197 17.3618 33.3762 17.345 33.3288C17.3282 33.2814 17.3216 33.231 17.3256 33.1808C17.3249 33.0804 17.3613 32.9833 17.4281 32.9078C17.4949 32.8323 17.5873 32.7838 17.6878 32.7715C17.7897 32.7751 17.8862 32.8174 17.9577 32.8895C18.0291 32.9617 18.0699 33.0582 18.0717 33.1593Z" fill="#6C6577"/>
</g>
<defs>
<clipPath id="clip0_0_1">
<rect width="46" height="33" fill="white" transform="translate(1 9)"/>
</clipPath>
</defs>
</svg>
