<svg width="23" height="16" viewBox="0 0 23 16" fill="none" xmlns="http://www.w3.org/2000/svg">
    <path d="M22.1679 1.6003L13.5455 14.91C13.4646 15.0353 13.3562 15.1401 13.2287 15.216C13.1012 15.2919 12.9581 15.337 12.8106 15.3477C12.663 15.3584 12.515 15.3345 12.3782 15.2778C12.2413 15.2211 12.1192 15.1331 12.0214 15.0208L6.08506 8.20403C5.98177 8.08799 5.90763 7.94845 5.86897 7.79725C5.8303 7.64605 5.82824 7.48765 5.86294 7.33546C5.89764 7.18328 5.96809 7.04181 6.06832 6.92305C6.16855 6.80428 6.29561 6.71172 6.43872 6.65322L13.916 3.63681C13.9518 3.61575 13.9796 3.58315 13.9949 3.54423C14.0103 3.5053 14.0123 3.4623 14.0007 3.42208C13.989 3.38186 13.9644 3.34674 13.9308 3.32234C13.8971 3.29793 13.8563 3.28565 13.8149 3.28745L4.04733 5.16205C3.88431 5.19191 3.71644 5.17856 3.56004 5.12332C3.40363 5.06807 3.26402 4.9728 3.15477 4.84678L0.367636 1.66847C0.246748 1.52844 0.168109 1.35625 0.141067 1.17233C0.114025 0.98842 0.139722 0.800519 0.215087 0.630942C0.290451 0.461365 0.412322 0.317238 0.566235 0.21568C0.720148 0.114121 0.899634 0.0593977 1.08337 0.0580085H21.368C21.5483 0.0502069 21.727 0.0944335 21.8834 0.185531C22.0398 0.276629 22.1673 0.410842 22.2512 0.572515C22.335 0.734187 22.3717 0.916653 22.357 1.09863C22.3422 1.28061 22.2767 1.4546 22.1679 1.6003Z" fill="#2C75E3"/>
    <path d="M6.32078 11.2546L3.31471 13.2655C3.26663 13.2986 3.21016 13.317 3.15203 13.3186C3.09391 13.3201 3.03658 13.3047 2.98688 13.2741C2.93718 13.2436 2.8972 13.1992 2.87172 13.1463C2.84624 13.0934 2.83633 13.0343 2.84317 12.9758L3.32312 8.05924C3.32905 7.99965 3.35209 7.94313 3.38938 7.89663C3.42668 7.85013 3.47661 7.8157 3.53302 7.79758C3.58942 7.77946 3.64983 7.77845 3.7068 7.79466C3.76377 7.81087 3.81481 7.8436 3.85361 7.88882L6.37972 10.7945C6.40741 10.8279 6.42796 10.8667 6.44005 10.9086C6.45215 10.9504 6.45554 10.9944 6.45 11.0376C6.44446 11.0809 6.43011 11.1225 6.40787 11.1598C6.38562 11.1972 6.35598 11.2294 6.32078 11.2546Z" fill="#2C75E3"/>
    </svg>
    