<svg width="15" height="17" viewBox="0 0 15 17" fill="none" xmlns="http://www.w3.org/2000/svg">
    <path d="M3.16901 10.8037C2.68361 10.8037 2.20912 10.6578 1.80559 10.3845C1.40207 10.1112 1.08765 9.72273 0.902149 9.26831C0.716643 8.8139 0.668384 8.31395 0.76348 7.83174C0.858576 7.34953 1.09275 6.90673 1.43637 6.55941C1.77998 6.21208 2.21759 5.97583 2.6938 5.88057C3.17001 5.78531 3.66341 5.83532 4.11155 6.02426C4.5597 6.2132 4.94243 6.53258 5.21132 6.94198C5.48021 7.35138 5.62317 7.83239 5.62209 8.32413C5.62064 8.98225 5.36155 9.61292 4.90166 10.0778C4.44178 10.5426 3.81866 10.8037 3.16901 10.8037ZM3.16901 6.92937C2.89995 6.92937 2.63693 7.0102 2.41322 7.16164C2.1895 7.31307 2.01514 7.5283 1.91217 7.78013C1.80921 8.03195 1.78227 8.30905 1.83476 8.57639C1.88725 8.84372 2.01682 9.08928 2.20707 9.28202C2.39732 9.47476 2.63972 9.60601 2.90361 9.65919C3.1675 9.71236 3.44103 9.68507 3.68961 9.58076C3.93819 9.47646 4.15065 9.29982 4.30013 9.07318C4.44961 8.84655 4.5294 8.58009 4.5294 8.30752C4.52509 7.9449 4.37986 7.59861 4.1252 7.34374C3.87054 7.08887 3.52699 6.94595 3.16901 6.94598V6.92937Z" fill="#2C75E3"/>
    <path d="M11.987 4.97018C11.5018 4.97018 11.0276 4.82444 10.6242 4.55137C10.2208 4.27831 9.90633 3.89018 9.72067 3.43609C9.535 2.982 9.48642 2.48234 9.58107 2.00028C9.67572 1.51822 9.90936 1.07541 10.2524 0.727861C10.5955 0.380315 11.0326 0.143639 11.5084 0.0477512C11.9843 -0.0481366 12.4775 0.00107742 12.9258 0.189168C13.374 0.377259 13.7571 0.695776 14.0267 1.10445C14.2962 1.51312 14.4401 1.99358 14.4401 2.48509C14.4401 3.14418 14.1816 3.77627 13.7216 4.24231C13.2616 4.70836 12.6376 4.97018 11.987 4.97018ZM11.987 1.09587C11.7177 1.09588 11.4545 1.17685 11.2307 1.32853C11.0068 1.48021 10.8325 1.69577 10.7297 1.94791C10.6269 2.20006 10.6002 2.47744 10.6532 2.74493C10.7061 3.01241 10.8362 3.25796 11.027 3.45047C11.2178 3.64299 11.4607 3.77381 11.725 3.82636C11.9892 3.87891 12.2629 3.85083 12.5114 3.74567C12.7599 3.64051 12.972 3.46301 13.1208 3.23565C13.2696 3.00829 13.3485 2.74129 13.3474 2.46848C13.3431 2.10637 13.1977 1.76066 12.9429 1.50667C12.688 1.25268 12.3445 1.11099 11.987 1.11248V1.09587Z" fill="#2C75E3"/>
    <path d="M4.8845 7.73179C4.76715 7.73031 4.65339 7.69058 4.56006 7.61849C4.46674 7.54641 4.3988 7.44579 4.36632 7.33155C4.33383 7.2173 4.33853 7.0955 4.3797 6.98417C4.42088 6.87283 4.49635 6.77789 4.59494 6.71339L9.94362 3.30401C10.0042 3.25914 10.0732 3.22738 10.1464 3.21072C10.2196 3.19406 10.2954 3.19286 10.3691 3.20718C10.4428 3.2215 10.5128 3.25104 10.5747 3.29396C10.6366 3.33688 10.6891 3.39226 10.729 3.45665C10.7689 3.52104 10.7952 3.59306 10.8064 3.66821C10.8176 3.74337 10.8134 3.82005 10.794 3.89348C10.7747 3.96692 10.7406 4.03552 10.6939 4.09503C10.6473 4.15454 10.589 4.20367 10.5227 4.23937L5.17406 7.64876C5.08712 7.70335 4.98679 7.73212 4.8845 7.73179Z" fill="#2C75E3"/>
    <path d="M11.987 16.6318C11.5018 16.6318 11.0276 16.4861 10.6242 16.213C10.2208 15.9399 9.90633 15.5518 9.72067 15.0977C9.535 14.6436 9.48642 14.144 9.58107 13.6619C9.67572 13.1798 9.90936 12.737 10.2524 12.3895C10.5955 12.0419 11.0326 11.8053 11.5084 11.7094C11.9843 11.6135 12.4775 11.6627 12.9258 11.8508C13.374 12.0389 13.7571 12.3574 14.0267 12.7661C14.2962 13.1747 14.4401 13.6552 14.4401 14.1467C14.4401 14.8058 14.1816 15.4379 13.7216 15.9039C13.2616 16.37 12.6376 16.6318 11.987 16.6318ZM11.987 12.7575C11.7177 12.7575 11.4545 12.8385 11.2307 12.9901C11.0068 13.1418 10.8325 13.3574 10.7297 13.6095C10.6269 13.8617 10.6002 14.1391 10.6532 14.4066C10.7061 14.674 10.8362 14.9196 11.027 15.1121C11.2178 15.3046 11.4607 15.4354 11.725 15.488C11.9892 15.5405 12.2629 15.5124 12.5114 15.4073C12.7599 15.3021 12.972 15.1246 13.1208 14.8973C13.2696 14.6699 13.3485 14.4029 13.3474 14.1301C13.3431 13.768 13.1977 13.4223 12.9429 13.1683C12.688 12.9143 12.3445 12.7726 11.987 12.7741V12.7575Z" fill="#2C75E3"/>
    <path d="M10.2496 13.4269C10.1473 13.4273 10.047 13.3985 9.96002 13.3439L4.61135 9.93453C4.48818 9.85673 4.40057 9.73255 4.36779 9.58931C4.335 9.44608 4.35972 9.29551 4.43651 9.17074C4.51331 9.04597 4.63589 8.95721 4.77728 8.924C4.91868 8.89078 5.0673 8.91583 5.19047 8.99363L10.5391 12.403C10.6403 12.4665 10.7182 12.5617 10.761 12.6741C10.8039 12.7865 10.8093 12.91 10.7766 13.0259C10.7438 13.1418 10.6746 13.2436 10.5795 13.316C10.4844 13.3884 10.3685 13.4273 10.2496 13.4269Z" fill="#2C75E3"/>
    </svg>
    