<svg width="15" height="18" viewBox="0 0 15 18" fill="none" xmlns="http://www.w3.org/2000/svg">
    <path d="M3.07975 11.9137C2.58889 11.9137 2.10907 11.7662 1.70101 11.4898C1.29296 11.2134 0.97501 10.8206 0.78742 10.3611C0.59983 9.90159 0.551028 9.39602 0.647192 8.90839C0.743357 8.42076 0.980166 7.97299 1.32764 7.62176C1.67512 7.27054 2.11764 7.03163 2.5992 6.9353C3.08076 6.83897 3.57971 6.88954 4.03288 7.0806C4.48606 7.27167 4.8731 7.59464 5.14501 8.00863C5.41692 8.42263 5.56148 8.90904 5.56039 9.40631C5.55893 10.0718 5.29692 10.7096 4.83187 11.1797C4.36682 11.6497 3.7367 11.9137 3.07975 11.9137ZM3.07975 7.99588C2.80767 7.99588 2.54169 8.07762 2.31546 8.23076C2.08924 8.38389 1.91292 8.60155 1.80879 8.8562C1.70467 9.11085 1.67743 9.39107 1.73051 9.66141C1.78359 9.93174 1.91461 10.1801 2.107 10.375C2.29939 10.5699 2.54451 10.7026 2.81137 10.7564C3.07822 10.8101 3.35483 10.7825 3.6062 10.6771C3.85757 10.5716 4.07242 10.393 4.22358 10.1638C4.37474 9.9346 4.45543 9.66515 4.45543 9.38952C4.45107 9.02282 4.3042 8.67265 4.04668 8.41491C3.78917 8.15717 3.44175 8.01265 3.07975 8.01267V7.99588Z" fill="white"/>
    <path d="M11.9968 6.0148C11.5061 6.0148 11.0265 5.86741 10.6186 5.59128C10.2106 5.31515 9.8927 4.92266 9.70494 4.46347C9.51719 4.00427 9.46806 3.499 9.56378 3.01152C9.65949 2.52404 9.89575 2.07626 10.2427 1.72481C10.5896 1.37336 11.0316 1.13402 11.5128 1.03706C11.994 0.940092 12.4928 0.989859 12.946 1.18006C13.3993 1.37027 13.7867 1.69236 14.0593 2.10563C14.3319 2.51889 14.4774 3.00475 14.4774 3.50178C14.4774 4.16827 14.216 4.80747 13.7508 5.27875C13.2856 5.75003 12.6547 6.0148 11.9968 6.0148ZM11.9968 2.09696C11.7244 2.09696 11.4582 2.17884 11.2319 2.33222C11.0056 2.48561 10.8292 2.70359 10.7253 2.95857C10.6213 3.21355 10.5944 3.49405 10.6479 3.76454C10.7015 4.03503 10.833 4.28333 11.026 4.47801C11.2189 4.67269 11.4646 4.80498 11.7318 4.85812C11.999 4.91126 12.2758 4.88287 12.527 4.77653C12.7783 4.67019 12.9928 4.49069 13.1433 4.26077C13.2938 4.03086 13.3735 3.76086 13.3724 3.48499C13.3681 3.11881 13.221 2.76922 12.9633 2.51237C12.7057 2.25553 12.3582 2.11224 11.9968 2.11375V2.09696Z" fill="white"/>
    <path d="M4.81464 8.8074C4.69597 8.8059 4.58093 8.76572 4.48655 8.69283C4.39218 8.61993 4.32348 8.51819 4.29063 8.40266C4.25778 8.28713 4.26253 8.16396 4.30417 8.05137C4.34581 7.93879 4.42213 7.84278 4.52182 7.77756L9.9306 4.32986C9.99184 4.28449 10.0616 4.25238 10.1357 4.23553C10.2097 4.21868 10.2863 4.21747 10.3609 4.23195C10.4354 4.24643 10.5061 4.2763 10.5687 4.3197C10.6314 4.3631 10.6845 4.41911 10.7248 4.48422C10.7651 4.54933 10.7917 4.62216 10.8031 4.69816C10.8144 4.77416 10.8101 4.8517 10.7905 4.92596C10.771 5.00022 10.7365 5.0696 10.6893 5.12978C10.6421 5.18995 10.5832 5.23964 10.5162 5.27574L5.10745 8.72344C5.01953 8.77864 4.91808 8.80773 4.81464 8.8074Z" fill="white"/>
    <path d="M11.9968 17.8075C11.5061 17.8075 11.0265 17.6601 10.6186 17.384C10.2106 17.1079 9.8927 16.7154 9.70494 16.2562C9.51719 15.797 9.46806 15.2917 9.56378 14.8042C9.65949 14.3168 9.89575 13.869 10.2427 13.5175C10.5896 13.1661 11.0316 12.9267 11.5128 12.8298C11.994 12.7328 12.4928 12.7826 12.946 12.9728C13.3993 13.163 13.7867 13.4851 14.0593 13.8984C14.3319 14.3116 14.4774 14.7975 14.4774 15.2945C14.4774 15.961 14.216 16.6002 13.7508 17.0715C13.2856 17.5428 12.6547 17.8075 11.9968 17.8075ZM11.9968 13.8897C11.7244 13.8897 11.4582 13.9716 11.2319 14.1249C11.0056 14.2783 10.8292 14.4963 10.7253 14.7513C10.6213 15.0063 10.5944 15.2868 10.6479 15.5573C10.7015 15.8278 10.833 16.0761 11.026 16.2707C11.2189 16.4654 11.4646 16.5977 11.7318 16.6509C11.999 16.704 12.2758 16.6756 12.527 16.5693C12.7783 16.4629 12.9928 16.2834 13.1433 16.0535C13.2938 15.8236 13.3735 15.5536 13.3724 15.2777C13.3681 14.9115 13.221 14.5619 12.9633 14.3051C12.7057 14.0483 12.3582 13.905 11.9968 13.9065V13.8897Z" fill="white"/>
    <path d="M10.24 14.5666C10.1366 14.5669 10.0351 14.5378 9.94721 14.4826L4.53844 11.0349C4.41389 10.9562 4.3253 10.8307 4.29214 10.6858C4.25898 10.541 4.28398 10.3887 4.36164 10.2625C4.4393 10.1364 4.56326 10.0466 4.70624 10.013C4.84922 9.97944 4.99952 10.0048 5.12406 10.0834L10.5328 13.5311C10.6351 13.5953 10.7139 13.6916 10.7572 13.8053C10.8005 13.919 10.806 14.0439 10.7729 14.161C10.7398 14.2782 10.6698 14.3812 10.5736 14.4544C10.4775 14.5276 10.3603 14.567 10.24 14.5666Z" fill="white"/>
    </svg>
    