<svg width="24" height="24" viewBox="0 0 24 24" fill="none" xmlns="http://www.w3.org/2000/svg">
<path d="M17.8578 23.3866C17.4467 23.3859 17.0415 23.2882 16.6756 23.1014L12.2805 20.7919C12.1924 20.7453 12.0943 20.721 11.9945 20.721C11.8948 20.721 11.7966 20.7453 11.7085 20.7919L7.31347 23.1014C6.89662 23.3185 6.42726 23.4153 5.95824 23.3809C5.48921 23.3465 5.03914 23.1822 4.65867 22.9066C4.27819 22.6311 3.98244 22.2551 3.80468 21.821C3.62692 21.387 3.57422 20.9121 3.65251 20.4498L4.49149 15.5647C4.50927 15.4673 4.50292 15.367 4.47301 15.2726C4.44311 15.1782 4.39053 15.0925 4.31986 15.0229L0.75425 11.6109C0.419457 11.2825 0.183158 10.8674 0.0718928 10.4125C-0.0393725 9.95752 -0.0211925 9.48064 0.12438 9.03541C0.269952 8.59018 0.537141 8.19423 0.89597 7.89202C1.2548 7.58981 1.69105 7.39331 2.15571 7.32459L7.07512 6.61178C7.17296 6.59813 7.26591 6.56062 7.34573 6.5026C7.42555 6.44457 7.48977 6.36782 7.53272 6.27913L9.73504 1.84071C9.94196 1.41901 10.2634 1.06363 10.6628 0.814974C11.0622 0.566319 11.5236 0.43437 11.9945 0.434104C12.4659 0.43213 12.9282 0.563165 13.3281 0.812073C13.7279 1.06098 14.0489 1.4176 14.254 1.84071L16.4563 6.27913C16.5008 6.36853 16.5667 6.44563 16.6482 6.50364C16.7297 6.56165 16.8242 6.5988 16.9235 6.61178L21.8333 7.32459C22.3 7.38997 22.7389 7.58463 23.1 7.88644C23.4612 8.18824 23.7301 8.58506 23.8761 9.03171C24.0221 9.47837 24.0394 9.95693 23.9261 10.4129C23.8127 10.8689 23.5732 11.284 23.2348 11.6109L19.6787 15.0704C19.6064 15.1391 19.552 15.2244 19.5204 15.3188C19.4888 15.4133 19.481 15.514 19.4976 15.6122L20.3366 20.4973C20.3974 20.8573 20.3789 21.2262 20.2826 21.5784C20.1862 21.9306 20.0141 22.2577 19.7783 22.5371C19.5426 22.8164 19.2487 23.0413 18.9171 23.1962C18.5854 23.3511 18.224 23.4323 17.8578 23.4341V23.3866ZM11.9945 18.8246C12.4027 18.8241 12.805 18.922 13.1672 19.1097L17.5622 21.4192C17.6598 21.4789 17.7719 21.5105 17.8864 21.5105C18.0008 21.5105 18.113 21.4789 18.2105 21.4192C18.3051 21.3536 18.3787 21.2623 18.4227 21.1561C18.4666 21.05 18.479 20.9334 18.4584 20.8204L17.6194 15.9353C17.55 15.5338 17.5797 15.1215 17.7059 14.7341C17.8322 14.3466 18.0512 13.9956 18.344 13.7114L21.9001 10.2519C21.9839 10.1734 22.0431 10.0723 22.0702 9.9609C22.0973 9.84948 22.0912 9.7326 22.0526 9.62459C22.0211 9.51364 21.957 9.41458 21.8687 9.34009C21.7804 9.2656 21.6719 9.21905 21.5569 9.20641L16.647 8.4936C16.2403 8.43711 15.8537 8.2819 15.5212 8.04161C15.1887 7.80132 14.9206 7.4833 14.7403 7.1155L12.5379 2.67708C12.4876 2.57384 12.4089 2.48691 12.3111 2.42636C12.2132 2.36582 12.1002 2.33412 11.985 2.33493C11.8698 2.33412 11.7568 2.36582 11.6589 2.42636C11.5611 2.48691 11.4824 2.57384 11.432 2.67708L9.23927 7.1155C9.05761 7.48231 8.78905 7.79948 8.45683 8.03959C8.1246 8.27971 7.73872 8.43553 7.33252 8.4936L2.41311 9.20641C2.29813 9.21905 2.18956 9.2656 2.10124 9.34009C2.01293 9.41458 1.94891 9.51364 1.91737 9.62459C1.87883 9.7326 1.87273 9.84948 1.89982 9.9609C1.92692 10.0723 1.98603 10.1734 2.06991 10.2519L5.62598 13.7114C5.92016 13.9946 6.14007 14.3455 6.26641 14.7333C6.39274 15.1211 6.42164 15.5338 6.35055 15.9353L5.51157 20.8204C5.49094 20.9334 5.50335 21.05 5.5473 21.1561C5.59125 21.2623 5.66489 21.3536 5.75946 21.4192C5.85699 21.4789 5.96918 21.5105 6.0836 21.5105C6.19803 21.5105 6.31022 21.4789 6.40775 21.4192L10.8028 19.1097C11.1711 18.92 11.58 18.8222 11.9945 18.8246Z" fill="#2C75E3"/>
</svg>
