<svg width="17" height="17" viewBox="0 0 17 17" fill="none" xmlns="http://www.w3.org/2000/svg">
<path d="M8.8545 9.6106C9.30951 9.6106 9.7543 9.4605 10.1326 9.17929C10.5109 8.89809 10.8058 8.4984 10.9799 8.03076C11.1541 7.56313 11.1996 7.04856 11.1109 6.55212C11.0221 6.05568 10.803 5.59967 10.4812 5.24176C10.1595 4.88385 9.74958 4.64011 9.30332 4.54136C8.85705 4.44262 8.39449 4.49329 7.97412 4.68699C7.55375 4.88069 7.19446 5.20872 6.94167 5.62958C6.68888 6.05044 6.55396 6.54523 6.55396 7.0514C6.55396 7.73014 6.79633 8.38109 7.22777 8.86103C7.6592 9.34097 8.24436 9.6106 8.8545 9.6106ZM7.42011 7.0514C7.42011 6.7358 7.50424 6.42729 7.66185 6.16489C7.81946 5.90248 8.04348 5.69796 8.30558 5.57719C8.56768 5.45642 8.85609 5.42481 9.13434 5.48638C9.41259 5.54795 9.66818 5.69992 9.86878 5.92308C10.0694 6.14624 10.206 6.43057 10.2613 6.7401C10.3167 7.04963 10.2883 7.37046 10.1797 7.66203C10.0711 7.9536 9.8873 8.20281 9.65142 8.37814C9.41553 8.55348 9.1382 8.64707 8.8545 8.64707C8.47408 8.64707 8.10924 8.47894 7.84024 8.1797C7.57124 7.88045 7.42011 7.47459 7.42011 7.0514Z" fill="#2C75E3"/>
<path d="M11.3589 9.02789C11.1898 8.96448 11.0084 8.95267 10.8338 8.99368C10.6591 9.0347 10.4975 9.12705 10.3659 9.26111C9.94906 9.67223 9.4113 9.89925 8.85424 9.89925C8.29717 9.89925 7.75942 9.67223 7.34261 9.26111C7.21093 9.12705 7.04935 9.0347 6.8747 8.99368C6.70005 8.95267 6.51872 8.96448 6.34956 9.02789C5.88031 9.21198 5.47391 9.55342 5.18639 10.0052C4.89886 10.4569 4.74435 10.9968 4.74414 11.5503V14.1156C4.74414 14.2878 4.77471 14.4583 4.83411 14.6173C4.89351 14.7763 4.98057 14.9207 5.09027 15.0421C5.19997 15.1636 5.33016 15.2598 5.47337 15.3251C5.61658 15.3904 5.76998 15.4236 5.92476 15.4228H11.7892C12.1009 15.4228 12.3998 15.2851 12.6202 15.04C12.8405 14.7948 12.9643 14.4623 12.9643 14.1156V11.5503C12.9641 10.9968 12.8096 10.4569 12.5221 10.0052C12.2346 9.55342 11.8282 9.21198 11.3589 9.02789ZM12.054 11.5503V14.1156C12.054 14.1954 12.0256 14.2719 11.9749 14.3283C11.9242 14.3847 11.8554 14.4163 11.7837 14.4163H5.92476C5.85306 14.4163 5.7843 14.3847 5.73361 14.3283C5.68291 14.2719 5.65443 14.1954 5.65443 14.1156V11.5503C5.65399 11.2056 5.74985 10.8692 5.92874 10.5878C6.10763 10.3063 6.36071 10.0936 6.65299 9.97916C6.66577 9.9796 6.6783 9.98312 6.68973 9.98948C6.70116 9.99583 6.71121 10.0049 6.71919 10.016C7.30201 10.5927 8.05489 10.9113 8.83492 10.9113C9.61496 10.9113 10.3678 10.5927 10.9507 10.016C10.9626 10.0023 10.9775 9.99229 10.9939 9.98691C11.0104 9.98153 11.0278 9.98097 11.0444 9.98529C11.3379 10.0974 11.5927 10.3082 11.7736 10.5886C11.9545 10.8691 12.0525 11.2051 12.054 11.5503Z" fill="#2C75E3"/>
<path d="M10.1618 0H7.54675C6.9527 0 6.38298 0.262518 5.96293 0.729802C5.54287 1.19709 5.30688 1.83086 5.30688 2.4917V4.08737H6.29441V2.4917C6.29441 2.30875 6.3268 2.12759 6.38973 1.95857C6.45267 1.78954 6.54492 1.63597 6.66121 1.5066C6.7775 1.37724 6.91555 1.27462 7.0675 1.20461C7.21944 1.13459 7.38229 1.09856 7.54675 1.09856H10.1618C10.3262 1.09856 10.4891 1.13459 10.641 1.20461C10.793 1.27462 10.931 1.37724 11.0473 1.5066C11.1636 1.63597 11.2558 1.78954 11.3188 1.95857C11.3817 2.12759 11.4141 2.30875 11.4141 2.4917V4.08737H12.4016V2.4917C12.4016 1.83086 12.1656 1.19709 11.7456 0.729802C11.3255 0.262518 10.7558 0 10.1618 0Z" fill="#2C75E3"/>
<path d="M14.2334 2.98242H3.47541C2.7867 2.98404 2.12663 3.28911 1.63964 3.83085C1.15265 4.3726 0.878411 5.1069 0.876953 5.87304V14.1091C0.876953 14.8758 1.15071 15.611 1.63802 16.1531C2.12533 16.6952 2.78626 16.9998 3.47541 16.9998H14.2334C14.9225 16.9998 15.5835 16.6952 16.0708 16.1531C16.5581 15.611 16.8318 14.8758 16.8318 14.1091V5.87304C16.8304 5.1069 16.5562 4.3726 16.0692 3.83085C15.5822 3.28911 14.9221 2.98404 14.2334 2.98242ZM15.8554 14.1091C15.8554 14.5844 15.6856 15.0402 15.3835 15.3763C15.0814 15.7124 14.6717 15.9012 14.2444 15.9012H3.48645C3.0592 15.9012 2.64945 15.7124 2.34734 15.3763C2.04523 15.0402 1.87551 14.5844 1.87551 14.1091V5.87304C1.87477 5.53885 1.95892 5.21122 2.11826 4.92791C2.31409 4.58816 2.60484 4.3294 2.94579 4.19145C3.12284 4.12125 3.30953 4.08595 3.49748 4.08712H14.2555C14.4164 4.08565 14.5765 4.11258 14.7299 4.1669C15.0746 4.28311 15.3739 4.52529 15.5795 4.85426C15.7676 5.15266 15.8678 5.50861 15.8664 5.87304L15.8554 14.1091Z" fill="#2C75E3"/>
</svg>
