<svg width="22" height="19" viewBox="0 0 22 19" fill="none" xmlns="http://www.w3.org/2000/svg">
<path d="M8.10469 9.35872L7.97554 9.98344L7.85573 10.5675L7.1708 13.8484L7.04772 14.4399L6.93256 15.0035L6.92045 15.07C6.92128 15.065 6.92086 15.0598 6.91921 15.0551C6.91757 15.0503 6.91476 15.0461 6.91108 15.0428C6.77962 14.9083 6.60913 14.8249 6.42705 14.8059C6.28145 14.7809 6.13208 14.7967 5.99369 14.8517L5.83943 14.912L5.98118 14.2391L6.10379 13.6293L6.8125 10.265L6.94026 9.65315L7.09229 8.97627C7.20214 9.1643 7.37232 9.30384 7.57173 9.36937C7.74549 9.42747 7.93263 9.42373 8.10469 9.35872Z" fill="white"/>
<path d="M12.8694 9.16999L13.4853 9.34926C13.3156 9.46723 13.1907 9.64514 13.133 9.8512C13.0621 10.0507 13.0611 10.2702 13.1301 10.4698L12.5405 10.2988L11.9943 10.1356L10.6981 9.75903L9.60251 9.43996L9.05634 9.27669L8.49287 9.11401C8.62631 8.9664 8.70864 8.77528 8.72632 8.57204C8.74612 8.42379 8.73029 8.2728 8.68027 8.1331C8.6544 8.05997 8.62062 7.99028 8.57962 7.92543L9.2324 8.12731L9.8099 8.29686L11.4012 8.76806L12.2929 9.03712L12.8694 9.16999Z" fill="white"/>
<path d="M16.0867 3.60285L15.9449 4.27572L15.8115 4.87121L15.0244 8.34646L14.8896 8.95485L14.7427 9.62972C14.6309 9.45655 14.4687 9.32714 14.2806 9.26124C14.0926 9.19535 13.8892 9.19658 13.7013 9.26476L13.8426 8.64147L13.9727 8.05342L14.7468 4.60799L14.8853 4.01049L14.9068 3.90331L15.0294 3.3614C15.0743 3.41987 15.1257 3.47237 15.1824 3.51775C15.2813 3.59856 15.3948 3.65716 15.5159 3.69003C15.6879 3.73685 15.8696 3.72622 16.0362 3.65962L16.0867 3.60285Z" fill="white"/>
<path d="M7.3351 7.00391C7.09664 7.10008 6.88591 7.26081 6.72395 7.47005C6.562 7.67928 6.4545 7.92969 6.4122 8.19624C6.3699 8.46279 6.39428 8.73615 6.48291 8.989C6.57153 9.24184 6.7213 9.46532 6.91724 9.6371C7.06859 9.76307 7.24149 9.85693 7.42653 9.91357C7.60272 9.96735 7.78703 9.98541 7.96982 9.96681C8.09075 9.95192 8.20968 9.92203 8.32415 9.87776C8.62723 9.75969 8.88349 9.53536 9.05032 9.24207C9.15184 9.07727 9.22122 8.89269 9.25433 8.69925C9.28659 8.49588 9.28235 8.28803 9.24182 8.08666C9.22121 8.02678 9.20061 7.96691 9.17813 7.90159C9.04407 7.52534 8.77588 7.22051 8.43123 7.05264C8.08658 6.88478 7.69299 6.86728 7.3351 7.00391ZM8.67986 8.1148C8.72988 8.2545 8.74574 8.40549 8.72594 8.55374C8.70825 8.75698 8.62593 8.9481 8.49248 9.09571C8.3969 9.20922 8.27675 9.29644 8.14245 9.3498L8.10646 9.36386C7.92575 9.42934 7.72965 9.42754 7.55057 9.35876C7.35117 9.29323 7.18099 9.15369 7.07114 8.96566C7.04151 8.9055 7.01947 8.84146 7.00558 8.77516C6.93063 8.55611 6.93383 8.31526 7.01458 8.09784C7.09534 7.88043 7.24809 7.70144 7.44412 7.59452C7.64015 7.48759 7.86597 7.46008 8.07913 7.51717C8.29228 7.57426 8.47811 7.71201 8.60168 7.90453C8.63506 7.97128 8.66128 8.04181 8.67986 8.1148Z" fill="white"/>
<path d="M7.14783 6.45973C6.79475 6.5992 6.48545 6.84115 6.25536 7.15784C6.02528 7.47454 5.88372 7.85317 5.84691 8.25036C5.8101 8.64755 5.87952 9.04724 6.04723 9.40361C6.21494 9.75999 6.47415 10.0586 6.79515 10.2654C6.95678 10.3664 7.13059 10.4439 7.3119 10.4957C7.4885 10.549 7.67192 10.5732 7.85568 10.5673C8.08145 10.566 8.30538 10.5224 8.51715 10.4385C8.98686 10.249 9.37197 9.87782 9.59467 9.4C9.68107 9.22611 9.74274 9.03971 9.77763 8.84688C9.81507 8.65075 9.82846 8.45042 9.81749 8.25087C9.80062 8.05593 9.76013 7.86422 9.69701 7.68046C9.50837 7.16337 9.13592 6.74603 8.65943 6.51785C8.18294 6.28967 7.64032 6.26881 7.14783 6.45973ZM8.67992 8.11491C8.72994 8.25461 8.7458 8.4056 8.72599 8.55385C8.70831 8.75709 8.62598 8.94821 8.49254 9.09582C8.39696 9.20933 8.27681 9.29655 8.14251 9.34991L8.10651 9.36397C7.92581 9.42945 7.72971 9.42765 7.55063 9.35887C7.35123 9.29334 7.18105 9.1538 7.0712 8.96577C7.04157 8.90561 7.01953 8.84157 7.00563 8.77527C6.93069 8.55622 6.93389 8.31537 7.01464 8.09795C7.0954 7.88054 7.24815 7.70155 7.44418 7.59463C7.64021 7.4877 7.86603 7.46019 8.07919 7.51728C8.29234 7.57437 8.47817 7.71212 8.60174 7.90464C8.63512 7.97139 8.66134 8.04192 8.67992 8.11491Z" fill="white"/>
<path d="M14.882 8.93328C14.7345 8.80843 14.5641 8.71733 14.3816 8.66569C14.204 8.60998 14.0175 8.59257 13.8331 8.61446C13.7157 8.62798 13.6002 8.65652 13.4891 8.69949C13.2459 8.7932 13.0315 8.95602 12.8694 9.17008C12.7452 9.32247 12.6535 9.50154 12.6009 9.69489C12.501 10.015 12.507 10.3612 12.6178 10.6762C12.693 10.9022 12.8169 11.1063 12.9798 11.2722C13.1426 11.4382 13.3398 11.5614 13.5558 11.6322C13.7718 11.7029 14.0006 11.7192 14.224 11.6798C14.4474 11.6403 14.6592 11.5462 14.8427 11.405C15.0263 11.2637 15.1763 11.0791 15.2811 10.866C15.3858 10.6528 15.4424 10.4169 15.4462 10.1769C15.45 9.937 15.401 9.69966 15.303 9.48377C15.2051 9.26789 15.0609 9.07939 14.882 8.93328ZM14.2871 11.0182C14.0616 11.1063 13.8128 11.0963 13.595 10.9906C13.3771 10.8848 13.208 10.6917 13.1245 10.4536C13.0555 10.254 13.0565 10.0344 13.1274 9.83495C13.1851 9.62889 13.31 9.45099 13.4796 9.33302C13.5391 9.28965 13.6033 9.25419 13.6708 9.22745C13.8586 9.15927 14.0621 9.15804 14.2501 9.22393C14.4382 9.28983 14.6004 9.41924 14.7122 9.59241C14.7532 9.65726 14.7869 9.72694 14.8128 9.80008C14.8555 9.91722 14.8759 10.0422 14.8729 10.1679C14.8699 10.2936 14.8436 10.4176 14.7955 10.5328C14.7474 10.6479 14.6784 10.7519 14.5924 10.839C14.5065 10.926 14.4053 10.9943 14.2946 11.0399L14.2871 11.0182Z" fill="white"/>
<path d="M15.0168 8.32505C14.8584 8.22653 14.6889 8.14963 14.5122 8.09615C14.3333 8.04599 14.1485 8.02258 13.9633 8.02658C13.7375 8.02787 13.5136 8.07147 13.3018 8.15536C12.8917 8.31557 12.5415 8.61282 12.3041 9.00212C12.2049 9.16997 12.1259 9.35021 12.0688 9.53865C12.0144 9.72694 11.9874 9.92281 11.9887 10.1195C11.9812 10.3778 12.0202 10.635 12.1037 10.8773C12.2121 11.1973 12.3915 11.4846 12.6269 11.715C12.8623 11.9455 13.1468 12.1123 13.4563 12.2015C13.7658 12.2907 14.0913 12.2995 14.4054 12.2273C14.7195 12.1552 15.0129 12.004 15.2609 11.7867C15.509 11.5694 15.7043 11.2923 15.8305 10.9787C15.9568 10.6652 16.0102 10.3243 15.9862 9.98496C15.9623 9.64559 15.8617 9.31764 15.693 9.02875C15.5243 8.73987 15.2924 8.49852 15.0168 8.32505ZM14.8133 9.81858C14.8747 10.0519 14.8507 10.3016 14.7461 10.5177C14.6416 10.7338 14.4641 10.9005 14.2492 10.9845C14.0343 11.0685 13.7978 11.0635 13.5869 10.9707C13.3759 10.8778 13.2062 10.7038 13.1114 10.4835C13.0424 10.2839 13.0434 10.0644 13.1144 9.86492C13.1721 9.65886 13.2969 9.48095 13.4666 9.36298C13.526 9.31962 13.5902 9.28416 13.6577 9.25742C13.8456 9.18924 14.049 9.18801 14.2371 9.25391C14.4251 9.3198 14.5874 9.4492 14.6991 9.62237C14.7441 9.68292 14.7824 9.74876 14.8133 9.81858Z" fill="white"/>
<path d="M15.2246 1.28468C14.9801 1.38031 14.7641 1.5438 14.5993 1.75802C14.4345 1.97224 14.3269 2.22929 14.2878 2.50221C14.2487 2.77513 14.2796 3.05387 14.3771 3.3092C14.4747 3.56452 14.6353 3.78702 14.8422 3.95337C14.8422 3.95337 14.8423 3.95337 14.8554 3.99147C15.0061 4.10681 15.1772 4.18901 15.3586 4.23327C15.5409 4.27718 15.7295 4.28513 15.9149 4.2567C16.0085 4.22959 16.0996 4.19397 16.1874 4.15023C16.5272 3.99183 16.7978 3.70225 16.9439 3.34051C17.0901 2.97877 17.1008 2.57213 16.974 2.20351C16.8471 1.83489 16.5922 1.53204 16.2612 1.35673C15.9302 1.18142 15.5481 1.14684 15.1928 1.26005L15.2246 1.28468ZM16.0866 3.60302L16.03 3.62512C15.8634 3.69173 15.6817 3.70235 15.5097 3.65554C15.3886 3.62267 15.2752 3.56405 15.1762 3.48325C15.0389 3.373 14.9346 3.22294 14.8759 3.05106C14.816 2.87593 14.8058 2.68587 14.8465 2.50421C14.8871 2.32256 14.9769 2.15723 15.1048 2.02856C15.2327 1.89988 15.393 1.81346 15.5662 1.77991C15.7394 1.74636 15.9179 1.76714 16.0797 1.8397C16.2415 1.91226 16.3795 2.03344 16.4769 2.18835C16.5743 2.34326 16.6267 2.52515 16.6278 2.71166C16.6289 2.89818 16.5786 3.0812 16.483 3.23823C16.3874 3.39526 16.2508 3.51947 16.0899 3.59558L16.0866 3.60302Z" fill="white"/>
<path d="M15.0372 0.740344C14.5394 0.934819 14.1341 1.33063 13.9104 1.84072C13.6867 2.3508 13.6629 2.93338 13.8442 3.46027C13.9738 3.84651 14.2056 4.18463 14.5119 4.43434L14.743 4.59723C14.905 4.6925 15.0787 4.76382 15.2592 4.80922C15.4394 4.85389 15.6244 4.87294 15.8095 4.86589C16.0995 4.85398 16.3838 4.77545 16.6428 4.63571C16.9018 4.49598 17.1293 4.29838 17.3096 4.05659C17.4899 3.8148 17.6186 3.5346 17.6869 3.23536C17.7552 2.93612 17.7615 2.62499 17.7052 2.32349C17.649 2.022 17.5316 1.73734 17.3611 1.4892C17.1907 1.24106 16.9712 1.03538 16.718 0.88637C16.4648 0.737362 16.1839 0.648593 15.8946 0.626199C15.6054 0.603805 15.3147 0.648321 15.0428 0.756672L15.0372 0.740344ZM16.0865 3.60298L16.03 3.62508C15.8634 3.69169 15.6817 3.70231 15.5096 3.65549C15.3885 3.62262 15.2751 3.56401 15.1762 3.48321C15.0388 3.37296 14.9345 3.2229 14.8758 3.05102C14.8159 2.87589 14.8057 2.68582 14.8464 2.50417C14.8871 2.32252 14.9768 2.15719 15.1047 2.02852C15.2326 1.89984 15.393 1.81342 15.5662 1.77987C15.7394 1.74632 15.9178 1.76709 16.0796 1.83966C16.2414 1.91222 16.3794 2.0334 16.4768 2.18831C16.5742 2.34322 16.6267 2.52511 16.6277 2.71162C16.6288 2.89814 16.5785 3.08116 16.4829 3.23819C16.3874 3.39522 16.2507 3.51942 16.0898 3.59553L16.0865 3.60298Z" fill="white"/>
<path d="M7.23472 14.5765C7.03194 14.4014 6.79074 14.2834 6.53324 14.2331C6.34201 14.1991 6.14612 14.2063 5.95726 14.2544L5.78243 14.3227C5.51354 14.429 5.28005 14.6172 5.11143 14.8636C4.94281 15.11 4.84662 15.4036 4.83502 15.7072C4.82342 16.0109 4.89693 16.311 5.04625 16.5696C5.19557 16.8283 5.41401 17.0339 5.67401 17.1606C5.934 17.2872 6.22389 17.3292 6.50705 17.2812C6.79022 17.2332 7.05397 17.0974 7.26502 16.8909C7.47606 16.6844 7.62492 16.4165 7.69282 16.121C7.76072 15.8255 7.74461 15.5157 7.64651 15.2307C7.56399 14.9788 7.42229 14.7537 7.23472 14.5765ZM6.60383 16.6754C6.41852 16.7518 6.21419 16.7574 6.02597 16.6913C5.97928 16.6795 5.93407 16.6619 5.89129 16.6389C5.85966 16.6251 5.83091 16.6049 5.80664 16.5794C5.63501 16.4726 5.50488 16.3047 5.43936 16.1054C5.36641 15.8958 5.36558 15.6653 5.43703 15.4544C5.50847 15.2435 5.64763 15.0658 5.83002 14.9524L5.98426 14.8922C6.12266 14.8372 6.27205 14.8214 6.41764 14.8463C6.59973 14.8654 6.7702 14.9488 6.90165 15.0833C6.90533 15.0865 6.90815 15.0908 6.90979 15.0955C6.91144 15.1003 6.91185 15.1055 6.91102 15.1105C7.01047 15.2071 7.08613 15.328 7.13144 15.4628C7.20125 15.6956 7.1848 15.9482 7.08543 16.1694C6.98605 16.3905 6.81119 16.5637 6.59633 16.6537L6.60383 16.6754Z" fill="white"/>
<path d="M7.54662 14.1273C7.42436 14.0216 7.29134 13.9307 7.15001 13.8562C6.81293 13.695 6.44243 13.6273 6.07318 13.6595C5.90645 13.68 5.74249 13.7213 5.58469 13.7824C5.2141 13.9284 4.89219 14.1874 4.6596 14.5267C4.42701 14.866 4.29418 15.2703 4.27789 15.6886C4.2616 16.1069 4.36258 16.5204 4.56808 16.8769C4.77358 17.2334 5.07437 17.5169 5.43247 17.6916C5.79056 17.8662 6.18991 17.9242 6.58004 17.8583C6.97018 17.7923 7.33359 17.6053 7.62441 17.3209C7.91523 17.0365 8.1204 16.6675 8.21399 16.2604C8.30758 15.8533 8.2854 15.4265 8.15025 15.0338C8.03022 14.679 7.82162 14.3658 7.54662 14.1273ZM6.57562 16.6617C6.39031 16.7381 6.18598 16.7437 5.99777 16.6776C5.95107 16.6658 5.90588 16.6482 5.8631 16.6252C5.83146 16.6114 5.8027 16.5912 5.77843 16.5657C5.6068 16.4589 5.47667 16.291 5.41115 16.0917C5.3382 15.882 5.33739 15.6515 5.40884 15.4407C5.48028 15.2298 5.61942 15.0521 5.80182 14.9387L5.95606 14.8785C6.09445 14.8235 6.24384 14.8077 6.38944 14.8326C6.57152 14.8516 6.74201 14.9351 6.87346 15.0696C6.87714 15.0728 6.87994 15.077 6.88158 15.0818C6.88323 15.0866 6.88366 15.0918 6.88283 15.0968C6.98228 15.1934 7.05792 15.3143 7.10323 15.4491C7.17852 15.6799 7.16803 15.9329 7.07386 16.1566C6.9797 16.3803 6.80891 16.558 6.59619 16.6537L6.57562 16.6617Z" fill="white"/>
</svg>
