<svg width="15" height="20" viewBox="0 0 15 20" fill="none" xmlns="http://www.w3.org/2000/svg">
    <path d="M1.9834 4.44678V15.619C1.9834 16.4011 2.27783 17.1512 2.80191 17.7043C3.32599 18.2573 4.0368 18.5681 4.77796 18.5681H10.4308C11.172 18.5681 11.8828 18.2573 12.4069 17.7043C12.931 17.1512 13.2254 16.4011 13.2254 15.619V4.44678H1.9834ZM12.6456 15.619C12.6456 16.2388 12.4123 16.8333 11.9969 17.2717C11.5816 17.71 11.0182 17.9562 10.4308 17.9562H4.77796C4.19056 17.9562 3.62722 17.71 3.21187 17.2717C2.79652 16.8333 2.56318 16.2388 2.56318 15.619V5.05862H12.6456V15.619Z" fill="white"/>
    <path d="M1.40381 3.83496V15.619C1.40534 16.5629 1.76135 17.4677 2.39383 18.1352C3.02631 18.8026 3.88369 19.1783 4.77815 19.1799H10.431C11.3255 19.1783 12.1829 18.8026 12.8154 18.1352C13.4478 17.4677 13.8038 16.5629 13.8054 15.619V3.83496H1.40381ZM12.6458 15.619C12.6458 16.2389 12.4125 16.8334 11.9971 17.2717C11.5818 17.71 11.0184 17.9562 10.431 17.9562H4.77815C4.19076 17.9562 3.62742 17.71 3.21207 17.2717C2.79672 16.8334 2.56337 16.2389 2.56337 15.619V5.05864H12.6458V15.619Z" fill="white"/>
    <path d="M12.0427 4.44667C12.0374 4.2409 12.0141 4.03609 11.9731 3.83483C11.8102 3.02839 11.3906 2.3051 10.7841 1.78527C10.1776 1.26543 9.42073 0.980386 8.63938 0.977539H6.56955C5.7882 0.980386 5.03132 1.26543 4.4248 1.78527C3.81829 2.3051 3.39868 3.02839 3.2358 3.83483C3.19482 4.03609 3.17154 4.2409 3.16622 4.44667C3.16334 4.48945 3.16334 4.53239 3.16622 4.57516V5.05851H4.32579V4.57516C4.32291 4.53239 4.32291 4.48945 4.32579 4.44667C4.33276 4.23799 4.36991 4.03167 4.43595 3.83483C4.58199 3.35929 4.86724 2.94492 5.25065 2.65135C5.63406 2.35779 6.09585 2.20018 6.56955 2.20122H8.64517C9.11922 2.2017 9.58107 2.35979 9.96512 2.65305C10.3492 2.94631 10.6359 3.35981 10.7846 3.83483C10.846 4.03271 10.8811 4.23861 10.8889 4.44667C10.8918 4.48945 10.8918 4.53239 10.8889 4.57516V5.05851H12.0485V4.57516C12.0495 4.53224 12.0475 4.4893 12.0427 4.44667Z" fill="white"/>
    <path d="M14.6054 4.4468C14.6054 4.60907 14.5443 4.7647 14.4356 4.87944C14.3269 4.99418 14.1794 5.05864 14.0256 5.05864H1.19502C1.04125 5.05864 0.893779 4.99418 0.785048 4.87944C0.676318 4.7647 0.615234 4.60907 0.615234 4.4468C0.615234 4.28453 0.676318 4.12891 0.785048 4.01416C0.893779 3.89942 1.04125 3.83496 1.19502 3.83496H14.0256C14.1794 3.83496 14.3269 3.89942 14.4356 4.01416C14.5443 4.12891 14.6054 4.28453 14.6054 4.4468Z" fill="white"/>
    <path d="M5.63056 14.5667C5.4768 14.5667 5.32933 14.5022 5.2206 14.3875C5.11186 14.2727 5.05078 14.1171 5.05078 13.9548V9.45168C5.05078 9.28941 5.11186 9.1338 5.2206 9.01906C5.32933 8.90431 5.4768 8.83984 5.63056 8.83984C5.78433 8.83984 5.9318 8.90431 6.04053 9.01906C6.14926 9.1338 6.21035 9.28941 6.21035 9.45168V13.9548C6.21035 14.1171 6.14926 14.2727 6.04053 14.3875C5.9318 14.5022 5.78433 14.5667 5.63056 14.5667Z" fill="white"/>
    <path d="M9.57881 14.5667C9.42504 14.5667 9.27757 14.5022 9.16884 14.3875C9.06011 14.2727 8.99902 14.1171 8.99902 13.9548V9.45168C8.99902 9.28941 9.06011 9.1338 9.16884 9.01906C9.27757 8.90431 9.42504 8.83984 9.57881 8.83984C9.73257 8.83984 9.88005 8.90431 9.98878 9.01906C10.0975 9.1338 10.1586 9.28941 10.1586 9.45168V13.9548C10.1586 14.1171 10.0975 14.2727 9.98878 14.3875C9.88005 14.5022 9.73257 14.5667 9.57881 14.5667Z" fill="white"/>
    </svg>
    