<svg width="15" height="18" viewBox="0 0 15 18" fill="none" xmlns="http://www.w3.org/2000/svg">
    <path d="M1.92464 3.43066V14.4787C1.92464 15.2522 2.2158 15.994 2.73406 16.5409C3.25231 17.0878 3.95522 17.395 4.68815 17.395H10.2782C11.0111 17.395 11.7141 17.0878 12.2323 16.5409C12.7506 15.994 13.0417 15.2522 13.0417 14.4787V3.43066H1.92464ZM12.4684 14.4787C12.4684 15.0917 12.2376 15.6796 11.8269 16.113C11.4162 16.5465 10.8591 16.79 10.2782 16.79H4.68815C4.10728 16.79 3.5502 16.5465 3.13946 16.113C2.72873 15.6796 2.49798 15.0917 2.49798 14.4787V4.03571H12.4684V14.4787Z" fill="#2C75E3"/>
    <path d="M1.35129 2.82568V14.4788C1.3528 15.4122 1.70485 16.307 2.33031 16.967C2.95576 17.627 3.80362 17.9985 4.68814 18.0001H10.2782C11.1627 17.9985 12.0106 17.627 12.636 16.967C13.2615 16.307 13.6135 15.4122 13.6151 14.4788V2.82568H1.35129ZM12.4684 14.4788C12.4684 15.0918 12.2376 15.6797 11.8269 16.1131C11.4162 16.5465 10.8591 16.7901 10.2782 16.7901H4.68814C4.10727 16.7901 3.55019 16.5465 3.13945 16.1131C2.72872 15.6797 2.49797 15.0918 2.49797 14.4788V4.03577H12.4684V14.4788Z" fill="#2C75E3"/>
    <path d="M11.8721 3.43059C11.8668 3.2271 11.8438 3.02456 11.8033 2.82555C11.6422 2.02806 11.2273 1.31281 10.6275 0.798752C10.0277 0.284694 9.27924 0.00281539 8.50657 0H6.45973C5.68707 0.00281539 4.9386 0.284694 4.33882 0.798752C3.73904 1.31281 3.3241 2.02806 3.16302 2.82555C3.12251 3.02456 3.09948 3.2271 3.09422 3.43059C3.09137 3.47289 3.09137 3.51535 3.09422 3.55765V4.03563H4.24091V3.55765C4.23806 3.51535 4.23806 3.47289 4.24091 3.43059C4.2478 3.22423 4.28454 3.02019 4.34984 2.82555C4.49426 2.35529 4.77634 1.94552 5.15549 1.65522C5.53464 1.36491 5.9913 1.20906 6.45973 1.21008H8.5123C8.98108 1.21056 9.4378 1.3669 9.81758 1.6569C10.1974 1.94689 10.4809 2.35581 10.6279 2.82555C10.6887 3.02122 10.7234 3.22484 10.7311 3.43059C10.734 3.47289 10.734 3.51535 10.7311 3.55765V4.03563H11.8778V3.55765C11.8788 3.51521 11.8768 3.47274 11.8721 3.43059Z" fill="#2C75E3"/>
    <path d="M14.4063 3.43073C14.4063 3.59119 14.3459 3.74509 14.2383 3.85856C14.1308 3.97202 13.985 4.03577 13.8329 4.03577H1.14487C0.992815 4.03577 0.846983 3.97202 0.739461 3.85856C0.631938 3.74509 0.571533 3.59119 0.571533 3.43073C0.571533 3.27026 0.631938 3.11636 0.739461 3.0029C0.846983 2.88943 0.992815 2.82568 1.14487 2.82568H13.8329C13.985 2.82568 14.1308 2.88943 14.2383 3.0029C14.3459 3.11636 14.4063 3.27026 14.4063 3.43073Z" fill="#2C75E3"/>
    <path d="M5.53095 13.4381C5.37889 13.4381 5.23306 13.3744 5.12554 13.2609C5.01802 13.1474 4.95761 12.9935 4.95761 12.8331V8.37994C4.95761 8.21948 5.01802 8.06559 5.12554 7.95212C5.23306 7.83866 5.37889 7.7749 5.53095 7.7749C5.68301 7.7749 5.82884 7.83866 5.93637 7.95212C6.04389 8.06559 6.10429 8.21948 6.10429 8.37994V12.8331C6.10429 12.9935 6.04389 13.1474 5.93637 13.2609C5.82884 13.3744 5.68301 13.4381 5.53095 13.4381Z" fill="#2C75E3"/>
    <path d="M9.43542 13.4381C9.28336 13.4381 9.13753 13.3744 9.03 13.2609C8.92248 13.1474 8.86208 12.9935 8.86208 12.8331V8.37994C8.86208 8.21948 8.92248 8.06559 9.03 7.95212C9.13753 7.83866 9.28336 7.7749 9.43542 7.7749C9.58748 7.7749 9.73331 7.83866 9.84083 7.95212C9.94835 8.06559 10.0088 8.21948 10.0088 8.37994V12.8331C10.0088 12.9935 9.94835 13.1474 9.84083 13.2609C9.73331 13.3744 9.58748 13.4381 9.43542 13.4381Z" fill="#2C75E3"/>
    </svg>
    