<svg width="16" height="15" viewBox="0 0 16 15" fill="none" xmlns="http://www.w3.org/2000/svg">
<path d="M11.1733 14.969C10.9161 14.9686 10.6626 14.9049 10.4336 14.7831L7.68371 13.2769C7.6286 13.2465 7.56716 13.2306 7.50477 13.2306C7.44237 13.2306 7.38092 13.2465 7.3258 13.2769L4.5759 14.7831C4.31509 14.9246 4.02142 14.9877 3.72796 14.9653C3.4345 14.9429 3.1529 14.8357 2.91484 14.656C2.67679 14.4763 2.49174 14.2311 2.38052 13.948C2.2693 13.6649 2.23633 13.3552 2.28531 13.0537L2.81024 9.86777C2.82137 9.80425 2.8174 9.73886 2.79868 9.67729C2.77997 9.61572 2.74707 9.55983 2.70286 9.51446L0.471921 7.28926C0.262447 7.07503 0.114599 6.80436 0.0449821 6.50765C-0.0246347 6.21094 -0.0132598 5.89993 0.0778221 5.60956C0.168904 5.31919 0.33608 5.06097 0.560592 4.86387C0.785105 4.66678 1.05806 4.53863 1.34879 4.49381L4.42678 4.02894C4.48799 4.02003 4.54615 3.99557 4.59609 3.95773C4.64604 3.91989 4.68622 3.86983 4.71309 3.81199L6.09104 0.917366C6.22051 0.642344 6.42162 0.410574 6.67153 0.248408C6.92144 0.0862417 7.21013 0.000188014 7.50477 1.43344e-05C7.7997 -0.00127309 8.08896 0.0841843 8.33913 0.246516C8.5893 0.408848 8.79016 0.641424 8.91849 0.917366L10.2964 3.81199C10.3243 3.87029 10.3655 3.92058 10.4165 3.95841C10.4675 3.99624 10.5266 4.02047 10.5887 4.02894L13.6607 4.49381C13.9527 4.53645 14.2273 4.6634 14.4533 4.86023C14.6792 5.05706 14.8475 5.31585 14.9388 5.60715C15.0302 5.89845 15.0411 6.21055 14.9701 6.50793C14.8992 6.80531 14.7493 7.07603 14.5376 7.28926L12.3126 9.54546C12.2674 9.59021 12.2333 9.64583 12.2136 9.70743C12.1938 9.76903 12.1889 9.83474 12.1993 9.89877L12.7242 13.0847C12.7623 13.3195 12.7507 13.5601 12.6904 13.7898C12.6301 14.0195 12.5225 14.2328 12.375 14.415C12.2274 14.5972 12.0436 14.7438 11.8361 14.8449C11.6286 14.9459 11.4024 14.9988 11.1733 15V14.969ZM7.50477 11.9938C7.76017 11.9935 8.01186 12.0573 8.23846 12.1798L10.9884 13.686C11.0494 13.7249 11.1196 13.7455 11.1912 13.7455C11.2628 13.7455 11.333 13.7249 11.394 13.686C11.4532 13.6432 11.4992 13.5836 11.5267 13.5144C11.5542 13.4451 11.562 13.3691 11.5491 13.2955L11.0242 10.1095C10.9807 9.84767 10.9993 9.57878 11.0783 9.32607C11.1573 9.07337 11.2943 8.84445 11.4775 8.6591L13.7025 6.4029C13.755 6.35175 13.792 6.2858 13.8089 6.21314C13.8259 6.14048 13.822 6.06425 13.7979 5.99381C13.7782 5.92145 13.7381 5.85685 13.6829 5.80826C13.6276 5.75968 13.5597 5.72933 13.4878 5.72108L10.4157 5.25621C10.1613 5.21937 9.91937 5.11814 9.71135 4.96143C9.50333 4.80472 9.33554 4.59732 9.22271 4.35745L7.84476 1.46282C7.81324 1.39549 7.76403 1.3388 7.70281 1.29931C7.64158 1.25983 7.57085 1.23916 7.4988 1.23968C7.42674 1.23916 7.35601 1.25983 7.29478 1.29931C7.23356 1.3388 7.18435 1.39549 7.15283 1.46282L5.78085 4.35745C5.66718 4.59667 5.49915 4.80352 5.29129 4.96012C5.08342 5.11671 4.84198 5.21833 4.58783 5.25621L1.50984 5.72108C1.4379 5.72933 1.36997 5.75968 1.31471 5.80826C1.25946 5.85685 1.2194 5.92145 1.19966 5.99381C1.17555 6.06425 1.17173 6.14048 1.18869 6.21314C1.20564 6.2858 1.24262 6.35175 1.29511 6.4029L3.52007 8.6591C3.70414 8.84382 3.84173 9.07267 3.92078 9.32557C3.99983 9.57846 4.01791 9.84766 3.97343 10.1095L3.44849 13.2955C3.43558 13.3691 3.44335 13.4451 3.47085 13.5144C3.49835 13.5836 3.54442 13.6432 3.60359 13.686C3.66461 13.7249 3.73481 13.7455 3.8064 13.7455C3.878 13.7455 3.94819 13.7249 4.00921 13.686L6.75913 12.1798C6.98956 12.0561 7.24541 11.9923 7.50477 11.9938Z" fill="#2C75E3"/>
</svg>
