<svg width="24" height="20" viewBox="0 0 24 20" fill="none" xmlns="http://www.w3.org/2000/svg">
    <g clip-path="url(#clip0_150_10627)">
    <path d="M19.6867 6.65413C19.3894 4.79616 18.458 3.107 17.0588 1.88818C15.6595 0.669373 13.8835 0.000244141 12.0476 0.000244141C10.2118 0.000244141 8.43579 0.669373 7.03652 1.88818C5.63726 3.107 4.70586 4.79616 4.4086 6.65413C4.33533 7.08623 4.29887 7.52405 4.29963 7.96263C4.29963 8.0092 4.29963 8.05576 4.29963 8.10233C4.61444 8.02172 4.93771 7.98106 5.26218 7.98126H5.65718C5.65532 7.51153 5.70405 7.04304 5.80248 6.58428C6.10756 5.11953 6.89344 3.80649 8.02885 2.86448C9.16426 1.92248 10.5804 1.40855 12.0408 1.40855C13.5012 1.40855 14.9174 1.92248 16.0528 2.86448C17.1882 3.80649 17.9741 5.11953 18.2792 6.58428C18.3776 7.04304 18.4264 7.51153 18.4245 7.98126H18.7332C19.0879 7.98079 19.4409 8.03094 19.782 8.13027C19.782 8.07439 19.782 8.01851 19.782 7.96263C19.7859 7.5245 19.754 7.08681 19.6867 6.65413Z" fill="#B3B3B3"/>
    <path d="M19.6868 6.65415C19.3736 6.5963 19.0561 6.56669 18.7378 6.56568H18.2838C18.3822 7.02443 18.431 7.49293 18.4291 7.96265H18.7378C19.0925 7.96218 19.4455 8.01234 19.7867 8.11166C20.6383 8.35785 21.3829 8.89409 21.8979 9.63212C22.4128 10.3701 22.6674 11.266 22.6198 12.1722C22.5469 13.2155 22.0878 14.1906 21.3365 14.898C20.5852 15.6053 19.5987 15.9912 18.5789 15.9766H16.1953C16.0147 15.9766 15.8414 16.0502 15.7137 16.1812C15.586 16.3122 15.5142 16.4899 15.5142 16.6751C15.5142 16.8604 15.586 17.038 15.7137 17.169C15.8414 17.3 16.0147 17.3736 16.1953 17.3736H18.5471C19.9217 17.3962 21.2524 16.8778 22.2658 15.9251C23.2792 14.9724 23.8981 13.6577 23.9955 12.2514C24.0638 10.9406 23.664 9.64916 22.8709 8.61889C22.0778 7.58862 20.9458 6.89012 19.6868 6.65415ZM1.36667 12.1117C1.33384 11.1971 1.60744 10.2985 2.14192 9.56566C2.67641 8.83278 3.43954 8.30978 4.30425 8.08372C4.61905 8.00311 4.94232 7.96245 5.26679 7.96265H5.66179C5.65993 7.49293 5.70865 7.02443 5.80708 6.56568H5.26679C4.97939 6.56542 4.69243 6.58877 4.40867 6.63553C3.11886 6.87085 1.96103 7.59115 1.16157 8.65557C0.362104 9.71999 -0.0214888 11.052 0.085802 12.3911C0.193093 13.7302 0.783552 14.9801 1.74171 15.8964C2.69987 16.8126 3.95683 17.3294 5.26679 17.3457H8.28154C8.46217 17.3457 8.6354 17.2721 8.76312 17.1411C8.89084 17.0101 8.96259 16.8324 8.96259 16.6472C8.96259 16.4619 8.89084 16.2843 8.76312 16.1533C8.6354 16.0223 8.46217 15.9487 8.28154 15.9487H5.41208C4.38675 15.9628 3.39529 15.5726 2.64246 14.8585C1.88963 14.1444 1.43293 13.1611 1.36667 12.1117Z" fill="#B3B3B3"/>
    <path d="M12.0454 20C11.8648 20 11.6916 19.9264 11.5638 19.7954C11.4361 19.6644 11.3644 19.4868 11.3644 19.3015V13.7136C11.3644 13.5284 11.4361 13.3507 11.5638 13.2197C11.6916 13.0887 11.8648 13.0151 12.0454 13.0151C12.226 13.0151 12.3993 13.0887 12.527 13.2197C12.6547 13.3507 12.7265 13.5284 12.7265 13.7136V19.3015C12.7265 19.4868 12.6547 19.6644 12.527 19.7954C12.3993 19.9264 12.226 20 12.0454 20Z" fill="#B3B3B3"/>
    <path d="M9.9069 15.7114C9.75405 15.7104 9.60574 15.6581 9.48466 15.5624C9.41418 15.5056 9.35531 15.4351 9.31145 15.355C9.26759 15.2748 9.23958 15.1866 9.22904 15.0953C9.21849 15.004 9.22561 14.9115 9.25 14.823C9.27439 14.7346 9.31556 14.652 9.37115 14.5799L11.5187 11.7859C11.6369 11.6691 11.7922 11.6 11.9562 11.5913C12.1201 11.5826 12.2816 11.6349 12.4109 11.7386C12.5402 11.8423 12.6286 11.9904 12.6599 12.1557C12.6912 12.321 12.6632 12.4923 12.5811 12.6381L10.4336 15.432C10.3718 15.516 10.2924 15.5848 10.2012 15.6331C10.1101 15.6815 10.0095 15.7082 9.9069 15.7114Z" fill="#B3B3B3"/>
    <path d="M14.193 15.7114C14.0896 15.7107 13.9877 15.686 13.895 15.6393C13.8022 15.5925 13.7209 15.5248 13.6572 15.4413L11.5097 12.6473C11.4542 12.5752 11.4132 12.4925 11.3889 12.4041C11.3646 12.3157 11.3575 12.2232 11.368 12.1319C11.3786 12.0407 11.4065 11.9525 11.4503 11.8723C11.4941 11.7922 11.5528 11.7217 11.6232 11.6648C11.6935 11.6079 11.7741 11.5658 11.8603 11.5409C11.9466 11.516 12.0367 11.5087 12.1257 11.5195C12.2147 11.5303 12.3007 11.559 12.3788 11.6039C12.457 11.6488 12.5257 11.709 12.5812 11.7812L14.7287 14.5752C14.7843 14.6473 14.8255 14.7299 14.8499 14.8183C14.8743 14.9068 14.8814 14.9993 14.8708 15.0906C14.8603 15.1819 14.8323 15.2701 14.7884 15.3503C14.7446 15.4304 14.6857 15.5009 14.6152 15.5577C14.4947 15.655 14.3464 15.709 14.193 15.7114Z" fill="#B3B3B3"/>
    </g>
    <defs>
    <clipPath id="clip0_150_10627">
    <rect width="24" height="20" fill="white"/>
    </clipPath>
    </defs>
    </svg>
    