<svg width="14" height="12" viewBox="0 0 14 12" fill="none" xmlns="http://www.w3.org/2000/svg">
<path d="M9.45368 1.22672H11.2878L7.6999 4.63462C7.6528 4.67988 7.61543 4.73373 7.58991 4.79305C7.5644 4.85238 7.55127 4.91601 7.55127 4.98028C7.55127 5.04455 7.5644 5.10818 7.58991 5.16751C7.61543 5.22683 7.6528 5.28068 7.6999 5.32594C7.74644 5.37194 7.80195 5.40854 7.86319 5.43361C7.92444 5.45868 7.99021 5.47172 8.0567 5.47199C8.18852 5.47145 8.31485 5.42075 8.40845 5.3308L12.0165 1.88882V3.66093C12.0165 3.79005 12.0694 3.91388 12.1637 4.00518C12.2579 4.09649 12.3857 4.14778 12.519 4.14778C12.6523 4.14778 12.7801 4.09649 12.8743 4.00518C12.9686 3.91388 13.0215 3.79005 13.0215 3.66093V0.739872C13.0215 0.739872 13.0215 0.710663 13.0215 0.696058C13.0192 0.647748 13.009 0.600091 12.9914 0.554869C12.9742 0.510421 12.9467 0.47043 12.911 0.438031C12.911 0.438031 12.911 0.408819 12.911 0.399083C12.8637 0.355226 12.8094 0.319058 12.7502 0.291976C12.6739 0.261218 12.5914 0.24789 12.5089 0.253028H9.44865C9.31538 0.253028 9.18755 0.30432 9.09331 0.395621C8.99907 0.486922 8.94614 0.610753 8.94614 0.739872C8.94614 0.868991 8.99907 0.992822 9.09331 1.08412C9.18755 1.17542 9.31538 1.22672 9.44865 1.22672H9.45368Z" fill="#231F20"/>
<path d="M12.509 5.05905C12.3757 5.05905 12.2479 5.11034 12.1537 5.20164C12.0594 5.29294 12.0065 5.41678 12.0065 5.54589V9.01709C12.0065 9.55035 11.7878 10.0618 11.3986 10.4388C11.0094 10.8159 10.4815 11.0278 9.93111 11.0278H3.96629C3.41494 11.0265 2.88656 10.8137 2.4967 10.436C2.10683 10.0583 1.88721 9.54638 1.88588 9.01223V3.21392C1.8925 2.68404 2.11477 2.17812 2.50435 1.80616C2.89393 1.4342 3.41933 1.22627 3.96629 1.22759H7.53915C7.67242 1.22759 7.80025 1.1763 7.89449 1.085C7.98873 0.9937 8.04166 0.869869 8.04166 0.74075C8.04166 0.611631 7.98873 0.4878 7.89449 0.396499C7.80025 0.305198 7.67242 0.253906 7.53915 0.253906H3.96629C3.14886 0.253905 2.36483 0.568173 1.78634 1.12771C1.20786 1.68724 0.882191 2.44631 0.880859 3.23826V9.01709C0.882191 9.80904 1.20786 10.5681 1.78634 11.1276C2.36483 11.6872 3.14886 12.0014 3.96629 12.0014H9.95625C10.7693 11.9963 11.5471 11.6795 12.1197 11.1202C12.6922 10.5609 13.0129 9.80478 13.0115 9.01709V5.54589C13.0115 5.41678 12.9586 5.29294 12.8643 5.20164C12.7701 5.11034 12.6423 5.05905 12.509 5.05905Z" fill="#231F20"/>
</svg>
