<svg width="14" height="12" viewBox="0 0 14 12" fill="none" xmlns="http://www.w3.org/2000/svg">
<path d="M2.58872 0.973687H4.42791C4.56119 0.973687 4.689 0.922395 4.78324 0.831094C4.87748 0.739794 4.93043 0.615963 4.93043 0.486844C4.93043 0.357725 4.87748 0.233894 4.78324 0.142593C4.689 0.0512919 4.56119 0 4.42791 0H1.36258C1.2961 0.000267399 1.23033 0.013313 1.16908 0.0383838C1.10784 0.0634546 1.05233 0.100054 1.00579 0.146055C0.996299 0.158329 0.9879 0.171359 0.980671 0.185003C0.948182 0.219981 0.921098 0.259333 0.900267 0.301841C0.88258 0.347063 0.872404 0.39472 0.870117 0.443029C0.870117 0.443029 0.870117 0.472238 0.870117 0.486844V3.44685C0.870117 3.57597 0.923068 3.6998 1.01731 3.7911C1.11155 3.88241 1.23936 3.9337 1.37263 3.9337C1.5059 3.9337 1.63373 3.88241 1.72797 3.7911C1.82221 3.6998 1.87514 3.57597 1.87514 3.44685V1.665L5.48318 5.10699C5.52989 5.15262 5.58548 5.18884 5.64672 5.21356C5.70795 5.23827 5.77364 5.251 5.83997 5.251C5.90631 5.251 5.97198 5.23827 6.03322 5.21356C6.09445 5.18884 6.15004 5.15262 6.19675 5.10699C6.29035 5.01578 6.34288 4.89238 6.34288 4.76377C6.34288 4.63515 6.29035 4.51176 6.19675 4.42054L2.58872 0.973687Z" fill="#231F20"/>
<path d="M13.011 0.44303C13.0087 0.39472 12.9986 0.347063 12.9809 0.301841C12.9638 0.257393 12.9362 0.217402 12.9005 0.185003C12.9005 0.185003 12.9005 0.155791 12.9005 0.146055C12.8559 0.0990711 12.8009 0.0624566 12.7397 0.0389484C12.6774 0.0144197 12.6109 0.00121617 12.5437 0H9.48339C9.35012 0 9.22229 0.0512919 9.12805 0.142593C9.03381 0.233894 8.98088 0.357725 8.98088 0.486844C8.98088 0.615963 9.03381 0.739794 9.12805 0.831095C9.22229 0.922395 9.35012 0.973687 9.48339 0.973687H11.3176L7.72961 4.38159C7.63602 4.47281 7.5835 4.5962 7.5835 4.72482C7.5835 4.85344 7.63602 4.97683 7.72961 5.06804C7.77615 5.11405 7.83166 5.15064 7.8929 5.17571C7.95415 5.20078 8.01992 5.21383 8.08641 5.2141C8.21824 5.21356 8.34456 5.16285 8.43816 5.07291L12.0462 1.63093V3.44685C12.0462 3.57597 12.0991 3.6998 12.1934 3.79111C12.2876 3.88241 12.4154 3.9337 12.5487 3.9337C12.682 3.9337 12.8098 3.88241 12.904 3.79111C12.9983 3.6998 13.0512 3.57597 13.0512 3.44685V0.501448C13.0512 0.501448 13.011 0.457635 13.011 0.44303Z" fill="#231F20"/>
<path d="M5.47341 6.73282L1.86538 10.1748V8.39296C1.86538 8.26384 1.81243 8.14001 1.71819 8.04871C1.62395 7.95741 1.49614 7.90612 1.36286 7.90612C1.22959 7.90612 1.10177 7.95741 1.00753 8.04871C0.913287 8.14001 0.860352 8.26384 0.860352 8.39296V11.3384C0.860352 11.3384 0.860352 11.3676 0.860352 11.3822C0.862639 11.4305 0.872814 11.4781 0.890501 11.5234C0.911333 11.5659 0.938417 11.6052 0.970905 11.6402C0.978134 11.6539 0.986533 11.6669 0.996024 11.6792C1.04601 11.722 1.10181 11.758 1.16186 11.7863C1.22262 11.8095 1.28747 11.8211 1.3528 11.8203H4.41813C4.55141 11.8203 4.67923 11.769 4.77347 11.6777C4.86771 11.5864 4.92065 11.4626 4.92065 11.3335C4.92065 11.2044 4.86771 11.0805 4.77347 10.9892C4.67923 10.8979 4.55141 10.8467 4.41813 10.8467H2.57894L6.16688 7.43875C6.21407 7.39399 6.25169 7.34068 6.27761 7.28184C6.30352 7.223 6.31721 7.15979 6.31791 7.09582C6.31861 7.03185 6.30631 6.96838 6.28168 6.90902C6.25706 6.84966 6.22061 6.79558 6.17441 6.74987C6.12822 6.70415 6.07319 6.6677 6.01245 6.6426C5.95172 6.61749 5.88648 6.60422 5.82046 6.60354C5.75443 6.60286 5.68891 6.61479 5.62764 6.63864C5.56637 6.6625 5.51055 6.69781 5.46337 6.74256L5.47341 6.73282Z" fill="#231F20"/>
<path d="M12.5088 7.90666C12.3755 7.90666 12.2477 7.95795 12.1534 8.04925C12.0592 8.14055 12.0062 8.26438 12.0062 8.3935V10.1754L8.39821 6.73336C8.30405 6.64269 8.17668 6.5918 8.04393 6.5918C7.91117 6.5918 7.78381 6.64269 7.68966 6.73336C7.64256 6.77862 7.60517 6.83247 7.57966 6.8918C7.55415 6.95112 7.54102 7.01476 7.54102 7.07903C7.54102 7.1433 7.55415 7.20692 7.57966 7.26625C7.60517 7.32558 7.64256 7.37942 7.68966 7.42468L11.2776 10.8326H9.44343C9.31015 10.8326 9.18234 10.8839 9.0881 10.9752C8.99386 11.0665 8.94091 11.1903 8.94091 11.3194C8.94091 11.4486 8.99386 11.5724 9.0881 11.6637C9.18234 11.755 9.31015 11.8063 9.44343 11.8063H12.5088C12.5741 11.8071 12.639 11.7955 12.6997 11.7722C12.7611 11.7463 12.8173 11.7101 12.8655 11.6651C12.8655 11.6651 12.8655 11.6651 12.8655 11.6261C12.9013 11.5937 12.9288 11.5537 12.9459 11.5093C12.9636 11.4641 12.9738 11.4164 12.9761 11.3681C12.9761 11.3681 12.9761 11.3438 12.9761 11.3243V8.3789C12.9726 8.25801 12.9229 8.14268 12.8365 8.05539C12.7501 7.96809 12.6333 7.91508 12.5088 7.90666Z" fill="#231F20"/>
</svg>
