<svg width="17" height="16" viewBox="0 0 17 16" fill="none" xmlns="http://www.w3.org/2000/svg">
<path d="M12.058 0H4.80064C2.49327 0 0.623047 1.81045 0.623047 4.0435V11.0379C0.623047 13.2709 2.49327 15.0814 4.80064 15.0814H12.058C14.3653 15.0814 16.2356 13.2709 16.2356 11.0379V4.0435C16.2356 1.81045 14.365 0 12.058 0Z" fill="#2C75E3"/>
<path d="M6.34838 7.87739C6.35278 7.16 6.42153 6.44457 6.55375 5.74036C6.08091 5.59751 5.62812 5.3913 5.20686 5.12695C4.73537 5.96237 4.48036 6.90982 4.46655 7.87739H6.34838Z" fill="white"/>
<path d="M6.55375 10.2596C6.42164 9.55616 6.35288 8.84157 6.34838 8.125H4.46655C4.48077 9.09173 4.73577 10.0383 5.20686 10.873C5.62863 10.6096 6.08129 10.4035 6.55375 10.2596Z" fill="white"/>
<path d="M7.74543 12.9061C7.25109 12.4609 6.8475 11.6076 6.60153 10.502C6.15673 10.6391 5.73001 10.8327 5.33105 11.0782C5.88034 11.9851 6.74444 12.6393 7.74543 12.9061Z" fill="white"/>
<path d="M7.74543 3.09375C6.74444 3.36056 5.88034 4.01476 5.33105 4.92161C5.73001 5.16718 6.15673 5.36075 6.60153 5.49792C6.8475 4.38241 7.24154 3.53897 7.74543 3.09375Z" fill="white"/>
<path d="M6.84253 5.56247C7.94867 5.85595 9.10839 5.85595 10.2145 5.56247C9.87781 4.04874 9.24018 3 8.52853 3C7.81687 3 7.17925 4.04874 6.84253 5.56247Z" fill="white"/>
<path d="M6.58716 8.125C6.59241 8.82107 6.66117 9.51506 6.79254 10.1977C7.93143 9.89427 9.12595 9.89427 10.2648 10.1977C10.3962 9.51506 10.465 8.82107 10.4702 8.125H6.58716Z" fill="white"/>
<path d="M6.76389 12.7924C6.09949 12.4169 5.53631 11.8753 5.12565 11.2168C5.02774 11.2836 4.93699 11.3553 4.84863 11.4295C5.37367 12.0347 6.03016 12.5018 6.76389 12.7924Z" fill="white"/>
<path d="M5.1304 4.79041C5.54106 4.13192 6.10423 3.5903 6.76864 3.21484C6.03709 3.507 5.3825 3.97395 4.85815 4.57768C4.94174 4.65189 5.03249 4.72363 5.1304 4.79041Z" fill="white"/>
<path d="M8.52869 6.03028C7.94307 6.02983 7.35981 5.95338 6.79254 5.80273C6.66105 6.48621 6.59229 7.18104 6.58716 7.87794H10.4702C10.4651 7.18104 10.3963 6.48621 10.2648 5.80273C9.69757 5.95338 9.11431 6.02983 8.52869 6.03028Z" fill="white"/>
<path d="M8.52853 10.2178C7.95987 10.2182 7.39349 10.2921 6.84253 10.4379C7.17925 11.9516 7.81687 13.0004 8.52853 13.0004C9.24018 13.0004 9.87781 11.9516 10.2145 10.4379C9.66356 10.2921 9.09718 10.2182 8.52853 10.2178Z" fill="white"/>
<path d="M5.00379 11.0041C4.50944 10.13 4.24282 9.1379 4.23005 8.125H3.58765C3.61126 9.26315 4.00221 10.3603 4.69812 11.2415C4.79603 11.1599 4.89633 11.0807 5.00379 11.0041Z" fill="white"/>
<path d="M4.23005 7.8779C4.24252 6.86418 4.50915 5.8712 5.00379 4.99637C4.89633 4.91969 4.79603 4.84054 4.69812 4.74902C4.00187 5.63096 3.61091 6.72905 3.58765 7.86801L4.23005 7.8779Z" fill="white"/>
<path d="M12.8272 8.125C12.8144 9.1379 12.5478 10.13 12.0535 11.0041C12.1609 11.0807 12.2612 11.1599 12.3591 11.2514C13.0551 10.3702 13.446 9.27304 13.4696 8.13489L12.8272 8.125Z" fill="white"/>
<path d="M10.2886 3.21484C10.953 3.5903 11.5162 4.13192 11.9268 4.79041C12.0247 4.72363 12.1155 4.65189 12.2038 4.57768C11.6781 3.97331 11.0218 3.50632 10.2886 3.21484Z" fill="white"/>
<path d="M12.0535 4.99623C12.5481 5.87106 12.8147 6.86404 12.8272 7.87777H13.4696C13.4463 6.7388 13.0554 5.64073 12.3591 4.75879C12.2565 4.84041 12.1609 4.91955 12.0535 4.99623Z" fill="white"/>
<path d="M9.31201 3.09375C9.80635 3.53897 10.2099 4.3923 10.4559 5.49792C10.9007 5.36075 11.3274 5.16718 11.7264 4.92161C11.1771 4.01476 10.313 3.36056 9.31201 3.09375Z" fill="white"/>
<path d="M10.709 8.125C10.7045 8.84157 10.6358 9.55616 10.5037 10.2596C10.9761 10.4035 11.4288 10.6096 11.8506 10.873C12.322 10.0386 12.5763 9.0917 12.5885 8.125H10.709Z" fill="white"/>
<path d="M11.9268 11.209C11.5162 11.8675 10.953 12.4091 10.2886 12.7846C11.0206 12.4933 11.6754 12.0262 12.1991 11.4217C12.1155 11.3475 12.0176 11.2758 11.9268 11.209Z" fill="white"/>
<path d="M9.31201 12.9061C10.313 12.6393 11.1771 11.9851 11.7264 11.0782C11.3274 10.8327 10.9007 10.6391 10.4559 10.502C10.2099 11.6076 9.80635 12.4609 9.31201 12.9061Z" fill="white"/>
<path d="M10.5037 5.7399C10.6359 6.44412 10.7046 7.15954 10.709 7.87694H12.5885C12.577 6.90857 12.3227 5.95992 11.8506 5.12402C11.4294 5.38923 10.9766 5.59628 10.5037 5.7399Z" fill="white"/>
</svg>
